<svg width="500" height="500" viewBox="0 0 500 500" fill="none" xmlns="http://www.w3.org/2000/svg">
<path d="M352.001 227.7C352.001 227.7 334.601 201.8 336.801 194.1C339.801 183.8 347.801 158.6 371.301 157C394.801 155.4 425.001 174 441.201 224.4C478.501 340.2 429.501 303.9 429.501 303.9L415.701 283.7C413.901 281.9 411.501 280.7 408.901 280.5C404.301 280 397.201 257.9 397.201 257.9L352.001 227.7Z" fill="#000005"/>
<path d="M344.2 269.6C338.7 275.2 253.2 394.6 270.9 404.1C288.6 413.6 408.4 427.6 441 419.5C529.9 397.4 447 306.2 412.5 272.5C399.9 260 381.7 254.8 364.3 258.7C356.7 260.3 349.7 264.1 344.2 269.6Z" fill="#E987D0"/>
<path d="M342.2 268.1C339.7 270.9 337.5 273.8 335.4 276.9C330.9 283.1 326.4 289.4 322.1 295.7C316.4 304 310.8 312.3 305.3 320.7C299.5 329.6 293.8 338.6 288.4 347.7C283.5 356 278.8 364.3 274.6 373C271.5 379.4 268.4 386 266.8 392.9C265.8 397.1 265.4 402.6 269.5 405.3C271.8 406.6 274.3 407.7 276.8 408.3C280.2 409.3 283.6 410.2 287.1 410.9C296.9 413.1 306.8 414.7 316.7 416.1C328.9 417.9 341.1 419.3 353.4 420.5C365.8 421.7 378.3 422.7 390.8 423.3C401.6 423.8 412.4 424.1 423.3 423.6C427.6 423.4 431.8 423.1 436.1 422.5C440.8 421.8 445.4 420.7 449.9 419.1C460.2 415.7 470.5 410.2 476.9 401.1C482 393.7 483.7 384.6 482.8 375.7C481.8 365.4 478 355.6 473.4 346.4C468.1 336.1 461.9 326.3 454.8 317C447.8 307.7 440.4 298.9 432.6 290.3C429.2 286.5 425.7 282.8 422.1 279.2C418.6 275.7 415.2 272 411.4 268.7C398.5 257.6 381 252.6 364.2 256.1C355.9 258.1 348.2 262.2 342.2 268.1C341.4 269 342.5 270.5 343.2 271C344.1 271.8 345.4 271.8 346.3 271C358 259.3 376.9 256.7 392.1 261.9C399.4 264.4 406 268.5 411.5 273.9C414.7 277 417.8 280.1 420.8 283.3C428.2 291 435.3 298.9 442.1 307.1C449.4 315.9 456.2 325.1 462.3 334.8C467.9 343.9 472.8 353.2 475.9 363.4C478.4 371.7 479.5 380.7 477.1 389.1C474.6 397.8 468.3 404.6 460.4 409.3C455.1 412.4 449.3 414.7 443.4 416.3C441.2 416.9 439 417.5 436.8 417.9C436 418.1 435.1 418.2 434.3 418.3L433.7 418.4C434.2 418.3 433.5 418.4 433.4 418.4L432 418.6C422.6 419.5 413.2 419.9 403.8 419.6C392 419.4 380.3 418.7 368.5 417.8C356.2 416.8 344 415.6 331.8 414.1C320.9 412.7 310 411.2 299.1 409.2C291.3 408 283.6 406.2 276.1 404L275.6 403.8C275.3 403.7 275 403.6 274.7 403.5C274.2 403.3 273.6 403.1 273.1 402.9C272.6 402.7 272.2 402.5 271.7 402.3L271.4 402.2C270.9 402 271.9 402.6 271.7 402.3C271.6 402.2 271.4 402.1 271.3 402C271.6 402.1 271.8 402.5 271.4 402.1C271 401.7 271.6 402.5 271.4 402.1C271.3 401.9 271.2 401.8 271.1 401.7C271.3 401.9 271.3 402.2 271.1 401.6C271 401.4 271 401.2 270.9 401.1C270.7 400.5 270.9 401.4 270.9 400.9C270.9 400.4 270.8 400 270.8 399.6C270.8 399.2 270.8 398.6 270.8 398.1C270.8 397.6 270.8 398.5 270.8 398.1C270.8 398 270.8 397.8 270.8 397.7C270.8 397.6 270.9 397.1 270.9 396.8C271.1 395.5 271.4 394.3 271.7 393C272.6 389.9 273.7 386.9 274.9 383.9C278.3 376.1 282.1 368.5 286.3 361.1C291.3 352.2 296.6 343.4 302.1 334.7C307.6 326 313.2 317.4 319 308.8C323.9 301.5 328.9 294.3 333.9 287.2C337.2 282.6 340.5 278 343.9 273.5C344.6 272.6 345.3 271.7 346.1 270.9C347 270 345.8 268.5 345.1 268C344.3 267.4 343 267.4 342.2 268.1Z" fill="#E987D0"/>
<path d="M387.5 357.4C400.9 357.8 414.3 357 427.6 355.1L387.5 357.4Z" fill="white"/>
<path d="M388.101 358.6C401.601 359 415.201 358.2 428.601 356.2C429.401 356.1 429.601 355.3 429.101 354.7C428.501 354 427.501 353.7 426.601 353.8C413.501 355.7 400.201 356.5 386.901 356.1C386.201 356.1 385.501 356.5 385.801 357.3C386.301 358.2 387.201 358.6 388.101 358.6Z" fill="#000005"/>
<path d="M367.9 401.5C367.9 401.5 388.4 363.6 387.4 355.8C386.4 348 370.6 332 362.1 332.6C353.6 333.2 352.8 346.1 352.8 346.1C352.8 346.1 344.7 349.4 344.7 355.4C344.7 361.4 367.9 401.5 367.9 401.5Z" fill="white"/>
<path d="M370.2 402.5C375.2 393.2 380 383.7 384.2 374C385.5 371 386.8 367.9 387.9 364.8C388.8 362.6 389.4 360.4 389.7 358C390 355.4 388.8 353 387.5 350.8C385.4 347.3 382.8 344.2 379.8 341.4C376.8 338.4 373.4 335.8 369.6 333.8C366.4 332.1 362.5 330.6 358.9 331.5C355.6 332.4 353.4 335.1 352.2 338.1C351.6 339.4 351.2 340.8 351 342.2C350.7 343 350.6 343.9 350.6 344.8C350.6 345.1 350.6 344.9 350.7 344.8C350.4 345 350 345.1 349.7 345.3C348.3 346 347 346.9 345.8 347.9C343.7 349.8 341.9 352.6 342.6 355.6C343.1 357.6 343.8 359.5 344.7 361.4C345.9 364.2 347.3 367 348.7 369.8C353.9 380.2 359.6 390.3 365.4 400.3C365.5 400.5 365.6 400.7 365.8 400.9C366.6 401.8 367.6 402.4 368.8 402.5C369.4 402.6 370.7 402.6 370.1 401.7C366.5 395.4 363 389.1 359.5 382.8C356.8 377.9 354.2 372.9 351.7 367.9C350 364.5 348.1 361 347.2 357.3C346.1 352.6 351.1 348.7 354.9 347.2L355.1 347C355.5 342 358 333.7 364.1 333.8C365.3 333.9 366.6 334.2 367.6 334.8C369.5 335.8 371.3 337 372.9 338.3C376.5 341.2 379.7 344.6 382.2 348.4C383.7 350.7 385.4 353.5 385 356.3C384.5 359.1 383.7 361.9 382.6 364.5C379.7 372 376.4 379.3 372.7 386.4C370.4 391.1 368 395.7 365.5 400.3C365 401.6 369.5 403.8 370.2 402.5Z" fill="#000005"/>
<path d="M376.001 349.9C376.601 349.9 376.401 350 376.101 349.9L375.401 349.7C374.601 349.4 373.901 349.2 373.101 348.9C371.001 348.1 368.801 347.3 366.601 346.6C364.101 345.8 361.601 345.1 359.101 344.5C356.801 343.9 354.501 343.7 352.201 343.9C349.401 344.2 351.101 348.7 353.401 348.4C358.001 347.9 362.901 349.6 367.301 351.1C369.401 351.8 371.501 352.6 373.601 353.3C374.701 353.8 375.901 354.2 377.101 354.4C378.301 354.5 378.801 353.2 378.501 352.2C378.301 351 377.301 350.1 376.001 349.9Z" fill="#000005"/>
<path d="M371.4 360.4C368.8 358.4 366 356.9 362.9 356C357.3 354.3 351.6 355.2 347.2 359.2C345.8 360.5 349.3 364 350.8 362.7C354.4 359.4 359.6 358.3 364.3 360C365.2 360.3 366 360.6 366.8 361L367.9 361.6L368.5 361.9C369 362.2 368.3 361.7 368.6 362C369.3 362.4 369.9 362.8 370.5 363.3C371.1 363.8 372.5 364.3 373 363.3C373.5 362.3 372.1 360.9 371.4 360.4Z" fill="#000005"/>
<path d="M367 366.1C363 364.5 358.3 363.3 354.1 364.7C352.5 365.2 351.1 366.4 350.2 367.8C349.8 368.7 350.2 369.8 351.2 370.2C351.3 370.3 351.5 370.3 351.6 370.3C352.9 370.6 354.2 370.1 354.8 369C354.4 369.4 355 368.7 354.8 369L355.1 368.6C354.8 368.9 354.7 368.9 354.9 368.8C355 368.7 355 368.7 355.1 368.7C355.2 368.6 355.4 368.5 355.5 368.4C355.1 368.6 355 368.7 355.3 368.5L355.5 368.4C355.7 368.4 355.8 368.3 356 368.2L355.7 368.3L355.9 368.2L356.3 368.1L356.8 368C356.3 368 357.5 367.9 356.8 368C357.3 368 357.5 368 357.9 368C358.3 368 358.6 368 359 368.1C359.2 368.1 359.8 368.2 359 368.1L359.5 368.2C360.7 368.4 361.9 368.7 363 369.1C363.4 369.2 363.8 369.3 364.1 369.5C364.4 369.7 364.9 369.8 363.9 369.4H364C365.2 370 366.6 369.7 367.5 368.8C368.2 368.1 368.1 366.9 367.4 366.3C367.2 366.3 367.1 366.2 367 366.1Z" fill="#000005"/>
<path d="M367.601 348.9C367.601 348.9 405.201 320.9 404.001 318.8C402.801 316.7 396.201 311.9 392.901 311.9C389.601 311.9 358.301 347.1 358.301 347.1L367.601 348.9Z" fill="#000005"/>
<path d="M368.7 349.5C373.7 345.8 378.7 341.9 383.7 338.1C387.7 335 391.6 331.9 395.5 328.7C398.5 326.3 401.4 323.8 404.1 321.1C404.9 320.4 405.6 319.5 406.1 318.5C406.3 318 406.1 317.4 405.7 317C404.8 316 403.8 315.1 402.7 314.3C400.5 312.6 397.6 310.7 394.7 310.4C393 310.2 391.5 311.2 390.2 312.1C387.4 314.3 384.8 316.7 382.4 319.2C378.9 322.7 375.4 326.3 372 330C366.9 335.5 361.8 341 356.8 346.7L356.6 347C356.1 347.5 355.5 348.5 356.6 348.8L366 350.6C367.1 350.8 368.4 349.9 369.1 349.2C369.6 348.7 370.2 347.7 369.1 347.4L359.8 345.6V347.4C363.7 343 367.7 338.6 371.7 334.2C375 330.6 378.4 327 381.8 323.4C383.4 321.8 385 320.2 386.6 318.6C387.3 317.9 388 317.2 388.7 316.5L389.6 315.6L390 315.2C390.2 315 390.5 314.7 390.1 315.1C390.6 314.6 391.1 314.2 391.6 313.8C391.8 313.6 392.1 313.5 392.3 313.3C392.5 313.1 392.2 313.4 392.1 313.5C392.2 313.5 392.3 313.3 392.4 313.3C392.9 313.1 391.7 313.6 392.3 313.4C392 313.5 391.8 313.5 391.5 313.6C391.6 313.6 391.2 313.6 391.6 313.6C392.9 313.9 394.1 314.3 395.3 315C397.6 316.3 399.8 318 401.6 319.9C401.8 320.2 401.7 320.1 401.7 320.1C401.7 319.7 401.8 319.8 401.7 319.9C401.6 320.2 401.9 319.6 401.8 319.8C401.7 320 401.6 320.1 401.5 320.2C401.2 320.6 401.8 319.9 401.3 320.4C400.4 321.4 399.4 322.3 398.3 323.3L397.7 323.8L396.6 324.8C395.8 325.5 395.1 326.1 394.3 326.8C390.7 329.8 386.9 332.8 383.2 335.7C377.7 340 372.1 344.1 366.6 348.3L366.3 348.5C365.8 348.9 364.7 350 365.5 350.6C366.3 351.2 368.1 349.9 368.7 349.5Z" fill="#000005"/>
<path d="M327.4 315.7C327.4 315.7 377.5 432.2 376.8 433.8C376.1 435.4 294.3 450 287.6 445.7C280.9 441.4 245.3 324.8 246.5 322.9C247.7 321 325.8 314.2 327.4 315.7Z" fill="white"/>
<path d="M325.3 315.6C326.4 318.1 327.5 320.7 328.6 323.2C331.4 329.7 334.2 336.2 337 342.7C340.7 351.3 344.4 359.9 348 368.6C351.8 377.6 355.7 386.7 359.5 395.8C362.7 403.4 365.9 411 369 418.7C370.8 423.2 372.7 427.6 374.3 432.2C374.4 432.4 374.5 432.7 374.5 433C374.7 433.5 374.5 432.5 374.5 433.1C374.5 433.7 374.6 432.7 374.7 432.5C374.8 432.3 375.1 432.1 374.7 432.4C374.5 432.5 375.2 432.3 374.7 432.4L374.3 432.5C373.9 432.6 373.5 432.7 373.2 432.8C372.1 433.1 371 433.3 369.9 433.6C362.1 435.3 354.3 436.7 346.4 438C336.4 439.7 326.4 441.3 316.3 442.6C311.8 443.2 307.3 443.7 302.7 444.1C300.8 444.3 298.8 444.4 296.9 444.5H296.6H296H294.7C294 444.5 293.3 444.5 292.5 444.5C291.3 444.5 290.1 444.5 288.9 444.3C288.8 444.3 288 444.2 288.5 444.3C289 444.4 288.3 444.3 288.1 444.2C287.9 444.1 287.7 444.1 287.6 444.1C288 444.1 288.2 444.4 287.7 444.1C288.7 444.6 287.6 443.9 288.5 444.6L288.3 444.4C288.1 444.2 288.7 445 288.4 444.5C288.3 444.4 288.2 444.3 288.1 444.1C287.9 443.8 287.7 443.5 287.5 443.1C287.3 442.7 287.1 442.4 287.4 443C287.3 442.8 287.2 442.5 287 442.3C284.3 436.8 282 431.1 280 425.3C276.8 416.7 273.9 408.1 271 399.4C267.8 389.7 264.7 380 261.6 370.3C258.9 361.6 256.3 352.9 253.7 344.2C252.7 340.8 251.7 337.4 250.8 334C250.8 333.9 250.6 333.4 250.7 333.7C250.8 334 250.6 333.4 250.6 333.4L250.3 332.3L249.8 330.4C249.5 329.4 249.2 328.3 249 327.3C248.8 326.3 248.6 324.9 248.3 323.8C248.4 324.1 248.2 324.3 247.9 324.7C247.9 324.7 248 324.6 248.1 324.6C248.4 324.4 247.6 324.7 248 324.6C248.8 324.4 249.5 324.2 250.3 324.1C257.3 322.9 264.5 322.2 271.6 321.5C281.4 320.5 291.3 319.6 301.1 318.9C308.9 318.3 316.1 317.7 323.7 317.6C324.6 317.6 325.6 317.6 326.5 317.6C326.8 317.6 327.1 317.7 327.4 317.7C327.9 317.7 326.9 317.6 327.2 317.7H327.3C326.7 317.5 326.2 317.2 325.8 316.8C326.6 317.5 327.9 318.4 328.9 317.7C329.9 317 329.3 315.7 328.6 315.1C326.9 313.6 324.8 313.7 322.7 313.8C319.5 313.8 316.2 314 312.9 314.2C303.4 314.7 294 315.5 284.5 316.3C275.2 317.1 265.9 318 256.6 319.1C253.6 319.5 250.6 319.8 247.7 320.3C246.6 320.5 244.1 320.6 243.8 322C243.7 323.2 243.9 324.4 244.3 325.5C244.9 327.8 245.5 330.1 246.1 332.5C248.2 340.1 250.5 347.7 252.7 355.3C255.6 364.9 258.6 374.4 261.6 383.9C264.7 393.5 267.9 403.1 271.2 412.7C273.8 420.3 276.5 427.9 279.6 435.3C280.6 437.7 281.6 440.1 282.8 442.3C283.5 444 284.7 445.6 286.1 446.8C288 448.1 290.5 448.2 292.7 448.3C296.2 448.3 299.7 448.2 303.1 447.8C312.8 447 322.4 445.7 332 444.2C341.6 442.7 351.4 441.1 361.1 439.3C364.6 438.6 368.1 438 371.7 437.2C373.6 436.8 375.5 436.4 377.4 435.7C378.9 435.2 378.6 434.1 378.2 432.8C377.7 431.2 377.1 429.6 376.5 428C374.1 421.8 371.5 415.7 369 409.6C365.4 400.9 361.8 392.3 358.1 383.7C354.2 374.5 350.3 365.3 346.4 356.1C343 348.1 339.6 340.1 336.2 332.2L330 317.7C329.7 317 329.4 316.4 329.1 315.7C328.6 314.6 327.5 313.8 326.2 313.6C325.6 313.4 324.9 313.8 324.7 314.4C324.9 314.9 325 315.3 325.3 315.6Z" fill="#000005"/>
<path d="M319.501 322C319.501 322 373.101 439.9 369.501 441.9C365.901 443.9 295.501 453.9 289.901 451.9C284.301 449.9 240.701 334.8 242.301 331.2C243.901 327.6 319.501 322 319.501 322Z" fill="white"/>
<path d="M317.6 322.2L320.8 329.3C323.5 335.4 326.3 341.4 329 347.5C332.7 355.7 336.3 364 340 372.2C343.8 381 347.7 389.8 351.4 398.6C354.6 406.1 357.9 413.9 361 421.7C363.1 426.9 365.2 432.2 366.8 437.6C367 438.3 367.2 439.1 367.4 439.8C367.4 439.9 367.5 440.4 367.4 440C367.3 439.6 367.4 440 367.4 440.1C367.4 440.3 367.4 440.5 367.4 440.6C367.4 440.4 367.4 440.2 367.6 440.1C368.1 439.5 367.8 440.1 367.5 440.1C367.2 440.1 367.6 440.1 367.5 440.1L367 440.2L365.6 440.5C358.4 442.1 351 443.1 343.7 444.2C333.7 445.7 323.8 447 313.8 448.2C309.5 448.7 305.1 449.2 300.8 449.5C299.1 449.6 297.3 449.8 295.6 449.9C294.9 449.9 294.2 450 293.5 450H292.6C292.3 450 291.6 450 292.1 450C291.3 450 290.5 449.8 289.7 449.8C289.6 449.8 290.3 450 290 449.9C289.9 449.9 289.7 449.8 290.2 450C290.7 450.2 290 449.8 290.8 450.4C290.3 450 291.3 451 290.8 450.4C290.6 450.2 290.5 449.9 290.3 449.7C290.9 450.5 290.2 449.5 290 449.2C289.5 448.4 289 447.5 288.6 446.7C285.6 441 283.1 435.1 280.5 429.2C278.9 425.5 277.3 421.6 275.6 417.6C273.8 413.2 272 408.8 270.3 404.4C266.7 395.2 263.1 386 259.7 376.7C256.6 368.5 253.6 360.3 250.7 352C248.8 346.5 246.8 341 245.3 335.3C245.1 334.5 244.9 333.8 244.7 333C244.7 332.9 244.7 332.7 244.6 332.6C244.5 332.3 244.6 333.2 244.6 332.7C244.6 332.5 244.6 332.3 244.6 332.2C244.5 332 244.5 332.5 244.6 332.5C244.7 332.2 244.3 332.9 244.5 332.7C244.7 332.5 244.3 332.8 244.4 332.8C244.5 332.8 244.6 332.7 244.7 332.6C245 332.5 245.3 332.4 245.7 332.2C246.1 332 245.9 332.2 245.6 332.2L245.9 332.1L246.7 331.9C253.5 330.2 260.7 329.6 267.7 328.8C277.2 327.7 286.8 326.8 296.4 326C303.5 325.4 310.6 324.8 317.6 324.2L320.8 324C322 323.9 322 322.5 321.6 321.7C321 320.6 319.9 319.9 318.6 319.9C314.4 320.2 310.2 320.5 306 320.9C296.8 321.7 287.7 322.4 278.5 323.4C269.6 324.3 260.7 325.2 251.8 326.5C249.1 326.9 246.3 327.4 243.7 328.1C242.3 328.5 240.4 328.9 240.4 330.7C240.5 332.1 240.8 333.5 241.2 334.8C241.9 337.2 242.6 339.6 243.4 341.9C245.8 349.2 248.4 356.5 251 363.7C254.3 372.8 257.8 381.9 261.3 391C264.8 400.1 268.4 409.2 272.2 418.4C275.3 425.9 278.4 433.3 281.8 440.7C282.9 443.1 284.1 445.6 285.4 447.9C286.2 449.4 287.1 450.9 288.2 452.2C289.6 453.8 291.3 454.1 293.4 454.2C296.5 454.2 299.6 454 302.7 453.8C312.2 453 321.6 451.8 331 450.6C340.4 449.4 349.9 448 359.3 446.4C362.3 445.9 365.3 445.4 368.3 444.7C369.5 444.4 371.7 444.3 372.1 442.9C372.5 441.5 371.9 440 371.5 438.8C370.9 436.6 370.1 434.5 369.3 432.3C366.8 425.5 364.1 418.8 361.3 412.1C357.6 403.4 353.9 394.7 350.1 386C346.3 377.1 342.4 368.3 338.5 359.4C335.2 351.9 331.8 344.4 328.5 336.9C326.5 332.4 324.5 327.9 322.5 323.5C322.2 322.9 322 322.3 321.7 321.7C321.1 320.6 320 319.9 318.7 319.9C317.2 320.1 317.2 321.3 317.6 322.2Z" fill="#000005"/>
<path d="M323.6 304.9C316.5 298.7 305.1 298.2 297.7 304.2C290.7 309.8 291.1 320.5 296.5 327.1C300 331.3 305.2 333.8 310.7 333.8C311.9 333.9 312.9 333.1 313 331.9V331.8C312.8 330.5 311.7 329.6 310.4 329.6C306.9 329.7 303.5 328.3 301.1 325.7C298.9 323.3 297.7 320.3 297.4 317C297.1 313.9 298.2 310.8 300.3 308.4C303.6 305.1 308.2 303.6 312.8 304.4C314.8 304.7 316.6 305.4 318.3 306.5L318.8 306.8C318.9 306.8 319.5 307.2 319.1 307C318.7 306.8 319.5 307.3 319.6 307.4L320.2 307.9C321.2 308.8 322.6 308.8 323.7 308C324.5 307.3 324.6 306.1 323.8 305.3C323.8 305.1 323.7 305 323.6 304.9Z" fill="#000005"/>
<path d="M309.401 329.6C309.401 329.6 313.001 328.5 312.701 332.5C312.401 336.5 309.301 335.4 308.101 333.7C306.901 332 308.501 329.7 309.401 329.6Z" fill="white"/>
<path d="M311.301 331.2C311.601 331.1 311.801 331.1 312.101 331.1H311.801C312.001 331.1 312.201 331.1 312.401 331.1H312.501H312.601C312.601 331.1 312.101 331 312.301 331H312.401C312.701 331.1 311.801 330.8 312.101 330.9H312.201C312.101 330.8 311.901 330.7 311.701 330.7C312.001 330.9 311.101 330.3 311.301 330.5C311.501 330.7 310.601 330 310.901 330.2C310.901 330.2 310.301 329.7 310.601 329.9C310.901 330.1 310.201 329.4 310.301 329.6C310.301 329.6 310.301 329.7 310.401 329.7C310.601 329.9 310.201 329.3 310.301 329.5C310.401 329.6 310.401 329.8 310.501 329.9L310.401 329.6C310.601 330.4 310.601 331.3 310.401 332.1V331.9C310.301 332.6 309.901 333.2 309.401 333.6L309.601 333.5C309.401 333.7 309.101 333.8 308.801 333.8H309.101C309.001 333.8 308.801 333.8 308.701 333.8H308.601C309.201 333.9 309.001 333.9 308.901 333.8H308.701C308.501 333.8 308.301 333.6 309.101 333.9H309.001C308.701 333.8 309.501 334.1 309.401 334.1L309.201 334C309.301 334.1 309.501 334.2 309.701 334.3L309.601 334.2L309.501 334.1C309.301 333.9 310.101 334.6 309.901 334.4L309.701 334.3C309.501 334.1 310.101 334.7 310.101 334.6L310.001 334.5L309.901 334.4C309.701 334.2 310.201 334.7 310.201 334.7L310.101 334.6C310.101 334.6 310.001 334.5 310.001 334.4L309.901 334.3C310.201 334.7 310.101 334.6 310.001 334.4C309.901 334.3 309.901 334.2 309.901 334.1L310.001 334.4C309.901 334 309.801 333.5 309.901 333.1V333.3C310.101 332.5 310.501 331.7 311.201 331.2L311.001 331.3C311.001 331.2 311.101 331.2 311.301 331.2C311.601 331.1 311.501 330.7 311.401 330.5C311.101 330.1 310.801 329.7 310.401 329.4C309.901 329 309.301 328.7 308.801 328.4C308.401 328.2 308.001 328.1 307.601 328.2C307.301 328.3 307.001 328.5 306.701 328.7C306.401 329 306.201 329.3 306.001 329.7C305.801 330.1 305.701 330.6 305.601 331.1C305.601 331.6 305.601 332.2 305.901 332.6C306.201 333.2 306.601 333.7 307.001 334.1C307.501 334.6 308.001 335 308.601 335.4C309.601 336.2 310.801 336.7 312.101 336.9C312.801 337 313.501 336.8 314.001 336.3C314.501 335.7 314.801 334.9 314.901 334C315.001 333.1 314.901 332.2 314.501 331.4C314.101 330.8 313.601 330.2 313.001 329.7C312.301 329.2 311.601 328.7 310.801 328.4C309.801 327.9 308.601 327.8 307.501 328.1C307.201 328.2 307.301 328.5 307.401 328.7C307.701 329.1 308.001 329.5 308.401 329.8C308.901 330.2 309.501 330.5 310.001 330.8C310.401 331.2 310.901 331.2 311.301 331.2Z" fill="#000005"/>
<path d="M301.7 305C295.2 298.7 284.2 300.6 277.7 306.1C274.4 308.8 272.4 312.7 272.2 317C272.1 321 273.3 324.9 275.8 328C279 332 283.9 334.2 289 334.1C290.2 334 291.3 333.3 292 332.3C292.6 331.4 292.1 330.8 291.1 330.8C283.6 330.7 277.5 324.7 276.7 317.4C276.3 314.2 277.1 310.9 279 308.4C279.4 307.8 280 307.3 280.6 306.9C281.6 306.2 282.7 305.6 283.9 305.2C285.9 304.4 288.2 304.1 290.4 304.4C292.2 304.7 294 305.3 295.6 306.3C296.1 306.6 296.6 306.9 297.1 307.3C297.2 307.4 297.9 308 297.4 307.5C298.6 308.8 302.7 306 301.7 305Z" fill="#000005"/>
<path d="M289 330.5C289 330.5 292.6 329.4 292.3 333.4C292 337.4 288.9 336.3 287.7 334.6C286.5 332.9 288.1 330.5 289 330.5Z" fill="white"/>
<path d="M291.3 331.2H291.5H291.7H291.8H292.2H291.9C292 331.2 292.3 331.2 291.9 331.2H291.8C291.6 331.2 291.5 331.1 291.3 331.1C290.8 331 290.2 330.8 289.7 330.6L289.3 330.5H289.4C289.4 330.5 289 330.3 289.2 330.4L289.3 330.5C289.4 330.6 289.1 330.3 289.2 330.4L289.3 330.5C289.4 330.6 289.4 330.6 289.5 330.7C289.6 330.8 289.7 331 289.8 331.2V331.1C290.1 331.9 290.1 332.8 289.9 333.6C289.8 334.3 289.5 335 288.9 335.5L289 335.4C288.9 335.5 288.7 335.6 288.6 335.6H288.4C288.3 335.6 288.2 335.6 288.5 335.6H288.4C288.1 335.6 288.8 335.6 288.5 335.6C289 335.7 289.4 335.8 289.9 335.9C289.6 335.8 290.7 336.2 290.4 336C290.4 336 291.1 336.3 290.8 336.1C290.5 335.9 291.4 336.4 291.1 336.2H291C290.8 336.1 291.4 336.4 291.2 336.3L291.1 336.2L290.9 336.1L290.7 335.9C290.4 335.6 290.1 335.3 289.9 334.9V335C289.5 333.7 289.9 332.3 291 331.5L290.9 331.6C291 331.5 291.2 331.4 291.3 331.4C291.6 331.4 291.2 331 291.2 331C290.8 330.7 290.3 330.5 289.8 330.4C289.2 330.2 288.6 330 287.9 329.9C287.5 329.8 287.1 329.8 286.7 329.8C286.4 329.9 286.1 330 285.9 330.3C285.6 330.6 285.4 330.9 285.2 331.3C284.8 332.1 284.7 333.1 285.1 333.9C285.4 334.5 285.9 335 286.6 335.4C287.1 335.7 287.6 336 288.1 336.2C289.2 336.7 290.4 337 291.7 337.1C292.4 337.3 293.2 337.1 293.8 336.6C294.3 336 294.6 335.3 294.7 334.5C294.8 333.7 294.7 332.8 294.3 332.1C293.6 331.3 292.7 330.7 291.7 330.5C290.7 330.2 289.7 329.9 288.7 329.8C288.3 329.8 288 329.8 287.6 329.8C287.3 329.8 286.9 329.9 286.6 329.9C286.3 330 286.7 330.2 286.7 330.3C287.1 330.6 287.6 330.7 288.1 330.9C288.7 331.1 289.3 331.3 290 331.4C290.5 331.4 290.9 331.3 291.3 331.2Z" fill="#000005"/>
<path d="M280.6 305.4C273 301 261.7 302.4 256.4 309.7C251.9 315.8 253.2 324.8 258.3 330.1C261.9 333.7 266.9 335.7 272.1 335.6C273 335.6 274.3 335.1 274.1 334C273.9 332.9 272.1 332.6 271.2 332.6C269.7 332.6 268.3 332.3 266.9 331.8C265.4 331.2 264 330.4 262.9 329.2C260.8 327.1 259.3 324.3 258.8 321.3C257.4 314.3 262.1 307.4 269.1 306.1C269.3 306.1 269.4 306 269.6 306C271.5 305.8 273.5 305.9 275.3 306.5L275.9 306.7L276.3 306.8C276.1 306.7 276.8 307 277 307.1C277.3 307.2 277.5 307.3 277.7 307.5C278.8 308.1 280.1 308.1 281.2 307.4C282.2 306.8 281.4 305.9 280.6 305.4Z" fill="#000005"/>
<path d="M270.5 332.1C270.5 332.1 274.1 331 273.8 335.1C273.5 339.2 270.4 338 269.2 336.3C268 334.6 269.6 332.2 270.5 332.1Z" fill="white"/>
<path d="M271.5 334.2C271.8 334.1 272.1 334.1 272.4 334.1H271.9C272.2 334.1 272.4 334.1 272.7 334.1L272 334C272.2 334 272.3 334.1 272.5 334.2L271.9 334L272.2 334.2L271.7 333.8C271.8 333.9 271.9 333.9 272 334L271.5 333.5C271.6 333.6 271.7 333.7 271.7 333.8L271.4 333.3C271.5 333.4 271.6 333.6 271.6 333.7L271.4 333.2C271.5 333.5 271.5 333.7 271.6 334V333.5C271.6 334.1 271.6 334.6 271.5 335.1L271.6 334.6C271.5 335 271.4 335.4 271.2 335.8L271.4 335.4C271.3 335.6 271.1 335.8 271 335.9L271.4 335.6C271.3 335.7 271.1 335.8 270.9 335.9L271.4 335.7C271.3 335.8 271.1 335.8 270.9 335.8H271.4C271.2 335.8 271.1 335.8 270.9 335.8L271.5 335.9C271.3 335.9 271.1 335.8 270.9 335.7L271.5 335.9C271.3 335.8 271 335.7 270.8 335.5L271.3 335.9C271.1 335.7 270.9 335.5 270.7 335.3L271.2 335.8C271 335.6 270.9 335.5 270.8 335.3L271.1 335.8C271 335.7 271 335.6 270.9 335.4L271.1 335.9C271 335.7 271 335.5 271 335.3L271.1 335.8C271.1 335.5 271.1 335.3 271.1 335L271 335.5C271.1 335.1 271.2 334.7 271.4 334.4L271.2 334.8C271.4 334.5 271.6 334.2 271.9 333.9L271.5 334.2C271.6 334.1 271.7 334 271.9 334L271.4 334.2H271.5C272 334.2 272.4 333.8 272.6 333.4C272.8 332.9 272.7 332.3 272.4 331.8C271.9 330.7 270.7 330 269.4 330.1C268.8 330.2 268.3 330.5 267.9 330.9C267.5 331.3 267.2 331.7 267 332.2C266.4 333.2 266.3 334.5 266.7 335.6C266.9 336.3 267.3 337 267.8 337.5C268.1 337.9 268.5 338.2 268.9 338.5C269.8 339.2 270.9 339.7 272.1 339.9C272.2 339.9 272.4 339.9 272.5 339.9C272.8 339.9 273.1 339.9 273.4 339.8C274 339.7 274.5 339.4 274.9 339C275.6 338.2 276 337.2 276.1 336.1C276.3 334.9 276.1 333.7 275.6 332.6C275 331.4 274 330.5 272.7 330C271.9 329.7 271.1 329.6 270.2 329.7C270 329.7 269.7 329.8 269.5 329.8C269.2 329.8 269 329.9 268.8 330.1C268.6 330.2 268.4 330.4 268.4 330.7C268.2 331.2 268.3 331.8 268.6 332.3C268.9 332.9 269.4 333.4 269.9 333.7C270.3 334.2 270.9 334.3 271.5 334.2Z" fill="#000005"/>
<path d="M260.7 309.9C253.8 304.7 242.6 304.8 237.4 312.5C233.2 318.8 235 327.3 240 332.6C243.4 336 247.9 337.9 252.7 337.9C253.7 337.9 255.3 337.7 255.7 336.5C256.1 335.3 254.7 334.7 253.8 334.7C250.6 334.8 247.6 333.6 245.2 331.6C242.9 329.6 241.3 327 240.5 324.1C239 318.2 241.3 310.8 247.9 309.7C249.9 309.4 252 309.7 253.8 310.6C254.6 310.9 255.3 311.3 256 311.7L256.6 312.1C256.1 311.8 256.4 312 256.5 312C257.5 312.7 258.8 312.8 260 312.3C260.8 311.7 261.8 310.6 260.7 309.9Z" fill="#000005"/>
<path d="M252.201 334.2C252.201 334.2 255.801 333.1 255.501 337.1C255.201 341.1 252.101 340 250.901 338.3C249.701 336.6 251.301 334.3 252.201 334.2Z" fill="white"/>
<path d="M252.8 336.1C253 336 253.2 336 253.5 336L252.8 336.1C253.1 336 253.3 336 253.5 336L252.8 335.9C253 335.9 253.2 336 253.3 336L252.7 335.8C252.8 335.9 253 335.9 253.1 336L252.6 335.7C252.7 335.8 252.8 335.9 253 336L252.6 335.6C252.7 335.7 252.8 335.9 252.9 336L252.7 335.5C252.8 335.8 252.9 336 252.9 336.3L252.8 335.8C252.9 336.4 252.9 337 252.7 337.6L252.8 337.1C252.7 337.5 252.6 337.9 252.4 338.3L252.7 337.8C252.6 338 252.5 338.1 252.3 338.3L252.7 337.9C252.6 338 252.5 338.1 252.4 338.1L252.9 337.8C252.8 337.9 252.7 337.9 252.6 337.9L253.2 337.7C253.1 337.7 253 337.8 252.8 337.8L253.5 337.7C253.4 337.7 253.2 337.7 253.1 337.7L253.8 337.8C253.6 337.8 253.4 337.7 253.3 337.7L253.9 337.9C253.6 337.8 253.4 337.7 253.2 337.5L253.7 337.8C253.4 337.6 253.1 337.4 252.9 337.1L253.3 337.5C253.1 337.3 252.9 337.1 252.8 336.8L253 337.3C252.9 337.1 252.8 336.9 252.8 336.6L252.9 337.1C252.9 336.8 252.9 336.5 252.9 336.2L252.8 336.7C252.9 336.3 253 336 253.2 335.6L252.9 336.1C253.1 335.8 253.3 335.5 253.5 335.3L253.1 335.7C253.2 335.6 253.3 335.5 253.5 335.4L253 335.7L253.2 335.6L252.6 335.8L252.8 336.1C253.4 336 253.9 335.7 254.3 335.2C254.6 334.8 254.7 334.2 254.6 333.7C254.4 333.2 254 332.7 253.5 332.5C252.9 332.2 252.2 332.2 251.6 332.3C250.9 332.4 250.3 332.7 249.8 333.2C249.4 333.6 249 334 248.7 334.5C248.5 334.8 248.3 335.2 248.2 335.5C248.1 335.9 248 336.2 248 336.6C247.9 337.2 248 337.8 248.2 338.4C248.6 339.3 249.2 340.2 250 340.7C250.8 341.3 251.7 341.7 252.6 341.9C253.3 342 253.9 342 254.6 341.9C255.2 341.8 255.8 341.5 256.4 341C256.9 340.6 257.3 340 257.6 339.4C257.8 338.9 258 338.3 258 337.7C258.1 337.2 258.1 336.7 258.1 336.2C258.1 335.7 258 335.2 257.8 334.7C257.4 333.7 256.6 333 255.7 332.5C254.9 332.2 254 332 253.1 332.1C252.6 332.1 252.2 332.2 251.7 332.3C251.1 332.4 250.6 332.7 250.2 333.2C249.9 333.6 249.8 334.2 249.9 334.7C250.1 335.2 250.5 335.7 251 335.9C251.5 336.2 252.2 336.3 252.8 336.1Z" fill="#000005"/>
<path d="M254.8 379.1C254.8 379.1 245.6 390.6 247.1 395C248.6 399.4 268.5 404.8 271.5 403.4C274.5 402 262.5 390.5 262.5 390.5L259.4 380.5L254.8 379.1Z" fill="white"/>
<path d="M253 377.3C250.2 380.7 247.8 384.4 246 388.4C245 390.8 244.3 393.4 245.8 395.8C247.1 397.8 249.3 399.2 251.4 400.3C256.7 402.9 262.3 404.6 268.1 405.4C269.6 405.6 272.1 406.1 273.3 405C274.9 403.6 273.3 400.9 272.4 399.5C269.8 395.7 266.8 392.3 263.4 389.3L264.3 390.9L261.6 382.2C261.1 380.4 260.5 378.8 258.5 378.2C257.1 377.8 255.6 377.4 254.2 377C253.6 376.8 252.9 377 252.7 377.6C252.6 377.9 252.6 378.2 252.7 378.4C253 379.6 254 380.6 255.1 381L259.6 382.2L257.1 379.7L259 385.6C259.6 387.4 260 390 261.3 391.3C262.6 392.6 264 394 265.2 395.3C265.7 395.8 266.1 396.3 266.5 396.8C266.7 397.1 267 397.3 267.2 397.6L267.5 398C267.9 398.4 267.3 397.7 267.7 398.2C268.1 398.7 268.5 399.2 268.8 399.7C269 399.9 269.1 400.2 269.3 400.4L269.5 400.7C269.8 401.2 269.3 400.2 269.5 400.8C269.6 401 269.7 401.2 269.8 401.4C270 401.8 269.8 401.1 269.8 401.3C269.8 401.3 269.9 401.5 269.8 401.5C269.7 401.5 269.7 401.1 269.8 401.4C269.8 401.5 269.7 401.8 269.8 401.2C269.8 401.3 269.8 401.3 269.7 401.4C270.1 400.9 269.7 401.3 269.7 401.3C269.8 401.3 270 401.2 269.7 401.3C269.4 401.4 269.5 401.4 269.6 401.3C269.1 401.3 268.7 401.3 268.2 401.3C265.5 401.1 262.9 400.6 260.4 399.8C257.4 399 254.5 398 251.8 396.7C251.2 396.4 250.6 396.1 250 395.8C249.6 395.6 249.9 395.8 250 395.8C249.9 395.7 249.8 395.7 249.7 395.6C249.4 395.4 249.2 395.2 248.9 395C248.6 394.8 249.3 395.4 249 395.1C248.9 395 248.8 394.9 248.7 394.8C248.5 394.4 249 395.3 248.7 394.8C248.5 394.5 248.8 395 248.8 395C248.7 394.8 248.7 395.2 248.8 395.1C248.9 395 248.7 394.6 248.7 394.6C248.9 391.6 250.9 388.5 252.5 385.9C253.6 384.1 254.9 382.4 256.2 380.7C256.9 379.8 256.2 378.6 255.6 377.9C255.4 377.5 253.8 376.4 253 377.3Z" fill="#000005"/>
<path d="M251 372.4C251 372.4 243.3 381 249.8 384.7C256.3 388.5 275 386.9 277.1 385.7C281 383.6 273.2 376.9 268.3 375.1C263.4 373.3 251 372.4 251 372.4Z" fill="white"/>
<path d="M249.301 370.6C246.001 374.3 243.001 380.2 246.601 384.7C248.601 387.2 252.001 388.1 255.001 388.7C258.301 389.2 261.501 389.5 264.801 389.4C267.901 389.4 270.901 389.2 274.001 388.9C275.901 388.7 278.301 388.5 279.601 387C282.001 384.3 279.301 380.7 277.401 378.7C274.901 376.1 271.901 374.1 268.501 372.8C265.001 371.7 261.401 371 257.701 370.7C255.401 370.4 253.201 370.2 250.901 370C247.701 369.8 248.501 374.4 251.201 374.6C255.601 374.9 260.001 375.4 264.301 376.2C266.701 376.6 268.901 377.5 270.901 378.8C272.101 379.6 273.301 380.5 274.301 381.5C274.501 381.7 274.701 381.9 274.901 382.1C275.101 382.3 275.501 382.9 275.301 382.6C275.501 382.8 275.601 383.1 275.701 383.3C275.801 383.5 275.701 383.3 275.701 383.2C275.801 383.4 275.801 383.5 275.901 383.7C275.901 383.6 275.901 383.5 275.901 383.5C275.901 383.5 276.001 383.4 275.801 383.5C275.601 383.6 275.601 383.6 275.501 383.6C275.201 383.8 276.001 383.5 275.601 383.6C275.501 383.6 275.301 383.7 275.201 383.7L273.901 383.9C271.601 384.2 269.201 384.5 266.801 384.5C263.901 384.6 261.101 384.6 258.301 384.3C255.801 384.2 253.401 383.7 251.201 382.8C251.201 382.8 250.801 382.6 251.101 382.8C251.401 383 250.901 382.7 250.901 382.7C250.901 382.7 250.101 382.1 250.201 382.2C250.101 382.1 249.901 381.9 249.801 381.8C250.001 382 249.801 381.8 249.801 381.7C249.801 381.6 249.601 381.3 249.701 381.6C249.601 381.5 249.601 381.3 249.601 381.1C249.601 381.4 249.501 380.6 249.501 380.4C249.501 380.2 249.501 380.3 249.501 380.4C249.501 380.2 249.501 380 249.601 379.8C249.701 379.3 249.901 378.7 250.101 378.2C250.601 377.1 251.201 376 252.001 375C252.101 374.8 252.501 374.4 252.201 374.8L252.501 374.4C252.601 374.3 252.701 374.1 252.801 374C254.601 372.1 251.101 368.5 249.301 370.6Z" fill="#000005"/>
<path d="M249.901 358.3C249.901 358.3 243.601 364.8 244.601 369.2C245.601 373.6 271.901 380.5 276.001 372.3C278.501 367.4 251.901 360.8 251.901 360.8L249.901 358.3Z" fill="white"/>
<path d="M248.301 356.4C244.601 360.3 239.201 368.1 244.801 372.6C247.001 374.2 249.401 375.3 252.001 376C255.401 377.1 258.901 377.9 262.401 378.2C265.701 378.7 269.001 378.5 272.201 377.8C274.601 377.1 277.701 375.6 278.201 372.9C278.701 370.2 276.701 368.1 274.701 366.8C272.101 365.2 269.401 363.9 266.601 362.9C261.801 361.1 256.801 359.6 251.801 358.4L253.301 359.3L251.301 356.8C250.701 355.9 249.501 355.6 248.501 356.2C248.501 356.3 248.401 356.3 248.301 356.4C247.601 357.4 247.701 358.8 248.501 359.7C249.201 360.5 249.801 361.4 250.501 362.2C251.101 362.8 251.801 363.2 252.601 363.3L254.901 363.9C256.101 364.2 257.201 364.5 258.001 364.8C260.901 365.7 263.801 366.6 266.501 367.7C267.801 368.2 269.101 368.7 270.401 369.4C271.001 369.7 271.601 370 272.101 370.3C272.201 370.3 272.501 370.5 272.101 370.3L272.401 370.5C272.701 370.7 272.901 370.8 273.201 371L273.801 371.4C274.301 371.8 273.601 371.1 273.901 371.5C274.001 371.7 274.101 371.8 274.301 371.9C273.901 371.5 274.001 371.4 274.101 371.7C274.301 372.2 273.901 371.2 274.001 371.5C274.101 372 273.901 370.9 274.001 371.4C274.001 370.9 274.001 370.9 274.001 371.1C274.001 371.3 274.201 370.7 274.101 370.9C274.001 371.1 273.601 371.6 274.001 371.2C273.801 371.4 273.701 371.6 273.501 371.8C273.401 371.9 273.301 372 273.201 372.1C273.101 372.2 273.601 371.8 273.201 372.1L272.501 372.5C272.301 372.6 272.001 372.7 271.701 372.9L271.301 373C270.901 373.2 271.501 373 271.101 373.1C269.701 373.5 268.401 373.7 267.001 373.7C260.901 373.9 254.801 372.7 249.201 370.2C248.901 370.1 248.601 369.9 248.301 369.8L248.001 369.6C247.901 369.6 247.401 369.2 247.601 369.4L247.001 369C246.801 368.9 246.601 368.7 246.501 368.6C246.401 368.5 246.601 368.7 246.701 368.8C246.801 368.9 246.501 368.6 246.501 368.6C246.301 367.9 246.501 368.7 246.501 368.6C246.701 369.3 246.401 368.1 246.601 368.9C246.801 369.7 246.601 369 246.601 369V369.1C246.601 368.9 246.601 368.8 246.601 368.6C246.601 368.6 246.701 367.9 246.801 367.6C247.501 364.9 249.601 362.3 251.501 360.3C253.201 358.4 250.201 354.4 248.301 356.4Z" fill="#000005"/>
<path d="M373.504 221.065C378.098 206.531 371.235 191.402 358.176 187.274C345.116 183.146 330.804 191.582 326.21 206.116C321.616 220.65 328.479 235.779 341.538 239.907C354.598 244.036 368.91 235.6 373.504 221.065Z" fill="white"/>
<path d="M323.8 206.7C320.4 217.7 323.1 230.5 332.7 237.5C342.3 244.5 355.4 242.5 364.5 236C374.3 228.9 379 216.8 376.6 204.9C374.2 194 365.1 185.4 353.6 185.2C340 185.1 328 193.8 323.8 206.7C323.5 207.4 325.4 206.9 325.7 206.9C326.3 206.7 328.2 206.3 328.5 205.5C331.4 196.6 338.9 187.6 348.7 187.2C359.1 186.7 367.9 194.2 371.1 203.7C374.4 214.3 371.7 225.8 363.9 233.7C360.7 236.8 356.9 239.3 352.5 239.8C347.6 240.3 342.7 239.2 338.6 236.6C328.3 230.2 325.1 216.6 328.5 205.5C328.7 204.8 326.9 205.3 326.6 205.3C326 205.4 324 205.9 323.8 206.7Z" fill="#000005"/>
<path d="M335.8 242.2C324.5 223.4 355.601 181 355.601 181C364.301 181.3 379.8 176.6 379.8 176.6C369.8 200.9 398.001 214.7 398.001 214.7C407.101 202.4 422.001 210.9 418.001 224.1C414.001 237.3 400.901 235.8 400.901 235.8C400.901 235.8 400.101 270.3 397.701 275.3C397.701 275.3 372.6 285.6 363.3 263.3C363.2 263.3 343.5 255 335.8 242.2Z" fill="white"/>
<path d="M337.8 241.9C336.7 240.2 336 238.2 335.8 236.2C335.5 234 335.5 231.7 335.8 229.4C336.5 224.1 337.9 219 339.9 214.1C343.7 204.9 348.3 196.1 353.9 187.9C355.1 186.1 356.3 184.3 357.5 182.6L356.1 183.1C361.4 183.2 366.7 182.2 371.8 181C374.8 180.3 377.8 179.6 380.8 178.6L377.6 175.3C374.2 183.4 374.9 192.7 379.5 200.2C383.1 205.9 388 210.6 393.7 214.2C394.9 215 396.1 215.7 397.3 216.3C398 216.7 399.2 217 399.8 216.2C402.2 213 405.8 210.3 410 210.8C410.8 210.9 411.5 211.1 412.2 211.4C412.4 211.5 412.7 211.7 412.9 211.8C413 211.9 413.2 212 413.3 212.1C412.9 211.8 413.7 212.4 413.7 212.5C414.2 212.9 414.7 213.5 415.1 214.1C414.9 213.8 415.1 214.2 415.2 214.2C415.3 214.4 415.4 214.6 415.6 214.9C415.8 215.3 415.9 215.7 416.1 216.1C417.3 220.1 415.9 224.7 413.5 227.9C411.5 230.5 408.8 232.3 405.6 233.2C404.3 233.5 403 233.7 401.6 233.8C401.2 233.8 401.7 233.8 401.8 233.8C401.7 233.8 401.5 233.8 401.4 233.8H400.9C400.8 233.8 400.6 233.8 400.5 233.8C399.7 233.6 399 234.1 398.8 234.9C398.8 235 398.8 235 398.8 235.1C398.6 245.9 398.2 256.7 397 267.4C396.9 268.2 396.8 269 396.7 269.9C396.6 270.8 396.6 270.9 396.4 271.5C396.3 272.4 396 273.3 395.6 274.2L396.2 273.5L395.7 273.7L395.1 273.9L394.8 274C395.4 273.8 394.8 274 394.7 274C393.1 274.5 391.5 274.9 389.9 275.1C385.4 276 380.8 275.8 376.5 274.5C374.1 273.7 371.9 272.4 370 270.6C368.4 269.1 367.1 267.3 366.2 265.3C365.8 264.2 365.3 263.2 364.6 262.3C364.1 261.8 363.4 261.4 362.7 261.2C362.5 261.1 362.1 260.9 362.8 261.3L362.4 261.1L361.2 260.5C359 259.4 356.7 258.2 354.6 256.9C348.2 253.1 341.7 248.4 337.8 242C337.2 241 336.1 240 334.8 240.2C334 240.4 333.5 241.2 333.6 242C333.6 242.2 333.7 242.4 333.9 242.6C339.8 252.3 350.1 259 360.1 263.9C361.1 264.4 362.1 264.9 363.2 265.3L361.3 263.6C364.5 271.1 370.6 277.1 378.7 279C384.3 280.2 390.1 280 395.6 278.4C396.8 278.2 398 277.8 399.2 277.2C399.9 276.8 400.1 275.8 400.3 275C400.6 273.8 400.8 272.6 401 271.4C402 264.7 402.3 257.9 402.6 251.1C402.8 246.2 403 241.3 403.1 236.4L401.4 237.8C407.5 238.4 413.5 235.9 417.3 231C420.2 226.9 421.8 221.2 420.2 216.3C418.8 211.8 415.2 208.3 410.6 207C404.8 205.6 399.5 208.5 396 213L398.5 212.9C397.6 212.5 396.7 211.9 395.9 211.4C395.5 211.1 395.1 210.9 394.7 210.6L394 210.2C393.9 210.1 392.9 209.4 393.6 209.9C392.5 209.1 391.4 208.3 390.4 207.4C389.9 206.9 389.3 206.5 388.8 206L387.9 205.1C387.8 205 387.6 204.8 387.5 204.7C387.1 204.3 387.7 204.9 387.3 204.5C386.1 203.2 385 201.9 384 200.4C383.6 199.8 383.2 199.2 382.9 198.6C382.4 197.8 382 197 381.7 196.2C381 194.6 380.5 193 380.2 191.3C379.4 186.7 380 181.9 381.9 177.6C382.5 176.1 380.3 173.8 378.7 174.3C372.3 176.3 365.8 177.7 359.2 178.5C358.2 178.6 357.2 178.7 356.2 178.7C355.2 178.7 354.4 178.5 353.7 179.1C353.5 179.3 353.4 179.5 353.2 179.7C352.3 181 351.3 182.4 350.4 183.7C346.9 188.9 343.7 194.3 340.8 199.8C337.2 206.4 334.4 213.3 332.4 220.6C330.6 227.6 329.9 235.7 333.7 242.2C334.3 243.3 335.4 244 336.7 244C337.5 243.8 338 242.9 337.8 242.1C338 242.2 337.9 242 337.8 241.9Z" fill="#000005"/>
<path d="M384.501 230.8C384.501 230.8 385.101 245.4 375.301 239.9L384.501 230.8Z" fill="white"/>
<path d="M383.3 230C383.3 230.1 383.3 230.2 383.3 230.4C383.3 230.6 383.3 230.7 383.3 230.8V231C383.3 230.6 383.3 230.8 383.3 231C383.3 232.1 383.1 233.1 382.9 234.1C382.8 234.7 382.6 235.3 382.4 235.9C382.5 235.6 382.4 236 382.3 236.1C382.2 236.2 382.2 236.4 382.1 236.5C382 236.8 381.9 237 381.7 237.3C381.6 237.6 381.4 237.8 381.2 238L381 238.3C380.9 238.4 380.9 238.4 381 238.3C380.9 238.4 380.9 238.4 380.8 238.5C380.4 238.9 379.9 239.2 379.4 239.3H379.3H379.1C378.9 239.3 378.8 239.3 378.6 239.3C378.2 239.3 377.8 239.3 377.5 239.2L377.3 239.1L377.1 239C376.9 238.9 376.7 238.9 376.5 238.8C376 238.6 375.5 238.3 375 238.1C374.2 237.7 374.2 238.8 374.3 239.3C374.5 240.2 375.1 240.9 375.8 241.4C377.2 242.3 378.9 242.8 380.7 242.6C382 242.4 383.1 241.6 383.8 240.5C385 238.4 385.7 236 385.7 233.5C385.7 232.8 385.8 232.1 385.7 231.4C385.6 230.5 385.1 229.6 384.4 229.1C383.8 228.7 383.3 229 383.3 229.7V230Z" fill="#000005"/>
<path d="M358.3 208.7C352.8 211.3 346.9 213 340.8 213.9C320.4 217.3 318 224.3 324.3 228.3C330.6 232.3 358.3 229.3 358.3 229.3" fill="white"/>
<path d="M356.601 206.9C350.401 210.1 343.401 211.2 336.601 212.5C332.501 213.2 328.401 214.5 324.601 216.3C322.601 217.3 320.501 218.7 319.701 220.9C318.901 222.9 319.901 224.9 321.101 226.5C322.701 228.6 324.801 230.2 327.301 231C330.001 231.7 332.701 232.2 335.501 232.2C338.901 232.4 342.201 232.4 345.601 232.2C350.401 232 355.101 231.7 359.801 231.2C360.701 231.1 359.501 229.5 359.301 229.3C358.801 228.7 357.701 227.3 356.801 227.4C353.201 227.8 349.601 228 346.001 228.2C340.001 228.5 333.701 228.8 327.701 227.9C326.601 227.7 325.501 227.5 324.501 227.1C324.201 227 323.901 226.9 323.601 226.7C323.301 226.6 323.601 226.7 323.701 226.8L323.401 226.6L323.101 226.4C322.901 226.2 323.501 226.7 323.101 226.4C322.601 225.9 323.401 226.7 323.001 226.3C322.801 226.1 323.401 226.7 323.201 226.5C323.001 226.2 323.101 226.4 323.201 226.5C323.201 226.5 323.401 226.9 323.201 226.6C323.001 226.3 323.201 226.7 323.101 226.4C322.901 225.8 322.901 225.1 323.201 224.5C323.801 222.6 325.901 221.2 327.601 220.3C331.001 218.6 334.701 217.3 338.501 216.7C345.801 215.2 353.301 214.1 360.001 210.7C360.701 210.1 357.801 206.2 356.601 206.9Z" fill="#000005"/>
<path d="M370.7 206.2C370.7 206.2 367.5 206 367.6 209.1C367.7 212.2 371.5 212.1 372.3 209.5C372.8 208.3 372.3 206.9 371.1 206.4C370.9 206.3 370.8 206.3 370.7 206.2Z" fill="#000005"/>
<path d="M350.801 199.9C350.801 199.9 347.601 199.7 347.601 202.8C347.601 205.9 351.501 205.8 352.301 203.2C352.801 202 352.301 200.6 351.101 200.1C351.001 200 350.901 200 350.801 199.9Z" fill="#000005"/>
<path d="M441.082 240.857C445.655 226.374 438.817 211.303 425.809 207.196C412.8 203.088 398.548 211.499 393.975 225.983C389.402 240.466 396.24 255.536 409.248 259.644C422.257 263.751 436.509 255.34 441.082 240.857Z" fill="white"/>
<path d="M393.3 223.5C389.8 234.9 392.8 248.5 402.3 256.2C406.8 259.9 412.4 261.9 418.2 261.9C423.6 261.8 428.9 260 433.3 256.9C443.2 249.8 447.8 236.8 445.4 225C443 213.6 433.8 203.8 421.9 202.8C408.5 201.5 397.2 211.3 393.3 223.5C392.6 225.5 396.3 228.6 397.2 226C400.3 216.4 408.5 208.4 418.8 207.2C428.4 206.2 437.5 212 440.6 221.2C444.1 231.1 441 242.9 433.5 250.2C426.6 256.9 415.9 259.8 407.1 255C396.8 249.4 394 236.6 397.3 226C397.8 224 394.1 220.9 393.3 223.5Z" fill="#000005"/>
<path d="M427.701 218.7C427.701 218.7 440.501 184.8 417.901 164.5C395.301 144.2 372.101 161.1 372.101 161.1C372.101 161.1 391.201 155.6 405.601 166.9C420.001 178.2 416.201 215 416.201 215" fill="white"/>
<path d="M430.2 219C431.4 215.6 432.3 212 432.9 208.4C434.3 200.7 434.2 192.7 432.4 185C430 175.2 424.1 166.6 415.8 160.9C407 154.8 396.1 152.4 385.5 154.4C379.9 155.3 374.5 157.5 369.8 160.7C369.1 161.2 371 161.8 371.1 161.8C372.1 162.1 373.2 162.1 374.2 161.8C373.3 162 374.6 161.7 374.9 161.6C375.8 161.4 376.7 161.2 377.6 161.1C380.4 160.7 383.2 160.5 386 160.7C393 161 401.1 163.9 405.8 169.6C409.7 174.3 411.5 180.5 412.6 186.5C413.7 192.6 414.2 198.8 414.1 205C414.1 208.3 414 211.6 413.7 214.9C413.6 216 418.6 216.6 418.7 215.5C419.7 206.1 419.3 196.6 417.7 187.4C416.6 181.2 414.7 174.5 410.5 169.6C405 163.1 395.8 160.1 387.6 159.3C381.7 158.6 375.8 159.1 370.1 160.6L374.6 161.7C378.1 159.3 381.9 157.6 386 156.6C389.7 155.6 393.6 155.2 397.4 155.6C402.4 156.3 407.1 158.1 411.2 161C419.3 166.5 425.1 174.7 427.5 184.2C429.2 191.6 429.5 199.2 428.2 206.6C427.7 210.6 426.7 214.6 425.3 218.4C425 219.2 429.8 220.3 430.2 219Z" fill="#000005"/>
<path d="M66.7002 164.9C66.7002 164.9 11.8002 188.2 21.4002 210.9C31.0002 233.6 58.3002 236.5 58.3002 236.5L68.3002 227.3C68.3002 227.3 40.0002 212.1 41.4002 202.5C42.8002 192.9 71.7002 191.2 71.7002 191.2L66.7002 164.9Z" fill="#000005"/>
<path d="M58.3998 237H58.1998C57.8998 237 30.4998 233.8 20.8998 211.1C16.8998 201.6 23.4998 190.5 40.0998 179C48.3998 173.4 57.2998 168.5 66.3998 164.4L66.9998 164.2L72.2998 191.6H71.6998C71.3998 191.6 43.0998 193.4 41.7998 202.5C40.4998 211.6 68.0998 226.6 68.3998 226.8L68.9998 227.1L58.3998 237ZM66.2998 165.6C60.4998 168.1 12.9998 190 21.7998 210.7C30.6998 231.7 55.4998 235.6 58.0998 235.9L67.3998 227.3C63.0998 224.9 39.5998 211.5 40.8998 202.3C42.1998 193.1 66.8998 190.9 71.0998 190.6L66.2998 165.6Z" fill="#000005"/>
<path d="M263.9 198.6C263.9 198.6 250 249.7 235 254C220 258.3 184.3 191.1 184.3 191.1L167.5 169.2C167.5 169.2 160.1 148.4 173.6 160.4C187.1 172.4 242.2 270.3 234 199.1L263.9 198.6Z" fill="#000005"/>
<path d="M199.7 221.6C199.7 221.6 210.1 215.8 217.6 216.6C225.1 217.4 241 239.5 240.6 246.2C240.2 252.9 229.3 253.2 221.1 246.3C212.9 239.4 199.7 221.6 199.7 221.6Z" fill="white"/>
<path d="M201.4 223.5C204 222.1 206.6 221 209.4 220.1C211.7 219.3 214 218.8 216.4 218.6C217.3 218.5 218.2 218.6 219 218.7C219.4 218.8 219 218.7 219.4 218.8C219.7 218.9 220 219 220.3 219.2C220.6 219.3 219.9 219 220.4 219.3C220.5 219.4 220.7 219.5 220.8 219.5C221.1 219.7 221.4 219.9 221.7 220.1L222.1 220.4C221.8 220.2 222.1 220.4 222.2 220.5C222.5 220.8 222.9 221 223.2 221.3C224.5 222.4 225.7 223.6 226.8 224.9C229.5 227.8 231.9 231 234 234.3C235.8 236.9 237.2 239.7 238.2 242.7C238.3 243 238.4 243.3 238.4 243.6C238.4 243.9 238.3 243.2 238.4 243.7C238.4 243.8 238.4 243.9 238.5 244C238.6 244.6 238.6 245.1 238.4 245.7C238 247.2 236.8 248.5 235.3 248.9C231 250.4 225.9 248.4 222.4 245.9C219.1 243.6 216.6 240.7 213.9 237.6C209.2 232.3 205 227 200.8 221.4C200.3 220.7 199.1 219.4 198.1 219.7C197.1 220 197.9 221.5 198.2 221.9C202.3 227.4 206.6 232.8 211 238C213.9 241.6 217.2 244.9 220.7 247.9C224.9 251.3 230.6 254 236.1 253.4C239.7 253 242.6 250.3 242.1 246.5C241.7 243.1 239.9 239.9 238.3 237C236 233 233.3 229.1 230.3 225.6C227.7 222.4 224.7 219.5 221.4 217C220 216 218.5 215.2 216.8 214.9C214.1 214.5 211.3 214.8 208.7 215.6C204.9 216.6 201.2 218.1 197.8 220.1C196.8 220.5 199.9 224.4 201.4 223.5Z" fill="#000005"/>
<path d="M60.5 263C60.5 263 68.5 342.5 132.3 337.2C196.1 331.9 193.2 265.3 193.2 265.3C193.2 265.3 136.4 239.6 60.5 263Z" fill="white"/>
<path d="M58.4005 262.6C58.6005 265.1 59.1005 267.5 59.6005 269.9C60.8005 276 62.4005 282 64.5005 287.9C67.1005 295.5 70.6005 302.8 74.9005 309.6C79.6005 317.1 85.7006 323.7 92.9006 328.9C100.901 334.6 110.301 338.1 120.001 339.1C131.801 340.3 143.701 338.7 154.801 334.5C163.801 331.1 171.801 325.4 178.101 318.2C183.401 311.9 187.601 304.6 190.301 296.8C192.601 290.5 194.101 283.9 194.901 277.2C195.401 273.7 195.601 270.1 195.501 266.6C195.501 266.4 195.501 266.3 195.501 266.1C195.401 264.8 194.701 263.7 193.501 263.3C185.801 259.8 177.401 257.7 169.101 255.8C148.501 251.3 127.301 249.9 106.201 251.7C90.2005 253.1 74.4005 256.2 59.1005 261C57.9005 261.4 58.3005 263 58.8005 263.8C59.4005 264.8 60.7005 265.3 61.9005 265C86.9005 257.2 113.101 254.1 139.201 255.7C148.601 256.3 157.901 257.6 167.101 259.5C170.701 260.2 174.201 261.1 177.801 262.1L178.801 262.4L179.401 262.6C178.901 262.5 179.501 262.6 179.601 262.7L181.701 263.3C182.901 263.7 184.101 264.1 185.301 264.4C187.901 265.2 190.501 266.2 193.001 267.3L191.001 264.5C191.101 266.9 191.001 269.3 190.801 271.7C190.601 274.3 190.301 276.9 189.901 279.4C189.401 282.5 188.701 285.6 187.901 288.6C185.901 295.9 182.801 302.9 178.601 309.2C173.701 316.6 167.101 322.7 159.301 327C149.501 332.4 138.201 334.9 127.101 335.2C122.001 335.3 116.901 334.8 111.901 333.7C109.701 333.2 107.501 332.5 105.401 331.7C104.301 331.3 103.301 330.8 102.301 330.4L100.901 329.7L100.201 329.3L99.7005 329C97.8005 327.9 95.9005 326.8 94.1005 325.5L92.8006 324.5L92.2005 324L91.8006 323.7C91.0006 323 90.2005 322.3 89.4005 321.6C87.8005 320.2 86.4005 318.7 85.0005 317.1C84.7005 316.7 84.3005 316.3 84.0005 315.9C83.7005 315.5 84.2006 316.1 83.8006 315.7L83.2005 315C82.5005 314.2 81.9006 313.4 81.3006 312.5C80.1005 310.8 78.9006 309.1 77.8006 307.3C77.3006 306.4 76.7005 305.6 76.2005 304.7L75.8006 304C75.7006 303.9 75.5005 303.4 75.7005 303.8C75.4005 303.3 75.2005 302.9 74.9005 302.4C73.1005 299 71.4005 295.4 70.0005 291.8C69.3005 290.1 68.7005 288.4 68.1005 286.7C67.8005 285.9 67.5006 285.1 67.3006 284.2L67.1005 283.6C66.9005 283.1 67.1005 283.7 67.0005 283.4C66.9005 283.1 66.7005 282.5 66.6005 282.1C65.8005 279.3 65.0005 276.4 64.4005 273.5C63.7005 270.1 63.1005 266.8 62.6005 263.4C62.6005 263.2 62.6005 263.1 62.6005 262.9C62.4005 261.1 58.0005 259.6 58.4005 262.6Z" fill="#000005"/>
<path d="M62.4001 266.1C63.7001 268.4 66.2001 270 68.4001 271.3C75.4001 275.5 83.7001 277.7 91.6001 279.4C107 282.9 122.7 284.4 138.4 284C150.4 283.7 162.4 281.7 173.9 278.1C177.4 277 180.8 275.7 184.1 274.2C185.6 273.6 187.1 272.9 188.5 272L188.7 271.9C191 270.5 187.7 266.8 185.6 268C184.7 268.5 183.7 269 182.8 269.5C180.2 270.7 177.6 271.8 174.9 272.8C164.7 276.3 154.2 278.5 143.4 279.3C128 280.5 112.3 279.1 97.1001 276.3C91.7001 275.3 86.3001 274 81.0001 272.4C80.0001 272.1 79.0001 271.7 78.0001 271.4L76.7001 270.9L76.1001 270.7L75.6001 270.5L75.2001 270.3L74.7001 270.1L73.6001 269.6C72.9001 269.3 72.3001 269 71.6001 268.6C70.6001 268.1 69.6001 267.5 68.7001 266.9C68.3001 266.6 69.3001 267.3 68.6001 266.8L68.1001 266.4C67.8001 266.2 67.5001 266 67.3001 265.7C67.1001 265.4 66.9001 265.3 66.6001 265.1C66.2001 264.7 67.0001 265.6 66.8001 265.3C66.7001 265.2 66.7001 265.2 66.6001 265.1C66.5001 265 66.3001 264.6 66.2001 264.5C66.1001 264.4 66.6001 265.2 66.5001 264.9C65.9001 263.8 64.7001 263.1 63.4001 263.2C62.5001 263.4 61.9001 264.4 62.2001 265.3C62.2001 265.7 62.3001 265.9 62.4001 266.1Z" fill="#000005"/>
<path d="M142.9 334.3L141.2 333.2L139.5 332.2C140.1 330.9 140.5 329.5 140.8 328.1L144.7 329C144.4 330.8 143.8 332.6 142.9 334.3ZM145.6 323.8L141.6 323.2C141.8 321.7 142 320.1 142.2 318.3L146.2 318.7C146.1 320.6 145.9 322.3 145.6 323.8ZM146.6 313.7L142.6 313.4C142.7 311.9 142.8 310.2 142.9 308.4L146.9 308.6C146.9 310.5 146.8 312.2 146.6 313.7ZM147.1 303.7L143.1 303.6C143.1 302 143.2 300.4 143.2 298.6H147.2C147.2 300.4 147.2 302.1 147.1 303.7ZM143.2 293.7C143.2 292.1 143.2 290.5 143.1 288.7L147.1 288.6C147.1 290.3 147.2 292 147.2 293.6L143.2 293.7Z" fill="#000005"/>
<path d="M79.9006 224.9C79.9006 224.9 66.0006 232 68.5006 235.1C71.0006 238.2 76.8006 242.2 76.8006 242.2C76.8006 242.2 63.2006 246.5 67.8006 249C72.4006 251.5 79.2006 255.5 79.2006 255.5C79.2006 255.5 68.1006 261.7 70.2006 264.8C72.3006 267.9 138.901 282.1 182.801 263.9C182.801 263.9 182.801 259.6 177.901 254.6C177.901 254.6 185.601 253.1 184.701 250.9C183.801 248.7 178.201 241.6 178.201 241.6C178.201 241.6 188.701 241 186.901 236.3C185.101 231.6 179.501 224.5 179.501 224.5L79.9006 224.9Z" fill="#000005"/>
<path d="M78.2 223.1C75.2 224.6 72.4 226.3 69.8 228.3C68.4 229.4 66.6 230.8 66 232.7C65.3 235.2 68 237.3 69.6 238.7C71.6 240.4 73.6 242.1 75.8 243.6L75.5 240.3C72.4 241.2 69.5 242.4 66.8 244.1C65.4 245.1 64.1 246.4 64.8 248.2C65.4 249.6 66.7 250.3 68 251C69.4 251.8 70.9 252.6 72.3 253.4C73.8 254.2 75.2 255.1 76.7 255.9L77.5 256.4L77.7 256.5L78.2 256.8L77.5 253.7C74.1 255.6 63.2 262.2 69.7 266.5C71.4 267.5 73.3 268.2 75.3 268.6C78.2 269.4 81.2 270.1 84.1 270.6C104.4 274.6 125.1 275.8 145.8 274.2C158.9 273.1 172 270.7 184.1 265.7C184.7 265.6 185.2 265 185.1 264.3C185.1 260.3 182 256.2 179.4 253.5L179.2 256.4C181.8 255.9 188.4 254.5 186.8 250.7C185.8 248.6 184.6 246.7 183.1 245C182.1 243.7 181.1 242.4 180.1 241.1L179 243.6C182.5 243.4 190.3 242.4 189.3 237.3C188.8 235.4 187.9 233.6 186.8 232C185.8 230.4 184.8 228.8 183.7 227.3C182.6 225.8 181 222.7 178.7 222.6C177.1 222.5 175.6 222.6 174 222.6H162.9L130.2 222.7L96.9 222.8C91.1 222.8 85.2 222.7 79.4 222.9H79.1C78.3 222.8 77.7 223.4 77.6 224.1C77.6 224.3 77.6 224.6 77.7 224.8C78.2 226 79.3 226.8 80.6 226.9H90.5L114.3 226.8L143 226.7L168 226.6H176.2C177.5 226.6 178.8 226.7 180.1 226.6H180.3L177.7 225C178.8 226.5 179.9 228 181 229.5C181.9 230.9 182.8 232.3 183.6 233.7C183.9 234.3 184.2 234.8 184.5 235.4C184.7 235.7 184.8 236.1 184.9 236.4C184.8 236 184.9 236.8 184.9 236.6C184.9 236.9 184.8 237.1 184.6 237.3C184.4 237.6 184.1 237.8 183.8 237.9C183 238.4 182.1 238.7 181.2 238.9C180.3 239.1 179.4 239.3 178.4 239.4L177.8 239.5C177.4 239.6 178.2 239.5 177.9 239.5H177.5C176.7 239.4 176 240 176 240.8C176 241.2 176.1 241.6 176.4 241.9C178.6 244.6 180.6 247.4 182.4 250.3C182.5 250.5 182.6 250.6 182.7 250.8C182.5 250.6 182.6 250.7 182.6 250.4C182.6 250.3 182.6 250.1 182.7 250.1C182.8 250.1 182.3 250.5 182.6 250.2C182 250.6 181.3 251 180.6 251.3C179.3 251.8 178 252.1 176.7 252.4C175.2 252.7 175.7 254.5 176.5 255.3C178.1 256.9 179.4 258.8 180.2 260.9C180.3 261.2 180.4 261.6 180.5 262C180.4 261.7 180.5 262.2 180.6 262.4C180.6 262.6 180.7 262.9 180.7 263.1L181.7 261.7C161.2 270.2 138.1 271.6 116.2 270.5C107 270.1 97.9 269.1 88.8 267.6C85.4 267 82 266.4 78.7 265.6C77.5 265.3 76.3 265 75 264.7C74.5 264.6 74 264.4 73.5 264.2L72.9 264L72.6 263.9C72.2 263.8 73.2 264.1 72.7 263.9C72.4 263.8 72 263.6 71.7 263.5C71.6 263.4 71.5 263.4 71.3 263.3C70.9 263.2 72 263.8 71.5 263.4C71 263 72.1 264 71.8 263.7C72.7 264.7 71.6 263.8 72.2 264.3C72.3 264.6 72.3 264.6 72.2 264.4C72.1 264.2 72.2 264.2 72.2 264.4C72.4 263.8 72.8 263.2 73.2 262.7C75.5 260.4 78.1 258.5 81 257.1C82.3 256.4 81.1 254.5 80.3 254C78.1 252.7 75.9 251.4 73.6 250.1C72 249.2 70.4 248.3 68.8 247.5L68.2 247.2C68.5 247.4 68.6 247.4 68.4 247.3C68.7 247.6 69 248 69.1 248.5C68.8 248.8 69.1 248.5 69.2 248.4C69.3 248.3 69.7 247.9 69.4 248.2C69.6 248 69.7 247.9 69.9 247.8C70.3 247.5 70.8 247.2 71.2 247C72.2 246.5 73.2 246 74.2 245.6C75.3 245.2 76.7 244.6 78 244.2C79.8 243.6 78.8 241.6 77.7 240.9C76.2 239.9 74.8 238.8 73.4 237.7C72.4 236.9 71.5 236 70.6 235.1C70.6 235 70 234.5 70 234.4C70 234.3 70.4 235.1 70.2 234.8C70.3 235.2 70.1 235.3 70.3 234.8C70.3 234.7 70.2 235 70.4 234.7C70.6 234.4 70.6 234.4 70.7 234.3C70.9 234 71.2 233.7 71.5 233.4C72.1 232.8 72.8 232.2 73.5 231.7C75.1 230.5 76.8 229.4 78.5 228.5C79.5 227.9 80.5 227.3 81.6 226.8C83.7 225.6 80.1 222.1 78.2 223.1Z" fill="#000005"/>
<path d="M88.0003 245.6C96.7003 246 105.3 246.2 114 246.4C130 246.7 146 246.8 161.9 245.8C168.5 245.4 175.3 244.9 181.6 243.1C182 243 180.4 241.1 180.2 240.9C179.8 240.5 178.8 239.3 178.1 239.5C172.5 241.1 166.6 241.5 160.9 242C153.1 242.6 145.2 242.8 137.4 242.9C123 243.1 108.5 242.8 94.1003 242.3C91.0003 242.2 88.0003 242.1 84.9003 241.9C84.2003 241.9 85.6003 243.5 85.7003 243.6C86.1003 244.2 87.2003 245.5 88.0003 245.6Z" fill="white"/>
<path d="M90.9003 259.8C98.1003 260.6 105.4 261.1 112.6 261.5C127.3 262.4 142 262.3 156.6 261C164.3 260.4 171.9 258.9 179.3 256.6C180.2 256.3 178 251.9 176.6 252.4C170.1 254.4 163.4 255.8 156.6 256.4C149.1 257.2 141.5 257.7 134 257.7C121.4 257.8 108.8 257.2 96.2003 256.2C93.7003 256 91.2003 255.8 88.6003 255.5C87.6003 255.4 88.5003 257.3 88.6003 257.6C89.1003 258.4 89.9003 259.7 90.9003 259.8Z" fill="white"/>
<path d="M299.1 141L305.8 136.1C322.3 122.2 329.2 109.7 317 100.5C305.7 91.9002 288.7 118.2 288.7 118.2C296.2 110.3 310 84.4002 292.1 78.1002C287.2 76.4002 276.7 78.4002 266.2 102.3C260.9 113.9 254.5 125 247.2 135.4C250.3 120.1 248.1 99.4002 236.3 100.6C218.8 102.4 216.7 128.2 218.3 159.7C218.8 170.7 221.2 181.4 225.6 191.5C229.9 201.4 238.5 208.7 248.9 211.5C266 216 279.7 209.8 295 191.8C295 191.8 337.5 147.5 327.3 134C319.5 123.5 299.1 141 299.1 141Z" fill="white"/>
<path d="M301.4 141.7L307 137.5C310.3 135 313.3 132.3 316.1 129.2C321.1 124 327.5 116.2 325.1 108.4C323 101.8 315.6 97.1998 308.8 97.9998C303.1 98.6998 298.2 103.2 294.4 107.2C291.4 110.4 288.7 113.8 286.3 117.5C286.2 117.7 290.4 119.5 291.2 118.7C293.6 116 295.8 113 297.5 109.8C299.7 106.1 301.4 102.1 302.5 97.8998C303.5 94.1998 303.9 90.0998 302.7 86.2998C301.4 82.5998 298.5 79.6998 294.8 78.3998C292 77.0998 288.9 76.5998 285.8 76.8998C283 77.3998 280.3 78.5998 278.1 80.4998C268.9 87.7998 265.1 99.6998 259.9 109.8C255.5 118.5 250.5 126.8 244.8 134.7L249.7 135.9C251.1 129.2 251.3 122.4 250.5 115.6C249.8 110.7 248.2 104.7 243.7 101.9C238.9 99.0998 233 98.9998 228.1 101.7C223.9 104.1 221.2 108.3 219.5 112.7C217.2 118.6 216.4 125.1 215.9 131.4C215.4 139.5 215.4 147.6 215.8 155.7C216.1 164.3 217.4 172.9 219.7 181.2C221.7 188 224.4 194.7 229.1 200.1C234.3 205.8 241 209.8 248.5 211.7C255.1 213.5 262 214.2 268.8 212.7C275.6 211.2 281.7 207.5 286.9 203C291 199.5 294.4 195.5 298.1 191.6C302.9 186.5 307.5 181.2 311.9 175.7C318.1 167.9 324.3 159.7 328.5 150.6C331.4 144.3 334.1 134.9 325.9 131.3C320.6 129 315.1 129.6 310 131.9C305.9 133.8 302.1 136.1 298.6 138.9C298 139.4 297.3 139.9 296.7 140.4C296.5 140.6 298.8 141.4 299 141.4C299.6 141.5 301 142 301.5 141.6C303.5 139.9 305.6 138.4 307.8 137C311.6 134.5 316 132.1 320.6 131.4C321.1 131.3 321.7 131.3 322.2 131.3H322.7C322.8 131.3 323.1 131.4 322.9 131.3C322.7 131.2 322.6 131.2 322.4 131.2C322.6 131.2 322.6 131.3 322.5 131.2C322.3 131.1 322.4 131.1 322.5 131.2C322.9 131.5 323.4 131.8 323.8 132.1C325 133.1 325.8 134.5 326.2 136C327 139.1 326.2 142.6 325.1 145.5C322.1 154.2 316.5 162 311 169.3C306.1 175.7 300.9 181.9 295.5 187.9C289.4 194.6 283.5 201.5 275.8 206.3C270.5 209.7 264.5 211.7 258.2 212C252.1 212.2 246 210.6 240.9 207.3C228.7 199.4 224 184.6 221.8 170.9C220.6 162.6 220.1 154.3 220.2 146C220.1 138.9 220.5 131.9 221.4 124.9C222.8 115.9 226 104.2 236.1 101.7C236.6 101.6 237.1 101.5 237.7 101.4C238.2 101.4 238.8 101.4 239.3 101.3C239.5 101.2 239.1 101.3 239 101.2C238.9 101.1 238.5 101 238.6 101.1C238.8 101.4 239.4 101.6 239.7 101.8C241.5 103.3 242.8 105.3 243.6 107.5C245.8 113.1 246.1 119.5 245.8 125.4C245.6 128.5 245.2 131.7 244.6 134.7C244.5 135.3 249 136.5 249.5 135.9C253.8 129.9 257.8 123.6 261.3 117.1C264.6 111.2 267.3 105 270.3 98.9998C272.6 93.9998 275.6 89.3998 279.1 85.2998C281.2 82.6998 283.9 80.6998 287 79.2998C288 78.8998 289 78.5998 290.1 78.4998C290.3 78.4998 290.5 78.4998 290.8 78.3998H291.3H291.5C291 78.2998 291.9 78.3998 291.5 78.3998C291.7 78.3998 292.1 78.4998 291.4 78.3998L291.2 78.2998L290.8 78.1998C291.2 78.3998 291.6 78.4998 291.9 78.6998C294.4 79.8998 296.3 81.8998 297.4 84.4998C298.8 87.8998 298.6 91.7998 297.9 95.2998C296.9 99.7998 295.2 104 292.9 108C291.1 111.5 288.8 114.7 286.2 117.6L291.1 118.8C292.9 116.1 294.8 113.5 296.9 111.1C300.4 106.9 304.6 102.6 309.8 100.5C310.9 99.9998 312.1 99.6998 313.3 99.5998H313.9C314.3 99.5998 314.2 99.5998 314.4 99.5998C314.1 99.4998 313.8 99.3998 313.4 99.3998C313.4 99.3998 313.8 99.5998 313.9 99.6998C316.8 101.4 319.1 104.2 320.2 107.4C322.4 114.5 317.2 121.6 312.8 126.6C309.7 130.2 306.3 133.4 302.6 136.2L296.7 140.5C296.2 140.9 298.1 141.4 298.3 141.5C298.9 141.5 300.8 142.2 301.4 141.7Z" fill="#000005"/>
<path d="M218.901 131.7C223.701 133.4 228.601 134.5 233.701 135C239.401 135.5 245.101 133.7 249.501 130C250.301 129.3 248.401 128.6 248.001 128.5C247.101 128.3 245.601 127.9 244.901 128.6C241.401 131.7 236.801 133.3 232.201 132.9C228.301 132.4 224.401 131.5 220.701 130.2C220.001 130 218.101 129.6 217.601 130.3C217.101 131 218.501 131.5 218.901 131.7Z" fill="#000005"/>
<path d="M288.4 118.5C290.4 126.2 295.4 132.8 302.4 136.8C303.3 137.3 304.8 137.8 305.5 136.7C306.2 135.6 305.4 134.3 304.5 133.8C303.8 133.4 303 132.9 302.3 132.5C301.9 132.2 301.5 131.9 301.2 131.7L300.7 131.3C300.3 131 300.7 131.3 300.5 131.2C299.9 130.6 299.2 130 298.6 129.4C298.3 129.1 298 128.7 297.6 128.4L297.3 128L297.1 127.7C295 125 293.5 121.9 292.7 118.6C292.2 116.1 287.6 115.6 288.4 118.5Z" fill="#000005"/>
<path d="M272.601 145.8C276.501 142 279.901 137.7 282.901 133.2C286.001 128.7 288.801 123.9 291.401 119.1C292.201 117.7 287.501 116.1 286.601 117.8C284.101 122.6 281.301 127.2 278.201 131.7C275.301 136.1 272.001 140.2 268.201 144C266.801 145.2 271.301 147.1 272.601 145.8Z" fill="#000005"/>
<path d="M285.101 157.4C292.501 151.9 298.201 144.7 304.701 138.3C305.501 137.5 304.001 136.4 303.401 136.2C302.301 135.7 301.101 135.8 300.201 136.6C293.901 142.8 288.401 149.8 281.201 155.1C280.301 155.8 280.901 156.8 281.701 157.2C282.501 157.6 284.201 158.1 285.101 157.4Z" fill="#000005"/>
<path d="M248.1 136.5C247.6 136.1 248.7 136.9 248.1 136.5L248.7 136.9C248.9 137 249.2 137.4 248.6 136.8C248.7 136.9 248.9 137.1 249.1 137.2L249.5 137.6C249.6 137.7 250.1 138.1 249.8 137.8C249.5 137.5 250 138 250.1 138.1L250.7 138.7C250.8 138.8 251.3 139.4 250.9 138.9L251.5 139.5C251.9 139.9 252.4 140.5 252.7 140.8C256.8 145.9 259.6 152 260.7 158.5C261.5 163.6 261.5 168.9 260.6 174C260.5 174.7 262.2 175.9 262.7 176.3C263 176.5 264.4 177.6 264.5 176.9C266.1 168 265 158.9 261.2 150.7C258.6 145.3 254.8 140.5 250.3 136.6C249.3 135.7 248.1 134.8 247 134C246.5 133.7 245.6 133.1 245.8 134C246 134.9 247.4 136.1 248.1 136.5Z" fill="#000005"/>
<path d="M266.8 100.1C271.5 108.5 279 115.6 288.9 116.7C290 116.8 291.4 116.3 291.5 115C291.6 113.7 290.2 113 289.2 112.9C281 112 275.1 105.4 271.2 98.6002C270.1 96.5002 265.4 97.5002 266.8 100.1Z" fill="#000005"/>
<path d="M299.7 141.2C300.1 143.8 300.9 146.4 302.1 148.8C303 151.1 304.2 153.3 305.6 155.4C308.5 159.6 312.9 162.8 318.1 163.2C319 163.3 320.4 162.8 320.3 161.6C320.2 160.4 318.6 159.8 317.6 159.7C314.2 159.4 311.3 156.5 309.5 153.6C308.4 151.8 307.5 149.9 306.7 148C305.7 145.9 305 143.7 304.7 141.4C304.4 139.4 299.5 138.7 299.7 141.2Z" fill="#000005"/>
<path d="M29.8005 185.1C29.8005 185.1 21.0005 193.2 19.4005 200.5C17.8005 207.8 33.7005 229.9 40.2005 231.6C46.7005 233.3 50.4005 223.1 46.4005 213.1C42.4005 203.1 29.8005 185.1 29.8005 185.1Z" fill="white"/>
<path d="M27.8003 183.6C25.4003 185.8 23.3003 188.3 21.4003 190.9C18.9003 194.3 16.4003 198.4 17.0003 202.7C17.5003 206.2 19.2003 209.6 20.9003 212.6C23.1003 216.5 25.6003 220.2 28.4003 223.7C32.2003 228.4 40.1003 237.7 46.8003 232C50.7003 228.7 50.9003 222.3 50.1003 217.7C49.3003 213.1 46.8003 208.5 44.5003 204.3C40.7003 197.5 36.5003 191 32.0003 184.6C31.3003 183.5 30.1003 182.9 28.8003 183.1C28.0003 183.2 27.4003 184 27.5003 184.8C27.5003 185 27.6003 185.2 27.7003 185.4C31.1003 190.2 34.3003 195.1 37.3003 200.1C39.6003 203.8 41.7003 207.6 43.5003 211.5C45.4003 215.6 46.5003 220.9 45.0003 225.4C44.5003 227 43.6003 228.8 42.0003 229.5C41.6003 229.7 41.1003 229.8 40.6003 229.7L40.1003 229.6C40.2003 229.6 40.7003 229.9 40.3003 229.7C39.9003 229.5 39.8003 229.4 39.5003 229.3C40.2003 229.6 39.4003 229.2 39.2003 229.1L38.4003 228.5C38.1003 228.3 37.9003 228.1 37.6003 227.9L37.3003 227.6C37.1003 227.4 37.1003 227.4 37.3003 227.6L37.0003 227.3C35.7003 226.1 34.5003 224.8 33.4003 223.5C30.8003 220.5 28.5003 217.3 26.5003 214C24.6003 211.1 23.1003 208 22.0003 204.6C21.8003 203.9 21.6003 203.2 21.6003 202.5C21.6003 202.9 21.6003 202 21.6003 201.9C21.6003 201.6 21.7003 201.3 21.7003 201C22.4003 198.6 23.5003 196.3 25.0003 194.2C26.9003 191.4 29.2003 188.8 31.7003 186.4C33.6003 184.8 29.5003 182.1 27.8003 183.6Z" fill="#000005"/>
<path d="M54.9999 276.4C53.3999 276.9 48.5999 285.2 33.9999 276.9C19.3999 268.6 31.3999 256.5 41.9999 261.5C48.1999 264.5 52.9999 269.9 54.9999 276.4Z" fill="white"/>
<path d="M53.4999 274.5C52.5999 275 51.7999 275.6 50.9999 276.4C50.4999 276.8 49.8999 277.2 49.2999 277.5C48.4999 277.9 47.5999 278.2 46.6999 278.4C44.1999 278.8 41.5999 278.6 39.2999 277.7C37.4999 277.1 35.6999 276.3 34.0999 275.3C33.3999 274.9 32.6999 274.5 31.9999 274C31.8999 273.9 31.5999 273.7 31.3999 273.5C31.1999 273.3 31.0999 273.3 30.9999 273.1C30.8999 272.9 30.5999 272.6 30.7999 272.9C30.0999 272.2 29.4999 271.2 29.3999 270.2C29.3999 270.4 29.3999 269.8 29.3999 269.7C29.3999 269.5 29.3999 269.2 29.3999 268.9C29.3999 268.5 29.4999 268 29.6999 267.6C30.3999 265.7 31.7999 264.2 33.5999 263.4C35.6999 262.4 38.0999 262.1 40.3999 262.7C43.0999 263.5 45.5999 265 47.6999 267.1C48.6999 268.1 49.5999 269.1 50.3999 270.3L50.6999 270.7C50.8999 270.9 50.4999 270.5 50.7999 270.8L51.2999 271.7C51.5999 272.2 51.7999 272.7 52.0999 273.2C52.1999 273.4 52.2999 273.7 52.3999 273.9C52.4999 274.1 52.2999 273.5 52.4999 274.1C52.5999 274.4 52.7999 274.8 52.8999 275.1C52.9999 275.4 53.0999 275.7 53.1999 276C53.5999 277.2 54.5999 278.1 55.7999 278.4C56.8999 278.6 57.3999 278 57.1999 276.9C56.1999 272.9 53.6999 269.2 50.8999 266.2C46.3999 261.3 39.2999 256.9 32.3999 258.9C29.9999 259.6 27.8999 261.1 26.4999 263.3C25.1999 265.7 25.0999 268.6 26.2999 271C27.9999 274.7 31.4999 277.2 34.9999 279.1C38.3999 281.1 42.1999 282.2 46.1999 282.5C48.7999 282.6 51.2999 282 53.4999 280.6C54.2999 280.1 54.9999 279.6 55.6999 279L56.3999 278.5C56.4999 278.4 56.5999 278.4 56.6999 278.3C56.2999 278.6 56.4999 278.4 56.6999 278.3C58.3999 277.7 55.1999 273.9 53.4999 274.5Z" fill="#000005"/>
<path d="M67.9004 224.6C67.9004 224.6 88.1004 250.1 69.6004 270.3C51.1004 290.5 36.8004 266.7 37.8004 257.4C38.8004 248.1 46.7004 244.5 50.0004 246.1C50.0004 246.1 48.1004 222.3 67.9004 224.6Z" fill="white"/>
<path d="M65.7998 225.4C68.4998 228.9 70.5998 232.7 72.0998 236.8C75.2998 244.8 76.0998 253.7 72.4998 261.6C70.1998 266.5 66.5998 270.6 62.1998 273.6C60.5998 274.7 58.7998 275.5 56.8998 275.9C56.4998 276 55.9998 276 55.5998 276.1H55.0998C55.0998 276.1 54.2998 276.1 54.6998 276.1C54.2998 276.1 53.8998 276.1 53.4998 276L52.8998 275.9C52.2998 275.8 52.8998 275.9 52.4998 275.8L51.3998 275.4L50.9998 275.2C50.9998 275.2 50.1998 274.8 50.6998 275.1C49.8998 274.7 49.1998 274.3 48.3998 273.7L48.2998 273.6C48.0998 273.5 47.8998 273.3 47.6998 273.1C47.4998 272.9 47.0998 272.6 46.7998 272.3C46.1998 271.8 45.6998 271.2 45.1998 270.6C43.1998 268.1 41.6998 265.3 40.7998 262.2C40.3998 260.9 40.1998 259.6 40.1998 258.2C40.2998 256 40.8998 253.8 42.0998 252C43.0998 250.4 44.4998 249.1 46.0998 248.2C46.4998 248.1 46.9998 247.9 47.3998 247.9L47.7998 247.8C47.2998 247.9 48.0998 247.8 48.1998 247.8H48.5998C48.8998 247.8 48.2998 247.7 48.7998 247.8C48.8998 247.8 48.9998 247.8 49.0998 247.8C48.0998 247.7 49.5998 248.1 48.6998 247.7C49.7998 248.2 52.4998 248.4 52.3998 246.4C52.2998 245.7 52.2998 244.9 52.3998 244.2C52.4998 243.5 52.3998 242.6 52.4998 241.8C52.4998 241.4 52.5998 240.9 52.5998 240.4C52.5998 240.2 52.6998 239.9 52.6998 239.6C52.6998 239.5 52.7998 239.2 52.6998 239.6C52.6998 239.5 52.6998 239.3 52.7998 239.2C53.1998 237 53.8998 234.8 54.7998 232.8C54.7998 232.7 54.9998 232.4 54.7998 232.7C54.8998 232.6 54.8998 232.5 54.9998 232.4L55.3998 231.7C55.6998 231.2 56.0998 230.7 56.4998 230.2C57.1998 229.4 57.9998 228.6 58.8998 228.1C61.5998 226.6 64.6998 226.1 67.6998 226.5C68.7998 226.6 70.0998 226 70.0998 224.8C69.8998 223.6 68.8998 222.6 67.5998 222.5C61.1998 221.8 54.6998 223.5 50.9998 229.2C48.3998 233.2 47.3998 238 47.1998 242.7C47.0998 243.7 47.0998 244.8 47.1998 245.8L50.8998 244.5C47.1998 242.7 42.8998 244.1 39.8998 246.8C36.4998 249.9 34.6998 254.3 34.8998 258.9C35.6998 266.5 39.9998 273.4 46.3998 277.5C49.9998 279.8 54.2998 280.6 58.3998 279.8C64.0998 278.6 68.7998 274.6 72.3998 270.3C79.2998 262 80.7998 251.3 78.0998 241C76.4998 234.8 73.5998 229 69.6998 223.9C68.8998 222.8 67.5998 222.4 66.3998 222.8C65.4998 223.1 64.9998 224.1 65.2998 225C65.5998 225.1 65.6998 225.2 65.7998 225.4Z" fill="#000005"/>
<path d="M49.2004 244.6C50.0004 250.6 52.5004 256.4 56.2004 261.1C56.2004 261.2 56.6004 261.7 56.8004 261.6C57.0004 261.5 56.8004 260.9 56.8004 260.8C56.5004 259.6 56.0004 258.6 55.3004 257.6C54.7004 256.8 54.1004 256 53.6004 255.2C53.2004 254.6 53.8004 255.6 53.5004 255C53.5004 254.9 53.0004 254.1 53.3004 254.6C53.2004 254.4 53.1004 254.2 53.0004 254L52.8004 253.6C52.9004 253.9 52.9004 253.9 52.8004 253.6C52.7004 253.3 52.7004 253.3 52.6004 253.2C52.5004 253.1 52.5004 252.9 52.6004 253.1C52.7004 253.3 52.6004 253.2 52.6004 253C52.6004 252.8 52.5004 252.7 52.5004 252.6C52.4004 252.2 52.2004 251.8 52.1004 251.4C51.8004 250.4 51.6004 249.4 51.5004 248.4C51.3004 247.3 50.8004 246.2 50.2004 245.2C50.1004 244.9 49.1004 243.6 49.2004 244.6Z" fill="#000005"/>
<path d="M65.0999 228.3C65.0999 228.3 169.2 238.4 194.2 225.7C194.2 225.7 198.2 72.5997 143.7 62.6997C47.2999 45.0997 58.6999 168.9 65.0999 228.3Z" fill="white"/>
<path d="M66.6008 229.4C70.1008 229.7 73.7008 230 77.2008 230.3C86.0008 231 94.9008 231.6 103.701 232.1C114.901 232.7 126.101 233.1 137.301 233.2C148.301 233.3 159.301 233.1 170.201 232.2C178.301 231.5 186.801 230.7 194.401 227.6C195.101 227.3 195.701 227 196.301 226.7L196.501 226.6C196.601 221.6 196.601 216.6 196.501 211.5C196.301 199.4 195.701 187.2 194.701 175.1C193.501 159.9 191.401 144.8 188.401 129.9C185.501 115.9 181.501 101.8 174.901 89.0002C169.401 78.3002 161.501 68.5002 150.201 63.8002C143.001 60.8002 134.801 60.0002 127.101 59.8002C119.501 59.4002 111.801 60.4002 104.501 62.6002C91.8008 66.6002 81.6008 75.4002 74.7008 86.7002C67.3008 98.9002 63.5008 113.1 61.3008 127.1C58.9008 142.7 58.4008 158.6 58.8008 174.4C59.2008 189.1 60.3008 203.7 61.8008 218.3C62.1008 221.3 62.4008 224.4 62.8008 227.4C62.9008 228.2 64.8008 228.8 65.4008 229.1C65.8008 229.2 67.4008 229.8 67.3008 229C66.3008 220.3 65.5008 211.5 64.8008 202.8C64.0008 192.8 63.4008 182.7 63.3008 172.7C63.1008 162.3 63.4008 151.8 64.3008 141.4C65.1008 131.4 66.9008 121.6 69.4008 112C71.7008 103.2 75.3008 94.8002 80.1008 87.2002C84.8008 80.0002 91.0008 74.0002 98.2008 69.6002C106.301 65.0002 115.401 62.5002 124.801 62.2002C130.501 62.0002 136.201 62.3002 141.801 63.2002C142.501 63.3002 143.201 63.4002 143.901 63.5002L145.101 63.7002L145.401 63.8002C145.201 63.8002 145.201 63.8002 145.401 63.8002C145.801 63.9002 146.201 64.0002 146.601 64.1002L147.201 64.3002L147.401 64.4002C147.101 64.3002 147.901 64.6002 147.401 64.4002C147.701 64.5002 148.201 64.6002 148.601 64.8002L149.201 65.0002C148.701 64.8002 149.101 65.0002 149.301 65.1002L150.401 65.6002C151.001 65.9002 150.101 65.4002 150.501 65.6002L151.201 65.9002C151.601 66.1002 151.901 66.3002 152.301 66.5002C151.901 66.3002 152.201 66.5002 152.401 66.6002L153.001 67.0002L154.101 67.7002L154.301 67.8002L154.901 68.2002C156.301 69.2002 157.601 70.3002 158.801 71.5002C161.501 74.2002 163.901 77.1002 165.901 80.3002C170.601 87.7002 174.301 95.7002 177.001 104.1C180.101 113.4 182.601 123 184.401 132.7C186.301 142.6 187.701 152.6 188.801 162.7C189.801 171.8 190.501 181 191.001 190.2C191.401 197.3 191.601 204.5 191.701 211.6C191.801 215.5 191.801 219.5 191.701 223.4C191.701 223.7 191.701 224.1 191.701 224.4C191.701 224.5 191.701 224.5 191.701 224.6C191.701 224.7 190.701 225 190.501 225.1C187.201 226.4 183.801 227.4 180.301 228C170.701 229.9 160.701 230.4 150.901 230.6C139.401 230.9 127.901 230.8 116.501 230.4C106.201 230 95.9008 229.5 85.6008 228.8C79.2008 228.4 72.7008 227.9 66.3008 227.3L63.6008 227.1C62.7008 227 62.5008 227.4 63.2008 228C64.3008 228.8 65.4008 229.3 66.6008 229.4Z" fill="#000005"/>
<path d="M66.8002 203.4C69.8002 203.8 72.7002 204.2 75.7002 204.6C83.3002 205.5 91.0002 206.2 98.6002 206.8C108.8 207.5 119.1 207.9 129.4 207.9C140.5 207.9 151.7 207.2 162.7 205.8C172.7 204.5 182.7 202.4 192 198.5C193 198.1 194 197.6 195.1 197.1C198 195.8 194.8 192.3 192.4 193.4C183.6 197.5 174.3 199.7 164.7 201.2C154 202.8 143.3 203.6 132.5 203.7C122.1 203.8 111.7 203.5 101.4 202.9C93.4002 202.4 85.5002 201.7 77.6002 200.8C74.0002 200.4 70.3002 199.7 66.7002 199.4H66.5002C65.4002 199.2 64.4002 200 64.2002 201C64.2002 201.1 64.2002 201.2 64.2002 201.3C64.3002 202.6 65.6002 203.2 66.8002 203.4Z" fill="#000005"/>
<path d="M92.4 218.8C94.2778 218.8 95.8 217.278 95.8 215.4C95.8 213.522 94.2778 212 92.4 212C90.5222 212 89 213.522 89 215.4C89 217.278 90.5222 218.8 92.4 218.8Z" fill="#000005"/>
<path d="M94.6 215.3C94.6 215.6 94.5 215.9 94.5 216.2C94.6 215.9 94.5 216.2 94.5 216.3C94.5 216.4 94.5 216.4 94.4 216.5L94.3 216.7C94.3 216.8 94.1 217 94.3 216.8C94.2 216.9 94.1 217 94 217.2C93.9 217.4 93.8 217.4 93.9 217.3C94 217.2 93.8 217.4 93.8 217.4L93.4 217.6C93.2 217.7 93.6 217.6 93.4 217.6C93.3 217.6 93.2 217.7 93.1 217.7L92.9 217.8H93C92.9 217.8 92.7 217.9 92.5 217.9H92.2H92C92.3 217.9 92 217.9 91.9 217.9L91.7 217.8C91.7 217.8 91.4 217.7 91.6 217.8C91.8 217.9 91.5 217.7 91.5 217.7C91.4 217.7 91.4 217.6 91.3 217.6C91.2 217.6 90.9 217.3 91.1 217.5C91 217.4 90.8 217.2 90.7 217.1C90.6 217 90.6 217 90.5 216.9L90.3 216.5C90.3 216.4 90.2 216.3 90.2 216.2C90.2 216 90.1 215.8 90.1 215.6C90.1 215.6 90.1 215.3 90.1 215.5C90.1 215.7 90.1 215.4 90.1 215.4C90.1 215.2 90.1 215.1 90.2 214.9C90.2 214.8 90.2 214.8 90.2 214.7C90.1 214.9 90.2 214.7 90.2 214.6C90.3 214.4 90.4 214.3 90.4 214.1C90.4 214 90.5 214 90.4 214.1C90.4 214 90.5 214 90.6 213.9C90.7 213.8 91 213.5 90.8 213.7L91.1 213.5L91.3 213.4C91.1 213.5 91.5 213.3 91.3 213.4C91.5 213.3 91.6 213.2 91.7 213.2H92C92.1 213.2 92.2 213.2 92.3 213.2C92.1 213.1 92.2 213.2 92.3 213.2H92.6C92.6 213.2 93 213.3 92.7 213.2C92.9 213.2 93.1 213.3 93.2 213.4L93.5 213.6C93.6 213.6 93.6 213.7 93.6 213.7L93.8 213.8C93.7 213.7 93.7 213.7 93.7 213.8C93.7 213.9 93.9 214 94 214.2L94.2 214.4C94 214.2 94.2 214.4 94.2 214.5C94.3 214.7 94.4 214.8 94.4 215C94.4 215.1 94.5 215.2 94.5 215.4C94.5 215.6 94.5 215.8 94.5 216C94.5 216.6 95.4 217 95.9 216.9C96.5 216.8 97 216.3 97 215.6C96.9 213.8 95.7 212.1 94 211.5C92.1 210.9 90 211.4 88.8 212.9C87.6 214.3 87.4 216.4 88.4 218C89.4 219.7 91.4 220.5 93.3 220.2C95.4 219.8 97 218 97.1 215.9C97.1 215.3 96.7 214.8 96.1 214.7C95.5 214.3 94.7 214.6 94.6 215.3Z" fill="#000005"/>
<path d="M78.6008 219.1C80.6995 219.1 82.4008 217.399 82.4008 215.3C82.4008 213.201 80.6995 211.5 78.6008 211.5C76.5021 211.5 74.8008 213.201 74.8008 215.3C74.8008 217.399 76.5021 219.1 78.6008 219.1Z" fill="white"/>
<path d="M81.2002 215.1C81.2002 216.4 80.4002 217.6 79.2002 218.1H79.1002L78.9002 218.2L78.7002 218.3C78.4002 218.4 78.8002 218.3 78.6002 218.3H78.3003C78.0002 218.3 78.4002 218.3 78.2002 218.3H77.9002C77.6002 218.3 78.1003 218.4 77.8003 218.3L77.5002 218.2L77.2002 218.1L77.0002 218C76.9002 217.9 76.7002 217.7 76.6002 217.6C76.7002 217.7 76.6002 217.6 76.6002 217.5C76.6002 217.4 76.5002 217.3 76.4002 217.3C76.3002 217.2 76.3002 217 76.2002 216.9C76.1002 216.6 76.0002 216.3 76.0002 216C76.0002 215.3 76.1002 214.7 76.5002 214.1C76.8002 213.6 77.3002 213.1 77.9002 212.9L78.1002 212.8C78.1002 212.8 78.4002 212.7 78.2002 212.7C78.3002 212.7 78.5002 212.6 78.6002 212.6C78.6002 212.6 78.9002 212.6 78.7002 212.6H79.0002C79.0002 212.6 79.3002 212.6 79.1002 212.6H79.4002C79.7002 212.6 79.2002 212.5 79.5002 212.6L79.8003 212.7C79.4002 212.6 80.2002 213 79.9002 212.8L80.1002 212.9C80.1002 212.9 80.4002 213.2 80.3003 213C80.4002 213.1 80.5002 213.2 80.6002 213.4C80.8002 213.6 80.5002 213.3 80.7002 213.5C80.8002 213.6 80.8002 213.7 80.9002 213.7C81.0002 213.7 81.1002 214 81.1002 214.1C81.1002 214.3 81.2002 214.7 81.2002 215.1C81.2002 215.3 81.5002 215.6 81.6002 215.7C81.9002 215.9 82.2002 216 82.5002 216.1C82.9002 216.1 83.6002 216.1 83.6002 215.5C83.5002 211.3 77.4002 209.1 74.6002 212.3C73.4002 213.7 73.3002 215.7 74.2002 217.3C75.4002 219.1 77.6003 220.1 79.8003 219.7C81.9002 219.4 83.5002 217.5 83.5002 215.4C83.5002 215.2 83.2002 214.9 83.1002 214.8C82.8002 214.6 82.5002 214.5 82.2002 214.4C81.8002 214.5 81.2002 214.6 81.2002 215.1Z" fill="#000005"/>
<path d="M105.5 114.1C101.4 112.9 98.6001 108.7 98.8001 104C99.1001 96.9997 104.3 86.8997 108.2 85.3997C114 83.0997 156.9 78.4997 164.3 86.1997C170.8 92.8997 174.3 102 174 111.3C173.6 117.3 123.7 119.3 105.5 114.1Z" fill="#000005"/>
<path d="M105.801 113.1C102.101 112 100.901 107.1 101.201 103.7C101.701 99.6 103.101 95.6 105.201 92.1C106.401 90 108.101 87.2 110.601 86.4C112.201 86 113.801 85.6 115.401 85.4C120.701 84.5 126.701 84 132.301 83.6C138.601 83.1 145.001 83.1 151.301 83.5C153.901 83.6 156.401 84 158.901 84.6L159.401 84.7C159.301 84.7 158.901 84.5 159.301 84.7L160.001 84.9L160.701 85.1C161.201 85.3 160.301 84.9 160.601 85.1L161.001 85.3C161.101 85.3 161.801 85.7 161.401 85.5C161.001 85.3 161.701 85.7 161.801 85.7C162.201 85.9 161.701 85.6 161.901 85.8C162.101 86 162.201 86.1 162.401 86.2C168.401 92 171.801 101.2 171.701 109.5C171.701 109.9 171.701 110.4 171.601 110.8C171.601 110.9 171.501 111 171.501 111C171.401 111.2 171.601 110.9 171.401 111.1C171.001 111.5 170.501 111.9 170.001 112.1C170.301 112 169.801 112.2 169.801 112.2L169.301 112.4C168.901 112.6 168.501 112.7 168.101 112.8C167.101 113.1 166.101 113.4 165.101 113.6C159.501 114.7 153.801 115.3 148.101 115.5C141.201 115.9 134.201 115.9 127.201 115.7C123.901 115.6 120.501 115.4 117.201 115C114.401 114.8 111.601 114.4 108.901 113.8L107.101 113.4L106.301 113.2C106.201 113.2 105.101 112.9 105.801 113.1C105.201 112.9 103.401 112.4 103.101 113.3C102.801 114.2 104.601 114.9 105.101 115.1C111.301 116.7 117.701 117.7 124.101 117.9C131.701 118.4 139.301 118.5 146.901 118.2C153.501 118 160.101 117.4 166.601 116.4C168.801 116 171.001 115.5 173.101 114.7C174.201 114.3 175.901 113.7 176.301 112.4C176.701 111.1 176.501 109.6 176.401 108.4C176.301 106.3 175.901 104.2 175.401 102.1C174.201 97.5 172.101 93.2 169.301 89.4C167.401 86.8 165.301 84.7 162.301 83.4C159.601 82.3 156.701 81.6 153.801 81.3C147.101 80.5 140.201 80.3 133.501 80.7C127.101 81 120.701 81.5 114.401 82.5C112.301 82.8 110.101 83.2 108.001 83.7C105.801 84.3 103.901 85.6 102.601 87.5C100.001 91 98.1006 95 97.1006 99.3C96.1006 103.5 96.3006 107.9 99.4006 111.3C101.001 113.1 103.001 114.3 105.301 115C105.901 115.2 107.701 115.7 108.001 114.8C108.301 113.9 106.301 113.3 105.801 113.1Z" fill="#000005"/>
<path d="M147.4 200L143.4 199.9C143.4 199.9 143.4 198 143.5 194.9H147.5C147.4 198.1 147.4 200 147.4 200ZM147.5 190H143.5C143.5 188.5 143.5 186.8 143.5 185H147.5C147.6 186.7 147.5 188.4 147.5 190ZM147.6 180H143.6C143.6 178.4 143.6 176.7 143.6 175H147.6C147.6 176.6 147.6 178.3 147.6 180ZM147.6 170H143.6V169.9C143.6 168.3 143.6 166.7 143.6 165H147.6C147.6 166.6 147.6 168.3 147.6 169.9V170ZM143.6 160C143.6 158.3 143.6 156.7 143.6 155H147.6C147.6 156.7 147.6 158.3 147.6 160H143.6ZM143.5 150C143.5 148.3 143.4 146.6 143.4 145L147.4 144.9C147.4 146.5 147.5 148.2 147.5 149.9L143.5 150ZM143.3 140C143.2 138.3 143.2 136.6 143.1 135L147.1 134.9C147.2 136.5 147.2 138.2 147.3 139.9L143.3 140ZM142.9 130.1V129.4L146.9 129.2V129.9L142.9 130.1Z" fill="#000005"/>
<path d="M120.901 102.6C120.901 102.3 120.901 101.9 120.901 101.6C120.901 101.5 120.901 101.3 121.001 101.2C121.101 100.9 120.901 101.3 121.101 101C121.201 100.7 121.301 100.5 121.401 100.2L121.501 100L121.401 100.1C121.501 100 121.601 99.9001 121.701 99.8001L121.801 99.6001C122.001 99.4001 121.901 99.5001 121.701 99.7001C121.701 99.6001 121.901 99.5001 122.001 99.4001C121.601 99.7001 122.401 99.1001 122.001 99.4001L122.201 99.2001L121.901 99.4001L122.101 99.3001L121.801 99.4001C121.901 99.4001 122.401 99.2001 122.001 99.3001C121.601 99.4001 122.201 99.2001 122.301 99.3001H122.101H122.401C122.501 99.3001 122.901 99.3001 122.501 99.3001L122.901 99.4001C123.001 99.4001 123.201 99.5001 123.301 99.5001L123.601 99.6001C123.501 99.6001 123.501 99.6001 123.601 99.6001C124.101 99.9001 124.601 100.2 125.101 100.6C125.901 101.4 126.401 102.4 126.501 103.5C126.601 104.5 128.101 104.3 128.701 104C129.301 103.8 129.901 103.4 130.401 103C130.701 102.7 131.101 102.3 131.101 101.8C131.001 100.1 130.201 98.6001 128.901 97.6001C127.501 96.5001 125.701 96.0001 123.901 96.3001C120.201 96.8001 116.001 100.1 116.401 104.2C116.501 105.2 117.901 105 118.601 104.7C119.201 104.5 119.801 104.1 120.301 103.7C120.501 103.4 121.001 102.9 120.901 102.6Z" fill="white"/>
<path d="M152 102.9C152 102.7 152 102.6 152 102.4C152 102.3 152 102.3 152 102.2C152 102.1 152 102 152 102.3C151.9 102.1 152.1 101.6 152.2 101.5C152.3 101.4 152.4 101 152.2 101.4C152.3 101.3 152.3 101.1 152.4 101C152.5 100.7 152.7 100.5 152.9 100.2C153 100.1 153.3 99.7998 153 99.9998L153.3 99.6998C153.5 99.4998 153.7 99.3998 154 99.1998C154.1 99.0998 154.3 98.9998 154.4 98.9998C154.5 98.9998 154.5 98.9998 154.3 98.9998L154.5 98.8998C154.8 98.7998 155.1 98.6998 155.4 98.6998C155.8 98.5998 155 98.6998 155.5 98.6998H155.9L156.3 98.7998C156.7 98.7998 155.9 98.6998 156.4 98.7998L157 98.9998L157.1 99.0998C157.3 99.1998 157.3 99.1998 157 98.9998C157.2 99.1998 157.5 99.3998 157.7 99.4998C157.4 99.2998 157.3 99.1998 157.5 99.3998L157.6 99.4998C157.7 99.5998 158.1 99.9998 157.8 99.6998C157.5 99.3998 157.9 99.7998 157.9 99.8998C157.9 99.9998 158.1 100.5 157.9 99.7998C158 99.8998 158 99.9998 158.1 100.2L158.2 100.4C158.3 100.6 158.2 100.5 158.1 100.2C158.1 100.3 158.2 100.5 158.2 100.6C158.2 100.8 158.2 100.8 158.2 100.4C158.2 100.5 158.2 100.6 158.2 100.7C158.3 102 159 103.1 160.2 103.6C160.9 103.9 161.7 103.7 162.1 103C162.2 102.8 162.3 102.5 162.2 102.2C162.1 99.9998 161.1 97.9998 159.4 96.4998C158 95.0998 156.2 94.3998 154.3 94.2998C150.6 94.4998 147.8 97.5998 148 101.2C148 101.3 148 101.3 148 101.4C148.1 102.7 148.8 103.8 150 104.3C150.5 104.5 151 104.5 151.4 104.2C151.8 103.8 152 103.4 152 102.9Z" fill="white"/>
<path d="M287.5 63.4998V48.8998C287.5 48.0998 285.8 48.9998 285.5 49.0998C284.9 49.3998 284.4 49.7998 283.9 50.1998C283.7 50.3998 283.2 50.7998 283.2 51.1998V65.7998C283.2 66.5998 284.9 65.6998 285.2 65.5998C285.8 65.2998 286.3 64.8998 286.8 64.4998C287.1 64.1998 287.6 63.7998 287.5 63.4998Z" fill="#E987D0"/>
<path d="M309.6 72.1999C314.7 63.5999 321.2 55.8999 328.8 49.4999C330.9 47.7999 327 44.6999 325.1 46.1999C317.2 52.7999 310.5 60.7999 305.2 69.6999C303.9 71.8999 308.3 74.3999 309.6 72.1999Z" fill="#E987D0"/>
<path d="M323.201 88.0997L326.301 84.9997C326.501 84.7997 326.101 84.6997 326.001 84.6997C325.801 84.6997 325.601 84.6997 325.301 84.6997C325.001 84.6997 324.701 84.7997 324.501 84.7997C323.901 84.8997 323.201 85.0997 322.601 85.2997C322.201 85.3997 321.901 85.5997 321.601 85.8997L318.501 88.9997C318.301 89.1997 318.701 89.2997 318.801 89.2997C319.001 89.2997 319.201 89.2997 319.401 89.2997C319.701 89.2997 320.001 89.1997 320.301 89.1997C320.901 89.0997 321.501 88.8997 322.201 88.6997C322.501 88.5997 322.901 88.3997 323.201 88.0997Z" fill="#E987D0"/>
<path d="M325.3 101.8H340.9C342.1 101.8 343.3 101.2 343.9 100.1C344.3 98.9999 343.3 98.3999 342.3 98.3999H326.7C325.5 98.3999 324.3 98.9999 323.7 100.1C323.3 101.2 324.4 101.8 325.3 101.8Z" fill="#E987D0"/>
</svg>
