<svg transform="scale(1)" version="1.1" id="iSPflnFFdZ" xmlns="http://www.w3.org/2000/svg" xmlns:xlink="http://www.w3.org/1999/xlink" x="0px" y="0px" viewBox="0 0 500 500" xml:space="preserve" class="pbimage_pbimage__wrapper__image__0LEis false"><title>Artificial Intelligence 6</title><style type="text/css"> .st0{fill:#000005;} .st1{fill:#59BE4C;} .st2{fill:#FFFFFF;}
 .st2{fill:#FFFFFF;}
 .st1{fill:#59BE4C;}
 .st0{fill:#000005;}</style><g id="character"><path class="st0" d="M352,227.7c0,0-17.4-25.9-15.2-33.6c3-10.3,11-35.5,34.5-37.1s53.7,17,69.9,67.4
		c37.3,115.8-11.7,79.5-11.7,79.5l-13.8-20.2c-1.8-1.8-4.2-3-6.8-3.2c-4.6-0.5-11.7-22.6-11.7-22.6L352,227.7z" fill="#000005"></path><path class="st1" d="M344.2,269.6c-5.5,5.6-91,125-73.3,134.5s137.5,23.5,170.1,15.4c88.9-22.1,6-113.3-28.5-147
		c-12.6-12.5-30.8-17.7-48.2-13.8C356.7,260.3,349.7,264.1,344.2,269.6z" fill="#59BE4C"></path><path class="st1" d="M342.2,268.1c-2.5,2.8-4.7,5.7-6.8,8.8c-4.5,6.2-9,12.5-13.3,18.8c-5.7,8.3-11.3,16.6-16.8,25
		c-5.8,8.9-11.5,17.9-16.9,27c-4.9,8.3-9.6,16.6-13.8,25.3c-3.1,6.4-6.2,13-7.8,19.9c-1,4.2-1.4,9.7,2.7,12.4c2.3,1.3,4.8,2.4,7.3,3
		c3.4,1,6.8,1.9,10.3,2.6c9.8,2.2,19.7,3.8,29.6,5.2c12.2,1.8,24.4,3.2,36.7,4.4c12.4,1.2,24.9,2.2,37.4,2.8
		c10.8,0.5,21.6,0.8,32.5,0.3c4.3-0.2,8.5-0.5,12.8-1.1c4.7-0.7,9.3-1.8,13.8-3.4c10.3-3.4,20.6-8.9,27-18
		c5.1-7.4,6.8-16.5,5.9-25.4c-1-10.3-4.8-20.1-9.4-29.3c-5.3-10.3-11.5-20.1-18.6-29.4c-7-9.3-14.4-18.1-22.2-26.7
		c-3.4-3.8-6.9-7.5-10.5-11.1c-3.5-3.5-6.9-7.2-10.7-10.5c-12.9-11.1-30.4-16.1-47.2-12.6C355.9,258.1,348.2,262.2,342.2,268.1
		c-0.8,0.9,0.3,2.4,1,2.9c0.9,0.8,2.2,0.8,3.1,0c11.7-11.7,30.6-14.3,45.8-9.1c7.3,2.5,13.9,6.6,19.4,12c3.2,3.1,6.3,6.2,9.3,9.4
		c7.4,7.7,14.5,15.6,21.3,23.8c7.3,8.8,14.1,18,20.2,27.7c5.6,9.1,10.5,18.4,13.6,28.6c2.5,8.3,3.6,17.3,1.2,25.7
		c-2.5,8.7-8.8,15.5-16.7,20.2c-5.3,3.1-11.1,5.4-17,7c-2.2,0.6-4.4,1.2-6.6,1.6c-0.8,0.2-1.7,0.3-2.5,0.4l-0.6,0.1
		c0.5-0.1-0.2,0-0.3,0l-1.4,0.2c-9.4,0.9-18.8,1.3-28.2,1c-11.8-0.2-23.5-0.9-35.3-1.8c-12.3-1-24.5-2.2-36.7-3.7
		c-10.9-1.4-21.8-2.9-32.7-4.9c-7.8-1.2-15.5-3-23-5.2l-0.5-0.2l0,0c-0.3-0.1-0.6-0.2-0.9-0.3c-0.5-0.2-1.1-0.4-1.6-0.6
		s-0.9-0.4-1.4-0.6l-0.3-0.1c-0.5-0.2,0.5,0.4,0.3,0.1c-0.1-0.1-0.3-0.2-0.4-0.3c0.3,0.1,0.5,0.5,0.1,0.1s0.2,0.4,0,0
		c-0.1-0.2-0.2-0.3-0.3-0.4c0.2,0.2,0.2,0.5,0-0.1c-0.1-0.2-0.1-0.4-0.2-0.5c-0.2-0.6,0,0.3,0-0.2s-0.1-0.9-0.1-1.3s0-1,0-1.5
		s0,0.4,0,0c0-0.1,0-0.3,0-0.4s0.1-0.6,0.1-0.9c0.2-1.3,0.5-2.5,0.8-3.8c0.9-3.1,2-6.1,3.2-9.1c3.4-7.8,7.2-15.4,11.4-22.8
		c5-8.9,10.3-17.7,15.8-26.4s11.1-17.3,16.9-25.9c4.9-7.3,9.9-14.5,14.9-21.6c3.3-4.6,6.6-9.2,10-13.7c0.7-0.9,1.4-1.8,2.2-2.6
		c0.9-0.9-0.3-2.4-1-2.9C344.3,267.4,343,267.4,342.2,268.1z" fill="#59BE4C"></path><path class="st2" d="M387.5,357.4c13.4,0.4,26.8-0.4,40.1-2.3" fill="#FFFFFF"></path><path class="st0" d="M388.1,358.6c13.5,0.4,27.1-0.4,40.5-2.4c0.8-0.1,1-0.9,0.5-1.5c-0.6-0.7-1.6-1-2.5-0.9
		c-13.1,1.9-26.4,2.7-39.7,2.3c-0.7,0-1.4,0.4-1.1,1.2C386.3,358.2,387.2,358.6,388.1,358.6L388.1,358.6z" fill="#000005"></path><path class="st2" d="M367.9,401.5c0,0,20.5-37.9,19.5-45.7s-16.8-23.8-25.3-23.2s-9.3,13.5-9.3,13.5s-8.1,3.3-8.1,9.3
		S367.9,401.5,367.9,401.5z" fill="#FFFFFF"></path><path class="st0" d="M370.2,402.5c5-9.3,9.8-18.8,14-28.5c1.3-3,2.6-6.1,3.7-9.2c0.9-2.2,1.5-4.4,1.8-6.8c0.3-2.6-0.9-5-2.2-7.2
		c-2.1-3.5-4.7-6.6-7.7-9.4c-3-3-6.4-5.6-10.2-7.6c-3.2-1.7-7.1-3.2-10.7-2.3c-3.3,0.9-5.5,3.6-6.7,6.6c-0.6,1.3-1,2.7-1.2,4.1
		c-0.3,0.8-0.4,1.7-0.4,2.6c0,0.3,0,0.1,0.1,0c-0.3,0.2-0.7,0.3-1,0.5c-1.4,0.7-2.7,1.6-3.9,2.6c-2.1,1.9-3.9,4.7-3.2,7.7
		c0.5,2,1.2,3.9,2.1,5.8c1.2,2.8,2.6,5.6,4,8.4c5.2,10.4,10.9,20.5,16.7,30.5c0.1,0.2,0.2,0.4,0.4,0.6c0.8,0.9,1.8,1.5,3,1.6
		c0.6,0.1,1.9,0.1,1.3-0.8c-3.6-6.3-7.1-12.6-10.6-18.9c-2.7-4.9-5.3-9.9-7.8-14.9c-1.7-3.4-3.6-6.9-4.5-10.6
		c-1.1-4.7,3.9-8.6,7.7-10.1l0.2-0.2c0.4-5,2.9-13.3,9-13.2c1.2,0.1,2.5,0.4,3.5,1c1.9,1,3.7,2.2,5.3,3.5c3.6,2.9,6.8,6.3,9.3,10.1
		c1.5,2.3,3.2,5.1,2.8,7.9c-0.5,2.8-1.3,5.6-2.4,8.2c-2.9,7.5-6.2,14.8-9.9,21.9c-2.3,4.7-4.7,9.3-7.2,13.9
		C365,401.6,369.5,403.8,370.2,402.5z" fill="#000005"></path><path class="st0" d="M376,349.9c0.6,0,0.4,0.1,0.1,0l-0.7-0.2c-0.8-0.3-1.5-0.5-2.3-0.8c-2.1-0.8-4.3-1.6-6.5-2.3
		c-2.5-0.8-5-1.5-7.5-2.1c-2.3-0.6-4.6-0.8-6.9-0.6c-2.8,0.3-1.1,4.8,1.2,4.5c4.6-0.5,9.5,1.2,13.9,2.7c2.1,0.7,4.2,1.5,6.3,2.2
		c1.1,0.5,2.3,0.9,3.5,1.1c1.2,0.1,1.7-1.2,1.4-2.2C378.3,351,377.3,350.1,376,349.9L376,349.9z" fill="#000005"></path><path class="st0" d="M371.4,360.4c-2.6-2-5.4-3.5-8.5-4.4c-5.6-1.7-11.3-0.8-15.7,3.2c-1.4,1.3,2.1,4.8,3.6,3.5
		c3.6-3.3,8.8-4.4,13.5-2.7c0.9,0.3,1.7,0.6,2.5,1l1.1,0.6l0.6,0.3c0.5,0.3-0.2-0.2,0.1,0.1c0.7,0.4,1.3,0.8,1.9,1.3
		c0.6,0.5,2,1,2.5,0S372.1,360.9,371.4,360.4L371.4,360.4z" fill="#000005"></path><path class="st0" d="M367,366.1c-4-1.6-8.7-2.8-12.9-1.4c-1.6,0.5-3,1.7-3.9,3.1c-0.4,0.9,0,2,1,2.4c0.1,0.1,0.3,0.1,0.4,0.1
		c1.3,0.3,2.6-0.2,3.2-1.3c0.2-0.3-0.4,0.4,0,0c0,0,0.3-0.4,0.3-0.4c-0.3,0.3-0.4,0.3-0.2,0.2c0.1-0.1,0.1-0.1,0.2-0.1
		c0.1-0.1,0.3-0.2,0.4-0.3c-0.4,0.2-0.5,0.3-0.2,0.1l0.2-0.1c0.2,0,0.3-0.1,0.5-0.2l-0.3,0.1l0.2-0.1l0.4-0.1l0.5-0.1
		c0.7-0.1-0.5,0,0,0s0.7,0,1.1,0s0.7,0,1.1,0.1c0.2,0,0.8,0.1,0,0l0.5,0.1c1.2,0.2,2.4,0.5,3.5,0.9c0.4,0.1,0.8,0.2,1.1,0.4
		s0.8,0.3-0.2-0.1l0.1,0c1.2,0.6,2.6,0.3,3.5-0.6c0.7-0.7,0.6-1.9-0.1-2.5C367.2,366.3,367.1,366.2,367,366.1L367,366.1z" fill="#000005"></path><path class="st0" d="M367.6,348.9c0,0,37.6-28,36.4-30.1s-7.8-6.9-11.1-6.9s-34.6,35.2-34.6,35.2L367.6,348.9z" fill="#000005"></path><path class="st0" d="M368.7,349.5c5-3.7,10-7.6,15-11.4c4-3.1,7.9-6.2,11.8-9.4c3-2.4,5.9-4.9,8.6-7.6c0.8-0.7,1.5-1.6,2-2.6
		c0.2-0.5,0-1.1-0.4-1.5c-0.9-1-1.9-1.9-3-2.7c-2.2-1.7-5.1-3.6-8-3.9c-1.7-0.2-3.2,0.8-4.5,1.7c-2.8,2.2-5.4,4.6-7.8,7.1
		c-3.5,3.5-7,7.1-10.4,10.8c-5.1,5.5-10.2,11-15.2,16.7l-0.2,0.3c-0.5,0.5-1.1,1.5,0,1.8l9.4,1.8c1.1,0.2,2.4-0.7,3.1-1.4
		c0.5-0.5,1.1-1.5,0-1.8l-9.3-1.8v1.8c3.9-4.4,7.9-8.8,11.9-13.2c3.3-3.6,6.7-7.2,10.1-10.8c1.6-1.6,3.2-3.2,4.8-4.8
		c0.7-0.7,1.4-1.4,2.1-2.1l0.9-0.9l0.4-0.4c0.2-0.2,0.5-0.5,0.1-0.1c0.5-0.5,1-0.9,1.5-1.3c0.2-0.2,0.5-0.3,0.7-0.5
		s-0.1,0.1-0.2,0.2c0.1,0,0.2-0.2,0.3-0.2c0.5-0.2-0.7,0.3-0.1,0.1c-0.3,0.1-0.5,0.1-0.8,0.2c0.1,0-0.3,0,0.1,0
		c1.3,0.3,2.5,0.7,3.7,1.4c2.3,1.3,4.5,3,6.3,4.9c0.2,0.3,0.1,0.2,0.1,0.2s0-0.2,0,0c0-0.4,0.1-0.3,0-0.2c-0.1,0.3,0.2-0.3,0.1-0.1
		s-0.2,0.3-0.3,0.4c-0.3,0.4,0.3-0.3-0.2,0.2c-0.9,1-1.9,1.9-3,2.9l-0.6,0.5l-1.1,1c-0.8,0.7-1.5,1.3-2.3,2c-3.6,3-7.4,6-11.1,8.9
		c-5.5,4.3-11.1,8.4-16.6,12.6l-0.3,0.2c-0.5,0.4-1.6,1.5-0.8,2.1S368.1,349.9,368.7,349.5z" fill="#000005"></path><path class="st2" d="M327.4,315.7c0,0,50.1,116.5,49.4,118.1s-82.5,16.2-89.2,11.9s-42.3-120.9-41.1-122.8S325.8,314.2,327.4,315.7
		z" fill="#FFFFFF"></path><path class="st0" d="M325.3,315.6c1.1,2.5,2.2,5.1,3.3,7.6c2.8,6.5,5.6,13,8.4,19.5c3.7,8.6,7.4,17.2,11,25.9
		c3.8,9,7.7,18.1,11.5,27.2c3.2,7.6,6.4,15.2,9.5,22.9c1.8,4.5,3.7,8.9,5.3,13.5c0.1,0.2,0.2,0.5,0.2,0.8c0.2,0.5,0-0.5,0,0.1
		s0.1-0.4,0.2-0.6s0.4-0.4,0-0.1c-0.2,0.1,0.5-0.1,0,0l-0.4,0.1c-0.4,0.1-0.8,0.2-1.1,0.3c-1.1,0.3-2.2,0.5-3.3,0.8
		c-7.8,1.7-15.6,3.1-23.5,4.4c-10,1.7-20,3.3-30.1,4.6c-4.5,0.6-9,1.1-13.6,1.5c-1.9,0.2-3.9,0.3-5.8,0.4h-0.3H296h-1.3
		c-0.7,0-1.4,0-2.2,0c-1.2,0-2.4,0-3.6-0.2c-0.1,0-0.9-0.1-0.4,0s-0.2,0-0.4-0.1s-0.4-0.1-0.5-0.1c0.4,0,0.6,0.3,0.1,0
		c1,0.5-0.1-0.2,0.8,0.5l-0.2-0.2c-0.2-0.2,0.4,0.6,0.1,0.1c-0.1-0.1-0.2-0.2-0.3-0.4c-0.2-0.3-0.4-0.6-0.6-1s-0.4-0.7-0.1-0.1
		c-0.1-0.2-0.2-0.5-0.4-0.7c-2.7-5.5-5-11.2-7-17c-3.2-8.6-6.1-17.2-9-25.9c-3.2-9.7-6.3-19.4-9.4-29.1c-2.7-8.7-5.3-17.4-7.9-26.1
		c-1-3.4-2-6.8-2.9-10.2c0-0.1-0.2-0.6-0.1-0.3s-0.1-0.3-0.1-0.3l-0.3-1.1l-0.5-1.9c-0.3-1-0.6-2.1-0.8-3.1s-0.4-2.4-0.7-3.5
		c0.1,0.3-0.1,0.5-0.4,0.9c0,0,0.1-0.1,0.2-0.1c0.3-0.2-0.5,0.1-0.1,0c0.8-0.2,1.5-0.4,2.3-0.5c7-1.2,14.2-1.9,21.3-2.6
		c9.8-1,19.7-1.9,29.5-2.6c7.8-0.6,15-1.2,22.6-1.3c0.9,0,1.9,0,2.8,0c0.3,0,0.6,0.1,0.9,0.1c0.5,0-0.5-0.1-0.2,0h0.1
		c-0.6-0.2-1.1-0.5-1.5-0.9c0.8,0.7,2.1,1.6,3.1,0.9s0.4-2-0.3-2.6c-1.7-1.5-3.8-1.4-5.9-1.3c-3.2,0-6.5,0.2-9.8,0.4
		c-9.5,0.5-18.9,1.3-28.4,2.1c-9.3,0.8-18.6,1.7-27.9,2.8c-3,0.4-6,0.7-8.9,1.2c-1.1,0.2-3.6,0.3-3.9,1.7c-0.1,1.2,0.1,2.4,0.5,3.5
		c0.6,2.3,1.2,4.6,1.8,7c2.1,7.6,4.4,15.2,6.6,22.8c2.9,9.6,5.9,19.1,8.9,28.6c3.1,9.6,6.3,19.2,9.6,28.8c2.6,7.6,5.3,15.2,8.4,22.6
		c1,2.4,2,4.8,3.2,7c0.7,1.7,1.9,3.3,3.3,4.5c1.9,1.3,4.4,1.4,6.6,1.5c3.5,0,7-0.1,10.4-0.5c9.7-0.8,19.3-2.1,28.9-3.6
		s19.4-3.1,29.1-4.9c3.5-0.7,7-1.3,10.6-2.1c1.9-0.4,3.8-0.8,5.7-1.5c1.5-0.5,1.2-1.6,0.8-2.9c-0.5-1.6-1.1-3.2-1.7-4.8
		c-2.4-6.2-5-12.3-7.5-18.4c-3.6-8.7-7.2-17.3-10.9-25.9c-3.9-9.2-7.8-18.4-11.7-27.6c-3.4-8-6.8-16-10.2-23.9l-6.2-14.5
		c-0.3-0.7-0.6-1.3-0.9-2c-0.5-1.1-1.6-1.9-2.9-2.1c-0.6-0.2-1.3,0.2-1.5,0.8C324.9,314.9,325,315.3,325.3,315.6z" fill="#000005"></path><path class="st2" d="M319.5,322c0,0,53.6,117.9,50,119.9s-74,12-79.6,10s-49.2-117.1-47.6-120.7S319.5,322,319.5,322z" fill="#FFFFFF"></path><path class="st0" d="M317.6,322.2l3.2,7.1c2.7,6.1,5.5,12.1,8.2,18.2c3.7,8.2,7.3,16.5,11,24.7c3.8,8.8,7.7,17.6,11.4,26.4
		c3.2,7.5,6.5,15.3,9.6,23.1c2.1,5.2,4.2,10.5,5.8,15.9c0.2,0.7,0.4,1.5,0.6,2.2c0,0.1,0.1,0.6,0,0.2s0,0,0,0.1c0,0.2,0,0.4,0,0.5
		c0-0.2,0-0.4,0.2-0.5c0.5-0.6,0.2,0-0.1,0s0.1,0,0,0l-0.5,0.1l-1.4,0.3c-7.2,1.6-14.6,2.6-21.9,3.7c-10,1.5-19.9,2.8-29.9,4
		c-4.3,0.5-8.7,1-13,1.3c-1.7,0.1-3.5,0.3-5.2,0.4c-0.7,0-1.4,0.1-2.1,0.1h-0.9c-0.3,0-1,0-0.5,0c-0.8,0-1.6-0.2-2.4-0.2
		c-0.1,0,0.6,0.2,0.3,0.1c-0.1,0-0.3-0.1,0.2,0.1s-0.2-0.2,0.6,0.4c-0.5-0.4,0.5,0.6,0,0c-0.2-0.2-0.3-0.5-0.5-0.7
		c0.6,0.8-0.1-0.2-0.3-0.5c-0.5-0.8-1-1.7-1.4-2.5c-3-5.7-5.5-11.6-8.1-17.5c-1.6-3.7-3.2-7.6-4.9-11.6c-1.8-4.4-3.6-8.8-5.3-13.2
		c-3.6-9.2-7.2-18.4-10.6-27.7c-3.1-8.2-6.1-16.4-9-24.7c-1.9-5.5-3.9-11-5.4-16.7c-0.2-0.8-0.4-1.5-0.6-2.3c0-0.1,0-0.3-0.1-0.4
		c-0.1-0.3,0,0.6,0,0.1c0-0.2,0-0.4,0-0.5c-0.1-0.2-0.1,0.3,0,0.3c0.1-0.3-0.3,0.4-0.1,0.2s-0.2,0.1-0.1,0.1s0.2-0.1,0.3-0.2
		c0.3-0.1,0.6-0.2,1-0.4s0.2,0-0.1,0l0.3-0.1l0.8-0.2c6.8-1.7,14-2.3,21-3.1c9.5-1.1,19.1-2,28.7-2.8c7.1-0.6,14.2-1.2,21.2-1.8
		l3.2-0.2c1.2-0.1,1.2-1.5,0.8-2.3c-0.6-1.1-1.7-1.8-3-1.8c-4.2,0.3-8.4,0.6-12.6,1c-9.2,0.8-18.3,1.5-27.5,2.5
		c-8.9,0.9-17.8,1.8-26.7,3.1c-2.7,0.4-5.5,0.9-8.1,1.6c-1.4,0.4-3.3,0.8-3.3,2.6c0.1,1.4,0.4,2.8,0.8,4.1c0.7,2.4,1.4,4.8,2.2,7.1
		c2.4,7.3,5,14.6,7.6,21.8c3.3,9.1,6.8,18.2,10.3,27.3c3.5,9.1,7.1,18.2,10.9,27.4c3.1,7.5,6.2,14.9,9.6,22.3
		c1.1,2.4,2.3,4.9,3.6,7.2c0.8,1.5,1.7,3,2.8,4.3c1.4,1.6,3.1,1.9,5.2,2c3.1,0,6.2-0.2,9.3-0.4c9.5-0.8,18.9-2,28.3-3.2
		s18.9-2.6,28.3-4.2c3-0.5,6-1,9-1.7c1.2-0.3,3.4-0.4,3.8-1.8s-0.2-2.9-0.6-4.1c-0.6-2.2-1.4-4.3-2.2-6.5c-2.5-6.8-5.2-13.5-8-20.2
		c-3.7-8.7-7.4-17.4-11.2-26.1c-3.8-8.9-7.7-17.7-11.6-26.6c-3.3-7.5-6.7-15-10-22.5c-2-4.5-4-9-6-13.4c-0.3-0.6-0.5-1.2-0.8-1.8
		c-0.6-1.1-1.7-1.8-3-1.8C317.2,320.1,317.2,321.3,317.6,322.2z" fill="#000005"></path><path class="st0" d="M323.6,304.9c-7.1-6.2-18.5-6.7-25.9-0.7c-7,5.6-6.6,16.3-1.2,22.9c3.5,4.2,8.7,6.7,14.2,6.7
		c1.2,0.1,2.2-0.7,2.3-1.9c0,0,0-0.1,0-0.1c-0.2-1.3-1.3-2.2-2.6-2.2c-3.5,0.1-6.9-1.3-9.3-3.9c-2.2-2.4-3.4-5.4-3.7-8.7
		c-0.3-3.1,0.8-6.2,2.9-8.6c3.3-3.3,7.9-4.8,12.5-4c2,0.3,3.8,1,5.5,2.1l0.5,0.3c0.1,0,0.7,0.4,0.3,0.2s0.4,0.3,0.5,0.4l0.6,0.5
		c1,0.9,2.4,0.9,3.5,0.1c0.8-0.7,0.9-1.9,0.1-2.7C323.8,305.1,323.7,305,323.6,304.9L323.6,304.9z" fill="#000005"></path><path class="st2" d="M309.4,329.6c0,0,3.6-1.1,3.3,2.9s-3.4,2.9-4.6,1.2S308.5,329.7,309.4,329.6z" fill="#FFFFFF"></path><path class="st0" d="M311.3,331.2c0.3-0.1,0.5-0.1,0.8-0.1h-0.3c0.2,0,0.4,0,0.6,0h0.1h0.1c0,0-0.5-0.1-0.3-0.1h0.1
		c0.3,0.1-0.6-0.2-0.3-0.1h0.1c-0.1-0.1-0.3-0.2-0.5-0.2c0.3,0.2-0.6-0.4-0.4-0.2s-0.7-0.5-0.4-0.3c0,0-0.6-0.5-0.3-0.3
		s-0.4-0.5-0.3-0.3c0,0,0,0.1,0.1,0.1c0.2,0.2-0.2-0.4-0.1-0.2c0.1,0.1,0.1,0.3,0.2,0.4l-0.1-0.3c0.2,0.8,0.2,1.7,0,2.5v-0.2
		c-0.1,0.7-0.5,1.3-1,1.7l0.2-0.1c-0.2,0.2-0.5,0.3-0.8,0.3h0.3c-0.1,0-0.3,0-0.4,0h-0.1c0.6,0.1,0.4,0.1,0.3,0l-0.2,0
		c-0.2,0-0.4-0.2,0.4,0.1h-0.1H309c-0.3-0.1,0.5,0.2,0.4,0.2l-0.2-0.1c0.1,0.1,0.3,0.2,0.5,0.3l-0.1-0.1l-0.1-0.1
		c-0.2-0.2,0.6,0.5,0.4,0.3l-0.2-0.1c-0.2-0.2,0.4,0.4,0.4,0.3l-0.1-0.1l-0.1-0.1c-0.2-0.2,0.3,0.3,0.3,0.3l-0.1-0.1
		c0,0-0.1-0.1-0.1-0.2l-0.1-0.1c0.3,0.4,0.2,0.3,0.1,0.1c-0.1-0.1-0.1-0.2-0.1-0.3l0.1,0.3c-0.1-0.4-0.2-0.9-0.1-1.3v0.2
		c0.2-0.8,0.6-1.6,1.3-2.1l-0.2,0.1C311,331.2,311.1,331.2,311.3,331.2c0.3-0.1,0.2-0.5,0.1-0.7c-0.3-0.4-0.6-0.8-1-1.1
		c-0.5-0.4-1.1-0.7-1.6-1c-0.4-0.2-0.8-0.3-1.2-0.2c-0.3,0.1-0.6,0.3-0.9,0.5c-0.3,0.3-0.5,0.6-0.7,1c-0.2,0.4-0.3,0.9-0.4,1.4
		c0,0.5,0,1.1,0.3,1.5c0.3,0.6,0.7,1.1,1.1,1.5c0.5,0.5,1,0.9,1.6,1.3c1,0.8,2.2,1.3,3.5,1.5c0.7,0.1,1.4-0.1,1.9-0.6
		c0.5-0.6,0.8-1.4,0.9-2.3c0.1-0.9,0-1.8-0.4-2.6c-0.4-0.6-0.9-1.2-1.5-1.7c-0.7-0.5-1.4-1-2.2-1.3c-1-0.5-2.2-0.6-3.3-0.3
		c-0.3,0.1-0.2,0.4-0.1,0.6c0.3,0.4,0.6,0.8,1,1.1c0.5,0.4,1.1,0.7,1.6,1C310.4,331.2,310.9,331.2,311.3,331.2z" fill="#000005"></path><path class="st0" d="M301.7,305c-6.5-6.3-17.5-4.4-24,1.1c-3.3,2.7-5.3,6.6-5.5,10.9c-0.1,4,1.1,7.9,3.6,11c3.2,4,8.1,6.2,13.2,6.1
		c1.2-0.1,2.3-0.8,3-1.8c0.6-0.9,0.1-1.5-0.9-1.5c-7.5-0.1-13.6-6.1-14.4-13.4c-0.4-3.2,0.4-6.5,2.3-9c0.4-0.6,1-1.1,1.6-1.5
		c1-0.7,2.1-1.3,3.3-1.7c2-0.8,4.3-1.1,6.5-0.8c1.8,0.3,3.6,0.9,5.2,1.9c0.5,0.3,1,0.6,1.5,1c0.1,0.1,0.8,0.7,0.3,0.2
		C298.6,308.8,302.7,306,301.7,305L301.7,305z" fill="#000005"></path><path class="st2" d="M289,330.5c0,0,3.6-1.1,3.3,2.9s-3.4,2.9-4.6,1.2S288.1,330.5,289,330.5z" fill="#FFFFFF"></path><path class="st0" d="M291.3,331.2l0.2,0h0.2h0.1h0.4h-0.3c0.1,0,0.4,0,0,0h-0.1c-0.2,0-0.3-0.1-0.5-0.1c-0.5-0.1-1.1-0.3-1.6-0.5
		l-0.4-0.1l0.1,0c0,0-0.4-0.2-0.2-0.1l0.1,0.1c0.1,0.1-0.2-0.2-0.1-0.1l0.1,0.1c0.1,0.1,0.1,0.1,0.2,0.2c0.1,0.1,0.2,0.3,0.3,0.5
		l0-0.1c0.3,0.8,0.3,1.7,0.1,2.5c-0.1,0.7-0.4,1.4-1,1.9l0.1-0.1c-0.1,0.1-0.3,0.2-0.4,0.2l-0.2,0c-0.1,0-0.2,0,0.1,0h-0.1
		c-0.3,0,0.4,0,0.1,0c0.5,0.1,0.9,0.2,1.4,0.3c-0.3-0.1,0.8,0.3,0.5,0.1c0,0,0.7,0.3,0.4,0.1s0.6,0.3,0.3,0.1l-0.1,0
		c-0.2-0.1,0.4,0.2,0.2,0.1l-0.1-0.1l-0.2-0.1l0.1,0.1l-0.1-0.1l-0.2-0.2c-0.3-0.3-0.6-0.6-0.8-1l0,0.1c-0.4-1.3,0-2.7,1.1-3.5
		l-0.1,0.1c0.1-0.1,0.3-0.2,0.4-0.2c0.3,0-0.1-0.4-0.1-0.4c-0.4-0.3-0.9-0.5-1.4-0.6c-0.6-0.2-1.2-0.4-1.9-0.5
		c-0.4-0.1-0.8-0.1-1.2-0.1c-0.3,0.1-0.6,0.2-0.8,0.5c-0.3,0.3-0.5,0.6-0.7,1c-0.4,0.8-0.5,1.8-0.1,2.6c0.3,0.6,0.8,1.1,1.5,1.5
		c0.5,0.3,1,0.6,1.5,0.8c1.1,0.5,2.3,0.8,3.6,0.9c0.7,0.2,1.5,0,2.1-0.5c0.5-0.6,0.8-1.3,0.9-2.1c0.1-0.8,0-1.7-0.4-2.4
		c-0.7-0.8-1.6-1.4-2.6-1.6c-1-0.3-2-0.6-3-0.7c-0.4,0-0.7,0-1.1,0c-0.3,0-0.7,0.1-1,0.1c-0.3,0.1,0.1,0.3,0.1,0.4
		c0.4,0.3,0.9,0.4,1.4,0.6c0.6,0.2,1.2,0.4,1.9,0.5C290.5,331.4,290.9,331.3,291.3,331.2z" fill="#000005"></path><path class="st0" d="M280.6,305.4c-7.6-4.4-18.9-3-24.2,4.3c-4.5,6.1-3.2,15.1,1.9,20.4c3.6,3.6,8.6,5.6,13.8,5.5
		c0.9,0,2.2-0.5,2-1.6s-2-1.4-2.9-1.4c-1.5,0-2.9-0.3-4.3-0.8c-1.5-0.6-2.9-1.4-4-2.6c-2.1-2.1-3.6-4.9-4.1-7.9
		c-1.4-7,3.3-13.9,10.3-15.2c0.2,0,0.3-0.1,0.5-0.1c1.9-0.2,3.9-0.1,5.7,0.5l0.6,0.2l0.4,0.1c-0.2-0.1,0.5,0.2,0.7,0.3
		c0.3,0.1,0.5,0.2,0.7,0.4c1.1,0.6,2.4,0.6,3.5-0.1C282.2,306.8,281.4,305.9,280.6,305.4L280.6,305.4z" fill="#000005"></path><path class="st2" d="M270.5,332.1c0,0,3.6-1.1,3.3,3s-3.4,2.9-4.6,1.2S269.6,332.2,270.5,332.1z" fill="#FFFFFF"></path><path class="st0" d="M271.5,334.2c0.3-0.1,0.6-0.1,0.9-0.1h-0.5c0.3,0,0.5,0,0.8,0L272,334c0.2,0,0.3,0.1,0.5,0.2l-0.6-0.2l0.3,0.2
		l-0.5-0.4c0.1,0.1,0.2,0.1,0.3,0.2l-0.5-0.5c0.1,0.1,0.2,0.2,0.2,0.3l-0.3-0.5c0.1,0.1,0.2,0.3,0.2,0.4l-0.2-0.5
		c0.1,0.3,0.1,0.5,0.2,0.8v-0.5c0,0.6,0,1.1-0.1,1.6l0.1-0.5c-0.1,0.4-0.2,0.8-0.4,1.2l0.2-0.4c-0.1,0.2-0.3,0.4-0.4,0.5l0.4-0.3
		c-0.1,0.1-0.3,0.2-0.5,0.3l0.5-0.2c-0.1,0.1-0.3,0.1-0.5,0.1h0.5c-0.2,0-0.3,0-0.5,0l0.6,0.1c-0.2,0-0.4-0.1-0.6-0.2l0.6,0.2
		c-0.2-0.1-0.5-0.2-0.7-0.4l0.5,0.4c-0.2-0.2-0.4-0.4-0.6-0.6l0.5,0.5c-0.2-0.2-0.3-0.3-0.4-0.5l0.3,0.5c-0.1-0.1-0.1-0.2-0.2-0.4
		l0.2,0.5c-0.1-0.2-0.1-0.4-0.1-0.6l0.1,0.5c0-0.3,0-0.5,0-0.8l-0.1,0.5c0.1-0.4,0.2-0.8,0.4-1.1l-0.2,0.4c0.2-0.3,0.4-0.6,0.7-0.9
		l-0.4,0.3c0.1-0.1,0.2-0.2,0.4-0.2l-0.5,0.2L271.5,334.2c0.5,0,0.9-0.4,1.1-0.8c0.2-0.5,0.1-1.1-0.2-1.6c-0.5-1.1-1.7-1.8-3-1.7
		c-0.6,0.1-1.1,0.4-1.5,0.8c-0.4,0.4-0.7,0.8-0.9,1.3c-0.6,1-0.7,2.3-0.3,3.4c0.2,0.7,0.6,1.4,1.1,1.9c0.3,0.4,0.7,0.7,1.1,1
		c0.9,0.7,2,1.2,3.2,1.4c0.1,0,0.3,0,0.4,0c0.3,0,0.6,0,0.9-0.1c0.6-0.1,1.1-0.4,1.5-0.8c0.7-0.8,1.1-1.8,1.2-2.9
		c0.2-1.2,0-2.4-0.5-3.5c-0.6-1.2-1.6-2.1-2.9-2.6c-0.8-0.3-1.6-0.4-2.5-0.3c-0.2,0-0.5,0.1-0.7,0.1c-0.3,0-0.5,0.1-0.7,0.3
		c-0.2,0.1-0.4,0.3-0.4,0.6c-0.2,0.5-0.1,1.1,0.2,1.6c0.3,0.6,0.8,1.1,1.3,1.4C270.3,334.2,270.9,334.3,271.5,334.2z" fill="#000005"></path><path class="st0" d="M260.7,309.9c-6.9-5.2-18.1-5.1-23.3,2.6c-4.2,6.3-2.4,14.8,2.6,20.1c3.4,3.4,7.9,5.3,12.7,5.3
		c1,0,2.6-0.2,3-1.4s-1-1.8-1.9-1.8c-3.2,0.1-6.2-1.1-8.6-3.1c-2.3-2-3.9-4.6-4.7-7.5c-1.5-5.9,0.8-13.3,7.4-14.4
		c2-0.3,4.1,0,5.9,0.9c0.8,0.3,1.5,0.7,2.2,1.1l0.6,0.4c-0.5-0.3-0.2-0.1-0.1-0.1c1,0.7,2.3,0.8,3.5,0.3
		C260.8,311.7,261.8,310.6,260.7,309.9L260.7,309.9z" fill="#000005"></path><path class="st2" d="M252.2,334.2c0,0,3.6-1.1,3.3,2.9s-3.4,2.9-4.6,1.2S251.3,334.3,252.2,334.2z" fill="#FFFFFF"></path><path class="st0" d="M252.8,336.1c0.2-0.1,0.4-0.1,0.7-0.1L252.8,336.1c0.3-0.1,0.5-0.1,0.7-0.1l-0.7-0.1c0.2,0,0.4,0.1,0.5,0.1
		l-0.6-0.2c0.1,0.1,0.3,0.1,0.4,0.2l-0.5-0.3c0.1,0.1,0.2,0.2,0.4,0.3l-0.4-0.4c0.1,0.1,0.2,0.3,0.3,0.4l-0.2-0.5
		c0.1,0.3,0.2,0.5,0.2,0.8l-0.1-0.5c0.1,0.6,0.1,1.2-0.1,1.8l0.1-0.5c-0.1,0.4-0.2,0.8-0.4,1.2l0.3-0.5c-0.1,0.2-0.2,0.3-0.4,0.5
		l0.4-0.4c-0.1,0.1-0.2,0.2-0.3,0.2l0.5-0.3c-0.1,0.1-0.2,0.1-0.3,0.1l0.6-0.2c-0.1,0-0.2,0.1-0.4,0.1l0.7-0.1c-0.1,0-0.3,0-0.4,0
		l0.7,0.1c-0.2,0-0.4-0.1-0.5-0.1l0.6,0.2c-0.3-0.1-0.5-0.2-0.7-0.4l0.5,0.3c-0.3-0.2-0.6-0.4-0.8-0.7l0.4,0.4
		c-0.2-0.2-0.4-0.4-0.5-0.7l0.2,0.5c-0.1-0.2-0.2-0.4-0.2-0.7l0.1,0.5c0-0.3,0-0.6,0-0.9l-0.1,0.5c0.1-0.4,0.2-0.7,0.4-1.1l-0.3,0.5
		c0.2-0.3,0.4-0.6,0.6-0.8l-0.4,0.4c0.1-0.1,0.2-0.2,0.4-0.3l-0.5,0.3l0.2-0.1l-0.6,0.2L252.8,336.1c0.6-0.1,1.1-0.4,1.5-0.9
		c0.3-0.4,0.4-1,0.3-1.5c-0.2-0.5-0.6-1-1.1-1.2c-0.6-0.3-1.3-0.3-1.9-0.2c-0.7,0.1-1.3,0.4-1.8,0.9c-0.4,0.4-0.8,0.8-1.1,1.3
		c-0.2,0.3-0.4,0.7-0.5,1c-0.1,0.4-0.2,0.7-0.2,1.1c-0.1,0.6,0,1.2,0.2,1.8c0.4,0.9,1,1.8,1.8,2.3c0.8,0.6,1.7,1,2.6,1.2
		c0.7,0.1,1.3,0.1,2,0c0.6-0.1,1.2-0.4,1.8-0.9c0.5-0.4,0.9-1,1.2-1.6c0.2-0.5,0.4-1.1,0.4-1.7c0.1-0.5,0.1-1,0.1-1.5
		c0-0.5-0.1-1-0.3-1.5c-0.4-1-1.2-1.7-2.1-2.2c-0.8-0.3-1.7-0.5-2.6-0.4c-0.5,0-0.9,0.1-1.4,0.2c-0.6,0.1-1.1,0.4-1.5,0.9
		c-0.3,0.4-0.4,1-0.3,1.5c0.2,0.5,0.6,1,1.1,1.2C251.5,336.2,252.2,336.3,252.8,336.1z" fill="#000005"></path><path class="st2" d="M254.8,379.1c0,0-9.2,11.5-7.7,15.9s21.4,9.8,24.4,8.4s-9-12.9-9-12.9l-3.1-10L254.8,379.1z" fill="#FFFFFF"></path><path class="st0" d="M253,377.3c-2.8,3.4-5.2,7.1-7,11.1c-1,2.4-1.7,5-0.2,7.4c1.3,2,3.5,3.4,5.6,4.5c5.3,2.6,10.9,4.3,16.7,5.1
		c1.5,0.2,4,0.7,5.2-0.4c1.6-1.4,0-4.1-0.9-5.5c-2.6-3.8-5.6-7.2-9-10.2l0.9,1.6l-2.7-8.7c-0.5-1.8-1.1-3.4-3.1-4
		c-1.4-0.4-2.9-0.8-4.3-1.2c-0.6-0.2-1.3,0-1.5,0.6c-0.1,0.3-0.1,0.6,0,0.8c0.3,1.2,1.3,2.2,2.4,2.6l4.5,1.2l-2.5-2.5l1.9,5.9
		c0.6,1.8,1,4.4,2.3,5.7s2.7,2.7,3.9,4c0.5,0.5,0.9,1,1.3,1.5c0.2,0.3,0.5,0.5,0.7,0.8l0.3,0.4c0.4,0.4-0.2-0.3,0.2,0.2
		s0.8,1,1.1,1.5c0.2,0.2,0.3,0.5,0.5,0.7l0.2,0.3c0.3,0.5-0.2-0.5,0,0.1c0.1,0.2,0.2,0.4,0.3,0.6c0.2,0.4,0-0.3,0-0.1
		c0,0,0.1,0.2,0,0.2s-0.1-0.4,0-0.1c0,0.1-0.1,0.4,0-0.2c0,0.1,0,0.1-0.1,0.2c0.4-0.5,0-0.1,0-0.1c0.1,0,0.3-0.1,0,0s-0.2,0.1-0.1,0
		c-0.5,0-0.9,0-1.4,0c-2.7-0.2-5.3-0.7-7.8-1.5c-3-0.8-5.9-1.8-8.6-3.1c-0.6-0.3-1.2-0.6-1.8-0.9c-0.4-0.2-0.1,0,0,0
		c-0.1-0.1-0.2-0.1-0.3-0.2c-0.3-0.2-0.5-0.4-0.8-0.6s0.4,0.4,0.1,0.1c-0.1-0.1-0.2-0.2-0.3-0.3c-0.2-0.4,0.3,0.5,0,0
		c-0.2-0.3,0.1,0.2,0.1,0.2c-0.1-0.2-0.1,0.2,0,0.1s-0.1-0.5-0.1-0.5c0.2-3,2.2-6.1,3.8-8.7c1.1-1.8,2.4-3.5,3.7-5.2
		c0.7-0.9,0-2.1-0.6-2.8C255.4,377.5,253.8,376.4,253,377.3z" fill="#000005"></path><path class="st2" d="M251,372.4c0,0-7.7,8.6-1.2,12.3c6.5,3.8,25.2,2.2,27.3,1c3.9-2.1-3.9-8.8-8.8-10.6S251,372.4,251,372.4z" fill="#FFFFFF"></path><path class="st0" d="M249.3,370.6c-3.3,3.7-6.3,9.6-2.7,14.1c2,2.5,5.4,3.4,8.4,4c3.3,0.5,6.5,0.8,9.8,0.7c3.1,0,6.1-0.2,9.2-0.5
		c1.9-0.2,4.3-0.4,5.6-1.9c2.4-2.7-0.3-6.3-2.2-8.3c-2.5-2.6-5.5-4.6-8.9-5.9c-3.5-1.1-7.1-1.8-10.8-2.1c-2.3-0.3-4.5-0.5-6.8-0.7
		c-3.2-0.2-2.4,4.4,0.3,4.6c4.4,0.3,8.8,0.8,13.1,1.6c2.4,0.4,4.6,1.3,6.6,2.6c1.2,0.8,2.4,1.7,3.4,2.7c0.2,0.2,0.4,0.4,0.6,0.6
		s0.6,0.8,0.4,0.5c0.2,0.2,0.3,0.5,0.4,0.7s0,0,0-0.1c0.1,0.2,0.1,0.3,0.2,0.5c0-0.1,0-0.2,0-0.2c0,0,0.1-0.1-0.1,0
		s-0.2,0.1-0.3,0.1c-0.3,0.2,0.5-0.1,0.1,0c-0.1,0-0.3,0.1-0.4,0.1l-1.3,0.2c-2.3,0.3-4.7,0.6-7.1,0.6c-2.9,0.1-5.7,0.1-8.5-0.2
		c-2.5-0.1-4.9-0.6-7.1-1.5c0,0-0.4-0.2-0.1,0s-0.2-0.1-0.2-0.1s-0.8-0.6-0.7-0.5c-0.1-0.1-0.3-0.3-0.4-0.4c0.2,0.2,0,0,0-0.1
		s-0.2-0.4-0.1-0.1c-0.1-0.1-0.1-0.3-0.1-0.5c0,0.3-0.1-0.5-0.1-0.7s0-0.1,0,0c0-0.2,0-0.4,0.1-0.6c0.1-0.5,0.3-1.1,0.5-1.6
		c0.5-1.1,1.1-2.2,1.9-3.2c0.1-0.2,0.5-0.6,0.2-0.2l0.3-0.4c0.1-0.1,0.2-0.3,0.3-0.4C254.6,372.1,251.1,368.5,249.3,370.6z" fill="#000005"></path><path class="st2" d="M249.9,358.3c0,0-6.3,6.5-5.3,10.9s27.3,11.3,31.4,3.1c2.5-4.9-24.1-11.5-24.1-11.5L249.9,358.3z" fill="#FFFFFF"></path><path class="st0" d="M248.3,356.4c-3.7,3.9-9.1,11.7-3.5,16.2c2.2,1.6,4.6,2.7,7.2,3.4c3.4,1.1,6.9,1.9,10.4,2.2
		c3.3,0.5,6.6,0.3,9.8-0.4c2.4-0.7,5.5-2.2,6-4.9s-1.5-4.8-3.5-6.1c-2.6-1.6-5.3-2.9-8.1-3.9c-4.8-1.8-9.8-3.3-14.8-4.5l1.5,0.9
		l-2-2.5c-0.6-0.9-1.8-1.2-2.8-0.6C248.5,356.3,248.4,356.3,248.3,356.4c-0.7,1-0.6,2.4,0.2,3.3c0.7,0.8,1.3,1.7,2,2.5
		c0.6,0.6,1.3,1,2.1,1.1l2.3,0.6c1.2,0.3,2.3,0.6,3.1,0.9c2.9,0.9,5.8,1.8,8.5,2.9c1.3,0.5,2.6,1,3.9,1.7c0.6,0.3,1.2,0.6,1.7,0.9
		c0.1,0,0.4,0.2,0,0l0.3,0.2c0.3,0.2,0.5,0.3,0.8,0.5l0.6,0.4c0.5,0.4-0.2-0.3,0.1,0.1c0.1,0.2,0.2,0.3,0.4,0.4
		c-0.4-0.4-0.3-0.5-0.2-0.2c0.2,0.5-0.2-0.5-0.1-0.2c0.1,0.5-0.1-0.6,0-0.1c0-0.5,0-0.5,0-0.3s0.2-0.4,0.1-0.2s-0.5,0.7-0.1,0.3
		c-0.2,0.2-0.3,0.4-0.5,0.6c-0.1,0.1-0.2,0.2-0.3,0.3s0.4-0.3,0,0l-0.7,0.4c-0.2,0.1-0.5,0.2-0.8,0.4l-0.4,0.1
		c-0.4,0.2,0.2,0-0.2,0.1c-1.4,0.4-2.7,0.6-4.1,0.6c-6.1,0.2-12.2-1-17.8-3.5c-0.3-0.1-0.6-0.3-0.9-0.4l-0.3-0.2
		c-0.1,0-0.6-0.4-0.4-0.2L247,369c-0.2-0.1-0.4-0.3-0.5-0.4s0.1,0.1,0.2,0.2s-0.2-0.2-0.2-0.2c0,0.1-0.2-0.7,0,0s-0.1-0.5,0.1,0.3
		s0,0.1,0,0.1v0.1c0-0.2,0-0.3,0-0.5c0,0,0.1-0.7,0.2-1c0.7-2.7,2.8-5.3,4.7-7.3C253.2,358.4,250.2,354.4,248.3,356.4z" fill="#000005"></path><ellipse class="st2" transform="matrix(0.3014 -0.9535 0.9535 0.3014 40.7591 482.7456)" cx="349.8" cy="213.6" rx="27.6" ry="24.8" fill="#FFFFFF"></ellipse><path class="st0" d="M323.8,206.7c-3.4,11-0.7,23.8,8.9,30.8s22.7,5,31.8-1.5c9.8-7.1,14.5-19.2,12.1-31.1
		c-2.4-10.9-11.5-19.5-23-19.7C340,185.1,328,193.8,323.8,206.7c-0.3,0.7,1.6,0.2,1.9,0.2c0.6-0.2,2.5-0.6,2.8-1.4
		c2.9-8.9,10.4-17.9,20.2-18.3c10.4-0.5,19.2,7,22.4,16.5c3.3,10.6,0.6,22.1-7.2,30c-3.2,3.1-7,5.6-11.4,6.1
		c-4.9,0.5-9.8-0.6-13.9-3.2c-10.3-6.4-13.5-20-10.1-31.1c0.2-0.7-1.6-0.2-1.9-0.2C326,205.4,324,205.9,323.8,206.7z" fill="#000005"></path><path class="st2" d="M335.8,242.2c-11.3-18.8,19.8-61.2,19.8-61.2c8.7,0.3,24.2-4.4,24.2-4.4c-10,24.3,18.2,38.1,18.2,38.1
		c9.1-12.3,24-3.8,20,9.4s-17.1,11.7-17.1,11.7s-0.8,34.5-3.2,39.5c0,0-25.1,10.3-34.4-12C363.2,263.3,343.5,255,335.8,242.2z" fill="#FFFFFF"></path><path class="st0" d="M337.8,241.9c-1.1-1.7-1.8-3.7-2-5.7c-0.3-2.2-0.3-4.5,0-6.8c0.7-5.3,2.1-10.4,4.1-15.3
		c3.8-9.2,8.4-18,14-26.2c1.2-1.8,2.4-3.6,3.6-5.3l-1.4,0.5c5.3,0.1,10.6-0.9,15.7-2.1c3-0.7,6-1.4,9-2.4l-3.2-3.3
		c-3.4,8.1-2.7,17.4,1.9,24.9c3.6,5.7,8.5,10.4,14.2,14c1.2,0.8,2.4,1.5,3.6,2.1c0.7,0.4,1.9,0.7,2.5-0.1c2.4-3.2,6-5.9,10.2-5.4
		c0.8,0.1,1.5,0.3,2.2,0.6c0.2,0.1,0.5,0.3,0.7,0.4c0.1,0.1,0.3,0.2,0.4,0.3c-0.4-0.3,0.4,0.3,0.4,0.4c0.5,0.4,1,1,1.4,1.6
		c-0.2-0.3,0,0.1,0.1,0.1c0.1,0.2,0.2,0.4,0.4,0.7c0.2,0.4,0.3,0.8,0.5,1.2c1.2,4-0.2,8.6-2.6,11.8c-2,2.6-4.7,4.4-7.9,5.3
		c-1.3,0.3-2.6,0.5-4,0.6c-0.4,0,0.1,0,0.2,0c-0.1,0-0.3,0-0.4,0h-0.5c-0.1,0-0.3,0-0.4,0c-0.8-0.2-1.5,0.3-1.7,1.1
		c0,0.1,0,0.1,0,0.2c-0.2,10.8-0.6,21.6-1.8,32.3c-0.1,0.8-0.2,1.6-0.3,2.5s-0.1,1-0.3,1.6c-0.1,0.9-0.4,1.8-0.8,2.7l0.6-0.7
		l-0.5,0.2l-0.6,0.2l-0.3,0.1c0.6-0.2,0,0-0.1,0c-1.6,0.5-3.2,0.9-4.8,1.1c-4.5,0.9-9.1,0.7-13.4-0.6c-2.4-0.8-4.6-2.1-6.5-3.9
		c-1.6-1.5-2.9-3.3-3.8-5.3c-0.4-1.1-0.9-2.1-1.6-3c-0.5-0.5-1.2-0.9-1.9-1.1c-0.2-0.1-0.6-0.3,0.1,0.1l-0.4-0.2l-1.2-0.6
		c-2.2-1.1-4.5-2.3-6.6-3.6c-6.4-3.8-12.9-8.5-16.8-14.9c-0.6-1-1.7-2-3-1.8c-0.8,0.2-1.3,1-1.2,1.8c0,0.2,0.1,0.4,0.3,0.6
		c5.9,9.7,16.2,16.4,26.2,21.3c1,0.5,2,1,3.1,1.4l-1.9-1.7c3.2,7.5,9.3,13.5,17.4,15.4c5.6,1.2,11.4,1,16.9-0.6
		c1.2-0.2,2.4-0.6,3.6-1.2c0.7-0.4,0.9-1.4,1.1-2.2c0.3-1.2,0.5-2.4,0.7-3.6c1-6.7,1.3-13.5,1.6-20.3c0.2-4.9,0.4-9.8,0.5-14.7
		l-1.7,1.4c6.1,0.6,12.1-1.9,15.9-6.8c2.9-4.1,4.5-9.8,2.9-14.7c-1.4-4.5-5-8-9.6-9.3c-5.8-1.4-11.1,1.5-14.6,6l2.5-0.1
		c-0.9-0.4-1.8-1-2.6-1.5c-0.4-0.3-0.8-0.5-1.2-0.8l-0.7-0.4c-0.1-0.1-1.1-0.8-0.4-0.3c-1.1-0.8-2.2-1.6-3.2-2.5
		c-0.5-0.5-1.1-0.9-1.6-1.4l-0.9-0.9c-0.1-0.1-0.3-0.3-0.4-0.4c-0.4-0.4,0.2,0.2-0.2-0.2c-1.2-1.3-2.3-2.6-3.3-4.1
		c-0.4-0.6-0.8-1.2-1.1-1.8c-0.5-0.8-0.9-1.6-1.2-2.4c-0.7-1.6-1.2-3.2-1.5-4.9c-0.8-4.6-0.2-9.4,1.7-13.7c0.6-1.5-1.6-3.8-3.2-3.3
		c-6.4,2-12.9,3.4-19.5,4.2c-1,0.1-2,0.2-3,0.2s-1.8-0.2-2.5,0.4c-0.2,0.2-0.3,0.4-0.5,0.6c-0.9,1.3-1.9,2.7-2.8,4
		c-3.5,5.2-6.7,10.6-9.6,16.1c-3.6,6.6-6.4,13.5-8.4,20.8c-1.8,7-2.5,15.1,1.3,21.6c0.6,1.1,1.7,1.8,3,1.8c0.8-0.2,1.3-1.1,1.1-1.9
		C338,242.2,337.9,242,337.8,241.9z" fill="#000005"></path><path class="st2" d="M384.5,230.8c0,0,0.6,14.6-9.2,9.1" fill="#FFFFFF"></path><path class="st0" d="M383.3,230c0,0.1,0,0.2,0,0.4s0,0.3,0,0.4v0.2c0-0.4,0-0.2,0,0c0,1.1-0.2,2.1-0.4,3.1
		c-0.1,0.6-0.3,1.2-0.5,1.8c0.1-0.3,0,0.1-0.1,0.2s-0.1,0.3-0.2,0.4c-0.1,0.3-0.2,0.5-0.4,0.8c-0.1,0.3-0.3,0.5-0.5,0.7l-0.2,0.3
		c-0.1,0.1-0.1,0.1,0,0c-0.1,0.1-0.1,0.1-0.2,0.2c-0.4,0.4-0.9,0.7-1.4,0.8h-0.1h-0.2c-0.2,0-0.3,0-0.5,0c-0.4,0-0.8,0-1.1-0.1
		l-0.2-0.1l-0.2-0.1c-0.2-0.1-0.4-0.1-0.6-0.2c-0.5-0.2-1-0.5-1.5-0.7c-0.8-0.4-0.8,0.7-0.7,1.2c0.2,0.9,0.8,1.6,1.5,2.1
		c1.4,0.9,3.1,1.4,4.9,1.2c1.3-0.2,2.4-1,3.1-2.1c1.2-2.1,1.9-4.5,1.9-7c0-0.7,0.1-1.4,0-2.1c-0.1-0.9-0.6-1.8-1.3-2.3
		c-0.6-0.4-1.1-0.1-1.1,0.6L383.3,230z" fill="#000005"></path><path class="st2" d="M358.3,208.7c-5.5,2.6-11.4,4.3-17.5,5.2c-20.4,3.4-22.8,10.4-16.5,14.4s34,1,34,1" fill="#FFFFFF"></path><path class="st0" d="M356.6,206.9c-6.2,3.2-13.2,4.3-20,5.6c-4.1,0.7-8.2,2-12,3.8c-2,1-4.1,2.4-4.9,4.6c-0.8,2,0.2,4,1.4,5.6
		c1.6,2.1,3.7,3.7,6.2,4.5c2.7,0.7,5.4,1.2,8.2,1.2c3.4,0.2,6.7,0.2,10.1,0c4.8-0.2,9.5-0.5,14.2-1c0.9-0.1-0.3-1.7-0.5-1.9
		c-0.5-0.6-1.6-2-2.5-1.9c-3.6,0.4-7.2,0.6-10.8,0.8c-6,0.3-12.3,0.6-18.3-0.3c-1.1-0.2-2.2-0.4-3.2-0.8c-0.3-0.1-0.6-0.2-0.9-0.4
		c-0.3-0.1,0,0,0.1,0.1l-0.3-0.2l-0.3-0.2c-0.2-0.2,0.4,0.3,0,0c-0.5-0.5,0.3,0.3-0.1-0.1c-0.2-0.2,0.4,0.4,0.2,0.2
		c-0.1-0.1-0.2-0.3,0,0s0,0,0,0s0.2,0.4,0,0.1s0,0.1-0.1-0.2c-0.2-0.6-0.2-1.3,0.1-1.9c0.6-1.9,2.7-3.3,4.4-4.2
		c3.4-1.7,7.1-3,10.9-3.6c7.3-1.5,14.8-2.6,21.5-6C360.7,210.1,357.8,206.2,356.6,206.9L356.6,206.9z" fill="#000005"></path><path class="st0" d="M370.7,206.2c0,0-3.2-0.2-3.1,2.9s3.9,3,4.7,0.4c0.5-1.2,0-2.6-1.2-3.1C370.9,206.3,370.8,206.3,370.7,206.2z" fill="#000005"></path><path class="st0" d="M350.8,199.9c0,0-3.2-0.2-3.2,2.9s3.9,3,4.7,0.4c0.5-1.2,0-2.6-1.2-3.1C351,200,350.9,200,350.8,199.9z" fill="#000005"></path><ellipse class="st2" transform="matrix(0.3011 -0.9536 0.9536 0.3011 69.2489 561.2708)" cx="417.5" cy="233.4" rx="27.5" ry="24.7" fill="#FFFFFF"></ellipse><path class="st0" d="M393.3,223.5c-3.5,11.4-0.5,25,9,32.7c4.5,3.7,10.1,5.7,15.9,5.7c5.4-0.1,10.7-1.9,15.1-5
		c9.9-7.1,14.5-20.1,12.1-31.9c-2.4-11.4-11.6-21.2-23.5-22.2C408.5,201.5,397.2,211.3,393.3,223.5c-0.7,2,3,5.1,3.9,2.5
		c3.1-9.6,11.3-17.6,21.6-18.8c9.6-1,18.7,4.8,21.8,14c3.5,9.9,0.4,21.7-7.1,29c-6.9,6.7-17.6,9.6-26.4,4.8
		c-10.3-5.6-13.1-18.4-9.8-29C397.8,224,394.1,220.9,393.3,223.5z" fill="#000005"></path><path class="st2" d="M427.7,218.7c0,0,12.8-33.9-9.8-54.2s-45.8-3.4-45.8-3.4s19.1-5.5,33.5,5.8s10.6,48.1,10.6,48.1" fill="#FFFFFF"></path><path class="st0" d="M430.2,219c1.2-3.4,2.1-7,2.7-10.6c1.4-7.7,1.3-15.7-0.5-23.4c-2.4-9.8-8.3-18.4-16.6-24.1
		c-8.8-6.1-19.7-8.5-30.3-6.5c-5.6,0.9-11,3.1-15.7,6.3c-0.7,0.5,1.2,1.1,1.3,1.1c1,0.3,2.1,0.3,3.1,0c-0.9,0.2,0.4-0.1,0.7-0.2
		c0.9-0.2,1.8-0.4,2.7-0.5c2.8-0.4,5.6-0.6,8.4-0.4c7,0.3,15.1,3.2,19.8,8.9c3.9,4.7,5.7,10.9,6.8,16.9c1.1,6.1,1.6,12.3,1.5,18.5
		c0,3.3-0.1,6.6-0.4,9.9c-0.1,1.1,4.9,1.7,5,0.6c1-9.4,0.6-18.9-1-28.1c-1.1-6.2-3-12.9-7.2-17.8c-5.5-6.5-14.7-9.5-22.9-10.3
		c-5.9-0.7-11.8-0.2-17.5,1.3l4.5,1.1c3.5-2.4,7.3-4.1,11.4-5.1c3.7-1,7.6-1.4,11.4-1c5,0.7,9.7,2.5,13.8,5.4
		c8.1,5.5,13.9,13.7,16.3,23.2c1.7,7.4,2,15,0.7,22.4c-0.5,4-1.5,8-2.9,11.8C425,219.2,429.8,220.3,430.2,219L430.2,219z" fill="#000005"></path></g><g id="robot"><path class="st0" d="M66.7,164.9c0,0-54.9,23.3-45.3,46s36.9,25.6,36.9,25.6l10-9.2c0,0-28.3-15.2-26.9-24.8s30.3-11.3,30.3-11.3
		L66.7,164.9z"></path><path class="st0" d="M58.4,237h-0.2c-0.3,0-27.7-3.2-37.3-25.9c-4-9.5,2.6-20.6,19.2-32.1c8.3-5.6,17.2-10.5,26.3-14.6l0.6-0.2
		l5.3,27.4h-0.6c-0.3,0-28.6,1.8-29.9,10.9s26.3,24.1,26.6,24.3l0.6,0.3L58.4,237z M66.3,165.6c-5.8,2.5-53.3,24.4-44.5,45.1
		c8.9,21,33.7,24.9,36.3,25.2l9.3-8.6c-4.3-2.4-27.8-15.8-26.5-25s26-11.4,30.2-11.7L66.3,165.6z"></path><path class="st0" d="M263.9,198.6c0,0-13.9,51.1-28.9,55.4c-15,4.3-50.7-62.9-50.7-62.9l-16.8-21.9c0,0-7.4-20.8,6.1-8.8
		s68.6,109.9,60.4,38.7L263.9,198.6z"></path><path class="st2" d="M199.7,221.6c0,0,10.4-5.8,17.9-5s23.4,22.9,23,29.6s-11.3,7-19.5,0.1S199.7,221.6,199.7,221.6z"></path><path class="st0" d="M201.4,223.5c2.6-1.4,5.2-2.5,8-3.4c2.3-0.8,4.6-1.3,7-1.5c0.9-0.1,1.8,0,2.6,0.1c0.4,0.1,0,0,0.4,0.1
		c0.3,0.1,0.6,0.2,0.9,0.4c0.3,0.1-0.4-0.2,0.1,0.1c0.1,0.1,0.3,0.2,0.4,0.2c0.3,0.2,0.6,0.4,0.9,0.6l0.4,0.3c-0.3-0.2,0,0,0.1,0.1
		c0.3,0.3,0.7,0.5,1,0.8c1.3,1.1,2.5,2.3,3.6,3.6c2.7,2.9,5.1,6.1,7.2,9.4c1.8,2.6,3.2,5.4,4.2,8.4c0.1,0.3,0.2,0.6,0.2,0.9
		s-0.1-0.4,0,0.1c0,0.1,0,0.2,0.1,0.3c0.1,0.6,0.1,1.1-0.1,1.7c-0.4,1.5-1.6,2.8-3.1,3.2c-4.3,1.5-9.4-0.5-12.9-3
		c-3.3-2.3-5.8-5.2-8.5-8.3c-4.7-5.3-8.9-10.6-13.1-16.2c-0.5-0.7-1.7-2-2.7-1.7s-0.2,1.8,0.1,2.2c4.1,5.5,8.4,10.9,12.8,16.1
		c2.9,3.6,6.2,6.9,9.7,9.9c4.2,3.4,9.9,6.1,15.4,5.5c3.6-0.4,6.5-3.1,6-6.9c-0.4-3.4-2.2-6.6-3.8-9.5c-2.3-4-5-7.9-8-11.4
		c-2.6-3.2-5.6-6.1-8.9-8.6c-1.4-1-2.9-1.8-4.6-2.1c-2.7-0.4-5.5-0.1-8.1,0.7c-3.8,1-7.5,2.5-10.9,4.5
		C196.8,220.5,199.9,224.4,201.4,223.5z"></path><path class="st2" d="M60.5,263c0,0,8,79.5,71.8,74.2s60.9-71.9,60.9-71.9S136.4,239.6,60.5,263z"></path><path class="st0" d="M58.4,262.6c0.2,2.5,0.7,4.9,1.2,7.3c1.2,6.1,2.8,12.1,4.9,18c2.6,7.6,6.1,14.9,10.4,21.7
		c4.7,7.5,10.8,14.1,18,19.3c8,5.7,17.4,9.2,27.1,10.2c11.8,1.2,23.7-0.4,34.8-4.6c9-3.4,17-9.1,23.3-16.3
		c5.3-6.3,9.5-13.6,12.2-21.4c2.3-6.3,3.8-12.9,4.6-19.6c0.5-3.5,0.7-7.1,0.6-10.6c0-0.2,0-0.3,0-0.5c-0.1-1.3-0.8-2.4-2-2.8
		c-7.7-3.5-16.1-5.6-24.4-7.5c-20.6-4.5-41.8-5.9-62.9-4.1c-16,1.4-31.8,4.5-47.1,9.3c-1.2,0.4-0.8,2-0.3,2.8c0.6,1,1.9,1.5,3.1,1.2
		c25-7.8,51.2-10.9,77.3-9.3c9.4,0.6,18.7,1.9,27.9,3.8c3.6,0.7,7.1,1.6,10.7,2.6l1,0.3l0.6,0.2c-0.5-0.1,0.1,0,0.2,0.1l2.1,0.6
		c1.2,0.4,2.4,0.8,3.6,1.1c2.6,0.8,5.2,1.8,7.7,2.9l-2-2.8c0.1,2.4,0,4.8-0.2,7.2c-0.2,2.6-0.5,5.2-0.9,7.7c-0.5,3.1-1.2,6.2-2,9.2
		c-2,7.3-5.1,14.3-9.3,20.6c-4.9,7.4-11.5,13.5-19.3,17.8c-9.8,5.4-21.1,7.9-32.2,8.2c-5.1,0.1-10.2-0.4-15.2-1.5
		c-2.2-0.5-4.4-1.2-6.5-2c-1.1-0.4-2.1-0.9-3.1-1.3l-1.4-0.7l-0.7-0.4l0,0l-0.5-0.3c-1.9-1.1-3.8-2.2-5.6-3.5l-1.3-1l-0.6-0.5
		l-0.4-0.3c-0.8-0.7-1.6-1.4-2.4-2.1c-1.6-1.4-3-2.9-4.4-4.5c-0.3-0.4-0.7-0.8-1-1.2s0.2,0.2-0.2-0.2l-0.6-0.7
		c-0.7-0.8-1.3-1.6-1.9-2.5c-1.2-1.7-2.4-3.4-3.5-5.2c-0.5-0.9-1.1-1.7-1.6-2.6l-0.4-0.7c-0.1-0.1-0.3-0.6-0.1-0.2
		c-0.3-0.5-0.5-0.9-0.8-1.4c-1.8-3.4-3.5-7-4.9-10.6c-0.7-1.7-1.3-3.4-1.9-5.1c-0.3-0.8-0.6-1.6-0.8-2.5l-0.2-0.6
		c-0.2-0.5,0,0.1-0.1-0.2s-0.3-0.9-0.4-1.3c-0.8-2.8-1.6-5.7-2.2-8.6c-0.7-3.4-1.3-6.7-1.8-10.1c0-0.2,0-0.3,0-0.5
		C62.4,261.1,58,259.6,58.4,262.6z"></path><path class="st0" d="M62.4,266.1c1.3,2.3,3.8,3.9,6,5.2c7,4.2,15.3,6.4,23.2,8.1c15.4,3.5,31.1,5,46.8,4.6c12-0.3,24-2.3,35.5-5.9
		c3.5-1.1,6.9-2.4,10.2-3.9c1.5-0.6,3-1.3,4.4-2.2l0.2-0.1c2.3-1.4-1-5.1-3.1-3.9c-0.9,0.5-1.9,1-2.8,1.5c-2.6,1.2-5.2,2.3-7.9,3.3
		c-10.2,3.5-20.7,5.7-31.5,6.5c-15.4,1.2-31.1-0.2-46.3-3c-5.4-1-10.8-2.3-16.1-3.9c-1-0.3-2-0.7-3-1l-1.3-0.5l-0.6-0.2l-0.5-0.2
		l-0.4-0.2l-0.5-0.2l-1.1-0.5c-0.7-0.3-1.3-0.6-2-1c-1-0.5-2-1.1-2.9-1.7c-0.4-0.3,0.6,0.4-0.1-0.1l-0.5-0.4
		c-0.3-0.2-0.6-0.4-0.8-0.7s-0.4-0.4-0.7-0.6c-0.4-0.4,0.4,0.5,0.2,0.2c-0.1-0.1-0.1-0.1-0.2-0.2s-0.3-0.5-0.4-0.6s0.4,0.7,0.3,0.4
		c-0.6-1.1-1.8-1.8-3.1-1.7c-0.9,0.2-1.5,1.2-1.2,2.1C62.2,265.7,62.3,265.9,62.4,266.1L62.4,266.1z"></path><path class="st0" d="M142.9,334.3l-1.7-1.1l-1.7-1c0.6-1.3,1-2.7,1.3-4.1l3.9,0.9C144.4,330.8,143.8,332.6,142.9,334.3z
		 M145.6,323.8l-4-0.6c0.2-1.5,0.4-3.1,0.6-4.9l4,0.4C146.1,320.6,145.9,322.3,145.6,323.8z M146.6,313.7l-4-0.3
		c0.1-1.5,0.2-3.2,0.3-5l4,0.2C146.9,310.5,146.8,312.2,146.6,313.7L146.6,313.7z M147.1,303.7l-4-0.1c0-1.6,0.1-3.2,0.1-5h4
		C147.2,300.4,147.2,302.1,147.1,303.7L147.1,303.7z M143.2,293.7c0-1.6,0-3.2-0.1-5l4-0.1c0,1.7,0.1,3.4,0.1,5L143.2,293.7z"></path><path class="st0" d="M79.9,224.9c0,0-13.9,7.1-11.4,10.2s8.3,7.1,8.3,7.1s-13.6,4.3-9,6.8s11.4,6.5,11.4,6.5s-11.1,6.2-9,9.3
		s68.7,17.3,112.6-0.9c0,0,0-4.3-4.9-9.3c0,0,7.7-1.5,6.8-3.7s-6.5-9.3-6.5-9.3s10.5-0.6,8.7-5.3s-7.4-11.8-7.4-11.8L79.9,224.9z"></path><path class="st0" d="M78.2,223.1c-3,1.5-5.8,3.2-8.4,5.2c-1.4,1.1-3.2,2.5-3.8,4.4c-0.7,2.5,2,4.6,3.6,6c2,1.7,4,3.4,6.2,4.9
		l-0.3-3.3c-3.1,0.9-6,2.1-8.7,3.8c-1.4,1-2.7,2.3-2,4.1c0.6,1.4,1.9,2.1,3.2,2.8c1.4,0.8,2.9,1.6,4.3,2.4c1.5,0.8,2.9,1.7,4.4,2.5
		l0.8,0.5l0.2,0.1l0.5,0.3l-0.7-3.1c-3.4,1.9-14.3,8.5-7.8,12.8c1.7,1,3.6,1.7,5.6,2.1c2.9,0.8,5.9,1.5,8.8,2
		c20.3,4,41,5.2,61.7,3.6c13.1-1.1,26.2-3.5,38.3-8.5c0.6-0.1,1.1-0.7,1-1.4c0-4-3.1-8.1-5.7-10.8l-0.2,2.9c2.6-0.5,9.2-1.9,7.6-5.7
		c-1-2.1-2.2-4-3.7-5.7c-1-1.3-2-2.6-3-3.9l-1.1,2.5c3.5-0.2,11.3-1.2,10.3-6.3c-0.5-1.9-1.4-3.7-2.5-5.3c-1-1.6-2-3.2-3.1-4.7
		s-2.7-4.6-5-4.7c-1.6-0.1-3.1,0-4.7,0h-11.1l-32.7,0.1l-33.3,0.1c-5.8,0-11.7-0.1-17.5,0.1h-0.3c-0.8-0.1-1.4,0.5-1.5,1.2
		c0,0.2,0,0.5,0.1,0.7c0.5,1.2,1.6,2,2.9,2.1h9.9l23.8-0.1l28.7-0.1l25-0.1h8.2c1.3,0,2.6,0.1,3.9,0h0.2l-2.6-1.6
		c1.1,1.5,2.2,3,3.3,4.5c0.9,1.4,1.8,2.8,2.6,4.2c0.3,0.6,0.6,1.1,0.9,1.7c0.2,0.3,0.3,0.7,0.4,1c-0.1-0.4,0,0.4,0,0.2
		c0,0.3-0.1,0.5-0.3,0.7c-0.2,0.3-0.5,0.5-0.8,0.6c-0.8,0.5-1.7,0.8-2.6,1c-0.9,0.2-1.8,0.4-2.8,0.5l-0.6,0.1c-0.4,0.1,0.4,0,0.1,0
		h-0.4c-0.8-0.1-1.5,0.5-1.5,1.3c0,0.4,0.1,0.8,0.4,1.1c2.2,2.7,4.2,5.5,6,8.4c0.1,0.2,0.2,0.3,0.3,0.5c-0.2-0.2-0.1-0.1-0.1-0.4
		c0-0.1,0-0.3,0.1-0.3s-0.4,0.4-0.1,0.1c-0.6,0.4-1.3,0.8-2,1.1c-1.3,0.5-2.6,0.8-3.9,1.1c-1.5,0.3-1,2.1-0.2,2.9
		c1.6,1.6,2.9,3.5,3.7,5.6c0.1,0.3,0.2,0.7,0.3,1.1c-0.1-0.3,0,0.2,0.1,0.4c0,0.2,0.1,0.5,0.1,0.7l1-1.4
		c-20.5,8.5-43.6,9.9-65.5,8.8c-9.2-0.4-18.3-1.4-27.4-2.9c-3.4-0.6-6.8-1.2-10.1-2c-1.2-0.3-2.4-0.6-3.7-0.9
		c-0.5-0.1-1-0.3-1.5-0.5l-0.6-0.2l-0.3-0.1c-0.4-0.1,0.6,0.2,0.1,0c-0.3-0.1-0.7-0.3-1-0.4c-0.1-0.1-0.2-0.1-0.4-0.2
		c-0.4-0.1,0.7,0.5,0.2,0.1s0.6,0.6,0.3,0.3c0.9,1-0.2,0.1,0.4,0.6c0.1,0.3,0.1,0.3,0,0.1s0-0.2,0,0c0.2-0.6,0.6-1.2,1-1.7
		c2.3-2.3,4.9-4.2,7.8-5.6c1.3-0.7,0.1-2.6-0.7-3.1c-2.2-1.3-4.4-2.6-6.7-3.9c-1.6-0.9-3.2-1.8-4.8-2.6l-0.6-0.3
		c0.3,0.2,0.4,0.2,0.2,0.1c0.3,0.3,0.6,0.7,0.7,1.2c0,0-0.2,0.2,0,0c-0.3,0.3,0,0,0.1-0.1s0.5-0.5,0.2-0.2c0.2-0.2,0.3-0.3,0.5-0.4
		c0.4-0.3,0.9-0.6,1.3-0.8c1-0.5,2-1,3-1.4c1.1-0.4,2.5-1,3.8-1.4c1.8-0.6,0.8-2.6-0.3-3.3c-1.5-1-2.9-2.1-4.3-3.2
		c-1-0.8-1.9-1.7-2.8-2.6c0-0.1-0.6-0.6-0.6-0.7s0.4,0.7,0.2,0.4c0.1,0.4-0.1,0.5,0.1,0c0-0.1-0.1,0.2,0.1-0.1s0.2-0.3,0.3-0.4
		c0.2-0.3,0.5-0.6,0.8-0.9c0.6-0.6,1.3-1.2,2-1.7c1.6-1.2,3.3-2.3,5-3.2c1-0.6,2-1.2,3.1-1.7C83.7,225.6,80.1,222.1,78.2,223.1z"></path><path class="st2" d="M88,245.6c8.7,0.4,17.3,0.6,26,0.8c16,0.3,32,0.4,47.9-0.6c6.6-0.4,13.4-0.9,19.7-2.7c0.4-0.1-1.2-2-1.4-2.2
		c-0.4-0.4-1.4-1.6-2.1-1.4c-5.6,1.6-11.5,2-17.2,2.5c-7.8,0.6-15.7,0.8-23.5,0.9c-14.4,0.2-28.9-0.1-43.3-0.6
		c-3.1-0.1-6.1-0.2-9.2-0.4c-0.7,0,0.7,1.6,0.8,1.7C86.1,244.2,87.2,245.5,88,245.6L88,245.6z"></path><path class="st2" d="M90.9,259.8c7.2,0.8,14.5,1.3,21.7,1.7c14.7,0.9,29.4,0.8,44-0.5c7.7-0.6,15.3-2.1,22.7-4.4
		c0.9-0.3-1.3-4.7-2.7-4.2c-6.5,2-13.2,3.4-20,4c-7.5,0.8-15.1,1.3-22.6,1.3c-12.6,0.1-25.2-0.5-37.8-1.5c-2.5-0.2-5-0.4-7.6-0.7
		c-1-0.1-0.1,1.8,0,2.1C89.1,258.4,89.9,259.7,90.9,259.8L90.9,259.8z"></path><path class="st2" d="M299.1,141l6.7-4.9c16.5-13.9,23.4-26.4,11.2-35.6c-11.3-8.6-28.3,17.7-28.3,17.7c7.5-7.9,21.3-33.8,3.4-40.1
		c-4.9-1.7-15.4,0.3-25.9,24.2c-5.3,11.6-11.7,22.7-19,33.1c3.1-15.3,0.9-36-10.9-34.8c-17.5,1.8-19.6,27.6-18,59.1
		c0.5,11,2.9,21.7,7.3,31.8c4.3,9.9,12.9,17.2,23.3,20l0,0c17.1,4.5,30.8-1.7,46.1-19.7c0,0,42.5-44.3,32.3-57.8
		C319.5,123.5,299.1,141,299.1,141"></path><path class="st0" d="M301.4,141.7l5.6-4.2c3.3-2.5,6.3-5.2,9.1-8.3c5-5.2,11.4-13,9-20.8c-2.1-6.6-9.5-11.2-16.3-10.4
		c-5.7,0.7-10.6,5.2-14.4,9.2c-3,3.2-5.7,6.6-8.1,10.3c-0.1,0.2,4.1,2,4.9,1.2c2.4-2.7,4.6-5.7,6.3-8.9c2.2-3.7,3.9-7.7,5-11.9
		c1-3.7,1.4-7.8,0.2-11.6c-1.3-3.7-4.2-6.6-7.9-7.9c-2.8-1.3-5.9-1.8-9-1.5c-2.8,0.5-5.5,1.7-7.7,3.6c-9.2,7.3-13,19.2-18.2,29.3
		c-4.4,8.7-9.4,17-15.1,24.9l4.9,1.2c1.4-6.7,1.6-13.5,0.8-20.3c-0.7-4.9-2.3-10.9-6.8-13.7c-4.8-2.8-10.7-2.9-15.6-0.2
		c-4.2,2.4-6.9,6.6-8.6,11c-2.3,5.9-3.1,12.4-3.6,18.7c-0.5,8.1-0.5,16.2-0.1,24.3c0.3,8.6,1.6,17.2,3.9,25.5
		c2,6.8,4.7,13.5,9.4,18.9c5.2,5.7,11.9,9.7,19.4,11.6c6.6,1.8,13.5,2.5,20.3,1s12.9-5.2,18.1-9.7c4.1-3.5,7.5-7.5,11.2-11.4
		c4.8-5.1,9.4-10.4,13.8-15.9c6.2-7.8,12.4-16,16.6-25.1c2.9-6.3,5.6-15.7-2.6-19.3c-5.3-2.3-10.8-1.7-15.9,0.6
		c-4.1,1.9-7.9,4.2-11.4,7c-0.6,0.5-1.3,1-1.9,1.5c-0.2,0.2,2.1,1,2.3,1c0.6,0.1,2,0.6,2.5,0.2c2-1.7,4.1-3.2,6.3-4.6
		c3.8-2.5,8.2-4.9,12.8-5.6c0.5-0.1,1.1-0.1,1.6-0.1h0.5c0.1,0,0.4,0.1,0.2,0c-0.2-0.1-0.3-0.1-0.5-0.1c0.2,0,0.2,0.1,0.1,0
		s-0.2-0.1,0,0c0.4,0.3,0.9,0.6,1.3,0.9c1.2,1,2,2.4,2.4,3.9c0.8,3.1,0,6.6-1.1,9.5c-3,8.7-8.6,16.5-14.1,23.8
		c-4.9,6.4-10.1,12.6-15.5,18.6c-6.1,6.7-12,13.6-19.7,18.4c-5.3,3.4-11.3,5.4-17.6,5.7c-6.1,0.2-12.2-1.4-17.3-4.7
		c-12.2-7.9-16.9-22.7-19.1-36.4c-1.2-8.3-1.7-16.6-1.6-24.9c-0.1-7.1,0.3-14.1,1.2-21.1c1.4-9,4.6-20.7,14.7-23.2
		c0.5-0.1,1-0.2,1.6-0.3c0.5,0,1.1,0,1.6-0.1c0.2-0.1-0.2,0-0.3-0.1s-0.5-0.2-0.4-0.1c0.2,0.3,0.8,0.5,1.1,0.7
		c1.8,1.5,3.1,3.5,3.9,5.7c2.2,5.6,2.5,12,2.2,17.9c-0.2,3.1-0.6,6.3-1.2,9.3c-0.1,0.6,4.4,1.8,4.9,1.2c4.3-6,8.3-12.3,11.8-18.8
		c3.3-5.9,6-12.1,9-18.1c2.3-5,5.3-9.6,8.8-13.7c2.1-2.6,4.8-4.6,7.9-6c1-0.4,2-0.7,3.1-0.8c0.2,0,0.4,0,0.7-0.1h0.5h0.2
		c0.4,0-0.5-0.1,0,0c0.2,0,0.6,0.1-0.1,0l-0.2-0.1l-0.4-0.1c0.4,0.2,0.8,0.3,1.1,0.5c2.5,1.2,4.4,3.2,5.5,5.8
		c1.4,3.4,1.2,7.3,0.5,10.8c-1,4.5-2.7,8.7-5,12.7c-1.8,3.5-4.1,6.7-6.7,9.6l4.9,1.2c1.8-2.7,3.7-5.3,5.8-7.7
		c3.5-4.2,7.7-8.5,12.9-10.6c1.1-0.5,2.3-0.8,3.5-0.9h0.6c0.4,0,0.3,0,0.5,0c-0.3-0.1-0.6-0.2-1-0.2c0,0,0.4,0.2,0.5,0.3
		c2.9,1.7,5.2,4.5,6.3,7.7c2.2,7.1-3,14.2-7.4,19.2c-3.1,3.6-6.5,6.8-10.2,9.6l-5.9,4.3c-0.5,0.4,1.4,0.9,1.6,1
		C298.9,141.5,300.8,142.2,301.4,141.7L301.4,141.7z"></path><path class="st0" d="M218.9,131.7c4.8,1.7,9.7,2.8,14.8,3.3c5.7,0.5,11.4-1.3,15.8-5c0.8-0.7-1.1-1.4-1.5-1.5
		c-0.9-0.2-2.4-0.6-3.1,0.1c-3.5,3.1-8.1,4.7-12.7,4.3c-3.9-0.5-7.8-1.4-11.5-2.7c-0.7-0.2-2.6-0.6-3.1,0.1S218.5,131.5,218.9,131.7
		L218.9,131.7z"></path><path class="st0" d="M288.4,118.5c2,7.7,7,14.3,14,18.3c0.9,0.5,2.4,1,3.1-0.1s-0.1-2.4-1-2.9c-0.7-0.4-1.5-0.9-2.2-1.3
		c-0.4-0.3-0.8-0.6-1.1-0.8l-0.5-0.4c-0.4-0.3,0,0-0.2-0.1c-0.6-0.6-1.3-1.2-1.9-1.8c-0.3-0.3-0.6-0.7-1-1l-0.3-0.4l-0.2-0.3
		c-2.1-2.7-3.6-5.8-4.4-9.1C292.2,116.1,287.6,115.6,288.4,118.5L288.4,118.5z"></path><path class="st0" d="M272.6,145.8c3.9-3.8,7.3-8.1,10.3-12.6c3.1-4.5,5.9-9.3,8.5-14.1c0.8-1.4-3.9-3-4.8-1.3
		c-2.5,4.8-5.3,9.4-8.4,13.9c-2.9,4.4-6.2,8.5-10,12.3C266.8,145.2,271.3,147.1,272.6,145.8L272.6,145.8z"></path><path class="st0" d="M285.1,157.4c7.4-5.5,13.1-12.7,19.6-19.1c0.8-0.8-0.7-1.9-1.3-2.1c-1.1-0.5-2.3-0.4-3.2,0.4
		c-6.3,6.2-11.8,13.2-19,18.5c-0.9,0.7-0.3,1.7,0.5,2.1S284.2,158.1,285.1,157.4L285.1,157.4z"></path><path class="st0" d="M248.1,136.5C248.7,136.9,247.6,136.1,248.1,136.5l0.6,0.4c0.2,0.1,0.5,0.5-0.1-0.1c0.1,0.1,0.3,0.3,0.5,0.4
		l0.4,0.4c0.1,0.1,0.6,0.5,0.3,0.2s0.2,0.2,0.3,0.3l0.6,0.6c0.1,0.1,0.6,0.7,0.2,0.2l0.6,0.6c0.4,0.4,0.9,1,1.2,1.3
		c4.1,5.1,6.9,11.2,8,17.7c0.8,5.1,0.8,10.4-0.1,15.5c-0.1,0.7,1.6,1.9,2.1,2.3c0.3,0.2,1.7,1.3,1.8,0.6c1.6-8.9,0.5-18-3.3-26.2
		c-2.6-5.4-6.4-10.2-10.9-14.1c-1-0.9-2.2-1.8-3.3-2.6c-0.5-0.3-1.4-0.9-1.2,0S247.4,136.1,248.1,136.5L248.1,136.5z"></path><path class="st0" d="M266.8,100.1c4.7,8.4,12.2,15.5,22.1,16.6c1.1,0.1,2.5-0.4,2.6-1.7s-1.3-2-2.3-2.1c-8.2-0.9-14.1-7.5-18-14.3
		C270.1,96.5,265.4,97.5,266.8,100.1L266.8,100.1z"></path><path class="st0" d="M299.7,141.2c0.4,2.6,1.2,5.2,2.4,7.6c0.9,2.3,2.1,4.5,3.5,6.6c2.9,4.2,7.3,7.4,12.5,7.8
		c0.9,0.1,2.3-0.4,2.2-1.6s-1.7-1.8-2.7-1.9c-3.4-0.3-6.3-3.2-8.1-6.1c-1.1-1.8-2-3.7-2.8-5.6c-1-2.1-1.7-4.3-2-6.6
		C304.4,139.4,299.5,138.7,299.7,141.2L299.7,141.2z"></path><path class="st2" d="M29.8,185.1c0,0-8.8,8.1-10.4,15.4s14.3,29.4,20.8,31.1s10.2-8.5,6.2-18.5S29.8,185.1,29.8,185.1z"></path><path class="st0" d="M27.8,183.6c-2.4,2.2-4.5,4.7-6.4,7.3c-2.5,3.4-5,7.5-4.4,11.8c0.5,3.5,2.2,6.9,3.9,9.9
		c2.2,3.9,4.7,7.6,7.5,11.1c3.8,4.7,11.7,14,18.4,8.3c3.9-3.3,4.1-9.7,3.3-14.3s-3.3-9.2-5.6-13.4c-3.8-6.8-8-13.3-12.5-19.7
		c-0.7-1.1-1.9-1.7-3.2-1.5c-0.8,0.1-1.4,0.9-1.3,1.7c0,0.2,0.1,0.4,0.2,0.6c3.4,4.8,6.6,9.7,9.6,14.7c2.3,3.7,4.4,7.5,6.2,11.4
		c1.9,4.1,3,9.4,1.5,13.9c-0.5,1.6-1.4,3.4-3,4.1c-0.4,0.2-0.9,0.3-1.4,0.2l-0.5-0.1c0.1,0,0.6,0.3,0.2,0.1s-0.5-0.3-0.8-0.4
		c0.7,0.3-0.1-0.1-0.3-0.2l-0.8-0.6c-0.3-0.2-0.5-0.4-0.8-0.6l-0.3-0.3c-0.2-0.2-0.2-0.2,0,0l-0.3-0.3c-1.3-1.2-2.5-2.5-3.6-3.8
		c-2.6-3-4.9-6.2-6.9-9.5c-1.9-2.9-3.4-6-4.5-9.4c-0.2-0.7-0.4-1.4-0.4-2.1c0,0.4,0-0.5,0-0.6c0-0.3,0.1-0.6,0.1-0.9
		c0.7-2.4,1.8-4.7,3.3-6.8c1.9-2.8,4.2-5.4,6.7-7.8C33.6,184.8,29.5,182.1,27.8,183.6z"></path><path class="st2" d="M55,276.4c-1.6,0.5-6.4,8.8-21,0.5s-2.6-20.4,8-15.4C48.2,264.5,53,269.9,55,276.4z"></path><path class="st0" d="M53.5,274.5c-0.9,0.5-1.7,1.1-2.5,1.9c-0.5,0.4-1.1,0.8-1.7,1.1c-0.8,0.4-1.7,0.7-2.6,0.9
		c-2.5,0.4-5.1,0.2-7.4-0.7c-1.8-0.6-3.6-1.4-5.2-2.4c-0.7-0.4-1.4-0.8-2.1-1.3c-0.1-0.1-0.4-0.3-0.6-0.5s-0.3-0.2-0.4-0.4
		s-0.4-0.5-0.2-0.2c-0.7-0.7-1.3-1.7-1.4-2.7c0,0.2,0-0.4,0-0.5c0-0.2,0-0.5,0-0.8c0-0.4,0.1-0.9,0.3-1.3c0.7-1.9,2.1-3.4,3.9-4.2
		c2.1-1,4.5-1.3,6.8-0.7c2.7,0.8,5.2,2.3,7.3,4.4c1,1,1.9,2,2.7,3.2l0.3,0.4c0.2,0.2-0.2-0.2,0.1,0.1l0.5,0.9c0.3,0.5,0.5,1,0.8,1.5
		c0.1,0.2,0.2,0.5,0.3,0.7s-0.1-0.4,0.1,0.2c0.1,0.3,0.3,0.7,0.4,1c0.1,0.3,0.2,0.6,0.3,0.9c0.4,1.2,1.4,2.1,2.6,2.4
		c1.1,0.2,1.6-0.4,1.4-1.5c-1-4-3.5-7.7-6.3-10.7c-4.5-4.9-11.6-9.3-18.5-7.3c-2.4,0.7-4.5,2.2-5.9,4.4c-1.3,2.4-1.4,5.3-0.2,7.7
		c1.7,3.7,5.2,6.2,8.7,8.1c3.4,2,7.2,3.1,11.2,3.4c2.6,0.1,5.1-0.5,7.3-1.9c0.8-0.5,1.5-1,2.2-1.6l0.7-0.5c0.1-0.1,0.2-0.1,0.3-0.2
		c-0.4,0.3-0.2,0.1,0,0C58.4,277.7,55.2,273.9,53.5,274.5z"></path><path class="st2" d="M67.9,224.6c0,0,20.2,25.5,1.7,45.7s-32.8-3.6-31.8-12.9s8.9-12.9,12.2-11.3C50,246.1,48.1,222.3,67.9,224.6z"></path><path class="st0" d="M65.8,225.4c2.7,3.5,4.8,7.3,6.3,11.4c3.2,8,4,16.9,0.4,24.8c-2.3,4.9-5.9,9-10.3,12c-1.6,1.1-3.4,1.9-5.3,2.3
		c-0.4,0.1-0.9,0.1-1.3,0.2h-0.5c0,0-0.8,0-0.4,0c-0.4,0-0.8,0-1.2-0.1l-0.6-0.1c-0.6-0.1,0,0-0.4-0.1l-1.1-0.4l-0.4-0.2
		c0,0-0.8-0.4-0.3-0.1c-0.8-0.4-1.5-0.8-2.3-1.4l-0.1-0.1c-0.2-0.1-0.4-0.3-0.6-0.5s-0.6-0.5-0.9-0.8c-0.6-0.5-1.1-1.1-1.6-1.7
		c-2-2.5-3.5-5.3-4.4-8.4c-0.4-1.3-0.6-2.6-0.6-4c0.1-2.2,0.7-4.4,1.9-6.2c1-1.6,2.4-2.9,4-3.8c0.4-0.1,0.9-0.3,1.3-0.3l0.4-0.1
		c-0.5,0.1,0.3,0,0.4,0h0.4c0.3,0-0.3-0.1,0.2,0c0.1,0,0.2,0,0.3,0c-1-0.1,0.5,0.3-0.4-0.1c1.1,0.5,3.8,0.7,3.7-1.3
		c-0.1-0.7-0.1-1.5,0-2.2s0-1.6,0.1-2.4c0-0.4,0.1-0.9,0.1-1.4c0-0.2,0.1-0.5,0.1-0.8c0-0.1,0.1-0.4,0,0c0-0.1,0-0.3,0.1-0.4
		c0.4-2.2,1.1-4.4,2-6.4c0-0.1,0.2-0.4,0-0.1c0.1-0.1,0.1-0.2,0.2-0.3l0.4-0.7c0.3-0.5,0.7-1,1.1-1.5c0.7-0.8,1.5-1.6,2.4-2.1
		c2.7-1.5,5.8-2,8.8-1.6c1.1,0.1,2.4-0.5,2.4-1.7c-0.2-1.2-1.2-2.2-2.5-2.3c-6.4-0.7-12.9,1-16.6,6.7c-2.6,4-3.6,8.8-3.8,13.5
		c-0.1,1-0.1,2.1,0,3.1l3.7-1.3c-3.7-1.8-8-0.4-11,2.3c-3.4,3.1-5.2,7.5-5,12.1c0.8,7.6,5.1,14.5,11.5,18.6c3.6,2.3,7.9,3.1,12,2.3
		c5.7-1.2,10.4-5.2,14-9.5c6.9-8.3,8.4-19,5.7-29.3c-1.6-6.2-4.5-12-8.4-17.1c-0.8-1.1-2.1-1.5-3.3-1.1c-0.9,0.3-1.4,1.3-1.1,2.2
		C65.6,225.1,65.7,225.2,65.8,225.4z"></path><path class="st0" d="M49.2,244.6c0.8,6,3.3,11.8,7,16.5c0,0.1,0.4,0.6,0.6,0.5s0-0.7,0-0.8c-0.3-1.2-0.8-2.2-1.5-3.2
		c-0.6-0.8-1.2-1.6-1.7-2.4c-0.4-0.6,0.2,0.4-0.1-0.2c0-0.1-0.5-0.9-0.2-0.4c-0.1-0.2-0.2-0.4-0.3-0.6l-0.2-0.4c0.1,0.3,0.1,0.3,0,0
		s-0.1-0.3-0.2-0.4s-0.1-0.3,0-0.1s0,0.1,0-0.1s-0.1-0.3-0.1-0.4c-0.1-0.4-0.3-0.8-0.4-1.2c-0.3-1-0.5-2-0.6-3
		c-0.2-1.1-0.7-2.2-1.3-3.2C50.1,244.9,49.1,243.6,49.2,244.6L49.2,244.6z"></path><path class="st2" d="M65.1,228.3c0,0,104.1,10.1,129.1-2.6c0,0,4-153.1-50.5-163C47.3,45.1,58.7,168.9,65.1,228.3z"></path><path class="st0" d="M66.6,229.4c3.5,0.3,7.1,0.6,10.6,0.9c8.8,0.7,17.7,1.3,26.5,1.8c11.2,0.6,22.4,1,33.6,1.1
		c11,0.1,22-0.1,32.9-1c8.1-0.7,16.6-1.5,24.2-4.6c0.7-0.3,1.3-0.6,1.9-0.9l0.2-0.1c0.1-5,0.1-10,0-15.1
		c-0.2-12.1-0.8-24.3-1.8-36.4c-1.2-15.2-3.3-30.3-6.3-45.2c-2.9-14-6.9-28.1-13.5-40.9c-5.5-10.7-13.4-20.5-24.7-25.2
		c-7.2-3-15.4-3.8-23.1-4c-7.6-0.4-15.3,0.6-22.6,2.8c-12.7,4-22.9,12.8-29.8,24.1c-7.4,12.2-11.2,26.4-13.4,40.4
		c-2.4,15.6-2.9,31.5-2.5,47.3c0.4,14.7,1.5,29.3,3,43.9c0.3,3,0.6,6.1,1,9.1c0.1,0.8,2,1.4,2.6,1.7c0.4,0.1,2,0.7,1.9-0.1
		c-1-8.7-1.8-17.5-2.5-26.2c-0.8-10-1.4-20.1-1.5-30.1c-0.2-10.4,0.1-20.9,1-31.3c0.8-10,2.6-19.8,5.1-29.4
		c2.3-8.8,5.9-17.2,10.7-24.8C84.8,80,91,74,98.2,69.6c8.1-4.6,17.2-7.1,26.6-7.4c5.7-0.2,11.4,0.1,17,1c0.7,0.1,1.4,0.2,2.1,0.3
		l1.2,0.2l0.3,0.1c-0.2,0-0.2,0,0,0c0.4,0.1,0.8,0.2,1.2,0.3l0.6,0.2l0.2,0.1c0.5,0.2-0.3-0.1,0,0s0.8,0.2,1.2,0.4l0.6,0.2
		c-0.5-0.2-0.1,0,0.1,0.1l1.1,0.5c0.6,0.3-0.3-0.2,0.1,0l0.7,0.3c0.4,0.2,0.7,0.4,1.1,0.6c-0.4-0.2-0.1,0,0.1,0.1l0.6,0.4l1.1,0.7
		l0.2,0.1l0.6,0.4c1.4,1,2.7,2.1,3.9,3.3c2.7,2.7,5.1,5.6,7.1,8.8c4.7,7.4,8.4,15.4,11.1,23.8c3.1,9.3,5.6,18.9,7.4,28.6
		c1.9,9.9,3.3,19.9,4.4,30c1,9.1,1.7,18.3,2.2,27.5c0.4,7.1,0.6,14.3,0.7,21.4c0.1,3.9,0.1,7.9,0,11.8c0,0.3,0,0.7,0,1
		c0,0.1,0,0.1,0,0.2s-1,0.4-1.2,0.5c-3.3,1.3-6.7,2.3-10.2,2.9c-9.6,1.9-19.6,2.4-29.4,2.6c-11.5,0.3-23,0.2-34.4-0.2
		c-10.3-0.4-20.6-0.9-30.9-1.6c-6.4-0.4-12.9-0.9-19.3-1.5l-2.7-0.2c-0.9-0.1-1.1,0.3-0.4,0.9C64.3,228.8,65.4,229.3,66.6,229.4z"></path><path class="st0" d="M66.8,203.4c3,0.4,5.9,0.8,8.9,1.2c7.6,0.9,15.3,1.6,22.9,2.2c10.2,0.7,20.5,1.1,30.8,1.1
		c11.1,0,22.3-0.7,33.3-2.1c10-1.3,20-3.4,29.3-7.3c1-0.4,2-0.9,3.1-1.4c2.9-1.3-0.3-4.8-2.7-3.7c-8.8,4.1-18.1,6.3-27.7,7.8
		c-10.7,1.6-21.4,2.4-32.2,2.5c-10.4,0.1-20.8-0.2-31.1-0.8c-8-0.5-15.9-1.2-23.8-2.1c-3.6-0.4-7.3-1.1-10.9-1.4h-0.2
		c-1.1-0.2-2.1,0.6-2.3,1.6c0,0.1,0,0.2,0,0.3C64.3,202.6,65.6,203.2,66.8,203.4L66.8,203.4z"></path><circle class="st0" cx="92.4" cy="215.4" r="3.4"></circle><path class="st0" d="M94.6,215.3c0,0.3-0.1,0.6-0.1,0.9c0.1-0.3,0,0,0,0.1s0,0.1-0.1,0.2l-0.1,0.2c0,0.1-0.2,0.3,0,0.1
		c-0.1,0.1-0.2,0.2-0.3,0.4s-0.2,0.2-0.1,0.1s-0.1,0.1-0.1,0.1l-0.4,0.2c-0.2,0.1,0.2,0,0,0c-0.1,0-0.2,0.1-0.3,0.1l-0.2,0.1h0.1H93
		c-0.1,0-0.3,0.1-0.5,0.1c0,0,0.3,0,0,0h-0.3h-0.2c0.3,0,0,0-0.1,0l-0.2-0.1c0,0-0.3-0.1-0.1,0s-0.1-0.1-0.1-0.1
		c-0.1,0-0.1-0.1-0.2-0.1c-0.1,0-0.4-0.3-0.2-0.1c-0.1-0.1-0.3-0.3-0.4-0.4c-0.1-0.1-0.1-0.1-0.2-0.2c0,0,0.1,0.2,0,0l-0.2-0.4
		c0-0.1-0.1-0.2-0.1-0.3c0,0,0.1,0.2,0,0c0-0.2-0.1-0.4-0.1-0.6c0,0,0-0.3,0-0.1s0-0.1,0-0.1c0-0.2,0-0.3,0.1-0.5c0-0.1,0-0.1,0-0.2
		c-0.1,0.2,0,0,0-0.1c0.1-0.2,0.2-0.3,0.2-0.5c0-0.1,0.1-0.1,0,0c0-0.1,0.1-0.1,0.2-0.2s0.4-0.4,0.2-0.2l0.3-0.2l0.2-0.1
		c0.2-0.1-0.2,0.1,0,0s0.3-0.2,0.4-0.2h-0.2h0.2H92c0.1,0,0.2,0,0.3,0c-0.2-0.1-0.1,0,0,0h0.3c0,0,0.4,0.1,0.1,0
		c0.2,0,0.4,0.1,0.5,0.2c0.2,0.1,0,0,0,0l0.3,0.2c0.1,0,0.1,0.1,0.1,0.1l0.2,0.1c-0.1-0.1-0.1-0.1-0.1,0s0.2,0.2,0.3,0.4l0.2,0.2
		c-0.2-0.2,0,0,0,0.1c0.1,0.2,0.2,0.3,0.2,0.5c0.1,0.2,0,0,0,0c0,0.1,0.1,0.2,0.1,0.4c0,0.2,0,0.4,0,0.6c0,0.6,0.9,1,1.4,0.9
		c0.6-0.1,1.1-0.6,1.1-1.3c-0.1-1.8-1.3-3.5-3-4.1c-1.9-0.6-4-0.1-5.2,1.4c-1.2,1.4-1.4,3.5-0.4,5.1c1,1.7,3,2.5,4.9,2.2
		c2.1-0.4,3.7-2.2,3.8-4.3c0-0.6-0.4-1.1-1-1.2c0,0,0,0,0,0C95.5,214.3,94.7,214.6,94.6,215.3z"></path><circle class="st2" cx="78.6" cy="215.3" r="3.8"></circle><path class="st0" d="M81.2,215.1c0,1.3-0.8,2.5-2,3h-0.1l-0.2,0.1l-0.2,0.1c-0.3,0.1,0.1,0-0.1,0h-0.3c-0.3,0,0.1,0-0.1,0h-0.3
		c-0.3,0,0.2,0.1-0.1,0l-0.3-0.1c0,0,0.2,0.1,0,0l-0.3-0.1c0,0,0.2,0.1,0,0l-0.2-0.1c0,0-0.2-0.2,0,0c-0.1-0.1-0.3-0.3-0.4-0.4
		c0.1,0.1,0,0,0-0.1s-0.1-0.2-0.2-0.2c-0.1-0.1-0.1-0.3-0.2-0.4c-0.1-0.3-0.2-0.6-0.2-0.9c0-0.7,0.1-1.3,0.5-1.9
		c0.3-0.5,0.8-1,1.4-1.2l0.2-0.1c0,0,0.3-0.1,0.1-0.1c0.1,0,0.3-0.1,0.4-0.1c0,0,0.3,0,0.1,0H79c0,0,0.3,0,0.1,0h0.3
		c0.3,0-0.2-0.1,0.1,0l0.3,0.1c-0.4-0.1,0.4,0.3,0.1,0.1l0.2,0.1c0,0,0.3,0.3,0.2,0.1c0.1,0.1,0.2,0.2,0.3,0.4
		c0.2,0.2-0.1-0.1,0.1,0.1c0.1,0.1,0.1,0.2,0.2,0.2s0.2,0.3,0.2,0.4C81.1,214.3,81.2,214.7,81.2,215.1c0,0.2,0.3,0.5,0.4,0.6
		c0.3,0.2,0.6,0.3,0.9,0.4c0.4,0,1.1,0,1.1-0.6c-0.1-4.2-6.2-6.4-9-3.2c-1.2,1.4-1.3,3.4-0.4,5c1.2,1.8,3.4,2.8,5.6,2.4
		c2.1-0.3,3.7-2.2,3.7-4.3c0-0.2-0.3-0.5-0.4-0.6c-0.3-0.2-0.6-0.3-0.9-0.4C81.8,214.5,81.2,214.6,81.2,215.1z"></path><path class="st0" d="M105.5,114.1c-4.1-1.2-6.9-5.4-6.7-10.1c0.3-7,5.5-17.1,9.4-18.6c5.8-2.3,48.7-6.9,56.1,0.8
		c6.5,6.7,10,15.8,9.7,25.1C173.6,117.3,123.7,119.3,105.5,114.1z"></path><path class="st0" d="M105.8,113.1c-3.7-1.1-4.9-6-4.6-9.4c0.5-4.1,1.9-8.1,4-11.6c1.2-2.1,2.9-4.9,5.4-5.7c1.6-0.4,3.2-0.8,4.8-1
		c5.3-0.9,11.3-1.4,16.9-1.8c6.3-0.5,12.7-0.5,19-0.1c2.6,0.1,5.1,0.5,7.6,1.1l0.5,0.1c-0.1,0-0.5-0.2-0.1,0l0.7,0.2l0.7,0.2
		c0.5,0.2-0.4-0.2-0.1,0l0.4,0.2c0.1,0,0.8,0.4,0.4,0.2s0.3,0.2,0.4,0.2c0.4,0.2-0.1-0.1,0.1,0.1s0.3,0.3,0.5,0.4
		c6,5.8,9.4,15,9.3,23.3c0,0.4,0,0.9-0.1,1.3c0,0.1-0.1,0.2-0.1,0.2c-0.1,0.2,0.1-0.1-0.1,0.1c-0.4,0.4-0.9,0.8-1.4,1
		c0.3-0.1-0.2,0.1-0.2,0.1l-0.5,0.2c-0.4,0.2-0.8,0.3-1.2,0.4c-1,0.3-2,0.6-3,0.8c-5.6,1.1-11.3,1.7-17,1.9
		c-6.9,0.4-13.9,0.4-20.9,0.2c-3.3-0.1-6.7-0.3-10-0.7c-2.8-0.2-5.6-0.6-8.3-1.2l-1.8-0.4l-0.8-0.2c-0.1,0-1.2-0.3-0.5-0.1
		c-0.6-0.2-2.4-0.7-2.7,0.2s1.5,1.6,2,1.8c6.2,1.6,12.6,2.6,19,2.8c7.6,0.5,15.2,0.6,22.8,0.3c6.6-0.2,13.2-0.8,19.7-1.8
		c2.2-0.4,4.4-0.9,6.5-1.7c1.1-0.4,2.8-1,3.2-2.3s0.2-2.8,0.1-4c-0.1-2.1-0.5-4.2-1-6.3c-1.2-4.6-3.3-8.9-6.1-12.7
		c-1.9-2.6-4-4.7-7-6c-2.7-1.1-5.6-1.8-8.5-2.1c-6.7-0.8-13.6-1-20.3-0.6c-6.4,0.3-12.8,0.8-19.1,1.8c-2.1,0.3-4.3,0.7-6.4,1.2
		c-2.2,0.6-4.1,1.9-5.4,3.8c-2.6,3.5-4.5,7.5-5.5,11.8c-1,4.2-0.8,8.6,2.3,12c1.6,1.8,3.6,3,5.9,3.7c0.6,0.2,2.4,0.7,2.7-0.2
		S106.3,113.3,105.8,113.1z"></path><path class="st0" d="M147.4,200l-4-0.1c0,0,0-1.9,0.1-5h4C147.4,198.1,147.4,200,147.4,200z M147.5,190h-4c0-1.5,0-3.2,0-5h4
		C147.6,186.7,147.5,188.4,147.5,190L147.5,190z M147.6,180h-4c0-1.6,0-3.3,0-5h4C147.6,176.6,147.6,178.3,147.6,180L147.6,180z
		 M147.6,170h-4v-0.1c0-1.6,0-3.2,0-4.9h4c0,1.6,0,3.3,0,4.9V170z M143.6,160c0-1.7,0-3.3,0-5h4c0,1.7,0,3.3,0,5H143.6z M143.5,150
		c0-1.7-0.1-3.4-0.1-5l4-0.1c0,1.6,0.1,3.3,0.1,5L143.5,150z M143.3,140c-0.1-1.7-0.1-3.4-0.2-5l4-0.1c0.1,1.6,0.1,3.3,0.2,5
		L143.3,140z M142.9,130.1v-0.7l4-0.2v0.7L142.9,130.1z"></path><path class="st2" d="M120.9,102.6c0-0.3,0-0.7,0-1c0-0.1,0-0.3,0.1-0.4c0.1-0.3-0.1,0.1,0.1-0.2c0.1-0.3,0.2-0.5,0.3-0.8l0.1-0.2
		l-0.1,0.1c0.1-0.1,0.2-0.2,0.3-0.3l0.1-0.2c0.2-0.2,0.1-0.1-0.1,0.1c0-0.1,0.2-0.2,0.3-0.3c0.4-0.3-0.4,0.3,0,0l0.2-0.2l-0.3,0.2
		l0.2-0.1l-0.3,0.1c0.1,0,0.6-0.2,0.2-0.1s0.2-0.1,0.3,0h-0.2h0.3c0.1,0,0.5,0,0.1,0l0.4,0.1c0.1,0,0.3,0.1,0.4,0.1l0.3,0.1
		c-0.1,0-0.1,0,0,0c0.5,0.3,1,0.6,1.5,1c0.8,0.8,1.3,1.8,1.4,2.9c0.1,1,1.6,0.8,2.2,0.5c0.6-0.2,1.2-0.6,1.7-1
		c0.3-0.3,0.7-0.7,0.7-1.2c-0.1-1.7-0.9-3.2-2.2-4.2c-1.4-1.1-3.2-1.6-5-1.3c-3.7,0.5-7.9,3.8-7.5,7.9c0.1,1,1.5,0.8,2.2,0.5
		c0.6-0.2,1.2-0.6,1.7-1C120.5,103.4,121,102.9,120.9,102.6L120.9,102.6z"></path><path class="st2" d="M152,102.9c0-0.2,0-0.3,0-0.5c0-0.1,0-0.1,0-0.2s0-0.2,0,0.1c-0.1-0.2,0.1-0.7,0.2-0.8s0.2-0.5,0-0.1
		c0.1-0.1,0.1-0.3,0.2-0.4c0.1-0.3,0.3-0.5,0.5-0.8c0.1-0.1,0.4-0.4,0.1-0.2l0.3-0.3c0.2-0.2,0.4-0.3,0.7-0.5
		c0.1-0.1,0.3-0.2,0.4-0.2s0.1,0-0.1,0l0.2-0.1c0.3-0.1,0.6-0.2,0.9-0.2c0.4-0.1-0.4,0,0.1,0h0.4l0.4,0.1c0.4,0-0.4-0.1,0.1,0
		L157,99l0.1,0.1c0.2,0.1,0.2,0.1-0.1-0.1c0.2,0.2,0.5,0.4,0.7,0.5c-0.3-0.2-0.4-0.3-0.2-0.1l0.1,0.1c0.1,0.1,0.5,0.5,0.2,0.2
		s0.1,0.1,0.1,0.2s0.2,0.6,0-0.1c0.1,0.1,0.1,0.2,0.2,0.4l0.1,0.2c0.1,0.2,0,0.1-0.1-0.2c0,0.1,0.1,0.3,0.1,0.4c0,0.2,0,0.2,0-0.2
		c0,0.1,0,0.2,0,0.3c0.1,1.3,0.8,2.4,2,2.9c0.7,0.3,1.5,0.1,1.9-0.6c0.1-0.2,0.2-0.5,0.1-0.8c-0.1-2.2-1.1-4.2-2.8-5.7
		c-1.4-1.4-3.2-2.1-5.1-2.2c-3.7,0.2-6.5,3.3-6.3,6.9c0,0.1,0,0.1,0,0.2c0.1,1.3,0.8,2.4,2,2.9c0.5,0.2,1,0.2,1.4-0.1
		C151.8,103.8,152,103.4,152,102.9L152,102.9z"></path><path class="st1" d="M287.5,63.5V48.9c0-0.8-1.7,0.1-2,0.2c-0.6,0.3-1.1,0.7-1.6,1.1c-0.2,0.2-0.7,0.6-0.7,1v14.6
		c0,0.8,1.7-0.1,2-0.2c0.6-0.3,1.1-0.7,1.6-1.1C287.1,64.2,287.6,63.8,287.5,63.5L287.5,63.5z"></path><path class="st1" d="M309.6,72.2c5.1-8.6,11.6-16.3,19.2-22.7c2.1-1.7-1.8-4.8-3.7-3.3c-7.9,6.6-14.6,14.6-19.9,23.5
		C303.9,71.9,308.3,74.4,309.6,72.2L309.6,72.2z"></path><path class="st1" d="M323.2,88.1l3.1-3.1c0.2-0.2-0.2-0.3-0.3-0.3c-0.2,0-0.4,0-0.7,0c-0.3,0-0.6,0.1-0.8,0.1
		c-0.6,0.1-1.3,0.3-1.9,0.5c-0.4,0.1-0.7,0.3-1,0.6l-3.1,3.1c-0.2,0.2,0.2,0.3,0.3,0.3c0.2,0,0.4,0,0.6,0c0.3,0,0.6-0.1,0.9-0.1
		c0.6-0.1,1.2-0.3,1.9-0.5C322.5,88.6,322.9,88.4,323.2,88.1L323.2,88.1z"></path><path class="st1" d="M325.3,101.8h15.6c1.2,0,2.4-0.6,3-1.7c0.4-1.1-0.6-1.7-1.6-1.7h-15.6c-1.2,0-2.4,0.6-3,1.7
		C323.3,101.2,324.4,101.8,325.3,101.8z"></path></g></svg>