<svg transform="scale(1)" version="1.1" id="vUuWxCCnf1" xmlns="http://www.w3.org/2000/svg" xmlns:xlink="http://www.w3.org/1999/xlink" x="0px" y="0px" viewBox="0 0 500 500" xml:space="preserve" class="pbimage_pbimage__wrapper__image__0LEis false"><title>Searching 1</title><style type="text/css"> .st0{fill:#FFFFFF;} .st1{fill:#000005;} .st2{fill:#59BE4C;}
 .st2{fill:#59BE4C;}
 .st1{fill:#000005;}
 .st0{fill:#FFFFFF;}</style><g id="character"><path class="st0" d="M261.4,328.5c0,0,23.6,75.2,57.5,72.3s121.3-66.5,121.3-66.5L418.6,283l-84.3,32.5L318.1,294L261.4,328.5z" fill="#FFFFFF"></path><path class="st1" d="M260.1,328.4c1,3.3,2.2,6.6,3.5,9.8c2.9,7.7,6.3,15.3,10,22.7c4.3,8.8,9.5,17.1,15.6,24.8
		c5.3,6.5,11.9,13,20,15.9c3.5,1.3,7.3,1.8,11.1,1.5c3.5-0.4,6.9-1.2,10.2-2.2c8.6-2.8,17-6.3,25-10.6c9.5-4.8,18.7-10,27.8-15.5
		c9-5.4,17.8-10.9,26.5-16.7c6.9-4.6,13.8-9.2,20.6-13.9c3.5-2.4,6.9-4.8,10.3-7.3l0.5-0.3c0.6-0.4,0.4-1.5,0.1-2.1l-7.3-17.4
		l-11.6-27.5l-2.7-6.4c-0.3-0.7-1.2-2.8-2.3-2.4l-8.4,3.2l-20.1,7.8l-24.4,9.4l-21.1,8.1l-7,2.7c-1.1,0.3-2.2,0.7-3.3,1.3
		c0,0-0.1,0-0.1,0.1l1.4,0.7l-14.1-18.9l-2-2.7c-0.2-0.3-0.9-1-1.4-0.7l-19.2,11.7L267.2,322l-7,4.3c-1.4,0.8,1,5.2,2.2,4.5
		l19.2-11.7l30.5-18.6l7-4.3l-1.4-0.7l14.2,18.9l2,2.7c0.3,0.4,0.9,0.9,1.4,0.7l8.4-3.2l20.1-7.8l24.4-9.4l21.1-8.1l6.9-2.7
		c1.1-0.4,2.2-0.8,3.3-1.3c0,0,0.1,0,0.1-0.1l-2.3-2.4l7.3,17.4l11.6,27.5l2.7,6.4l0.1-2.1c-2.3,1.7-4.6,3.3-7,5
		c-6,4.2-12,8.3-18.1,12.4c-8.3,5.5-16.6,10.9-25.1,16.2c-9.1,5.6-18.2,11-27.6,16c-8.4,4.6-17.1,8.7-26,12.3
		c-6.5,2.5-13.9,5.2-21,4.6c-7.9-0.6-14.7-5.5-20-10.8c-3-3.1-5.8-6.5-8.3-10.1c-1.4-2-2.7-4-3.9-6c-0.6-1-1.2-2-1.9-3.1
		c-0.3-0.5-0.6-1-0.8-1.4l-0.7-1.2c-2.2-4-4.3-8.1-6.2-12.2c-0.9-1.9-1.8-3.9-2.6-5.8c-0.2-0.4-0.4-0.9-0.5-1.3
		c-0.1-0.2-0.3-0.7-0.1-0.3l-0.3-0.8c-0.4-0.9-0.7-1.7-1.1-2.6c-1.8-4.5-3.5-9-5-13.5l-0.2-0.6c-0.2-0.8-1.1-2.4-2-2.4
		S260,327.9,260.1,328.4z" fill="#000005"></path><path class="st2" d="M384.9,222.9c0,0,31.1,133.5,54.4,137.2s17.5-12.3,7.1-37.4s-48.5-104.1-48.5-104.1L384.9,222.9z" fill="#59BE4C"></path><path class="st2" d="M382.5,222.5c0.9,4.1,2,8.1,3,12.1c2.5,9.9,5.1,19.8,7.9,29.7c3.5,12.5,7.3,24.9,11.4,37.2
		c3.8,11.7,8.2,23.1,13.3,34.3c2,4.4,4.3,8.8,6.9,12.9c1.9,3.1,4.2,6,6.8,8.4c3.5,3,7.7,3.5,12.2,3.9c4.7,0.4,11.5,0.3,13.4-5.1
		c0.7-2.4,0.8-5,0.2-7.5c-0.6-3.4-1.5-6.8-2.8-10.1c-2.4-6.8-5.2-13.5-8.1-20.2c-5.2-11.9-10.7-23.7-16.2-35.5
		c-6.1-13.1-12.3-26.2-18.5-39.2c-3.7-7.8-7.5-15.7-11.2-23.5l-0.5-1.1c-0.2-0.5-1.7-0.6-2.1-0.7c-0.9-0.2-1.8-0.3-2.8-0.1
		l-12.9,4.3c-0.4,0.1,1.6,0.7,1.7,0.7c1,0.3,2.1,0.4,3.1,0.2l12.9-4.3l-4.8-0.8c2.6,5.4,5.2,10.9,7.8,16.4
		c5.8,12.2,11.6,24.3,17.3,36.5c5.9,12.5,11.7,25.1,17.4,37.7c2.1,4.6,4.1,9.3,6.1,14c3.1,7.5,6.5,15.2,8.3,23.1
		c0.9,4.2,1.7,10.3-2.7,12.9c-2.3,1.2-4.9,1.6-7.5,1.3c-0.7,0-1.5-0.1-2.1-0.2c0,0-1.1-0.2-0.4-0.1c0.9,0.2-0.8-0.2,0.6,0.1
		c-0.5-0.1,0.5,0.1,0,0c-0.3,0-0.2-0.1-0.1,0l-0.4-0.1l-0.7-0.4c-2.6-1.7-4.9-3.9-6.6-6.4c-2.6-3.6-4.9-7.4-6.8-11.4
		c-5.1-10.4-9.6-21.1-13.3-32.1c-4.3-12.2-8.1-24.5-11.7-36.9c-3-10.5-5.9-21-8.6-31.6c-1.4-5.6-2.9-11.2-4.2-16.9
		c-0.1-0.3-0.1-0.5-0.2-0.8c-0.1-0.5-2-0.7-2.4-0.7C384.8,222.5,382.4,222.2,382.5,222.5z" fill="#59BE4C"></path><path class="st0" d="M450.2,311.3c1.9,0.8,16.1,1.9,12.1,12.7s-12.9,16.5-19.4,11.4S450.2,311.3,450.2,311.3z" fill="#FFFFFF"></path><path class="st1" d="M449.9,312.2c0.8,0.3,1.6,0.5,2.5,0.7l1.1,0.2l0.2,0.1c0.3,0.1-0.4-0.1-0.1,0l0.8,0.2c0.5,0.1,0.9,0.2,1.3,0.4
		l0.5,0.2l0.6,0.2c0.2,0.1,0.9,0.4,0.3,0.1c0.2,0.1,0.4,0.2,0.6,0.3l0.4,0.2c0.3,0.2-0.3-0.2,0,0s0.5,0.3,0.7,0.5
		c-0.3-0.2,0.3,0.3,0.3,0.3c0.1,0.1,0.2,0.2,0.3,0.3c0.3,0.4,0.6,0.8,0.8,1.3c0.4,1.1,0.6,2.3,0.4,3.4c-0.5,3.5-2.5,7-4.6,9.7
		c-1.9,2.4-4.5,4.7-7.5,5.5c-0.6,0.1-1.1,0.2-1.7,0.2c-0.2,0-0.6,0-0.7,0l-0.5-0.1c0.3,0-0.4-0.1-0.1,0s-0.7-0.3-0.3-0.1
		c-0.2-0.1-0.4-0.3-0.6-0.4c-0.2-0.2-0.4-0.4-0.5-0.7c-0.9-1.6-0.6-3.8-0.2-5.5c0.6-2.5,1.6-4.8,2.7-7.1c1.7-3.4,3.7-6.7,6-9.8
		c0.6-0.9-3.7-3.2-4.6-1.9c-2.2,3-4.2,6.3-5.9,9.6c-1.3,2.4-2.3,5-2.9,7.7c-0.5,2.2-0.6,4.7,0.8,6.5c2,2.7,6.1,4.3,9.4,4.4
		c3.4,0,6.6-1.4,9-3.8c3-2.9,5.3-6.5,6.5-10.5c1-2.5,0.6-5.4-1-7.6c-2-2.6-5.2-4.1-8.2-5.1c-1.3-0.4-2.6-0.7-3.9-1l-1.3-0.3
		c-0.6-0.1,0.3,0.1,0,0s-0.8-0.3,0.2,0.1c-0.5-0.2-2.3-0.9-2.7-0.1S449.4,312,449.9,312.2z" fill="#000005"></path><path class="st0" d="M441.5,290.9c2.5,1,20.6,2.9,15.9,15.6s-15.8,19.1-24.4,12.8S441.5,290.9,441.5,290.9z" fill="#FFFFFF"></path><path class="st1" d="M439.5,292.3c1.6,0.6,3.4,0.8,5,1.3c2.6,0.6,5,1.7,7.3,3.1c2.3,1.4,3.8,3.7,4.2,6.3c0.3,3.9-2,8-4.1,11.1
		c-1.1,1.6-2.4,3.1-4,4.3c-1,0.8-2.3,1.4-3.6,1.7c-3.4,0.7-6.9-0.2-9.5-2.5c-4-3.8-0.7-11.1,1.2-15.1c1.5-2.9,3.1-5.7,4.9-8.5
		c0.6-0.9,1.2-1.8,1.9-2.7l0.6-0.8c0.1-0.2,0.5-0.6,0,0c0.5-0.7,0.4-1.2-0.6-1c-1.2,0.2-2.3,0.9-3.1,1.8c-2.8,3.6-5.2,7.5-7.3,11.5
		c-1.6,2.9-2.8,6.1-3.6,9.4c-0.5,2.5-0.5,5.5,1.2,7.5c2.3,2.7,6.5,3.8,10,3.4c4.6-0.6,8.9-2.8,12.2-6c3.6-3.4,6.3-7.7,7.8-12.5
		c1-3,0.4-6.2-1.6-8.6c-2.1-2.4-5.3-3.8-8.3-4.8c-2.1-0.7-4.4-0.9-6.5-1.7c-0.9-0.3-2.3,0.5-3,1C440.3,290.8,438.7,292,439.5,292.3z
		" fill="#000005"></path><path class="st0" d="M426.3,267.9c0,0,13.4,1,16.9,12.9s-9.8,25.9-18,21.1s4.8-21.3,4.8-21.3" fill="#FFFFFF"></path><path class="st1" d="M427.1,270c3.1,0.3,6.1,1.3,8.8,3c2.3,1.3,4,3.4,5,5.8c1.2,3,1.3,6.3,0.3,9.4c-1.7,5.5-6.4,11.6-12.4,12.5
		c-1.1,0.2-2.3,0.1-3.3-0.3c-0.2-0.1-0.4-0.2-0.6-0.3c-0.1,0-0.4-0.3-0.2-0.1s-0.1-0.1-0.1-0.1c-0.4-0.3,0,0,0,0c-0.3-0.3,0,0,0,0.1
		c-0.3-0.6-0.1,0.1-0.2-0.4s0,0.1-0.1-0.4c-0.1-0.2-0.1-0.5-0.1-0.7c0-0.5,0-1,0.1-1.5c0.2-1.2,0.4-2.3,0.9-3.5
		c1-2.7,2.3-5.2,3.9-7.6c0.8-1.3,1.6-2.5,2.3-3.4c1.2-1.5-2.2-5.1-3.1-3.9c-2.7,3.4-4.9,7.2-6.5,11.2c-1,2.6-1.7,5.5-0.9,8.2
		c1,3.4,3.8,6.1,7.3,6.8c6.8,1.3,13-5.2,15.6-10.8c1.7-3.6,2.2-7.6,1.4-11.5c-1-4-3.1-7.6-6.1-10.4c-3.8-3.5-8.6-5.7-13.8-6.3
		c-2.3-0.2,0.1,4,1.7,4.2L427.1,270z" fill="#000005"></path><path class="st0" d="M282.1,431.2c0,0,5.4-54.4,2.6-110.1l49-19.7c0,0-52.7-91.3-90.7-96.9c-4.9-1.7-10.1-1.9-15.1-0.6
		C154,198.5,90.8,268,90.8,268l43.3,46.4c-25.9,47-44.5,91.1-44.5,91.1" fill="#FFFFFF"></path><path class="st1" d="M284.6,431.2c0.7-7.2,1.2-14.4,1.7-21.7c1.1-17.5,1.7-34.9,1.8-52.4c0-12-0.2-24-0.8-36.1l-0.8,0.8l16.6-6.7
		l26.2-10.6l6.1-2.5c0.4-0.2,0.9-0.6,0.6-1.1c-1.8-3.2-3.8-6.3-5.7-9.4c-4.8-7.7-9.8-15.2-15-22.6c-6.7-9.5-13.7-18.9-21.2-27.7
		c-7.4-8.7-15.2-17.1-24-24.4c-7.3-6-15.6-11.4-24.9-13.4c-1.5-0.3-2.9-0.8-4.4-1.1c-2.4-0.5-4.9-0.7-7.3-0.6
		c-1.2,0-2.5,0.1-3.7,0.3c-0.7,0.1-1.3,0.2-2,0.4c-0.2,0-0.5,0.1-0.7,0.1c1-0.1-0.1-0.1-0.3-0.1c-1.9-0.1-3.7-0.2-5.6-0.2
		c-7.5-0.1-15,0.5-22.4,1.8c-14.3,2.5-28.3,7-41.4,13.3c-11.8,5.6-23.1,12.3-33.7,19.9c-8.3,5.9-16.2,12.2-23.7,19
		c-3.8,3.4-7.5,6.9-11,10.6l-0.7,0.8c-0.3,0.3,0,0.7,0.2,0.9l14.7,15.8l23.2,24.9l5.4,5.8l-0.2-0.9c-9.2,16.8-18,33.9-26.3,51.2
		c-5.4,11.2-10.6,22.5-15.6,33.9c-0.9,2-1.7,4-2.6,6c-0.7,1.7,4.2,2.1,4.8,0.7c2.5-5.9,5.2-11.8,7.8-17.7
		c6.6-14.6,13.5-29,20.8-43.3c5.1-10.1,10.4-20.2,15.9-30.1c0.2-0.4,0-0.6-0.2-0.9l-14.7-15.8l-23.2-24.9l-5.4-5.8l0.2,0.9
		c-0.6,0.6,0.1-0.1,0.3-0.3c0.5-0.5,1-1,1.5-1.5c1.8-1.8,3.6-3.6,5.5-5.4c6.5-6.1,13.3-11.9,20.4-17.3c9.7-7.4,19.9-14.1,30.7-19.9
		c12.1-6.6,25-11.8,38.3-15.3c6.9-1.8,14-3,21.2-3.6c3.5-0.3,7.1-0.4,10.6-0.3c1.9,0,3.8,0.1,5.6,0.2c2.3,0.1,4.7-0.7,7-0.8
		c2.3,0,4.5,0.3,6.6,1c0.8,0.2,1.5,0.4,2.3,0.6l0.6,0.1c0.1,0,0.4,0.1,0,0l0.5,0.1c1,0.2,1.9,0.5,2.9,0.8c0.8,0.3,1.7,0.6,2.5,0.9
		c4.1,1.8,8.1,4.1,11.7,6.8c8.9,6.4,16.6,14.3,23.9,22.4c7.6,8.7,14.8,17.7,21.5,27.1c5.7,7.9,11.1,15.9,16.3,24
		c2.7,4.3,5.4,8.6,8,13l0.3,0.6l0.7-1.1l-16.6,6.7l-26.2,10.6l-6.1,2.5c-0.3,0.1-0.8,0.5-0.7,0.8c1,20.5,1,41,0.4,61.4
		c-0.5,13.8-1.2,27.6-2.3,41.4c-0.2,2.5-0.4,4.9-0.6,7.4C279.5,432.7,284.5,432.9,284.6,431.2L284.6,431.2z" fill="#000005"></path><path class="st0" d="M135.9,334.8c0,0,58.6-13.8,87.9-9.1s35.5,32.7,30,38s-20.5-18.4-20.5-18.4s-3.3,32.5-15.4,27
		c0,0-4.1,16-16.3,8.1c0,0-13.7,12.1-18.2,5.1s4.8-13.3,4.8-13.3S87.1,440.4,50.5,395.3C3.7,337.6,93.7,271.7,93.7,271.7l64,43.6
		L135.9,334.8z" fill="#FFFFFF"></path><path class="st1" d="M136.9,337.1c7.9-1.9,15-3.2,23.1-4.7c15.2-2.7,30.7-4.9,46.1-5.3c7-0.2,14-0.1,20.9,1.5
		c3.7,0.9,7.3,2.3,10.7,4.2c1.4,0.8,2.8,1.8,4.1,2.8c1.2,0.9,2.2,1.9,3.3,3c1.1,1.2,2.1,2.4,3,3.7c0.2,0.3,0.4,0.5,0.6,0.8l0.3,0.5
		c0.3,0.4-0.3-0.5,0.1,0.1s0.7,1.2,1,1.8c0.7,1.2,1.2,2.5,1.7,3.8c0.1,0.2,0.3,0.9,0.1,0.4c0.1,0.3,0.2,0.6,0.3,0.9
		c0.2,0.6,0.4,1.2,0.5,1.8s0.2,1.1,0.3,1.7l0.1,0.8l0.1,0.4c0.1,0.5,0-0.4,0,0.1c0.1,1,0.1,1.9,0,2.9c0,0.2-0.1,0.4-0.1,0.6
		s0.1-0.5,0-0.1c0,0.1,0,0.2,0,0.3c-0.1,0.4-0.2,0.8-0.3,1.2c-0.1,0.2-0.1,0.3-0.2,0.5s0.3-0.4,0,0c-0.2,0.3-0.4,0.5-0.5,0.8
		c-0.2,0.3,0.2-0.2,0.2-0.2s-0.1,0.1-0.2,0.2s-0.7,0.4-0.1,0.1l-0.5,0.2c-0.4,0.1,0.4,0,0.1,0c-0.1,0-0.3,0-0.4,0
		c-0.1,0.1-0.6-0.1,0.1,0c-0.1,0-0.2,0-0.3,0c-0.1,0-0.8-0.2-0.4-0.1s-0.4-0.1-0.4-0.2c-0.3-0.1-0.5-0.3-0.8-0.4
		c-0.6-0.3,0.1,0.1-0.3-0.2l-0.7-0.5c-0.5-0.4-1-0.8-1.5-1.3l-0.7-0.7c-0.1-0.1-0.7-0.7-0.3-0.3c-0.6-0.6-1.1-1.1-1.6-1.8
		c-3.3-3.7-6.3-7.7-9-11.9c-0.2-0.2-0.3-0.5-0.5-0.8c-0.6-1-1.8-1.3-2.8-0.8c-0.6,0.3-1,0.9-1,1.6c0,0.3-0.1,0.6-0.1,0.8
		s-0.1,0.6-0.1,0.9s-0.1,0.4-0.1,0.6s-0.1,0.9-0.1,0.5s0,0.3-0.1,0.5s-0.1,0.5-0.1,0.8l-0.3,1.8c-0.2,1.3-0.5,2.6-0.8,4
		c-0.6,2.8-1.4,5.6-2.5,8.3c-0.4,1.2-1,2.4-1.6,3.5c-0.3,0.5-0.6,1-0.9,1.4c-0.2,0.2-0.4,0.5-0.6,0.7l-0.2,0.3
		c-0.3,0.3,0.2-0.2-0.1,0.1c-0.4,0.4-0.8,0.7-1.3,1c-0.1,0.1-0.4,0.2,0,0c-0.1,0.1-0.3,0.1-0.4,0.2c-0.3,0.1-0.5,0.2-0.8,0.3
		s-0.5,0.1,0,0c-0.1,0-0.3,0-0.4,0.1h-0.3c-0.5,0-0.1,0-0.1,0c-0.3,0-0.6-0.1-0.9-0.2l-0.3-0.1c0.6,0.2-0.2-0.1-0.3-0.1
		c-0.9-0.5-2.1-0.2-2.6,0.7c-0.1,0.1-0.1,0.2-0.2,0.3c-0.2,0.8-0.5,1.5-0.8,2.2c0,0.1-0.1,0.3-0.2,0.4c-0.2,0.6,0.1-0.1-0.1,0.2
		s-0.4,0.7-0.6,1.1c-0.4,0.8-0.9,1.5-1.4,2.2c-1,1.3-2.3,2.3-3.9,2.7c-0.2,0.1-0.3,0.1-0.1,0l-0.4,0.1l-0.7,0c-0.4,0-0.9,0-1.3-0.1
		c-1.3-0.3-2.5-0.8-3.6-1.5c-0.8-0.5-1.9-0.9-2.7-0.2c-2.8,2.6-6.1,4.7-9.6,6.2c-1,0.5-2.1,0.7-3.2,0.8c-0.1,0-0.7,0-0.3,0
		c-0.3,0-0.5-0.1-0.8-0.1c-0.4-0.1-0.1,0,0,0c-0.1,0-0.2-0.1-0.4-0.2c-0.4-0.2,0,0,0,0c-0.2-0.1-0.3-0.2-0.5-0.4
		c0.4,0.4-0.1-0.2-0.2-0.3c0.1,0.2-0.4-0.7-0.4-0.8c-0.2-0.5-0.3-1.1-0.3-1.6c0.1-1.3,0.5-2.6,1.3-3.6c1.1-1.7,2.5-3.1,4.1-4.1
		c2.2-1.5-0.9-5.4-3.1-3.9c-3.1,2.1-6.2,4-9.4,5.9c-1.6,1-3.2,1.9-4.9,2.9c-2.1,1.2-3.3,1.9-5.4,3c-4.4,2.4-8.9,4.8-13.4,7
		c-10.3,5.1-21,9.5-32,13.1c-10.9,3.5-22,6.1-33.5,6.3c-5.2,0.2-10.3-0.4-15.3-1.6c-2.3-0.5-4.5-1.2-6.7-2.2c-1.1-0.5-2.3-1-3.3-1.6
		c-0.5-0.3-1-0.6-1.5-0.9s-0.1-0.1,0,0l-0.4-0.2l-0.9-0.6c-1-0.7-2-1.5-3-2.3c-0.5-0.4-0.9-0.8-1.4-1.2c-0.2-0.2-0.4-0.4-0.7-0.6
		l0,0l-0.5-0.5c-2.2-2.4-4.2-4.9-6-7.6c-3.5-5.2-6.1-11-7.6-17.2c-2.7-11.3-1.2-23,2.8-34s10.3-21.1,17.5-30.3
		c6.3-8,13.2-15.4,20.7-22.3c4.1-3.8,8.4-7.5,12.9-10.9l0.6-0.5l-2.7-0.2l21.8,14.8l34.4,23.4l7.9,5.4l-0.4-3.7l-19.1,17l-2.8,2.5
		c-2,1.8,1.1,5.7,3.1,3.9l19.1-17l2.7-2.4c0.9-1,0.9-2.5-0.1-3.5c-0.1-0.1-0.2-0.2-0.3-0.2l-21.7-14.8l-34.4-23.4l-7.9-5.3
		c-0.8-0.7-1.9-0.7-2.7-0.2c-3.3,2.4-6.4,5.1-9.5,7.7c-7.4,6.5-14.4,13.4-20.8,20.9c-7.9,8.9-14.5,18.9-19.7,29.5
		c-5.1,11-8.3,23.2-7.3,35.4c0.6,6.5,2.2,12.8,4.9,18.7c2.8,6.3,6.6,12,11.3,17c7.6,7.8,17.7,12.2,28.4,13.4
		c11.6,1.3,23.2-0.4,34.4-3.2c11.6-3.1,22.9-7.1,33.8-12.2c9.4-4.2,18.5-9,27.4-14.1c4.7-2.7,9.4-5.5,13.9-8.5l0.6-0.4l-3.1-3.9
		c-5,3.4-8.8,9.9-5.4,15.7c4,6.9,12,3.4,17.1,0c1.7-1.1,3.3-2.3,4.8-3.6l-2.7-0.2c2.7,1.7,5.8,3.1,9.1,2.7c2.5-0.4,4.8-1.7,6.4-3.6
		c2-2.3,3.4-5,4.1-7.9l-2.8,1.1c2.5,1.3,5.5,1.1,7.9-0.5c2.1-1.6,3.8-3.8,4.9-6.3c2.4-5.5,4.1-11.3,4.8-17.2
		c0.2-1.5,0.5-3.1,0.6-4.6l-3.9,0.8c2.2,3.4,4.6,6.8,7.2,9.9c2,2.5,4.1,4.8,6.5,6.9c1.9,1.6,4.3,3.4,7,3.3c4.6,0,5.7-5.5,5.6-9.1
		c-0.3-5.5-2-10.9-5-15.5c-3.8-6.2-9.3-11.2-15.8-14.5c-7.2-3.6-15.1-4.8-23-5.1c-16.2-0.7-32.5,1.5-48.4,4.1
		c-6.6,1.1-13.2,2.3-19.7,3.6c-3.5,0.7-7.1,1.4-10.6,2.3l-0.5,0.1c-1.2,0.3-1.4,2-0.9,3C134.4,336.7,135.7,337.3,136.9,337.1z" fill="#000005"></path><path class="st1" d="M205,356.9c0.1,0.2,0.2,0.4,0.2,0.6c0.1,0.1,0.3,0.7,0.1,0.3c0.1,0.3,0.2,0.6,0.3,0.9c0.5,1.7,0.8,3.5,0.8,5.3
		c0.1,6-2.9,11.3-7.1,15.3c-1.5,1.4,3,3.4,4.4,2.1c4.6-4.4,7.6-10.1,7.5-16.5c0-2.8-0.6-5.5-1.7-8.1c-0.7-1-1.9-1.6-3.1-1.5
		C205.5,355.3,204.5,355.9,205,356.9L205,356.9z" fill="#000005"></path><path class="st1" d="M218.9,349.5c2,7.2,0.9,15-3.1,21.4c-0.8,1.2,3.3,4,4.1,2.8c4.2-6.8,5.3-15,3.1-22.6c-0.5-1.1-1.5-1.9-2.6-2.2
		C219.8,348.5,218.5,348.4,218.9,349.5L218.9,349.5z" fill="#000005"></path><path class="st1" d="M88.1,341.7c2.1-0.6,4.2-1,6.4-1.2c4-0.5,7.9-1,11.9-1.5c8.7-1,17.5-1.9,26.2-2.7c2.6-0.2,5.2-0.5,7.9-0.7
		c1-0.1-1.2-4.2-2.5-4.1c-6.2,0.3-12.5,1.1-18.7,1.7c-8.8,0.9-17.5,1.8-26.3,3c-2.7,0.2-5.3,0.7-7.8,1.4
		C84.4,337.9,86.7,342.2,88.1,341.7L88.1,341.7z" fill="#000005"></path><path class="st1" d="M288.8,316.4l-1.3-45.2c-0.1-2.6-5-2.8-5,0l1.3,45.2C283.9,319,288.8,319.2,288.8,316.4L288.8,316.4z" fill="#000005"></path><path class="st0" d="M401,309.8c0,0,18.8-60.8,2.8-62.5s-22.5,37.1-24.2,42.1c0,0-9.8,5.9-9.8,17.6" fill="#FFFFFF"></path><path class="st1" d="M403.2,309.5c1.6-5.2,3-10.5,4.2-15.7c2.3-9.6,4.4-19.5,5-29.4c0.4-4.1,0.1-8.1-0.8-12.1
		c-0.7-2.7-2.3-5.4-5.2-6.3c-4.4-1.3-9.3,0.9-12.5,3.9c-3.8,3.4-6.3,8-8.3,12.6c-2.1,4.9-3.8,9.9-5.1,15c-0.6,2.2-1.2,4.4-1.7,6.6
		c-0.2,0.9-0.4,1.7-0.6,2.6c-0.1,0.4-0.2,0.7-0.3,1l-0.1,0.5c-0.1,0.2-0.1,0.4-0.1,0.2c-0.1,0.4-0.2,0.9-0.4,1.3l1.1-1.2
		c-6.6,4.1-10.8,11.3-11,19.1c0,2,4.7,0.4,4.7-1.4c0-3.7,1.1-7.4,3.1-10.5c0.7-1.1,1.6-2.2,2.5-3.1c0.4-0.4,0.8-0.8,1.2-1.1l0.5-0.4
		c0.2-0.1,0.8-0.6,0.2-0.2l1-0.7c0.8-0.5,1.3-1.3,1.4-2.3c0.5-1.7,0.9-3.4,1.3-5.2c1.2-5.2,2.7-10.3,4.5-15.4
		c1.8-5.2,4-10.5,7.6-14.8c0.7-0.9,1.4-1.6,2.3-2.3l0.3-0.2c-0.1,0.1-0.4,0.3,0,0l0.6-0.4l0.3-0.2c0.5-0.3-0.4,0.2,0,0l0.8-0.4
		c0.4-0.2,0,0-0.1,0l0.4-0.1c0.2,0,0.3-0.1,0.5-0.1c0.2,0,0.4,0,0.6-0.1h0.4c0.4,0-0.2,0,0.1,0s0.6,0,0.9,0c0.1,0,0.7,0.1,0.2,0
		c0.3,0.1,0.7,0.2,1,0.3c0.1,0,0.5,0.2,0.2,0.1l0.4,0.3c0.3,0.2,0.6,0.4,0.8,0.7c0.2,0.2,0.4,0.4,0.5,0.6c0.2,0.3,0.4,0.7,0.6,1
		c0.7,1.5,1.2,3.2,1.4,4.9c0.5,4.8,0.4,9.7-0.2,14.6c-0.6,5.6-1.7,11.2-2.9,16.8c-1.6,7.3-3.5,14.6-5.6,21.8c0,0.1-0.1,0.2-0.1,0.4
		C398.1,312.3,402.8,311,403.2,309.5L403.2,309.5z" fill="#000005"></path><path class="st1" d="M200.2,178c0,0-32,2.7-35.7-10.6s16.1-8,16.1-8s-20.4-28.6,12-29.8c0,0-24.4-22.6-1.4-38.7s63.2,0.4,63.2,0.4
		s2-28.5,34.1-21.3s22.4,23.3,22.4,23.3s20.6,4.3,20.1,14.2s-16.5,11.9-16.5,11.9s-8.9,27.2-36.8,20l-31.1,32c0,0,8.3,13.8-3.6,25.8
		S196.8,195.9,200.2,178z" fill="#000005"></path><path class="st1" d="M200.1,177.5h-0.6h-0.7h-0.4h-0.2c-0.5,0,0.7,0,0.2,0c-0.8,0-1.6,0.1-2.4,0.1h-1.4h-1.3
		c-5.1,0-10.1-0.6-15-1.8c-4.3-1.1-9.2-3.3-11.1-7.6c-0.8-2-1.3-4.8-0.2-6.8c0.4-0.8,1.1-1.4,1.9-1.9c0.3-0.2,0.7-0.3,1-0.5
		c0.3-0.1,0.6-0.2,0.9-0.2c0.4-0.1,0,0-0.1,0c0.1,0,0.8-0.1,0.1,0c0.2,0,0.8,0,0.3,0c0.2,0,1.1,0,0.5,0h0.8h0.5l0.8,0.1
		c0.5,0.1,1.1,0.1,1.6,0.2s2,0.4,3,0.6c0.9,0.2,1.9,0.2,2.8,0c0.1,0,2-0.4,1.8-0.6c-2-2.9-3.7-6-4.8-9.3c-1.8-5-2.6-11.4,1.6-15.5
		c3.2-3.1,7.9-4.1,12.1-4.2c0.3,0,3.5-0.4,3-0.8c-8.7-8-15.7-22.3-7.4-33c5.8-7.5,15.6-11.2,24.8-11.9c8.5-0.6,17.2,0.7,25.5,2.7
		c4.8,1.2,9.6,2.7,14.2,4.5c0.6,0.2,4.8,0.4,4.9-0.5c0.6-8,5.4-16.2,12.6-19.8c1.4-0.7,2.9-1.2,4.5-1.6c1.6-0.4,3.2-0.5,4.9-0.4
		c5.6,0.3,11.2,1.6,16.4,3.7c5.8,2.2,12.7,5.9,14.1,12.5c0.6,2.7,0.2,5.6-1.1,8c0.1,0.1,0.2,0.2,0.4,0.2c5.5,1.2,11.3,3.2,15.7,6.7
		c2.8,2.2,4.7,5.3,3.8,9s-4.5,6.2-8,7.7c-1.6,0.7-3.3,1.2-5,1.6l-0.5,0.1c-0.4,0.1,0.3-0.1-0.2,0l-0.7,0.1c-0.2,0-0.4,0.1-0.5,0.1
		c-0.3,0.1,0.7-0.1,0.4-0.1s-1.6,0.1-1.8,0.6c-1,2.9-2.5,5.7-4.3,8.2c-3.6,5.2-8.7,9.6-14.8,11.5c-1,0.3-2,0.5-3,0.7
		c-0.8,0.1-1.6,0.2-2.4,0.2c-2.6-0.1-5.2-0.4-7.7-1.1c-0.8-0.1-1.7-0.1-2.5,0c-0.5,0.1-1.6,0.1-2,0.5l-10.5,10.8l-16.8,17.2l-3.9,4
		l-0.1,0.1c1.9,3.3,2.8,7.1,2.8,10.9c0,6.7-3.7,14.1-9.8,17.2c-1,0.5-2.1,0.9-3.3,1.2l-0.5,0.1c-0.1,0-0.9,0.1-0.6,0.1
		c-0.1,0-1,0.1-0.6,0.1h-0.5h-0.2c-2.5,0-5.1-0.3-7.5-0.9c-5.5-1.3-10.7-3.9-15-7.7c-4.2-3.8-7.2-9.1-6.1-14.9
		c0.1-0.3-4.8-0.6-5,0.4c-1.9,10.4,8.2,18.1,16.8,21.4c5.3,2.1,11,3,16.7,2.7c5-0.3,10.3-1.4,14-5c5-4.8,7.3-11.8,6.2-18.7
		c-0.4-2.1-1-4-1.8-5.9c-0.2-0.4-0.4-0.8-0.6-1.2c-0.1-0.2-0.2,0.2,0-0.1c0.5-0.7,1.1-1.3,1.8-1.9l3.5-3.6l9.7-10
		c5.2-5.3,10.6-10.5,15.6-16c0.1-0.1,0.2-0.2,0.3-0.3l-4.5,0.4c9.3,2.4,20,1.9,28.3-3.4c5-3.4,9.1-8.1,11.7-13.6
		c0.6-1.2,1.1-2.3,1.5-3.6l-1.8,0.6c2.6-0.4,5.1-1,7.5-1.8c3.6-1.2,7.5-3.2,9.5-6.6c5-8.2-5.2-13.8-11.6-16.2
		c-2.4-0.9-5-1.7-7.5-2.3l0.4,0.2c1.2-2.2,1.7-4.8,1.3-7.2c-1-6.8-7.8-10.8-13.5-13.2c-9.9-4-21.8-6.1-32.2-3
		c-6,1.8-11.1,6-13.9,11.6c-1.7,3.1-2.7,6.6-3,10.1l4.9-0.5c-12.9-5-26.6-7.6-40.4-7.6c-10.4,0.2-21.3,2.3-29.5,9
		c-3.7,3-6.7,7-7.6,11.8c-0.7,3.9-0.2,7.9,1.3,11.6c2.2,5.4,5.5,10.2,9.7,14.1l3-0.8c-7.6,0.3-19.1,1.5-21.2,10.5
		c-1.3,5.5,1.1,11.4,3.7,16.1c0.7,1.3,1.5,2.5,2.3,3.8l4.6-0.6c-3.4-0.9-6.9-1.2-10.4-1.1c-4.6,0.2-11.1,1.2-10.8,7.2
		c0.3,5.5,4.7,8.8,9.5,10.6c5.5,2,11.5,2.7,17.4,2.9c3.9,0.2,7.9,0.1,11.8-0.2c0.3,0,2.5-0.1,2.5-0.6S200.3,177.5,200.1,177.5z" fill="#000005"></path><path class="st0" d="M310.5,213c20.8-22,1-88.9,1-88.9c-22.8,2.8-57.3-22.5-57.3-22.5c9.3,21.9-13.4,59.1-13.4,59.1
		c-7.8-19.6-28.2-20.3-27.6-1.4s18.6,21.7,18.6,21.7s-8.4,31.9-6.9,39.4s39.6,46.1,53.3,10.2C290.5,228.2,301.8,222.1,310.5,213z" fill="#FFFFFF"></path><path class="st1" d="M312.7,213.3c4.5-4.8,6.9-11.1,8.2-17.5c1.4-7.4,1.9-14.9,1.5-22.5c-0.7-13.9-2.8-27.6-6.2-41.1
		c-0.7-2.9-1.4-5.8-2.2-8.6c-0.3-1-1.8-1-2.7-1c-2.1,0.2-4.2,0.2-6.2,0c-2.5-0.3-5-0.7-7.4-1.3c-4.9-1.3-9.7-3-14.4-5.2
		c-7.9-3.6-15.4-7.8-22.6-12.7c-1.5-1-3-2-4.4-3.1c-1.1-0.8-5.2-0.3-4.4,1.6c3.8,9.1,2,19.9-0.6,29c-2.5,8.5-5.9,16.7-10.1,24.4
		c-0.6,1.2-1.3,2.4-1.9,3.5c-0.2,0.3-0.4,0.7-0.6,1c-0.1,0.2-0.4,0.8,0,0h4.7c-2.5-6.3-6.8-12.1-13.2-14.8
		c-5.1-2.2-11.5-1.7-15.6,2.3c-4.5,4.4-4.5,12.2-3,17.9c1.5,5.5,5.1,10.1,9.9,13.1c2.8,1.8,5.9,3,9.1,3.5l-1.3-1.3
		c-1.6,6.1-3,12.2-4.3,18.4c-1,4.5-1.9,9.1-2.4,13.7c-0.3,2.6-0.9,5.9,0,8.5c1,2.4,2.5,4.5,4.2,6.4c2.5,2.9,5.2,5.6,8.2,8
		c6.2,5.2,13.9,10,22.1,10.9c4.2,0.5,8.5-0.2,12.3-2.1c4.1-2.3,7.4-5.9,9.4-10.2c0.7-1.3,1.2-2.6,1.8-3.9l-2.3,1.3
		c2.6-0.4,5.2-1,7.8-1.9c5.8-1.9,11.4-4.6,16.5-8c3.7-2.5,7.1-5.4,10.2-8.6c0.8-0.8-0.4-1.5-1.1-1.6c-1.2-0.2-2.4,0.1-3.3,0.9
		c-7.7,8.1-17.6,13.7-28.5,16.3l-0.5,0.1c-0.6,0.1,0.3-0.1,0,0l-0.7,0.1l-0.6,0.1c-0.8,0.1-1.9,0.4-2.3,1.3
		c-1.6,4.2-3.9,8.5-7.6,11.3c-0.6,0.5-1.3,0.9-2,1.2c-0.4,0.2-0.8,0.4-1.2,0.5c-0.6,0.3,0.4-0.1-0.2,0.1c-0.3,0.1-0.5,0.2-0.8,0.2
		l-0.6,0.2c-0.7,0.2,0.5-0.1-0.2,0c-0.4,0.1-0.8,0.1-1.2,0.2c-0.1,0-0.8,0-0.2,0H261c-0.5,0-1,0-1.5,0c-0.7,0,0.5,0.1-0.2,0
		l-0.6-0.1c-0.4-0.1-0.9-0.1-1.3-0.2c-0.8-0.1-1.7-0.4-2.5-0.6c-1.8-0.6-3.5-1.3-5.1-2.1c-3.6-1.8-6.9-4-10-6.6
		c-2.8-2.3-5.4-4.7-7.8-7.4c-1.7-1.9-3.2-4-4.4-6.2c0-0.1-0.1-0.2-0.1-0.3c-0.1-0.3,0.1,0.3,0,0s-0.1-0.3-0.2-0.5
		c-0.1-0.5-0.2-1-0.2-1.5c-0.1-1.6,0-3.1,0.2-4.6c0.4-4.3,1.2-8.5,2.1-12.7c1.4-6.9,3-13.7,4.8-20.4c0.2-0.8-0.7-1.2-1.3-1.3
		l-0.5-0.1l-0.5-0.1c-0.4-0.1,0.4,0.1,0.1,0l-0.5-0.1c-0.7-0.2-1.3-0.4-2-0.7s-1.8-0.7-2.1-0.9c-4.2-2-7.6-5.4-9.6-9.5
		c-2.4-5-3.2-12.1-0.6-17.2c0.5-1,1.1-1.8,1.9-2.6c0.6-0.6,1.3-1,2-1.3c0.4-0.2-0.2,0,0.3-0.1c0.2-0.1,0.4-0.1,0.7-0.2
		c-0.6,0.1,0.2,0,0.3,0h0.4c-0.2,0-0.3,0,0,0h1h0.2c0.6,0.1,1.1,0.2,1.4,0.3c6.3,1.9,10.7,7.9,13.1,13.8c0.6,1.5,3.9,1.3,4.7,0
		c2.7-4.6,5.2-9.4,7.3-14.3c4.1-9.3,7.5-19.2,8.4-29.4c0.6-5.6-0.2-11.2-2.2-16.4l-4.4,1.6c4.3,3.1,8.8,6,13.4,8.6
		c9,5.2,18.5,10,28.6,12.6c5.7,1.6,11.6,2.2,17.4,1.6l-2.6-1c2.3,7.8,4.1,15.8,5.4,23.8c1.3,7.3,2.3,14.7,2.8,22.1
		c0.6,7.6,0.4,15.2-0.7,22.7c-1.1,7-3.3,14.3-8.3,19.6c-0.8,0.9,0.4,1.5,1.1,1.6C310.5,214.3,311.8,214,312.7,213.3z" fill="#000005"></path><path class="st1" d="M263.2,182.4c-0.4-0.1,0.8,0.4,0.4,0.1l-0.6-0.3c-0.3-0.2-0.6-0.3-0.9-0.5l-0.2-0.1l-0.1-0.1
		c-0.3-0.2,0.4,0.2,0.3,0.2c-0.2-0.1-0.4-0.3-0.6-0.4c-0.4-0.3-0.7-0.6-1.1-0.9l-0.1-0.1c0,0,0.4,0.4,0.2,0.2
		c-0.1-0.1-0.2-0.2-0.2-0.2c-0.2-0.2-0.4-0.4-0.5-0.6c-0.1-0.1-0.2-0.2-0.2-0.3c0-0.1-0.3-0.4-0.1-0.1s0-0.1-0.1-0.1l-0.2-0.4
		c-0.1-0.2-0.2-0.4-0.3-0.7c0-0.1,0-0.1-0.1-0.2c-0.1-0.2,0.1,0.2,0,0.2s-0.1-0.4-0.1-0.5c-0.1-0.3-0.1-0.7-0.1-1c0-0.1,0-0.3,0-0.5
		s0,0,0,0.1s0-0.2,0-0.3c0.1-0.8,0.4-1.6,0.8-2.3c0.1-0.5,0-1-0.4-1.3c-0.4-0.5-0.9-0.8-1.5-1c-1-0.3-2.4-0.3-2.9,0.8
		c-0.7,1.4-1,2.9-0.9,4.5c0.2,1.4,0.7,2.7,1.5,3.9c1.4,1.9,3.1,3.4,5.2,4.4c0.6,0.3,1.2,0.6,1.8,0.8c0.9,0.3,2.5,0.3,2.9-0.8
		S264,182.7,263.2,182.4L263.2,182.4z" fill="#000005"></path><path class="st1" d="M304.4,156.4c0,0-0.5,3.6,3.1,3.8s3.8-4.2,0.8-5.3S304.4,156.4,304.4,156.4z" fill="#000005"></path><path class="st1" d="M287.7,153.1c-0.4-1.1-1.1-2.1-2-3c-1-1-2.2-1.8-3.5-2.3c-0.6-0.2-1.2-0.3-1.8-0.2c-0.6,0-1.2,0.1-1.8,0.3
		c-0.2,0.1-0.8,0.3-0.7,0.6s0.5,0.5,0.7,0.6c-0.5-0.2-0.2-0.1,0,0l0.3,0.1l0.5,0.3c0.3,0.2,0.7,0.5,1,0.7l-0.3-0.2
		c1.2,1,2.1,2.2,2.7,3.7c0.1,0.3,0.9,0.5,1.2,0.5c0.6,0.1,1.3,0.1,1.9,0.1c0.5,0,1-0.2,1.5-0.4l0.2-0.2
		C287.8,153.5,287.8,153.3,287.7,153.1L287.7,153.1z" fill="#000005"></path><ellipse class="st0" transform="matrix(0.7071 -0.7071 0.7071 0.7071 -5.8096 306.1135)" cx="366.6" cy="160.1" rx="64.6" ry="64.6" fill="#FFFFFF"></ellipse><path class="st2" d="M422.5,184c-1.3,3.1-2.7,6.2-4.5,9.1l-0.6,1l-0.3,0.4c0.1-0.1,0.5-0.8,0-0.1s-0.9,1.3-1.3,2
		c-0.9,1.3-1.9,2.6-3,3.9c-0.5,0.6-1,1.2-1.5,1.8c-0.3,0.3-0.5,0.6-0.8,0.9c0.1-0.1,0.8-0.8,0.2-0.2l-0.5,0.5
		c-1.1,1.1-2.3,2.3-3.5,3.3c-0.6,0.5-1.2,1-1.8,1.5l-0.9,0.7l-0.4,0.3l-0.3,0.2c-0.3,0.2-0.2,0.1,0.4-0.3c-0.3-0.1-1.6,1.1-1.9,1.4
		c-0.6,0.4-1.3,0.9-1.9,1.3c-1.3,0.9-2.7,1.7-4.1,2.4c-1.1,0.6,0.7-0.4-0.1,0.1l-1,0.5c-0.7,0.4-1.5,0.7-2.2,1.1
		c-1.5,0.7-2.9,1.2-4.4,1.8L387,218l-0.5,0.2c-0.6,0.2,0.9-0.3,0.2-0.1c-0.8,0.2-1.6,0.5-2.4,0.7c-1.5,0.4-3,0.8-4.5,1.1
		c-0.8,0.1-1.5,0.3-2.3,0.4l-1.1,0.2l-0.7,0.1c-0.6,0.1,0.7-0.1,0.1,0c-3.2,0.3-6.4,0.5-9.7,0.4c-0.8,0-1.6-0.1-2.4-0.1l-1.2-0.1
		c0,0-0.6,0-0.2,0s-0.5-0.1-0.5-0.1c-1.6-0.2-3.2-0.4-4.7-0.7c-3.3-0.6-6.6-1.5-9.7-2.7c-0.8-0.3-1.5-0.6-2.3-0.9l-0.5-0.2l-0.2-0.1
		l-1.3-0.6c-1.5-0.7-3-1.5-4.5-2.3c-2.8-1.6-5.6-3.4-8.1-5.4c-5-3.8-9.3-8.4-12.8-13.5c-1.8-2.6-3.5-5.4-4.9-8.2
		c-0.7-1.4-1.4-2.9-2-4.4c-0.2-0.6-0.6-1.6-0.8-1.9s-0.5-1.5-0.7-2.1c-1.9-6.1-3-12.4-3.1-18.8c0-3,0.2-6,0.6-9
		c0.5-3.3,1.2-6.6,2.2-9.8c0.1-0.4,0.2-0.8,0.4-1.2c0.1-0.2,0.4-1.2,0.2-0.6c0.3-0.8,0.6-1.7,0.9-2.5c0.6-1.6,1.3-3.1,2.1-4.7
		s1.5-2.9,2.3-4.3l0.6-1c0.1-0.1,0.5-0.7,0.2-0.3s0,0,0.1-0.1c0.5-0.7,0.9-1.4,1.4-2.1c0.9-1.3,1.9-2.6,3-3.9c0.5-0.6,1-1.2,1.5-1.8
		c0.1-0.1,1-1.1,0.5-0.5s0.5-0.5,0.6-0.6c1.1-1.2,2.3-2.3,3.5-3.3c0.5-0.5,1.1-1,1.6-1.4l0.9-0.7l0.5-0.4c0.6-0.5-0.2,0.2-0.3,0.2
		c0.3,0.1,1.6-1.2,1.9-1.4c0.7-0.5,1.4-0.9,2.1-1.4c1.4-0.9,2.7-1.7,4.1-2.4c0.8-0.4-1,0.5,0.1-0.1l1-0.5c0.7-0.4,1.5-0.7,2.2-1
		c1.5-0.7,2.9-1.3,4.4-1.8l0.9-0.3c0.2-0.1,0.4-0.2,0.6-0.2c0,0-0.9,0.3-0.4,0.1c0.8-0.2,1.6-0.5,2.4-0.7c1.5-0.4,3.1-0.8,4.7-1.1
		c0.8-0.2,1.5-0.3,2.3-0.4l1.1-0.2l0.5-0.1c0.5-0.1-0.8,0.1,0,0c1.6-0.2,3.2-0.3,4.8-0.4s3.2-0.1,4.9,0c0.7,0,1.5,0.1,2.2,0.1
		l1.2,0.1c0.1,0,0.7,0.1,0,0l0.7,0.1c3.3,0.4,6.6,1,9.8,1.9c1.6,0.4,3.2,1,4.8,1.5c0.7,0.3,1.4,0.5,2.1,0.8l0.7,0.3
		c-0.1,0-0.4-0.2,0,0s0.9,0.4,1.3,0.6c3.1,1.4,6,3,8.8,4.9c2.7,1.8,5.3,3.8,7.8,6c2.2,2,4.3,4.2,6.2,6.6c4,4.9,7.2,10.4,9.6,16.3
		c1.2,2.8,2.1,5.6,2.9,8.5c0.7,3.1,1.2,6.2,1.5,9.3c0.1,1.6,0.2,3.2,0.2,4.8c0,0.8,0,1.6,0,2.4c0,0.1,0,0.8,0,0.4s0,0.2,0,0.2
		c0,0.4,0,0.9-0.1,1.4c-0.2,3.3-0.7,6.6-1.4,9.8c-0.3,1.5-0.7,3-1.2,4.5c-0.1,0.4-0.2,0.8-0.4,1.2c-0.1,0.2-0.1,0.4-0.2,0.7
		c0,0-0.2,0.6-0.1,0.2s-0.1,0.3-0.1,0.4s-0.1,0.3-0.2,0.5C423,183.1,422.8,183.6,422.5,184c-0.7,1-0.4,2.5,0.6,3.2
		c0.5,0.4,1.2,0.5,1.8,0.4c2.2-0.1,5.1-1.6,6-3.8c13.9-34.2-2.5-73.1-36.6-87c-6.3-2.5-12.9-4.1-19.6-4.7
		c-29.3-2.4-57.1,13.4-70.1,39.7c-6.2,12.7-8.3,27-6.1,40.9c2.2,13.3,8.4,25.6,17.7,35.3c9.9,10.2,22.8,17,36.9,19.4
		c14,2.3,28.4,0.4,41.3-5.6c13.3-6.2,24.5-16.3,32-28.9c1.7-2.9,3.2-6,4.5-9.1c0.5-0.8,0.5-1.8,0.1-2.6c-0.6-0.7-1.5-1.1-2.4-1
		C426.3,180.2,423.4,181.8,422.5,184z" fill="#59BE4C"></path><path class="st1" d="M365.8,149.2c0,0-12.4-6.8-17.9,5.6s9.8,19.3,17.9,10.2S365.8,149.2,365.8,149.2z" fill="#000005"></path><path class="st2" d="M403.1,139.6c2.3,9.9,1.1,20.2-3.4,29.3c-0.5,1,1.5,1.1,2,1.1c1-0.1,2.4-0.4,2.9-1.4c4.6-9.3,5.8-19.9,3.5-30
		C407.6,137,402.8,137.9,403.1,139.6L403.1,139.6z" fill="#59BE4C"></path><path class="st2" d="M395.1,185.1l2.6-4.4c0.1-0.2,0.2-0.5-0.1-0.6c-0.2,0-0.3,0-0.5,0.1c-0.2,0-0.5,0.1-0.7,0.2
		c-0.6,0.3-1.1,0.6-1.7,1c-0.4,0.3-0.8,0.6-1.1,1.1l-2.6,4.4c-0.1,0.2-0.2,0.5,0.1,0.6c0.2,0,0.3,0,0.5,0c0.2-0.1,0.5-0.1,0.7-0.2
		c0.6-0.3,1.1-0.6,1.7-1C394.4,185.9,394.8,185.5,395.1,185.1L395.1,185.1z" fill="#59BE4C"></path><path class="st0" d="M284.7,194.3c0,0,36.9,26.2,54.6,9.2s-10-42.6-41.3-36.9" fill="#FFFFFF"></path><path class="st1" d="M282.9,196c4.1,2.9,8.4,5.4,12.9,7.6c8.3,4.1,17.5,7.5,26.8,7.6c9.6,0,19.8-5.1,23.3-14.4
		c3.4-9-1.9-17.7-8.9-23.3c-9.3-7.3-21.9-10.2-33.5-9.2c-1.7,0.1-3.4,0.4-5.1,0.7c-1.2,0.3-2.2,1.1-2.5,2.3c-0.2,1.2,1,1.3,1.8,1.1
		c11.3-2.1,23,0.1,32.7,6.1c6.6,4.2,13.6,11.7,12.1,20.2c-0.3,1.9-1,3.6-2.1,5.2c-1.1,1.6-2.5,3.1-4.1,4.2c-1.5,1.1-3.1,1.9-4.9,2.4
		c-1.9,0.5-3.9,0.8-5.9,0.9c-8.5,0.2-17-2.9-24.6-6.5c-5-2.3-9.8-5.1-14.4-8.3C285,191.6,281.1,194.7,282.9,196L282.9,196z" fill="#000005"></path></g></svg>