<svg width="500" height="500" viewBox="0 0 500 500" fill="none" xmlns="http://www.w3.org/2000/svg">
<path d="M261.399 328.5C261.399 328.5 284.999 403.7 318.899 400.8C352.799 397.9 440.199 334.3 440.199 334.3L418.599 283L334.299 315.5L318.099 294L261.399 328.5Z" fill="white"/>
<path d="M260.1 328.4C261.1 331.7 262.3 335 263.6 338.2C266.5 345.9 269.9 353.5 273.6 360.9C277.9 369.7 283.1 378 289.2 385.7C294.5 392.2 301.1 398.7 309.2 401.6C312.7 402.9 316.5 403.4 320.3 403.1C323.8 402.7 327.2 401.9 330.5 400.9C339.1 398.1 347.5 394.6 355.5 390.3C365 385.5 374.2 380.3 383.3 374.8C392.3 369.4 401.1 363.9 409.8 358.1C416.7 353.5 423.6 348.9 430.4 344.2C433.9 341.8 437.3 339.4 440.7 336.9L441.2 336.6C441.8 336.2 441.6 335.1 441.3 334.5L434 317.1L422.4 289.6L419.7 283.2C419.4 282.5 418.5 280.4 417.4 280.8L409 284L388.9 291.8L364.5 301.2L343.4 309.3L336.4 312C335.3 312.3 334.2 312.7 333.1 313.3C333.1 313.3 333 313.3 333 313.4L334.4 314.1L320.3 295.2L318.3 292.5C318.1 292.2 317.4 291.5 316.9 291.8L297.7 303.5L267.2 322L260.2 326.3C258.8 327.1 261.2 331.5 262.4 330.8L281.6 319.1L312.1 300.5L319.1 296.2L317.7 295.5L331.9 314.4L333.9 317.1C334.2 317.5 334.8 318 335.3 317.8L343.7 314.6L363.8 306.8L388.2 297.4L409.3 289.3L416.2 286.6C417.3 286.2 418.4 285.8 419.5 285.3C419.5 285.3 419.6 285.3 419.6 285.2L417.3 282.8L424.6 300.2L436.2 327.7L438.9 334.1L439 332C436.7 333.7 434.4 335.3 432 337C426 341.2 420 345.3 413.9 349.4C405.6 354.9 397.3 360.3 388.8 365.6C379.7 371.2 370.6 376.6 361.2 381.6C352.8 386.2 344.1 390.3 335.2 393.9C328.7 396.4 321.3 399.1 314.2 398.5C306.3 397.9 299.5 393 294.2 387.7C291.2 384.6 288.4 381.2 285.9 377.6C284.5 375.6 283.2 373.6 282 371.6C281.4 370.6 280.8 369.6 280.1 368.5C279.8 368 279.5 367.5 279.3 367.1L278.6 365.9C276.4 361.9 274.3 357.8 272.4 353.7C271.5 351.8 270.6 349.8 269.8 347.9C269.6 347.5 269.4 347 269.3 346.6C269.2 346.4 269 345.9 269.2 346.3L268.9 345.5C268.5 344.6 268.2 343.8 267.8 342.9C266 338.4 264.3 333.9 262.8 329.4L262.6 328.8C262.4 328 261.5 326.4 260.6 326.4C259.7 326.4 260 327.9 260.1 328.4Z" fill="#000005"/>
<path d="M384.899 222.9C384.899 222.9 415.999 356.4 439.299 360.1C462.599 363.8 456.799 347.8 446.399 322.7C435.999 297.6 397.899 218.6 397.899 218.6L384.899 222.9Z" fill="#E987D0"/>
<path d="M382.5 222.5C383.4 226.6 384.5 230.6 385.5 234.6C388 244.5 390.6 254.4 393.4 264.3C396.9 276.8 400.7 289.2 404.8 301.5C408.6 313.2 413 324.6 418.1 335.8C420.1 340.2 422.4 344.6 425 348.7C426.9 351.8 429.2 354.7 431.8 357.1C435.3 360.1 439.5 360.6 444 361C448.7 361.4 455.5 361.3 457.4 355.9C458.1 353.5 458.2 350.9 457.6 348.4C457 345 456.1 341.6 454.8 338.3C452.4 331.5 449.6 324.8 446.7 318.1C441.5 306.2 436 294.4 430.5 282.6C424.4 269.5 418.2 256.4 412 243.4C408.3 235.6 404.5 227.7 400.8 219.9L400.3 218.8C400.1 218.3 398.6 218.2 398.2 218.1C397.3 217.9 396.4 217.8 395.4 218L382.5 222.3C382.1 222.4 384.1 223 384.2 223C385.2 223.3 386.3 223.4 387.3 223.2L400.2 218.9L395.4 218.1C398 223.5 400.6 229 403.2 234.5C409 246.7 414.8 258.8 420.5 271C426.4 283.5 432.2 296.1 437.9 308.7C440 313.3 442 318 444 322.7C447.1 330.2 450.5 337.9 452.3 345.8C453.2 350 454 356.1 449.6 358.7C447.3 359.9 444.7 360.3 442.1 360C441.4 360 440.6 359.9 440 359.8C440 359.8 438.9 359.6 439.6 359.7C440.5 359.9 438.8 359.5 440.2 359.8C439.7 359.7 440.7 359.9 440.2 359.8C439.9 359.8 440 359.7 440.1 359.8L439.7 359.7L439 359.3C436.4 357.6 434.1 355.4 432.4 352.9C429.8 349.3 427.5 345.5 425.6 341.5C420.5 331.1 416 320.4 412.3 309.4C408 297.2 404.2 284.9 400.6 272.5C397.6 262 394.7 251.5 392 240.9C390.6 235.3 389.1 229.7 387.8 224C387.7 223.7 387.7 223.5 387.6 223.2C387.5 222.7 385.6 222.5 385.2 222.5C384.8 222.5 382.4 222.2 382.5 222.5Z" fill="#E987D0"/>
<path d="M450.2 311.3C452.1 312.1 466.3 313.2 462.3 324C458.3 334.8 449.4 340.5 442.9 335.4C436.4 330.3 450.2 311.3 450.2 311.3Z" fill="white"/>
<path d="M449.9 312.2C450.7 312.5 451.5 312.7 452.4 312.9L453.5 313.1L453.7 313.2C454 313.3 453.3 313.1 453.6 313.2L454.4 313.4C454.9 313.5 455.3 313.6 455.7 313.8L456.2 314L456.8 314.2C457 314.3 457.7 314.6 457.1 314.3C457.3 314.4 457.5 314.5 457.7 314.6L458.1 314.8C457.8 314.6 458.4 315 458.1 314.8C458.4 315 458.6 315.1 458.8 315.3C458.5 315.1 459.1 315.6 459.1 315.6C459.2 315.7 459.3 315.8 459.4 315.9C459.7 316.3 460 316.7 460.2 317.2C460.6 318.3 460.8 319.5 460.6 320.6C460.1 324.1 458.1 327.6 456 330.3C454.1 332.7 451.5 335 448.5 335.8C447.9 335.9 447.4 336 446.8 336C446.6 336 446.2 336 446.1 336L445.6 335.9C445.9 335.9 445.2 335.8 445.5 335.9C445.8 336 444.8 335.6 445.2 335.8C445 335.7 444.8 335.5 444.6 335.4C444.4 335.2 444.2 335 444.1 334.7C443.2 333.1 443.5 330.9 443.9 329.2C444.5 326.7 445.5 324.4 446.6 322.1C448.3 318.7 450.3 315.4 452.6 312.3C453.2 311.4 448.9 309.1 448 310.4C445.8 313.4 443.8 316.7 442.1 320C440.8 322.4 439.8 325 439.2 327.7C438.7 329.9 438.6 332.4 440 334.2C442 336.9 446.1 338.5 449.4 338.6C452.8 338.6 456 337.2 458.4 334.8C461.4 331.9 463.7 328.3 464.9 324.3C465.9 321.8 465.5 318.9 463.9 316.7C461.9 314.1 458.7 312.6 455.7 311.6C454.4 311.2 453.1 310.9 451.8 310.6L450.5 310.3C449.9 310.2 450.8 310.4 450.5 310.3C450.2 310.2 449.7 310 450.7 310.4C450.2 310.2 448.4 309.5 448 310.3C447.6 311.1 449.4 312 449.9 312.2Z" fill="#000005"/>
<path d="M441.499 290.9C443.999 291.9 462.099 293.8 457.399 306.5C452.699 319.2 441.599 325.6 432.999 319.3C424.399 313 441.499 290.9 441.499 290.9Z" fill="white"/>
<path d="M439.5 292.3C441.1 292.9 442.9 293.1 444.5 293.6C447.1 294.2 449.5 295.3 451.8 296.7C454.1 298.1 455.6 300.4 456 303C456.3 306.9 454 311 451.9 314.1C450.8 315.7 449.5 317.2 447.9 318.4C446.9 319.2 445.6 319.8 444.3 320.1C440.9 320.8 437.4 319.9 434.8 317.6C430.8 313.8 434.1 306.5 436 302.5C437.5 299.6 439.1 296.8 440.9 294C441.5 293.1 442.1 292.2 442.8 291.3L443.4 290.5C443.5 290.3 443.9 289.9 443.4 290.5C443.9 289.8 443.8 289.3 442.8 289.5C441.6 289.7 440.5 290.4 439.7 291.3C436.9 294.9 434.5 298.8 432.4 302.8C430.8 305.7 429.6 308.9 428.8 312.2C428.3 314.7 428.3 317.7 430 319.7C432.3 322.4 436.5 323.5 440 323.1C444.6 322.5 448.9 320.3 452.2 317.1C455.8 313.7 458.5 309.4 460 304.6C461 301.6 460.4 298.4 458.4 296C456.3 293.6 453.1 292.2 450.1 291.2C448 290.5 445.7 290.3 443.6 289.5C442.7 289.2 441.3 290 440.6 290.5C440.3 290.8 438.7 292 439.5 292.3Z" fill="#000005"/>
<path d="M426.3 267.9C426.3 267.9 439.7 268.9 443.2 280.8C446.7 292.7 433.4 306.7 425.2 301.9C417 297.1 430 280.6 430 280.6" fill="white"/>
<path d="M427.1 270C430.2 270.3 433.2 271.3 435.9 273C438.2 274.3 439.9 276.4 440.9 278.8C442.1 281.8 442.2 285.1 441.2 288.2C439.5 293.7 434.8 299.8 428.8 300.7C427.7 300.9 426.5 300.8 425.5 300.4C425.3 300.3 425.1 300.2 424.9 300.1C424.8 300.1 424.5 299.8 424.7 300C424.9 300.2 424.6 299.9 424.6 299.9C424.3 299.6 424.6 299.9 424.6 300C424.3 299.4 424.5 300.1 424.4 299.6C424.3 299.1 424.4 299.7 424.3 299.2C424.2 299 424.2 298.7 424.2 298.5C424.2 298 424.2 297.5 424.3 297C424.5 295.8 424.7 294.7 425.2 293.5C426.2 290.8 427.5 288.3 429.1 285.9C429.9 284.6 430.7 283.4 431.4 282.5C432.6 281 429.2 277.4 428.3 278.6C425.6 282 423.4 285.8 421.8 289.8C420.8 292.4 420.1 295.3 420.9 298C421.9 301.4 424.7 304.1 428.2 304.8C435 306.1 441.2 299.6 443.8 294C445.5 290.4 446 286.4 445.2 282.5C444.2 278.5 442.1 274.9 439.1 272.1C435.3 268.6 430.5 266.4 425.3 265.8C423 265.6 425.4 269.8 427 270H427.1Z" fill="#000005"/>
<path d="M282.1 431.2C282.1 431.2 287.5 376.8 284.7 321.1L333.7 301.4C333.7 301.4 281 210.1 243 204.5C238.1 202.8 232.9 202.6 227.9 203.9C154 198.5 90.7996 268 90.7996 268L134.1 314.4C108.2 361.4 89.5996 405.5 89.5996 405.5" fill="white"/>
<path d="M284.6 431.2C285.3 424 285.799 416.8 286.299 409.5C287.4 392 288 374.6 288.1 357.1C288.1 345.1 287.9 333.1 287.299 321L286.5 321.8L303.1 315.1L329.299 304.5L335.4 302C335.799 301.8 336.3 301.4 336 300.9C334.2 297.7 332.199 294.6 330.299 291.5C325.499 283.8 320.499 276.3 315.299 268.9C308.6 259.4 301.6 250 294.1 241.2C286.7 232.5 278.9 224.1 270.1 216.8C262.8 210.8 254.5 205.4 245.2 203.4C243.7 203.1 242.3 202.6 240.8 202.3C238.4 201.8 235.9 201.6 233.5 201.7C232.3 201.7 231 201.8 229.8 202C229.1 202.1 228.5 202.2 227.8 202.4C227.6 202.4 227.3 202.5 227.1 202.5C228.1 202.4 227 202.4 226.8 202.4C224.9 202.3 223.1 202.2 221.2 202.2C213.7 202.1 206.2 202.7 198.8 204C184.5 206.5 170.5 211 157.4 217.3C145.6 222.9 134.3 229.6 123.7 237.2C115.4 243.1 107.5 249.4 99.9995 256.2C96.1995 259.6 92.4995 263.1 88.9995 266.8L88.2995 267.6C87.9995 267.9 88.2995 268.3 88.4995 268.5L103.2 284.3L126.4 309.2L131.8 315L131.6 314.1C122.4 330.9 113.6 348 105.3 365.3C99.8995 376.5 94.6995 387.8 89.6995 399.2C88.7995 401.2 87.9995 403.2 87.0995 405.2C86.3995 406.9 91.2995 407.3 91.8995 405.9C94.3995 400 97.0995 394.1 99.6995 388.2C106.3 373.6 113.2 359.2 120.5 344.9C125.6 334.8 130.9 324.7 136.4 314.8C136.6 314.4 136.4 314.2 136.2 313.9L121.5 298.1L98.2995 273.2L92.8995 267.4L93.0995 268.3C92.4995 268.9 93.1995 268.2 93.3995 268C93.8995 267.5 94.3995 267 94.8995 266.5C96.6995 264.7 98.4995 262.9 100.4 261.1C106.9 255 113.7 249.2 120.8 243.8C130.5 236.4 140.7 229.7 151.5 223.9C163.6 217.3 176.5 212.1 189.8 208.6C196.7 206.8 203.8 205.6 211 205C214.5 204.7 218.1 204.6 221.6 204.7C223.5 204.7 225.4 204.8 227.2 204.9C229.5 205 231.9 204.2 234.2 204.1C236.5 204.1 238.7 204.4 240.8 205.1C241.6 205.3 242.3 205.5 243.1 205.7L243.7 205.8C243.8 205.8 244.1 205.9 243.7 205.8L244.2 205.9C245.2 206.1 246.1 206.4 247.1 206.7C247.9 207 248.8 207.3 249.6 207.6C253.7 209.4 257.699 211.7 261.299 214.4C270.199 220.8 277.9 228.7 285.2 236.8C292.8 245.5 300 254.5 306.7 263.9C312.4 271.8 317.8 279.8 323 287.9C325.7 292.2 328.4 296.5 331 300.9L331.299 301.5L332 300.4L315.4 307.1L289.2 317.7L283.1 320.2C282.8 320.3 282.299 320.7 282.4 321C283.4 341.5 283.4 362 282.799 382.4C282.299 396.2 281.6 410 280.5 423.8C280.3 426.3 280.1 428.7 279.9 431.2C279.5 432.7 284.5 432.9 284.6 431.2Z" fill="#000005"/>
<path d="M135.9 334.8C135.9 334.8 194.5 321 223.8 325.7C253.1 330.4 259.3 358.4 253.8 363.7C248.3 369 233.3 345.3 233.3 345.3C233.3 345.3 230 377.8 217.9 372.3C217.9 372.3 213.8 388.3 201.6 380.4C201.6 380.4 187.9 392.5 183.4 385.5C178.9 378.5 188.2 372.2 188.2 372.2C188.2 372.2 87.1001 440.4 50.5001 395.3C3.70008 337.6 93.7001 271.7 93.7001 271.7L157.7 315.3L135.9 334.8Z" fill="white"/>
<path d="M136.9 337.1C144.8 335.2 151.9 333.9 160 332.4C175.2 329.7 190.7 327.5 206.1 327.1C213.1 326.9 220.1 327 227 328.6C230.7 329.5 234.3 330.9 237.7 332.8C239.1 333.6 240.5 334.6 241.8 335.6C243 336.5 244 337.5 245.1 338.6C246.2 339.8 247.2 341 248.1 342.3C248.3 342.6 248.5 342.8 248.7 343.1L249 343.6C249.3 344 248.7 343.1 249.1 343.7C249.5 344.3 249.8 344.9 250.1 345.5C250.8 346.7 251.3 348 251.8 349.3C251.9 349.5 252.1 350.2 251.9 349.7C252 350 252.1 350.3 252.2 350.6C252.4 351.2 252.6 351.8 252.7 352.4C252.8 353 252.9 353.5 253 354.1L253.1 354.9L253.2 355.3C253.3 355.8 253.2 354.9 253.2 355.4C253.3 356.4 253.3 357.3 253.2 358.3C253.2 358.5 253.1 358.7 253.1 358.9C253.1 359.1 253.2 358.4 253.1 358.8C253.1 358.9 253.1 359 253.1 359.1C253 359.5 252.9 359.9 252.8 360.3C252.7 360.5 252.7 360.6 252.6 360.8C252.5 361 252.9 360.4 252.6 360.8C252.4 361.1 252.2 361.3 252.1 361.6C251.9 361.9 252.3 361.4 252.3 361.4C252.3 361.4 252.2 361.5 252.1 361.6C252 361.7 251.4 362 252 361.7L251.5 361.9C251.1 362 251.9 361.9 251.6 361.9C251.5 361.9 251.3 361.9 251.2 361.9C251.1 362 250.6 361.8 251.3 361.9C251.2 361.9 251.1 361.9 251 361.9C250.9 361.9 250.2 361.7 250.6 361.8C251 361.9 250.2 361.7 250.2 361.6C249.9 361.5 249.7 361.3 249.4 361.2C248.8 360.9 249.5 361.3 249.1 361L248.4 360.5C247.9 360.1 247.4 359.7 246.9 359.2L246.2 358.5C246.1 358.4 245.5 357.8 245.9 358.2C245.3 357.6 244.8 357.1 244.3 356.4C241 352.7 238 348.7 235.3 344.5C235.1 344.3 235 344 234.8 343.7C234.2 342.7 233 342.4 232 342.9C231.4 343.2 231 343.8 231 344.5C231 344.8 230.9 345.1 230.9 345.3C230.9 345.5 230.8 345.9 230.8 346.2C230.8 346.5 230.7 346.6 230.7 346.8C230.7 347 230.6 347.7 230.6 347.3C230.6 346.9 230.6 347.6 230.5 347.8C230.4 348 230.4 348.3 230.4 348.6L230.1 350.4C229.9 351.7 229.6 353 229.3 354.4C228.7 357.2 227.9 360 226.8 362.7C226.4 363.9 225.8 365.1 225.2 366.2C224.9 366.7 224.6 367.2 224.3 367.6C224.1 367.8 223.9 368.1 223.7 368.3L223.5 368.6C223.2 368.9 223.7 368.4 223.4 368.7C223 369.1 222.6 369.4 222.1 369.7C221.7 369.9 222 369.8 222.1 369.7C222 369.8 221.8 369.8 221.7 369.9C221.4 370 221.2 370.1 220.9 370.2C220.4 370.3 220.6 370.3 220.9 370.2C220.8 370.2 220.6 370.2 220.5 370.3H220.2C219.7 370.3 220.1 370.3 220.1 370.3C219.8 370.3 219.5 370.2 219.2 370.1L218.9 370C219.5 370.2 218.7 369.9 218.6 369.9C217.7 369.4 216.5 369.7 216 370.6C215.9 370.7 215.9 370.8 215.8 370.9C215.6 371.7 215.3 372.4 215 373.1C215 373.2 214.9 373.4 214.8 373.5C214.6 374.1 214.9 373.4 214.7 373.7C214.5 374 214.3 374.4 214.1 374.8C213.7 375.6 213.2 376.3 212.7 377C211.7 378.3 210.4 379.3 208.8 379.7C208.6 379.8 208.5 379.8 208.7 379.7L208.3 379.8H207.6C207.2 379.8 206.7 379.8 206.3 379.7C205 379.4 203.8 378.9 202.7 378.2C201.9 377.7 200.8 377.3 200 378C197.2 380.6 193.9 382.7 190.4 384.2C189.4 384.7 188.3 384.9 187.2 385C187.1 385 186.5 385 186.9 385C186.6 385 186.4 384.9 186.1 384.9C185.7 384.8 186 384.9 186.1 384.9C186 384.9 185.9 384.8 185.7 384.7C185.5 384.6 185.4 384.5 185.2 384.3C185.6 384.7 185.1 384.1 185 384C185.1 384.2 184.6 383.3 184.6 383.2C184.4 382.7 184.3 382.1 184.3 381.6C184.4 380.3 184.8 379 185.6 378C186.7 376.3 188.1 374.9 189.7 373.9C191.9 372.4 188.8 368.5 186.6 370C183.5 372.1 180.4 374 177.2 375.9C175.6 376.9 174 377.8 172.3 378.8C170.2 380 169 380.7 166.9 381.8C162.5 384.2 158 386.6 153.5 388.8C143.2 393.9 132.5 398.3 121.5 401.9C110.6 405.4 99.4998 408 87.9998 408.2C82.7998 408.4 77.6998 407.8 72.6998 406.6C70.3998 406.1 68.1998 405.4 65.9998 404.4C64.8998 403.9 63.6998 403.4 62.6998 402.8C62.1998 402.5 61.6998 402.2 61.1998 401.9C60.6998 401.6 61.0998 401.8 61.1998 401.9L60.7998 401.7L59.8998 401.1C58.8998 400.4 57.8998 399.6 56.8998 398.8C56.3998 398.4 55.9998 398 55.4998 397.6C55.2998 397.4 55.0998 397.2 54.7998 397L54.2998 396.5C52.0998 394.1 50.0998 391.6 48.2998 388.9C44.7998 383.7 42.1998 377.9 40.6998 371.7C37.9998 360.4 39.4998 348.7 43.4998 337.7C47.4998 326.7 53.7998 316.6 60.9998 307.4C67.2998 299.4 74.1998 292 81.6998 285.1C85.7998 281.3 90.0998 277.6 94.5998 274.2L95.1998 273.7L92.4998 273.5L114.3 288.3L148.7 311.7L156.6 317.1L156.2 313.4L137.1 330.4L134.3 332.9C132.3 334.7 135.4 338.6 137.4 336.8L156.5 319.8L159.2 317.4C160.1 316.4 160.1 314.9 159.1 313.9C159 313.8 158.9 313.7 158.8 313.7L137.1 298.9L102.7 275.5L94.7998 270.2C93.9998 269.5 92.8998 269.5 92.0998 270C88.7998 272.4 85.6998 275.1 82.5998 277.7C75.1998 284.2 68.1998 291.1 61.7998 298.6C53.8998 307.5 47.2998 317.5 42.0998 328.1C36.9998 339.1 33.7998 351.3 34.7998 363.5C35.3998 370 36.9998 376.3 39.6998 382.2C42.4998 388.5 46.2998 394.2 50.9998 399.2C58.5998 407 68.6998 411.4 79.3998 412.6C90.9998 413.9 102.6 412.2 113.8 409.4C125.4 406.3 136.7 402.3 147.6 397.2C157 393 166.1 388.2 175 383.1C179.7 380.4 184.4 377.6 188.9 374.6L189.5 374.2L186.4 370.3C181.4 373.7 177.6 380.2 181 386C185 392.9 193 389.4 198.1 386C199.8 384.9 201.4 383.7 202.9 382.4L200.2 382.2C202.9 383.9 206 385.3 209.3 384.9C211.8 384.5 214.1 383.2 215.7 381.3C217.7 379 219.1 376.3 219.8 373.4L217 374.5C219.5 375.8 222.5 375.6 224.9 374C227 372.4 228.7 370.2 229.8 367.7C232.2 362.2 233.9 356.4 234.6 350.5C234.8 349 235.1 347.4 235.2 345.9L231.3 346.7C233.5 350.1 235.9 353.5 238.5 356.6C240.5 359.1 242.6 361.4 245 363.5C246.9 365.1 249.3 366.9 252 366.8C256.6 366.8 257.7 361.3 257.6 357.7C257.3 352.2 255.6 346.8 252.6 342.2C248.8 336 243.3 331 236.8 327.7C229.6 324.1 221.7 322.9 213.8 322.6C197.6 321.9 181.3 324.1 165.4 326.7C158.8 327.8 152.2 329 145.7 330.3C142.2 331 138.6 331.7 135.1 332.6L134.6 332.7C133.4 333 133.2 334.7 133.7 335.7C134.4 336.7 135.7 337.3 136.9 337.1Z" fill="#000005"/>
<path d="M205 356.9C205.1 357.1 205.2 357.3 205.2 357.5C205.3 357.6 205.5 358.2 205.3 357.8C205.4 358.1 205.5 358.4 205.6 358.7C206.1 360.4 206.4 362.2 206.4 364C206.5 370 203.5 375.3 199.3 379.3C197.8 380.7 202.3 382.7 203.7 381.4C208.3 377 211.3 371.3 211.2 364.9C211.2 362.1 210.6 359.4 209.5 356.8C208.8 355.8 207.6 355.2 206.4 355.3C205.5 355.3 204.5 355.9 205 356.9Z" fill="#000005"/>
<path d="M218.9 349.5C220.9 356.7 219.8 364.5 215.8 370.9C215 372.1 219.1 374.9 219.9 373.7C224.1 366.9 225.2 358.7 223 351.1C222.5 350 221.5 349.2 220.4 348.9C219.8 348.5 218.5 348.4 218.9 349.5Z" fill="#000005"/>
<path d="M88.0999 341.7C90.1999 341.1 92.2999 340.7 94.4999 340.5C98.4999 340 102.4 339.5 106.4 339C115.1 338 123.9 337.1 132.6 336.3C135.2 336.1 137.8 335.8 140.5 335.6C141.5 335.5 139.3 331.4 138 331.5C131.8 331.8 125.5 332.6 119.3 333.2C110.5 334.1 101.8 335 92.9999 336.2C90.2999 336.4 87.6999 336.9 85.1999 337.6C84.3999 337.9 86.6999 342.2 88.0999 341.7Z" fill="#000005"/>
<path d="M288.8 316.4L287.5 271.2C287.4 268.6 282.5 268.4 282.5 271.2L283.8 316.4C283.9 319 288.8 319.2 288.8 316.4Z" fill="#000005"/>
<path d="M401 309.8C401 309.8 419.8 249 403.8 247.3C387.8 245.6 381.3 284.4 379.6 289.4C379.6 289.4 369.8 295.3 369.8 307" fill="white"/>
<path d="M403.199 309.5C404.799 304.3 406.199 299 407.399 293.8C409.699 284.2 411.799 274.3 412.399 264.4C412.799 260.3 412.499 256.3 411.599 252.3C410.899 249.6 409.299 246.9 406.399 246C401.999 244.7 397.099 246.9 393.899 249.9C390.099 253.3 387.599 257.9 385.599 262.5C383.499 267.4 381.799 272.4 380.499 277.5C379.899 279.7 379.299 281.9 378.799 284.1C378.599 285 378.399 285.8 378.199 286.7C378.099 287.1 377.999 287.4 377.899 287.7L377.799 288.2C377.699 288.4 377.699 288.6 377.699 288.4C377.599 288.8 377.499 289.3 377.299 289.7L378.399 288.5C371.799 292.6 367.599 299.8 367.399 307.6C367.399 309.6 372.099 308 372.099 306.2C372.099 302.5 373.199 298.8 375.199 295.7C375.899 294.6 376.799 293.5 377.699 292.6C378.099 292.2 378.499 291.8 378.899 291.5L379.399 291.1C379.599 291 380.199 290.5 379.599 290.9L380.599 290.2C381.399 289.7 381.899 288.9 381.999 287.9C382.499 286.2 382.899 284.5 383.299 282.7C384.499 277.5 385.999 272.4 387.799 267.3C389.599 262.1 391.799 256.8 395.399 252.5C396.099 251.6 396.799 250.9 397.699 250.2L397.999 250C397.599 250.3 397.899 250.1 397.999 250L398.599 249.6L398.899 249.4C398.499 249.6 399.399 249.1 398.899 249.4L399.699 249C400.099 248.8 399.699 249 399.599 249L399.999 248.9C400.199 248.9 400.299 248.8 400.499 248.8C400.699 248.8 400.899 248.8 401.099 248.7H401.499C401.899 248.7 401.299 248.7 401.599 248.7C401.899 248.7 402.199 248.7 402.499 248.7C402.599 248.7 403.199 248.8 402.699 248.7C402.999 248.8 403.399 248.9 403.699 249C403.799 249 404.199 249.2 403.899 249.1L404.299 249.4C404.599 249.6 404.899 249.8 405.099 250.1C405.299 250.3 405.499 250.5 405.599 250.7C405.799 251 405.999 251.4 406.199 251.7C406.899 253.2 407.399 254.9 407.599 256.6C408.099 261.4 407.999 266.3 407.399 271.2C406.799 276.8 405.699 282.4 404.499 288C402.899 295.3 400.999 302.6 398.899 309.8C398.899 309.9 398.799 310 398.799 310.2C398.099 312.3 402.799 311 403.199 309.5Z" fill="#000005"/>
<path d="M200.2 178C200.2 178 168.2 180.7 164.5 167.4C160.8 154.1 180.6 159.4 180.6 159.4C180.6 159.4 160.2 130.8 192.6 129.6C192.6 129.6 168.2 107 191.2 90.8999C214.2 74.7999 254.4 91.2999 254.4 91.2999C254.4 91.2999 256.4 62.7999 288.5 69.9999C320.6 77.1999 310.9 93.2999 310.9 93.2999C310.9 93.2999 331.5 97.5999 331 107.5C330.5 117.4 314.5 119.4 314.5 119.4C314.5 119.4 305.6 146.6 277.7 139.4L246.6 171.4C246.6 171.4 254.9 185.2 243 197.2C231.1 209.2 196.8 195.9 200.2 178Z" fill="#000005"/>
<path d="M200.1 177.5H199.5H198.8H198.4H198.2C197.7 177.5 198.9 177.5 198.4 177.5C197.6 177.5 196.8 177.6 196 177.6H194.6H193.3C188.2 177.6 183.2 177 178.3 175.8C174 174.7 169.1 172.5 167.2 168.2C166.4 166.2 165.9 163.4 167 161.4C167.4 160.6 168.1 160 168.9 159.5C169.2 159.3 169.6 159.2 169.9 159C170.2 158.9 170.5 158.8 170.8 158.8C171.2 158.7 170.8 158.8 170.7 158.8C170.8 158.8 171.5 158.7 170.8 158.8C171 158.8 171.6 158.8 171.1 158.8C171.3 158.8 172.2 158.8 171.6 158.8H172.4H172.9L173.7 158.9C174.2 159 174.8 159 175.3 159.1C175.8 159.2 177.3 159.5 178.3 159.7C179.2 159.9 180.2 159.9 181.1 159.7C181.2 159.7 183.1 159.3 182.9 159.1C180.9 156.2 179.2 153.1 178.1 149.8C176.3 144.8 175.5 138.4 179.7 134.3C182.9 131.2 187.6 130.2 191.8 130.1C192.1 130.1 195.3 129.7 194.8 129.3C186.1 121.3 179.1 107 187.4 96.2999C193.2 88.7999 203 85.0999 212.2 84.3999C220.7 83.7999 229.4 85.0999 237.7 87.0999C242.5 88.2999 247.3 89.7999 251.9 91.5999C252.5 91.7999 256.7 91.9999 256.8 91.0999C257.4 83.0999 262.2 74.8999 269.4 71.2999C270.8 70.5999 272.3 70.0999 273.9 69.6999C275.5 69.2999 277.1 69.1999 278.8 69.2999C284.4 69.5999 290 70.8999 295.2 72.9999C301 75.1999 307.9 78.8999 309.3 85.4999C309.9 88.1999 309.5 91.0999 308.2 93.4999C308.3 93.5999 308.4 93.6999 308.6 93.6999C314.1 94.8999 319.9 96.8999 324.3 100.4C327.1 102.6 329 105.7 328.1 109.4C327.2 113.1 323.6 115.6 320.1 117.1C318.5 117.8 316.8 118.3 315.1 118.7L314.6 118.8C314.2 118.9 314.9 118.7 314.4 118.8L313.7 118.9C313.5 118.9 313.3 119 313.2 119C312.9 119.1 313.9 118.9 313.6 118.9C313.3 118.9 312 119 311.8 119.5C310.8 122.4 309.3 125.2 307.5 127.7C303.9 132.9 298.8 137.3 292.7 139.2C291.7 139.5 290.7 139.7 289.7 139.9C288.9 140 288.1 140.1 287.3 140.1C284.7 140 282.1 139.7 279.6 139C278.8 138.9 277.9 138.9 277.1 139C276.6 139.1 275.5 139.1 275.1 139.5L264.6 150.3L247.8 167.5L243.9 171.5L243.8 171.6C245.7 174.9 246.6 178.7 246.6 182.5C246.6 189.2 242.9 196.6 236.8 199.7C235.8 200.2 234.7 200.6 233.5 200.9L233 201C232.9 201 232.1 201.1 232.4 201.1C232.3 201.1 231.4 201.2 231.8 201.2H231.3H231.1C228.6 201.2 226 200.9 223.6 200.3C218.1 199 212.9 196.4 208.6 192.6C204.4 188.8 201.4 183.5 202.5 177.7C202.6 177.4 197.7 177.1 197.5 178.1C195.6 188.5 205.7 196.2 214.3 199.5C219.6 201.6 225.3 202.5 231 202.2C236 201.9 241.3 200.8 245 197.2C250 192.4 252.3 185.4 251.2 178.5C250.8 176.4 250.2 174.5 249.4 172.6C249.2 172.2 249 171.8 248.8 171.4C248.7 171.2 248.6 171.6 248.8 171.3C249.3 170.6 249.9 170 250.6 169.4L254.1 165.8L263.8 155.8C269 150.5 274.4 145.3 279.4 139.8C279.5 139.7 279.6 139.6 279.7 139.5L275.2 139.9C284.5 142.3 295.2 141.8 303.5 136.5C308.5 133.1 312.6 128.4 315.2 122.9C315.8 121.7 316.3 120.6 316.7 119.3L314.9 119.9C317.5 119.5 320 118.9 322.4 118.1C326 116.9 329.9 114.9 331.9 111.5C336.9 103.3 326.7 97.6999 320.3 95.2999C317.9 94.3999 315.3 93.5999 312.8 92.9999L313.2 93.1999C314.4 90.9999 314.9 88.3999 314.5 85.9999C313.5 79.1999 306.7 75.1999 301 72.7999C291.1 68.7999 279.2 66.6999 268.8 69.7999C262.8 71.5999 257.7 75.7999 254.9 81.3999C253.2 84.4999 252.2 87.9999 251.9 91.4999L256.8 90.9999C243.9 85.9999 230.2 83.3999 216.4 83.3999C206 83.5999 195.1 85.6999 186.9 92.3999C183.2 95.3999 180.2 99.3999 179.3 104.2C178.6 108.1 179.1 112.1 180.6 115.8C182.8 121.2 186.1 126 190.3 129.9L193.3 129.1C185.7 129.4 174.2 130.6 172.1 139.6C170.8 145.1 173.2 151 175.8 155.7C176.5 157 177.3 158.2 178.1 159.5L182.7 158.9C179.3 158 175.8 157.7 172.3 157.8C167.7 158 161.2 159 161.5 165C161.8 170.5 166.2 173.8 171 175.6C176.5 177.6 182.5 178.3 188.4 178.5C192.3 178.7 196.3 178.6 200.2 178.3C200.5 178.3 202.7 178.2 202.7 177.7C202.7 177.2 200.3 177.5 200.1 177.5Z" fill="#000005"/>
<path d="M310.499 213C331.299 191 311.499 124.1 311.499 124.1C288.699 126.9 254.199 101.6 254.199 101.6C263.499 123.5 240.799 160.7 240.799 160.7C232.999 141.1 212.599 140.4 213.199 159.3C213.799 178.2 231.799 181 231.799 181C231.799 181 223.399 212.9 224.899 220.4C226.399 227.9 264.499 266.5 278.199 230.6C290.499 228.2 301.799 222.1 310.499 213Z" fill="white"/>
<path d="M312.7 213.3C317.2 208.5 319.6 202.2 320.9 195.8C322.3 188.4 322.8 180.9 322.4 173.3C321.7 159.4 319.6 145.7 316.2 132.2C315.5 129.3 314.8 126.4 314 123.6C313.7 122.6 312.2 122.6 311.3 122.6C309.2 122.8 307.1 122.8 305.1 122.6C302.6 122.3 300.1 121.9 297.7 121.3C292.8 120 288 118.3 283.3 116.1C275.4 112.5 267.9 108.3 260.7 103.4C259.2 102.4 257.7 101.4 256.3 100.3C255.2 99.5 251.1 100 251.9 101.9C255.7 111 253.9 121.8 251.3 130.9C248.8 139.4 245.4 147.6 241.2 155.3C240.6 156.5 239.9 157.7 239.3 158.8C239.1 159.1 238.9 159.5 238.7 159.8C238.3 160.6 238.6 160 238.7 159.8H243.4C240.9 153.5 236.6 147.7 230.2 145C225.1 142.8 218.7 143.3 214.6 147.3C210.1 151.7 210.1 159.5 211.6 165.2C213.1 170.7 216.7 175.3 221.5 178.3C224.3 180.1 227.4 181.3 230.6 181.8L229.3 180.5C227.7 186.6 226.3 192.7 225 198.9C224 203.4 223.1 208 222.6 212.6C222.3 215.2 221.7 218.5 222.6 221.1C223.6 223.5 225.1 225.6 226.8 227.5C229.3 230.4 232 233.1 235 235.5C241.2 240.7 248.9 245.5 257.1 246.4C261.3 246.9 265.6 246.2 269.4 244.3C273.5 242 276.8 238.4 278.8 234.1C279.5 232.8 280 231.5 280.6 230.2L278.3 231.5C280.9 231.1 283.5 230.5 286.1 229.6C291.9 227.7 297.5 225 302.6 221.6C306.3 219.1 309.7 216.2 312.8 213C313.6 212.2 312.4 211.5 311.7 211.4C310.5 211.2 309.3 211.5 308.4 212.3C300.7 220.4 290.8 226 279.9 228.6L279.4 228.7C278.8 228.8 279.7 228.6 279.4 228.7L278.7 228.8L278.1 228.9C277.3 229 276.2 229.3 275.8 230.2C274.2 234.4 271.9 238.7 268.2 241.5C267.6 242 266.9 242.4 266.2 242.7C265.8 242.9 265.4 243.1 265 243.2C264.4 243.5 265.4 243.1 264.8 243.3C264.5 243.4 264.3 243.5 264 243.5L263.4 243.7C262.7 243.9 263.9 243.6 263.2 243.7C262.8 243.8 262.4 243.8 262 243.9C261.9 243.9 261.2 243.9 261.8 243.9H261C260.5 243.9 260 243.9 259.5 243.9C258.8 243.9 260 244 259.3 243.9L258.7 243.8C258.3 243.7 257.8 243.7 257.4 243.6C256.6 243.5 255.7 243.2 254.9 243C253.1 242.4 251.4 241.7 249.8 240.9C246.2 239.1 242.9 236.9 239.8 234.3C237 232 234.4 229.6 232 226.9C230.3 225 228.8 222.9 227.6 220.7C227.6 220.6 227.5 220.5 227.5 220.4C227.4 220.1 227.6 220.7 227.5 220.4C227.4 220.1 227.4 220.1 227.3 219.9C227.2 219.4 227.1 218.9 227.1 218.4C227 216.8 227.1 215.3 227.3 213.8C227.7 209.5 228.5 205.3 229.4 201.1C230.8 194.2 232.4 187.4 234.2 180.7C234.4 179.9 233.5 179.5 232.9 179.4L232.4 179.3L231.9 179.2C231.5 179.1 232.3 179.3 232 179.2L231.5 179.1C230.8 178.9 230.2 178.7 229.5 178.4C228.8 178.1 227.7 177.7 227.4 177.5C223.2 175.5 219.8 172.1 217.8 168C215.4 163 214.6 155.9 217.2 150.8C217.7 149.8 218.3 149 219.1 148.2C219.7 147.6 220.4 147.2 221.1 146.9C221.5 146.7 220.9 146.9 221.4 146.8C221.6 146.7 221.8 146.7 222.1 146.6C221.5 146.7 222.3 146.6 222.4 146.6H222.8C222.5 146.6 222.6 146.6 222.8 146.6H223.8H224C224.6 146.7 225.1 146.8 225.4 146.9C231.7 148.8 236.1 154.8 238.5 160.7C239.1 162.2 242.4 162 243.2 160.7C245.9 156.1 248.4 151.3 250.5 146.4C254.6 137.1 258 127.2 258.9 117C259.5 111.4 258.7 105.8 256.7 100.6L252.3 102.2C256.6 105.3 261.1 108.2 265.7 110.8C274.7 116 284.2 120.8 294.3 123.4C300 125 305.9 125.6 311.7 125L309.1 124C311.4 131.8 313.2 139.8 314.5 147.8C315.8 155.1 316.8 162.5 317.3 169.9C317.9 177.5 317.7 185.1 316.6 192.6C315.5 199.6 313.3 206.9 308.3 212.2C307.5 213.1 308.7 213.7 309.4 213.8C310.5 214.3 311.8 214 312.7 213.3Z" fill="#000005"/>
<path d="M263.199 182.4C262.799 182.3 263.999 182.8 263.599 182.5L262.999 182.2C262.699 182 262.399 181.9 262.099 181.7L261.899 181.6L261.799 181.5C261.499 181.3 262.199 181.7 262.099 181.7C261.899 181.6 261.699 181.4 261.499 181.3C261.099 181 260.799 180.7 260.399 180.4L260.299 180.3C260.299 180.3 260.699 180.7 260.499 180.5C260.399 180.4 260.299 180.3 260.299 180.3C260.099 180.1 259.899 179.9 259.799 179.7C259.699 179.6 259.599 179.5 259.599 179.4C259.599 179.3 259.299 179 259.499 179.3C259.699 179.6 259.499 179.2 259.399 179.2L259.199 178.8C259.099 178.6 258.999 178.4 258.899 178.1C258.899 178 258.899 178 258.799 177.9C258.699 177.7 258.899 178.1 258.799 178.1C258.699 178.1 258.699 177.7 258.699 177.6C258.599 177.3 258.599 176.9 258.599 176.6C258.599 176.5 258.599 176.3 258.599 176.1C258.599 175.9 258.599 176.1 258.599 176.2C258.599 176.3 258.599 176 258.599 175.9C258.699 175.1 258.999 174.3 259.399 173.6C259.499 173.1 259.399 172.6 258.999 172.3C258.599 171.8 258.099 171.5 257.499 171.3C256.499 171 255.099 171 254.599 172.1C253.899 173.5 253.599 175 253.699 176.6C253.899 178 254.399 179.3 255.199 180.5C256.599 182.4 258.299 183.9 260.399 184.9C260.999 185.2 261.599 185.5 262.199 185.7C263.099 186 264.699 186 265.099 184.9C265.499 183.8 263.999 182.7 263.199 182.4Z" fill="#000005"/>
<path d="M304.4 156.4C304.4 156.4 303.9 160 307.5 160.2C311.1 160.4 311.3 156 308.3 154.9C305.3 153.8 304.4 156.4 304.4 156.4Z" fill="#000005"/>
<path d="M287.7 153.1C287.3 152 286.6 151 285.7 150.1C284.7 149.1 283.5 148.3 282.2 147.8C281.6 147.6 281 147.5 280.4 147.6C279.8 147.6 279.2 147.7 278.6 147.9C278.4 148 277.8 148.2 277.9 148.5C278 148.8 278.4 149 278.6 149.1C278.1 148.9 278.4 149 278.6 149.1L278.9 149.2L279.4 149.5C279.7 149.7 280.1 150 280.4 150.2L280.1 150C281.3 151 282.2 152.2 282.8 153.7C282.9 154 283.7 154.2 284 154.2C284.6 154.3 285.3 154.3 285.9 154.3C286.4 154.3 286.9 154.1 287.4 153.9L287.6 153.7C287.8 153.5 287.8 153.3 287.7 153.1Z" fill="#000005"/>
<path d="M412.299 205.776C437.526 180.548 437.526 139.646 412.299 114.419C387.071 89.1909 346.169 89.1909 320.941 114.419C295.714 139.646 295.714 180.548 320.941 205.776C346.169 231.003 387.071 231.003 412.299 205.776Z" fill="white"/>
<path d="M422.5 184C421.2 187.1 419.8 190.2 418 193.1L417.4 194.1L417.1 194.5C417.2 194.4 417.6 193.7 417.1 194.4C416.6 195.1 416.2 195.7 415.8 196.4C414.9 197.7 413.9 199 412.8 200.3C412.3 200.9 411.8 201.5 411.3 202.1C411 202.4 410.8 202.7 410.5 203C410.6 202.9 411.3 202.2 410.7 202.8L410.2 203.3C409.1 204.4 407.9 205.6 406.7 206.6C406.1 207.1 405.5 207.6 404.9 208.1L404 208.8L403.6 209.1L403.3 209.3C403 209.5 403.1 209.4 403.7 209C403.4 208.9 402.1 210.1 401.8 210.4C401.2 210.8 400.5 211.3 399.9 211.7C398.6 212.6 397.2 213.4 395.8 214.1C394.7 214.7 396.5 213.7 395.7 214.2L394.7 214.7C394 215.1 393.2 215.4 392.5 215.8C391 216.5 389.6 217 388.1 217.6L387 218L386.5 218.2C385.9 218.4 387.4 217.9 386.7 218.1C385.9 218.3 385.1 218.6 384.3 218.8C382.8 219.2 381.3 219.6 379.8 219.9C379 220 378.3 220.2 377.5 220.3L376.4 220.5L375.7 220.6C375.1 220.7 376.4 220.5 375.8 220.6C372.6 220.9 369.4 221.1 366.1 221C365.3 221 364.5 220.9 363.7 220.9L362.5 220.8C362.5 220.8 361.9 220.8 362.3 220.8C362.7 220.8 361.8 220.7 361.8 220.7C360.2 220.5 358.6 220.3 357.1 220C353.8 219.4 350.5 218.5 347.4 217.3C346.6 217 345.9 216.7 345.1 216.4L344.6 216.2L344.4 216.1L343.1 215.5C341.6 214.8 340.1 214 338.6 213.2C335.8 211.6 333 209.8 330.5 207.8C325.5 204 321.2 199.4 317.7 194.3C315.9 191.7 314.2 188.9 312.8 186.1C312.1 184.7 311.4 183.2 310.8 181.7C310.6 181.1 310.2 180.1 310 179.8C309.8 179.5 309.5 178.3 309.3 177.7C307.4 171.6 306.3 165.3 306.2 158.9C306.2 155.9 306.4 152.9 306.8 149.9C307.3 146.6 308 143.3 309 140.1C309.1 139.7 309.2 139.3 309.4 138.9C309.5 138.7 309.8 137.7 309.6 138.3C309.9 137.5 310.2 136.6 310.5 135.8C311.1 134.2 311.8 132.7 312.6 131.1C313.4 129.5 314.1 128.2 314.9 126.8L315.5 125.8C315.6 125.7 316 125.1 315.7 125.5C315.4 125.9 315.7 125.5 315.8 125.4C316.3 124.7 316.7 124 317.2 123.3C318.1 122 319.1 120.7 320.2 119.4C320.7 118.8 321.2 118.2 321.7 117.6C321.8 117.5 322.7 116.5 322.2 117.1C321.7 117.7 322.7 116.6 322.8 116.5C323.9 115.3 325.1 114.2 326.3 113.2C326.8 112.7 327.4 112.2 327.9 111.8L328.8 111.1L329.3 110.7C329.9 110.2 329.1 110.9 329 110.9C329.3 111 330.6 109.7 330.9 109.5C331.6 109 332.3 108.6 333 108.1C334.4 107.2 335.7 106.4 337.1 105.7C337.9 105.3 336.1 106.2 337.2 105.6L338.2 105.1C338.9 104.7 339.7 104.4 340.4 104.1C341.9 103.4 343.3 102.8 344.8 102.3L345.7 102C345.9 101.9 346.1 101.8 346.3 101.8C346.3 101.8 345.4 102.1 345.9 101.9C346.7 101.7 347.5 101.4 348.3 101.2C349.8 100.8 351.4 100.4 353 100.1C353.8 99.9 354.5 99.8 355.3 99.7L356.4 99.5L356.9 99.4C356.1 99.5 357.4 99.3 356.9 99.4C358.5 99.2 360.1 99.1 361.7 99C363.3 98.9 364.9 98.9 366.6 99C367.3 99 368.1 99.1 368.8 99.1L370 99.2C370.1 99.2 370.7 99.3 370 99.2L370.7 99.3C374 99.7 377.3 100.3 380.5 101.2C382.1 101.6 383.7 102.2 385.3 102.7C386 103 386.7 103.2 387.4 103.5L388.1 103.8C387.7 103.6 388 103.8 388.1 103.8C388.5 104 389 104.2 389.4 104.4C392.5 105.8 395.4 107.4 398.2 109.3C400.9 111.1 403.5 113.1 406 115.3C408.2 117.3 410.3 119.5 412.2 121.9C416.2 126.8 419.4 132.3 421.8 138.2C423 141 423.9 143.8 424.7 146.7C425.4 149.8 425.9 152.9 426.2 156C426.3 157.6 426.4 159.2 426.4 160.8C426.4 161.6 426.4 162.4 426.4 163.2C426.4 163.3 426.4 164 426.4 163.6C426.4 163.2 426.4 163.8 426.4 163.8C426.4 164.2 426.4 164.7 426.3 165.2C426.1 168.5 425.6 171.8 424.9 175C424.6 176.5 424.2 178 423.7 179.5C423.6 179.9 423.5 180.3 423.3 180.7C423.2 180.9 423.2 181.1 423.1 181.4C423.1 181.4 422.9 182 423 181.6C423.1 181.2 422.9 181.9 422.9 182C422.9 182.1 422.8 182.3 422.7 182.5C423 183.1 422.8 183.6 422.5 184C421.8 185 422.1 186.5 423.1 187.2C423.6 187.6 424.3 187.7 424.9 187.6C427.1 187.5 430 186 430.9 183.8C444.8 149.6 428.4 110.7 394.3 96.8C388 94.3 381.4 92.7 374.7 92.1C345.4 89.7 317.6 105.5 304.6 131.8C298.4 144.5 296.3 158.8 298.5 172.7C300.7 186 306.9 198.3 316.2 208C326.1 218.2 339 225 353.1 227.4C367.1 229.7 381.5 227.8 394.4 221.8C407.7 215.6 418.9 205.5 426.4 192.9C428.1 190 429.6 186.9 430.9 183.8C431.4 183 431.4 182 431 181.2C430.4 180.5 429.5 180.1 428.6 180.2C426.3 180.2 423.4 181.8 422.5 184Z" fill="#E987D0"/>
<path d="M365.799 149.2C365.799 149.2 353.399 142.4 347.899 154.8C342.399 167.2 357.699 174.1 365.799 165C373.899 155.9 365.799 149.2 365.799 149.2Z" fill="#000005"/>
<path d="M403.1 139.6C405.4 149.5 404.2 159.8 399.7 168.9C399.2 169.9 401.2 170 401.7 170C402.7 169.9 404.1 169.6 404.6 168.6C409.2 159.3 410.4 148.7 408.1 138.6C407.6 137 402.8 137.9 403.1 139.6Z" fill="#E987D0"/>
<path d="M395.099 185.1L397.699 180.7C397.799 180.5 397.899 180.2 397.599 180.1C397.399 180.1 397.299 180.1 397.099 180.2C396.899 180.2 396.599 180.3 396.399 180.4C395.799 180.7 395.299 181 394.699 181.4C394.299 181.7 393.899 182 393.599 182.5L390.999 186.9C390.899 187.1 390.799 187.4 391.099 187.5C391.299 187.5 391.399 187.5 391.599 187.5C391.799 187.4 392.099 187.4 392.299 187.3C392.899 187 393.399 186.7 393.999 186.3C394.399 185.9 394.799 185.5 395.099 185.1Z" fill="#E987D0"/>
<path d="M284.7 194.3C284.7 194.3 321.6 220.5 339.3 203.5C357 186.5 329.3 160.9 298 166.6" fill="white"/>
<path d="M282.9 196C287 198.9 291.3 201.4 295.8 203.6C304.1 207.7 313.3 211.1 322.6 211.2C332.2 211.2 342.4 206.1 345.9 196.8C349.3 187.8 344 179.1 337 173.5C327.7 166.2 315.1 163.3 303.5 164.3C301.8 164.4 300.1 164.7 298.4 165C297.2 165.3 296.2 166.1 295.9 167.3C295.7 168.5 296.9 168.6 297.7 168.4C309 166.3 320.7 168.5 330.4 174.5C337 178.7 344 186.2 342.5 194.7C342.2 196.6 341.5 198.3 340.4 199.9C339.3 201.5 337.9 203 336.3 204.1C334.8 205.2 333.2 206 331.4 206.5C329.5 207 327.5 207.3 325.5 207.4C317 207.6 308.5 204.5 300.9 200.9C295.9 198.6 291.1 195.8 286.5 192.6C285 191.6 281.1 194.7 282.9 196Z" fill="#000005"/>
</svg>
