<svg transform="scale(1)" version="1.1" id="lT9FMMX0Wu" xmlns="http://www.w3.org/2000/svg" xmlns:xlink="http://www.w3.org/1999/xlink" x="0px" y="0px" viewBox="0 0 500 500" xml:space="preserve" class="pbimage_pbimage__wrapper__image__0LEis false"><title>Team Coding 2</title><style type="text/css"> .st0{fill:#FFFFFF;} .st1{fill:#000005;} .st2{fill:#59BE4C;} .st3{fill:none;}
 .st2{fill:#59BE4C;}
 .st1{fill:#000005;}
 .st0{fill:#FFFFFF;}</style><g id="character-3"><path class="st0" d="M253.3,350.9l-5.4-5c0,0-17.9-10.4-19.4-6.1s4.8,13.3,15.2,23.2s17.4,10.3,21.1-0.6L253.3,350.9z" fill="#FFFFFF"></path><path class="st1" d="M255.6,350l-4.8-4.5c-0.9-0.7-1.9-1.4-2.9-1.9c-2.3-1.3-4.7-2.5-7.1-3.5c-2.5-1.2-5.1-2.1-7.8-2.5
		c-2.4-0.3-6.1,0-7,2.7s0.7,5.5,1.9,7.7c2.3,3.9,5.1,7.4,8.2,10.7c3.6,3.8,7.3,7.6,11.7,10.5c3.5,2.3,7.6,3.5,11.7,2.1
		s6.2-5.2,7.6-9.1c0.1-0.2,0-0.5-0.2-0.6L255.6,350c-1.1-1.1-5.7,0.6-4.5,1.8l11.5,11.5l-0.2-0.6c-0.5,1.6-1.3,3.2-2.2,4.6
		c-0.3,0.5-0.7,0.9-1.1,1.3c-0.3,0.3-0.6,0.5-1,0.6c0.1,0,0.4-0.1,0,0c0,0,0.4-0.1,0.1,0c-0.5,0.1,0,0.1-0.5,0c-0.5,0-1-0.1-1.5-0.3
		c-1.5-0.5-3-1.3-4.3-2.2c-3.8-2.7-7.3-5.9-10.4-9.3c-2.9-3-5.6-6.2-7.9-9.7c-1.3-2-2.8-4.6-2.7-7.1c0-0.4,0.2-0.8,0.2-1.1
		s0,0.1,0,0s0.4-0.4-0.1,0.1c0,0-0.6,0.3-0.6,0.3c-0.2,0.1-0.9,0.3-0.4,0.1c-0.5,0.2-0.2,0,0.1,0c0.1,0,0.4,0-0.1,0l0.3,0l0.7,0.1
		c4.4,0.9,8.8,3.4,12.9,5.5l1.9,1.1c0.1,0.1,0.2,0.1,0.3,0.2c-0.7-0.4,0.1,0.2,0.2,0.3l4.8,4.5C252.2,352.9,256.8,351.1,255.6,350z" fill="#000005"></path><path class="st0" d="M266.1,330.6c0,0-9.9,16-12,16.8s-15.2-6.5-13.9-4.7c1,1.3,1.2,6.3,10.8,14.6c9.6,8.3,10.5,6.9,12.9,5.6
		s16.8-16.9,16.8-16.9L266.1,330.6z" fill="#FFFFFF"></path><path class="st1" d="M264.4,328.7c-1.3,2.1-2.7,4.3-4.1,6.4c-2,3.2-4.2,6.3-6.6,9.3c-0.3,0.4-0.6,0.7-1,1c-0.3,0.2,0.1,0-0.2,0.1
		c-0.1,0-0.4,0,0,0c-0.2,0-0.3,0-0.5-0.1c-1.5-0.3-3-0.9-4.4-1.5c-1.8-0.8-3.6-1.6-5.4-2.4c-0.9-0.4-2.5-1.4-3.4-1.1
		s-0.4,1.3-0.1,1.8c0.1,0.2,0.2,0.4,0.4,0.6c0.2,0.3-0.4-0.6-0.2-0.3s-0.2-0.5,0,0.1c0.5,1.3,1,2.6,1.7,3.8
		c2.7,5.2,7.1,9.4,11.6,13.1c2,1.8,4.2,3.4,6.6,4.8c1.2,0.8,2.6,1.3,4.1,1.3c1.7-0.1,3.4-1.4,4.6-2.5c5.4-4.8,10.2-10.2,15-15.5
		c0.6-0.7-0.5-2.1-1-2.5l-14.6-15.4C266.4,329.4,265,328.1,264.4,328.7c-0.7,0.7,0.5,2.2,0.9,2.6l14.6,15.4l-1-2.5
		c-4.1,4.5-8.3,9-12.7,13.3c-1.5,1.6-3.2,3.1-5.1,4.1c-0.6,0.3-1.2,0.4-1.8,0.2c-0.5-0.1,0,0-0.5-0.1c-0.2-0.1-0.4-0.2-0.7-0.3
		c-0.8-0.5-1.6-1-2.3-1.5c-4.2-3.1-9-7.1-11.6-11.5c-0.7-1.1-1.3-2.2-1.7-3.5c-0.1-0.4-0.3-0.7-0.4-1.1c-0.1-0.3-0.3-0.6-0.4-0.8
		c-0.1-0.2-0.2-0.4-0.4-0.6c1.1,1.1,0.7,1.3,0.2,1.9c-0.1,0.2-0.3-0.1,0.1,0.1c-0.5-0.2,0.2,0.1,0.3,0.1c0.7,0.3,1.4,0.6,2,0.9
		c1.7,0.8,3.4,1.5,5.1,2.2c1.5,0.7,3.1,1.3,4.8,1.6c0.9,0.3,1.9,0,2.5-0.6c1.1-1.2,2.2-2.4,3-3.8c1.3-1.8,2.5-3.6,3.8-5.5
		c1.5-2.3,3-4.7,4.5-7C268.8,331,265.1,327.7,264.4,328.7z" fill="#000005"></path><path class="st0" d="M270.5,367.9l-6.2-4c0,0-19.4-7.2-20.2-2.7s7,12.3,19,20.3c12,8,18.9,7.2,20.6-4.2L270.5,367.9z" fill="#FFFFFF"></path><path class="st1" d="M272.7,368.2l-5.7-3.7c-1.3-0.8-2.7-1.4-4.1-1.8c-2.8-1-5.7-1.8-8.6-2.6c-2.9-0.8-5.8-1.3-8.8-1.4
		c-1.8,0-3.9,0.3-3.8,2.5c0.1,2.9,2.4,5.5,4.2,7.5c3.4,3.5,7.1,6.7,11.1,9.5c4,3.1,8.4,5.6,13.1,7.6c3.3,1.3,7.8,2.6,11.2,0.9
		s4.3-5.6,4.9-8.9c0-0.2-0.1-0.3-0.2-0.4L272.7,368.2c-1-0.6-2.1-1-3.3-1.1c-0.3,0-2-0.1-1.1,0.5l13.3,9.4l-0.2-0.4
		c-0.7,4.2-2.6,9.8-7.9,9.3l-0.4-0.1c-0.1,0-0.3,0-0.4-0.1c-0.5-0.1-0.9-0.3-1.3-0.5c-1.6-0.7-3.1-1.5-4.5-2.4
		c-3.7-2.3-7.2-4.8-10.5-7.5c-2.7-2.1-5.1-4.5-7.3-7.1c-1.2-1.6-2.7-3.6-2.7-5.7c0-1.5,1-1.9,2.3-1.9c1.8,0,3.5,0.2,5.2,0.7
		c1.2,0.3,1.8,0.5,3.2,0.9l1.8,0.5l0.8,0.3l0.4,0.1c0.4,0.1-0.4-0.1-0.1,0c1.1,0.4,2.2,0.7,3.3,1.1l-1.4-0.7l6.2,4
		c1,0.6,2.1,1,3.2,1.1C271.9,368.7,273.6,368.8,272.7,368.2z" fill="#000005"></path><path class="st0" d="M279.7,345.6c0,0-7,17.5-9,18.6s-16.1-3.8-14.5-2.3c1.2,1.1,2.2,6,13.1,12.5c11,6.6,11.5,5,13.7,3.4
		s13.7-19.5,13.7-19.5L279.7,345.6z" fill="#FFFFFF"></path><path class="st1" d="M278,343.9c-1,2.4-1.9,4.7-2.9,7c-1.4,3.5-3.1,7-5,10.3c-0.1,0.2-0.3,0.5-0.5,0.7l-0.2,0.2
		c-0.1,0.1,0.1-0.3,0.1-0.1s-0.3,0.2-0.1,0.1c-0.1,0-0.2,0.1-0.3,0.1c-0.5,0,0.1,0-0.2,0c-1.7-0.1-3.3-0.4-4.9-0.8
		c-1.9-0.4-3.8-1-5.7-1.4c-0.9-0.2-2.3-0.8-3.3-0.5c-1.4,0.4-0.8,2.3-0.2,3.2c0.2,0.3,0.4,0.5,0.6,0.7c-0.3-0.4-0.4-0.5-0.1,0
		c0.6,1,1.2,2,2,3c3.5,4.6,8.3,8,13.2,10.8c2.3,1.4,4.7,2.7,7.2,3.6c1.3,0.5,2.6,0.7,4,0.5c1.9-0.4,3.3-2.1,4.5-3.5
		c4.5-5.6,8.3-11.8,12.2-17.8c0.8-1.2-0.5-2.9-1.4-3.5l-17-12.7c-0.8-0.6-2-0.6-2.2,0.5s0.7,2.5,1.5,3.1l17,12.7l-1.4-3.5
		c-3.3,5.1-6.7,10.3-10.2,15.2c-0.8,1.2-1.7,2.3-2.6,3.4c-0.3,0.3,0.1-0.1-0.3,0.3l-0.4,0.3c-0.3,0.2-0.6,0.5-0.9,0.7l-0.4,0.2
		c-0.4,0.3,0.1,0-0.2,0.1l-0.5,0.1c-0.1,0-0.2,0-0.3,0c0.5,0,0,0-0.2,0c-0.5-0.1-1-0.2-1.5-0.3c-1-0.3-1.9-0.8-2.8-1.2
		c-5-2.5-10-5.5-13.8-9.6c-0.5-0.5-0.9-1.1-1.3-1.6c-0.4-0.5-0.8-1.1-1.1-1.7c-0.2-0.3-0.4-0.7-0.6-1c-0.1-0.1-0.2-0.2-0.2-0.3
		c0.7,0.9-0.5-0.6-0.5-0.6c-0.2-0.2-0.1,0,0.3,0.4c-1,2.1-1.1,3.1-0.1,2.9c0,0.1-0.4-0.1,0,0c0.2,0.1,0.5,0.1,0.7,0.1
		c0.7,0.1,1.4,0.3,2.1,0.5c1.8,0.4,3.5,0.9,5.3,1.3c1.5,0.4,3.1,0.7,4.6,0.8c1.1,0.2,2.3-0.4,2.9-1.3c2.2-3,3.6-6.9,5.1-10.3
		c1.1-2.5,2.2-5.1,3.2-7.7c0.3-1.1,0-2.4-0.9-3.1C280.1,343.7,278.4,342.8,278,343.9z" fill="#000005"></path><path class="st1" d="M360,267c3.6,1.6-42.4,18.6-71.9,36.4s-50.5,55.8-9.3,53.7s97-68.7,97-68.7L360,267z" fill="#000005"></path><path class="st1" d="M359.2,268.6c-1-0.5-1.9-2.1-1.1-2.6c-0.1,0.1-0.2,0.2-0.3,0.3s-0.6,0.4-0.3,0.2s-0.3,0.2-0.4,0.2
		s-0.5,0.3-0.8,0.5c-0.6,0.4-1.3,0.7-1.9,1c-3.9,2-7.9,3.8-11.9,5.6c-12,5.4-24,10.8-35.8,16.7c-11.5,5.8-23.2,11.8-33,20.3
		c-7.6,6.6-15,14.9-18.6,24.4c-1.4,3.6-2.2,7.5-1.4,11.3c0.8,3.6,3,6.8,6.2,8.7c4.5,2.8,9.9,3.6,15,3.7c5.2,0.1,10.4-0.5,15.4-1.8
		c10.4-2.8,20-8.1,28.9-14c9.5-6.4,18.5-13.4,26.9-21.1c7.2-6.5,14.1-13.3,20.8-20.3c3.5-3.8,7-7.5,10.4-11.5l0.5-0.5
		c0.6-0.7,0.5-1.7-0.1-2.4l-13.8-18.7l-2-2.7c-1.5-2.1-5.6-0.8-3.7,1.8l13.8,18.8l2,2.7l-0.1-2.4c-2.3,2.7-4.7,5.4-7.1,8
		c-5.9,6.4-12,12.7-18.4,18.7c-8,7.6-16.5,14.8-25.4,21.4c-8.7,6.4-18.1,12.3-28.2,16.2c-4.4,1.8-8.9,3-13.6,3.6
		c-5.1,0.8-10.3,0.5-15.3-0.8l-0.7-0.2l-0.5-0.2l-0.5-0.2l-0.8-0.3l-0.5-0.3c-0.1,0-0.7-0.4-0.4-0.2s-0.3-0.2-0.4-0.2
		s-0.4-0.3-0.6-0.4l-0.4-0.3l-0.3-0.2c0,0,0.3,0.3,0.1,0.1c-0.3-0.3-0.6-0.6-0.9-1l-0.4-0.5c-0.1-0.1,0.2,0.3,0-0.1
		c-0.2-0.4-0.4-0.7-0.6-1.1c-0.1-0.2-0.2-0.4-0.2-0.5s0.1,0.3,0-0.1c-0.1-0.4-0.2-0.8-0.3-1.2c-0.1-0.4-0.1-0.8-0.2-1.2
		c0-0.1,0-0.5,0-0.2c0-0.2,0-0.5,0-0.7c0-1.7,0.2-3.4,0.7-5.1c2.6-9.3,9.5-17.4,16.5-23.8c9.2-8.6,20.2-14.6,31.3-20.2
		c11.9-6.1,24-11.5,36.1-17c4.4-2,8.7-3.9,13-6c2-1,4.8-2,6.3-3.7c1.2-1.4,0.2-3-1.2-3.7c-1-0.5-2.5-0.5-3,0.6
		S358.3,268.2,359.2,268.6z" fill="#000005"></path><path class="st0" d="M311.2,368c0,0,13.4,16.6,30.3,18.2s116.2-3.6,123.1-5.2s-3-89.9-7.9-105.5s-19.4-22.3-19.4-22.3
		s-78,53-97.8,68.6S311.2,368,311.2,368z" fill="#FFFFFF"></path><path class="st1" d="M308.8,368.5c5.1,6.3,11.5,11.4,18.7,15c4.6,2.3,9.6,3.7,14.8,4c2.6,0.2,5.3,0.2,8,0.2
		c7.7,0,15.4-0.2,23.1-0.4c9.8-0.3,19.5-0.7,29.3-1.1s19.5-0.9,29.2-1.5c7.6-0.4,15.2-0.9,22.9-1.5c2.4-0.2,4.7-0.4,7.1-0.6
		c1.5-0.2,3.5-0.1,4.9-1s1.8-2.5,2.1-4c0.4-2.6,0.7-5.2,0.7-7.8c0.2-8-0.3-16-0.8-24c-0.7-9.7-1.6-19.5-2.8-29.2
		c-1-8.8-2.2-17.6-3.6-26.4c-1-6.1-1.9-12.5-4.3-18.3c-3.7-8.5-10.3-15.4-18.5-19.7c-1.6-0.8-3.5-0.5-4.8,0.6l-4.4,3
		c-5.8,3.9-11.5,7.9-17.3,11.8c-8,5.5-16,11-23.9,16.5c-8.4,5.8-16.7,11.6-25,17.5c-6.9,4.9-13.7,9.7-20.5,14.7
		c-2.8,2-5.6,4.1-8.2,6.3c-4.6,4.1-8.7,8.8-12.1,14c-5.5,8.2-9.9,17.1-13,26.4c-0.5,1.5-1.1,3.1-1.5,4.6c-0.5,2,4.4,2,4.9,0.4
		c0.9-3.2,2-6.3,3.2-9.3c2.7-6.9,6-13.5,10-19.8c2.3-3.7,5-7.1,7.9-10.4c1.5-1.6,3-3.1,4.7-4.6c0.8-0.7,1.5-1.3,2.4-2l0.4-0.3
		c-0.4,0.3,0.3-0.3,0.4-0.3c3.8-2.9,7.7-5.8,11.6-8.6c11.1-8,22.3-15.8,33.5-23.6s22.4-15.5,33.6-23.2l11.8-8
		c1.9-1.3,3.9-2.5,5.7-3.9l0.3-0.2l-3.5,0.2c0.2,0.1,0.5,0.2,0.7,0.4l0.8,0.4c0.2,0.1-0.2-0.1,0.2,0.1l0.7,0.4
		c2.2,1.4,4.2,2.9,6.1,4.7c4.9,4.4,8.6,10.1,10.5,16.5c2.3,8.1,3.3,16.5,4.4,24.8c1.7,12,3,24,4.1,36.1c1.1,10.5,1.6,21.1,1.5,31.7
		c0,1.8-0.1,3.6-0.3,5.4c-0.1,0.7-0.1,1.5-0.3,2.2c0,0.2,0,0.3-0.1,0.5c0,0.3,0,0,0,0.2s-0.1,0.6-0.2,0.9c-0.1,0.4-0.3,0.9-0.4,1.3
		c-0.1,0.1-0.2,0.3-0.2,0.4c0.1-0.3,0.2-0.1-0.1,0.1s0.4-0.2,0.2-0.1s0.5-0.2,0.3-0.1c0.3-0.1,0.7-0.1,0.2-0.1l-0.4,0.1
		c-0.7,0.1,0.6-0.1,0,0c-6.9,0.8-13.9,1.2-20.8,1.6c-11.6,0.7-23.2,1.4-34.9,1.9c-12.2,0.6-24.5,1.1-36.7,1.4
		c-5.1,0.2-10.2,0.3-15.2,0.3h-3.2H350c-1.6,0-3.3,0-4.9-0.1c-5.3-0.2-10.4-1.6-15.1-4.1c-5.5-3-10.4-6.8-14.6-11.4
		c-0.6-0.6-1.2-1.3-1.9-2.1c-0.8-0.8-2-1-3.1-0.7C309.9,366.9,308.1,367.6,308.8,368.5z" fill="#000005"></path><path class="st1" d="M400,298.9c0,0-23.8,24.2-53.7,36s-33.5,38-57,37.2s-21.4-24.6,3.2-44.5s77.2-50.5,77.2-50.5L400,298.9z" fill="#000005"></path><path class="st1" d="M397.9,298.1c-3.8,3.8-7.7,7.3-11.9,10.6c-9.4,7.7-19.6,14.4-30.4,20c-6,3-12.5,5.2-18.4,8.4
		c-5,2.8-9.7,6.2-13.9,10c-3.6,3.3-6.9,6.9-10.3,10.4c-2.8,3.2-6,6-9.4,8.6c-3.2,2.3-6.9,3.8-10.8,4.2c0.3,0-0.3,0-0.4,0h-0.8
		c-0.6,0-1.2,0-1.9,0c-1.2,0-2.4-0.1-3.6-0.3c-2-0.3-3.9-1-5.6-2c-3-1.9-4.9-5.1-5.1-8.6c-0.3-4.6,1.3-9.1,3.5-13
		c5.5-10.2,15.1-17.5,24.4-24.3c8.9-6.4,18-12.5,27.2-18.4c8.5-5.5,17.2-10.9,25.8-16.1c4.8-2.9,9.6-5.8,14.5-8.7l0.7-0.4l-3.5,0.1
		l26.5,19.1l3.8,2.7c1.1,0.7,2.5,0.6,3.5-0.1c0.7-0.4,0.9-1.2,0.5-1.8c-0.1-0.2-0.3-0.4-0.5-0.5l-26.5-19.1l-3.8-2.7
		c-1.1-0.6-2.5-0.6-3.5,0.1c-3.6,2.1-7.1,4.2-10.7,6.4c-8.3,5-16.6,10.2-24.9,15.4c-9.6,6.1-19.1,12.3-28.4,18.9
		c-9.6,6.8-19.5,13.9-26.5,23.5c-5.2,7.2-10.4,18.3-4.6,26.6c2.6,3.8,7.1,5.7,11.5,6.5c5.1,1,10.4,0.6,15.4-1
		c8.7-2.9,14.9-10.2,21-16.6c3.5-3.8,7.3-7.4,11.4-10.6c4.9-3.7,10.4-6.8,16.1-9c12.4-5.2,24.1-11.9,34.8-20
		c6.4-4.7,12.5-9.9,18.2-15.4l0.8-0.8c0.8-0.9-0.1-2-0.9-2.3C400.1,297,398.8,297.2,397.9,298.1z" fill="#000005"></path><path class="st0" d="M445.2,277c0,0-32.9-72-39.7-71.5c-21.4,1.5-26.7,22.4-39.2,35.7S348.5,258,348.5,258s24.8,43,47.4,47.1
		S445.2,277,445.2,277z" fill="#FFFFFF"></path><path class="st1" d="M447.6,276.6c-2.6-5.8-5.3-11.5-8.1-17.2c-5.3-11.1-10.8-22.1-16.6-33c-2.5-4.6-5.1-9.2-7.9-13.6
		c-1.6-2.6-3.5-5.8-6.1-7.5c-2.1-1.4-5-0.7-7.3-0.3c-4,0.7-7.8,2.1-11.2,4.3c-6.5,4.1-11,10.4-15.2,16.7c-2.1,3.2-4.2,6.5-6.5,9.6
		c-2.8,3.7-5.8,7.1-9.1,10.4c-4,4-8,8.2-12.7,11.4l-0.4,0.3c-0.2,0.1,0.5-0.3,0.2-0.1s-0.9,0.6-0.6,1.1c2.6,4.6,5.6,9,8.7,13.4
		c6.1,8.6,12.8,16.8,20.7,23.8c7.7,6.7,16.8,12,27.3,10.9c11-1.1,20.9-7.3,29.4-14.1c3.6-2.9,7-6,10.2-9.3c1.8-1.7,3.5-3.6,5.1-5.6
		c0.1-0.1,0.1-0.2,0.2-0.3c0.7-0.8-1.5-1.2-1.8-1.2c-1.1-0.1-2.2,0.2-3,1l-0.2,0.2c0.1-0.2,0.1-0.1-0.1,0.1s-0.3,0.3-0.4,0.5
		c-0.8,0.9-1.6,1.8-2.4,2.6c-2.8,2.9-5.6,5.7-8.7,8.4c-7.3,6.5-16.2,13-25.8,15.1c-4,1-8.3,0.7-12.1-0.9c-4.3-1.8-8.3-4.3-11.8-7.4
		c-7.9-6.5-14.5-14.6-20.5-22.8c-2.3-3.2-4.6-6.5-6.7-9.8c-0.7-1.1-1.4-2.2-2.1-3.4c-0.3-0.6-0.7-1.3-1.1-1.8
		c-0.1-0.1-0.1-0.2-0.1-0.2l-0.6,1.1c2.9-1.9,5.6-4.2,8-6.6c6.5-5.8,12.2-12.3,17.3-19.3c4.2-6.1,8-12.7,13.3-18
		c2.5-2.6,5.5-4.6,8.7-6.1c1.6-0.7,3.2-1.2,4.9-1.5c0.9-0.2,1.8-0.3,2.7-0.4s-0.6-0.1-0.7-0.1c0.3,0-0.6-0.2-0.2-0.1
		s-0.3-0.2-0.1-0.1s0.2,0.1,0.2,0.1s0.4,0.3,0.6,0.4s-0.2-0.2,0.1,0.1l0.3,0.3c0.2,0.2,0.5,0.5,0.7,0.7c1.1,1.3,2.1,2.7,3.1,4.1
		c2.8,4.1,5.2,8.4,7.5,12.6c5.9,10.6,11.3,21.5,16.5,32.4c2.1,4.4,4.2,8.8,6.3,13.1c1,2.2,1.9,4.6,3.1,6.8c0,0.1,0.1,0.2,0.1,0.3
		C443.5,278.8,448.3,278.1,447.6,276.6z" fill="#000005"></path><path class="st0" d="M332.5,371.1c0,0,13.4-47.7,43.2-68.5s72-31.3,72-31.3l-6,67L332.5,371.1z" fill="#FFFFFF"></path><polygon class="st2" points="328.5,306 377.8,297.3 344.6,272 307.6,273.9 	" fill="#59BE4C"></polygon><path class="st2" d="M328.2,306.5l-0.2-0.3l-21.3-32.8l38-1.9l0.1,0.1l34.1,26L328.2,306.5z M308.5,274.4l20.2,31l47.9-8.4
		l-32.1-24.5L308.5,274.4z" fill="#59BE4C"></path><path class="st0" d="M357.9,273.6c-0.8-0.1-8.5,8-16.2,7.2s-9.5-3.5-13.1-0.6s-8.5,5.6-10.5,4.4s0.3-4,0.3-4s-4.4,3-5.9,1.3
		s1.8-5,1.8-5s-4.7,2.6-4,0s5.4-9.2,9.8-10.9s18.1-0.2,22.3-1.9s7.8-2.8,7.8-2.8L357.9,273.6z" fill="#FFFFFF"></path><path class="st1" d="M356.9,271.8c-0.9,0.1-1.7,0.5-2.3,1.1c-1.1,0.8-2.1,1.6-3.2,2.4c-2.8,1.9-6.2,3.8-9.7,3.8s-6.7-1.5-10.1-1.9
		s-5.5,2.1-8.1,3.8c-1,0.6-2,1.2-3.1,1.6c-0.5,0.2-1,0.3-1.5,0.5c-0.3,0-0.6,0-0.8,0.1c0.1,0,0.2,0,0.3,0.1c1,1.1,1.4,1.4,1.1,1
		c-0.1-0.1-0.1-0.2,0-0.2c0.1-0.3,0.2-0.6,0.3-0.9c0.2-0.4,0.4-0.8,0.7-1.1c1.2-1.5-2.7-3.8-4-2.9c-0.5,0.3-1,0.6-1.6,0.9
		c-0.4,0.2-0.9,0.4-1.4,0.6c-0.2,0-0.5,0.1-0.7,0.1c-0.2,0.1-0.7-0.3,0.3,0.1c1.6,0.6,0.9,1.5,1.2,0.4c0.2-0.5,0.4-0.9,0.7-1.3
		c0.4-0.6,0.8-1.1,1.3-1.5c0.7-0.7-0.6-2-1.1-2.4c-0.8-0.6-2-1.1-2.9-0.6c-0.8,0.4-1.6,0.6-2.4,1c-0.2,0.1-0.1,0.1,0,0h0.1
		c1.1,0.2,1.9,1,2.3,2c0-0.2,0.1-0.4,0.1-0.6c0.2-0.7,0.6-1.4,1-2c1.8-3.1,4.7-6.7,8.1-8c2.7-1,6-0.8,8.8-0.8
		c3.6,0.1,7.2-0.1,10.7-0.4c1.9-0.4,3.8-1,5.7-1.8c1.6-0.6,3.1-1.1,4.8-1.6l-3.5-1.8l7.8,12.3c0.6,1.1,1.8,1.8,3,1.9
		c1,0,1.7-0.8,1.1-1.7l-7.8-12.3c-0.6-1-2.2-2.2-3.5-1.8c-1.6,0.5-3.2,1-4.8,1.6c-1.8,0.8-3.7,1.4-5.7,1.8c-4,0.5-8,0.3-12,0.4
		c-3.7,0.1-7.4,0.2-10.5,2.4c-1.9,1.4-3.5,3.1-4.9,4.9c-1.2,1.5-2.2,3.1-2.8,4.9c-0.7,2.4,1.8,4.3,4,4.3c1.4-0.1,2.8-0.6,4-1.4
		l-4-2.9c-0.8,0.8-1.4,1.6-1.9,2.6c-0.8,1.8-0.1,4,1.6,5c2.7,1.8,5.9,0.6,8.4-1l-4-2.9c-0.8,0.9-1.2,2-1.3,3.2
		c0.1,2.4,2.7,4,4.8,4.2c4.3,0.4,8-3.1,11.3-5.3c0.4-0.3,1-0.5,1.5-0.6c0.4,0,0.8,0,1.2,0.1c1.7,0.4,3.4,0.9,5,1.2
		c2.3,0.5,4.7,0.7,7,0.5c2-0.3,4-1,5.9-2c1.8-0.9,3.5-2,5.1-3.3l1.8-1.4c0.2-0.1,0.4-0.3,0.6-0.4c0.4-0.4,0.1,0-0.4,0
		c0.6,0.1,1.2-0.3,1.3-0.9c0-0.3,0-0.6-0.2-0.8C359.2,272.6,358.1,271.9,356.9,271.8z" fill="#000005"></path><path class="st1" d="M324.5,273c-0.9,0.4-1.7,0.9-2.5,1.4c-2.1,1.4-4.1,3-5.8,4.8c-0.8,0.9,0,2.2,0.8,2.7s2.5,0.9,3.3-0.1
		c1-1,2-2,3.1-2.9l-0.4,0.3c1.5-1.2,3.1-2.2,4.8-3.1c0.4-0.2,0.7-0.7,0.7-1.2c0-0.5-0.3-1.1-0.7-1.4
		C327.1,272.8,325.7,272.5,324.5,273L324.5,273z" fill="#000005"></path><path class="st1" d="M320.8,268c-2.4,1.7-4.7,3.5-6.8,5.5c-0.9,0.8-1.7,1.6-2.4,2.5c-0.2,0.4-0.2,0.9,0,1.4c0.3,0.6,0.7,1,1.2,1.4
		c0.9,0.5,2.2,1,3,0c0.3-0.3,0.5-0.6,0.8-1l0.2-0.2c0,0,0.3-0.3,0.1-0.1s0.1-0.1,0.2-0.2l0.3-0.3c0.7-0.7,1.5-1.3,2.2-2
		c1.3-1.1,2.6-2.1,3.9-3l0.8-0.6c1-0.7,0.3-2-0.4-2.6S321.8,267.3,320.8,268L320.8,268z" fill="#000005"></path><path class="st0" d="M383.4,293.2c-0.9-0.1-8.9,8.1-17.1,7.4s-10.3-3.5-14-0.5s-9,5.8-11.2,4.6s0.2-4.1,0.2-4.1s-4.6,3.1-6.3,1.4
		s1.8-5,1.8-5s-4.9,2.7-4.3,0s5.5-9.4,10.2-11.1s19.3-0.4,23.7-2.2s8.3-2.9,8.3-2.9L383.4,293.2z" fill="#FFFFFF"></path><path class="st1" d="M381.9,292.1c-0.8,0.1-1.6,0.4-2.1,1c-1.1,0.8-2.3,1.7-3.5,2.5c-3.1,2.1-6.8,4-10.5,4s-7.1-1.4-10.7-1.8
		c-1.3-0.2-2.5,0-3.7,0.5c-1.7,0.8-3.1,2.3-4.7,3.3c-1,0.6-2.1,1.2-3.2,1.7c-0.9,0.3-1.8,0.5-2.7,0.7c-0.6,0.1,1.8,1.4,1.9,0.6
		c0-0.2-0.1-0.4-0.1-0.6c0-0.4,0.2-0.8,0.4-1.2c0.2-0.5,0.5-0.9,0.8-1.3c0.5-0.6-3.7-2.4-4.5-1.9c-0.5,0.4-1.1,0.7-1.7,1
		c-0.5,0.3-1.1,0.5-1.7,0.7c-0.2,0.1-0.5,0.1-0.7,0.1s-0.3,0,0,0c0.7,0.2,1.4,0.5,2,0.8c0-0.4-0.2-0.8,0-1.2c0.2-0.5,0.4-1,0.7-1.4
		c0.4-0.6,0.8-1.1,1.3-1.6c0.8-0.8-3.5-2.5-4.4-2c-0.8,0.5-1.8,0.8-2.7,1.1c-1.7,0.5,2.5,2.3,2.9,1.1c0.1-0.3,0.1-0.6,0.2-0.9
		c0.3-0.7,0.6-1.4,1-2.1c2-3.4,5.2-7.1,9-8.4c3-1,6.6-0.8,9.7-0.9c3.8,0,7.5-0.1,11.2-0.6c2-0.4,3.9-1.1,5.8-1.9
		c1.7-0.6,3.3-1.2,5-1.6l-4.5-1.6l8.7,12.4c0.7,0.8,1.7,1.3,2.7,1.5c0.2,0,2.4,0.4,2-0.3l-8.7-12.3c-1.1-1.3-2.8-1.9-4.5-1.6
		c-1.6,0.5-3.2,1-4.8,1.6c-1.9,0.8-3.9,1.4-5.9,1.9c-4.2,0.6-8.5,0.4-12.7,0.6c-3.5,0.1-7.4,0.1-10.5,2.1c-2,1.3-3.8,3-5.2,4.9
		c-1.3,1.5-2.3,3.2-3,5c-0.8,2.5,3,3.5,4.9,3.5c1.4-0.1,2.7-0.6,3.8-1.3l-4.4-2c-0.8,0.7-1.5,1.6-2,2.6c-0.9,1.8-0.1,3.1,1.6,4
		c3.2,1.7,6.4,1,9.3-0.9l-4.6-1.8c-0.7,0.9-1.5,2.2-1.1,3.3c0.6,2,4.1,2.9,6,3c2.1-0.1,4.1-0.7,5.8-1.8c2-1.1,3.7-2.6,5.6-3.8
		c0.9-0.6,2-0.8,3.1-0.6c0.5,0.1,1.2,0.3,1.9,0.5c1.2,0.3,2.4,0.5,3.5,0.8c2.4,0.5,4.9,0.6,7.4,0.4c2.1-0.4,4.1-1,6-2
		c1.9-1,3.7-2.1,5.4-3.4l1.8-1.3c0.2-0.1,0.4-0.3,0.6-0.4s0.8-0.2-0.2-0.2c0.9,0,1.1-0.4,0.4-1C384.3,292.6,383.1,292.2,381.9,292.1
		z" fill="#000005"></path><path class="st1" d="M347.2,294.9c-0.9,0.4-1.8,0.9-2.6,1.5c-2.1,1.3-4,2.9-5.7,4.7c-0.1,0.1,0.9,0.1,0.8,0.1
		c0.6,0,1.2-0.1,1.8-0.2c0.6-0.1,1.2-0.2,1.8-0.3c0.3,0,0.5-0.1,0.7-0.3l0.5-0.5l-0.1,0.1c1.6-1.6,3.5-3.1,5.4-4.3
		c0.8-0.5,1.6-0.9,2.4-1.3c0.3-0.1-0.4-0.2-0.3-0.2c-0.5,0-1,0-1.5,0.1C349.2,294.3,348.2,294.5,347.2,294.9L347.2,294.9z" fill="#000005"></path><path class="st1" d="M343.2,289.5c-2.5,1.7-4.9,3.5-7.1,5.5c-0.8,0.7-1.6,1.5-2.3,2.3c-0.4,0.6,1.5,0.7,1.7,0.8
		c0.6,0.1,1.3,0.1,1.9,0c0.3,0,1,0,1.2-0.3c1.3-1.5,2.7-2.9,4.3-4.1c1.3-1.1,2.7-2.2,4.2-3.2c0.3-0.2,0.6-0.4,0.9-0.6
		c0.6-0.4-1.6-0.8-1.7-0.8c-0.6-0.1-1.3-0.1-1.9,0C343.9,289.2,343.5,289.3,343.2,289.5L343.2,289.5z" fill="#000005"></path><polygon class="st2" points="328.5,306 284.8,284.5 280,221.9 322.1,241.8 325.8,279.8 	" fill="#59BE4C"></polygon><path class="st2" d="M329.5,304.1l-14.8-7.3l-23.5-11.6l-5.4-2.7l1.3,2l-1.6-21.1l-2.6-33.6l-0.6-7.8l-3.5,1.6l14.2,6.7l22.6,10.6
		l5.2,2.5l-1.3-2l2.7,27.9c0.7,7.3,1.4,14.6,2.2,21.9l1.5,14.5c0.2,1.3,1.2,2.3,2.5,2.4c1.1,0.2,2.1-0.6,2.3-1.7c0-0.1,0-0.2,0-0.3
		l-2.5-24.1c-0.6-6.1-1.2-12.2-1.8-18.3l-1.5-15.3l-0.5-5c-0.1-1.4-0.1-2.8-1.4-3.6c-2-1-4-2-6-2.8l-13.3-6.3l-22.3-10.5l-0.4-0.2
		c-1.4-0.6-3.7-0.4-3.5,1.6l1.4,17.5l2.4,31.3l0.8,10.9c0.1,1.8-0.1,3.9,1.8,5c2.5,1.3,5.1,2.5,7.6,3.8l13.6,6.7
		c7.3,3.6,14.5,7.2,21.8,10.7l0.4,0.2c1.1,0.5,2.5,0.7,3.2-0.5C331.2,306.2,330.7,304.7,329.5,304.1
		C329.6,304.2,329.6,304.2,329.5,304.1z" fill="#59BE4C"></path><line class="st3" x1="327.9" y1="302.3" x2="322.9" y2="241.8"></line><path class="st1" d="M330.3,301.4l-1.7-20.4l-2.7-32.6l-0.6-7.4c0-0.1-4.8,0.8-4.7,1.7l1.7,20.5l2.8,32.5l0.6,7.4
		C325.6,303.2,330.4,302.3,330.3,301.4L330.3,301.4z" fill="#000005"></path><path class="st0" d="M307.6,258.6c-0.9-0.8-1.9-1.4-2.9-1.9c-2.4-1.2-5.3-0.8-7.3,0.9c-1,1-1.6,2.2-1.8,3.6c-0.2,1-0.2,2.1,0.1,3.1
		c0.3,0.9,0.9,1.6,1.7,2.1c0.8,0.5,1.8,0.8,2.7,1c1.3,0.2,2.7,0.2,4,0c0.6-0.1,1.2-0.4,1.6-0.8c0.3-0.3,0.6-0.7,0.5-1.2
		c-0.3-1.1-1.9-1-2.7-0.9c1.2-0.2,0.5-0.1,0.1,0h-0.6h-0.3c1,0,0.5,0,0.2,0s-0.5,0-0.8-0.1H302c-0.3-0.1,0.7,0.2,0.3,0.1l-0.4-0.1
		l-0.4-0.1l-0.2-0.1c0.6,0.3,0.4,0.2,0.2,0.1c-0.3-0.1-0.5-0.3-0.7-0.5l0.3,0.3c-0.3-0.3-0.5-0.6-0.7-0.9l0.2,0.4
		c-0.2-0.5-0.3-1.1-0.3-1.7v0.4c0-0.9,0.2-1.8,0.6-2.7l-0.2,0.4c0.1-0.2,0.2-0.4,0.3-0.5c0.1-0.1,0.1-0.2,0.2-0.3l0.1-0.1
		c0.2-0.3-0.1,0.2-0.2,0.2s0.3-0.3,0.3-0.3c-0.5,0.5-0.4,0.3-0.2,0.2l0.1-0.1c0.2-0.1-0.6,0.3-0.4,0.2l0.2-0.1
		c0.1,0-0.8,0.2-0.4,0.1c0.1,0,0.4-0.1-0.1,0s-0.2,0,0,0s0.4,0-0.1,0s-0.2,0-0.1,0h0.2h0.1c0.3,0-0.5-0.1-0.3-0.1
		c0.3,0.1,0.6,0.2,0.9,0.3l0.2,0.1c0.3,0.1-0.5-0.2-0.2-0.1l0.4,0.2c0.4,0.3,0.9,0.5,1.3,0.9c0.2,0.2,0.4,0.3,0.6,0.5
		c0.5,0.3,1,0.4,1.6,0.4c0.7,0,1.3-0.2,1.9-0.5c0.4-0.2,0.9-0.6,0.9-1.1C308.1,259.3,307.9,258.9,307.6,258.6L307.6,258.6z" fill="#FFFFFF"></path><path class="st1" d="M341.2,361.6c0.3-2.4,0.8-4.7,1.5-7c0.1-0.4,0.1-0.2,0,0.1l0.1-0.4c0.1-0.3,0.2-0.6,0.3-0.9
		c0.2-0.6,0.4-1.3,0.6-1.9c0.5-1.4,1-2.8,1.5-4.1c1.3-3.3,2.8-6.6,4.5-9.7c1-1.8,2-3.6,3-5.4c0.3-0.4,0.5-0.9,0.8-1.3l0.5-0.7
		c0-0.1,0.2-0.4,0.1-0.1l0.2-0.3c0.6-0.9,1.3-1.9,1.9-2.8c2.9-4.2,6.2-8.1,9.7-11.8c8.6-8.9,18.4-16.5,29.3-22.5
		c14.5-8.1,30.2-13.7,46.4-17.5c2.3-0.5,4.7-1,7.1-1.5c3-0.6,0.9-5-1.8-4.5c-17.2,3.5-34,8.8-49.7,16.8c-11.8,6-22.6,13.7-32.1,22.9
		c-7.1,7-13.3,15-18.3,23.6c-3.4,5.9-6.1,12.1-8.1,18.6c-1,3-1.7,6-2.1,9.1c0,0,0,0.1,0,0.1C336.2,363.1,340.8,364.6,341.2,361.6
		L341.2,361.6z" fill="#000005"></path><path class="st0" d="M276.6,349.4c-0.3-4.5,2.6-8.2,5.6-11.3c2.7-2.8,5.5-5.4,8.4-8c6.2-5.7,12.7-11.1,19.5-16.2
		c3.4-2.6,7-4.9,10.8-7c0.5-0.3,1.5-0.9,0.6-1.4s-2.6,0-3.4,0.5c-7.5,4-14.3,9.2-20.8,14.5s-12.8,11-18.8,17
		c-3.5,3.5-7,7.7-6.6,12.9C271.9,351.6,276.8,350.8,276.6,349.4L276.6,349.4z" fill="#FFFFFF"></path><path class="st1" d="M380.5,278.3c1.8-2.2,3.8-4.1,6.1-5.8c2.6-2.1,5.3-4.1,7.9-6.1c4.6-3.6,10.1-7.9,12-13.6
		c0.8-2.4-3.2-5.2-4.1-2.4c-1,2.4-2.4,4.6-4.3,6.3c-2.3,2.2-4.7,4.3-7.2,6.2c-4.8,3.7-10.2,7.2-13.9,12
		C375.2,276.9,378.7,280.5,380.5,278.3L380.5,278.3z" fill="#000005"></path><path class="st1" d="M411.7,207.1c0,0,8.8-15.4,0.2-31.5s-18.7-17.1-33.6-14.4s-20.6,30.5-10,45.9s18.1,9.5,18.1,9.5
		s-3.8,8.6,0.1,11.8s25.2-4.2,28.8-9.4S411.7,207.1,411.7,207.1z" fill="#000005"></path><path class="st1" d="M414,206.6c1.6-3,2.7-6.2,3.3-9.6c1.5-7.3,0.5-15-2.8-21.7c-2.7-5.3-6.4-10.6-11.8-13.5
		c-4.5-2.5-9.8-2.9-14.8-2.6c-5.7,0.4-12,1-16.8,4.3c-4,2.7-6.7,7-8.4,11.5c-3.8,10.2-3.3,23.1,2.8,32.3c3,4.6,7.3,9.8,12.9,11.1
		c3.3,0.6,6.7,0.1,9.5-1.6c0.2-0.1,0.4-0.3,0.6-0.4l-4.5,0.8c-1.3,3-2.7,7.7-1,10.8s6.9,2.1,9.9,1.6c5.2-1,10.3-2.6,15.1-4.8
		c2.2-0.9,4.3-2.1,6.2-3.3c1.5-0.9,2.8-2.1,3.7-3.6c2.1-4.1-1.2-8.8-4.1-11.5c-0.5-0.5-2.5,0.2-3.1,0.4c-0.3,0.1-2,0.7-1.5,1.2
		c2.2,2.1,4.6,5.4,4.5,8.7c-0.1,3.6-4,5.6-6.8,7c-1.8,0.9-3.6,1.7-5.5,2.3c-1.8,0.7-3.7,1.2-5.5,1.7c-1.6,0.4-3.2,0.6-4.8,0.6
		c-1.2,0.1-2.3-0.4-3.1-1.3c-2.2-2.9-0.7-7.8,0.6-10.9c0.3-0.6-1.4-0.3-1.6-0.3c-1.1,0.1-2.1,0.5-2.9,1.1c-0.3,0.2,0.3-0.2,0,0
		s-0.4,0.2,0,0c-0.6,0.2,0.2-0.1-0.1,0s0.4-0.1,0.2-0.1c-0.5,0.1,0.4-0.1,0.2,0c-0.5,0.1,0.4-0.1,0,0s-0.1,0-0.1,0
		c-0.6,0-1.2,0-1.7-0.1c-5.1-1-9.1-5.9-11.9-9.9c-6-8.5-7.1-20.2-4.4-30.1c1.2-4.3,3.2-8.8,6.5-11.9c0.7-0.7,1.5-1.3,2.3-1.9
		c0.3-0.2,0.8-0.4,1-0.6l0.5-0.2l0.2-0.1c0.5-0.1-0.2,0,0.3-0.1l0.7-0.1l2.1-0.3c1.2-0.2,2.5-0.4,3.7-0.4c4.6-0.4,9.4-0.1,13.6,2
		c4.9,2.4,8.4,6.8,11,11.4c3.6,6.2,5.2,13.3,4.5,20.4c-0.4,4.2-1.5,8.3-3.3,12.1c-0.1,0.2-0.2,0.4-0.3,0.6c-0.4,0.6,1.7,0.2,1.9,0.2
		C412,207.6,413.6,207.3,414,206.6z" fill="#000005"></path><path class="st0" d="M399.2,201.4c0,0-1.5,9.5-13.8,12.1c0,0-8.2-0.2-13.9-4.3c-8.4-6.1-2.2-29.9-2.2-29.9
		c2.8-6.7,10.5-5.7,10.5-5.7c11.3,2.3,16.7,11.9,16.7,11.9S399.8,194.6,399.2,201.4z" fill="#FFFFFF"></path><path class="st1" d="M396.8,201.1c-0.3,1.8-1.1,3.6-2.3,5c-1.1,1.5-2.6,2.8-4.2,3.8c-1,0.6-2,1-3.1,1.4c-0.7,0.2-1.5,0.4-2.2,0.6
		c0-0.1,1.4,0.1,0.5,0c-4.2-0.3-9.3-1.4-12.3-3.9c-2.7-2.3-3.3-6.4-3.5-9.8c-0.2-4,0.1-8,0.8-11.9c0.3-2.2,0.7-4.3,1.3-6.4
		c0.6-1.7,2-3.1,3.6-3.8c0.2-0.1,0.5-0.2,0.8-0.3c0.4-0.1,0.9-0.2,1.3-0.3c-0.6,0.1,0.5,0,0.7-0.1s0.6,0,0.9,0c0.5,0-0.6-0.1-0.2,0
		c0.1,0,0.2,0,0.2,0c0.1,0,0.1,0,0.2,0c1.4,0.3,2.7,0.7,3.9,1.3c2.2,0.9,4.2,2.2,6,3.8c1.5,1.3,2.9,2.8,4.1,4.5
		c0.1,0.1,0.1,0.2,0.2,0.2c0.2,0.3-0.2-0.3,0.1,0.2c0.1,0.2,0.3,0.4,0.4,0.6c0.1,0.1,0.2,0.3,0.2,0.4c0.7,1.8,1.2,3.6,1.5,5.5
		c0.8,3.2,1.1,6.5,1,9.8c-0.1,1.2,1.7,1.6,2.6,1.6c1.2,0.1,2.2-0.7,2.4-1.9c0.2-5.4-0.7-10.8-2.6-15.9c-0.8-2.1-2.8-4.1-4.3-5.7
		c-3.8-3.7-9-7-14.4-7.7c-4.1-0.5-8.2,0.8-11.2,3.6c-2.2,2.2-2.6,4.7-3.2,7.6c-0.9,4.3-1.3,8.6-1.4,12.9c0,4.3,0.5,9,3.1,12.5
		c1.7,2.2,4.4,3.5,6.9,4.5c2.6,1,5.4,1.7,8.1,2c0.6,0.1,1.3,0.1,1.9,0.2c1.4,0,2.7-0.3,4-0.8c2.7-0.8,5.3-2.2,7.5-4.1
		c2.5-2.1,4.4-5,5.3-8.2c0-0.2,0.1-0.3,0.1-0.5c0.2-1.2-0.8-1.9-1.9-2C398.9,199.6,397,199.9,396.8,201.1z" fill="#000005"></path><path class="st0" d="M393,196.2c0,0,2.2,4.9-3,5.4" fill="#FFFFFF"></path><path class="st1" d="M391.2,196.7c0.2,0.5,0.4,1.1,0.4,1.6l0-0.4c0.1,0.4,0.1,0.9,0,1.3l0.1-0.4c-0.1,0.3-0.1,0.5-0.3,0.8l0.2-0.4
		c-0.1,0.2-0.2,0.4-0.4,0.5l0.3-0.3c-0.1,0.2-0.3,0.3-0.5,0.4l0.4-0.3c-0.2,0.1-0.4,0.3-0.7,0.4l0.5-0.2c-0.4,0.1-0.7,0.2-1.1,0.3
		l0.5-0.1l-0.5,0.1c-0.5,0-1,0.2-1.4,0.5c-0.3,0.3-0.5,0.7-0.6,1.1c0,0.9,0.8,1.6,1.7,1.5c0,0,0.1,0,0.1,0c1.1-0.1,2.2-0.4,3.2-1
		c0.9-0.5,1.5-1.3,1.9-2.2c0.4-1.2,0.4-2.4,0-3.6c-0.1-0.2-0.1-0.4-0.2-0.7c-0.1-0.4-0.4-0.7-0.8-0.9c-0.4-0.2-0.9-0.2-1.4-0.1
		c-0.5,0.1-0.9,0.4-1.1,0.8C391.2,195.8,391.1,196.2,391.2,196.7L391.2,196.7z" fill="#000005"></path><path class="st0" d="M374.9,191.3c-2,2.1-4.3,3.9-6.9,5.4c-8.5,5.1-8.3,8.6-4.8,9.2s15.4-5.7,15.4-5.7" fill="#FFFFFF"></path><path class="st1" d="M373.3,189.4c-2.3,2.6-5.3,4.3-8.1,6.2c-1.8,1.1-3.4,2.4-4.8,4c-1,1-1.5,2.4-1.5,3.8c0.1,3,3.4,5.1,6.2,4.8
		c3-0.5,5.9-1.5,8.6-2.9c2-0.9,4.1-1.9,6-2.9c0.9-0.5,1.2-1.7,0.7-2.6c0-0.1-0.1-0.1-0.1-0.2c-0.5-0.8-1.8-2.1-2.9-1.6
		c-3.9,2.2-8.1,4-12.4,5.3c-0.3,0.1-0.5,0.1-0.8,0.2l-0.4,0.1c-0.3,0.1,0.4,0,0,0c-0.2,0-0.5,0-0.7,0h-0.3c-0.2,0,0.5,0.1,0.1,0
		c-0.2,0-0.4-0.1-0.6-0.2c0,0.1,0.6,0.2,0.2,0.1c-0.2-0.1-0.6-0.4,0.1,0.1c-0.5-0.4,0.3,0.4,0.1,0.1s0.4,0.6,0.2,0.3
		s0.2,0.7,0.1,0.2s0.1,0.6,0,0.3s0,0.1,0,0.2c0.1-0.2,0.1-0.4,0.1-0.6c0,0.2-0.1,0.3,0,0.1l0.2-0.4c0.1-0.2,0.3-0.5,0.5-0.7
		s-0.1,0.1,0.1-0.2l0.4-0.4c0.3-0.3,0.6-0.6,1-0.9c0.8-0.7,1.6-1.3,2.5-1.9c3-2,6.2-3.8,8.7-6.6c0.7-0.9,0.6-2.2-0.2-3.1
		C375.8,189.5,374.2,188.4,373.3,189.4L373.3,189.4z" fill="#000005"></path><path class="st1" d="M384.3,187.3c0,0-1.5,0.4-1,1.8c0.2,0.6,0.9,0.9,1.5,0.6c0.5-0.2,0.8-0.7,0.7-1.2c0.1-0.6-0.4-1.2-1-1.2
		C384.4,187.3,384.4,187.3,384.3,187.3z" fill="#000005"></path><path class="st1" d="M373.7,188.1c0,0-1.5,0.4-1,1.8c0.2,0.6,0.9,0.9,1.5,0.7c0.5-0.2,0.8-0.7,0.7-1.2c0.1-0.6-0.4-1.2-1-1.2
		C373.8,188.1,373.7,188.1,373.7,188.1z" fill="#000005"></path></g><g id="character-2"><path class="st0" d="M197.8,414.1l3.7-22.1l65-0.5l-2.8,37.8C263.8,429.4,201.5,419.2,197.8,414.1z"></path><path class="st1" d="M200.3,414l3.2-19.4l0.5-2.8l-2.5,1l22.1-0.2l34.9-0.2l8-0.1l-2.5-0.8l-2.4,33.2l-0.4,4.7l3.7-0.9
		c-7-1.1-14.1-2.4-21.1-3.7c-11.6-2.1-23.2-4.3-34.5-7.4c-2.2-0.6-4.4-1.2-6.5-2.1c-0.1,0-0.2-0.1-0.3-0.1l-0.6-0.3
		c-0.3-0.1-0.6-0.3-0.9-0.5c-0.2-0.1-0.5-0.3-0.7-0.4c0.3,0.2-0.2-0.2-0.3-0.3c-0.8-1.1-5.5-0.2-4.8,0.6c0.8,0.8,1.8,1.4,2.9,1.8
		c1.8,0.8,3.7,1.4,5.6,2c5.3,1.6,10.7,2.8,16.2,4c11.5,2.5,23.1,4.6,34.7,6.6c2.6,0.5,5.2,0.9,7.9,1.3c0.7,0.1,3.6,0.3,3.7-0.9
		l2.4-33.2l0.3-4.7c0.1-0.8-2.2-0.8-2.5-0.8l-22.1,0.2l-34.9,0.2l-8.1,0.1c-0.6,0-2.3,0.1-2.5,1l-3.2,19.4l-0.5,2.8
		C195.2,415.2,200.1,415.5,200.3,414z"></path><path class="st0" d="M227.4,415c0,0,38.3-17.5,66.4-15.2s31.4,42.4,15.7,48.4s-75.6,1.8-75.6,1.8L227.4,415z"></path><path class="st1" d="M228.6,417c12.5-5.7,25.5-10,38.9-12.8c5.1-1.1,10.3-1.9,15.5-2.3c4.7-0.5,9.5-0.4,14.1,0.4
		c3.3,0.6,6.4,2,9.1,4.1c2.5,2,4.6,4.4,6.2,7.2c3.1,5.6,4.5,12,4,18.4c-0.1,1.4-0.4,2.9-0.8,4.2c-0.2,0.7-0.4,1.4-0.6,2.1
		c-0.2,0.6-0.4,1.1-0.7,1.6c-1,2.3-2.6,4.2-4.8,5.5c-0.4,0.3-0.8,0.5-1.2,0.6c-0.6,0.2-1.1,0.4-1.7,0.6c-0.5,0.1-1.1,0.3-1.6,0.4
		l-1,0.2l-0.5,0.1c-0.1,0-0.8,0.2-0.4,0.1c-3.2,0.5-6.3,0.9-9.5,1.1c-8,0.6-16.1,0.7-24.2,0.6c-7.6-0.1-15.2-0.3-22.8-0.6
		c-2.8-0.1-5.6-0.3-8.3-0.4l-2.9-0.2c-0.6,0,0.1,0,0,0h-0.4l-0.8,0h-0.6l2.4,2.5l-5.7-30.7l-0.8-4.3c-0.2-1.3-1.2-2.3-2.4-2.5
		c-1-0.2-2.4,0.4-2.2,1.6l5.7,30.7l0.8,4.3c0.2,1.3,1.2,2.3,2.5,2.5c10.7,0.7,21.5,1.2,32.2,1.4c8.4,0.1,16.8,0.1,25.2-0.3
		c6.2-0.4,13-0.7,19-2.8c5.6-2,8.8-7.4,10.1-13c1.4-6.8,0.8-13.9-1.8-20.3c-2.7-7.2-8.1-13.2-15-16.6c-4-1.8-8.4-2.8-12.8-2.9
		c-5.3-0.2-10.7,0.1-16,0.9c-16.5,2.3-32.8,7.5-47.9,14.1l-0.8,0.4C223.5,414.2,226.4,418,228.6,417z"></path><path class="st2" d="M169.6,399.8c0,0-29.5-22.8-19.6-45.9s54.3-44.3,81.4-48.7s81.4,33.9,78.2,60.7S285,401,285,401l-21.1-24.4
		l-59.5,1.2l-18,23.1C180.9,402.8,174.8,402.4,169.6,399.8z"></path><path class="st2" d="M169.9,398.6c-0.4-0.3-0.8-0.6-1.1-0.9l-0.6-0.5l-0.4-0.3c-0.5-0.4,0.2,0.2,0,0c-0.6-0.5-1.1-1-1.7-1.6
		s-1.3-1.3-2-1.9s-1.6-1.7-2-2.1s-1.5-1.7-2.1-2.5c-0.8-0.9-1.5-1.9-2.2-2.9c-6.1-8.4-10.1-19.2-6.1-29.5c2-4.7,4.8-9,8.4-12.6
		c4-4.2,8.4-8,13.2-11.4c10.6-7.4,22.1-13.5,34.2-18c5.6-2.2,11.4-4.1,17.2-5.5c4.5-1.1,9.1-2.2,13.7-2.1c9.6,0.3,19,3.9,27.5,8.3
		c9.7,5,18.7,11.4,26.5,19c3.5,3.4,6.7,7.1,9.4,11.1c2.5,3.5,4.3,7.3,5.5,11.4c1.2,4.6,0.7,9-0.4,13.6c-1.3,5.6-3.7,10.8-7,15.5
		c-4,5.5-9.3,10-15.4,13.1c-0.3,0.1-0.6,0.3-1,0.4l2.7,1.7l-18.8-21.7c-0.8-0.9-1.5-1.8-2.3-2.7c-0.7-1-1.7-1.6-2.9-1.6h-1.1
		l-11.8,0.2l-35.9,0.7c-3.3,0.1-6.7,0-10,0.2c-0.7,0-0.9,0.3-1.3,0.9l-3.9,5l-11,14.1c-0.9,1.1-1.6,2.2-2.6,3.3
		c0.2-0.2,0.3-0.1-0.1,0s-1.1,0.3-1.6,0.4c-1.9,0.4-3.9,0.6-5.9,0.5c-2.8-0.1-5.5-0.9-8-2.1c-0.9-0.5-1.3,0.2-1,1
		c0.5,1.1,1.4,2,2.5,2.5c3.6,1.8,7.7,2.7,11.8,2.4c1.7-0.1,4.1-0.2,5.7-1.1c0.6-0.4,1-1,1.4-1.6l3.1-4c4.6-5.9,9.1-11.8,13.7-17.6
		c6.8-8.8-0.4,0-0.1,0.1c0.2,0,0.5,0,0.7,0h2.8l10.1-0.2l27.8-0.6l11.6-0.2c2,0,4,0,6-0.1h0.3l-2.7-1.6l18.5,21.3l2.7,3.1
		c0.5,0.5,1.8,2,2.7,1.6c4.8-2.1,9.2-5.1,12.8-9c3.7-3.8,6.6-8.2,8.7-13c2.3-5.2,3.9-11.2,3.7-16.9c-0.4-9.4-6.2-18.2-12.1-25.1
		c-7.7-8.9-16.8-16.5-26.8-22.6c-9.2-5.7-19.4-10.5-30.1-12.5c-4.2-0.9-8.6-1-12.9-0.4c-5.7,1-11.3,2.4-16.8,4.2
		c-12.6,4-24.7,9.5-36.1,16.4c-9.9,6.1-20.1,13.6-26.4,23.6c-3.1,4.7-4.6,10.2-4.5,15.7c0.3,5.7,2,11.1,4.8,16
		c4.4,7.9,10.3,14.8,17.3,20.6l1.2,1c0.5,0.4,1.8,1.2,2.1,0.3S170.4,399,169.9,398.6z"></path><path class="st0" d="M185.2,384.5c0,0,11.4-15.6,17.9-14.4s11.8,29.6,9.1,30.4s-32.3,4.6-32.6,0.8S179.6,394.7,185.2,384.5z"></path><path class="st1" d="M187.5,385.4c1.6-2.2,3.3-4.2,5.1-6.2c2.7-3,6-6.6,10-7.9c0.3-0.1,0.6-0.2,0.9-0.2c0.3,0,0.2,0,0.2,0
		c-0.2,0-0.3-0.1-0.5-0.1c-0.2-0.1-0.4-0.1-0.6-0.3c0.1,0.1,0.2,0.1,0.3,0.2c-0.6-0.5,0.5,0.5,0.2,0.2c1,1.1,1.8,2.4,2.4,3.8
		c1.7,3.9,3,7.9,3.8,12.1c0.9,3.4,1.3,6.8,1.3,10.3c0,0.5-0.1,1-0.2,1.5c0,0.1-0.1,0.3-0.2,0.4c0,0,0-0.1,0.1-0.1
		c-0.1,0-0.2,0.1-0.4,0.1h0.1l-0.4,0.1c-0.6,0.1-1.1,0.2-1.7,0.3c-7.7,1.3-15.5,1.9-23.3,1.9c-0.8,0-1.6-0.1-2.4-0.1
		c-0.1,0-0.6-0.1-0.3,0s-0.1,0-0.2,0c-0.3-0.1-1.2-0.2-0.4,0c-0.1,0-0.3-0.1-0.4-0.1c-0.2-0.1,0.6,0.3,0.2,0.1
		c0.4,0.2,0.4,0.3,0.6,0.5c-0.2-0.1,0,0.2,0-0.1s-0.1-0.7-0.1-1c-0.2-3.8,1.6-7.4,3.2-10.6c0.8-1.6,1.7-3.2,2.5-4.8
		c0.6-1.1-4-2.9-4.8-1.5c-1.7,2.9-3.2,5.9-4.5,9c-0.7,1.7-1.2,3.4-1.3,5.2c-0.1,1.3-0.2,3,0.8,3.9c1.4,1,3,1.7,4.7,1.9
		c4.2,0.5,8.5,0.5,12.7,0.1c4.5-0.3,8.9-0.8,13.4-1.4c1.4-0.2,2.8-0.4,4.1-0.6c0.9-0.2,1.8-0.3,2.2-1.3c0.3-1.3,0.4-2.6,0.2-3.9
		c-0.1-2-0.4-3.9-0.7-5.8c-0.8-4.5-2-9-3.7-13.3c-1.4-3.5-3.3-7.2-7.1-8.5c-4.6-1.5-8.8,1.7-12.1,4.6c-3,2.8-5.7,5.8-8.2,9.1
		c-0.2,0.2-0.3,0.4-0.5,0.6C182,384.8,186.6,386.6,187.5,385.4z"></path><path class="st0" d="M279.8,383.7c0,0-11.4-15.6-17.9-14.4s-11.8,29.6-9.1,30.4s32.3,4.6,32.7,0.8S285.5,394,279.8,383.7z"></path><path class="st1" d="M282.1,384.3c-1.8-2.5-3.9-4.9-6-7.2c-3.5-3.7-7.5-7.2-12.5-8.5c-1.7-0.5-3.7-0.8-5.2,0.3
		c-1.2,1-2.2,2.2-2.8,3.7c-2,4-3.4,8.3-4.3,12.8c-1,3.7-1.5,7.5-1.4,11.4c0.1,1.2,0.2,2.1,1.4,2.7c1.5,0.7,3,1.2,4.6,1.3
		c8.5,1.5,17,2.2,25.6,2.1c1.7,0,6.2,0.2,6.4-2.3c0.3-4-1.2-7.6-3-11.1C284,387.8,283.1,386.1,282.1,384.3c-0.4-0.8-2-1.1-2.8-1.3
		c-0.2,0-2.2-0.5-1.9,0.1c1.6,2.8,3,5.6,4.3,8.5c0.7,1.6,1.2,3.3,1.4,5c0.1,0.9,0.3,2.6-0.2,3.4c-0.4,0.6-1.6,0.8-2.3,0.9
		c-3.6,0.4-7.3,0.4-10.9,0c-4.2-0.3-8.4-0.7-12.5-1.2l-2.4-0.3l-0.8-0.1h-0.3l-0.5-0.1c-0.4-0.1-0.8-0.2-1.2-0.2
		c0,0,0.7,0.2,0.4,0.1c0.8,0.3,1.7,0.7,2.5,1.1c-0.1-0.1-0.1-0.3-0.2-0.4c-0.3-1.1-0.3-2.2-0.1-3.4c0.1-1.8,0.3-3.6,0.6-5.4
		c0.7-4.2,1.8-8.3,3.2-12.3c0.6-1.8,1.4-3.5,2.3-5.1c0.6-1.2,1.5-2.2,2.6-3c0.4-0.2,0.9-0.3,1.3-0.3c0,0,0.1,0,0,0l-0.4-0.1h0.1
		c-0.1,0,0,0,0,0l0.5,0.2c1.8,1.1,3.5,2.5,5,4c2.6,2.5,5,5.3,7.2,8.2l0.4,0.5c0.8,0.7,1.8,1.2,2.8,1.4
		C280.4,384.5,282.5,384.8,282.1,384.3z"></path><path class="st1" d="M266.3,452.9l37.2-1.2l-1.1-32c0,0-23.9,4.9-29.2,21.5l-10.7-0.8L266.3,452.9z"></path><path class="st1" d="M266,454.8l32.6-1.1l4.6-0.1c1.4,0,2.8-0.9,2.7-2.4l-0.9-28.1l-0.1-4c0-1.2-2-1.5-2.8-1.3
		c-3.1,0.7-6.2,1.7-9.2,2.9c-6,2.2-11.4,5.7-15.9,10.1c-2.7,2.8-4.8,6.1-6.1,9.8l2.6-1.4l-10.7-0.8c-1.1-0.1-3.2,1-2.7,2.4l3.8,12.5
		c0.5,1.1,1.7,1.7,2.8,1.3c0.9-0.2,2.5-1.1,2.1-2.3l-3.8-12.5l-2.7,2.4l10.7,0.8c1.1,0.1,2.1-0.5,2.6-1.4c2-6,6.4-10.5,11.6-13.8
		c2.3-1.4,4.7-2.6,7.1-3.6c1.1-0.5,2.2-0.9,3.3-1.3l1.4-0.5l0.3-0.1l-0.2,0l0.7-0.2c1-0.3,2-0.5,2.9-0.8l-2.8-1.3l0.9,28.1l0.1,4
		l2.7-2.4l-32.6,1.1l-4.6,0.1c-1.1,0-2.6,0.6-2.8,1.9S264.9,454.8,266,454.8z"></path><path class="st0" d="M174.8,399.4c0,0-37.4,10.6-30.9,34.1S273,452.9,273,452.9l0.9-22.6C273.9,430.3,202.9,392,174.8,399.4z"></path><path class="st1" d="M174.8,397.6c-4.3,1.3-8.5,2.9-12.5,5c-6.9,3.4-14,8.1-18.2,14.8c-2.2,3.4-3.4,7.3-3.5,11.4
		c-0.1,3,0.7,6,2.2,8.5c2.6,3.7,7.2,5.9,11.3,7.5c6.3,2.3,12.7,4,19.3,5.1c8,1.4,16.1,2.3,24.1,3.1c8.3,0.7,16.7,1.2,25.1,1.5
		c7.7,0.3,15.3,0.5,23,0.5c5.9,0,11.8,0,17.6-0.1c2.9,0,5.8-0.1,8.7-0.2h0.4c1.2,0,3-0.8,3.1-2.2l0.8-19.8l0.1-2.8
		c0-0.5-0.3-0.9-0.7-1.1c-8.5-4.6-17.3-8.7-26.1-12.7c-16.2-7.2-33-14.1-50.4-17.6C191.3,396.8,182.7,395.6,174.8,397.6
		c-1,0.3-2.5,1-2.5,2.2s1.5,1.5,2.4,1.3c6.2-1.6,13.1-0.9,19.7,0.3c8.5,1.6,16.8,4,24.9,6.9c15,5.4,29.7,11.7,43.9,18.9
		c3,1.5,6,3,9,4.6l-0.7-1.1l-0.8,19.8l-0.1,2.8l3.1-2.2c-7,0.2-13.9,0.3-20.9,0.3c-15.2,0-30.4-0.4-45.6-1.4
		c-14.8-1-29.9-2.4-44.3-6.5c-2.6-0.7-5.2-1.6-7.6-2.7c-1.1-0.5-2.3-1.1-3.3-1.7c-0.4-0.2-0.9-0.5-1.3-0.8c-0.2-0.1-0.4-0.3-0.6-0.4
		c0.4,0.3-0.3-0.2-0.4-0.3c-0.7-0.6-1.4-1.3-2-2c-0.1-0.1-0.2-0.3-0.4-0.5s-0.4-0.7-0.1-0.2c-0.2-0.4-0.4-0.8-0.6-1.2
		c-1.2-3.2-1.4-6.6-0.6-9.9c0.9-3.4,2.7-6.5,5.1-9.1c2.5-2.7,5.4-5,8.6-6.8c1.6-1,3.2-1.8,4.8-2.6l0,0l0.6-0.3l1.1-0.5
		c0.7-0.3,1.5-0.7,2.2-1c2-0.8,4-1.6,6-2.2c0.3-0.1,1.7-0.5,0.3-0.1c1-0.3,2.4-0.9,2.4-2.2S175.7,397.4,174.8,397.6z"></path><path class="st0" d="M218.1,341.1c-2-4.3-4.2-8.5-6.5-12.6c-0.7-0.8-1.6-1.4-2.6-1.7c-0.5-0.2-1-0.3-1.5-0.4c-0.2,0-0.6,0-0.4,0.4
		c2.4,4.1,4.6,8.3,6.5,12.6c0.4,0.9,1.7,1.4,2.6,1.7C216.3,341.2,218.4,341.8,218.1,341.1L218.1,341.1z"></path><path class="st0" d="M233.3,341.4v-12.2c0-0.2-0.5-0.4-0.6-0.5c-0.5-0.2-1.1-0.4-1.7-0.5c-0.2,0-2.5-0.5-2.5,0v12.2
		c0,0.2,0.5,0.4,0.6,0.5c0.5,0.2,1.1,0.4,1.7,0.5C231,341.4,233.3,341.9,233.3,341.4L233.3,341.4z"></path><path class="st2" d="M233.1,319.4v-1.1c0-0.1-0.1-0.3-0.2-0.3c-0.1-0.1-0.3-0.3-0.5-0.3c-0.3-0.1-0.5-0.2-0.8-0.3
		c-0.3-0.1-0.6-0.2-0.9-0.2l-0.7-0.1c-0.4,0-0.8,0-1.1,0.1l-0.4,0.1c-0.2,0-0.3,0.2-0.4,0.4v1.1c0,0.1,0.1,0.3,0.2,0.3
		c0.1,0.1,0.3,0.3,0.5,0.3c0.3,0.1,0.5,0.2,0.8,0.3c0.3,0.1,0.6,0.1,0.9,0.2l0.7,0.1c0.4,0,0.8,0,1.1-0.1l0.4-0.1
		C232.9,319.7,233,319.6,233.1,319.4z"></path><path class="st0" d="M249.1,340.6c1.5-3,3-6,4.4-9c0.1-0.2-0.6-0.5-0.6-0.6c-0.5-0.3-1.1-0.5-1.7-0.6c-0.6-0.2-1.2-0.2-1.8-0.2
		c-0.2,0-0.7,0-0.8,0.2c-1.4,3-2.9,6-4.4,9c-0.1,0.2,0.6,0.6,0.6,0.6c0.5,0.3,1.1,0.5,1.7,0.6c0.6,0.2,1.2,0.2,1.8,0.3
		C248.5,340.9,248.9,340.9,249.1,340.6L249.1,340.6z"></path><path class="st0" d="M281.6,395c0,0,14.3-17.3,10.8-20.7s-14.9,8.7-14.9,8.7"></path><path class="st1" d="M283.4,396.7c3.9-4.7,7.8-9.7,10.4-15.2c1.4-2.9,2.7-7-0.8-9s-7.7,0.7-10.6,2.8c-2.5,1.9-4.8,3.9-6.9,6.2
		c-0.7,0.8-0.6,2.1,0.2,2.8c0.1,0,0.1,0.1,0.2,0.1c0.8,0.7,2.5,1.2,3.4,0.3c1.6-1.6,3.2-3.2,4.9-4.6c0.7-0.6,1.4-1.2,2.2-1.7l1-0.7
		l0.6-0.4c-0.3,0.2,0.2-0.1,0.3-0.2c0.7-0.4,1.4-0.7,2.1-1c0.2-0.1,0.4-0.1,0,0l0.4-0.1c0.1,0,0.6-0.1,0.2,0s0.1,0,0.2,0
		c0.3,0.2-0.5-0.1-0.1,0s-0.3-0.1-0.3-0.1s0.3,0.1-0.1-0.1s-0.2-0.1-0.1,0s0,0.1-0.1-0.1s-0.2-0.2-0.1-0.1c0.2,0.3-0.2-0.5-0.1-0.2
		c0.2,0.5,0-0.5,0,0.1c0,0.1,0,0.2,0,0.4c0,0.3,0.1-0.4,0,0c-0.1,0.6-0.2,1.2-0.4,1.8c-0.1,0.4,0.1-0.3,0,0.1
		c-0.1,0.1-0.1,0.3-0.2,0.5c-0.1,0.4-0.3,0.8-0.5,1.1c-1.6,3.2-3.5,6.2-5.7,9.1c-1,1.4-2,2.7-3,4c-0.3,0.4-0.6,0.8-0.9,1.2
		s-0.3,0.4,0,0l-0.1,0.1c-0.7,0.8-0.7,2.1,0.1,2.8c0.1,0.1,0.1,0.1,0.2,0.2c0.7,0.6,2.6,1.3,3.4,0.3L283.4,396.7z"></path><polygon class="st1" points="188.3,352.2 274.5,351 264.6,401.9 198.9,403.1 	"></polygon><path class="st1" d="M187.4,353.6l8.6-0.1l20.6-0.3l24.9-0.3l21.6-0.3l7.1-0.1c1.1,0.1,2.2,0,3.4,0h0.1l-1.5-1.2l-3.3,17.2
		l-5.3,27.3l-1.2,6.3l3.3-1.7l-22.2,0.4l-35.4,0.6l-8.2,0.1l1.5,0.8l-3.6-17.2l-5.7-27.4l-1.3-6.3c-0.4-1.8-5.2-0.5-4.8,1.3
		l3.6,17.2l5.7,27.4l1.3,6.3c0.1,0.6,1,0.8,1.5,0.8l22.2-0.4l35.4-0.6l8.2-0.1c1,0,3.1-0.4,3.3-1.7l3.3-17.2l5.3-27.3l1.2-6.3
		c0.2-0.8-0.9-1.2-1.5-1.2l-8.5,0.1l-20.5,0.3l-24.9,0.3l-21.6,0.3c-3.5,0-7,0.1-10.4,0.1h-0.1c-1.1,0-2.6,0.3-3.2,1.4
		S186.5,353.6,187.4,353.6z"></path><path class="st0" d="M230.1,374.7l0.2-0.1c0.1,0-0.8,0.2-0.4,0.2h0.1L230.1,374.7c0.6-0.1,1.1-0.2,1.6-0.3h0.2c0.4-0.1-0.5,0-0.3,0
		h0.5h0.5c0.2,0,0.8,0.1,0.2,0s0,0,0.2,0s0.8,0.3,0.2,0s0,0,0.1,0.1l0.2,0.1c0.2,0.1-0.4-0.3-0.4-0.2s0.1,0.1,0.1,0.1l0.2,0.2
		l0.1,0.1c0.2,0.2-0.2-0.3-0.2-0.3c0.1,0.2,0.3,0.3,0.4,0.5l0.1,0.1c0.1,0.2-0.3-0.6-0.1-0.2c0.1,0.1,0.1,0.2,0.1,0.3
		c0.1,0.3,0.2,0.6,0.3,0.9l-0.1-0.5c0.1,0.5,0.2,1,0.1,1.6l0.1-0.6c0,0.4-0.1,0.9-0.3,1.3l0.2-0.5c-0.2,0.4-0.4,0.7-0.7,1.1l0.4-0.4
		c-0.2,0.2-0.3,0.3-0.5,0.5l-0.3,0.2c-0.3,0.2,0.6-0.3,0.1-0.1c-0.2,0.1-0.4,0.2-0.7,0.3c-0.4,0.1,0.6-0.2,0.1,0l-0.4,0.1l-0.4,0.1
		c-0.4,0.1,0.7,0,0.1,0c-0.3,0-0.5,0-0.8,0c-0.6,0,0.6,0.1,0.1,0l-0.4-0.1c-0.3-0.1-0.6-0.2-0.9-0.3c-0.6-0.2-1.3-0.1-1.9,0.2
		c-0.9,0.4-1.4,1.5-0.9,2.5c0.1,0.1,0.1,0.3,0.2,0.4c0.4,0.5,1,0.8,1.6,1c2.2,0.8,4.7,0.7,6.9-0.4c1-0.5,1.8-1.3,2.4-2.3
		c0.6-1,0.9-2.1,0.8-3.3c0-2.4-1.3-4.6-3.4-5.8c-1.7-0.8-3.6-1.1-5.5-0.8c-1,0.1-2,0.4-3,0.8c-1,0.4-1.4,1.6-0.9,2.5
		c0.1,0.1,0.1,0.3,0.2,0.4C227.5,374.8,228.9,375.2,230.1,374.7L230.1,374.7z"></path><path class="st0" d="M182.6,397.2c0,0-12.4-17-8.6-20.6s13.9,8.2,13.9,8.2"></path><path class="st1" d="M184.8,396.2c-3.1-4-5.7-8.4-7.8-13c-0.6-1.3-1-2.7-1.3-4.1c0-0.2-0.1-0.5-0.1-0.7c0,0.4,0-0.3,0-0.5
		s0.2-0.8,0-0.3c0,0,0.1-0.2,0.1-0.3c0-0.1,0.1-0.1,0.1-0.2c-0.2,0.3-0.2,0.3-0.1,0.2c0.2-0.3-0.4,0.3,0,0s-0.5,0.3-0.1,0l-0.4,0.1
		c0.3-0.1,0.2-0.1-0.3,0c0.2,0,0.6,0-0.1,0h0.4c0.5,0-0.4-0.2,0,0s0.7,0.2,1.1,0.4c-0.4-0.2,0.1,0.1,0.2,0.1l0.5,0.3
		c0.3,0.2,0.7,0.4,1,0.6c0.7,0.5,1.4,1,2.1,1.6c1.9,1.6,3.7,3.3,5.3,5.2c1.3,1.5,5.9-0.2,4.5-2c-1.7-1.9-3.5-3.7-5.4-5.3
		c-2.7-2.3-6.4-5-10.1-4c-1.8,0.4-3.2,1.7-3.7,3.5c-0.2,1.4-0.1,2.8,0.4,4.1c1.2,3.5,2.9,6.9,4.9,10c1.3,2.1,2.7,4.2,4.1,6.2
		c1.2,1.6,5.9-0.1,4.5-2L184.8,396.2z"></path><path class="st0" d="M206.8,296.6c9.4,11.4,17.2,9.8,14.5,18.7c0,0,17.9,10.9,26.2-4.6c1.3-2.4,11.5-20.8-3.4-38.6
		c0,0-8.8-9.4-2.7-18.9c0,0-10.9,5.4-18.8,1.9s-22.2-12.8-27.2-5.6s4.6,14.5,11.9,16l-3.7,12.2c6.8,4.9,13.1-2,13.1-2
		s2.1,9.4-0.8,12s-11,0.6-11,0.6C204.1,291.2,204.8,294.3,206.8,296.6z"></path><path class="st1" d="M204.4,296.2c1.9,2.3,4.1,4.5,6.5,6.4c1.7,1.4,3.5,2.6,5.2,3.9c1.3,0.8,2.3,1.9,3,3.2c0.5,1.6,0.5,3.4-0.2,5
		c-0.1,0.3,0.5,0.5,0.6,0.6c3.6,2.1,7.6,3.5,11.7,4.2c3.1,0.6,6.4,0.5,9.5-0.2c3.4-1,6.3-3.2,8.2-6.1c2.7-4.2,4.5-8.8,5.2-13.7
		c1.5-8.8-0.7-17.9-6.1-25c-1.7-2.3-3.6-4.3-4.8-7c-2.2-4.3-1.9-9.5,0.6-13.6c0.5-0.7-4.1-1.7-4.7-1.4c-3.4,1.7-7.1,2.7-10.9,2.9
		c-1.2,0.1-2.3,0-3.5-0.2c-1-0.3-1.9-0.7-2.8-1.2c-2.5-1.2-4.9-2.5-7.4-3.6c-4.9-2.3-10.6-4.8-16.2-4.3c-2,0.1-3.9,1-5.2,2.5
		c-1.6,2-2.1,4.7-1.2,7.1c1,2.9,3.5,5.1,5.9,6.7c3,1.9,6.3,3.3,9.8,4l-2.9-1.4l-3.7,12.2c0,0.2,0.1,0.3,0.2,0.4
		c5.4,3.7,12.9,4,17.6-1l-4.7-1.4c0.3,1.3,0.5,2.7,0.6,4.1c0.2,2.2,0.4,4.8-0.6,6.8s-3.5,2.3-5.5,2.2c-0.9,0-1.8,0-2.7-0.1l-1.1-0.2
		c-0.4-0.1,0.7,0.2,0.1,0c-0.4-0.1-2.4-0.6-2.6,0C201.5,290.6,202.6,293.9,204.4,296.2c0.8,0.7,1.8,1.1,2.8,1.2
		c0.2,0,2.3,0.2,1.9-0.3c-1.9-2.2-2.5-5.2-1.8-8h-2.6c1.9,0.5,3.9,0.8,5.9,0.9c2.4,0.2,5.9,0.3,7.7-1.6c1.6-1.7,1.5-4.7,1.4-6.9
		c-0.1-1.7-0.3-3.4-0.7-5c-0.1-0.7-1.4-1-1.9-1.2s-2.3-0.8-2.8-0.2c-0.9,0.9-1.9,1.7-2.9,2.3c-1,0.6-2,1-3.1,1.2
		c-0.9,0.3-1.9,0.1-2.6-0.5l0.2,0.4l3.7-12.2c0.2-0.7-2.6-1.3-2.9-1.4c-4.1-0.9-9.4-4.8-10.3-9.3c-0.7-3.5,1.6-6.9,5.1-7.6
		c0.7-0.1,1.3-0.2,2-0.1c1.9,0.3,3.8,0.9,5.5,1.7c2.3,1,4.6,2.1,6.9,3.2c2.2,1.2,4.5,2.3,6.8,3.2c2.9,1,5.9,1.4,9,1.2
		c4.1-0.3,8.2-1.3,11.9-3.2l-4.7-1.4c-3.8,6.1-1.9,13.4,2.4,18.6c5.2,6.2,8.5,13.7,8.3,21.9c-0.1,5.5-1.5,11-4.1,15.9
		c-1.1,2.5-2.8,4.7-4.9,6.4c-2.3,1.7-5.1,2.7-8,2.7c-0.7,0-1.4,0-2.1-0.1c-0.1,0-0.4-0.1-0.1,0l-0.6-0.1l-0.4-0.1l-0.3-0.1h0.1
		l-0.9-0.2l-0.4-0.1c0.6,0.2,0,0-0.2-0.1l-0.9-0.3l-0.4-0.1c0.5,0.2-0.1,0-0.1-0.1c-0.5-0.2-0.9-0.4-1.4-0.6
		c-0.2-0.1-0.7-0.3-0.2-0.1l-0.5-0.3c-0.3-0.2-0.6-0.3-1-0.5l0.6,0.6c0.6-1.6,0.7-3.5,0.2-5.1c-0.6-1.4-1.6-2.6-2.9-3.5
		c-1.6-1.3-3.4-2.4-5-3.6c-2.5-1.9-4.8-4.2-6.9-6.6c-0.8-0.7-1.8-1.1-2.9-1.2C206.1,295.8,203.9,295.6,204.4,296.2z"></path><path class="st1" d="M253.1,307.1c0,0,7.9,9.4,13.2,5.2s-1.9-7.3-1.9-7.3s14.8-5.7,6.2-14.6c0,0,14-2.4,12.8-14.6
		s-17.5-16.3-17.5-16.3s8.6-11.5-2.6-17.1s-13.6,3.2-13.6,3.2s-7.1-3.7-10.1,0.2s0.7,8.9,0.7,8.9s-6.3,12.8,3.7,17.3l-1.7,20.4
		c-4.1,2.2-6.8,6.3-7.2,10.9C234.6,311.1,248.3,314.9,253.1,307.1z"></path><path class="st1" d="M253.9,309.1c2.2,2.6,5,5.1,8.2,6.1c2.2,0.9,4.8,0.2,6.3-1.6c2-2.3,0.1-5.3-1.3-7.4c-0.9-1.4-2.3-2.6-3.8-3.3
		l2.2,4.4c2.7-1,5.1-2.6,7-4.7c1.3-1.4,2-3.3,1.8-5.2c-0.3-1.5-0.8-3-1.5-4.3c-0.8-1.7-1.9-3.2-3.1-4.6l2,4.2
		c5.4-0.9,11-4.5,12.5-10c1.4-5.1-0.9-10.4-3.6-14.7c-2.3-3.4-5.5-6.2-9.2-8c-2.1-1.1-4.4-2-6.7-2.6l2.3,4.4
		c1.8-2.4,2.9-5.3,3.2-8.3c0.2-3-1.2-5.9-2.7-8.4c-1.7-2.7-4.4-4.8-7.4-5.8c-3.9-1.4-8.4-1.4-10.8,2.5c-0.3,0.4-0.5,0.8-0.6,1.3
		c-0.1,0.4,0.1,0.3-0.2,0.2c-0.8-0.2-1.5-0.5-2.2-0.9c-1.2-0.4-2.4-0.6-3.6-0.6c-3.5,0-5.7,3-5.3,6.4c0.6,3,1.8,5.8,3.7,8.2
		l-1.8-3.9c-1.2,2.5-1.9,5.3-2,8.2c0,2.6,0.7,5.1,2,7.4c1.2,2.7,3.3,4.9,5.9,6.2l-2.1-4.3c-0.6,6.7-1.1,13.4-1.6,20.1
		c0,0.4,0,0.2-0.1,0.3c-0.4,0.4-1,0.6-1.5,0.9c-1.9,1.4-3.5,3.2-4.5,5.4c-1.3,2.4-1.5,5.3-0.6,7.9c1,2.7,2.6,5.6,5.1,7.2
		c4.6,3,11.5,2.4,14.6-2.5c0.3-0.5-0.7-2-0.9-2.4c-0.4-0.7-0.9-1.4-1.4-2.1c-2.6,4.1-7.8,5.2-12.2,3.6c-1.1-0.4-2-0.9-2.9-1.6
		c-0.4-0.3-0.7-0.6-1-1c0,0-0.3-0.2-0.1-0.1c0.4,0.3,0.9,2.3,0.8,1.6c0-0.2-0.1-0.4-0.1-0.7c-0.2-2.8,0.7-5.5,2.4-7.8
		c1.1-1.5,2.4-2.8,4-3.8c0.7-0.4,0.8-0.4,0.9-1.1l0.8-10.3l0.8-9.6c-0.1-0.8-0.5-1.6-0.9-2.2c-0.3-0.5-0.7-1.8-1.3-2
		c-1-0.5-2-1.1-2.8-1.8c-0.3-0.3-0.5-0.6-0.8-0.9c0.7,0.5,0.8,1.8,0.4,0.6c-0.4-1.6-0.4-3.3-0.1-5c0.3-2,0.9-4,1.7-5.8
		c0.2-0.4-0.3-1.2-0.5-1.5c-0.4-0.8-0.8-1.6-1.3-2.4l-0.2-0.2c0.1,0.1,0.2,0.3,0.1,0.1l0.4,0.6c0.3,0.6-0.1-0.5-0.2-0.7
		c-0.1-0.5-0.2-0.9-0.1-1.4c-0.1-2.2,1.2-4.1,3.3-4.9c2.5-0.9,5.6,0.1,7.8,1.2h0.1c1-3.1,3.9-5.2,7.2-5.1c1.9,0.1,3.8,0.6,5.6,1.5
		c0.9,0.4,1.8,0.9,2.6,1.5c0.7,0.5,1.2,1.2,1.9,1.8c0.2,0.1-0.4-0.8-0.4-0.7c-0.5-1.1-0.2-0.5-0.2-0.3s0.1,0.5,0.2,0.8
		c0.1,0.7,0.1,1.4,0.1,2.1c-0.1,1.3-0.4,2.5-0.9,3.7c-0.6,1.5-1.3,2.9-2.2,4.2c-0.3,0.4,0.7,2,0.9,2.4c0.3,0.5,0.8,1.9,1.4,2.1
		c5.1,1.2,9.8,3.9,13.4,7.8c0.3,0.3,0.6,0.7,0.8,1c0.1,0.1,0.5,0.8,0.3,0.5s0,0,0,0.2c0.2,0.6,0.3,1.1,0.4,1.7
		c0.4,2.1,0.2,4.3-0.5,6.3c-1.2,3.1-3.6,5.6-6.6,7.1c-1.7,1-3.6,1.6-5.6,2c-0.3,0,1.7,3.9,2,4.2s0.7,0.9,1.1,1.3
		c-1.4-1.3-0.7-1.7-0.6-1c0,0.2,0.1,0.4,0.1,0.6c0.1,0.8,0,1.7-0.3,2.4c-0.7,1.5-1.7,2.8-3,3.8c-1.7,1.4-3.5,2.5-5.5,3.3
		c-0.3,0.1,1.7,4.2,2.2,4.4c0.4,0.2,0.9,0.4,1.2,0.7c0.4,0.2,0.7,0.5,1.1,0.8c0.2,0.2,0.3,0.4,0.5,0.5c-1.1-2.7-1.5-3.5-1.3-2.4v0.2
		c-0.5,2.6-2.9,4.4-5.5,4.1c-3.6-0.3-7.1-3.4-9.3-6c-0.6-0.8,0,0.9,0,1C252.5,307.2,253.2,308.2,253.9,309.1z"></path><path class="st0" d="M241.1,273.2c0,0,6.9-6.9,11.5-1.4s-5.8,24.8-15.5,17.2"></path><path class="st1" d="M242.7,275.1c0.5-0.5,1-0.9,1.6-1.3c0.2-0.2,0.5-0.4,0.7-0.5l0.2-0.1c0,0-0.3,0.2-0.1,0.1l0.5-0.3
		c0.6-0.3,1.3-0.6,2-0.8c0.2-0.1-0.1,0-0.1,0l0.3,0c0.2,0,0.4-0.1,0.6-0.1c0.2,0,0.4,0,0.5,0c-0.4,0,0.1,0,0.2,0s0.6,0.1,0.3,0.1
		s0.2,0.1,0.3,0.1l0.3,0.1c0,0-0.3-0.2-0.1,0c0.2,0.1,0.4,0.3,0.6,0.5c-0.3-0.3,0.1,0.1,0.2,0.2c0.1,0.1,0.2,0.3,0.3,0.4
		c-0.2-0.1-0.3-0.6-0.1-0.2l0.2,0.4c0.2,0.4-0.1-0.3-0.1-0.1c0,0.1,0.1,0.3,0.1,0.4c0,0.1,0.1,0.2,0.1,0.4s0,0.1,0,0.2
		c0.1,0.2,0-0.5,0-0.2c0,0.6,0.1,1.2,0,1.8c0,0.2-0.1,0.4,0,0l-0.1,0.5c-0.1,0.3-0.1,0.7-0.2,1c-0.2,0.7-0.4,1.4-0.6,2.1l-0.2,0.5
		c-0.1,0.2,0-0.1,0-0.1c0,0.1-0.1,0.2-0.1,0.2c-0.2,0.3-0.3,0.7-0.5,1c-0.7,1.3-1.5,2.6-2.4,3.8c-0.1,0.2,0.1-0.1,0.1-0.1l-0.2,0.2
		c-0.1,0.1-0.2,0.3-0.4,0.4c-0.2,0.3-0.5,0.5-0.8,0.8c-0.5,0.5-1,0.9-1.6,1.3c-0.4,0.3,0.2-0.1-0.2,0.1c-0.2,0.1-0.3,0.2-0.5,0.3
		c-0.3,0.1-0.6,0.3-1,0.4l-0.5,0.1c-0.2,0.1,0.2,0,0.2,0l-0.3,0.1c-0.3,0-0.7,0.1-1,0.1H241c-0.3,0,0.4,0,0.1,0l-0.5-0.1
		c-0.2,0-0.4-0.1-0.6-0.1s0.4,0.2-0.1,0s-0.7-0.3-1.1-0.5s0.1,0.1,0.2,0.1l-0.3-0.2c-0.2-0.1-0.4-0.3-0.6-0.4
		c-0.9-0.7-2.2-0.7-2.9,0.2c0,0-0.1,0.1-0.1,0.1c-0.5,1.2-0.1,2.5,0.9,3.2c2.9,2.4,6.8,2.9,10.2,1.4c3.1-1.6,5.6-4.2,7.2-7.3
		c1.7-2.9,2.6-6.2,2.5-9.6c-0.2-4.3-3.7-7.7-8-7.9c-3.1-0.1-6.3,1.8-8.4,3.9c-0.8,0.9-0.8,2.3,0.1,3.2
		C240.2,275.4,241.8,276,242.7,275.1L242.7,275.1z"></path><path class="st1" d="M229.6,263.1c-0.8-0.3-1.7,0.2-2,1c0,0.1,0,0.2-0.1,0.3c-0.3,1.7,1.8,2.1,2.6,0.7c0.4-0.6,0.3-1.4-0.3-1.9
		C229.7,263.2,229.6,263.1,229.6,263.1z"></path></g><g id="character-1"><path class="st0" d="M92,425.6l8.8,0.5c0,0,23.9,6.8,21.5,11.8s-15.6,6.9-32.9,6.1s-23.5-6.5-17-18.8L92,425.6z"></path><path class="st1" d="M92.6,427.8l7.5,0.4c0.4,0,0.8,0.1,1.2,0.1c0.2,0-0.8-0.2-0.3,0s1.4,0.4,2.1,0.6l1.7,0.5l0.4,0.1
		c0.6,0.2-0.5-0.2,0.2,0.1l1.1,0.4c1.5,0.5,3,1.1,4.5,1.7c1.5,0.6,3,1.2,4.4,1.9c0.7,0.3,1.3,0.7,2,1c0.2,0.1,0.3,0.2,0.5,0.3
		c0.4,0.2-0.5-0.3,0,0c0.3,0.2,0.7,0.4,1,0.6s0.4,0.3,0.6,0.5l0.3,0.3c0.4,0.3-0.3-0.3-0.1-0.1c0.1,0.2,0.3,0.3,0.4,0.5
		c0.3,0.3-0.2-0.5-0.1-0.1c0,0.1,0.1,0.2,0.2,0.3c-0.2-0.2-0.2-0.5-0.1-0.2s-0.1,0.2,0-0.2c0,0.3,0,0,0,0c0.5-0.2-0.3-0.1,0,0
		c0,0.1-0.1,0.2-0.2,0.3c-0.2,0.2-0.4,0.5-0.6,0.7s0.4-0.3-0.1,0L119,438c-0.2,0.2-0.5,0.3-0.7,0.5c-0.6,0.4-1.2,0.7-1.9,1
		c-1.7,0.7-3.5,1.2-5.4,1.5c-5.2,0.9-10.4,1.2-15.6,1.1c-5.2,0-10.6-0.1-15.6-1.4c-0.9-0.2-1.8-0.5-2.7-0.8
		c-0.4-0.2-0.8-0.4-1.2-0.6l-0.6-0.3c-0.5-0.3,0.3,0.2-0.2-0.1s-0.7-0.5-1-0.8c-0.1-0.1-0.4-0.3,0,0c-0.1-0.1-0.3-0.3-0.4-0.4
		s-0.2-0.3-0.4-0.4c-0.4-0.5,0.2,0.4-0.1-0.1c-0.2-0.3-0.4-0.7-0.5-1c0.2,0.5-0.1-0.5-0.2-0.6s-0.1-0.3-0.1-0.5
		c-0.1-0.6,0,0.4,0-0.2c0-0.8,0-1.5,0.1-2.3c0.4-2,1.1-4,2.1-5.8l-1.4,0.7L92.6,427.8c1,0.1,1.8-0.7,1.8-1.7c0-0.2,0-0.3-0.1-0.5
		c-0.4-1.2-1.5-2.1-2.8-2.1l-19.5-0.4c-0.6,0-1.1,0.2-1.4,0.7c-1.8,3.5-3.4,7.5-2.6,11.6c0.8,3.7,3.7,6.3,6.9,7.9
		c4.4,2.1,9.6,2.7,14.4,3c6.4,0.4,12.7,0.3,19.1-0.3c4.3-0.5,9-1.2,12.9-3.4c2.5-1.5,4.6-4,3-7c-1.6-2.8-5-4.4-7.8-5.7
		c-3.2-1.5-6.5-2.8-9.9-3.9c-2-0.7-4.2-1.7-6.4-1.9c-2.9-0.2-5.8-0.3-8.7-0.5c-1,0-1.7,0.8-1.8,1.7c0,0.2,0,0.4,0.1,0.5
		C90.2,426.9,91.3,427.8,92.6,427.8z"></path><path class="st0" d="M100.3,396.5c0,0-7,22.9-5.9,25.4s18.3,7.8,15.7,8.1c-2,0.2-6.5,4.2-21.6,2.8c-15.4-1.4-14.7-3.4-15.7-6.5
		s-1-33.9-1-33.9L100.3,396.5z"></path><path class="st1" d="M97.9,397c-0.9,3-1.8,5.9-2.6,8.9c-1.4,4.5-2.5,9.2-3.3,13.9c-0.2,1.1-0.5,2.6,0.3,3.5c1.2,1.3,3.1,2,4.6,2.7
		c3.6,1.6,7.4,3,11,4.8c0.2,0.1-0.1,0,0,0c-0.3-0.1,4.6-1.9,2.7-1.6c-0.5,0.1-0.9,0.2-1.4,0.3c-0.7,0.2-1.3,0.5-1.9,0.7l-0.8,0.4
		l-0.5,0.2c0.8-0.3-0.1,0-0.2,0.1c-0.4,0.1-0.9,0.3-1.3,0.4l-0.3,0.1c-0.4,0.1,0.4-0.1,0,0l-0.9,0.2c-3,0.6-6.1,0.8-9.2,0.6
		c-4-0.1-8-0.5-12-1.3c-1.8-0.3-3.8-0.7-5.2-1.8c-0.7-0.6-1.2-1.4-1.4-2.3c-0.6-2.8-0.9-5.6-0.9-8.4c-0.3-8.7-0.4-17.3-0.4-26v-0.6
		l-3.9,1.9l24.9,3.6l3.5,0.5c1.2,0.1,2.4-0.3,3.4-1c0.8-0.6,0.6-1.1-0.4-1.2l-25-3.6l-3.5-0.5c-1-0.1-3.9,0.5-3.9,1.9
		c0,8,0.1,16.1,0.3,24.1c0.1,2.2,0.1,4.3,0.3,6.5c0,1.2,0.2,2.4,0.4,3.5c0.2,1,0.6,2,1.2,2.8c1.1,1.1,2.5,1.8,4,2.1
		c3.3,0.8,6.7,1.4,10.1,1.6c4.2,0.5,8.4,0.5,12.5,0.2c2.7-0.3,5.4-0.8,7.9-1.6c0.9-0.3,1.8-0.6,2.7-1l0.8-0.3
		c0.7-0.3-0.4,0.1,0.1-0.1c0.3-0.1-0.8,0.2-0.3,0.1c-0.8,0.1-0.2,0.1,0.2,0c1-0.1,2-0.6,2.7-1.3c0.4-0.6,0.2-0.9-0.3-1.2
		c-1.6-0.9-3.3-1.7-5.1-2.2c-2.3-0.9-4.6-1.8-6.8-2.9c-0.9-0.4-1.7-0.9-2.6-1.4c-0.5-0.4-0.9-0.6-1-1.1c-0.3-1.3,0.2-3,0.5-4.4
		c0.5-2.5,1.1-4.9,1.7-7.3c1.1-4.2,2.3-8.4,3.5-12.5c0.1-0.2,0.2-0.5,0.2-0.8C103,394.9,98.3,395.7,97.9,397z"></path><path class="st0" d="M74.9,427.9l8.8,0.5c0,0,23.9,6.9,21.5,11.8s-15.6,6.9-32.9,6.1s-23.5-6.5-17-18.8L74.9,427.9z"></path><path class="st1" d="M75.5,428.6l7.6,0.5c0.4,0,0.8,0.1,1.1,0.1s-2.7-0.6-1.6-0.2c0.7,0.2,1.5,0.5,2.2,0.7c2.8,0.9,5.2,1.7,8,2.9
		c2.8,1,5.5,2.4,8,4.1c1.6,1.2,2.7,2.6,1.2,4.3c-2.1,2.4-5.8,3.2-8.8,3.8c-5.1,0.9-10.3,1.3-15.5,1.1c-4.9,0-10-0.1-14.7-1.4
		c-3-0.9-6.2-2.5-7.3-5.6c-1.3-3.6,0.4-7.7,2.1-10.9l-1.9,0.5L75.5,428.6c0.4,0,2,0.1,1.8-0.7s-2.5-0.8-3-0.9l-19.5-0.4
		c-0.5,0-1.6-0.1-1.9,0.5c-1.6,3.1-3.2,7-2.2,10.6c0.9,3.2,3.7,5.2,6.7,6.4c4.9,2,10.3,2.5,15.5,2.8c6.3,0.4,12.7,0.3,19-0.4
		c4.3-0.5,8.9-1.1,12.7-3.3c1.8-1,4.2-3,2.7-5.2c-1.6-2.4-5-3.8-7.4-4.9c-3.2-1.4-6.5-2.7-9.9-3.8c-2.2-0.9-4.5-1.5-6.9-1.8
		c-2.9-0.2-5.8-0.3-8.8-0.5c-0.4,0-2.1-0.1-1.8,0.7S75,428.6,75.5,428.6z"></path><path class="st0" d="M83.2,398.8c0,0-7,22.9-5.9,25.4s18.3,7.8,15.7,8.1c-1.9,0.2-6.5,4.2-21.6,2.8c-15.4-1.4-14.7-3.3-15.7-6.5
		s-1-33.9-1-33.9L83.2,398.8z"></path><path class="st1" d="M80.7,398.9c-1.8,5.9-3.5,11.9-4.9,18c-0.4,1.6-0.7,3.2-1,4.9c-0.2,1-0.3,2-0.1,3c0.4,1.2,1.8,1.9,2.8,2.4
		c1.7,0.9,3.4,1.7,5.2,2.4c2,0.8,3.9,1.6,5.9,2.4l1,0.4l0.4,0.2c0.3,0.1-0.2-0.1,0.2,0.1c0.2,0.1,0.4,0.3,0.6,0.4s-0.1,0.2-0.1-0.1
		c0,0.2-0.1-0.7,0.1-0.9l0.8-0.7c0.4-0.3,1.5-0.5,0.6-0.3c-0.4,0.1-0.9,0.3-1.3,0.4c-0.7,0.3-1.4,0.6-2.2,0.9
		c-0.4,0.2-0.9,0.3-1.4,0.5s0,0,0.1,0l-0.5,0.1c-0.3,0.1-0.7,0.2-1.1,0.3c-1.5,0.4-3.1,0.6-4.7,0.7c-4.8,0.2-9.6-0.1-14.4-0.9
		c-1.6-0.2-3.2-0.5-4.8-0.9c-0.5-0.1-1.1-0.3-1.6-0.5l-0.3-0.1c0.4,0.2,0.1,0.1,0,0c-0.2-0.1-0.4-0.2-0.6-0.3
		c-0.1-0.1-0.3-0.2-0.4-0.3c0.1,0.1,0.1,0.1-0.1-0.1c-0.2-0.2-0.3-0.5-0.5-0.7c0.2,0.4-0.1-0.2-0.2-0.4s-0.2-0.6-0.2-0.9
		c-0.3-1.4-0.5-2.8-0.6-4.2c-0.4-5.7-0.4-11.5-0.5-17.2c0-4.4-0.1-8.7-0.1-13l-3.4,2l25,3.6l3.5,0.5c1.2,0.2,2.5-0.3,3.2-1.3
		c0.6-1-0.4-1.6-1.3-1.8l-25-3.6l-3.5-0.5c-1.3-0.2-3.4,0.4-3.4,2c0,8,0.1,16.1,0.3,24.1c0.1,2.2,0.1,4.3,0.3,6.5
		c0,1.2,0.2,2.3,0.4,3.5c0.2,1.1,0.6,2.1,1.2,3c1.1,1.2,2.6,2.1,4.2,2.4c3.3,0.9,6.6,1.4,10,1.7c4.2,0.5,8.5,0.6,12.8,0.3
		c2.8-0.2,5.5-0.8,8.1-1.6c1.3-0.4,2.5-0.8,3.7-1.4c0,0-0.7,0.2-0.1,0c0.8-0.1,1.6-0.6,2.2-1.2c0.5-0.8,0.1-1.4-0.6-1.8
		c-1.6-0.9-3.3-1.7-5.1-2.3c-2.2-0.9-4.6-1.9-6.7-2.8c-0.9-0.4-1.8-0.9-2.6-1.4l-0.5-0.3c-0.3-0.2,0,0-0.2-0.1
		c-0.1-0.1-0.1-0.2-0.2-0.3c-0.2-0.2,0,0.3,0,0c0-0.2,0-0.4-0.1-0.5c0,0.2,0-0.2,0-0.3l0.1-0.6c0.1-0.9,0.3-1.9,0.5-2.8
		c0.5-2.5,1.1-4.9,1.7-7.3c1.1-4.2,2.3-8.4,3.5-12.5c0.1-0.2,0.2-0.5,0.2-0.7C86.2,396.7,81.3,397.1,80.7,398.9z"></path><path class="st0" d="M127.8,406.5c0,0-15.8-122.7-7-146.1c3.6-9.9-40.8-29.2-40.8-29.2s-22.2,22.8-28.6,64.3s-9.9,118-9.9,118
		S100.4,428.2,127.8,406.5z"></path><path class="st1" d="M129.9,407.3c-0.3-2.1-0.5-4.2-0.8-6.3c-0.7-5.5-1.3-11.1-1.9-16.6c-0.9-7.9-1.7-15.7-2.5-23.6
		c-0.9-9-1.7-18.1-2.4-27.1c-0.7-9.1-1.3-18.2-1.7-27.3c-0.3-8-0.5-15.9-0.3-23.9c0-5.8,0.5-11.7,1.6-17.4c0.4-1.9,1.5-3.9,1.1-5.9
		c-0.5-2.8-2.8-5.3-4.8-7.2c-6-5.6-13.4-9.8-20.6-13.7c-5.5-3-11.2-5.8-17-8.3l-0.9-0.4c-0.5-0.3-1.2-0.3-1.6,0.1
		c-5,5.1-8.9,11.4-12.4,17.5c-8.5,15.1-14.1,31.7-16.5,48.9c-2.3,15.5-3.8,31.2-5.1,46.8c-1.3,15.2-2.4,30.3-3.3,45.5
		c-0.5,7.8-1,15.7-1.3,23.5c0,0.1,0,0.2,0,0.3c-0.1,1.5,1.7,2.7,2.9,3c7.2,1.7,14.5,3,21.9,3.8c14.5,1.6,29.4,2,43.7-1.2
		c7.9-1.8,15.5-4.8,21.8-9.8c1.2-0.9-2.4-4.3-3.9-3.1c-11.3,8.9-26.7,11.2-40.7,11.6c-12.4,0.2-24.8-0.9-37-3.2
		c-2.5-0.5-5-1-7.4-1.6l2.9,3c0.3-6.4,0.7-12.9,1-19.3c0.9-14.7,1.8-29.3,3-43.9c1.3-15.9,2.7-31.8,4.8-47.5
		c1.1-8.9,2.9-17.7,5.4-26.4c2.4-7.9,5.5-15.6,9.3-23c2.7-5.3,5.8-10.3,9.3-15.1c1.7-2.3,3.6-4.3,5.2-6.5c0.1-0.1,0.2-0.2,0.3-0.3
		l-1.6,0.1c1.2,0.5,2.3,1,3.5,1.6s2.6,1.2,3.9,1.8l2.3,1.1l1.2,0.6c0.4,0.2-0.2-0.1,0.2,0.1l0.7,0.4c3.6,1.8,7.2,3.8,10.8,5.8
		c1.8,1,3.6,2.1,5.3,3.2c1.8,1.2,2.7,1.7,4.4,3.1c0.7,0.5,1.4,1.1,2.1,1.7c0.2,0.1,1,0.9,0.6,0.5c0.3,0.3,0.7,0.6,1,0.9
		s0.5,0.5,0.7,0.8c0.1,0.1,0.2,0.2,0.3,0.4l0.2,0.2c0.2,0.2-0.3-0.3-0.1-0.1s0.4,0.5,0.6,0.8s0.2,0.2,0.2,0.4c0.3,0.4-0.1-0.2,0,0.1
		c0.1,0.3,0.2,0.5,0.4,0.7c0.1,0.1,0.1,0.2,0.1,0.4c-0.1-0.3,0-0.1,0,0.1s0.1,0.4,0.1,0.7s0,0,0,0s0,0.3,0,0.4
		c-0.2,0.9-0.4,1.8-0.8,2.6c-1.4,5.1-1.7,10.6-1.9,15.9c-0.3,7.6-0.2,15.3,0.1,23c0.3,8.9,0.8,17.8,1.5,26.7
		c0.7,9.1,1.4,18.1,2.3,27.2c0.8,8.1,1.6,16.2,2.5,24.3c0.7,6.1,1.4,12.2,2.1,18.3c0.3,3,0.6,6,1.1,9c0,0.1,0,0.3,0,0.4
		c0.1,1.1,1.4,2.1,2.4,2.5C128.9,408.4,130,408.4,129.9,407.3z"></path><path class="st0" d="M72.5,275.1l-8.9-10.9c0,0-8.2,12.8-7.6,14.9s8.2,11.5,8.2,11.5S70.6,284,72.5,275.1z"></path><path class="st1" d="M74.9,274.7L66,263.8c-0.8-1-4.1-0.9-4.8,0.3c-2.3,3.5-4.4,7.2-6.3,11c-0.7,1.4-1.8,3.2-1.1,4.8
		c1.1,2.2,2.5,4.3,4.1,6.1c1.3,1.7,2.6,3.3,3.9,5c0.8,1,3.7,0.8,4.6,0c4.3-4.4,7.4-10,8.7-16c0.2-1-4.7-1.3-5,0.3
		c-0.9,3.9-2.5,7.6-4.8,10.9c-0.7,1.1-1.5,2.1-2.4,3.1c-0.2,0.3-0.5,0.6-0.8,0.9s-0.4,0.4-0.1,0.1h4.6c-2.8-3.2-5.3-6.6-7.6-10.3
		c-0.8-1.4-0.2-2.6,0.5-4.1c1.1-2.4,2.5-4.7,3.8-7c0.9-1.5,1.8-3,2.8-4.5l-4.8,0.3l8.9,10.9c0.6,0.8,2.2,0.6,3.1,0.5
		C73.6,275.9,75.5,275.4,74.9,274.7z"></path><path class="st1" d="M34.1,243.5c0,0,17.1-39.3,68.1-60.5c16.7-7,25.3-5.8,28.6-4.8c1,0,2,0.2,3,0.4
		c34.5,6.9-11.1,100.9-11.1,100.9c-20.5,4-41.8-1.7-57.5-15.5l1.1,3.1c0,0-10.9,17.9-12.9,18.3S27.7,262.3,34.1,243.5z"></path><path class="st1" d="M36.6,243.2c1.3-2.8,2.7-5.5,4.4-8.1c4.3-6.9,9.4-13.3,15-19.2c8.2-8.7,17.6-16.3,27.8-22.5
		c6.2-3.8,12.6-7.1,19.3-10c3.6-1.6,7.4-3,11.2-4.1c1.4-0.4,2.8-0.7,4.2-1c0.9-0.2,1.7-0.3,2.6-0.4c1.6-0.2,3.3-0.1,4.9,0.1
		c0.6,0.1,1.2,0.2,1.8,0.3c1.1,0.3,2.2,0.3,3.3,0.5c2.8,0.4,5.5,1.7,7.6,3.7c4.3,4.2,5.4,10.6,5.6,16.4c0.2,7.9-1.2,15.9-3,23.6
		c-2.1,8.5-4.6,16.8-7.6,25.1c-2.5,7-5.3,14-8.2,20.8c-1.6,3.7-3.2,7.3-4.9,10.9l-0.2,0.5l1.8-0.5c-16.2,2.9-33.2-1.1-46.9-10
		c-2.6-1.7-5.1-3.6-7.5-5.6c-0.5-0.5-5,0.6-5,0.7c0.4,0.9,0.8,1.9,1,2.9c0,0.3-0.1,0.4-0.3,0.7c-1,1.7-2.1,3.3-3.1,5
		c-1.5,2.3-3,4.7-4.6,7c-1.2,1.9-2.5,3.6-4,5.2c-0.2,0.2-0.4,0.3-0.6,0.5c0.1-0.1,5.8,0.3,4.2-0.7c-0.5-0.3-0.9-0.6-1.4-0.9
		c-1.6-1.3-3-2.7-4.4-4.2c-4.2-4.5-7.7-9.6-10.4-15.1C36.1,258.1,34.2,250.4,36.6,243.2c-0.8,0-1.7,0-2.5,0.1
		c-0.4,0.1-2.3,0.1-2.4,0.6c-2.2,6.7-0.7,13.8,2.1,20.1c2.8,6,6.4,11.5,10.9,16.3c1.4,1.6,3,3.1,4.6,4.4c0.4,0.4,0.9,0.7,1.4,0.9
		c1.3,0.5,3.3,0,4.6-0.4c1.6-0.4,2.7-2.2,3.6-3.4c1.7-2.3,3.3-4.7,4.8-7s2.9-4.6,4.4-6.9c0.2-0.3,0.7-0.9,0.7-1.2
		c-0.1-0.5-0.3-1.1-0.5-1.5l-0.5-1.5l-5,0.7c9.9,8.5,21.9,14.1,34.8,16.1c4.2,0.6,8.5,0.8,12.7,0.7c2.5-0.1,4.9-0.3,7.3-0.6
		c1.3-0.2,2.7-0.4,4-0.6c0.5-0.1,1.1-0.2,1.6-0.3c0.7,0,1.3-0.2,1.9-0.5c0.2-0.2,0.3-0.5,0.4-0.8c0.3-0.7,0.7-1.4,1-2.1
		c2.9-6.3,5.6-12.6,8.1-19c3.8-9.5,7.1-19.2,9.8-29c2.6-9.3,4.7-19.1,4.7-28.8c0-6.8-1.3-14.9-7.3-19c-1.4-0.9-2.8-1.6-4.4-2
		c-1.4-0.4-2.9-0.4-4.4-0.7c-0.6-0.1-1.3-0.3-1.9-0.4c-5.7-0.9-11.8,0.1-17.4,1.4c-8.7,2-17.1,5.7-25,9.8c-7.2,3.7-14.1,8-20.6,12.9
		c-9.9,7.4-18.7,16.2-26.2,26c-3.8,4.9-7.2,10.2-10,15.8c-0.1,0.2-0.2,0.5-0.4,0.8c0.8,0,1.7,0,2.5-0.1
		C34.6,243.7,36.4,243.7,36.6,243.2z"></path><path class="st1" d="M64.4,294.1c1.8-0.7,3.2-2.6,4.2-4.2c1.1-1.8,2.1-3.6,2.9-5.6c1.8-4.2,3.4-8.6,5.1-12.9c0.4-0.9-4-3.1-4.1-2.8
		c-1.7,4.3-3.2,8.7-5.1,12.9c-0.8,1.9-1.7,3.7-2.8,5.5c-1.1,1.6-2.4,3.6-4.3,4.3c-0.3,0.1,1.7,1.7,1.8,1.8
		C62.6,293.5,63.7,294.4,64.4,294.1L64.4,294.1z"></path><path class="st0" d="M84,212.6c-7.9,12-13.5,25.4-16.7,39.4c-0.3,1.5,3.6,4.4,3.9,2.9c3.1-13.8,8.6-27,16.3-38.9
		C88.5,214.6,84.7,211.4,84,212.6L84,212.6z"></path><path class="st0" d="M171.4,157.1c-4.2-2.6-10.4-21.6-10.4-21.6c-3,14.8-20.5,24.1-20.5,24.1c-0.4-8.8-15.9-9.9-18.2-2.4
		c-1.3,4.5-0.8,9.4,1.6,13.5c0,0-0.3,11.8-2.2,16.7c-0.2,0.4-0.3,0.8-0.4,1.2c0,0,13.8,8.3,22.6,5.9c0,0,9.6,1.6,17.3-2
		c8.9-4.2,10-23.6,10.1-31.8C171.5,158.6,171.4,157.1,171.4,157.1z"></path><path class="st1" d="M170.3,155c-0.2-0.2-0.5-0.3-0.7-0.6c-0.1-0.1-0.2-0.2-0.3-0.4c-0.3-0.3,0.1,0.2-0.2-0.2l-0.2-0.3
		c0.1,0.2,0.1,0.2,0,0c-0.3-0.5,0.2,0.3-0.1-0.2c0-0.1-0.4-0.7-0.3-0.5l-0.3-0.6c-1-1.9-1.9-4.1-2.8-6.3c-1.1-2.9-2.3-5.9-3.1-8.5
		c-0.4-1-0.8-1.9-1.4-2.8c-0.1-0.2-1-1.5-1.1-1c-2,9.8-10.1,17.5-18.2,22.7c-0.7,0.5-1.5,0.9-2.2,1.3l2.5,4.2
		c-0.4-3.5-2.1-6.7-4.7-9c-2.1-1.7-4.6-2.6-7.3-2.6c-2.6-0.2-5.1,0.7-7.1,2.3c-2.5,2.4-2.7,6.8-2.3,10c0.5,3.2,1.7,6.4,3.5,9.1
		l-1.3-2.8c0,2.4-0.2,4.8-0.4,7.1c-0.2,1.9-0.4,3.8-0.7,5.6s-1.1,3.4-1.4,5.1c-0.1,0.6,0.7,1.8,1,2.2c0.3,0.8,0.8,1.5,1.4,2
		c3.5,2.1,7.3,3.8,11.2,5c2.9,1,5.9,1.4,9,1.4c0.9-0.2,1.9-0.3,2.8-0.4c0.8,0,1.7,0.2,2.5,0.2c3.4,0.2,6.7,0,10-0.7
		c3-0.7,5.9-1.8,7.9-4.1c3.6-4.1,4.9-10.1,5.8-15.4c0.9-5.8,1.2-11.7,1-17.6c-0.2-1-0.7-2-1.3-2.8c-0.1-0.2-1.3-1.6-1.3-1.3
		c0.2,5,0,10-0.7,15c-0.7,5.6-1.8,11.6-5,16.3c-3.6,5.3-10.7,6.4-16.7,6.3c-1.2,0-2.4-0.1-3.6-0.2c-0.5-0.1-1.1-0.1-1.6-0.1
		c-3,0.5-6.1,0.3-9-0.4c-4.7-1.2-9.1-3.1-13.2-5.5l2.4,4.2c0.2-0.9,0.6-1.9,0.9-2.8s0.5-2,0.6-3.1c0.3-2.2,0.6-4.3,0.7-6.5
		c0.1-1.6,0.2-3.1,0.3-4.7c0-0.2,0-0.5,0-0.8c-0.2-0.8-0.5-1.6-1-2.2c-0.1-0.2-0.2-0.4-0.3-0.6s0.4,0.7,0.2,0.3s0.2,0.3,0.2,0.3
		s-0.3-0.6,0,0c-0.2-0.3-0.2-0.5-0.3-0.7c-0.4-1-0.7-2-0.8-3.1c-0.5-2.8-0.3-5.6,0.8-8.2c1.4-3,4.9-4.1,7.9-4.2
		c1.9,0,3.8,0.4,5.5,1.2c0.8,0.4,1.5,1,2.1,1.5c0.3,0.2,0.1,0.2,0.1,0.1c0,0.1-0.7-2.2-0.6-1.1c0.1,0.5,0.2,0.9,0.2,1.4
		s1.9,4.5,2.5,4.2c6.8-3.6,12.6-8.9,16.8-15.3c1.8-2.7,3-5.8,3.7-9l-2.5-3.8c2.3,7.1,5,14.2,8.8,20.6c1,1.7,2.2,3.8,4,4.9
		c0.4,0.2-0.4-1.6-0.5-1.7C171.7,156.6,171.1,155.7,170.3,155z"></path><path class="st0" d="M139.4,172c0,0-3.8,5.4,2.2,7.2"></path><path class="st1" d="M138.1,170.7c-0.5,0.7-0.9,1.5-1.1,2.4c-0.7,2-0.2,4.1,1.1,5.7c0.9,1,2.1,1.7,3.4,2.1c0.6,0.2,1.4-0.1,1.6-0.7
		c0-0.1,0.1-0.3,0.1-0.4c0-1-0.6-1.9-1.5-2.2c-0.3-0.1-0.5-0.2-0.7-0.2c-0.1,0-0.5-0.2-0.2-0.1s-0.1-0.1-0.2-0.1l-0.5-0.3
		c-0.2-0.1,0.4,0.3,0.1,0.1l-0.2-0.2c-0.3-0.3,0.1,0.2,0.1,0.1s-0.1-0.2-0.1-0.2c0-0.1-0.1-0.1-0.1-0.2c0,0,0.2,0.4,0.2,0.3
		c0,0,0-0.1-0.1-0.1c0-0.1-0.1-0.1-0.1-0.2c-0.1-0.3,0.1,0.3,0,0.2s-0.1-0.3-0.1-0.5s0,0.3,0,0.2V176c0-0.2,0-0.3,0-0.5
		c0-0.1,0-0.1,0-0.2c0.1-0.3-0.1,0.4,0,0.1c0.1-0.2,0.1-0.3,0.2-0.5c0.1-0.3,0.2-0.5,0.3-0.8l0.1-0.3c0-0.1,0.2-0.5,0.1-0.2
		s0,0,0.1-0.1l0.1-0.2l0.1-0.2c0.5-0.8,0.3-1.9-0.4-2.5C139.8,170.3,138.7,169.9,138.1,170.7L138.1,170.7z"></path><path class="st0" d="M161.9,170.3c1.8,3,4.1,5.7,6.7,8.1c8.6,8.1,7.5,12.2,3.3,12.1s-16.5-10.3-16.5-10.3"></path><path class="st1" d="M159.5,170.8c1.9,3.1,4.2,6,6.9,8.4c1.8,1.6,3.5,3.5,4.9,5.5c0.7,1,1.2,2.2,1.3,3.5c0,0.1,0,0.2,0,0.4
		c0.1-0.4,0,0,0,0.1s-0.4,0.6-0.1,0.3c-0.1,0.1-0.1,0.2-0.2,0.2c-0.3,0.2,0.3-0.2,0.1-0.1c-0.5,0.2,0.4-0.1-0.2,0.1
		c0.9-0.3-0.8-0.1,0.3,0c-0.1,0-0.3,0-0.4,0c-0.5,0,0.6,0,0.2,0c-0.7,0,0.4,0.1-0.2-0.1c-0.2-0.1-1.1-0.4-0.6-0.2
		c-2.9-1.3-5.7-3-8.2-5c-1.9-1.4-3.8-2.9-5.7-4.4c-1-0.7-2.3-0.9-3.5-0.4c-0.8,0.3-1.8,1.2-0.8,1.9c1.7,1.4,3.5,2.8,5.3,4.2
		c2.9,2.3,6.1,4.3,9.4,5.9c2.7,1.1,7.4,1.7,9.2-1.3s-1.6-6.9-3.3-8.9c-3.2-3.6-7.1-6.6-9.5-10.9C163.4,168.3,158.5,169,159.5,170.8
		L159.5,170.8z"></path><path class="st1" d="M151.9,163.3c0.8,0.4,1.2,1.3,0.9,2.1c0,0.1-0.1,0.1-0.1,0.2c-0.9,1.5-2.8,0.4-2.4-1.2
		c0.1-0.8,0.8-1.3,1.5-1.2C151.8,163.3,151.8,163.3,151.9,163.3z"></path><path class="st1" d="M164.1,166.7c0.8,0.3,1.2,1.3,0.9,2.1c0,0.1-0.1,0.2-0.1,0.2c-0.9,1.5-2.8,0.4-2.4-1.2
		c0.1-0.7,0.7-1.3,1.5-1.2C164,166.6,164.1,166.7,164.1,166.7z"></path><path class="st2" d="M91.5,160.7c0,0-35.8-5-38,10.5s12.3,22.4,31.3,9.6S95.8,161.5,91.5,160.7z"></path><path class="st2" d="M89.8,159.1c-5.2-0.7-10.4-0.9-15.6-0.7c-4.1,0.1-8.2,0.7-12.2,1.7c-3.3,1-6.8,2.5-8.9,5.4
		c-2.4,3.4-2.3,8.5-1.1,12.2c1.8,4.8,5.6,8.5,10.3,10.4c5,1.9,10.6,0.9,15.4-1c3.6-1.5,6.9-3.3,10.1-5.6c2.8-1.9,5.3-4.1,7.6-6.5
		c2-2.4,4.2-5.7,3-9c-1.1-2.9-4.3-5.5-7.2-6.6C90.7,159.3,90.3,159.1,89.8,159.1c-0.6-0.1,0.9,1.5,0.9,1.6c0.7,0.8,1.5,1.4,2.5,1.8
		c0.3,0.1,0.7,0.1,1,0.3c0.2,0.1,0.4,0.2,0.6,0.3c-0.2-0.1,0.4,0.3,0.1,0.1c0.4,0.3-0.4-0.4-0.1-0.1c-1-0.9,0.2,0.2-0.4-0.3
		s0.5,0.5-0.3-0.3c0.3,0.3-0.3-0.4,0,0c0,0.1,0.3,0.4,0.1,0.1c0.1,0.1,0.1,0.2,0.2,0.3c0.1,0.2,0.2,0.5,0.3,0.7c1,3-1.1,6.1-3,8.2
		c-2.1,2.3-4.4,4.3-6.9,6.1c-2.8,2.1-5.8,3.9-9,5.4c-4.6,2.1-9.9,3.5-15,2.3c-0.9-0.2-1.8-0.6-2.6-1c-0.2-0.1-0.4-0.3-0.6-0.4
		c0.2,0.1-0.4-0.2,0,0s-0.1-0.2,0.1,0.1s-0.2-0.2-0.2-0.2c-1.1-1.5-1.9-3.3-2.2-5.1c-0.6-3.6-0.3-7.7,2.1-10.6
		c2.1-2.5,5.3-3.9,8.5-4.8c3.6-1,7.4-1.5,11.1-1.6c5.4-0.3,10.8,0,16.2,0.7c0.6,0.1-0.9-1.5-0.9-1.6C91.6,160,90.8,159.4,89.8,159.1
		z"></path><path class="st0" d="M99.8,160.3c0,0,4.6,4.7,1.5,10.1"></path><path class="st1" d="M100.1,161.6l-0.2-0.2C99.9,161.4,100,161.5,100.1,161.6c0,0,0.1,0.1,0.1,0.2c0.3,0.4-0.2-0.3,0,0l0.3,0.4
		c0.2,0.3-0.3-0.4-0.1-0.1l0.2,0.2c0,0.1,0.1,0.2,0.1,0.3c-0.1-0.1-0.2-0.4,0-0.1l0.1,0.3c0.1,0.3-0.1-0.4,0,0l0.1,0.3
		c0,0,0.1,0.4,0,0.1c0.1,0.2,0.1,0.5,0.2,0.7c0.1,0.5,0.1,0.9,0.1,1.4c0,1.3-0.4,2.5-1,3.6c-0.1,0.2,0.1,0.7,0.2,0.9
		c0.2,0.5,0.4,0.9,0.7,1.3c0.2,0.2,1,1.3,1.2,0.8c1.3-2.5,1.4-5.5,0.2-8.1c-0.7-1.8-1.8-3.4-3.1-4.8c-0.1-0.1-0.4-0.4-0.6-0.3
		s-0.1,0.5-0.1,0.7C99,160.2,99.5,161,100.1,161.6L100.1,161.6z"></path><path class="st2" d="M153.9,127c-30.3-11-68.3,46.8-36.6,59.1c1.4,0.6,2.9,1,4.4,1.4c1.9-4.9,9-17.4,9-17.4s-6.9-3.2-4.6-10.7
		c2.3-7.5,13.7-5.9,14.1,2.8c0,0,18.2-0.1,21.1-14.9c0,0,5.9,7.2,10.1,9.8c0,0,0.1,1.4,0,3.6v-0.1C171.4,160.8,184.3,138,153.9,127z
		"></path><path class="st2" d="M154.9,125.3c-14-5-28.5,2.7-38,12.9c-5,5.2-8.9,11.3-11.5,18c-2.2,5.8-3.4,12.3-1.7,18.4
		c2.3,8.1,9.3,12.6,17.2,14.7c1,0.2,2.8,0.4,3.2-0.9c2.4-6,5.8-11.8,9-17.4c0.6-1.1-0.4-2.1-1.4-2.6c1,0.4,0.1,0-0.3-0.2
		s-0.5-0.3-0.8-0.5c0.4,0.3,0,0-0.2-0.2s-0.3-0.3-0.5-0.5c-0.6-0.6-1.1-1.4-1.4-2.2c-0.4-1-0.5-2.1-0.3-3.2c0.1-1.1,0.5-2.2,1.1-3.2
		c0.4-0.6,1.1-1.1,1.8-1.5c0.6-0.2,1.2-0.3,1.8-0.4c-0.2,0,1.3,0.2,0.8,0.1c0.2,0.1,0.4,0.1,0.6,0.2l0.3,0.1c0.4,0.1-0.3-0.2,0,0
		c0.8,0.4,1.5,1,2,1.8c0.6,1.1,1,2.3,1,3.6c0.1,1.3,1.9,1.8,2.8,1.8c6.8,0,14.5-2.7,19-7.8c2.1-2.4,3.6-5.4,4.2-8.6l-4.4,0.7
		c3,3.7,6.5,7.6,10.6,10.1l-1-1.3c0,1,0,2.1,0,3.1c0,2.3,3.6,3.2,4.8,1.2c1.5-2.8,2.4-5.8,2.7-9c0.7-6.7-1.6-13.3-6.3-18.1
		c-4.2-4.3-9.7-7.2-15.4-9.2c-1-0.4-2.6-0.3-3.2,0.8s0.4,2.2,1.4,2.6c4.5,1.7,9,3.8,12.5,7.2c3.5,3.1,5.7,7.4,6.1,12.1
		c0.1,1.2,0.1,2.3,0,3.5c-0.1,1.1-0.3,2.3-0.6,3.4c-0.1,0.5-0.2,1-0.4,1.5l-0.2,0.6c-0.1,0.4,0.1-0.3,0-0.1l-0.1,0.4
		c-0.3,1-0.7,1.9-1.2,2.8l4.8,1.2c0-1.7,0.6-4.3-1-5.4c-1.5-1.1-2.9-2.2-4.2-3.5c-1.9-1.9-3.7-3.8-5.4-5.9c-1.1-1.3-4-1.2-4.4,0.7
		c-0.9,4.4-3.7,8.2-7.7,10.4c-1.6,0.9-3.3,1.6-5.1,2c-0.8,0.2-1.6,0.4-2.4,0.6l-0.6,0.1c0.4-0.1,0.3,0,0,0s-0.7,0.1-1,0.1
		c-0.7,0.1-1.4,0.1-2.1,0.2l2.9,1.8c-0.5-5.7-5.5-9.8-11.2-9.3c-0.5,0-1,0.1-1.5,0.3c-6.3,1.6-8.5,9.6-4.8,14.7
		c1.3,1.7,2.9,3.1,4.9,4l-1.4-2.6c-3.2,5.6-6.6,11.4-9,17.4l3.2-0.9c-1.5-0.4-3-0.9-4.4-1.4c-0.7-0.3-1.6-0.7-1.9-0.9
		c-0.6-0.3-1.2-0.7-1.8-1.1c-0.3-0.2-0.6-0.4-0.9-0.6c0,0-0.5-0.4-0.3-0.2l-0.4-0.4c-0.5-0.4-0.9-0.8-1.3-1.3
		c-0.2-0.2-0.4-0.5-0.6-0.7c0,0-0.4-0.6-0.2-0.2l-0.3-0.5c-0.3-0.5-0.6-1-0.9-1.6c-0.1-0.2-0.3-0.5-0.4-0.8l-0.2-0.5
		c0-0.1-0.2-0.6-0.1-0.2c-2-5.3-1.2-10.9,0.5-16.3c3.9-12,13.5-23.3,24.9-28.8c1.5-0.8,3.1-1.4,4.7-1.8c0.8-0.2,1.6-0.4,2.4-0.6
		l0.6-0.1c0.1,0,0.9-0.1,0.4-0.1l1.1-0.1c0.9-0.1,1.8-0.2,2.7-0.2c0.2,0,1.2,0,0.7,0c0.5,0,0.9,0,1.4,0.1c0.8,0.1,1.6,0.2,2.4,0.4
		c0.1,0,0.8,0.2,0.2,0.1l0.7,0.2c0.4,0.1,0.9,0.3,1.3,0.4c1.1,0.4,2.6,0.3,3.2-0.8S155.9,125.6,154.9,125.3z"></path><path class="st1" d="M157.8,146.9c-2.4,0.5-4.6,1.5-6.9,2.2c-4.7,1.3-9.7,1.3-14.4,0c-1.8-0.5-3.7-1.2-4.8-2.8
		c-1.3-2-3.8-0.2-2.5,1.8c2.8,4.3,9,5.3,13.8,5.5c2.7,0.1,5.4-0.1,8.1-0.7c2.8-0.6,5.4-1.9,8.3-2.5
		C161.2,149.9,159.7,146.5,157.8,146.9L157.8,146.9z"></path><path class="st1" d="M154.9,135.8c-4-0.4-7.9,0.2-11.9,0.1c-1.9,0-3.8-0.4-5.6-1c-1.2-0.5-2.7-1.3-3-2.7c-0.2-0.9-0.9-1.6-1.9-1.7
		c-0.7-0.1-1.9,0.4-1.8,1.3c0.8,4.6,5.9,6.3,10,6.8c4.7,0.6,9.5-0.3,14.2,0.1c0.8,0.1,1.8-0.4,1.8-1.3S155.7,135.8,154.9,135.8
		L154.9,135.8z"></path></g><g id="code"><g id="screen-2"><g id="screen-3"><polygon class="st0" points="241.6,185.8 240.7,87 324.3,87 324.3,185.8 			"></polygon><path class="st1" d="M242.7,187.6l-0.1-9.9l-0.2-23.5l-0.3-28.5L242,101l-0.1-8.1c0.1-1.3,0.1-2.6,0-3.8c0-0.1,0-0.1,0-0.2
				l-0.1,0.4h83.6l-2.3-4.1V180c-0.1,1.3-0.1,2.6,0,3.8c0,0.1,0,0.1,0,0.2l0.1-0.4h-82.8c-0.5,0,0.5,2.3,0.6,2.5
				c0.3,0.5,0.9,2,1.6,2h82.8c0.1-0.1,0.2-0.3,0.1-0.4V101c0-4,0.2-8,0-12v-0.2c-0.1-1-0.5-1.9-1-2.7c-0.2-0.4-0.7-1.4-1.3-1.4
				h-83.6c-0.1,0.1-0.2,0.3-0.1,0.4l0.1,9.9l0.2,23.5L240,147l0.2,24.7c0,4-0.1,8,0.1,12c0,0.1,0,0.1,0,0.2c0.1,1.2,0.6,2.2,1.3,3.2
				C241.9,187.5,242.7,188.6,242.7,187.6z"></path><rect class="st1" x="240.7" y="87" width="83.6" height="9.9"></rect><path class="st1" d="M321.8,87.3v9.9l2.3-2.4h-83.6l2.7,2v-10l-2.3,2.4h83.6c1.3-0.1,2.3-1.1,2.3-2.4c-0.2-1.3-1.4-2.2-2.7-2
				h-83.6c-1.3,0.1-2.3,1.1-2.3,2.4v9.9c0,1.4,1.6,2,2.7,2h83.6c1.3-0.1,2.3-1.1,2.3-2.4v-10C326.8,83.9,321.8,84.4,321.8,87.3z"></path><path class="st0" d="M314.1,89.9c0.7,0.1,1.4,0.4,2,0.7c0.6,0.3,1.1,0.7,1.6,1.2c0.5,0.4,0.9,0.9,1.3,1.5
				c0.4,0.6,0.7,1.2,0.9,1.9c-0.7-0.1-1.4-0.4-2-0.7c-1.2-0.6-2.2-1.5-2.9-2.6C314.6,91.2,314.3,90.5,314.1,89.9z"></path><path class="st0" d="M314.5,95.1c0.1-0.7,0.3-1.3,0.7-1.9c0.3-0.6,0.7-1.1,1.1-1.6c0.4-0.5,0.9-0.9,1.4-1.3
				c0.6-0.4,1.2-0.7,1.8-0.9c-0.1,0.7-0.3,1.3-0.7,1.9c-0.3,0.6-0.7,1.1-1.1,1.6c-0.4,0.5-0.9,0.9-1.4,1.3
				C315.8,94.7,315.2,94.9,314.5,95.1z"></path></g></g><path class="st2" d="M260.7,127.8l-8.4,10.9c-0.5,0.7-1.5,1.7-0.8,2.5c0.8,0.7,1.6,1.3,2.6,1.9l5.6,3.9c1.1,0.8,5.1-2.1,3.8-3
		l-4.1-2.9l-2-1.4c-0.5-0.4-1.6-0.9-1.8-1.5v0.6c0.2-0.4,0.5-0.8,0.9-1.2l1.2-1.6l2.3-3l4.6-5.9c0.6-0.8,0.2-1.3-0.7-1.2
		C262.5,126.2,261.5,126.8,260.7,127.8L260.7,127.8z"></path><path class="st2" d="M273.6,127.4c0,5,0,10,0,15c0,2,0,4.3-1.4,5.8c-0.4,0.4-0.8,0.6-1.3,0.8c-0.7,0.2-0.2,0.2,1.3,0.1
		c1.6,0.2,2,0.1,1.3,0c-0.3-0.1-0.5-0.2-0.8-0.3c-1-0.5-1.9-1.2-2.7-2.1c-0.5-0.5-1.9-0.3-2.5-0.3c-0.6,0-1.2,0-1.8,0.1
		c-0.3,0-0.5,0.1-0.7,0.2c0.8,0.9,1.8,1.6,2.8,2.2c1.4,0.6,2.8,0.8,4.3,0.8c1.4,0,3,0.1,4.2-0.6c0.9-0.6,1.6-1.6,1.9-2.7
		c0.3-1.5,0.4-3,0.3-4.5v-4.7v-9.6C278.6,127.1,273.6,127.1,273.6,127.4L273.6,127.4z"></path><path class="st2" d="M300.2,129.2c1.5,1.7,2.9,3.4,4.2,5.2c0.7,0.9,1.3,1.8,1.9,2.7c0.4,0.5,0.7,1,1,1.5l0.4,0.6l0.3,0.5
		c0.2,0.3,0.1,0.2-0.1-0.4l0.1-1.1c-0.1,0.5-1.1,1.2-1.5,1.6l-1.9,2l-3.9,4c-0.9,0.9-0.2,2.6,0.6,3.3c0.7,0.9,2,1,2.8,0.3
		c0,0,0.1-0.1,0.1-0.1l5.2-5.4c0.9-0.8,1.7-1.6,2.4-2.6c0.7-1.3,0.1-2.6-0.6-3.8c-2.6-4.1-5.5-7.9-8.6-11.5c-0.7-0.9-2-1-2.8-0.3
		c0,0-0.1,0.1-0.1,0.1C298.8,126.9,299.4,128.4,300.2,129.2L300.2,129.2z"></path><path class="st2" d="M292.8,126.8c-2.4,0.3-4.6,1.6-5.9,3.6c-0.6,1-1,2.1-1.1,3.2c0.1,1.8,0.7,3.5,1.8,4.9c0.8,1.3,1.9,2.3,3.3,3.1
		c0.5,0.3,0.9,0.7,1.4,1.1c0.5,0.6,0.3,0.1-0.8-1.5c0,0.1,0,0.3,0.1,0.4c0,0.3,0,0.5,0,0.8c-0.1,1.2-1,2.2-2.1,2.6
		c-1.4,0.4-3,0.2-4.3-0.4c-0.5-0.2,0.4,1.7,0.4,1.8c0.3,0.6,0.6,1.1,1,1.6c0.2,0.3,0.5,0.8,0.8,0.9c2.3,0.9,5.7,1.3,6.7-1.6
		c0.3-1.4,0.1-2.8-0.5-4c-0.7-1.7-1.8-3.3-3-4.6c-1-0.9-2-1.7-3.2-2.3c1,2.5,1.5,3.1,1.2,2c0-0.2,0-0.4,0-0.6c0-0.3,0.1-0.6,0.1-0.9
		c0.2-0.7,0.4-1.3,0.8-1.9c1.3-2.2,3.5-3.6,6-3.9c0.3,0-0.8-2.2-0.9-2.4C294.2,128.4,293.4,126.8,292.8,126.8L292.8,126.8z"></path><polygon class="st0" points="154.5,62.3 170.7,46.8 203.3,46.8 204.4,107 154.5,106.3 	"></polygon><path class="st1" d="M156.9,62.2l14.1-13.5l2-2l-3.6,0.6h32.6l-1.3-0.2l0.4,20.4l0.6,32.4l0.1,7.4l3.7-0.8l-16.8-0.2l-26.9-0.4
		l-6.2-0.1l1.3,0.3V62.1c0-0.5-5-0.3-5,0.5v43.9c0,0.3,1.2,0.2,1.3,0.2l16.8,0.2l26.9,0.4l6.2,0.1c0.4,0,3.7-0.1,3.7-0.8l-0.4-20.4
		L206,54l-0.1-7.4c0-0.3-1.2-0.2-1.3-0.2h-24.5c-3.1-0.1-6.3-0.1-9.4,0.1c-1,0-1.9,0.3-2.7,0.9c-0.5,0.5-1,1-1.5,1.4l-5.1,4.9
		l-9.3,8.9c-0.4,0.4,1.7,0.3,1.8,0.3C154.7,62.8,156.3,62.8,156.9,62.2z"></path><polygon class="st0" points="170.9,62.3 170.7,46.8 154.5,62.3 	"></polygon><path class="st1" d="M172.6,63.8l-0.2-13.5v-2c-0.1-1-0.5-1.9-1.2-2.6c-0.3-0.3-1.4-1.4-1.9-0.9l-14.2,13.6l-2,1.9
		c-0.6,0.6,0.1,1.8,0.4,2.4c0.4,0.7,1.2,1.8,2.2,1.8h16.4c1,0,0.3-1.8,0-2.2c-0.4-0.8-1.3-2.1-2.4-2.1h-16.4l2.6,4.2l14.2-13.6
		l2-1.9l-3.1-3.5l0.2,13.5v2c0.1,1.2,0.7,2.2,1.6,3C171.4,64.3,172.6,65,172.6,63.8z"></path><path class="st1" d="M170.1,72.2c-2.4,1-4.5,2.5-6.3,4.3c-1.1,1.1-0.4,2.9,0.6,3.8l7,6.2c0.7,0.7,1.8,0.7,2.4,0
		c0.1-0.1,0.2-0.2,0.3-0.4c0.5-1.2,0.1-2.5-0.9-3.4l-7-6.2l0.6,3.8c0.4-0.4,0.8-0.8,1.3-1.1c0.2-0.2,0.4-0.4,0.7-0.5
		c0.4-0.3-0.3,0.2,0.1-0.1l0.4-0.2c1-0.7,2-1.2,3.1-1.7c1.1-0.5,1.1-2.2,0.6-3.1S171.3,71.7,170.1,72.2L170.1,72.2z"></path><path class="st1" d="M184.2,70.4c-2.3,4.7-4.3,9.4-6.1,14.2c-0.2,0.6,1,1.8,1.4,2.1c0.1,0.1,1.9,1.8,2,1.5
		c1.8-4.8,3.9-9.6,6.1-14.2c0.1-0.2-0.2-0.6-0.3-0.7c-0.3-0.5-0.7-1-1.1-1.4C186.1,71.8,184.4,70.1,184.2,70.4L184.2,70.4z"></path><path class="st1" d="M187.6,75.2c1.1,0.6,2.2,1.3,3.2,2.1c0.5,0.3,0.9,0.7,1.4,1.1l0.7,0.6c0.3,0.2,0.5,0.3,0.3,0.6
		c-0.8,1-1.6,1.9-2.2,3c-0.7,1.1-1.3,2.2-1.8,3.4c-0.3,0.8,1.2,1,1.7,1c0.6,0.1,1.3,0,1.9-0.1c0.3-0.1,1-0.2,1.2-0.5
		c0.5-1.2,1.2-2.4,1.9-3.5c0.4-0.6,0.8-1.1,1.2-1.6c0.2-0.3,0.5-0.6,0.7-0.9c0.3-0.2,0.5-0.5,0.6-0.8c0.1-0.6-0.8-1.1-1.2-1.4
		c-0.5-0.4-1.1-0.9-1.6-1.3c-1.1-0.8-2.3-1.6-3.5-2.3c-1.1-0.5-2.3-0.6-3.4-0.3C188,74.3,186.6,74.7,187.6,75.2L187.6,75.2z"></path><path class="st2" d="M229,58.7c4.6-7.8,16.9-9.9,22.3-1.8c1.2,1.8,1.8,3.8,1.9,5.9c0.1,2.3-0.6,5.4-3.1,6c-0.4,0.1-0.9,0.1-1.3,0
		c0,0.2,0.3,0.4,0.3,0.4c0-0.4,0.1-0.8,0.3-1.2c0.2-0.5,0.6-1,1.1-1.3c2-1.4,4.7-1.2,6.9-0.6c5,1.2,9,4.9,10.7,9.7
		c0.3,0.9,1.3,2.3,2.4,2.2s0.8-1.7,0.6-2.4c-2.1-6.4-7.2-11.5-13.6-13.7c-2.9-0.9-6.7-1.4-9.4,0.3s-3,5.6-1.4,8.3
		c1.9,3.1,5.9,3.9,8.3,1c2.1-2.5,2-6.6,1.4-9.6c-1.3-6.4-6.2-12.4-12.6-14.2c-6.9-1.8-14.1,1.2-17.8,7.2C225,56.5,228,60.4,229,58.7
		L229,58.7z"></path></g></svg>