<svg width="500" height="500" viewBox="0 0 500 500" fill="none" xmlns="http://www.w3.org/2000/svg">
<path d="M253.3 350.9L247.9 345.9C247.9 345.9 230 335.5 228.5 339.8C227 344.1 233.3 353.1 243.7 363C254.1 372.9 261.1 373.3 264.8 362.4L253.3 350.9Z" fill="white"/>
<path d="M255.6 350L250.8 345.5C249.9 344.8 248.9 344.1 247.9 343.6C245.6 342.3 243.2 341.1 240.8 340.1C238.3 338.9 235.7 338 233 337.6C230.6 337.3 226.9 337.6 226 340.3C225.1 343 226.7 345.8 227.9 348C230.2 351.9 233 355.4 236.1 358.7C239.7 362.5 243.4 366.3 247.8 369.2C251.3 371.5 255.4 372.7 259.5 371.3C263.6 369.9 265.7 366.1 267.1 362.2C267.2 362 267.1 361.7 266.9 361.6L255.6 350C254.5 348.9 249.9 350.6 251.1 351.8L262.6 363.3L262.4 362.7C261.9 364.3 261.1 365.9 260.2 367.3C259.9 367.8 259.5 368.2 259.1 368.6C258.8 368.9 258.5 369.1 258.1 369.2C258.2 369.2 258.5 369.1 258.1 369.2C258.1 369.2 258.5 369.1 258.2 369.2C257.7 369.3 258.2 369.3 257.7 369.2C257.2 369.2 256.7 369.1 256.2 368.9C254.7 368.4 253.2 367.6 251.9 366.7C248.1 364 244.6 360.8 241.5 357.4C238.6 354.4 235.9 351.2 233.6 347.7C232.3 345.7 230.8 343.1 230.9 340.6C230.9 340.2 231.1 339.8 231.1 339.5C231.1 339.2 231.1 339.6 231.1 339.5C231.1 339.4 231.5 339.1 231 339.6L230.4 339.9C230.2 340 229.5 340.2 230 340C229.5 340.2 229.8 340 230.1 340C230.2 340 230.5 340 230 340H230.3L231 340.1C235.4 341 239.8 343.5 243.9 345.6L245.8 346.7C245.9 346.8 246 346.8 246.1 346.9C245.4 346.5 246.2 347.1 246.3 347.2L251.1 351.7C252.2 352.9 256.8 351.1 255.6 350Z" fill="#000005"/>
<path d="M266.1 330.6C266.1 330.6 256.2 346.6 254.1 347.4C252 348.2 238.9 340.9 240.2 342.7C241.2 344 241.4 349 251 357.3C260.6 365.6 261.5 364.2 263.9 362.9C266.3 361.6 280.7 346 280.7 346L266.1 330.6Z" fill="white"/>
<path d="M264.4 328.7C263.1 330.8 261.7 333 260.3 335.1C258.3 338.3 256.1 341.4 253.7 344.4C253.4 344.8 253.1 345.1 252.7 345.4C252.4 345.6 252.8 345.4 252.5 345.5C252.1 345.5 252.4 345.5 252.5 345.5C252.3 345.5 252.2 345.5 252 345.4C250.5 345.1 249 344.5 247.6 343.9C245.8 343.1 244 342.3 242.2 341.5C241.3 341.1 239.7 340.1 238.8 340.4C237.9 340.7 238.4 341.7 238.7 342.2C238.8 342.4 238.9 342.6 239.1 342.8C239.3 343.1 238.7 342.2 238.9 342.5C239.1 342.8 238.7 342 238.9 342.6C239.4 343.9 239.9 345.2 240.6 346.4C243.3 351.6 247.7 355.8 252.2 359.5C254.2 361.3 256.4 362.9 258.8 364.3C260 365.1 261.4 365.6 262.9 365.6C264.6 365.5 266.3 364.2 267.5 363.1C272.9 358.3 277.7 352.9 282.5 347.6C283.1 346.9 282 345.5 281.5 345.1L266.9 329.7C266.4 329.4 265 328.1 264.4 328.7C263.7 329.4 264.9 330.9 265.3 331.3L279.9 346.7L278.9 344.2C274.8 348.7 270.6 353.2 266.2 357.5C264.7 359.1 263 360.6 261.1 361.6C260.5 361.9 259.9 362 259.3 361.8C258.8 361.7 259.3 361.8 258.8 361.7C258.6 361.6 258.4 361.5 258.1 361.4C257.3 360.9 256.5 360.4 255.8 359.9C251.6 356.8 246.8 352.8 244.2 348.4C243.5 347.3 242.9 346.2 242.5 344.9C242.4 344.5 242.2 344.2 242.1 343.8C242 343.5 241.8 343.2 241.7 343C241.6 342.8 241.5 342.6 241.3 342.4C242.4 343.5 242 343.7 241.5 344.3C241.4 344.5 241.2 344.2 241.6 344.4C241.1 344.2 241.8 344.5 241.9 344.5C242.6 344.8 243.3 345.1 243.9 345.4C245.6 346.2 247.3 346.9 249 347.6C250.5 348.3 252.1 348.9 253.8 349.2C254.7 349.5 255.7 349.2 256.3 348.6C257.4 347.4 258.5 346.2 259.3 344.8C260.6 343 261.8 341.2 263.1 339.3C264.6 337 266.1 334.6 267.6 332.3C268.8 331 265.1 327.7 264.4 328.7Z" fill="#000005"/>
<path d="M270.499 367.9L264.299 363.9C264.299 363.9 244.899 356.7 244.099 361.2C243.299 365.7 251.099 373.5 263.099 381.5C275.099 389.5 281.999 388.7 283.699 377.3L270.499 367.9Z" fill="white"/>
<path d="M272.7 368.2L267 364.5C265.7 363.7 264.3 363.1 262.9 362.7C260.1 361.7 257.2 360.9 254.3 360.1C251.4 359.3 248.5 358.8 245.5 358.7C243.7 358.7 241.6 359 241.7 361.2C241.8 364.1 244.1 366.7 245.9 368.7C249.3 372.2 253 375.4 257 378.2C261 381.3 265.4 383.8 270.1 385.8C273.4 387.1 277.9 388.4 281.3 386.7C284.7 385 285.6 381.1 286.2 377.8C286.2 377.6 286.1 377.5 286 377.4L272.7 368.2C271.7 367.6 270.6 367.2 269.4 367.1C269.1 367.1 267.4 367 268.3 367.6L281.6 377L281.4 376.6C280.7 380.8 278.8 386.4 273.5 385.9L273.1 385.8C273 385.8 272.8 385.8 272.7 385.7C272.2 385.6 271.8 385.4 271.4 385.2C269.8 384.5 268.3 383.7 266.9 382.8C263.2 380.5 259.7 378 256.4 375.3C253.7 373.2 251.3 370.8 249.1 368.2C247.9 366.6 246.4 364.6 246.4 362.5C246.4 361 247.4 360.6 248.7 360.6C250.5 360.6 252.2 360.8 253.9 361.3C255.1 361.6 255.7 361.8 257.1 362.2L258.9 362.7L259.7 363L260.1 363.1C260.5 363.2 259.7 363 260 363.1C261.1 363.5 262.2 363.8 263.3 364.2L261.9 363.5L268.1 367.5C269.1 368.1 270.2 368.5 271.3 368.6C271.9 368.7 273.6 368.8 272.7 368.2Z" fill="#000005"/>
<path d="M279.699 345.6C279.699 345.6 272.699 363.1 270.699 364.2C268.699 365.3 254.599 360.4 256.199 361.9C257.399 363 258.399 367.9 269.299 374.4C280.299 381 280.799 379.4 282.999 377.8C285.199 376.2 296.699 358.3 296.699 358.3L279.699 345.6Z" fill="white"/>
<path d="M278 343.9C277 346.3 276.1 348.6 275.1 350.9C273.7 354.4 272 357.9 270.1 361.2C270 361.4 269.8 361.7 269.6 361.9L269.4 362.1C269.3 362.2 269.5 361.8 269.5 362C269.5 362.2 269.2 362.2 269.4 362.1C269.3 362.1 269.2 362.2 269.1 362.2C268.6 362.2 269.2 362.2 268.9 362.2C267.2 362.1 265.6 361.8 264 361.4C262.1 361 260.2 360.4 258.3 360C257.4 359.8 256 359.2 255 359.5C253.6 359.9 254.2 361.8 254.8 362.7C255 363 255.2 363.2 255.4 363.4C255.1 363 255 362.9 255.3 363.4C255.9 364.4 256.5 365.4 257.3 366.4C260.8 371 265.6 374.4 270.5 377.2C272.8 378.6 275.2 379.9 277.7 380.8C279 381.3 280.3 381.5 281.7 381.3C283.6 380.9 285 379.2 286.2 377.8C290.7 372.2 294.5 366 298.4 360C299.2 358.8 297.9 357.1 297 356.5L280 343.8C279.2 343.2 278 343.2 277.8 344.3C277.6 345.4 278.5 346.8 279.3 347.4L296.3 360.1L294.9 356.6C291.6 361.7 288.2 366.9 284.7 371.8C283.9 373 283 374.1 282.1 375.2C281.8 375.5 282.2 375.1 281.8 375.5L281.4 375.8C281.1 376 280.8 376.3 280.5 376.5L280.1 376.7C279.7 377 280.2 376.7 279.9 376.8L279.4 376.9C279.3 376.9 279.2 376.9 279.1 376.9C279.6 376.9 279.1 376.9 278.9 376.9C278.4 376.8 277.9 376.7 277.4 376.6C276.4 376.3 275.5 375.8 274.6 375.4C269.6 372.9 264.6 369.9 260.8 365.8C260.3 365.3 259.9 364.7 259.5 364.2C259.1 363.7 258.7 363.1 258.4 362.5C258.2 362.2 258 361.8 257.8 361.5C257.7 361.4 257.6 361.3 257.6 361.2C258.3 362.1 257.1 360.6 257.1 360.6C256.9 360.4 257 360.6 257.4 361C256.4 363.1 256.3 364.1 257.3 363.9C256.9 363.8 257.3 364 257.3 363.9C257.5 364 257.8 364 258 364C258.7 364.1 259.4 364.3 260.1 364.5C261.9 364.9 263.6 365.4 265.4 365.8C266.9 366.2 268.5 366.5 270 366.6C271.1 366.8 272.3 366.2 272.9 365.3C275.1 362.3 276.5 358.4 278 355C279.1 352.5 280.2 349.9 281.2 347.3C281.5 346.2 281.2 344.9 280.3 344.2C280.1 343.7 278.4 342.8 278 343.9Z" fill="#000005"/>
<path d="M360 267C363.6 268.6 317.6 285.6 288.1 303.4C258.6 321.2 237.6 359.2 278.8 357.1C320 355 375.8 288.4 375.8 288.4L360 267Z" fill="#000005"/>
<path d="M359.2 268.6C358.2 268.1 357.3 266.5 358.1 266C358 266.1 357.9 266.2 357.8 266.3C357.7 266.4 357.2 266.7 357.5 266.5C357.8 266.3 357.2 266.7 357.1 266.7C357 266.7 356.6 267 356.3 267.2C355.7 267.6 355 267.9 354.4 268.2C350.5 270.2 346.5 272 342.5 273.8C330.5 279.2 318.5 284.6 306.7 290.5C295.2 296.3 283.5 302.3 273.7 310.8C266.1 317.4 258.7 325.7 255.1 335.2C253.7 338.8 252.9 342.7 253.7 346.5C254.5 350.1 256.7 353.3 259.9 355.2C264.4 358 269.8 358.8 274.9 358.9C280.1 359 285.3 358.4 290.3 357.1C300.7 354.3 310.3 349 319.2 343.1C328.7 336.7 337.7 329.7 346.1 322C353.3 315.5 360.2 308.7 366.9 301.7C370.4 297.9 373.9 294.2 377.3 290.2L377.8 289.7C378.4 289 378.3 288 377.7 287.3L363.9 268.6L361.9 265.9C360.4 263.8 356.3 265.1 358.2 267.7L372 286.5L374 289.2L373.9 286.8C371.6 289.5 369.2 292.2 366.8 294.8C360.9 301.2 354.8 307.5 348.4 313.5C340.4 321.1 331.9 328.3 323 334.9C314.3 341.3 304.9 347.2 294.8 351.1C290.4 352.9 285.9 354.1 281.2 354.7C276.1 355.5 270.9 355.2 265.9 353.9L265.2 353.7L264.7 353.5L264.2 353.3L263.4 353L262.9 352.7C262.8 352.7 262.2 352.3 262.5 352.5C262.8 352.7 262.2 352.3 262.1 352.3C262 352.3 261.7 352 261.5 351.9L261.1 351.6L260.8 351.4C260.8 351.4 261.1 351.7 260.9 351.5C260.6 351.2 260.3 350.9 260 350.5L259.6 350C259.5 349.9 259.8 350.3 259.6 349.9C259.4 349.5 259.2 349.2 259 348.8C258.9 348.6 258.8 348.4 258.8 348.3C258.8 348.2 258.9 348.6 258.8 348.2C258.7 347.8 258.6 347.4 258.5 347C258.4 346.6 258.4 346.2 258.3 345.8C258.3 345.7 258.3 345.3 258.3 345.6C258.3 345.4 258.3 345.1 258.3 344.9C258.3 343.2 258.5 341.5 259 339.8C261.6 330.5 268.5 322.4 275.5 316C284.7 307.4 295.7 301.4 306.8 295.8C318.7 289.7 330.8 284.3 342.9 278.8C347.3 276.8 351.6 274.9 355.9 272.8C357.9 271.8 360.7 270.8 362.2 269.1C363.4 267.7 362.4 266.1 361 265.4C360 264.9 358.5 264.9 358 266C357.5 267.1 358.3 268.2 359.2 268.6Z" fill="#000005"/>
<path d="M311.199 368C311.199 368 324.599 384.6 341.499 386.2C358.399 387.8 457.699 382.6 464.599 381C471.499 379.4 461.599 291.1 456.699 275.5C451.799 259.9 437.299 253.2 437.299 253.2C437.299 253.2 359.299 306.2 339.499 321.8C319.699 337.4 311.199 368 311.199 368Z" fill="white"/>
<path d="M308.799 368.5C313.899 374.8 320.299 379.9 327.499 383.5C332.099 385.8 337.099 387.2 342.299 387.5C344.899 387.7 347.599 387.7 350.299 387.7C357.999 387.7 365.699 387.5 373.399 387.3C383.199 387 392.899 386.6 402.699 386.2C412.499 385.8 422.199 385.3 431.899 384.7C439.499 384.3 447.099 383.8 454.799 383.2C457.199 383 459.499 382.8 461.899 382.6C463.399 382.4 465.399 382.5 466.799 381.6C468.199 380.7 468.599 379.1 468.899 377.6C469.299 375 469.599 372.4 469.599 369.8C469.799 361.8 469.299 353.8 468.799 345.8C468.099 336.1 467.199 326.3 465.999 316.6C464.999 307.8 463.799 299 462.399 290.2C461.399 284.1 460.499 277.7 458.099 271.9C454.399 263.4 447.799 256.5 439.599 252.2C437.999 251.4 436.099 251.7 434.799 252.8L430.399 255.8C424.599 259.7 418.899 263.7 413.099 267.6C405.099 273.1 397.099 278.6 389.199 284.1C380.799 289.9 372.499 295.7 364.199 301.6C357.299 306.5 350.499 311.3 343.699 316.3C340.899 318.3 338.099 320.4 335.499 322.6C330.899 326.7 326.799 331.4 323.399 336.6C317.899 344.8 313.499 353.7 310.399 363C309.899 364.5 309.299 366.1 308.899 367.6C308.399 369.6 313.299 369.6 313.799 368C314.699 364.8 315.799 361.7 316.999 358.7C319.699 351.8 322.999 345.2 326.999 338.9C329.299 335.2 331.999 331.8 334.899 328.5C336.399 326.9 337.899 325.4 339.599 323.9C340.399 323.2 341.099 322.6 341.999 321.9L342.399 321.6C341.999 321.9 342.699 321.3 342.799 321.3C346.599 318.4 350.499 315.5 354.399 312.7C365.499 304.7 376.699 296.9 387.899 289.1C399.099 281.3 410.299 273.6 421.499 265.9L433.299 257.9C435.199 256.6 437.199 255.4 438.999 254L439.299 253.8L435.799 254C435.999 254.1 436.299 254.2 436.499 254.4L437.299 254.8C437.499 254.9 437.099 254.7 437.499 254.9L438.199 255.3C440.399 256.7 442.399 258.2 444.299 260C449.199 264.4 452.899 270.1 454.799 276.5C457.099 284.6 458.099 293 459.199 301.3C460.899 313.3 462.199 325.3 463.299 337.4C464.399 347.9 464.899 358.5 464.799 369.1C464.799 370.9 464.699 372.7 464.499 374.5C464.399 375.2 464.399 376 464.199 376.7C464.199 376.9 464.199 377 464.099 377.2C464.099 377.5 464.099 377.2 464.099 377.4C464.099 377.6 463.999 378 463.899 378.3C463.799 378.7 463.599 379.2 463.499 379.6C463.399 379.7 463.299 379.9 463.299 380C463.399 379.7 463.499 379.9 463.199 380.1C462.899 380.3 463.599 379.9 463.399 380C463.199 380.1 463.899 379.8 463.699 379.9C463.999 379.8 464.399 379.8 463.899 379.8L463.499 379.9C462.799 380 464.099 379.8 463.499 379.9C456.599 380.7 449.599 381.1 442.699 381.5C431.099 382.2 419.499 382.9 407.799 383.4C395.599 384 383.299 384.5 371.099 384.8C365.999 385 360.899 385.1 355.899 385.1H352.699H349.999C348.399 385.1 346.699 385.1 345.099 385C339.799 384.8 334.699 383.4 329.999 380.9C324.499 377.9 319.599 374.1 315.399 369.5C314.799 368.9 314.199 368.2 313.499 367.4C312.699 366.6 311.499 366.4 310.399 366.7C309.899 366.9 308.099 367.6 308.799 368.5Z" fill="#000005"/>
<path d="M400 298.9C400 298.9 376.2 323.1 346.3 334.9C316.4 346.7 312.8 372.9 289.3 372.1C265.8 371.3 267.9 347.5 292.5 327.6C317.1 307.7 369.7 277.1 369.7 277.1L400 298.9Z" fill="#000005"/>
<path d="M397.899 298.1C394.099 301.9 390.199 305.4 385.999 308.7C376.599 316.4 366.399 323.1 355.599 328.7C349.599 331.7 343.099 333.9 337.199 337.1C332.199 339.9 327.499 343.3 323.299 347.1C319.699 350.4 316.399 354 312.999 357.5C310.199 360.7 306.999 363.5 303.599 366.1C300.399 368.4 296.699 369.9 292.799 370.3C293.099 370.3 292.499 370.3 292.399 370.3H291.599C290.999 370.3 290.399 370.3 289.699 370.3C288.499 370.3 287.299 370.2 286.099 370C284.099 369.7 282.199 369 280.499 368C277.499 366.1 275.599 362.9 275.399 359.4C275.099 354.8 276.699 350.3 278.899 346.4C284.399 336.2 293.999 328.9 303.299 322.1C312.199 315.7 321.299 309.6 330.499 303.7C338.999 298.2 347.699 292.8 356.299 287.6C361.099 284.7 365.899 281.8 370.799 278.9L371.499 278.5L367.999 278.6L394.499 297.7L398.299 300.4C399.399 301.1 400.799 301 401.799 300.3C402.499 299.9 402.699 299.1 402.299 298.5C402.199 298.3 401.999 298.1 401.799 298L375.299 278.9L371.499 276.2C370.399 275.6 368.999 275.6 367.999 276.3C364.399 278.4 360.899 280.5 357.299 282.7C348.999 287.7 340.699 292.9 332.399 298.1C322.799 304.2 313.299 310.4 303.999 317C294.399 323.8 284.499 330.9 277.499 340.5C272.299 347.7 267.099 358.8 272.899 367.1C275.499 370.9 279.999 372.8 284.399 373.6C289.499 374.6 294.799 374.2 299.799 372.6C308.499 369.7 314.699 362.4 320.799 356C324.299 352.2 328.099 348.6 332.199 345.4C337.099 341.7 342.599 338.6 348.299 336.4C360.699 331.2 372.399 324.5 383.099 316.4C389.499 311.7 395.599 306.5 401.299 301L402.099 300.2C402.899 299.3 401.999 298.2 401.199 297.9C400.099 297 398.799 297.2 397.899 298.1Z" fill="#000005"/>
<path d="M445.2 277C445.2 277 412.3 205 405.5 205.5C384.1 207 378.8 227.9 366.3 241.2C353.8 254.5 348.5 258 348.5 258C348.5 258 373.3 301 395.9 305.1C418.5 309.2 445.2 277 445.2 277Z" fill="white"/>
<path d="M447.599 276.6C444.999 270.8 442.299 265.1 439.499 259.4C434.199 248.3 428.699 237.3 422.899 226.4C420.399 221.8 417.799 217.2 414.999 212.8C413.399 210.2 411.499 207 408.899 205.3C406.799 203.9 403.899 204.6 401.599 205C397.599 205.7 393.799 207.1 390.399 209.3C383.899 213.4 379.399 219.7 375.199 226C373.099 229.2 370.999 232.5 368.699 235.6C365.899 239.3 362.899 242.7 359.599 246C355.599 250 351.599 254.2 346.899 257.4L346.499 257.7C346.299 257.8 346.999 257.4 346.699 257.6C346.399 257.8 345.799 258.2 346.099 258.7C348.699 263.3 351.699 267.7 354.799 272.1C360.899 280.7 367.599 288.9 375.499 295.9C383.199 302.6 392.299 307.9 402.799 306.8C413.799 305.7 423.699 299.5 432.199 292.7C435.799 289.8 439.199 286.7 442.399 283.4C444.199 281.7 445.899 279.8 447.499 277.8C447.599 277.7 447.599 277.6 447.699 277.5C448.399 276.7 446.199 276.3 445.899 276.3C444.799 276.2 443.699 276.5 442.899 277.3L442.699 277.5C442.799 277.3 442.799 277.4 442.599 277.6C442.399 277.8 442.299 277.9 442.199 278.1C441.399 279 440.599 279.9 439.799 280.7C436.999 283.6 434.199 286.4 431.099 289.1C423.799 295.6 414.899 302.1 405.299 304.2C401.299 305.2 396.999 304.9 393.199 303.3C388.899 301.5 384.899 299 381.399 295.9C373.499 289.4 366.899 281.3 360.899 273.1C358.599 269.9 356.299 266.6 354.199 263.3C353.499 262.2 352.799 261.1 352.099 259.9C351.799 259.3 351.399 258.6 350.999 258.1C350.899 258 350.899 257.9 350.899 257.9L350.299 259C353.199 257.1 355.899 254.8 358.299 252.4C364.799 246.6 370.499 240.1 375.599 233.1C379.799 227 383.599 220.4 388.899 215.1C391.399 212.5 394.399 210.5 397.599 209C399.199 208.3 400.799 207.8 402.499 207.5C403.399 207.3 404.299 207.2 405.199 207.1C406.099 207 404.599 207 404.499 207C404.799 207 403.899 206.8 404.299 206.9C404.699 207 403.999 206.7 404.199 206.8C404.399 206.9 404.399 206.9 404.399 206.9C404.399 206.9 404.799 207.2 404.999 207.3C405.199 207.4 404.799 207.1 405.099 207.4L405.399 207.7C405.599 207.9 405.899 208.2 406.099 208.4C407.199 209.7 408.199 211.1 409.199 212.5C411.999 216.6 414.399 220.9 416.699 225.1C422.599 235.7 427.999 246.6 433.199 257.5C435.299 261.9 437.399 266.3 439.499 270.6C440.499 272.8 441.399 275.2 442.599 277.4C442.599 277.5 442.699 277.6 442.699 277.7C443.499 278.8 448.299 278.1 447.599 276.6Z" fill="#000005"/>
<path d="M332.5 371.1C332.5 371.1 345.9 323.4 375.7 302.6C405.5 281.8 447.7 271.3 447.7 271.3L441.7 338.3L332.5 371.1Z" fill="white"/>
<path d="M328.5 306L377.8 297.3L344.6 272L307.6 273.9L328.5 306Z" fill="#E987D0"/>
<path d="M328.199 306.5L327.999 306.2L306.699 273.4L344.699 271.5L344.799 271.6L378.899 297.6L328.199 306.5ZM308.499 274.4L328.699 305.4L376.599 297L344.499 272.5L308.499 274.4Z" fill="#E987D0"/>
<path d="M357.9 273.6C357.1 273.5 349.4 281.6 341.7 280.8C334 280 332.2 277.3 328.6 280.2C325 283.1 320.1 285.8 318.1 284.6C316.1 283.4 318.4 280.6 318.4 280.6C318.4 280.6 314 283.6 312.5 281.9C311 280.2 314.3 276.9 314.3 276.9C314.3 276.9 309.6 279.5 310.3 276.9C311 274.3 315.7 267.7 320.1 266C324.5 264.3 338.2 265.8 342.4 264.1C346.6 262.4 350.2 261.3 350.2 261.3L357.9 273.6Z" fill="white"/>
<path d="M356.899 271.8C355.999 271.9 355.199 272.3 354.599 272.9C353.499 273.7 352.499 274.5 351.399 275.3C348.599 277.2 345.199 279.1 341.699 279.1C338.199 279.1 334.999 277.6 331.599 277.2C328.199 276.8 326.099 279.3 323.499 281C322.499 281.6 321.499 282.2 320.399 282.6C319.899 282.8 319.399 282.9 318.899 283.1C318.599 283.1 318.299 283.1 318.099 283.2C318.199 283.2 318.299 283.2 318.399 283.3C319.399 284.4 319.799 284.7 319.499 284.3C319.399 284.2 319.399 284.1 319.499 284.1C319.599 283.8 319.699 283.5 319.799 283.2C319.999 282.8 320.199 282.4 320.499 282.1C321.699 280.6 317.799 278.3 316.499 279.2C315.999 279.5 315.499 279.8 314.899 280.1C314.499 280.3 313.999 280.5 313.499 280.7C313.299 280.7 312.999 280.8 312.799 280.8C312.599 280.9 312.099 280.5 313.099 280.9C314.699 281.5 313.999 282.4 314.299 281.3C314.499 280.8 314.699 280.4 314.999 280C315.399 279.4 315.799 278.9 316.299 278.5C316.999 277.8 315.699 276.5 315.199 276.1C314.399 275.5 313.199 275 312.299 275.5C311.499 275.9 310.699 276.1 309.899 276.5C309.699 276.6 309.799 276.6 309.899 276.5H309.999C311.099 276.7 311.899 277.5 312.299 278.5C312.299 278.3 312.399 278.1 312.399 277.9C312.599 277.2 312.999 276.5 313.399 275.9C315.199 272.8 318.099 269.2 321.499 267.9C324.199 266.9 327.499 267.1 330.299 267.1C333.899 267.2 337.499 267 340.999 266.7C342.899 266.3 344.799 265.7 346.699 264.9C348.299 264.3 349.799 263.8 351.499 263.3L347.999 261.5L355.799 273.8C356.399 274.9 357.599 275.6 358.799 275.7C359.799 275.7 360.499 274.9 359.899 274L352.099 261.7C351.499 260.7 349.899 259.5 348.599 259.9C346.999 260.4 345.399 260.9 343.799 261.5C341.999 262.3 340.099 262.9 338.099 263.3C334.099 263.8 330.099 263.6 326.099 263.7C322.399 263.8 318.699 263.9 315.599 266.1C313.699 267.5 312.099 269.2 310.699 271C309.499 272.5 308.499 274.1 307.899 275.9C307.199 278.3 309.699 280.2 311.899 280.2C313.299 280.1 314.699 279.6 315.899 278.8L311.899 275.9C311.099 276.7 310.499 277.5 309.999 278.5C309.199 280.3 309.899 282.5 311.599 283.5C314.299 285.3 317.499 284.1 319.999 282.5L315.999 279.6C315.199 280.5 314.799 281.6 314.699 282.8C314.799 285.2 317.399 286.8 319.499 287C323.799 287.4 327.499 283.9 330.799 281.7C331.199 281.4 331.799 281.2 332.299 281.1C332.699 281.1 333.099 281.1 333.499 281.2C335.199 281.6 336.899 282.1 338.499 282.4C340.799 282.9 343.199 283.1 345.499 282.9C347.499 282.6 349.499 281.9 351.399 280.9C353.199 280 354.899 278.9 356.499 277.6L358.299 276.2C358.499 276.1 358.699 275.9 358.899 275.8C359.299 275.4 358.999 275.8 358.499 275.8C359.099 275.9 359.699 275.5 359.799 274.9C359.799 274.6 359.799 274.3 359.599 274.1C359.199 272.6 358.099 271.9 356.899 271.8Z" fill="#000005"/>
<path d="M324.5 273C323.6 273.4 322.8 273.9 322 274.4C319.9 275.8 317.9 277.4 316.2 279.2C315.4 280.1 316.2 281.4 317 281.9C317.8 282.4 319.5 282.8 320.3 281.8C321.3 280.8 322.3 279.8 323.4 278.9L323 279.2C324.5 278 326.1 277 327.8 276.1C328.2 275.9 328.5 275.4 328.5 274.9C328.5 274.4 328.2 273.8 327.8 273.5C327.1 272.8 325.7 272.5 324.5 273Z" fill="#000005"/>
<path d="M320.799 268C318.399 269.7 316.099 271.5 313.999 273.5C313.099 274.3 312.299 275.1 311.599 276C311.399 276.4 311.399 276.9 311.599 277.4C311.899 278 312.299 278.4 312.799 278.8C313.699 279.3 314.999 279.8 315.799 278.8C316.099 278.5 316.299 278.2 316.599 277.8L316.799 277.6C316.799 277.6 317.099 277.3 316.899 277.5C316.699 277.7 316.999 277.4 317.099 277.3L317.399 277C318.099 276.3 318.899 275.7 319.599 275C320.899 273.9 322.199 272.9 323.499 272L324.299 271.4C325.299 270.7 324.599 269.4 323.899 268.8C323.199 268.2 321.799 267.3 320.799 268Z" fill="#000005"/>
<path d="M383.399 293.2C382.499 293.1 374.499 301.3 366.299 300.6C358.099 299.9 355.999 297.1 352.299 300.1C348.599 303.1 343.299 305.9 341.099 304.7C338.899 303.5 341.299 300.6 341.299 300.6C341.299 300.6 336.699 303.7 334.999 302C333.299 300.3 336.799 297 336.799 297C336.799 297 331.899 299.7 332.499 297C333.099 294.3 337.999 287.6 342.699 285.9C347.399 284.2 361.999 285.5 366.399 283.7C370.799 281.9 374.699 280.8 374.699 280.8L383.399 293.2Z" fill="white"/>
<path d="M381.9 292.1C381.1 292.2 380.3 292.5 379.8 293.1C378.7 293.9 377.5 294.8 376.3 295.6C373.2 297.7 369.5 299.6 365.8 299.6C362.1 299.6 358.7 298.2 355.1 297.8C353.8 297.6 352.6 297.8 351.4 298.3C349.7 299.1 348.3 300.6 346.7 301.6C345.7 302.2 344.6 302.8 343.5 303.3C342.6 303.6 341.7 303.8 340.8 304C340.2 304.1 342.6 305.4 342.7 304.6C342.7 304.4 342.6 304.2 342.6 304C342.6 303.6 342.8 303.2 343 302.8C343.2 302.3 343.5 301.9 343.8 301.5C344.3 300.9 340.1 299.1 339.3 299.6C338.8 300 338.2 300.3 337.6 300.6C337.1 300.9 336.5 301.1 335.9 301.3C335.7 301.4 335.4 301.4 335.2 301.4C334.9 301.4 335 301.4 335.2 301.4C335.9 301.6 336.6 301.9 337.2 302.2C337.2 301.8 337 301.4 337.2 301C337.4 300.5 337.6 300 337.9 299.6C338.3 299 338.7 298.5 339.2 298C340 297.2 335.7 295.5 334.8 296C334 296.5 333 296.8 332.1 297.1C330.4 297.6 334.6 299.4 335 298.2C335.1 297.9 335.1 297.6 335.2 297.3C335.5 296.6 335.8 295.9 336.2 295.2C338.2 291.8 341.4 288.1 345.2 286.8C348.2 285.8 351.8 286 354.9 285.9C358.7 285.9 362.4 285.8 366.1 285.3C368.1 284.9 370 284.2 371.9 283.4C373.6 282.8 375.2 282.2 376.9 281.8L372.4 280.2L381.1 292.6C381.8 293.4 382.8 293.9 383.8 294.1C384 294.1 386.2 294.5 385.8 293.8L377.1 281.5C376 280.2 374.3 279.6 372.6 279.9C371 280.4 369.4 280.9 367.8 281.5C365.9 282.3 363.9 282.9 361.9 283.4C357.7 284 353.4 283.8 349.2 284C345.7 284.1 341.8 284.1 338.7 286.1C336.7 287.4 334.9 289.1 333.5 291C332.2 292.5 331.2 294.2 330.5 296C329.7 298.5 333.5 299.5 335.4 299.5C336.8 299.4 338.1 298.9 339.2 298.2L334.8 296.2C334 296.9 333.3 297.8 332.8 298.8C331.9 300.6 332.7 301.9 334.4 302.8C337.6 304.5 340.8 303.8 343.7 301.9L339.1 300.1C338.4 301 337.6 302.3 338 303.4C338.6 305.4 342.1 306.3 344 306.4C346.1 306.3 348.1 305.7 349.8 304.6C351.8 303.5 353.5 302 355.4 300.8C356.3 300.2 357.4 300 358.5 300.2C359 300.3 359.7 300.5 360.4 300.7C361.6 301 362.8 301.2 363.9 301.5C366.3 302 368.8 302.1 371.3 301.9C373.4 301.5 375.4 300.9 377.3 299.9C379.2 298.9 381 297.8 382.7 296.5L384.5 295.2C384.7 295.1 384.9 294.9 385.1 294.8C385.3 294.7 385.9 294.6 384.9 294.6C385.8 294.6 386 294.2 385.3 293.6C384.3 292.6 383.1 292.2 381.9 292.1Z" fill="#000005"/>
<path d="M347.2 294.9C346.3 295.3 345.4 295.8 344.6 296.4C342.5 297.7 340.6 299.3 338.9 301.1C338.8 301.2 339.8 301.2 339.7 301.2C340.3 301.2 340.9 301.1 341.5 301C342.1 300.9 342.7 300.8 343.3 300.7C343.6 300.7 343.8 300.6 344 300.4L344.5 299.9L344.4 300C346 298.4 347.9 296.9 349.8 295.7C350.6 295.2 351.4 294.8 352.2 294.4C352.5 294.3 351.8 294.2 351.9 294.2C351.4 294.2 350.9 294.2 350.4 294.3C349.2 294.3 348.2 294.5 347.2 294.9Z" fill="#000005"/>
<path d="M343.199 289.5C340.699 291.2 338.299 293 336.099 295C335.299 295.7 334.499 296.5 333.799 297.3C333.399 297.9 335.299 298 335.499 298.1C336.099 298.2 336.799 298.2 337.399 298.1C337.699 298.1 338.399 298.1 338.599 297.8C339.899 296.3 341.299 294.9 342.899 293.7C344.199 292.6 345.599 291.5 347.099 290.5C347.399 290.3 347.699 290.1 347.999 289.9C348.599 289.5 346.399 289.1 346.299 289.1C345.699 289 344.999 289 344.399 289.1C343.899 289.2 343.499 289.3 343.199 289.5Z" fill="#000005"/>
<path d="M328.5 306L284.8 284.5L280 221.9L322.1 241.8L325.8 279.8L328.5 306Z" fill="#E987D0"/>
<path d="M329.5 304.1L314.7 296.8L291.2 285.2L285.8 282.5L287.1 284.5L285.5 263.4L282.9 229.8L282.3 222L278.8 223.6L293 230.3L315.6 240.9L320.8 243.4L319.5 241.4L322.2 269.3C322.9 276.6 323.6 283.9 324.4 291.2L325.9 305.7C326.1 307 327.1 308 328.4 308.1C329.5 308.3 330.5 307.5 330.7 306.4C330.7 306.3 330.7 306.2 330.7 306.1L328.2 282C327.6 275.9 327 269.8 326.4 263.7L324.9 248.4L324.4 243.4C324.3 242 324.3 240.6 323 239.8C321 238.8 319 237.8 317 237L303.7 230.7L281.4 220.2L281 220C279.6 219.4 277.3 219.6 277.5 221.6L278.9 239.1L281.3 270.4L282.1 281.3C282.2 283.1 282 285.2 283.9 286.3C286.4 287.6 289 288.8 291.5 290.1L305.1 296.8C312.4 300.4 319.6 304 326.9 307.5L327.3 307.7C328.4 308.2 329.8 308.4 330.5 307.2C331.2 306.2 330.7 304.7 329.5 304.1C329.6 304.2 329.6 304.2 329.5 304.1Z" fill="#E987D0"/>
<path d="M330.299 301.4L328.599 281L325.899 248.4L325.299 241C325.299 240.9 320.499 241.8 320.599 242.7L322.299 263.2L325.099 295.7L325.699 303.1C325.599 303.2 330.399 302.3 330.299 301.4Z" fill="#000005"/>
<path d="M307.599 258.6C306.699 257.8 305.699 257.2 304.699 256.7C302.299 255.5 299.399 255.9 297.399 257.6C296.399 258.6 295.799 259.8 295.599 261.2C295.399 262.2 295.399 263.3 295.699 264.3C295.999 265.2 296.599 265.9 297.399 266.4C298.199 266.9 299.199 267.2 300.099 267.4C301.399 267.6 302.799 267.6 304.099 267.4C304.699 267.3 305.299 267 305.699 266.6C305.999 266.3 306.299 265.9 306.199 265.4C305.899 264.3 304.299 264.4 303.499 264.5C304.699 264.3 303.999 264.4 303.599 264.5H302.999H302.699C303.699 264.5 303.199 264.5 302.899 264.5C302.599 264.5 302.399 264.5 302.099 264.4H301.999C301.699 264.3 302.699 264.6 302.299 264.5L301.899 264.4L301.499 264.3L301.299 264.2C301.899 264.5 301.699 264.4 301.499 264.3C301.199 264.2 300.999 264 300.799 263.8L301.099 264.1C300.799 263.8 300.599 263.5 300.399 263.2L300.599 263.6C300.399 263.1 300.299 262.5 300.299 261.9V262.3C300.299 261.4 300.499 260.5 300.899 259.6L300.699 260C300.799 259.8 300.899 259.6 300.999 259.5C301.099 259.4 301.099 259.3 301.199 259.2L301.299 259.1C301.499 258.8 301.199 259.3 301.099 259.3C300.999 259.3 301.399 259 301.399 259C300.899 259.5 300.999 259.3 301.199 259.2L301.299 259.1C301.499 259 300.699 259.4 300.899 259.3L301.099 259.2C301.199 259.2 300.299 259.4 300.699 259.3C300.799 259.3 301.099 259.2 300.599 259.3C300.099 259.4 300.399 259.3 300.599 259.3C300.799 259.3 300.999 259.3 300.499 259.3C299.999 259.3 300.299 259.3 300.399 259.3H300.599H300.699C300.999 259.3 300.199 259.2 300.399 259.2C300.699 259.3 300.999 259.4 301.299 259.5L301.499 259.6C301.799 259.7 300.999 259.4 301.299 259.5L301.699 259.7C302.099 260 302.599 260.2 302.999 260.6C303.199 260.8 303.399 260.9 303.599 261.1C304.099 261.4 304.599 261.5 305.199 261.5C305.899 261.5 306.499 261.3 307.099 261C307.499 260.8 307.999 260.4 307.999 259.9C308.099 259.3 307.899 258.9 307.599 258.6Z" fill="white"/>
<path d="M341.2 361.6C341.5 359.2 342 356.9 342.7 354.6C342.8 354.2 342.8 354.4 342.7 354.7L342.8 354.3C342.9 354 343 353.7 343.1 353.4C343.3 352.8 343.5 352.1 343.7 351.5C344.2 350.1 344.7 348.7 345.2 347.4C346.5 344.1 348 340.8 349.7 337.7C350.7 335.9 351.7 334.1 352.7 332.3C353 331.9 353.2 331.4 353.5 331L354 330.3C354 330.2 354.2 329.9 354.1 330.2L354.3 329.9C354.9 329 355.6 328 356.2 327.1C359.1 322.9 362.4 319 365.9 315.3C374.5 306.4 384.3 298.8 395.2 292.8C409.7 284.7 425.4 279.1 441.6 275.3C443.9 274.8 446.3 274.3 448.7 273.8C451.7 273.2 449.6 268.8 446.9 269.3C429.7 272.8 412.9 278.1 397.2 286.1C385.4 292.1 374.6 299.8 365.1 309C358 316 351.8 324 346.8 332.6C343.4 338.5 340.7 344.7 338.7 351.2C337.7 354.2 337 357.2 336.6 360.3V360.4C336.2 363.1 340.8 364.6 341.2 361.6Z" fill="#000005"/>
<path d="M276.599 349.4C276.299 344.9 279.199 341.2 282.199 338.1C284.899 335.3 287.699 332.7 290.599 330.1C296.799 324.4 303.299 319 310.099 313.9C313.499 311.3 317.099 309 320.899 306.9C321.399 306.6 322.399 306 321.499 305.5C320.599 305 318.899 305.5 318.099 306C310.599 310 303.799 315.2 297.299 320.5C290.799 325.8 284.499 331.5 278.499 337.5C274.999 341 271.499 345.2 271.899 350.4C271.899 351.6 276.799 350.8 276.599 349.4Z" fill="white"/>
<path d="M380.499 278.3C382.299 276.1 384.299 274.2 386.599 272.5C389.199 270.4 391.899 268.4 394.499 266.4C399.099 262.8 404.599 258.5 406.499 252.8C407.299 250.4 403.299 247.6 402.399 250.4C401.399 252.8 399.999 255 398.099 256.7C395.799 258.9 393.399 261 390.899 262.9C386.099 266.6 380.699 270.1 376.999 274.9C375.199 276.9 378.699 280.5 380.499 278.3Z" fill="#000005"/>
<path d="M411.7 207.1C411.7 207.1 420.5 191.7 411.9 175.6C403.3 159.5 393.2 158.5 378.3 161.2C363.4 163.9 357.7 191.7 368.3 207.1C378.9 222.5 386.4 216.6 386.4 216.6C386.4 216.6 382.6 225.2 386.5 228.4C390.4 231.6 411.7 224.2 415.3 219C418.9 213.8 411.7 207.1 411.7 207.1Z" fill="#000005"/>
<path d="M414 206.6C415.6 203.6 416.7 200.4 417.3 197C418.8 189.7 417.8 182 414.5 175.3C411.8 170 408.1 164.7 402.7 161.8C398.2 159.3 392.9 158.9 387.9 159.2C382.2 159.6 375.9 160.2 371.1 163.5C367.1 166.2 364.4 170.5 362.7 175C358.9 185.2 359.4 198.1 365.5 207.3C368.5 211.9 372.8 217.1 378.4 218.4C381.7 219 385.1 218.5 387.9 216.8C388.1 216.7 388.3 216.5 388.5 216.4L384 217.2C382.7 220.2 381.3 224.9 383 228C384.7 231.1 389.9 230.1 392.9 229.6C398.1 228.6 403.2 227 408 224.8C410.2 223.9 412.3 222.7 414.2 221.5C415.7 220.6 417 219.4 417.9 217.9C420 213.8 416.7 209.1 413.8 206.4C413.3 205.9 411.3 206.6 410.7 206.8C410.4 206.9 408.7 207.5 409.2 208C411.4 210.1 413.8 213.4 413.7 216.7C413.6 220.3 409.7 222.3 406.9 223.7C405.1 224.6 403.3 225.4 401.4 226C399.6 226.7 397.7 227.2 395.9 227.7C394.3 228.1 392.7 228.3 391.1 228.3C389.9 228.4 388.8 227.9 388 227C385.8 224.1 387.3 219.2 388.6 216.1C388.9 215.5 387.2 215.8 387 215.8C385.9 215.9 384.9 216.3 384.1 216.9C383.8 217.1 384.4 216.7 384.1 216.9C383.7 217.1 383.8 217.1 384.1 216.9C383.5 217.1 384.3 216.8 384 216.9C383.7 217 384.4 216.8 384.2 216.8C383.7 216.9 384.6 216.7 384.4 216.8C383.9 216.9 384.8 216.7 384.4 216.8C384 216.9 384.3 216.8 384.3 216.8C383.7 216.8 383.1 216.8 382.6 216.7C377.5 215.7 373.5 210.8 370.7 206.8C364.7 198.3 363.6 186.6 366.3 176.7C367.5 172.4 369.5 167.9 372.8 164.8C373.5 164.1 374.3 163.5 375.1 162.9C375.4 162.7 375.9 162.5 376.1 162.3L376.6 162.1L376.8 162C377.3 161.9 376.6 162 377.1 161.9L377.8 161.8L379.9 161.5C381.1 161.3 382.4 161.1 383.6 161.1C388.2 160.7 393 161 397.2 163.1C402.1 165.5 405.6 169.9 408.2 174.5C411.8 180.7 413.4 187.8 412.7 194.9C412.3 199.1 411.2 203.2 409.4 207C409.3 207.2 409.2 207.4 409.1 207.6C408.7 208.2 410.8 207.8 411 207.8C412 207.6 413.6 207.3 414 206.6Z" fill="#000005"/>
<path d="M399.199 201.4C399.199 201.4 397.699 210.9 385.399 213.5C385.399 213.5 377.199 213.3 371.499 209.2C363.099 203.1 369.299 179.3 369.299 179.3C372.099 172.6 379.799 173.6 379.799 173.6C391.099 175.9 396.499 185.5 396.499 185.5C396.499 185.5 399.799 194.6 399.199 201.4Z" fill="white"/>
<path d="M396.8 201.1C396.5 202.9 395.7 204.7 394.5 206.1C393.4 207.6 391.9 208.9 390.3 209.9C389.3 210.5 388.3 210.9 387.2 211.3C386.5 211.5 385.7 211.7 385 211.9C385 211.8 386.4 212 385.5 211.9C381.3 211.6 376.2 210.5 373.2 208C370.5 205.7 369.9 201.6 369.7 198.2C369.5 194.2 369.8 190.2 370.5 186.3C370.8 184.1 371.2 182 371.8 179.9C372.4 178.2 373.8 176.8 375.4 176.1C375.6 176 375.9 175.9 376.2 175.8C376.6 175.7 377.1 175.6 377.5 175.5C376.9 175.6 378 175.5 378.2 175.4C378.4 175.3 378.8 175.4 379.1 175.4C379.6 175.4 378.5 175.3 378.9 175.4C379 175.4 379.1 175.4 379.1 175.4C379.2 175.4 379.2 175.4 379.3 175.4C380.7 175.7 382 176.1 383.2 176.7C385.4 177.6 387.4 178.9 389.2 180.5C390.7 181.8 392.1 183.3 393.3 185C393.4 185.1 393.4 185.2 393.5 185.2C393.7 185.5 393.3 184.9 393.6 185.4C393.7 185.6 393.9 185.8 394 186C394.1 186.1 394.2 186.3 394.2 186.4C394.9 188.2 395.4 190 395.7 191.9C396.5 195.1 396.8 198.4 396.7 201.7C396.6 202.9 398.4 203.3 399.3 203.3C400.5 203.4 401.5 202.6 401.7 201.4C401.9 196 401 190.6 399.1 185.5C398.3 183.4 396.3 181.4 394.8 179.8C391 176.1 385.8 172.8 380.4 172.1C376.3 171.6 372.2 172.9 369.2 175.7C367 177.9 366.6 180.4 366 183.3C365.1 187.6 364.7 191.9 364.6 196.2C364.6 200.5 365.1 205.2 367.7 208.7C369.4 210.9 372.1 212.2 374.6 213.2C377.2 214.2 380 214.9 382.7 215.2C383.3 215.3 384 215.3 384.6 215.4C386 215.4 387.3 215.1 388.6 214.6C391.3 213.8 393.9 212.4 396.1 210.5C398.6 208.4 400.5 205.5 401.4 202.3C401.4 202.1 401.5 202 401.5 201.8C401.7 200.6 400.7 199.9 399.6 199.8C398.9 199.6 397 199.9 396.8 201.1Z" fill="#000005"/>
<path d="M393 196.2C393 196.2 395.2 201.1 390 201.6L393 196.2Z" fill="white"/>
<path d="M391.2 196.7C391.4 197.2 391.6 197.8 391.6 198.3V197.9C391.7 198.3 391.7 198.8 391.6 199.2L391.7 198.8C391.6 199.1 391.6 199.3 391.4 199.6L391.6 199.2C391.5 199.4 391.4 199.6 391.2 199.7L391.5 199.4C391.4 199.6 391.2 199.7 391 199.8L391.4 199.5C391.2 199.6 391 199.8 390.7 199.9L391.2 199.7C390.8 199.8 390.5 199.9 390.1 200C389.6 200 389.1 200.2 388.7 200.5C388.4 200.8 388.2 201.2 388.1 201.6C388.1 202.5 388.9 203.2 389.8 203.1H389.9C391 203 392.1 202.7 393.1 202.1C394 201.6 394.6 200.8 395 199.9C395.4 198.7 395.4 197.5 395 196.3C394.9 196.1 394.9 195.9 394.8 195.6C394.7 195.2 394.4 194.9 394 194.7C393.6 194.5 393.1 194.5 392.6 194.6C392.1 194.7 391.7 195 391.5 195.4C391.2 195.8 391.1 196.2 391.2 196.7Z" fill="#000005"/>
<path d="M374.9 191.3C372.9 193.4 370.6 195.2 368 196.7C359.5 201.8 359.7 205.3 363.2 205.9C366.7 206.5 378.6 200.2 378.6 200.2" fill="white"/>
<path d="M373.299 189.4C370.999 192 367.999 193.7 365.199 195.6C363.399 196.7 361.799 198 360.399 199.6C359.399 200.6 358.899 202 358.899 203.4C358.999 206.4 362.299 208.5 365.099 208.2C368.099 207.7 370.999 206.7 373.699 205.3C375.699 204.4 377.799 203.4 379.699 202.4C380.599 201.9 380.899 200.7 380.399 199.8C380.399 199.7 380.299 199.7 380.299 199.6C379.799 198.8 378.499 197.5 377.399 198C373.499 200.2 369.299 202 364.999 203.3C364.699 203.4 364.499 203.4 364.199 203.5L363.799 203.6C363.499 203.7 364.199 203.6 363.799 203.6C363.599 203.6 363.299 203.6 363.099 203.6H362.799C362.599 203.6 363.299 203.7 362.899 203.6C362.699 203.6 362.499 203.5 362.299 203.4C362.299 203.5 362.899 203.6 362.499 203.5C362.299 203.4 361.899 203.1 362.599 203.6C362.099 203.2 362.899 204 362.699 203.7C362.499 203.4 363.099 204.3 362.899 204C362.699 203.7 363.099 204.7 362.999 204.2C362.899 203.7 363.099 204.8 362.999 204.5C362.899 204.2 362.999 204.6 362.999 204.7C363.099 204.5 363.099 204.3 363.099 204.1C363.099 204.3 362.999 204.4 363.099 204.2L363.299 203.8C363.399 203.6 363.599 203.3 363.799 203.1C363.999 202.9 363.699 203.2 363.899 202.9L364.299 202.5C364.599 202.2 364.899 201.9 365.299 201.6C366.099 200.9 366.899 200.3 367.799 199.7C370.799 197.7 373.999 195.9 376.499 193.1C377.199 192.2 377.099 190.9 376.299 190C375.799 189.5 374.199 188.4 373.299 189.4Z" fill="#000005"/>
<path d="M384.299 187.3C384.299 187.3 382.799 187.7 383.299 189.1C383.499 189.7 384.199 190 384.799 189.7C385.299 189.5 385.599 189 385.499 188.5C385.599 187.9 385.099 187.3 384.499 187.3C384.399 187.3 384.399 187.3 384.299 187.3Z" fill="#000005"/>
<path d="M373.7 188.1C373.7 188.1 372.2 188.5 372.7 189.9C372.9 190.5 373.6 190.8 374.2 190.6C374.7 190.4 375 189.9 374.9 189.4C375 188.8 374.5 188.2 373.9 188.2C373.8 188.1 373.7 188.1 373.7 188.1Z" fill="#000005"/>
<path d="M197.8 414.1L201.5 392L266.5 391.5L263.7 429.3C263.8 429.4 201.5 419.2 197.8 414.1Z" fill="white"/>
<path d="M200.301 414L203.501 394.6L204.001 391.8L201.501 392.8L223.601 392.6L258.501 392.4L266.501 392.3L264.001 391.5L261.601 424.7L261.201 429.4L264.901 428.5C257.901 427.4 250.801 426.1 243.801 424.8C232.201 422.7 220.601 420.5 209.301 417.4C207.101 416.8 204.901 416.2 202.801 415.3C202.701 415.3 202.601 415.2 202.501 415.2L201.901 414.9C201.601 414.8 201.301 414.6 201.001 414.4C200.801 414.3 200.501 414.1 200.301 414C200.601 414.2 200.101 413.8 200.001 413.7C199.201 412.6 194.501 413.5 195.201 414.3C196.001 415.1 197.001 415.7 198.101 416.1C199.901 416.9 201.801 417.5 203.701 418.1C209.001 419.7 214.401 420.9 219.901 422.1C231.401 424.6 243.001 426.7 254.601 428.7C257.201 429.2 259.801 429.6 262.501 430C263.201 430.1 266.101 430.3 266.201 429.1L268.601 395.9L268.901 391.2C269.001 390.4 266.701 390.4 266.401 390.4L244.301 390.6L209.401 390.8L201.301 390.9C200.701 390.9 199.001 391 198.801 391.9L195.601 411.3L195.101 414.1C195.201 415.2 200.101 415.5 200.301 414Z" fill="#000005"/>
<path d="M227.4 415C227.4 415 265.7 397.5 293.8 399.8C321.9 402.1 325.2 442.2 309.5 448.2C293.8 454.2 233.9 450 233.9 450L227.4 415Z" fill="white"/>
<path d="M228.6 417C241.1 411.3 254.1 407 267.5 404.2C272.6 403.1 277.8 402.3 283 401.9C287.7 401.4 292.5 401.5 297.1 402.3C300.4 402.9 303.5 404.3 306.2 406.4C308.7 408.4 310.8 410.8 312.4 413.6C315.5 419.2 316.9 425.6 316.4 432C316.3 433.4 316 434.9 315.6 436.2C315.4 436.9 315.2 437.6 315 438.3C314.8 438.9 314.6 439.4 314.3 439.9C313.3 442.2 311.7 444.1 309.5 445.4C309.1 445.7 308.7 445.9 308.3 446C307.7 446.2 307.2 446.4 306.6 446.6C306.1 446.7 305.5 446.9 305 447L304 447.2L303.5 447.3C303.4 447.3 302.7 447.5 303.1 447.4C299.9 447.9 296.8 448.3 293.6 448.5C285.6 449.1 277.5 449.2 269.4 449.1C261.8 449 254.2 448.8 246.6 448.5C243.8 448.4 241 448.2 238.3 448.1L235.4 447.9C234.8 447.9 235.5 447.9 235.4 447.9H235H234.2H233.6L236 450.4L230.3 419.7L229.5 415.4C229.3 414.1 228.3 413.1 227.1 412.9C226.1 412.7 224.7 413.3 224.9 414.5L230.6 445.2L231.4 449.5C231.6 450.8 232.6 451.8 233.9 452C244.6 452.7 255.4 453.2 266.1 453.4C274.5 453.5 282.9 453.5 291.3 453.1C297.5 452.7 304.3 452.4 310.3 450.3C315.9 448.3 319.1 442.9 320.4 437.3C321.8 430.5 321.2 423.4 318.6 417C315.9 409.8 310.5 403.8 303.6 400.4C299.6 398.6 295.2 397.6 290.8 397.5C285.5 397.3 280.1 397.6 274.8 398.4C258.3 400.7 242 405.9 226.9 412.5L226.1 412.9C223.5 414.2 226.4 418 228.6 417Z" fill="#000005"/>
<path d="M169.6 399.8C169.6 399.8 140.1 377 150 353.9C159.9 330.8 204.3 309.6 231.4 305.2C258.5 300.8 312.8 339.1 309.6 365.9C306.4 392.7 285 401 285 401L263.9 376.6L204.4 377.8L186.4 400.9C180.9 402.8 174.8 402.4 169.6 399.8Z" fill="#E987D0"/>
<path d="M169.9 398.6C169.5 398.3 169.1 398 168.8 397.7L168.2 397.2L167.8 396.9C167.3 396.5 168 397.1 167.8 396.9C167.2 396.4 166.7 395.9 166.1 395.3C165.5 394.7 164.8 394 164.1 393.4C163.4 392.8 162.5 391.7 162.1 391.3C161.7 390.9 160.6 389.6 160 388.8C159.2 387.9 158.5 386.9 157.8 385.9C151.7 377.5 147.7 366.7 151.7 356.4C153.7 351.7 156.5 347.4 160.1 343.8C164.1 339.6 168.5 335.8 173.3 332.4C183.9 325 195.4 318.9 207.5 314.4C213.1 312.2 218.9 310.3 224.7 308.9C229.2 307.8 233.8 306.7 238.4 306.8C248 307.1 257.4 310.7 265.9 315.1C275.6 320.1 284.6 326.5 292.4 334.1C295.9 337.5 299.1 341.2 301.8 345.2C304.3 348.7 306.1 352.5 307.3 356.6C308.5 361.2 308 365.6 306.9 370.2C305.6 375.8 303.2 381 299.9 385.7C295.9 391.2 290.6 395.7 284.5 398.8C284.2 398.9 283.9 399.1 283.5 399.2L286.2 400.9L267.4 379.2C266.6 378.3 265.9 377.4 265.1 376.5C264.4 375.5 263.4 374.9 262.2 374.9H261.1L249.3 375.1L213.4 375.8C210.1 375.9 206.7 375.8 203.4 376C202.7 376 202.5 376.3 202.1 376.9L198.2 381.9L187.2 396C186.3 397.1 185.6 398.2 184.6 399.3C184.8 399.1 184.9 399.2 184.5 399.3C184.1 399.4 183.4 399.6 182.9 399.7C181 400.1 179 400.3 177 400.2C174.2 400.1 171.5 399.3 169 398.1C168.1 397.6 167.7 398.3 168 399.1C168.5 400.2 169.4 401.1 170.5 401.6C174.1 403.4 178.2 404.3 182.3 404C184 403.9 186.4 403.8 188 402.9C188.6 402.5 189 401.9 189.4 401.3L192.5 397.3C197.1 391.4 201.6 385.5 206.2 379.7C213 370.9 205.8 379.7 206.1 379.8C206.3 379.8 206.6 379.8 206.8 379.8H209.6L219.7 379.6L247.5 379L259.1 378.8C261.1 378.8 263.1 378.8 265.1 378.7H265.4L262.7 377.1L281.2 398.4L283.9 401.5C284.4 402 285.7 403.5 286.6 403.1C291.4 401 295.8 398 299.4 394.1C303.1 390.3 306 385.9 308.1 381.1C310.4 375.9 312 369.9 311.8 364.2C311.4 354.8 305.6 346 299.7 339.1C292 330.2 282.9 322.6 272.9 316.5C263.7 310.8 253.5 306 242.8 304C238.6 303.1 234.2 303 229.9 303.6C224.2 304.6 218.6 306 213.1 307.8C200.5 311.8 188.4 317.3 177 324.2C167.1 330.3 156.9 337.8 150.6 347.8C147.5 352.5 146 358 146.1 363.5C146.4 369.2 148.1 374.6 150.9 379.5C155.3 387.4 161.2 394.3 168.2 400.1L169.4 401.1C169.9 401.5 171.2 402.3 171.5 401.4C171.8 400.5 170.4 399 169.9 398.6Z" fill="#E987D0"/>
<path d="M185.2 384.5C185.2 384.5 196.6 368.9 203.1 370.1C209.6 371.3 214.9 399.7 212.2 400.5C209.5 401.3 179.9 405.1 179.6 401.3C179.3 397.5 179.6 394.7 185.2 384.5Z" fill="white"/>
<path d="M187.5 385.4C189.1 383.2 190.8 381.2 192.6 379.2C195.3 376.2 198.6 372.6 202.6 371.3C202.9 371.2 203.2 371.1 203.5 371.1C203.8 371.1 203.7 371.1 203.7 371.1C203.5 371.1 203.4 371 203.2 371C203 370.9 202.8 370.9 202.6 370.7C202.7 370.8 202.8 370.8 202.9 370.9C202.3 370.4 203.4 371.4 203.1 371.1C204.1 372.2 204.9 373.5 205.5 374.9C207.2 378.8 208.5 382.8 209.3 387C210.2 390.4 210.6 393.8 210.6 397.3C210.6 397.8 210.5 398.3 210.4 398.8C210.4 398.9 210.3 399.1 210.2 399.2C210.2 399.2 210.2 399.1 210.3 399.1C210.2 399.1 210.1 399.2 209.9 399.2H210L209.6 399.3C209 399.4 208.5 399.5 207.9 399.6C200.2 400.9 192.4 401.5 184.6 401.5C183.8 401.5 183 401.4 182.2 401.4C182.1 401.4 181.6 401.3 181.9 401.4C182.2 401.5 181.8 401.4 181.7 401.4C181.4 401.3 180.5 401.2 181.3 401.4C181.2 401.4 181 401.3 180.9 401.3C180.7 401.2 181.5 401.6 181.1 401.4C181.5 401.6 181.5 401.7 181.7 401.9C181.5 401.8 181.7 402.1 181.7 401.8C181.7 401.5 181.6 401.1 181.6 400.8C181.4 397 183.2 393.4 184.8 390.2C185.6 388.6 186.5 387 187.3 385.4C187.9 384.3 183.3 382.5 182.5 383.9C180.8 386.8 179.3 389.8 178 392.9C177.3 394.6 176.8 396.3 176.7 398.1C176.6 399.4 176.5 401.1 177.5 402C178.9 403 180.5 403.7 182.2 403.9C186.4 404.4 190.7 404.4 194.9 404C199.4 403.7 203.8 403.2 208.3 402.6C209.7 402.4 211.1 402.2 212.4 402C213.3 401.8 214.2 401.7 214.6 400.7C214.9 399.4 215 398.1 214.8 396.8C214.7 394.8 214.4 392.9 214.1 391C213.3 386.5 212.1 382 210.4 377.7C209 374.2 207.1 370.5 203.3 369.2C198.7 367.7 194.5 370.9 191.2 373.8C188.2 376.6 185.5 379.6 183 382.9C182.8 383.1 182.7 383.3 182.5 383.5C182 384.8 186.6 386.6 187.5 385.4Z" fill="#000005"/>
<path d="M279.8 383.7C279.8 383.7 268.4 368.1 261.9 369.3C255.4 370.5 250.1 398.9 252.8 399.7C255.5 400.5 285.1 404.3 285.5 400.5C285.9 396.7 285.5 394 279.8 383.7Z" fill="white"/>
<path d="M282.1 384.3C280.3 381.8 278.2 379.4 276.1 377.1C272.6 373.4 268.6 369.9 263.6 368.6C261.9 368.1 259.9 367.8 258.4 368.9C257.2 369.9 256.2 371.1 255.6 372.6C253.6 376.6 252.2 380.9 251.3 385.4C250.3 389.1 249.8 392.9 249.9 396.8C250 398 250.1 398.9 251.3 399.5C252.8 400.2 254.3 400.7 255.9 400.8C264.4 402.3 272.9 403 281.5 402.9C283.2 402.9 287.7 403.1 287.9 400.6C288.2 396.6 286.7 393 284.9 389.5C284 387.8 283.1 386.1 282.1 384.3C281.7 383.5 280.1 383.2 279.3 383C279.1 383 277.1 382.5 277.4 383.1C279 385.9 280.4 388.7 281.7 391.6C282.4 393.2 282.9 394.9 283.1 396.6C283.2 397.5 283.4 399.2 282.9 400C282.5 400.6 281.3 400.8 280.6 400.9C277 401.3 273.3 401.3 269.7 400.9C265.5 400.6 261.3 400.2 257.2 399.7L254.8 399.4L254 399.3H253.7L253.2 399.2C252.8 399.1 252.4 399 252 399C252 399 252.7 399.2 252.4 399.1C253.2 399.4 254.1 399.8 254.9 400.2C254.8 400.1 254.8 399.9 254.7 399.8C254.4 398.7 254.4 397.6 254.6 396.4C254.7 394.6 254.9 392.8 255.2 391C255.9 386.8 257 382.7 258.4 378.7C259 376.9 259.8 375.2 260.7 373.6C261.3 372.4 262.2 371.4 263.3 370.6C263.7 370.4 264.2 370.3 264.6 370.3L264.2 370.2H264.3L264.8 370.4C266.6 371.5 268.3 372.9 269.8 374.4C272.4 376.9 274.8 379.7 277 382.6L277.4 383.1C278.2 383.8 279.2 384.3 280.2 384.5C280.4 384.5 282.5 384.8 282.1 384.3Z" fill="#000005"/>
<path d="M266.3 452.9L303.5 451.7L302.4 419.7C302.4 419.7 278.5 424.6 273.2 441.2L262.5 440.4L266.3 452.9Z" fill="#000005"/>
<path d="M266 454.8L298.6 453.7L303.2 453.6C304.6 453.6 306 452.7 305.9 451.2L305 423.1L304.9 419.1C304.9 417.9 302.9 417.6 302.1 417.8C299 418.5 295.9 419.5 292.9 420.7C286.9 422.9 281.5 426.4 277 430.8C274.3 433.6 272.2 436.9 270.9 440.6L273.5 439.2L262.8 438.4C261.7 438.3 259.6 439.4 260.1 440.8L263.9 453.3C264.4 454.4 265.6 455 266.7 454.6C267.6 454.4 269.2 453.5 268.8 452.3L265 439.8L262.3 442.2L273 443C274.1 443.1 275.1 442.5 275.6 441.6C277.6 435.6 282 431.1 287.2 427.8C289.5 426.4 291.9 425.2 294.3 424.2C295.4 423.7 296.5 423.3 297.6 422.9L299 422.4L299.3 422.3H299.1L299.8 422.1C300.8 421.8 301.8 421.6 302.7 421.3L299.9 420L300.8 448.1L300.9 452.1L303.6 449.7L271 450.8L266.4 450.9C265.3 450.9 263.8 451.5 263.6 452.8C263.4 454.1 264.9 454.8 266 454.8Z" fill="#000005"/>
<path d="M174.8 399.4C174.8 399.4 137.4 410 143.9 433.5C150.4 457 273 452.9 273 452.9L273.9 430.3C273.9 430.3 202.9 392 174.8 399.4Z" fill="white"/>
<path d="M174.8 397.6C170.5 398.9 166.3 400.5 162.3 402.6C155.4 406 148.3 410.7 144.1 417.4C141.9 420.8 140.7 424.7 140.6 428.8C140.5 431.8 141.3 434.8 142.8 437.3C145.4 441 150 443.2 154.1 444.8C160.4 447.1 166.8 448.8 173.4 449.9C181.4 451.3 189.5 452.2 197.5 453C205.8 453.7 214.2 454.2 222.6 454.5C230.3 454.8 237.9 455 245.6 455C251.5 455 257.4 455 263.2 454.9C266.1 454.9 269 454.8 271.9 454.7H272.3C273.5 454.7 275.3 453.9 275.4 452.5L276.2 432.7L276.3 429.9C276.3 429.4 276 429 275.6 428.8C267.1 424.2 258.3 420.1 249.5 416.1C233.3 408.9 216.5 402 199.1 398.5C191.3 396.8 182.7 395.6 174.8 397.6C173.8 397.9 172.3 398.6 172.3 399.8C172.3 401 173.8 401.3 174.7 401.1C180.9 399.5 187.8 400.2 194.4 401.4C202.9 403 211.2 405.4 219.3 408.3C234.3 413.7 249 420 263.2 427.2C266.2 428.7 269.2 430.2 272.2 431.8L271.5 430.7L270.7 450.5L270.6 453.3L273.7 451.1C266.7 451.3 259.8 451.4 252.8 451.4C237.6 451.4 222.4 451 207.2 450C192.4 449 177.3 447.6 162.9 443.5C160.3 442.8 157.7 441.9 155.3 440.8C154.2 440.3 153 439.7 152 439.1C151.6 438.9 151.1 438.6 150.7 438.3C150.5 438.2 150.3 438 150.1 437.9C150.5 438.2 149.8 437.7 149.7 437.6C149 437 148.3 436.3 147.7 435.6C147.6 435.5 147.5 435.3 147.3 435.1C147.1 434.9 146.9 434.4 147.2 434.9C147 434.5 146.8 434.1 146.6 433.7C145.4 430.5 145.2 427.1 146 423.8C146.9 420.4 148.7 417.3 151.1 414.7C153.6 412 156.5 409.7 159.7 407.9C161.3 406.9 162.9 406.1 164.5 405.3L165.1 405L166.2 404.5C166.9 404.2 167.7 403.8 168.4 403.5C170.4 402.7 172.4 401.9 174.4 401.3C174.7 401.2 176.1 400.8 174.7 401.2C175.7 400.9 177.1 400.3 177.1 399C177.1 397.7 175.7 397.4 174.8 397.6Z" fill="#000005"/>
<path d="M218.1 341.1C216.1 336.8 213.9 332.6 211.6 328.5C210.9 327.7 210 327.1 209 326.8C208.5 326.6 208 326.5 207.5 326.4C207.3 326.4 206.9 326.4 207.1 326.8C209.5 330.9 211.7 335.1 213.6 339.4C214 340.3 215.3 340.8 216.2 341.1C216.3 341.2 218.4 341.8 218.1 341.1Z" fill="white"/>
<path d="M233.3 341.4V329.2C233.3 329 232.8 328.8 232.7 328.7C232.2 328.5 231.6 328.3 231 328.2C230.8 328.2 228.5 327.7 228.5 328.2V340.4C228.5 340.6 229 340.8 229.1 340.9C229.6 341.1 230.2 341.3 230.8 341.4C231 341.4 233.3 341.9 233.3 341.4Z" fill="white"/>
<path d="M233.101 319.4V318.3C233.101 318.2 233.001 318 232.901 318C232.801 317.9 232.601 317.7 232.401 317.7C232.101 317.6 231.901 317.5 231.601 317.4C231.301 317.3 231.001 317.2 230.701 317.2L230.001 317.1C229.601 317.1 229.201 317.1 228.901 317.2L228.501 317.3C228.301 317.3 228.201 317.5 228.101 317.7V318.8C228.101 318.9 228.201 319.1 228.301 319.1C228.401 319.2 228.601 319.4 228.801 319.4C229.101 319.5 229.301 319.6 229.601 319.7C229.901 319.8 230.201 319.8 230.501 319.9L231.201 320C231.601 320 232.001 320 232.301 319.9L232.701 319.8C232.901 319.7 233.001 319.6 233.101 319.4Z" fill="#E987D0"/>
<path d="M249.1 340.6C250.6 337.6 252.1 334.6 253.5 331.6C253.6 331.4 252.9 331.1 252.9 331C252.4 330.7 251.8 330.5 251.2 330.4C250.6 330.2 250 330.2 249.4 330.2C249.2 330.2 248.7 330.2 248.6 330.4C247.2 333.4 245.7 336.4 244.2 339.4C244.1 339.6 244.8 340 244.8 340C245.3 340.3 245.9 340.5 246.5 340.6C247.1 340.8 247.7 340.8 248.3 340.9C248.5 340.9 248.9 340.9 249.1 340.6Z" fill="white"/>
<path d="M281.6 395C281.6 395 295.9 377.7 292.4 374.3C288.9 370.9 277.5 383 277.5 383" fill="white"/>
<path d="M283.4 396.7C287.3 392 291.2 387 293.8 381.5C295.2 378.6 296.5 374.5 293 372.5C289.5 370.5 285.3 373.2 282.4 375.3C279.9 377.2 277.6 379.2 275.5 381.5C274.8 382.3 274.9 383.6 275.7 384.3C275.8 384.3 275.8 384.4 275.9 384.4C276.7 385.1 278.4 385.6 279.3 384.7C280.9 383.1 282.5 381.5 284.2 380.1C284.9 379.5 285.6 378.9 286.4 378.4L287.4 377.7L288 377.3C287.7 377.5 288.2 377.2 288.3 377.1C289 376.7 289.7 376.4 290.4 376.1C290.6 376 290.8 376 290.4 376.1L290.8 376C290.9 376 291.4 375.9 291 376C290.6 376.1 291.1 376 291.2 376C291.5 376.2 290.7 375.9 291.1 376C291.5 376.1 290.8 375.9 290.8 375.9C290.8 375.9 291.1 376 290.7 375.8C290.3 375.6 290.5 375.7 290.6 375.8C290.7 375.9 290.6 375.9 290.5 375.7C290.4 375.5 290.3 375.5 290.4 375.6C290.6 375.9 290.2 375.1 290.3 375.4C290.5 375.9 290.3 374.9 290.3 375.5C290.3 375.6 290.3 375.7 290.3 375.9C290.3 376.2 290.4 375.5 290.3 375.9C290.2 376.5 290.1 377.1 289.9 377.7C289.8 378.1 290 377.4 289.9 377.8C289.8 377.9 289.8 378.1 289.7 378.3C289.6 378.7 289.4 379.1 289.2 379.4C287.6 382.6 285.7 385.6 283.5 388.5C282.5 389.9 281.5 391.2 280.5 392.5C280.2 392.9 279.9 393.3 279.6 393.7C279.3 394.1 279.3 394.1 279.6 393.7L279.5 393.8C278.8 394.6 278.8 395.9 279.6 396.6C279.7 396.7 279.7 396.7 279.8 396.8C280.5 397.4 282.4 398.1 283.2 397.1L283.4 396.7Z" fill="#000005"/>
<path d="M188.3 352.2L274.5 351L264.6 401.9L198.9 403.1L188.3 352.2Z" fill="#000005"/>
<path d="M187.4 353.6L196 353.5L216.6 353.2L241.5 352.9L263.1 352.6L270.2 352.5C271.3 352.6 272.4 352.5 273.6 352.5H273.7L272.2 351.3L268.9 368.5L263.6 395.8L262.4 402.1L265.7 400.4L243.5 400.8L208.1 401.4L199.9 401.5L201.4 402.3L197.8 385.1L192.1 357.7L190.8 351.4C190.4 349.6 185.6 350.9 186 352.7L189.6 369.9L195.3 397.3L196.6 403.6C196.7 404.2 197.6 404.4 198.1 404.4L220.3 404L255.7 403.4L263.9 403.3C264.9 403.3 267 402.9 267.2 401.6L270.5 384.4L275.8 357.1L277 350.8C277.2 350 276.1 349.6 275.5 349.6L267 349.7L246.5 350L221.6 350.3L200 350.6C196.5 350.6 193 350.7 189.6 350.7H189.5C188.4 350.7 186.9 351 186.3 352.1C185.7 353.2 186.5 353.6 187.4 353.6Z" fill="#000005"/>
<path d="M230.1 374.7L230.3 374.6C230.4 374.6 229.5 374.8 229.9 374.8H230L230.1 374.7C230.7 374.6 231.2 374.5 231.7 374.4H231.9C232.3 374.3 231.4 374.4 231.6 374.4H232.1H232.6C232.8 374.4 233.4 374.5 232.8 374.4C232.2 374.3 232.8 374.4 233 374.4C233.2 374.4 233.8 374.7 233.2 374.4C232.6 374.1 233.2 374.4 233.3 374.5L233.5 374.6C233.7 374.7 233.1 374.3 233.1 374.4C233.1 374.5 233.2 374.5 233.2 374.5L233.4 374.7L233.5 374.8C233.7 375 233.3 374.5 233.3 374.5C233.4 374.7 233.6 374.8 233.7 375L233.8 375.1C233.9 375.3 233.5 374.5 233.7 374.9C233.8 375 233.8 375.1 233.8 375.2C233.9 375.5 234 375.8 234.1 376.1L234 375.6C234.1 376.1 234.2 376.6 234.1 377.2L234.2 376.6C234.2 377 234.1 377.5 233.9 377.9L234.1 377.4C233.9 377.8 233.7 378.1 233.4 378.5L233.8 378.1C233.6 378.3 233.5 378.4 233.3 378.6L233 378.8C232.7 379 233.6 378.5 233.1 378.7C232.9 378.8 232.7 378.9 232.4 379C232 379.1 233 378.8 232.5 379L232.1 379.1L231.7 379.2C231.3 379.3 232.4 379.2 231.8 379.2C231.5 379.2 231.3 379.2 231 379.2C230.4 379.2 231.6 379.3 231.1 379.2L230.7 379.1C230.4 379 230.1 378.9 229.8 378.8C229.2 378.6 228.5 378.7 227.9 379C227 379.4 226.5 380.5 227 381.5C227.1 381.6 227.1 381.8 227.2 381.9C227.6 382.4 228.2 382.7 228.8 382.9C231 383.7 233.5 383.6 235.7 382.5C236.7 382 237.5 381.2 238.1 380.2C238.7 379.2 239 378.1 238.9 376.9C238.9 374.5 237.6 372.3 235.5 371.1C233.8 370.3 231.9 370 230 370.3C229 370.4 228 370.7 227 371.1C226 371.5 225.6 372.7 226.1 373.6C226.2 373.7 226.2 373.9 226.3 374C227.5 374.8 228.9 375.2 230.1 374.7Z" fill="white"/>
<path d="M182.6 397.2C182.6 397.2 170.2 380.2 174 376.6C177.8 373 187.9 384.8 187.9 384.8" fill="white"/>
<path d="M184.8 396.2C181.7 392.2 179.1 387.8 177 383.2C176.4 381.9 176 380.5 175.7 379.1C175.7 378.9 175.6 378.6 175.6 378.4C175.6 378.8 175.6 378.1 175.6 377.9C175.6 377.7 175.8 377.1 175.6 377.6C175.6 377.6 175.7 377.4 175.7 377.3C175.7 377.2 175.8 377.2 175.8 377.1C175.6 377.4 175.6 377.4 175.7 377.3C175.3 377.6 175.9 377 175.7 377.3C176.1 377 175.2 377.6 175.6 377.3L175.2 377.4C175.5 377.3 175.4 377.3 174.9 377.4C175.1 377.4 175.5 377.4 174.8 377.4H175.2C174.8 377.2 175.7 377.4 175.2 377.4C175.6 377.6 175.9 377.6 176.3 377.8C175.9 377.6 176.4 377.9 176.5 377.9L177 378.2C177.3 378.4 177.7 378.6 178 378.8C178.7 379.3 179.4 379.8 180.1 380.4C182 382 183.8 383.7 185.4 385.6C186.7 387.1 191.3 385.4 189.9 383.6C188.2 381.7 186.4 379.9 184.5 378.3C181.8 376 178.1 373.3 174.4 374.3C172.6 374.7 171.2 376 170.7 377.8C170.5 379.2 170.6 380.6 171.1 381.9C172.3 385.4 174 388.8 176 391.9C177.3 394 178.7 396.1 180.1 398.1C181.3 399.7 186 398 184.6 396.1L184.8 396.2Z" fill="#000005"/>
<path d="M206.801 296.6C216.201 308 224.001 306.4 221.301 315.3C221.301 315.3 239.201 326.2 247.501 310.7C248.801 308.3 259.001 289.9 244.101 272.1C244.101 272.1 235.301 262.7 241.401 253.2C241.401 253.2 230.501 258.6 222.601 255.1C214.701 251.6 200.401 242.3 195.401 249.5C190.401 256.7 200.001 264 207.301 265.5L203.601 277.7C210.401 282.6 216.701 275.7 216.701 275.7C216.701 275.7 218.801 285.1 215.901 287.7C213.001 290.3 204.901 288.3 204.901 288.3C204.101 291.2 204.801 294.3 206.801 296.6Z" fill="white"/>
<path d="M204.4 296.2C206.3 298.5 208.5 300.7 210.9 302.6C212.6 304 214.401 305.2 216.101 306.5C217.401 307.3 218.401 308.4 219.101 309.7C219.601 311.3 219.6 313.1 218.9 314.7C218.8 315 219.401 315.2 219.501 315.3C223.101 317.4 227.101 318.8 231.201 319.5C234.3 320.1 237.601 320 240.701 319.3C244.101 318.3 247 316.1 248.9 313.2C251.6 309 253.401 304.4 254.101 299.5C255.601 290.7 253.401 281.6 248.001 274.5C246.301 272.2 244.401 270.2 243.201 267.5C241 263.2 241.301 258 243.801 253.9C244.301 253.2 239.701 252.2 239.101 252.5C235.701 254.2 232 255.2 228.201 255.4C227 255.5 225.901 255.4 224.701 255.2C223.701 254.9 222.8 254.5 221.9 254C219.4 252.8 217.001 251.5 214.501 250.4C209.601 248.1 203.901 245.6 198.301 246.1C196.301 246.2 194.401 247.1 193.101 248.6C191.501 250.6 191 253.3 191.9 255.7C192.9 258.6 195.401 260.8 197.801 262.4C200.801 264.3 204.101 265.7 207.601 266.4L204.7 265L201.001 277.2C201.001 277.4 201.1 277.5 201.2 277.6C206.6 281.3 214.101 281.6 218.801 276.6L214.101 275.2C214.401 276.5 214.6 277.9 214.7 279.3C214.9 281.5 215.101 284.1 214.101 286.1C213.101 288.1 210.601 288.4 208.601 288.3C207.701 288.3 206.8 288.3 205.9 288.2L204.801 288C204.401 287.9 205.5 288.2 204.9 288C204.5 287.9 202.501 287.4 202.301 288C201.501 290.6 202.6 293.9 204.4 296.2C205.2 296.9 206.2 297.3 207.2 297.4C207.4 297.4 209.501 297.6 209.101 297.1C207.201 294.9 206.601 291.9 207.301 289.1H204.7C206.6 289.6 208.601 289.9 210.601 290C213.001 290.2 216.501 290.3 218.301 288.4C219.901 286.7 219.8 283.7 219.7 281.5C219.6 279.8 219.401 278.1 219.001 276.5C218.901 275.8 217.601 275.5 217.101 275.3C216.601 275.1 214.801 274.5 214.301 275.1C213.401 276 212.4 276.8 211.4 277.4C210.4 278 209.401 278.4 208.301 278.6C207.401 278.9 206.4 278.7 205.7 278.1L205.9 278.5L209.601 266.3C209.801 265.6 207 265 206.7 264.9C202.6 264 197.3 260.1 196.4 255.6C195.7 252.1 198.001 248.7 201.501 248C202.201 247.9 202.801 247.8 203.501 247.9C205.401 248.2 207.301 248.8 209.001 249.6C211.301 250.6 213.6 251.7 215.9 252.8C218.1 254 220.4 255.1 222.7 256C225.6 257 228.601 257.4 231.701 257.2C235.8 256.9 239.901 255.9 243.601 254L238.9 252.6C235.1 258.7 237.001 266 241.301 271.2C246.501 277.4 249.801 284.9 249.601 293.1C249.501 298.6 248.101 304.1 245.501 309C244.401 311.5 242.701 313.7 240.601 315.4C238.301 317.1 235.501 318.1 232.601 318.1C231.901 318.1 231.201 318.1 230.501 318C230.401 318 230.1 317.9 230.4 318L229.801 317.9L229.4 317.8L229.101 317.7H229.201L228.301 317.5L227.9 317.4C228.5 317.6 227.901 317.4 227.701 317.3L226.801 317L226.4 316.9C226.9 317.1 226.301 316.9 226.301 316.8C225.801 316.6 225.4 316.4 224.9 316.2C224.7 316.1 224.201 315.9 224.701 316.1L224.201 315.8C223.901 315.6 223.6 315.5 223.2 315.3L223.801 315.9C224.401 314.3 224.501 312.4 224.001 310.8C223.401 309.4 222.401 308.2 221.101 307.3C219.501 306 217.701 304.9 216.101 303.7C213.601 301.8 211.3 299.5 209.2 297.1C208.4 296.4 207.401 296 206.301 295.9C206.101 295.8 203.9 295.6 204.4 296.2Z" fill="#000005"/>
<path d="M253.1 307.1C253.1 307.1 261 316.5 266.3 312.3C271.6 308.1 264.4 305 264.4 305C264.4 305 279.2 299.3 270.6 290.4C270.6 290.4 284.6 288 283.4 275.8C282.2 263.6 265.9 259.5 265.9 259.5C265.9 259.5 274.5 248 263.3 242.4C252.1 236.8 249.7 245.6 249.7 245.6C249.7 245.6 242.6 241.9 239.6 245.8C236.6 249.7 240.3 254.7 240.3 254.7C240.3 254.7 234 267.5 244 272L242.3 292.4C238.2 294.6 235.5 298.7 235.1 303.3C234.6 311.1 248.3 314.9 253.1 307.1Z" fill="#000005"/>
<path d="M253.9 309.1C256.1 311.7 258.9 314.2 262.1 315.2C264.3 316.1 266.9 315.4 268.4 313.6C270.4 311.3 268.5 308.3 267.1 306.2C266.2 304.8 264.8 303.6 263.3 302.9L265.5 307.3C268.2 306.3 270.6 304.7 272.5 302.6C273.8 301.2 274.5 299.3 274.3 297.4C274 295.9 273.5 294.4 272.8 293.1C272 291.4 270.9 289.9 269.7 288.5L271.7 292.7C277.1 291.8 282.7 288.2 284.2 282.7C285.6 277.6 283.3 272.3 280.6 268C278.3 264.6 275.1 261.8 271.4 260C269.3 258.9 267 258 264.7 257.4L267 261.8C268.8 259.4 269.9 256.5 270.2 253.5C270.4 250.5 269 247.6 267.5 245.1C265.8 242.4 263.1 240.3 260.1 239.3C256.2 237.9 251.7 237.9 249.3 241.8C249 242.2 248.8 242.6 248.7 243.1C248.6 243.5 248.8 243.4 248.5 243.3C247.7 243.1 247 242.8 246.3 242.4C245.1 242 243.9 241.8 242.7 241.8C239.2 241.8 237 244.8 237.4 248.2C238 251.2 239.2 254 241.1 256.4L239.3 252.5C238.1 255 237.4 257.8 237.3 260.7C237.3 263.3 238 265.8 239.3 268.1C240.5 270.8 242.6 273 245.2 274.3L243.1 270C242.5 276.7 242 283.4 241.5 290.1C241.5 290.5 241.5 290.3 241.4 290.4C241 290.8 240.4 291 239.9 291.3C238 292.7 236.4 294.5 235.4 296.7C234.1 299.1 233.9 302 234.8 304.6C235.8 307.3 237.4 310.2 239.9 311.8C244.5 314.8 251.4 314.2 254.5 309.3C254.8 308.8 253.8 307.3 253.6 306.9C253.2 306.2 252.7 305.5 252.2 304.8C249.6 308.9 244.4 310 240 308.4C238.9 308 238 307.5 237.1 306.8C236.7 306.5 236.4 306.2 236.1 305.8C236.1 305.8 235.8 305.6 236 305.7C236.4 306 236.9 308 236.8 307.3C236.8 307.1 236.7 306.9 236.7 306.6C236.5 303.8 237.4 301.1 239.1 298.8C240.2 297.3 241.5 296 243.1 295C243.8 294.6 243.9 294.6 244 293.9L244.8 283.6L245.6 274C245.5 273.2 245.1 272.4 244.7 271.8C244.4 271.3 244 270 243.4 269.8C242.4 269.3 241.4 268.7 240.6 268C240.3 267.7 240.1 267.4 239.8 267.1C240.5 267.6 240.6 268.9 240.2 267.7C239.8 266.1 239.8 264.4 240.1 262.7C240.4 260.7 241 258.7 241.8 256.9C242 256.5 241.5 255.7 241.3 255.4C240.9 254.6 240.5 253.8 240 253L239.8 252.8C239.9 252.9 240 253.1 239.9 252.9L240.3 253.5C240.6 254.1 240.2 253 240.1 252.8C240 252.3 239.9 251.9 240 251.4C239.9 249.2 241.2 247.3 243.3 246.5C245.8 245.6 248.9 246.6 251.1 247.7H251.2C252.2 244.6 255.1 242.5 258.4 242.6C260.3 242.7 262.2 243.2 264 244.1C264.9 244.5 265.8 245 266.6 245.6C267.3 246.1 267.8 246.8 268.5 247.4C268.7 247.5 268.1 246.6 268.1 246.7C267.6 245.6 267.9 246.2 267.9 246.4C267.9 246.6 268 246.9 268.1 247.2C268.2 247.9 268.2 248.6 268.2 249.3C268.1 250.6 267.8 251.8 267.3 253C266.7 254.5 266 255.9 265.1 257.2C264.8 257.6 265.8 259.2 266 259.6C266.3 260.1 266.8 261.5 267.4 261.7C272.5 262.9 277.2 265.6 280.8 269.5C281.1 269.8 281.4 270.2 281.6 270.5C281.7 270.6 282.1 271.3 281.9 271C281.7 270.7 281.9 271 281.9 271.2C282.1 271.8 282.2 272.3 282.3 272.9C282.7 275 282.5 277.2 281.8 279.2C280.6 282.3 278.2 284.8 275.2 286.3C273.5 287.3 271.6 287.9 269.6 288.3C269.3 288.3 271.3 292.2 271.6 292.5C271.9 292.8 272.3 293.4 272.7 293.8C271.3 292.5 272 292.1 272.1 292.8C272.1 293 272.2 293.2 272.2 293.4C272.3 294.2 272.2 295.1 271.9 295.8C271.2 297.3 270.2 298.6 268.9 299.6C267.2 301 265.4 302.1 263.4 302.9C263.1 303 265.1 307.1 265.6 307.3C266 307.5 266.5 307.7 266.8 308C267.2 308.2 267.5 308.5 267.9 308.8C268.1 309 268.2 309.2 268.4 309.3C267.3 306.6 266.9 305.8 267.1 306.9V307.1C266.6 309.7 264.2 311.5 261.6 311.2C258 310.9 254.5 307.8 252.3 305.2C251.7 304.4 252.3 306.1 252.3 306.2C252.5 307.2 253.2 308.2 253.9 309.1Z" fill="#000005"/>
<path d="M241.101 273.2C241.101 273.2 248.001 266.3 252.601 271.8C257.201 277.3 246.801 296.6 237.101 289" fill="white"/>
<path d="M242.7 275.1C243.2 274.6 243.7 274.2 244.3 273.8C244.5 273.6 244.8 273.4 245 273.3L245.2 273.2C245.2 273.2 244.9 273.4 245.1 273.3L245.6 273C246.2 272.7 246.9 272.4 247.6 272.2C247.8 272.1 247.5 272.2 247.5 272.2H247.8C248 272.2 248.2 272.1 248.4 272.1C248.6 272.1 248.8 272.1 248.9 272.1C248.5 272.1 249 272.1 249.1 272.1C249.2 272.1 249.7 272.2 249.4 272.2C249.1 272.2 249.6 272.3 249.7 272.3L250 272.4C250 272.4 249.7 272.2 249.9 272.4C250.1 272.5 250.3 272.7 250.5 272.9C250.2 272.6 250.6 273 250.7 273.1C250.8 273.2 250.9 273.4 251 273.5C250.8 273.4 250.7 272.9 250.9 273.3L251.1 273.7C251.3 274.1 251 273.4 251 273.6C251 273.7 251.1 273.9 251.1 274C251.1 274.1 251.2 274.2 251.2 274.4C251.2 274.6 251.2 274.5 251.2 274.6C251.3 274.8 251.2 274.1 251.2 274.4C251.2 275 251.3 275.6 251.2 276.2C251.1 276.6 251.2 276.4 251.2 276.2L251.1 276.7C251 277 251 277.4 250.9 277.7C250.7 278.4 250.5 279.1 250.3 279.8L250.1 280.3C250 280.5 250.1 280.2 250.1 280.2C250.1 280.3 250 280.4 250 280.4C249.8 280.7 249.7 281.1 249.5 281.4C248.8 282.7 248 284 247.1 285.2C247 285.4 247.2 285.1 247.2 285.1L247 285.3C246.9 285.4 246.8 285.6 246.6 285.7C246.4 286 246.1 286.2 245.8 286.5C245.3 287 244.8 287.4 244.2 287.8C243.8 288.1 244.4 287.7 244 287.9C243.8 288 243.7 288.1 243.5 288.2C243.2 288.3 242.9 288.5 242.5 288.6L242 288.7C241.8 288.8 242.2 288.7 242.2 288.7L241.9 288.8C241.6 288.8 241.2 288.9 240.9 288.9H241C240.7 288.9 241.4 288.9 241.1 288.9L240.6 288.8C240.4 288.8 240.2 288.7 240 288.7C239.8 288.7 240.4 288.9 239.9 288.7C239.4 288.5 239.2 288.4 238.8 288.2C238.4 288 238.9 288.3 239 288.3L238.7 288.1C238.5 288 238.3 287.8 238.1 287.7C237.2 287 235.9 287 235.2 287.9L235.1 288C234.6 289.2 235 290.5 236 291.2C238.9 293.6 242.8 294.1 246.2 292.6C249.3 291 251.8 288.4 253.4 285.3C255.1 282.4 256 279.1 255.9 275.7C255.7 271.4 252.2 268 247.9 267.8C244.8 267.7 241.6 269.6 239.5 271.7C238.7 272.6 238.7 274 239.6 274.9C240.2 275.4 241.8 276 242.7 275.1Z" fill="#000005"/>
<path d="M229.6 263.1C228.8 262.8 227.9 263.3 227.6 264.1C227.6 264.2 227.6 264.3 227.5 264.4C227.2 266.1 229.3 266.5 230.1 265.1C230.5 264.5 230.4 263.7 229.8 263.2C229.7 263.2 229.6 263.1 229.6 263.1Z" fill="#000005"/>
<path d="M92.0005 425.6L100.8 426.1C100.8 426.1 124.7 432.9 122.3 437.9C119.9 442.9 106.7 444.8 89.4005 444C72.1005 443.2 65.9005 437.5 72.4005 425.2L92.0005 425.6Z" fill="white"/>
<path d="M92.5997 427.8L100.1 428.2C100.5 428.2 100.9 428.3 101.3 428.3C101.5 428.3 100.5 428.1 101 428.3C101.5 428.5 102.4 428.7 103.1 428.9L104.8 429.4L105.2 429.5C105.8 429.7 104.7 429.3 105.4 429.6L106.5 430C108 430.5 109.5 431.1 111 431.7C112.5 432.3 114 432.9 115.4 433.6C116.1 433.9 116.7 434.3 117.4 434.6C117.6 434.7 117.7 434.8 117.9 434.9C117.4 434.6 118.3 435.1 117.9 434.9C118.2 435.1 118.6 435.3 118.9 435.5C119.2 435.7 119.3 435.8 119.5 436L119.8 436.3C120.2 436.6 119.5 436 119.7 436.2C119.8 436.4 120 436.5 120.1 436.7C120.4 437 119.9 436.2 120 436.6C120 436.7 120.1 436.8 120.2 436.9C120 436.7 120 436.4 120.1 436.7C120.2 437 120 436.9 120.1 436.5C119.8 436.4 120.6 436.3 120.1 436.5C120.1 436.6 120 436.7 119.9 436.8C119.7 437 119.5 437.3 119.3 437.5C119.1 437.7 119.7 437.2 119.2 437.5L119 438C118.8 438.2 118.5 438.3 118.3 438.5C117.7 438.9 117.1 439.2 116.4 439.5C114.7 440.2 112.9 440.7 111 441C105.8 441.9 100.6 442.2 95.3997 442.1C90.1997 442.1 84.7997 442 79.7997 440.7C78.8997 440.5 77.9997 440.2 77.0997 439.9C76.6997 439.7 76.2997 439.5 75.8997 439.3L75.2997 439C74.7997 438.7 75.5997 439.2 75.0997 438.9C74.5997 438.6 74.3997 438.4 74.0997 438.1C73.6997 437.8 73.9997 438 74.0997 438.1C73.9997 438 73.7997 437.8 73.6997 437.7C73.5997 437.6 73.4997 437.4 73.2997 437.3C72.8997 436.8 73.4997 437.7 73.1997 437.2C72.9997 436.9 72.7997 436.5 72.6997 436.2C72.8997 436.7 72.5997 435.7 72.4997 435.6C72.3997 435.5 72.3997 435.3 72.3997 435.1C72.2997 434.5 72.3997 435.5 72.3997 434.9C72.3997 434.1 72.3997 433.4 72.4997 432.6C72.8997 430.6 73.5997 428.6 74.5997 426.8L73.1997 427.5L92.5997 427.8C93.5997 427.9 94.3997 427.1 94.3997 426.1C94.3997 425.9 94.3997 425.8 94.2997 425.6C93.8997 424.4 92.7997 423.5 91.4997 423.5L71.9997 423.1C71.3997 423.1 70.8997 423.3 70.5997 423.8C68.7997 427.3 67.1997 431.3 67.9997 435.4C68.7997 439.1 71.6997 441.7 74.8997 443.3C79.2997 445.4 84.4997 446 89.2997 446.3C95.6997 446.7 102 446.6 108.4 446C112.7 445.5 117.4 444.8 121.3 442.6C123.8 441.1 125.9 438.6 124.3 435.6C122.7 432.8 119.3 431.2 116.5 429.9C113.3 428.4 110 427.1 106.6 426C104.6 425.3 102.4 424.3 100.2 424.1C97.2997 423.9 94.3997 423.8 91.4997 423.6C90.4997 423.6 89.7997 424.4 89.6997 425.3C89.6997 425.5 89.6997 425.7 89.7997 425.8C90.1997 426.9 91.2997 427.8 92.5997 427.8Z" fill="#000005"/>
<path d="M100.3 396.5C100.3 396.5 93.2998 419.4 94.3998 421.9C95.4998 424.4 112.7 429.7 110.1 430C108.1 430.2 103.6 434.2 88.4998 432.8C73.0998 431.4 73.7998 429.4 72.7998 426.3C71.7998 423.2 71.7998 392.4 71.7998 392.4L100.3 396.5Z" fill="white"/>
<path d="M97.8998 397C96.9998 400 96.0998 402.9 95.2998 405.9C93.8998 410.4 92.7998 415.1 91.9998 419.8C91.7998 420.9 91.4998 422.4 92.2998 423.3C93.4998 424.6 95.3998 425.3 96.8998 426C100.5 427.6 104.3 429 107.9 430.8C107.8 430.8 108.1 430.9 107.9 430.8C107.6 430.7 112.5 428.9 110.6 429.2C110.1 429.3 109.7 429.4 109.2 429.5C108.5 429.7 107.9 430 107.3 430.2L106.5 430.6L106 430.8C106.8 430.5 105.9 430.8 105.8 430.9C105.4 431 104.9 431.2 104.5 431.3L104.2 431.4C103.8 431.5 104.6 431.3 104.2 431.4L103.3 431.6C100.3 432.2 97.1998 432.4 94.0998 432.2C90.0998 432.1 86.0998 431.7 82.0998 430.9C80.2998 430.6 78.2998 430.2 76.8998 429.1C76.1998 428.5 75.6998 427.7 75.4998 426.8C74.8998 424 74.5998 421.2 74.5998 418.4C74.2998 409.7 74.1998 401.1 74.1998 392.4V391.8L70.2998 393.7L95.1998 397.3L98.6998 397.8C99.8998 397.9 101.1 397.5 102.1 396.8C102.9 396.2 102.7 395.7 101.7 395.6L76.6998 392L73.1998 391.5C72.1998 391.4 69.2998 392 69.2998 393.4C69.2998 401.4 69.3998 409.5 69.5998 417.5C69.6998 419.7 69.6998 421.8 69.8998 424C69.8998 425.2 70.0998 426.4 70.2998 427.5C70.4998 428.5 70.8998 429.5 71.4998 430.3C72.5998 431.4 73.9998 432.1 75.4998 432.4C78.7998 433.2 82.1998 433.8 85.5998 434C89.7998 434.5 93.9998 434.5 98.0998 434.2C100.8 433.9 103.5 433.4 106 432.6C106.9 432.3 107.8 432 108.7 431.6L109.5 431.3C110.2 431 109.1 431.4 109.6 431.2C109.9 431.1 108.8 431.4 109.3 431.3C108.5 431.4 109.1 431.4 109.5 431.3C110.5 431.2 111.5 430.7 112.2 430C112.6 429.4 112.4 429.1 111.9 428.8C110.3 427.9 108.6 427.1 106.8 426.6C104.5 425.7 102.2 424.8 99.9998 423.7C99.0998 423.3 98.2998 422.8 97.3998 422.3C96.8998 421.9 96.4998 421.7 96.3998 421.2C96.0998 419.9 96.5998 418.2 96.8998 416.8C97.3998 414.3 97.9998 411.9 98.5998 409.5C99.6998 405.3 100.9 401.1 102.1 397C102.2 396.8 102.3 396.5 102.3 396.2C103 394.9 98.2998 395.7 97.8998 397Z" fill="#000005"/>
<path d="M74.8999 427.9L83.6999 428.4C83.6999 428.4 107.6 435.3 105.2 440.2C102.8 445.1 89.5999 447.1 72.2999 446.3C54.9999 445.5 48.7999 439.8 55.2999 427.5L74.8999 427.9Z" fill="white"/>
<path d="M75.4999 428.6L83.0999 429.1C83.4999 429.1 83.8999 429.2 84.1999 429.2C84.4999 429.2 81.4999 428.6 82.5999 429C83.2999 429.2 84.0999 429.5 84.7999 429.7C87.5999 430.6 89.9999 431.4 92.7999 432.6C95.5999 433.6 98.2999 435 100.8 436.7C102.4 437.9 103.5 439.3 102 441C99.8999 443.4 96.1999 444.2 93.1999 444.8C88.0999 445.7 82.8999 446.1 77.6999 445.9C72.7999 445.9 67.6999 445.8 62.9999 444.5C59.9999 443.6 56.7999 442 55.6999 438.9C54.3999 435.3 56.0999 431.2 57.7999 428L55.8999 428.5L75.4999 428.6C75.8999 428.6 77.4999 428.7 77.2999 427.9C77.0999 427.1 74.7999 427.1 74.2999 427L54.7999 426.6C54.2999 426.6 53.1999 426.5 52.8999 427.1C51.2999 430.2 49.6999 434.1 50.6999 437.7C51.5999 440.9 54.3999 442.9 57.3999 444.1C62.2999 446.1 67.6999 446.6 72.8999 446.9C79.1999 447.3 85.5999 447.2 91.8999 446.5C96.1999 446 100.8 445.4 104.6 443.2C106.4 442.2 108.8 440.2 107.3 438C105.7 435.6 102.3 434.2 99.8999 433.1C96.6999 431.7 93.3999 430.4 89.9999 429.3C87.7999 428.4 85.4999 427.8 83.0999 427.5C80.1999 427.3 77.2999 427.2 74.2999 427C73.8999 427 72.1999 426.9 72.4999 427.7C72.7999 428.5 74.9999 428.6 75.4999 428.6Z" fill="#000005"/>
<path d="M83.2002 398.8C83.2002 398.8 76.2002 421.7 77.3002 424.2C78.4002 426.7 95.6002 432 93.0002 432.3C91.1002 432.5 86.5002 436.5 71.4002 435.1C56.0002 433.7 56.7002 431.8 55.7002 428.6C54.7002 425.4 54.7002 394.7 54.7002 394.7L83.2002 398.8Z" fill="white"/>
<path d="M80.7004 398.9C78.9004 404.8 77.2004 410.8 75.8004 416.9C75.4004 418.5 75.1004 420.1 74.8004 421.8C74.6004 422.8 74.5004 423.8 74.7004 424.8C75.1004 426 76.5004 426.7 77.5004 427.2C79.2004 428.1 80.9004 428.9 82.7004 429.6C84.7004 430.4 86.6004 431.2 88.6004 432L89.6004 432.4L90.0004 432.6C90.3004 432.7 89.8004 432.5 90.2004 432.7C90.4004 432.8 90.6004 433 90.8004 433.1C91.0004 433.2 90.7004 433.3 90.7004 433C90.7004 433.2 90.6004 432.3 90.8004 432.1L91.6004 431.4C92.0004 431.1 93.1004 430.9 92.2004 431.1C91.8004 431.2 91.3004 431.4 90.9004 431.5C90.2004 431.8 89.5004 432.1 88.7004 432.4C88.3004 432.6 87.8004 432.7 87.3004 432.9C86.8004 433.1 87.3004 432.9 87.4004 432.9L86.9004 433C86.6004 433.1 86.2004 433.2 85.8004 433.3C84.3004 433.7 82.7004 433.9 81.1004 434C76.3004 434.2 71.5004 433.9 66.7004 433.1C65.1004 432.9 63.5004 432.6 61.9004 432.2C61.4004 432.1 60.8004 431.9 60.3004 431.7L60.0004 431.6C60.1004 431.7 60.4004 431.8 60.0004 431.6C59.8004 431.5 59.6004 431.4 59.4004 431.3C59.3004 431.2 59.1004 431.1 59.0004 431C59.1004 431.1 59.1004 431.1 58.9004 430.9C58.7004 430.7 58.6004 430.4 58.4004 430.2C58.6004 430.6 58.3004 430 58.2004 429.8C58.1004 429.6 58.0004 429.2 58.0004 428.9C57.7004 427.5 57.5004 426.1 57.4004 424.7C57.0004 419 57.0004 413.2 56.9004 407.5C56.9004 403.1 56.8004 398.8 56.8004 394.5L53.4004 396.5L78.4004 400.1L81.9004 400.6C83.1004 400.8 84.4004 400.3 85.1004 399.3C85.7004 398.3 84.7004 397.7 83.8004 397.5L58.8004 393.9L55.3004 393.4C54.0004 393.2 51.9004 393.8 51.9004 395.4C51.9004 403.4 52.0004 411.5 52.2004 419.5C52.3004 421.7 52.3004 423.8 52.5004 426C52.5004 427.2 52.7004 428.3 52.9004 429.5C53.1004 430.6 53.5004 431.6 54.1004 432.5C55.2004 433.7 56.7004 434.6 58.3004 434.9C61.6004 435.8 64.9004 436.3 68.3004 436.6C72.5004 437.1 76.8004 437.2 81.1004 436.9C83.9004 436.7 86.6004 436.1 89.2004 435.3C90.5004 434.9 91.7004 434.5 92.9004 433.9C92.9004 433.9 92.2004 434.1 92.8004 433.9C93.6004 433.8 94.4004 433.3 95.0004 432.7C95.5004 431.9 95.1004 431.3 94.4004 430.9C92.8004 430 91.1004 429.2 89.3004 428.6C87.1004 427.7 84.7004 426.7 82.6004 425.8C81.7004 425.4 80.8004 424.9 80.0004 424.4L79.5004 424.1C79.2004 423.9 79.5004 424.1 79.3004 424C79.2004 423.9 79.2004 423.8 79.1004 423.7C78.9004 423.5 79.1004 424 79.1004 423.7C79.1004 423.5 79.1004 423.3 79.0004 423.2C79.0004 423.4 79.0004 423 79.0004 422.9L79.1004 422.3C79.2004 421.4 79.4004 420.4 79.6004 419.5C80.1004 417 80.7004 414.6 81.3004 412.2C82.4004 408 83.6004 403.8 84.8004 399.7C84.9004 399.5 85.0004 399.2 85.0004 399C86.2004 396.7 81.3004 397.1 80.7004 398.9Z" fill="#000005"/>
<path d="M127.8 406.5C127.8 406.5 112 283.8 120.8 260.4C124.4 250.5 80 231.2 80 231.2C80 231.2 57.8 254 51.4 295.5C45 337 41.5 413.5 41.5 413.5C41.5 413.5 100.4 428.2 127.8 406.5Z" fill="white"/>
<path d="M129.9 407.3C129.6 405.2 129.4 403.1 129.1 401C128.4 395.5 127.8 389.9 127.2 384.4C126.3 376.5 125.5 368.7 124.7 360.8C123.8 351.8 123 342.7 122.3 333.7C121.6 324.6 121 315.5 120.6 306.4C120.3 298.4 120.1 290.5 120.3 282.5C120.3 276.7 120.8 270.8 121.9 265.1C122.3 263.2 123.4 261.2 123 259.2C122.5 256.4 120.2 253.9 118.2 252C112.2 246.4 104.8 242.2 97.6001 238.3C92.1001 235.3 86.4001 232.5 80.6001 230L79.7001 229.6C79.2001 229.3 78.5001 229.3 78.1001 229.7C73.1001 234.8 69.2001 241.1 65.7001 247.2C57.2001 262.3 51.6001 278.9 49.2001 296.1C46.9001 311.6 45.4001 327.3 44.1001 342.9C42.8001 358.1 41.7001 373.2 40.8001 388.4C40.3001 396.2 39.8001 404.1 39.5001 411.9C39.5001 412 39.5001 412.1 39.5001 412.2C39.4001 413.7 41.2001 414.9 42.4001 415.2C49.6001 416.9 56.9001 418.2 64.3001 419C78.8001 420.6 93.7001 421 108 417.8C115.9 416 123.5 413 129.8 408C131 407.1 127.4 403.7 125.9 404.9C114.6 413.8 99.2001 416.1 85.2001 416.5C72.8001 416.7 60.4001 415.6 48.2001 413.3C45.7001 412.8 43.2001 412.3 40.8001 411.7L43.7001 414.7C44.0001 408.3 44.4001 401.8 44.7001 395.4C45.6001 380.7 46.5001 366.1 47.7001 351.5C49.0001 335.6 50.4001 319.7 52.5001 304C53.6001 295.1 55.4001 286.3 57.9001 277.6C60.3001 269.7 63.4001 262 67.2001 254.6C69.9001 249.3 73.0001 244.3 76.5001 239.5C78.2001 237.2 80.1001 235.2 81.7001 233C81.8001 232.9 81.9001 232.8 82.0001 232.7L80.4001 232.8C81.6001 233.3 82.7001 233.8 83.9001 234.4C85.1001 235 86.5001 235.6 87.8001 236.2L90.1001 237.3L91.3001 237.9C91.7001 238.1 91.1001 237.8 91.5001 238L92.2001 238.4C95.8001 240.2 99.4001 242.2 103 244.2C104.8 245.2 106.6 246.3 108.3 247.4C110.1 248.6 111 249.1 112.7 250.5C113.4 251 114.1 251.6 114.8 252.2C115 252.3 115.8 253.1 115.4 252.7C115.7 253 116.1 253.3 116.4 253.6C116.7 253.9 116.9 254.1 117.1 254.4C117.2 254.5 117.3 254.6 117.4 254.8L117.6 255C117.8 255.2 117.3 254.7 117.5 254.9C117.7 255.1 117.9 255.4 118.1 255.7C118.3 256 118.3 255.9 118.3 256.1C118.6 256.5 118.2 255.9 118.3 256.2C118.4 256.5 118.5 256.7 118.7 256.9C118.8 257 118.8 257.1 118.8 257.3C118.7 257 118.8 257.2 118.8 257.4C118.8 257.6 118.9 257.8 118.9 258.1C118.9 258.1 118.9 258.4 118.9 258.5C118.7 259.4 118.5 260.3 118.1 261.1C116.7 266.2 116.4 271.7 116.2 277C115.9 284.6 116 292.3 116.3 300C116.6 308.9 117.1 317.8 117.8 326.7C118.5 335.8 119.2 344.8 120.1 353.9C120.9 362 121.7 370.1 122.6 378.2C123.3 384.3 124 390.4 124.7 396.5C125 399.5 125.3 402.5 125.8 405.5C125.8 405.6 125.8 405.8 125.8 405.9C125.9 407 127.2 408 128.2 408.4C128.9 408.4 130 408.4 129.9 407.3Z" fill="#000005"/>
<path d="M72.5001 275.1L63.6001 264.2C63.6001 264.2 55.4001 277 56.0001 279.1C56.6001 281.2 64.2001 290.6 64.2001 290.6C64.2001 290.6 70.6001 284 72.5001 275.1Z" fill="white"/>
<path d="M74.9004 274.7L66.0004 263.8C65.2004 262.8 61.9004 262.9 61.2004 264.1C58.9004 267.6 56.8004 271.3 54.9004 275.1C54.2004 276.5 53.1004 278.3 53.8004 279.9C54.9004 282.1 56.3004 284.2 57.9004 286C59.2004 287.7 60.5004 289.3 61.8004 291C62.6004 292 65.5004 291.8 66.4004 291C70.7004 286.6 73.8004 281 75.1004 275C75.3004 274 70.4004 273.7 70.1004 275.3C69.2004 279.2 67.6004 282.9 65.3004 286.2C64.6004 287.3 63.8004 288.3 62.9004 289.3C62.7004 289.6 62.4004 289.9 62.1004 290.2C61.8004 290.5 61.7004 290.6 62.0004 290.3H66.6004C63.8004 287.1 61.3004 283.7 59.0004 280C58.2004 278.6 58.8004 277.4 59.5004 275.9C60.6004 273.5 62.0004 271.2 63.3004 268.9C64.2004 267.4 65.1004 265.9 66.1004 264.4L61.3004 264.7L70.2004 275.6C70.8004 276.4 72.4004 276.2 73.3004 276.1C73.6004 275.9 75.5004 275.4 74.9004 274.7Z" fill="#000005"/>
<path d="M34.1002 243.5C34.1002 243.5 51.2002 204.2 102.2 183C118.9 176 127.5 177.2 130.8 178.2C131.8 178.2 132.8 178.4 133.8 178.6C168.3 185.5 122.7 279.5 122.7 279.5C102.2 283.5 80.9002 277.8 65.2002 264L66.3002 267.1C66.3002 267.1 55.4002 285 53.4002 285.4C51.4002 285.8 27.7002 262.3 34.1002 243.5Z" fill="#000005"/>
<path d="M36.6001 243.2C37.9001 240.4 39.3001 237.7 41.0001 235.1C45.3001 228.2 50.4001 221.8 56.0001 215.9C64.2001 207.2 73.6001 199.6 83.8001 193.4C90.0001 189.6 96.4001 186.3 103.1 183.4C106.7 181.8 110.5 180.4 114.3 179.3C115.7 178.9 117.1 178.6 118.5 178.3C119.4 178.1 120.2 178 121.1 177.9C122.7 177.7 124.4 177.8 126 178C126.6 178.1 127.2 178.2 127.8 178.3C128.9 178.6 130 178.6 131.1 178.8C133.9 179.2 136.6 180.5 138.7 182.5C143 186.7 144.1 193.1 144.3 198.9C144.5 206.8 143.1 214.8 141.3 222.5C139.2 231 136.7 239.3 133.7 247.6C131.2 254.6 128.4 261.6 125.5 268.4C123.9 272.1 122.3 275.7 120.6 279.3L120.4 279.8L122.2 279.3C106 282.2 89.0001 278.2 75.3001 269.3C72.7001 267.6 70.2001 265.7 67.8001 263.7C67.3001 263.2 62.8001 264.3 62.8001 264.4C63.2001 265.3 63.6001 266.3 63.8001 267.3C63.8001 267.6 63.7001 267.7 63.5001 268C62.5001 269.7 61.4001 271.3 60.4001 273C58.9001 275.3 57.4001 277.7 55.8001 280C54.6001 281.9 53.3001 283.6 51.8001 285.2C51.6001 285.4 51.4001 285.5 51.2001 285.7C51.3001 285.6 57.0001 286 55.4001 285C54.9001 284.7 54.5001 284.4 54.0001 284.1C52.4001 282.8 51.0001 281.4 49.6001 279.9C45.4001 275.4 41.9001 270.3 39.2001 264.8C36.1001 258.1 34.2001 250.4 36.6001 243.2C35.8001 243.2 34.9001 243.2 34.1001 243.3C33.7001 243.4 31.8001 243.4 31.7001 243.9C29.5001 250.6 31.0001 257.7 33.8001 264C36.6001 270 40.2001 275.5 44.7001 280.3C46.1001 281.9 47.7001 283.4 49.3001 284.7C49.7001 285.1 50.2001 285.4 50.7001 285.6C52.0001 286.1 54.0001 285.6 55.3001 285.2C56.9001 284.8 58.0001 283 58.9001 281.8C60.6001 279.5 62.2001 277.1 63.7001 274.8C65.2001 272.5 66.6001 270.2 68.1001 267.9C68.3001 267.6 68.8001 267 68.8001 266.7C68.7001 266.2 68.5001 265.6 68.3001 265.2L67.8001 263.7L62.8001 264.4C72.7001 272.9 84.7001 278.5 97.6001 280.5C101.8 281.1 106.1 281.3 110.3 281.2C112.8 281.1 115.2 280.9 117.6 280.6C118.9 280.4 120.3 280.2 121.6 280C122.1 279.9 122.7 279.8 123.2 279.7C123.9 279.7 124.5 279.5 125.1 279.2C125.3 279 125.4 278.7 125.5 278.4C125.8 277.7 126.2 277 126.5 276.3C129.4 270 132.1 263.7 134.6 257.3C138.4 247.8 141.7 238.1 144.4 228.3C147 219 149.1 209.2 149.1 199.5C149.1 192.7 147.8 184.6 141.8 180.5C140.4 179.6 139 178.9 137.4 178.5C136 178.1 134.5 178.1 133 177.8C132.4 177.7 131.7 177.5 131.1 177.4C125.4 176.5 119.3 177.5 113.7 178.8C105 180.8 96.6001 184.5 88.7001 188.6C81.5001 192.3 74.6001 196.6 68.1001 201.5C58.2001 208.9 49.4001 217.7 41.9001 227.5C38.1001 232.4 34.7001 237.7 31.9001 243.3C31.8001 243.5 31.7001 243.8 31.5001 244.1C32.3001 244.1 33.2001 244.1 34.0001 244C34.6001 243.7 36.4001 243.7 36.6001 243.2Z" fill="#000005"/>
<path d="M64.4002 294.1C66.2002 293.4 67.6002 291.5 68.6002 289.9C69.7002 288.1 70.7002 286.3 71.5002 284.3C73.3002 280.1 74.9002 275.7 76.6002 271.4C77.0002 270.5 72.6002 268.3 72.5002 268.6C70.8002 272.9 69.3002 277.3 67.4002 281.5C66.6002 283.4 65.7002 285.2 64.6002 287C63.5002 288.6 62.2002 290.6 60.3002 291.3C60.0002 291.4 62.0002 293 62.1002 293.1C62.6002 293.5 63.7002 294.4 64.4002 294.1Z" fill="#000005"/>
<path d="M83.9996 212.6C76.0996 224.6 70.4996 238 67.2996 252C66.9996 253.5 70.8996 256.4 71.1996 254.9C74.2996 241.1 79.7996 227.9 87.4996 216C88.4996 214.6 84.6996 211.4 83.9996 212.6Z" fill="white"/>
<path d="M171.4 157.1C167.2 154.5 161 135.5 161 135.5C158 150.3 140.5 159.6 140.5 159.6C140.1 150.8 124.6 149.7 122.3 157.2C121 161.7 121.5 166.6 123.9 170.7C123.9 170.7 123.6 182.5 121.7 187.4C121.5 187.8 121.4 188.2 121.3 188.6C121.3 188.6 135.1 196.9 143.9 194.5C143.9 194.5 153.5 196.1 161.2 192.5C170.1 188.3 171.2 168.9 171.3 160.7C171.5 158.6 171.4 157.1 171.4 157.1Z" fill="white"/>
<path d="M170.3 155C170.1 154.8 169.8 154.7 169.6 154.4C169.5 154.3 169.4 154.2 169.3 154C169 153.7 169.4 154.2 169.1 153.8L168.9 153.5C169 153.7 169 153.7 168.9 153.5C168.6 153 169.1 153.8 168.8 153.3C168.8 153.2 168.4 152.6 168.5 152.8L168.2 152.2C167.2 150.3 166.3 148.1 165.4 145.9C164.3 143 163.1 140 162.3 137.4C161.9 136.4 161.5 135.5 160.9 134.6C160.8 134.4 159.9 133.1 159.8 133.6C157.8 143.4 149.7 151.1 141.6 156.3C140.9 156.8 140.1 157.2 139.4 157.6L141.9 161.8C141.5 158.3 139.8 155.1 137.2 152.8C135.1 151.1 132.6 150.2 129.9 150.2C127.3 150 124.8 150.9 122.8 152.5C120.3 154.9 120.1 159.3 120.5 162.5C121 165.7 122.2 168.9 124 171.6L122.7 168.8C122.7 171.2 122.5 173.6 122.3 175.9C122.1 177.8 121.9 179.7 121.6 181.5C121.3 183.3 120.5 184.9 120.2 186.6C120.1 187.2 120.9 188.4 121.2 188.8C121.5 189.6 122 190.3 122.6 190.8C126.1 192.9 129.9 194.6 133.8 195.8C136.7 196.8 139.7 197.2 142.8 197.2C143.7 197 144.7 196.9 145.6 196.8C146.4 196.8 147.3 197 148.1 197C151.5 197.2 154.8 197 158.1 196.3C161.1 195.6 164 194.5 166 192.2C169.6 188.1 170.9 182.1 171.8 176.8C172.7 171 173 165.1 172.8 159.2C172.6 158.2 172.1 157.2 171.5 156.4C171.4 156.2 170.2 154.8 170.2 155.1C170.4 160.1 170.2 165.1 169.5 170.1C168.8 175.7 167.7 181.7 164.5 186.4C160.9 191.7 153.8 192.8 147.8 192.7C146.6 192.7 145.4 192.6 144.2 192.5C143.7 192.4 143.1 192.4 142.6 192.4C139.6 192.9 136.5 192.7 133.6 192C128.9 190.8 124.5 188.9 120.4 186.5L122.8 190.7C123 189.8 123.4 188.8 123.7 187.9C124 187 124.2 185.9 124.3 184.8C124.6 182.6 124.9 180.5 125 178.3C125.1 176.7 125.2 175.2 125.3 173.6C125.3 173.4 125.3 173.1 125.3 172.8C125.1 172 124.8 171.2 124.3 170.6C124.2 170.4 124.1 170.2 124 170C123.9 169.8 124.4 170.7 124.2 170.3C124 169.9 124.4 170.6 124.4 170.6C124.2 170.3 124.2 170.1 124.1 169.9C123.7 168.9 123.4 167.9 123.3 166.8C122.8 164 123 161.2 124.1 158.6C125.5 155.6 129 154.5 132 154.4C133.9 154.4 135.8 154.8 137.5 155.6C138.3 156 139 156.6 139.6 157.1C139.9 157.3 139.7 157.3 139.7 157.2C139.7 157.3 139 155 139.1 156.1C139.2 156.6 139.3 157 139.3 157.5C139.3 158 141.2 162 141.8 161.7C148.6 158.1 154.4 152.8 158.6 146.4C160.4 143.7 161.6 140.6 162.3 137.4L159.8 133.6C162.1 140.7 164.8 147.8 168.6 154.2C169.6 155.9 170.8 158 172.6 159.1C173 159.3 172.2 157.5 172.1 157.4C171.7 156.6 171.1 155.7 170.3 155Z" fill="#000005"/>
<path d="M139.401 172C139.401 172 135.601 177.4 141.601 179.2L139.401 172Z" fill="white"/>
<path d="M138.101 170.7C137.601 171.4 137.201 172.2 137.001 173.1C136.301 175.1 136.801 177.2 138.101 178.8C139.001 179.8 140.201 180.5 141.501 180.9C142.101 181.1 142.901 180.8 143.101 180.2C143.101 180.1 143.201 179.9 143.201 179.8C143.201 178.8 142.601 177.9 141.701 177.6C141.401 177.5 141.201 177.4 141.001 177.4C140.901 177.4 140.501 177.2 140.801 177.3C141.101 177.4 140.701 177.2 140.601 177.2L140.101 176.9C139.901 176.8 140.501 177.2 140.201 177L140.001 176.8C139.701 176.5 140.101 177 140.101 176.9C140.101 176.8 140.001 176.7 140.001 176.7C140.001 176.6 139.901 176.6 139.901 176.5C139.901 176.5 140.101 176.9 140.101 176.8C140.101 176.8 140.101 176.7 140.001 176.7C140.001 176.6 139.901 176.6 139.901 176.5C139.801 176.2 140.001 176.8 139.901 176.7C139.801 176.6 139.801 176.4 139.801 176.2C139.801 176 139.801 176.5 139.801 176.4V176C139.801 175.8 139.801 175.7 139.801 175.5C139.801 175.4 139.801 175.4 139.801 175.3C139.901 175 139.701 175.7 139.801 175.4C139.901 175.2 139.901 175.1 140.001 174.9C140.101 174.6 140.201 174.4 140.301 174.1L140.401 173.8C140.401 173.7 140.601 173.3 140.501 173.6C140.401 173.9 140.501 173.6 140.601 173.5L140.701 173.3L140.801 173.1C141.301 172.3 141.101 171.2 140.401 170.6C139.801 170.3 138.701 169.9 138.101 170.7Z" fill="#000005"/>
<path d="M161.9 170.3C163.7 173.3 166 176 168.6 178.4C177.2 186.5 176.1 190.6 171.9 190.5C167.7 190.4 155.4 180.2 155.4 180.2" fill="white"/>
<path d="M159.5 170.8C161.4 173.9 163.7 176.8 166.4 179.2C168.2 180.8 169.9 182.7 171.3 184.7C172 185.7 172.5 186.9 172.6 188.2C172.6 188.3 172.6 188.4 172.6 188.6C172.7 188.2 172.6 188.6 172.6 188.7C172.6 188.8 172.2 189.3 172.5 189C172.4 189.1 172.4 189.2 172.3 189.2C172 189.4 172.6 189 172.4 189.1C171.9 189.3 172.8 189 172.2 189.2C173.1 188.9 171.4 189.1 172.5 189.2C172.4 189.2 172.2 189.2 172.1 189.2C171.6 189.2 172.7 189.2 172.3 189.2C171.6 189.2 172.7 189.3 172.1 189.1C171.9 189 171 188.7 171.5 188.9C168.6 187.6 165.8 185.9 163.3 183.9C161.4 182.5 159.5 181 157.6 179.5C156.6 178.8 155.3 178.6 154.1 179.1C153.3 179.4 152.3 180.3 153.3 181C155 182.4 156.8 183.8 158.6 185.2C161.5 187.5 164.7 189.5 168 191.1C170.7 192.2 175.4 192.8 177.2 189.8C179 186.8 175.6 182.9 173.9 180.9C170.7 177.3 166.8 174.3 164.4 170C163.4 168.3 158.5 169 159.5 170.8Z" fill="#000005"/>
<path d="M151.9 163.3C152.7 163.7 153.1 164.6 152.8 165.4C152.8 165.5 152.7 165.5 152.7 165.6C151.8 167.1 149.9 166 150.3 164.4C150.4 163.6 151.1 163.1 151.8 163.2C151.8 163.3 151.8 163.3 151.9 163.3Z" fill="#000005"/>
<path d="M164.1 166.7C164.9 167 165.3 168 165 168.8C165 168.9 164.9 169 164.9 169C164 170.5 162.1 169.4 162.5 167.8C162.6 167.1 163.2 166.5 164 166.6L164.1 166.7Z" fill="#000005"/>
<path d="M91.5003 160.7C91.5003 160.7 55.7003 155.7 53.5003 171.2C51.3003 186.7 65.8003 193.6 84.8003 180.8C103.8 168 95.8003 161.5 91.5003 160.7Z" fill="#E987D0"/>
<path d="M89.8004 159.1C84.6004 158.4 79.4004 158.2 74.2004 158.4C70.1004 158.5 66.0004 159.1 62.0004 160.1C58.7004 161.1 55.2004 162.6 53.1004 165.5C50.7004 168.9 50.8004 174 52.0004 177.7C53.8004 182.5 57.6004 186.2 62.3004 188.1C67.3004 190 72.9004 189 77.7004 187.1C81.3004 185.6 84.6004 183.8 87.8004 181.5C90.6004 179.6 93.1004 177.4 95.4004 175C97.4004 172.6 99.6004 169.3 98.4004 166C97.3004 163.1 94.1004 160.5 91.2004 159.4C90.7004 159.3 90.3004 159.1 89.8004 159.1C89.2004 159 90.7004 160.6 90.7004 160.7C91.4004 161.5 92.2004 162.1 93.2004 162.5C93.5004 162.6 93.9004 162.6 94.2004 162.8C94.4004 162.9 94.6004 163 94.8004 163.1C94.6004 163 95.2004 163.4 94.9004 163.2C95.3004 163.5 94.5004 162.8 94.8004 163.1C93.8004 162.2 95.0004 163.3 94.4004 162.8C93.8004 162.3 94.9004 163.3 94.1004 162.5C93.8004 162.1 94.4004 162.8 94.1004 162.5C94.1004 162.6 94.4004 162.9 94.2004 162.6C94.3004 162.7 94.3004 162.8 94.4004 162.9C94.5004 163.1 94.6004 163.4 94.7004 163.6C95.7004 166.6 93.6004 169.7 91.7004 171.8C89.6004 174.1 87.3004 176.1 84.8004 177.9C82.0004 180 79.0004 181.8 75.8004 183.3C71.2004 185.4 65.9004 186.8 60.8004 185.6C59.9004 185.4 59.0004 185 58.2004 184.6C58.0004 184.5 57.8004 184.3 57.6004 184.2C57.2004 184 57.8004 184.3 57.6004 184.2C58.0004 184.4 57.5004 184 57.7004 184.3C57.9004 184.6 57.5004 184.1 57.5004 184.1C56.4004 182.6 55.6004 180.8 55.3004 179C54.7004 175.4 55.0004 171.3 57.4004 168.4C59.5004 165.9 62.7004 164.5 65.9004 163.6C69.5004 162.6 73.3004 162.1 77.0004 162C82.4004 161.7 87.8004 162 93.2004 162.7C93.8004 162.8 92.3004 161.2 92.3004 161.1C91.6004 160 90.8004 159.4 89.8004 159.1Z" fill="#E987D0"/>
<path d="M99.7998 160.3C99.7998 160.3 104.4 165 101.3 170.4L99.7998 160.3Z" fill="white"/>
<path d="M100.1 161.6L99.8998 161.4C99.8998 161.4 99.9998 161.5 100.1 161.6C100.1 161.6 100.2 161.7 100.2 161.8C99.9998 161.5 100.5 162.2 100.2 161.8L100.5 162.2C100.7 162.5 100.2 161.8 100.4 162.1L100.6 162.3C100.6 162.4 100.7 162.5 100.7 162.6C100.6 162.5 100.5 162.2 100.7 162.5L100.8 162.8C100.7 162.4 100.9 163.1 100.8 162.8L100.9 163.1C100.9 163.1 101 163.5 100.9 163.2C101 163.4 101 163.7 101.1 163.9C101.2 164.4 101.2 164.8 101.2 165.3C101.2 166.6 100.8 167.8 100.2 168.9C100.1 169.1 100.3 169.6 100.4 169.8C100.6 170.3 100.8 170.7 101.1 171.1C101.3 171.3 102.1 172.4 102.3 171.9C103.6 169.4 103.7 166.4 102.5 163.8C101.8 162 100.7 160.4 99.3998 159C99.2998 158.9 98.9998 158.6 98.7998 158.7C98.5998 158.8 98.6998 159.2 98.6998 159.4C98.9998 160.2 99.4998 161 100.1 161.6Z" fill="#000005"/>
<path d="M153.9 127C123.6 116 85.6002 173.8 117.3 186.1C118.7 186.7 120.2 187.1 121.7 187.5C123.6 182.6 130.7 170.1 130.7 170.1C130.7 170.1 123.8 166.9 126.1 159.4C128.4 151.9 139.8 153.5 140.2 162.2C140.2 162.2 158.4 162.1 161.3 147.3C161.3 147.3 167.2 154.5 171.4 157.1C171.4 157.1 171.5 158.5 171.4 160.7V160.6C171.4 160.8 184.3 138 153.9 127Z" fill="#E987D0"/>
<path d="M154.9 125.3C140.9 120.3 126.4 128 116.9 138.2C111.9 143.4 108 149.5 105.4 156.2C103.2 162 102 168.5 103.7 174.6C106 182.7 113 187.2 120.9 189.3C121.9 189.5 123.7 189.7 124.1 188.4C126.5 182.4 129.9 176.6 133.1 171C133.7 169.9 132.7 168.9 131.7 168.4C132.7 168.8 131.8 168.4 131.4 168.2C131 168 130.9 167.9 130.6 167.7C131 168 130.6 167.7 130.4 167.5C130.2 167.3 130.1 167.2 129.9 167C129.3 166.4 128.8 165.6 128.5 164.8C128.1 163.8 128 162.7 128.2 161.6C128.3 160.5 128.7 159.4 129.3 158.4C129.7 157.8 130.4 157.3 131.1 156.9C131.7 156.7 132.3 156.6 132.9 156.5C132.7 156.5 134.2 156.7 133.7 156.6C133.9 156.7 134.1 156.7 134.3 156.8L134.6 156.9C134.3 156.7 135 157 134.6 156.9C135.4 157.3 136.1 157.9 136.6 158.7C137.2 159.8 137.6 161 137.6 162.3C137.7 163.6 139.5 164.1 140.4 164.1C147.2 164.1 154.9 161.4 159.4 156.3C161.5 153.9 163 150.9 163.6 147.7L159.2 148.4C162.2 152.1 165.7 156 169.8 158.5L168.8 157.2C168.8 158.2 168.8 159.3 168.8 160.3C168.8 162.6 172.4 163.5 173.6 161.5C175.1 158.7 176 155.7 176.3 152.5C177 145.8 174.7 139.2 170 134.4C165.8 130.1 160.3 127.2 154.6 125.2C153.6 124.8 152 124.9 151.4 126C150.8 127.1 151.8 128.2 152.8 128.6C157.3 130.3 161.8 132.4 165.3 135.8C168.8 138.9 171 143.2 171.4 147.9C171.5 149.1 171.5 150.2 171.4 151.4C171.3 152.5 171.1 153.7 170.8 154.8C170.7 155.3 170.6 155.8 170.4 156.3L170.2 156.9C170.1 157.3 170.3 156.6 170.2 156.8L170.1 157.2C169.8 158.2 169.4 159.1 168.9 160L173.7 161.2C173.7 159.5 174.3 156.9 172.7 155.8C171.2 154.7 169.8 153.6 168.5 152.3C166.6 150.4 164.8 148.5 163.1 146.4C162 145.1 159.1 145.2 158.7 147.1C157.8 151.5 155 155.3 151 157.5C149.4 158.4 147.7 159.1 145.9 159.5C145.1 159.7 144.3 159.9 143.5 160.1L142.9 160.2C143.2 160.2 143.3 160.1 142.9 160.2C142.6 160.2 142.2 160.3 141.9 160.3C141.2 160.4 140.5 160.4 139.8 160.5L142.7 162.3C142.2 156.6 137.2 152.5 131.5 153C131 153 130.5 153.1 130 153.3C123.7 154.9 121.5 162.9 125.2 168C126.5 169.7 128.1 171.1 130.1 172L128.7 169.4C125.5 175 122.1 180.8 119.7 186.8L122.9 185.9C121.4 185.5 119.9 185 118.5 184.5C117.8 184.2 116.9 183.8 116.6 183.6C116 183.3 115.4 182.9 114.8 182.5C114.5 182.3 114.2 182.1 113.9 181.9C113.9 181.9 113.4 181.5 113.6 181.7L113.2 181.3C112.7 180.9 112.3 180.5 111.9 180C111.7 179.8 111.5 179.5 111.3 179.3C111.3 179.3 110.9 178.7 111.1 179.1L110.8 178.6C110.5 178.1 110.2 177.6 109.9 177C109.8 176.8 109.6 176.5 109.5 176.2L109.3 175.7C109.3 175.6 109.1 175.1 109.2 175.5C107.2 170.2 108 164.6 109.7 159.2C113.6 147.2 123.2 135.9 134.6 130.4C136.1 129.6 137.7 129 139.3 128.6C140.1 128.4 140.9 128.2 141.7 128L142.3 127.9C142.4 127.9 143.2 127.8 142.7 127.8L143.8 127.7C144.7 127.6 145.6 127.5 146.5 127.5C146.7 127.5 147.7 127.5 147.2 127.5C147.7 127.5 148.1 127.5 148.6 127.6C149.4 127.7 150.2 127.8 151 128C151.1 128 151.8 128.2 151.2 128.1L151.9 128.3C152.3 128.4 152.8 128.6 153.2 128.7C154.3 129.1 155.8 129 156.4 127.9C157 126.8 155.9 125.6 154.9 125.3Z" fill="#E987D0"/>
<path d="M157.8 146.9C155.4 147.4 153.2 148.4 150.9 149.1C146.2 150.4 141.2 150.4 136.5 149.1C134.7 148.6 132.8 147.9 131.7 146.3C130.4 144.3 127.9 146.1 129.2 148.1C132 152.4 138.2 153.4 143 153.6C145.7 153.7 148.4 153.5 151.1 152.9C153.9 152.3 156.5 151 159.4 150.4C161.2 149.9 159.7 146.5 157.8 146.9Z" fill="#000005"/>
<path d="M154.9 135.8C150.9 135.4 147 136 143 135.9C141.1 135.9 139.2 135.5 137.4 134.9C136.2 134.4 134.7 133.6 134.4 132.2C134.2 131.3 133.5 130.6 132.5 130.5C131.8 130.4 130.6 130.9 130.7 131.8C131.5 136.4 136.6 138.1 140.7 138.6C145.4 139.2 150.2 138.3 154.9 138.7C155.7 138.8 156.7 138.3 156.7 137.4C156.7 136.5 155.7 135.8 154.9 135.8Z" fill="#000005"/>
<path d="M241.6 185.8L240.7 86.9995H324.3V185.8H241.6Z" fill="white"/>
<path d="M242.7 187.6L242.6 177.7L242.4 154.2L242.1 125.7L242 101L241.9 92.8997C242 91.5997 242 90.2997 241.9 89.0997C241.9 88.9997 241.9 88.9997 241.9 88.8997L241.8 89.2997H325.4L323.1 85.1997V180C323 181.3 323 182.6 323.1 183.8C323.1 183.9 323.1 183.9 323.1 184L323.2 183.6H240.4C239.9 183.6 240.9 185.9 241 186.1C241.3 186.6 241.9 188.1 242.6 188.1H325.4C325.5 188 325.6 187.8 325.5 187.7V101C325.5 96.9997 325.7 92.9997 325.5 88.9997V88.7997C325.4 87.7997 325 86.8997 324.5 86.0997C324.3 85.6997 323.8 84.6997 323.2 84.6997H239.6C239.5 84.7997 239.4 84.9997 239.5 85.0997L239.6 94.9997L239.8 118.5L240 147L240.2 171.7C240.2 175.7 240.1 179.7 240.3 183.7C240.3 183.8 240.3 183.8 240.3 183.9C240.4 185.1 240.9 186.1 241.6 187.1C241.9 187.5 242.7 188.6 242.7 187.6Z" fill="#000005"/>
<path d="M324.3 86.9995H240.7V96.8995H324.3V86.9995Z" fill="#000005"/>
<path d="M321.8 87.2998V97.1998L324.1 94.7998H240.5L243.2 96.7998V86.7998L240.9 89.1998H324.5C325.8 89.0998 326.8 88.0998 326.8 86.7998C326.6 85.4998 325.4 84.5998 324.1 84.7998H240.5C239.2 84.8998 238.2 85.8998 238.2 87.1998V97.0998C238.2 98.4998 239.8 99.0998 240.9 99.0998H324.5C325.8 98.9998 326.8 97.9998 326.8 96.6998V86.6998C326.8 83.8998 321.8 84.3998 321.8 87.2998Z" fill="#000005"/>
<path d="M314.101 89.8999C314.801 89.9999 315.501 90.2999 316.101 90.5999C316.701 90.8999 317.201 91.2999 317.701 91.7999C318.201 92.1999 318.601 92.6999 319.001 93.2999C319.401 93.8999 319.701 94.4999 319.901 95.1999C319.201 95.0999 318.501 94.7999 317.901 94.4999C316.701 93.8999 315.701 92.9999 315.001 91.8999C314.601 91.1999 314.301 90.4999 314.101 89.8999Z" fill="white"/>
<path d="M314.5 95.0999C314.6 94.3999 314.8 93.7999 315.2 93.1999C315.5 92.5999 315.9 92.0999 316.3 91.5999C316.7 91.0999 317.2 90.6999 317.7 90.2999C318.3 89.8999 318.9 89.5999 319.5 89.3999C319.4 90.0999 319.2 90.6999 318.8 91.2999C318.5 91.8999 318.1 92.3999 317.7 92.8999C317.3 93.3999 316.8 93.7999 316.3 94.1999C315.8 94.6999 315.2 94.8999 314.5 95.0999Z" fill="white"/>
<path d="M260.701 127.8L252.3 138.7C251.8 139.4 250.8 140.4 251.5 141.2C252.3 141.9 253.1 142.5 254.1 143.1L259.701 147C260.801 147.8 264.8 144.9 263.5 144L259.4 141.1L257.4 139.7C256.9 139.3 255.8 138.8 255.6 138.2V138.8C255.8 138.4 256.1 138 256.5 137.6L257.701 136L260 133L264.6 127.1C265.2 126.3 264.8 125.8 263.9 125.9C262.5 126.2 261.501 126.8 260.701 127.8Z" fill="#E987D0"/>
<path d="M273.6 127.4C273.6 132.4 273.6 137.4 273.6 142.4C273.6 144.4 273.6 146.7 272.2 148.2C271.8 148.6 271.4 148.8 270.9 149C270.2 149.2 270.7 149.2 272.2 149.1C273.8 149.3 274.2 149.2 273.5 149.1C273.2 149 273 148.9 272.7 148.8C271.7 148.3 270.8 147.6 270 146.7C269.5 146.2 268.1 146.4 267.5 146.4C266.9 146.4 266.3 146.4 265.7 146.5C265.4 146.5 265.2 146.6 265 146.7C265.8 147.6 266.8 148.3 267.8 148.9C269.2 149.5 270.6 149.7 272.1 149.7C273.5 149.7 275.1 149.8 276.3 149.1C277.2 148.5 277.9 147.5 278.2 146.4C278.5 144.9 278.6 143.4 278.5 141.9V137.2V127.6C278.6 127.1 273.6 127.1 273.6 127.4Z" fill="#E987D0"/>
<path d="M300.201 129.2C301.701 130.9 303.101 132.6 304.401 134.4C305.101 135.3 305.701 136.2 306.301 137.1C306.701 137.6 307.001 138.1 307.301 138.6L307.701 139.2L308.001 139.7C308.201 140 308.101 139.9 307.901 139.3L308.001 138.2C307.901 138.7 306.901 139.4 306.501 139.8L304.601 141.8L300.701 145.8C299.801 146.7 300.501 148.4 301.301 149.1C302.001 150 303.301 150.1 304.101 149.4L304.201 149.3L309.401 143.9C310.301 143.1 311.101 142.3 311.801 141.3C312.501 140 311.901 138.7 311.201 137.5C308.601 133.4 305.701 129.6 302.601 126C301.901 125.1 300.601 125 299.801 125.7L299.701 125.8C298.801 126.9 299.401 128.4 300.201 129.2Z" fill="#E987D0"/>
<path d="M292.8 126.8C290.4 127.1 288.2 128.4 286.9 130.4C286.3 131.4 285.9 132.5 285.8 133.6C285.9 135.4 286.5 137.1 287.6 138.5C288.4 139.8 289.5 140.8 290.9 141.6C291.4 141.9 291.8 142.3 292.3 142.7C292.8 143.3 292.6 142.8 291.5 141.2C291.5 141.3 291.5 141.5 291.6 141.6C291.6 141.9 291.6 142.1 291.6 142.4C291.5 143.6 290.6 144.6 289.5 145C288.1 145.4 286.5 145.2 285.2 144.6C284.7 144.4 285.6 146.3 285.6 146.4C285.9 147 286.2 147.5 286.6 148C286.8 148.3 287.1 148.8 287.4 148.9C289.7 149.8 293.1 150.2 294.1 147.3C294.4 145.9 294.2 144.5 293.6 143.3C292.9 141.6 291.8 140 290.6 138.7C289.6 137.8 288.6 137 287.4 136.4C288.4 138.9 288.9 139.5 288.6 138.4C288.6 138.2 288.6 138 288.6 137.8C288.6 137.5 288.7 137.2 288.7 136.9C288.9 136.2 289.1 135.6 289.5 135C290.8 132.8 293 131.4 295.5 131.1C295.8 131.1 294.7 128.9 294.6 128.7C294.2 128.4 293.4 126.8 292.8 126.8Z" fill="#E987D0"/>
<path d="M154.5 62.2998L170.7 46.7998H203.3L204.4 107L154.5 106.3V62.2998Z" fill="white"/>
<path d="M156.9 62.1997L171 48.6997L173 46.6997L169.4 47.2997H202L200.7 47.0997L201.1 67.4997L201.7 99.8997L201.8 107.3L205.5 106.5L188.7 106.3L161.8 105.9L155.6 105.8L156.9 106.1V62.0997C156.9 61.5997 151.9 61.7997 151.9 62.5997V106.5C151.9 106.8 153.1 106.7 153.2 106.7L170 106.9L196.9 107.3L203.1 107.4C203.5 107.4 206.8 107.3 206.8 106.6L206.4 86.1997L206 53.9997L205.9 46.5997C205.9 46.2997 204.7 46.3997 204.6 46.3997H180.1C177 46.2997 173.8 46.2997 170.7 46.4997C169.7 46.4997 168.8 46.7997 168 47.3997C167.5 47.8997 167 48.3997 166.5 48.7997L161.4 53.6997L152.1 62.5997C151.7 62.9997 153.8 62.8997 153.9 62.8997C154.7 62.7997 156.3 62.7997 156.9 62.1997Z" fill="#000005"/>
<path d="M170.9 62.2998L170.7 46.7998L154.5 62.2998H170.9Z" fill="white"/>
<path d="M172.601 63.7999L172.401 50.2999V48.2999C172.301 47.2999 171.901 46.3999 171.201 45.6999C170.901 45.3999 169.801 44.2999 169.301 44.7999L155.101 58.3999L153.101 60.2999C152.501 60.8999 153.201 62.0999 153.501 62.6999C153.901 63.3999 154.701 64.4999 155.701 64.4999H172.101C173.101 64.4999 172.401 62.6999 172.101 62.2999C171.701 61.4999 170.801 60.1999 169.701 60.1999H153.301L155.901 64.3999L170.101 50.7999L172.101 48.8999L169.001 45.3999L169.201 58.8999V60.8999C169.301 62.0999 169.901 63.0999 170.801 63.8999C171.401 64.2999 172.601 64.9999 172.601 63.7999Z" fill="#000005"/>
<path d="M170.1 72.2C167.7 73.2 165.6 74.7 163.8 76.5C162.7 77.6 163.4 79.4 164.4 80.3L171.4 86.5C172.1 87.2 173.2 87.2 173.8 86.5C173.9 86.4 174 86.3 174.1 86.1C174.6 84.9 174.2 83.6 173.2 82.7L166.2 76.5L166.8 80.3C167.2 79.9 167.6 79.5 168.1 79.2C168.3 79 168.5 78.8 168.8 78.7C169.2 78.4 168.5 78.9 168.9 78.6L169.3 78.4C170.3 77.7 171.3 77.2 172.4 76.7C173.5 76.2 173.5 74.5 173 73.6C172.5 72.7 171.3 71.7 170.1 72.2Z" fill="#000005"/>
<path d="M184.2 70.3997C181.9 75.0997 179.9 79.7997 178.1 84.5997C177.9 85.1997 179.1 86.3997 179.5 86.6997C179.6 86.7997 181.4 88.4997 181.5 88.1997C183.3 83.3997 185.4 78.5997 187.6 73.9997C187.7 73.7997 187.4 73.3997 187.3 73.2997C187 72.7997 186.6 72.2997 186.2 71.8997C186.1 71.7997 184.4 70.0997 184.2 70.3997Z" fill="#000005"/>
<path d="M187.6 75.2001C188.7 75.8001 189.8 76.5001 190.8 77.3001C191.3 77.6001 191.7 78.0001 192.2 78.4001L192.9 79.0001C193.2 79.2001 193.4 79.3001 193.2 79.6001C192.4 80.6001 191.6 81.5001 191 82.6001C190.3 83.7001 189.7 84.8001 189.2 86.0001C188.9 86.8001 190.4 87.0001 190.9 87.0001C191.5 87.1001 192.2 87.0001 192.8 86.9001C193.1 86.8001 193.8 86.7001 194 86.4001C194.5 85.2001 195.2 84.0001 195.9 82.9001C196.3 82.3001 196.7 81.8001 197.1 81.3001C197.3 81.0001 197.6 80.7001 197.8 80.4001C198.1 80.2001 198.3 79.9001 198.4 79.6001C198.5 79.0001 197.6 78.5001 197.2 78.2001C196.7 77.8001 196.1 77.3001 195.6 76.9001C194.5 76.1001 193.3 75.3001 192.1 74.6001C191 74.1001 189.8 74.0001 188.7 74.3001C188 74.3001 186.6 74.7001 187.6 75.2001Z" fill="#000005"/>
<path d="M229 58.6999C233.6 50.8999 245.9 48.7999 251.3 56.8999C252.5 58.6999 253.1 60.6999 253.2 62.7999C253.3 65.0999 252.6 68.1999 250.1 68.7999C249.7 68.8999 249.2 68.8999 248.8 68.7999C248.8 68.9999 249.1 69.1999 249.1 69.1999C249.1 68.7999 249.2 68.3999 249.4 67.9999C249.6 67.4999 250 66.9999 250.5 66.6999C252.5 65.2999 255.2 65.4999 257.4 66.0999C262.4 67.2999 266.4 70.9999 268.1 75.7999C268.4 76.6999 269.4 78.0999 270.5 77.9999C271.6 77.8999 271.3 76.2999 271.1 75.5999C269 69.1999 263.9 64.0999 257.5 61.8999C254.6 60.9999 250.8 60.4999 248.1 62.1999C245.4 63.8999 245.1 67.7999 246.7 70.4999C248.6 73.5999 252.6 74.3999 255 71.4999C257.1 68.9999 257 64.8999 256.4 61.8999C255.1 55.4999 250.2 49.4999 243.8 47.6999C236.9 45.8999 229.7 48.8999 226 54.8999C225 56.4999 228 60.3999 229 58.6999Z" fill="#E987D0"/>
</svg>
