<svg width="500" height="500" viewBox="0 0 500 500" fill="none" xmlns="http://www.w3.org/2000/svg">
<path d="M234.2 79.7996C234.2 79.7996 481.8 76.9996 484.6 85.4996C487.4 93.9996 437.5 256.8 428.1 262.5C418.7 268.2 202.2 258 197.5 247.5C192.8 237 226.6 81.6996 234.2 79.7996Z" fill="white"/>
<path d="M233.6 80.5998H237.9L249.7 80.4998L267.8 80.3998C275.4 80.3998 283 80.2998 290.6 80.2998C299.4 80.2998 308.2 80.1998 317 80.1998C326.4 80.1998 335.9 80.1998 345.3 80.1998C355 80.1998 364.7 80.2998 374.4 80.3998C383.8 80.4998 393.2 80.5998 402.6 80.6998C411.3 80.8998 420 80.9998 428.8 81.2998C436.3 81.4998 443.8 81.7998 451.3 82.0998C454.5 82.2998 457.7 82.3998 460.9 82.5998L465.2 82.8998L467.2 83.0998C467.5 83.0998 467.6 83.0998 467.2 83.0998H467.7L468.7 83.1998C470.9 83.3998 473.1 83.5998 475.2 83.8998C476.1 83.9998 476.9 84.0998 477.8 84.2998L478.9 84.4998L479.2 84.5998L479.5 84.6998C480.1 84.7998 480.6 84.9998 481.2 85.0998L481.5 85.1998C481.1 84.9998 481.9 85.2998 481.5 85.1998L482 85.3998C482.1 85.3998 482.1 85.4998 482.2 85.4998C482.4 85.5998 481.9 85.2998 482.1 85.4998C482.2 85.5998 482.3 85.5998 482.3 85.6998C482.2 85.4998 482.3 85.5998 482.3 85.8998C482.3 86.1998 482.3 86.2998 482.3 86.4998C482.5 89.8998 481.4 93.5998 480.7 96.8998C479.3 103.3 477.7 109.6 476 115.9C473.8 124.3 471.4 132.6 469 140.9C466.3 150.3 463.5 159.6 460.6 168.9C457.6 178.5 454.6 188.1 451.5 197.6C448.6 206.4 445.7 215.1 442.6 223.9C440.1 231.1 437.5 238.2 434.6 245.3C432.9 250 430.8 254.5 428.5 259C427.9 260.1 427.2 261.2 426.3 262.1C426.6 261.8 426.3 262.1 426.1 262.2C426.3 262.1 426.5 262 426 262.2C426.4 262 426.3 262.1 425.9 262.2L425.6 262.3C425.4 262.4 426.3 262.2 425.7 262.3C425.1 262.4 424.5 262.5 423.8 262.6C423.2 262.6 423.4 262.6 423.8 262.6L423.2 262.7L421.9 262.8C419.8 263 417.7 263.1 415.5 263.1C414.2 263.1 412.9 263.2 411.5 263.2H410.5H409.9H407.7C404.4 263.2 401.1 263.2 397.8 263.2C389.9 263.1 382.1 263 374.2 262.8C365 262.6 355.9 262.2 346.7 261.9C336.9 261.5 327 261 317.2 260.5C307.4 260 297.5 259.4 287.7 258.7C278.4 258.1 269 257.4 259.9 256.6C251.7 255.9 243.5 255.1 235.3 254.2C228.7 253.5 222.2 252.7 215.7 251.6C214.4 251.4 213.1 251.2 211.8 250.9L210 250.6C209.6 250.5 210.1 250.6 210 250.6L209.6 250.5L208.8 250.3C207 249.9 205.2 249.5 203.4 248.9L202.4 248.5C202.9 248.7 202 248.4 201.8 248.3C201.4 248.1 200.9 247.9 200.5 247.6C200.9 247.9 200.4 247.5 200.3 247.4C200.2 247.3 200.1 247.2 200 247C200.1 247.2 199.9 246.8 199.9 246.6C199.8 246.4 199.8 246.1 199.8 245.8C199.2 241.8 199.9 237.5 200.4 233.6C201.2 226.5 202.3 219.5 203.5 212.5C205 203.6 206.7 194.7 208.5 185.9C210.4 176.1 212.5 166.4 214.6 156.7C216.7 147.2 218.9 137.8 221.2 128.4C223.2 120.2 225.3 112 227.6 103.9C229.2 98.0998 230.9 92.2998 233 86.6998C233.6 85.0998 234.2 83.4998 235 81.9998C235.3 81.4998 235.5 80.9998 235.9 80.5998C236 80.4998 236 80.3998 236.1 80.3998C236.2 80.2998 236.2 80.2998 236.3 80.2998C236.2 80.2998 235.9 80.4998 235.7 80.5998C236.4 80.3998 237.3 79.9998 236.5 79.3998C235.7 78.7998 233.9 79.0998 233.1 79.2998C230.2 80.0998 229.2 84.1998 228.2 86.5998C226.1 92.2998 224.4 98.0998 222.8 103.9C220.5 112.1 218.4 120.3 216.4 128.5C214.1 138 211.9 147.5 209.8 157.1C207.6 166.9 205.5 176.7 203.6 186.6C201.8 195.6 200.1 204.6 198.6 213.6C197.4 220.6 196.3 227.6 195.5 234.7C195.1 238.6 194.3 242.9 195 246.8C195.4 249.2 197.9 249.9 199.9 250.5C204.2 251.8 208.6 252.7 213 253.3C219.5 254.4 226.1 255.2 232.6 255.9C240.9 256.8 249.2 257.6 257.6 258.3C267.2 259.1 276.7 259.8 286.3 260.5C296.3 261.2 306.2 261.8 316.1 262.3C326 262.8 336 263.3 345.9 263.7C355.1 264.1 364.3 264.4 373.5 264.6C381.5 264.8 389.4 265 397.4 265C403.6 265 409.9 265 416.1 264.8C419.9 264.8 423.6 264.5 427.3 263.9C428.5 263.8 429.7 263.4 430.8 262.7C431.8 261.9 432.5 260.8 433.1 259.7C435.4 255.4 437.5 251 439.2 246.4C442 239.4 444.6 232.2 447.2 225.1C450.3 216.3 453.3 207.4 456.2 198.6C459.3 189.1 462.4 179.5 465.4 169.9C468.3 160.4 471.2 150.9 474 141.4C476.4 133 478.8 124.6 481.1 116.2C482.8 109.8 484.5 103.3 485.9 96.8998C486.6 93.5998 487.7 89.8998 487.6 86.3998C487.5 84.3998 485.2 83.9998 483.6 83.5998C479.8 82.7998 476 82.2998 472.2 81.9998C466.3 81.3998 460.3 81.0998 454.4 80.7998C446.9 80.3998 439.3 80.1998 431.8 79.9998C423.1 79.6998 414.4 79.5998 405.7 79.3998C396.2 79.1998 386.7 79.0998 377.2 78.9998C367.4 78.8998 357.6 78.7998 347.8 78.7998C338.3 78.7998 328.7 78.7998 319.2 78.7998C310.3 78.7998 301.4 78.7998 292.5 78.8998C284.8 78.8998 277.1 78.8998 269.4 78.9998L251.2 79.0998L239.3 79.1998H235.3C234.6 79.1998 232.6 79.1998 232.3 79.9998C232 80.7998 233.1 80.5998 233.6 80.5998Z" fill="#E987D0"/>
<path d="M267.8 107.2C258.5 107.2 239.4 110.6 232.4 136.7C228.9 149.8 233.8 160.1 245.7 165.1C259.9 171 278.3 167 284.2 156.8C291 145.1 292.8 132.2 289.1 122.5C286.4 115.4 280.8 110.2 273 107.6C271.3 107.3 269.6 107.2 267.8 107.2Z" fill="#E987D0"/>
<path d="M268.8 105.3C259.7 105.2 250.9 108.3 243.9 114C239 118.2 235.2 123.6 232.8 129.6C230 136.2 228.1 143.7 229.7 150.8C233.1 165.3 249.4 170.6 262.7 169.7C269.5 169.2 276.6 167 281.9 162.5C284.6 160.1 286.7 157.2 288.1 154C290.1 150 291.6 145.7 292.5 141.3C294 133.8 293.7 125.5 290.1 118.6C288.5 115.5 286.2 112.8 283.4 110.6C281.9 109.4 280.3 108.4 278.6 107.6C277.1 106.7 275.4 106.1 273.7 105.7C272.1 105.5 270.4 105.3 268.8 105.3C267.5 105.3 266.3 106 265.7 107.1C265.3 107.8 265.5 108.6 266.2 109C266.4 109.1 266.7 109.2 266.9 109.2C268.5 109.1 270.1 109.2 271.7 109.5C273.1 109.9 274.5 110.5 275.7 111.2C278.6 112.7 281.1 114.7 283.2 117.2C287.5 122.5 289.1 129.5 288.7 136.3C288.4 140.2 287.6 144 286.4 147.7C285.3 151.3 283.6 154.8 281.4 157.9C278.2 162.1 272.9 164.4 267.5 165.4C255.9 167.5 240.4 164.2 235.2 152.3C232.7 146.4 233.6 139.9 235.4 134C237.1 128.2 240.1 122.9 244.2 118.4C244.8 117.7 245.9 116.8 246.7 116.1C247.2 115.7 247.6 115.3 248.1 115L248.4 114.8C248.8 114.6 248.1 115 248.5 114.7C248.9 114.4 249 114.4 249.2 114.2C250.2 113.6 251.1 113 252.1 112.5L252.8 112.1C253.1 112 252.8 112.1 252.7 112.1L253.1 111.9L254.6 111.3C255.6 110.9 256.5 110.6 257.5 110.3L258.2 110.1C258.3 110.1 258.4 110 258.5 110C259 109.9 259.4 109.8 259.9 109.7C261.6 109.4 263.2 109.2 264.9 109.1H265.5C265.6 109.1 265.1 109.1 265.6 109.1H266.6C267.9 109.1 269.1 108.4 269.7 107.3C270.1 106.7 269.9 105.8 269.3 105.4C269.2 105.4 269 105.3 268.8 105.3Z" fill="#E987D0"/>
<path d="M428 109.3C419.2 109.2 410.7 112.2 403.9 117.8C399 122.1 395.2 127.6 392.9 133.7C390.3 140.4 388.5 147.9 390.4 155C394.2 169.5 410.9 175.2 424.5 174.1C431.3 173.5 438.2 171.4 443.3 166.9C445.9 164.4 447.9 161.5 449.3 158.2C451.2 154.2 452.6 149.9 453.4 145.5C454.8 137.9 454.2 129.6 450.4 122.8C448.6 119.6 446.2 116.8 443.3 114.6C441.7 113.4 440.1 112.4 438.3 111.5C436.8 110.7 435.1 110 433.4 109.7C431.7 109.4 429.9 109.3 428 109.3C426.9 109.3 426.1 110.3 426.1 111.4C426.1 111.5 426.1 111.6 426.1 111.6C426.5 112.9 427.7 113.7 429 113.6C430.4 113.6 431.9 113.7 433.3 113.9C432.9 113.8 433.7 114.1 433.8 114.1L435 114.6C435.8 114.9 436.6 115.3 437.4 115.7C440.1 117.2 442.5 119.2 444.4 121.6C448.6 126.9 449.7 134 449.1 140.6C448.7 144.5 447.9 148.3 446.5 152C445.3 155.4 443.8 159 441.5 161.8C438 166.1 432.4 168.5 427 169.4C415.8 171.4 400.2 168.3 395.7 156.4C393.5 150.5 394.6 144 396.6 138.2C398.4 132.5 401.5 127.2 405.6 122.9C407.2 121.2 409.1 119.7 411.1 118.5C412.8 117.4 414.7 116.5 416.7 115.7C418.5 115 420.4 114.5 422.3 114.1C421.8 114.2 422.4 114.1 422.6 114.1L423.3 114L424.6 113.8C425.4 113.7 426.2 113.6 427 113.6C427.8 113.6 428.4 113.5 429.1 113.5C430.2 113.5 431.1 112.5 431 111.4C431 111.3 431 111.2 431 111.2C430.6 110 429.3 109.2 428 109.3Z" fill="#E987D0"/>
<path d="M220.3 198.4C222.7 199.1 225.2 199.5 227.7 199.6C232.6 200.2 237.5 200.7 242.4 201.1C258.5 202.6 274.7 203.7 290.9 204.9C313.2 206.4 335.6 207.9 357.9 209.1C376.4 210.2 394.9 211.2 413.5 212C418.6 212.2 423.6 212.5 428.7 212.5C430.2 212.5 431.7 212.6 433.2 212.5C434 212.4 434.4 212.4 434.7 211.7C435 211 435.2 210.3 435.4 209.6C435.9 207.7 436.4 205.8 436.7 203.9C437.1 202 437.3 200 437.4 198.1C437.3 198 437.2 197.9 437.1 197.9C435 197.3 432.9 196.9 430.7 196.7C426.9 196.2 423 195.8 419.2 195.5C407.4 194.4 395.6 193.6 383.8 192.8C368 191.8 352.2 190.8 336.3 190C318.6 189 301 188.1 283.3 187.2C266.3 186.4 249.3 185.6 232.3 184.8L226.4 184.5C225.9 184.5 224.1 184.3 223.9 184.9C222.7 187.3 221.7 189.8 220.9 192.3C220.3 194.1 219.6 196.2 219.9 198.1C220.1 199 225 198.6 224.9 198.2C224.5 196.3 225.3 194.2 225.9 192.4C226.7 189.9 227.7 187.4 228.9 185L226.4 185.4C243.1 186.1 259.7 186.9 276.4 187.7C293.7 188.5 311.1 189.4 328.4 190.4C344.4 191.3 360.3 192.2 376.3 193.2C388.7 194 401.1 194.8 413.5 195.9C415.8 196.1 418 196.3 420.3 196.5L421.9 196.6L422.6 196.7H422.5L423 196.8L425.6 197.1C427 197.3 428.5 197.4 429.9 197.7L430.7 197.8L431.1 197.9L432.3 198.2H432.2L432.4 198.3L432.8 198.4L432.5 198.2C432.4 200.9 432 203.6 431.4 206.3C431.1 208.4 430.5 210.4 429.5 212.3L430.7 211.9C430.1 211.9 431.3 211.9 430.8 211.9H428.8C426.9 211.9 425.1 211.8 423.2 211.8C417.3 211.6 411.4 211.3 405.5 211C387.6 210.1 369.8 209.1 352 208.1C331.6 206.9 311.2 205.6 290.8 204.2C275.9 203.2 261.1 202.1 246.2 200.8C243.6 200.6 241 200.3 238.4 200.1L236.7 199.9L236 199.8H235.6H235.4L232.5 199.5C230.9 199.3 229.4 199.1 227.8 198.9L226.9 198.8C226.7 198.8 225.7 198.6 226.4 198.7C226 198.6 225.6 198.6 225.1 198.5C224.9 198.5 224.3 198.3 225 198.5L224.6 198.4C223.5 198.1 222.3 198 221.2 198.1C220.9 197.9 219.3 198.1 220.3 198.4Z" fill="#E987D0"/>
<path d="M211.4 230.5C213.8 231.1 216.2 231.6 218.6 231.7C223.5 232.3 228.4 232.8 233.3 233.2C249.4 234.7 265.5 235.8 281.7 236.9C304 238.5 326.4 239.9 348.7 241.1C367 242.2 385.4 243.2 403.7 244C408.9 244.2 414.1 244.4 419.4 244.5C420.5 244.5 421.6 244.5 422.7 244.5C423.8 244.5 424.4 244.3 424.799 243.3C425.1 242.6 425.4 241.9 425.6 241.2C426.1 239.3 426.6 237.4 426.9 235.5C427.299 233.6 427.5 231.6 427.6 229.7C427.6 229.4 427.1 229.1 426.9 229C424.799 228.3 422.6 227.9 420.4 227.7C416.6 227.2 412.699 226.8 408.799 226.5C397.1 225.4 385.3 224.6 373.6 223.8C357.9 222.8 342.1 221.8 326.4 221C308.8 220 291.3 219.1 273.7 218.3C256.7 217.5 239.7 216.7 222.7 215.9L216.8 215.6C216.3 215.6 214.7 215.5 214.4 216.1C213.2 218.5 212.2 221 211.4 223.5C210.8 225.3 210 227.6 210.3 229.5C210.6 231 215.5 230.8 215.3 229.9C215 228.1 215.7 226 216.2 224.3C217 221.8 218 219.3 219.1 217L216.7 217.5C233.4 218.2 250.2 219 266.9 219.8C284.3 220.6 301.7 221.5 319.1 222.5C335.2 223.4 351.299 224.3 367.299 225.3C379.699 226.1 392 226.9 404.4 228C408.6 228.4 412.799 228.7 416.9 229.2C417.299 229.2 417.5 229.3 416.9 229.2L417.5 229.3L418.7 229.4L420.7 229.7C421.2 229.8 421.799 229.9 422.299 230L423 230.1C423.8 230.2 422.6 230 423.1 230.1C423.4 230.2 424.4 230.5 423.5 230.2L422.799 229.5C422.699 232.2 422.3 234.8 421.7 237.4C421.4 239.4 420.799 241.4 419.9 243.3L421.7 242.8C420.7 242.9 419.7 242.9 418.7 242.8H417.5H416.7C415.7 242.8 414.7 242.8 413.7 242.7C407.8 242.5 401.9 242.2 395.9 241.9C377.9 241 359.799 240.1 341.799 239C321.399 237.8 301 236.5 280.6 235.1C265.6 234.1 250.7 233 235.7 231.6C231 231.2 226.2 230.7 221.5 230.2L220.3 230.1H220.5H220.2L219.5 230C218.8 229.9 218.1 229.8 217.4 229.7C216.4 229.6 215.4 229.3 214.3 229.2C215.1 229.3 214.4 229.2 214 229.1C213.1 228.8 211.4 228.6 210.6 229.2C209.8 229.8 210.9 230.3 211.4 230.5Z" fill="#E987D0"/>
<path d="M246.899 88.6C244.899 88.3 242.999 89.6 242.599 91.7C241.599 95.4 246.999 95.9 248.099 93.8C249.199 91.7 249.099 89.3 246.899 88.6Z" fill="#000005"/>
<path d="M245.5 95.4998C244.9 95.4998 244.3 95.3998 243.8 95.1998C242.3 94.6998 241.6 92.9998 242.1 91.5998C242.5 89.2998 244.7 87.7998 247 88.1998C247.9 88.4998 248.7 89.1998 249 90.0998C249.4 91.3998 249.2 92.8998 248.5 94.0998C247.8 94.9998 246.7 95.4998 245.5 95.4998ZM246.3 89.0998C244.7 89.0998 243.3 90.1998 243 91.7998C242.6 92.6998 243.1 93.7998 244 94.1998H244.1C245.4 94.6998 247.1 94.3998 247.6 93.4998C248.2 92.5998 248.4 91.3998 248.1 90.2998C247.9 89.6998 247.3 89.1998 246.7 88.9998L246.3 89.0998Z" fill="#000005"/>
<path d="M259.6 88.8999C257.6 88.5999 255.7 89.9999 255.3 91.9999C254.3 95.6999 259.6 96.1999 260.8 94.0999C262 91.9999 261.8 89.6999 259.6 88.8999Z" fill="#000005"/>
<path d="M258.299 95.7996C257.699 95.7996 257.099 95.6996 256.599 95.4996C255.099 94.9996 254.399 93.2996 254.899 91.8996C255.299 89.5996 257.499 88.0996 259.799 88.4996H259.899C260.799 88.7996 261.599 89.4996 261.899 90.3996C262.299 91.6996 262.099 93.1996 261.399 94.3996C260.599 95.2996 259.499 95.8996 258.299 95.7996ZM259.099 89.3996C257.499 89.3996 256.099 90.4996 255.799 92.0996C255.399 93.0996 255.899 94.0996 256.799 94.4996H256.899C258.199 94.9996 259.899 94.6996 260.399 93.7996C260.999 92.8996 261.199 91.6996 260.899 90.5996C260.699 89.9996 260.099 89.4996 259.499 89.2996C259.399 89.3996 259.199 89.3996 259.099 89.3996Z" fill="#000005"/>
<path d="M273.1 89C271.1 88.7 269.2 90 268.8 92C267.8 95.7 273.2 96.2 274.3 94.1C275.4 92 275.3 89.7 273.1 89Z" fill="#000005"/>
<path d="M271.799 95.8997C271.199 95.8997 270.599 95.7997 270.099 95.5997C268.599 95.0997 267.899 93.3997 268.399 91.9997C268.799 89.6997 270.999 88.1997 273.299 88.5997H273.399C274.299 88.8997 275.099 89.5997 275.399 90.4997C275.799 91.7997 275.599 93.2997 274.899 94.4997C273.999 95.3997 272.899 95.8997 271.799 95.8997ZM272.499 89.3997C270.899 89.3997 269.499 90.4997 269.199 92.0997C268.799 92.9997 269.299 94.0997 270.199 94.4997H270.299C271.599 94.9997 273.299 94.6997 273.799 93.7997C274.399 92.8997 274.599 91.6997 274.299 90.5997C274.099 89.9997 273.599 89.4997 272.899 89.2997C272.899 89.3997 272.699 89.3997 272.499 89.3997Z" fill="#000005"/>
<path d="M313.2 153.3C313.2 153.3 325.1 164.9 329.5 156.9C333.9 148.9 335.3 140 342.5 145C349.7 150 348.9 138.2 355 132.9C361.1 127.6 357 138.2 368 130.5C371.2 128.3 374 133.1 374.3 137C374.6 140.9 374 163.2 350.8 169.9C327.6 176.6 312.9 159.4 313.2 153.3Z" fill="#E987D0"/>
<path d="M310.999 154.4C314.099 157.4 318.199 160.4 322.499 161C325.999 161.5 329.399 160 331.399 157.2C333.699 153.7 334.699 149.5 336.999 146.1C337.299 145.7 337.699 145.3 337.999 144.9C338.199 144.7 337.699 144.9 338.099 144.8C337.899 144.8 337.799 144.9 337.599 145C337.499 145 337.399 145 337.399 145C337.399 145 337.999 145.1 337.899 145.1C339.599 145.5 340.799 147 342.499 147.4C345.699 148.3 348.999 146.5 350.599 143.7C352.199 140.9 352.999 137.8 354.899 135.2C355.399 134.5 355.899 133.9 356.499 133.4C356.699 133.2 356.899 133.1 356.999 133C357.099 132.9 357.899 132.5 357.399 132.7C357.799 132.6 357.199 132.8 357.199 132.8C357.599 132.7 356.899 132.9 356.899 132.9C356.699 132.9 356.399 132.9 356.199 132.9C355.999 132.9 356.399 133.1 356.099 132.9C356.199 133 356.299 133.1 356.399 133.2C357.399 134.4 358.999 135.1 360.599 135C362.299 134.8 363.899 134.3 365.499 133.5C366.399 133 367.299 132.5 368.199 131.9C368.399 131.8 368.699 131.6 368.899 131.5C369.599 130.9 369.099 131.4 368.899 131.4C367.599 131.5 368.399 131.6 368.799 131.9C370.399 133 371.199 135.3 371.499 137.1C371.599 137.5 371.599 137.8 371.599 138.2C371.599 138.4 371.599 137.9 371.599 138.3C371.599 138.7 371.599 138.9 371.599 139.1C371.599 140.8 371.499 142.5 371.199 144.2C370.499 149.4 368.499 154.3 365.499 158.6C361.299 164.3 355.099 168.2 348.099 169.5C340.599 171.2 332.699 170 325.999 166.1C321.799 163.6 317.299 159.8 315.599 155C315.399 154.4 315.199 153.7 315.199 153C315.199 151.2 310.499 152.5 310.399 154C310.499 155.9 311.099 157.7 312.099 159.2C313.599 161.6 315.499 163.7 317.599 165.4C323.399 170.1 330.699 172.7 338.099 172.8C347.299 173 356.299 170 363.599 164.5C368.599 160.5 372.399 155 374.299 148.9C375.499 145.1 376.099 141.2 376.099 137.2C375.999 134.2 374.799 130 371.599 129C369.099 128.2 366.699 129.7 364.699 131C364.099 131.4 363.399 131.8 362.699 132.1L362.399 132.2C362.299 132.2 362.199 132.3 361.999 132.3C362.599 132.2 361.799 132.4 362.399 132.3C362.199 132.3 361.899 132.2 362.199 132.3C362.099 132.3 361.699 132.1 361.999 132.2C361.699 132 361.399 131.8 361.199 131.6C360.799 131.1 360.299 130.7 359.699 130.4C356.999 129.3 353.699 131.7 351.899 133.5C349.399 136.1 348.199 139.4 346.699 142.6C346.399 143.2 346.099 143.9 345.699 144.5C345.499 144.8 345.299 145.1 345.099 145.3C344.999 145.4 344.999 145.4 344.899 145.5C345.299 145.4 345.699 145.2 345.999 145.1C346.099 145.1 346.299 145 345.999 145.1C346.099 145.2 345.599 145 345.599 145C344.799 144.7 343.999 144.2 343.299 143.7C339.799 141.6 335.399 142.5 332.799 145.6C330.099 148.8 328.899 153.1 326.899 156.8C326.599 157.5 326.199 158.1 325.599 158.6C325.299 158.9 325.899 158.2 325.399 158.7C325.499 158.6 325.799 158.6 325.399 158.7C325.499 158.7 325.799 158.6 325.899 158.5C325.399 158.7 326.199 158.5 325.699 158.5C325.499 158.5 325.299 158.5 325.099 158.5C324.899 158.5 324.599 158.4 324.399 158.4C323.599 158.2 322.899 158 322.199 157.6C319.899 156.5 317.699 155 315.799 153.3C315.399 153 315.099 152.7 314.799 152.4C314.199 151.1 309.799 153.2 310.999 154.4Z" fill="#E987D0"/>
<path d="M153.2 63.5001C153.2 63.5001 141.7 52.0001 152.4 49.5001C163.1 47.0001 163.8 63.5001 153.2 63.5001Z" fill="#000005"/>
<path d="M155.2 62.5002C154.8 62.1002 154.4 61.7002 154 61.2002C153.6 60.7002 153.2 60.3002 152.9 59.8002L152.6 59.4002C152.9 59.8002 152.6 59.4002 152.5 59.3002C152.3 59.0002 152.1 58.7002 151.9 58.3002C151.5 57.7002 151.2 57.0002 150.9 56.4002C150.8 56.1002 150.6 55.8002 150.5 55.5002C150.4 55.3002 150.4 55.2002 150.4 55.0002C150.6 55.5002 150.4 54.9002 150.4 54.8002C150.3 54.5002 150.3 54.1002 150.3 53.8002C150.3 53.7002 150.3 53.5002 150.3 53.4002C150.3 52.9002 150.2 53.7002 150.3 53.2002C150.4 52.9002 150.5 52.6002 150.6 52.4002C150.7 52.2002 150.3 52.8002 150.5 52.5002L150.6 52.3002C150.6 52.2002 150.9 51.9002 150.9 51.9002C150.9 51.9002 150.5 52.2002 150.8 52.0002L151 51.8002C151.1 51.7002 151.6 51.4002 151.3 51.6002C151 51.8002 151.6 51.4002 151.7 51.4002L152 51.3002C152.2 51.2002 152.4 51.0002 152 51.3002C152.4 51.1002 152.9 51.0002 153.3 50.9002L153.7 50.8002C154 50.7002 153.2 50.8002 153.5 50.8002C153.8 50.8002 154 50.7002 154.2 50.7002H154.5C154.8 50.7002 154.3 50.8002 154.2 50.7002C154.3 50.8002 154.6 50.7002 154.7 50.7002L155.2 50.8002C155.5 50.8002 154.7 50.6002 154.9 50.8002L155.2 50.9002C155.4 51.0002 155.5 51.0002 155.7 51.1002C155.7 51.1002 155.2 50.8002 155.5 51.0002L155.7 51.1002L156.1 51.3002L156.3 51.4002C156.6 51.6002 156.2 51.3002 156.2 51.3002C156.2 51.3002 156.8 51.9002 156.9 51.9002L157.2 52.2002C157.5 52.6002 157 51.9002 157.3 52.3002C157.6 52.8002 157.9 53.4002 158.1 54.0002C158.2 54.2002 158 53.6002 158.1 54.1002C158.1 54.3002 158.2 54.4002 158.2 54.6002C158.3 54.9002 158.3 55.3002 158.3 55.6002C158.3 55.9002 158.3 56.2002 158.3 56.5002C158.3 56.6002 158.3 56.7002 158.3 56.8002C158.3 57.0002 158.4 56.5002 158.3 56.7002C158.2 56.9002 158.2 57.1002 158.2 57.2002C158.1 57.6002 158 57.9002 157.9 58.2002C157.8 58.4002 157.8 58.5002 157.7 58.7002L157.6 58.9002C157.5 59.2002 157.8 58.7002 157.6 58.8002C157.4 58.9002 157.2 59.4002 157 59.7002C156.8 60.0002 156.8 60.0002 156.6 60.1002C156.4 60.2002 157 59.8002 156.7 60.0002C156.6 60.1002 156.6 60.1002 156.5 60.2002L156 61.0002L155.8 61.2002C155.5 61.4002 156.2 61.0002 155.9 61.1002L155.4 61.4002C155.3 61.4002 154.6 61.7002 155.1 61.6002C155.6 61.5002 154.8 61.7002 154.7 61.7002C154.6 61.7002 153.8 61.9002 154.3 61.8002C154.8 61.7002 154 61.8002 153.9 61.8002H153C152 61.8002 150.6 62.5002 150.6 63.7002C150.6 64.9002 152.2 65.2002 153.2 65.2002C157.2 65.2002 161.1 63.1002 162.6 59.2002C163.8 56.1002 163.2 52.7002 161.1 50.2002C158.1 46.9002 152.7 47.0002 148.9 48.8002C147.1 49.6002 145.8 51.1002 145.4 53.1002C145.2 54.8002 145.5 56.6002 146.3 58.1002C147.5 60.5002 149.1 62.7002 151 64.6002C152 65.4002 153.3 65.5002 154.4 65.0002C155.4 64.4002 156.1 63.4002 155.2 62.5002Z" fill="#000005"/>
<path d="M144.8 109.8C144.8 109.8 118.4 118.6 127.2 91.3001C136 64.0001 190.5 43.8001 213.3 48.2001C236.1 52.6001 210.7 83.4001 189.6 98.3001C168.5 113.2 148.3 110.6 148.3 110.6" fill="#E987D0"/>
<path d="M143 108.4C142.1 108.7 141.1 108.9 140.2 109.1L139.5 109.2C140 109.1 139.2 109.2 139.1 109.3C138.6 109.4 138 109.5 137.5 109.5C137 109.5 136.5 109.6 135.9 109.6H135H134.6C135.2 109.6 134.6 109.6 134.5 109.6C133.9 109.6 133.4 109.5 132.8 109.4C132.2 109.3 133.1 109.5 132.5 109.3L131.5 109C131 108.9 132.1 109.2 131.6 109L131.2 108.8C131.1 108.8 131 108.7 130.9 108.7C130.4 108.5 131.4 109 131 108.7C130.8 108.5 130.5 108.4 130.3 108.3C130.9 108.7 130.1 108.1 129.9 108C129.7 107.9 130.3 108.4 129.9 108L129.6 107.7C129.5 107.6 129 106.9 129.2 107.2C128.8 106.6 128.5 106.1 128.3 105.4C127.8 103.9 127.6 102.3 127.7 100.7C128 92.3001 132.3 84.4001 138 78.4001C144.4 71.6001 152.3 66.4001 160.5 62.1001C169.1 57.6001 178.3 54.2001 187.7 51.8001C195.3 49.9001 203.6 48.4001 211.1 49.1001C211.8 49.2001 212.6 49.3001 213.3 49.4001H213.5L214.3 49.6001C214.8 49.7001 215.3 49.9001 215.8 50.0001C215.3 49.8001 216.1 50.1001 216.1 50.1001L216.7 50.4001C216.2 50.2001 216.8 50.5001 216.9 50.5001L217.5 50.8001C217.1 50.5001 217.9 51.1001 218 51.2001C218.5 51.6001 217.7 50.9001 218.2 51.4001C218.4 51.6001 218.5 51.8001 218.7 52.0001C219.4 53.0001 219.8 54.2001 219.9 55.4001C220 57.0001 219.8 58.7001 219.3 60.3001C217.9 64.5001 215.9 68.3001 213.2 71.8001C210.1 76.1001 206.6 80.2001 202.8 83.9001C194.3 92.4001 184.5 100.2 173.2 104.7C168.2 106.7 163 108 157.7 108.7C155.8 108.9 154 109.1 152.1 109.1C151.4 109.1 150.6 109.1 149.9 109.1C149.4 109.1 150.2 109.1 149.9 109.1H149.5H148.6C148.2 109.1 147.8 109.1 147.3 109C146.5 108.9 145.4 109.2 145.8 110.2C146.2 111.2 147.8 111.8 148.8 111.9C155.4 112.8 162.6 111.6 168.9 109.9C181.5 106.6 192.5 99.4001 202.1 90.7001C210.7 82.9001 238.4 54.9001 215.5 47.3001C211.7 46.2001 207.7 45.7001 203.7 45.9001C199.4 46.0001 195.2 46.5001 190.9 47.3001C181 49.2001 171.4 52.3001 162.3 56.5001C153.2 60.7001 144.3 65.8001 136.9 72.6001C130.2 78.7001 125 86.0001 123.3 95.0001C122.6 98.6001 122.3 102.7 124.1 106.1C125.8 108.9 128.5 110.9 131.7 111.7C136.1 113 141.1 112.4 145.4 111.2L146.2 111C147.3 110.6 146.6 109.6 146 109.1C145.4 108.6 144.2 108.2 143 108.4Z" fill="#E987D0"/>
<path d="M135.3 210.4C135.3 210.4 118.9 224.8 114.3 262.2C109.7 299.6 149.1 392 149.1 392L177.3 387.4L174 317.9L207.4 390L239.5 384.1L184.4 211.7L135.3 210.4Z" fill="#000005"/>
<path d="M133.501 209C131.701 210.7 130.101 212.6 128.601 214.6C124.801 220 121.601 225.8 119.301 231.9C115.501 241.6 113.001 251.8 111.901 262.2C111.301 268.4 111.501 274.6 112.401 280.8C114.301 296.5 118.501 311.9 123.101 327C127.501 341.6 132.601 355.9 138.001 370.2C139.901 375.2 141.801 380.1 143.801 385.1C144.701 387.5 145.701 389.9 146.701 392.2C146.801 392.3 146.801 392.4 146.801 392.5C147.401 393.6 148.701 394.2 149.901 394L174.601 390L178.101 389.4C179.001 389.4 179.701 388.6 179.701 387.7L178.601 364.2L176.801 326.8L176.401 318.2L171.601 318.4L182.901 342.7L200.901 381.5L205.001 390.5C205.601 391.6 206.901 392.2 208.101 392L236.301 386.8L240.301 386.1C241.401 385.9 242.201 385.1 241.801 383.9L240.301 379.3L236.301 366.8L230.401 348.2L223.201 325.6L215.301 300.8L207.301 275.8L199.901 252.5L193.601 232.7L189.101 218.5C188.401 216.3 187.801 214 187.001 211.8C187.001 211.7 186.901 211.6 186.901 211.5C186.401 210.6 185.401 210 184.401 210L167.801 209.6L141.301 208.9L135.201 208.7C134.201 208.7 132.801 209.2 133.001 210.4C133.201 211.6 134.601 212.4 135.701 212.4L152.301 212.8L178.801 213.5L184.901 213.7L182.401 212.2L183.901 216.8L187.901 229.3L193.901 247.9L201.101 270.5L209.001 295.3L217.001 320.3L224.401 343.6L230.701 363.4L235.101 377.5C235.801 379.7 236.401 382.1 237.201 384.2L237.301 384.5L238.801 382.3L210.601 387.5L206.601 388.2L209.701 389.7L198.401 365.3L180.401 326.5L176.301 317.5C175.501 315.8 171.401 315.1 171.501 317.7L172.601 341.2L174.401 378.6L174.801 387.2L176.401 385.5L151.701 389.5L148.201 390.1L151.301 391.6C148.801 385.7 146.501 379.8 144.201 373.8C139.001 360.2 134.001 346.5 129.601 332.7C124.801 317.7 120.501 302.4 118.001 286.8C116.801 280.3 116.301 273.8 116.401 267.2C116.601 263.2 117.101 259.2 117.801 255.3C118.701 250.1 120.001 245 121.601 240C123.801 232.9 126.901 226.2 130.801 219.9C132.001 218 133.401 216.2 134.801 214.4C135.301 213.8 135.701 213.3 136.201 212.8C136.401 212.6 136.601 212.4 136.701 212.2C137.001 211.9 136.301 212.6 136.801 212.1L137.101 211.8C139.301 210 135.201 207.5 133.501 209Z" fill="#000005"/>
<path d="M224.6 447.1L279.4 446.9C279.4 446.9 287.2 438.5 269.3 437.4C263 437 255.1 429.9 255.1 429.9L243.3 382.1L202.4 386.2L224.6 447.1Z" fill="white"/>
<path d="M224.4 448.9H236.8L261.3 448.8L278.3 448.7C278.9 448.7 279.5 448.7 280.1 448.6C281 448.4 281.8 447.7 282.2 446.8C283.5 445.1 283.8 442.7 282.8 440.7C280.6 436.7 274.4 436 270.4 435.7C267.8 435.5 265.2 434.6 263 433.3C261.1 432.2 259.3 430.9 257.7 429.5C257.4 429.3 257.1 429 256.9 428.8L257.5 429.6L253.5 413.5L247.2 387.8L245.7 381.9C245.4 380.7 243.8 380.3 242.8 380.4L206.9 384L201.9 384.5C201 384.6 199.5 385.3 200 386.5L207.5 407.1L219.4 439.8L222.1 447.3C222.9 449.4 227.8 449.2 227 446.8L219.5 426.2L207.6 393.5L204.9 386L203 388L238.9 384.4L243.9 383.9L240.9 382.4L249 415.3C250.2 420.1 251.2 425 252.6 429.7C253.1 431.5 255.4 432.7 256.8 433.7C258.9 435.2 261.1 436.5 263.4 437.5C264.6 438 265.9 438.5 267.2 438.7C268.8 439 270.5 439.1 272.1 439.3C273.4 439.5 274.6 439.7 275.8 440.1C276.1 440.2 276.5 440.3 276.8 440.5L277.3 440.8L277.6 441C277.4 440.9 277.4 440.9 277.6 441C277.8 441.1 278.4 441.8 278.1 441.4C278.2 441.6 278.7 442.3 278.5 441.9C278.6 442.1 278.7 442.3 278.7 442.6C278.7 442.7 278.7 443.1 278.7 442.6C278.7 442.7 278.7 442.9 278.7 443C278.7 443.2 278.6 443.4 278.6 443.7C278.5 444.3 278.7 443.6 278.5 444C278.3 444.4 278.2 444.8 278 445.1L277.7 445.6C277.6 445.7 277.4 446 277.8 445.4C277.7 445.4 277.7 445.5 277.7 445.6C277.6 445.7 277.5 445.8 277.4 445.9L279.6 445.2L261.1 445.3L231.7 445.4H224.9C223.9 445.4 222.4 445.6 222.3 446.9C222.2 448.2 223.5 448.9 224.4 448.9Z" fill="#000005"/>
<path d="M156.301 438.9C156.301 438.9 152.501 452.3 153.801 452.3C155.101 452.3 191.701 452.5 190.701 450.6C189.701 448.7 183.001 442.5 183.001 442.5C183.001 442.5 182.401 387.8 182.101 385.9C181.801 384 143.101 385.6 143.101 389C143.101 392.4 156.301 438.9 156.301 438.9Z" fill="white"/>
<path d="M154.1 437.6C153.6 439.4 153.1 441.3 152.6 443.1C152 445.4 151.2 448.1 151.3 450.5C151.4 452.7 154.4 453.7 156.3 453.7C158 453.7 159.7 453.7 161.5 453.7C167.2 453.7 173 453.6 178.7 453.5C181.4 453.4 184.1 453.3 186.7 453.1C188.5 453.1 190.2 452.9 191.9 452.5C192.3 452.4 192.9 452.3 192.9 451.7C192.9 451.4 192.5 450.9 192.3 450.7C191.8 450 191.3 449.4 190.7 448.8C188.7 446.6 186.5 444.6 184.3 442.6L185.1 443.6C185 434 184.9 424.4 184.8 414.8C184.7 408.3 184.6 401.8 184.5 395.3C184.5 393.2 184.4 391.1 184.4 389C184.4 387.7 184.5 386.8 183.4 385.8C181.6 384.2 179.3 383.9 177 383.8C174.3 383.6 171.5 383.7 168.8 383.7C162 383.8 155.3 384.3 148.6 385.2C146.4 385.4 144.3 385.9 142.2 386.6C141.3 386.8 140.7 387.7 140.9 388.7C140.9 388.8 140.9 388.9 141 388.9C141.8 393.8 143.3 398.5 144.5 403.3C147.5 414.6 150.7 425.9 153.9 437.1L154.1 437.8C154.4 438.7 155.7 439.4 156.5 439.8C156.7 439.9 158.7 440.7 158.5 439.9C157.1 434.9 155.7 429.9 154.3 425C151.9 416.5 149.6 407.9 147.4 399.3C146.7 396.6 146 393.9 145.5 391.2C145.4 390.9 145.4 390.6 145.4 390.3C145.4 390.1 145.4 390.2 145.4 390.2C145.4 390.1 145.5 390 145.6 389.9C146.3 389.4 147.1 389.1 147.9 388.9C151.4 388.1 154.9 387.6 158.5 387.3C162.9 386.9 167.4 386.7 171.8 386.5C175.2 386.3 178.5 386.4 181.9 386.7L182.6 386.8C182.1 386.7 182.8 386.9 182.9 386.9C183 386.9 182.9 386.9 182.7 386.8C182.2 386.5 181.6 386.2 181.1 385.8C181.3 385.9 180 384.9 180.1 384.8V384.9C179.9 385.2 180.2 386.3 180.2 386.7C180.4 393.7 180.5 400.7 180.6 407.7C180.7 416.2 180.8 424.7 180.9 433.2C180.9 435.6 181 438 181 440.4C181 441.1 180.9 441.4 181.4 441.9C182.5 443.2 183.6 444 184.8 445.1C185.7 446 186.6 446.8 187.4 447.7C187.7 448.1 188.1 448.4 188.4 448.8C188.5 448.9 188.7 449.4 188.9 449.5C188.7 449.4 188.8 449.2 188.8 449.2C188.7 449.2 188.7 449.2 188.6 449.3C188.2 449.4 187.8 449.5 187.4 449.6C184.2 450 180.9 450.3 177.7 450.3C169.8 450.6 162 450.6 154.1 450.6H152.9C152.2 450.6 152.1 450.4 153.2 450.8L154.9 451.7C157.4 453.5 155.9 453.2 156 452.5C156 452.3 156 452.1 156 451.9C156 451.4 156.1 450.8 156.2 450.3C156.5 448.8 156.8 447.3 157.2 445.8C157.7 443.8 158.2 441.8 158.8 439.8C158.8 438.9 154.3 436.9 154.1 437.6Z" fill="#000005"/>
<path d="M174.801 318.9C176.601 301.7 179.001 284.7 182.101 267.7C182.201 266.8 181.001 265.6 180.501 265C180.301 264.8 179.001 263.4 178.801 264.1C175.701 281.1 173.301 298.1 171.501 315.3C171.401 316.2 172.501 317.4 173.101 318C173.201 318.1 174.701 319.6 174.801 318.9Z" fill="white"/>
<path d="M120.7 236.2C120.7 236.2 161.1 249.1 194.6 241.1L192.3 208.1L130.7 203.7L120.7 236.2Z" fill="white"/>
<path d="M120.301 237.4C125.701 239.1 131.101 240.4 136.601 241.5C148.501 244 160.701 245.3 172.901 245.2C180.701 245.2 188.401 244.3 196.001 242.5C196.501 242.4 197.001 242.2 197.001 241.6L195.001 212.7L194.701 208.6C194.601 207.4 192.301 206.8 191.501 206.7L170.601 205.2L137.501 202.8L129.901 202.2C129.401 202.2 128.601 202.2 128.401 202.8L119.701 231.4L118.501 235.4C118.001 237 122.701 238.6 123.201 237L131.901 208.4L133.101 204.4L131.601 205L152.501 206.5L185.601 208.9L193.201 209.5L190.001 207.6L192.001 236.5L192.301 240.6L193.301 239.7C180.501 242.8 167.201 242.8 154.101 241.5C144.601 240.5 135.101 238.8 125.901 236.4C125.301 236.2 126.401 236.5 125.801 236.4L125.301 236.3L124.201 236L122.501 235.5C122.001 235.4 121.601 235.2 121.101 235.1C120.401 234.9 118.701 234.5 118.301 235.5C117.901 236.5 119.701 237.2 120.301 237.4Z" fill="#000005"/>
<path d="M290.9 129.4C290.9 129.4 294.2 124.6 298.2 126.1C302.2 127.6 313.1 145.4 310.6 146.1C308.1 146.8 300.7 145 298.8 143.2C296.9 141.4 296.1 136.1 296.1 136.1L295.1 140.3L274.3 129.4C274.3 129.4 276.7 122.5 275.9 117.2C275.2 112.6 279.7 107.8 282.4 116.1C283.1 118.3 283.4 120.7 283.4 123V126.5C283.3 126.5 290.3 120.4 290.9 129.4Z" fill="white"/>
<path d="M293.101 129.7C293.701 128.7 294.601 127.9 295.601 127.4C295.701 127.3 296.201 127.2 295.901 127.2C296.101 127.2 296.801 127.4 296.301 127.2C296.701 127.4 297.101 127.7 297.401 128C299.901 130.4 302.001 133.1 303.701 136.1C305.501 138.7 307.001 141.6 308.101 144.6C308.201 145 308.301 145.4 308.301 145.8C308.301 145.9 308.301 145.9 308.301 146C308.001 146.2 308.901 145.3 308.701 145.5C310.101 145 310.501 144.8 309.901 144.9C310.201 144.9 310.201 144.9 310.001 144.9C309.201 144.9 308.301 144.8 307.501 144.7C306.401 144.5 305.401 144.3 304.301 143.9C302.301 143.3 300.701 142.6 299.801 140.7C299.101 139.1 298.601 137.4 298.401 135.6C298.101 133.9 293.901 134.7 293.501 136.1L292.501 140.3L297.001 139.2L278.801 129.7L276.201 128.3L276.601 129.2C277.401 126.7 278.001 124.1 278.201 121.5C278.301 119.7 278.301 117.8 278.101 115.9C278.101 114.8 278.301 113.8 278.901 112.9C278.901 112.9 279.301 112.4 279.101 112.6C279.401 112.2 279.301 112.4 278.901 112.6C279.401 112.4 277.301 112.9 277.401 112.7L277.901 113.1C279.301 114.5 279.901 116.8 280.201 118.7C280.601 121.4 280.701 124.1 280.601 126.9C280.601 127.6 281.901 127.8 282.301 127.8C283.201 127.9 284.201 127.6 284.901 127.1C285.201 126.9 285.501 126.7 285.801 126.4C286.301 126.1 285.601 126.5 285.901 126.3L286.401 126C286.501 125.9 286.701 125.9 286.801 125.8C286.201 126.1 286.901 125.8 287.001 125.8C286.301 126.1 287.401 125.9 286.601 125.8C286.201 125.6 287.101 125.8 286.601 125.8C286.001 125.6 286.901 126.1 286.501 125.8C286.701 126 286.701 125.9 286.901 126.1C287.801 127.1 287.901 128.6 288.001 129.9C288.101 131.6 293.101 130.9 292.901 129C292.701 127.1 292.501 125.4 291.101 124.2C289.801 123.2 288.101 122.9 286.501 123.3C284.501 123.7 282.601 124.6 281.001 125.9L285.401 126C285.501 123.7 285.501 121.5 285.301 119.2C284.901 116.3 283.901 111.6 280.701 110.4C278.001 109.5 275.101 110.7 273.801 113.2C272.501 115.7 273.401 118.5 273.201 121.3C273.001 124 272.401 126.8 271.501 129.4C271.401 129.8 271.601 130.2 271.901 130.3L290.101 139.8L292.701 141.2C293.801 141.8 296.801 141.6 297.101 140.1L298.101 135.9L293.201 136.4C293.501 138.2 294.001 140 294.701 141.7C295.801 144.1 297.601 145.1 300.001 145.9C302.601 146.9 305.401 147.4 308.201 147.4C309.801 147.4 312.901 147.1 312.901 144.9C312.801 143.6 312.401 142.3 311.701 141.1C310.801 139.2 309.801 137.3 308.701 135.5C306.601 132.1 304.201 128.3 301.101 125.7C297.101 122.4 290.901 125.1 288.201 128.9C287.601 129.8 288.601 130.4 289.401 130.5C290.901 130.8 292.501 130.6 293.101 129.7Z" fill="#000005"/>
<path d="M291.3 132.5C291.8 131.9 292.4 131.3 293 130.7C293.1 130.6 293.2 130.5 293.4 130.4C293.5 130.3 293.6 130.2 293.6 130C293.7 129.8 293.7 129.6 293.6 129.4C293.5 129.1 293.4 128.9 293.3 128.6C293.2 128.3 293 128 292.8 127.7L292.4 127.1C292.2 126.8 291.9 126.5 291.6 126.3C291.4 126.1 291 125.8 290.7 126C290.6 126.1 290.5 126.2 290.4 126.3L289.9 126.8C289.6 127.1 289.2 127.5 288.9 127.9L288.7 128.1C288.6 128.2 288.5 128.3 288.5 128.5C288.5 128.7 288.5 128.9 288.5 129.1C288.6 129.4 288.6 129.6 288.8 129.9C288.9 130.2 289.1 130.5 289.3 130.8L289.7 131.4C289.9 131.7 290.2 132 290.5 132.2L290.9 132.4C290.9 132.6 291.1 132.6 291.3 132.5Z" fill="#000005"/>
<path d="M308.5 147.2C308.5 147.2 249.5 115.6 248.1 115.8C246.7 116 244.2 120 244.7 121.5C245.2 123 308.2 151.3 309.1 151.5C309.5 151.6 311.3 152 313.4 152.6C314 152.7 314.6 152.3 314.8 151.7C314.9 151.2 314.7 150.7 314.3 150.5L308.5 147.2Z" fill="#000005"/>
<path d="M309.2 146C300.7 141.4 292.1 136.9 283.5 132.4C276.9 128.9 270.3 125.4 263.7 122C259.1 119.6 254.6 117.2 249.9 115.1C248.4 114.4 246.8 113.7 245.3 114.8C243.6 116.1 242.5 118.1 242.3 120.2C242.3 121.2 242.9 122.2 243.8 122.7C245.1 123.6 246.5 124.4 247.9 125C250.3 126.2 252.7 127.4 255.1 128.5C268.1 134.7 281.3 140.7 294.4 146.6C298.8 148.6 303.1 150.5 307.5 152.4C309 153 310.6 153.5 312.1 153.8C313.4 154.1 315 154.8 316.2 153.9C317.1 153.2 317.3 151.8 316.6 150.8C315.7 149.4 313.9 148.7 312.5 147.9L309.2 146C308.5 145.6 306.9 145 306.3 145.9C305.7 146.8 307.2 148 307.8 148.3L311.1 150.2L313 151.3C313.1 151.4 313.4 151.6 313.5 151.6C313.6 151.6 312.6 150.6 312.5 150.5C312.5 150.6 312.5 150.7 312.4 150.8C312.3 151 312.4 151 312.8 150.9C312.1 150.6 311.4 150.4 310.7 150.4L309.1 150C308.9 150 308.7 149.9 308.5 149.9C308.4 149.6 309.3 150.2 309 150C308.7 149.8 308.3 149.7 308 149.6C304.1 147.9 300.2 146.2 296.3 144.4C283.7 138.7 271.1 133 258.5 127.1L254.6 125.3L253.6 124.8L253.2 124.6L251.5 123.8C249.9 123 248.2 122.2 246.6 121.3L245.9 120.9C245.4 120.6 245.5 120.6 245.9 120.9C245.4 120.5 246.9 121.8 246.6 121.9C246.6 121.6 246.6 121.4 246.7 121.1C246.8 120.6 247 120.1 247.3 119.7C247.8 119 248.3 118.3 248.9 117.6C249 117.5 249.2 117.4 249.2 117.4H248.6C248.6 117.4 247.9 117.4 247.9 117.2C247.9 117.2 249 117.6 249 117.7L249.9 118.1L250.4 118.3L250.5 118.4L253.3 119.8C255.7 121 258.1 122.2 260.5 123.5C266.7 126.7 272.9 129.9 279 133.2C288.3 138.1 297.6 143 306.9 148L307.4 148.2C308.1 148.6 309.7 149.2 310.2 148.3C310.7 147.4 309.8 146.3 309.2 146Z" fill="#000005"/>
<path d="M291.2 146.6C291.2 146.6 290.1 151.6 292.6 152.4C295.1 153.2 300.7 149.6 306.5 148.5C312.3 147.4 312.4 153.6 308 157.7C303.6 161.8 295 167.1 288.4 170C281.8 172.9 276.8 171.1 276.8 171.1C275.1 172 257 195.6 257 195.6C257 195.6 233.6 228.4 200.2 199.4C200.2 199.4 183.8 146.4 190.1 144.5C196.4 142.6 229.9 179.9 229.9 179.9C228.8 174.4 269.3 135.3 269.3 135.3" fill="white"/>
<path d="M288.9 146.8C288.4 148.9 288.3 152 290.1 153.6C292.9 156 297.6 153.4 300.4 152.3C302.4 151.4 304.5 150.8 306.6 150.4C307.1 150.3 307.6 150.4 308.1 150.6C308.3 150.8 308.5 151 308.6 151.3C309.6 154.1 306.4 156.8 304.4 158.4C300.9 161.1 297.3 163.5 293.4 165.5C289.7 167.5 285.8 169.8 281.4 169.8C280.8 169.8 280.2 169.8 279.5 169.7C279.2 169.7 279 169.6 278.7 169.6C278.6 169.6 278.5 169.6 278.4 169.5C278.1 169.4 278.8 169.6 278.5 169.5C277.3 169.1 276 169.3 275.1 170.1C274 171.1 272.9 172.2 272 173.5C266.2 180.4 260.7 187.6 255.2 194.8C254.3 196 253.3 197.2 252.2 198.3C252.1 198.4 251.9 198.6 251.8 198.7C252.3 198.2 251.8 198.7 251.7 198.8C251.3 199.1 251 199.5 250.6 199.8C249.9 200.5 249.1 201.1 248.4 201.8C247.7 202.5 246.6 203.2 245.7 203.8C245.2 204.2 245.9 203.7 245.4 204L244.7 204.5C244.2 204.8 243.6 205.2 243.1 205.5C242 206.1 240.8 206.7 239.6 207.3C239.1 207.5 239.5 207.3 239.6 207.3C239.5 207.4 239.3 207.4 239.2 207.5L238.3 207.8C237.7 208 237 208.3 236.3 208.4C233.6 209.2 230.8 209.6 228 209.5C220.8 209.4 213.8 206.5 207.9 202.4C205.9 201 204 199.5 202.1 197.9L202.6 198.8C200.9 193.4 199.4 188 197.9 182.7C195.4 173.4 192.9 164.1 191.5 154.6C191.2 152.8 191.1 151 191 149.2C191 148.8 191 148.5 191 148.1C191 147.7 191 148 191 148V147.4C191 146.9 191.2 146.4 191.3 145.8C191.2 146.1 191.1 146 191.4 145.7C191 146.2 191.7 145.4 191.4 145.7C191.1 146.1 190.8 146.3 190.3 146.4C190.7 146.3 189.7 146.5 190 146.5C190.3 146.5 189.9 146.5 189.8 146.5C190 146.6 190.2 146.6 190.4 146.6C189.7 146.5 190.5 146.7 190.8 146.8C191.4 147.1 192 147.4 192.5 147.7C192.8 147.9 192.6 147.8 192.6 147.8L193.1 148.1C193.5 148.3 193.9 148.6 194.2 148.9C195 149.5 195.8 150.1 196.6 150.7C198.4 152.1 200.1 153.6 201.7 155.1C205.5 158.5 209.2 162.1 212.8 165.8C216.1 169.1 219.3 172.5 222.5 175.9C224.2 177.8 225.9 179.7 227.7 181.5C227.8 181.6 227.9 181.7 227.9 181.8C229.2 183.2 232.5 181.3 232.1 179.5C231.9 179.9 232 179 232.1 179.5C232.3 179.1 232.3 178.7 232.1 179.3C232.3 178.8 232.5 178.3 232.8 177.8C232.9 177.6 233.3 176.9 233.2 177.2C233.1 177.5 233.3 177 233.4 176.9C233.5 176.8 233.6 176.5 233.8 176.3C234.3 175.5 234.9 174.8 235.4 174.1C238.3 170.3 241.5 166.7 244.8 163.2C251.8 155.6 258.5 148.8 265.8 141.6C267.4 140 269 138.4 270.7 136.8C271.4 136.1 272.1 134.9 271.2 134C270.3 133.1 268.7 133.6 267.9 134.4C263.1 139 258.4 143.8 253.7 148.5C246.3 156.1 238.7 163.7 232.2 172C230.9 173.6 229.7 175.3 228.6 177.1C228 178.2 227.2 179.6 227.5 180.9L231.7 178.6C228.4 174.9 224.9 171.2 221.5 167.7C215.4 161.2 208.9 154.9 202.2 149.1C199 146.4 190.6 138.9 187.1 145.2C186 147.3 186.2 150.1 186.4 152.4C186.8 156.1 187.3 159.7 188.1 163.3C189.8 171.8 192 180.2 194.4 188.5C195.2 191.5 196.1 194.5 197 197.5C197.2 198.3 197.5 199.1 197.7 199.9C197.8 200.1 197.8 200.2 197.9 200.4C198.2 201.5 199.3 202.1 200.1 202.8C209.6 210.5 221.5 215.5 233.9 213C241.8 211.2 249.1 207.1 254.8 201.3C257.2 198.8 259.4 196.2 261.4 193.4C266.4 186.9 271.3 180.4 276.7 174.2C277.1 173.8 277.5 173.4 277.8 173C277.4 173.5 278 172.8 277.8 173C278.2 172.5 277.8 173 277.6 173.1L275.3 173.3C279.6 174.9 284.8 173.9 288.8 172.2C294.7 169.6 300.3 166.4 305.4 162.6C307.7 161.1 309.7 159.3 311.4 157.1C312.7 155.2 313.9 152.8 313.4 150.5C312.2 144.2 303.6 147.6 299.9 149C298.4 149.6 297 150.2 295.5 150.6C295 150.8 294.5 150.9 294 150.9C294.4 150.9 293.7 150.8 294.1 150.9C293.8 150.8 294 151 293.8 150.7C293 149.9 293.3 147.8 293.6 146.7C293.9 145.6 292.7 144.8 291.6 144.9C290.2 144.7 289.2 145.6 288.9 146.8Z" fill="#000005"/>
<path d="M315.4 152.5C315.4 152.5 315.1 161.3 327.2 161.6C339.3 161.9 337.8 148.6 336.3 148.6C334.8 148.6 332.5 155.1 328.9 152.7C325.3 150.3 315.7 146.6 315.4 152.5Z" fill="#E987D0"/>
<path d="M312.9 152.7C312.9 155.9 314.501 158.9 317.201 160.7C320.101 162.8 323.9 163.3 327.4 163.3C330.8 163.4 334 162.1 336.5 159.9C338.1 158.2 339.2 156.1 339.5 153.8C339.8 152.1 339.8 150.4 339.3 148.8C338.3 146 334.801 147 333.201 148.8C332.401 149.8 331.601 150.7 330.701 151.6C331.001 151.3 330.5 151.7 330.4 151.8C330.8 151.5 330.101 151.7 330.701 151.7C330.601 151.7 330.2 151.8 330.8 151.7C331.4 151.6 330.9 151.7 330.9 151.7C331.2 151.6 330.9 151.7 331 151.7C330.8 151.5 330.501 151.4 330.201 151.2C327.401 149.4 324.2 148.3 320.9 147.8C317.5 147.5 313.2 148.7 312.9 152.7C312.7 155.1 317.6 154.4 317.8 152.4C317.8 152.1 317.8 151.9 317.9 151.6C318 151.2 317.9 151.4 317.9 151.5C317.9 151.4 318 151.3 318 151.2C318 151.4 318.2 150.8 318 151.2C318 151.1 318.101 150.9 318.101 151.1C318.101 151.2 318 151.2 318 151.2L318.101 151.1C317.401 151.3 318.1 151.1 318.3 151.1C317.6 151.2 318.3 151.1 318.5 151.1H319C319.3 151.1 319.6 151.2 319.9 151.2L320.3 151.3C320 151.2 320.3 151.3 320.4 151.3C320.7 151.4 321 151.4 321.3 151.5C322 151.7 322.6 151.9 323.3 152.2C324.3 152.6 325.301 153.1 326.201 153.6C327.401 154.4 328.801 154.9 330.201 154.9C331.801 154.8 333.401 154 334.601 152.9C335.401 152.1 336.1 151.3 336.8 150.4C336.9 150.2 337.101 150.1 337.201 149.9C337.601 149.5 337 150 337.3 149.8C336.4 150.3 335.4 150.4 334.4 150C334.5 150 334 149.6 334.3 149.9C334.6 150.2 334.4 150.3 334.3 149.8C334.3 149.9 334.4 150 334.4 150.1C334.5 150.4 334.501 150.7 334.601 151C334.701 151.3 334.701 151.6 334.701 151.9C334.701 152 334.701 152.2 334.701 151.8C334.701 151.9 334.701 152 334.701 152.1C334.701 152.3 334.701 152.6 334.701 152.8C334.701 153.7 334.5 154.5 334.3 155.3C334.3 155.4 334.101 155.9 334.201 155.6C334.101 155.8 334 156 334 156.2C333.8 156.7 333.6 157.1 333.3 157.5C333.1 157.8 333.3 157.6 333.3 157.5L333.101 157.8C333.001 158 332.801 158.2 332.601 158.3C332.401 158.4 332 158.8 332.4 158.5C332.2 158.7 331.901 158.8 331.701 159C331.201 159.3 331.501 159.2 331.701 159L331.3 159.2C331.1 159.3 330.8 159.4 330.5 159.5C331 159.3 330.301 159.6 330.101 159.6L329.701 159.7C329.201 159.8 329.801 159.7 329.601 159.7C326.901 160.1 324.2 159.6 321.8 158.5C320.9 158 320 157.3 319.4 156.5C319.1 156.1 318.901 155.7 318.601 155.3C318.401 154.9 318.6 155.4 318.4 155L318.201 154.5C318.001 153.9 317.801 153.3 317.701 152.6C317.701 152.4 317.701 152.2 317.701 152C317.801 152.6 317.701 152.4 317.701 152.2C317.901 149.9 313 150.6 312.9 152.7Z" fill="#E987D0"/>
<path d="M112.601 211.8C112.601 211.8 142.801 126.7 175.201 130.7C207.601 134.7 203.601 221.7 203.601 221.7C203.601 221.7 146.201 238.9 112.601 211.8Z" fill="#000005"/>
<path d="M114.4 213.3C115.4 210.5 116.5 207.6 117.7 204.8C120.4 198 123.4 191.3 126.6 184.7C130.5 176.5 134.9 168.5 139.8 160.8C144.5 153.6 149.7 146.5 156.2 140.8C161.2 136.4 167.3 132.7 174.1 132.8H174.6C174.7 132.8 174.8 132.8 174.9 132.8C175.3 132.8 175.7 132.9 176.1 133C176.8 133.1 177.5 133.3 178.2 133.5C178.6 133.6 178.9 133.7 179.2 133.8C178.8 133.7 179.7 134 180 134.1C180.7 134.4 181.4 134.8 182 135.2C182.2 135.3 183 135.9 182.6 135.6L183.5 136.3C184.1 136.8 184.7 137.3 185.3 137.9L185.7 138.3L185.9 138.6L185.8 138.5L186.6 139.4C187.1 140 187.7 140.7 188.1 141.4C188.3 141.7 188.5 142 188.7 142.3C188.9 142.6 188.9 142.7 189.1 142.9C189.4 143.4 189 142.7 189.2 143.1C189.7 143.9 190.1 144.6 190.5 145.4C191.4 147 192.1 148.7 192.9 150.4C193 150.6 193.1 150.9 193.2 151.1C193.3 151.3 193.2 151 193.2 151C193.2 151 193.3 151.2 193.3 151.3C193.5 151.8 193.7 152.3 193.8 152.7C194.2 153.6 194.5 154.6 194.8 155.6C195.4 157.5 196 159.5 196.5 161.5C198.5 169.7 199.9 178 200.6 186.4C201.3 193.8 201.7 201.2 201.8 208.6C201.8 211.2 201.8 213.8 201.8 216.4C201.8 217.3 201.8 218.2 201.7 219C201.7 219.2 201.7 219.3 201.7 219.5C201.7 218.9 201.7 220 201.7 219.5C201.7 219.7 201.7 220 201.7 220.2C201.7 220.4 201.7 220.6 201.7 220.8L202.5 219.6C202.2 219.7 203.1 219.4 202.5 219.6L201.3 219.9C199.8 220.3 198.4 220.6 196.9 221C191.9 222.1 186.8 223 181.7 223.6C167.1 225.4 151.9 225.5 137.6 221.7C128.8 219.6 120.5 215.6 113.4 210C112.6 209.3 111.4 209.2 110.8 210.3C110.4 211.5 110.8 212.8 111.8 213.6C124.9 224.1 141.6 228.4 158.1 229.2C171.1 229.8 184.1 228.6 196.8 225.8C199.4 225.2 202.1 224.6 204.7 223.8C205.1 223.5 205.4 223.1 205.5 222.6C205.6 219.6 205.7 216.5 205.7 213.5C205.7 206.5 205.5 199.5 204.9 192.5C204.3 183.7 203.1 175 201.4 166.4C199.7 158.4 197.4 150.2 193.4 143C190 136.9 185.2 131.2 178.3 129C171.7 126.8 164.6 128.8 158.9 132.4C151.8 137 146.1 143.5 141.2 150.3C135.7 158 130.7 166.2 126.4 174.7C122.6 182 119.1 189.5 115.9 197.1C114.2 201.2 112.5 205.3 111 209.5L110.8 210.1C110.4 211.3 110.8 212.6 111.8 213.4C112.6 214.3 114 214.5 114.4 213.3Z" fill="#000005"/>
<path d="M66.1997 147.8C66.1997 147.8 57.3997 179.8 69.2997 203.7C83.4997 232 154.6 178.6 156.9 150C160 111.5 91.7997 174.6 91.7997 174.6L90.7997 138.6L66.1997 147.8Z" fill="white"/>
<path d="M63.7998 147.6C61.4998 156.7 60.3998 166 60.6998 175.4C60.7998 183.5 62.1998 191.5 64.8998 199.1C66.6998 203.7 68.7998 208 73.0998 210.7C80.4998 215.2 90.1998 213.4 97.7998 210.7C108.4 207 118 200.9 126.9 194.1C136 187.2 144 179.1 150.8 169.9C155.7 163.1 160.2 155 159.6 146.3C159.4 143.2 158.6 140.1 156.1 138.1C153.6 136.1 150.3 135.7 147.2 136C139.4 136.9 132.1 141.3 125.6 145.5C117.9 150.5 110.4 156 103.4 161.9C98.9998 165.5 94.6998 169.2 90.4998 173L89.8998 173.6L94.3998 174.9L93.4998 143.4L93.3998 139C93.2998 137 90.5998 136.9 89.2998 137.4L67.7998 145.5L64.6998 146.6C63.9998 146.9 63.6998 147.6 63.9998 148.3C64.0998 148.5 64.2998 148.7 64.4998 148.9C65.4998 149.6 66.8998 149.8 67.9998 149.3L89.4998 141.3L92.5998 140.1L88.4998 138.5L89.3998 170L89.4998 174.5C89.5998 176.5 92.7998 176.9 94.0998 175.8C96.8998 173.2 99.7998 170.7 102.7 168.2C109.1 162.8 115.6 157.6 122.4 152.7C126 150.1 129.4 147.9 133.3 145.6C135.1 144.6 136.8 143.6 138.6 142.7C139.4 142.3 140.3 141.9 141.2 141.5L142.4 141L143 140.8C143.5 140.6 142.7 140.9 143.3 140.7C144.8 140.2 146.3 139.8 147.8 139.5C147.3 139.6 148.2 139.4 147.8 139.5L148.3 139.4C148.6 139.4 149 139.3 149.3 139.3H149.7C150.3 139.3 149.3 139.2 149.6 139.3C149.9 139.4 150.2 139.4 150.5 139.4C151.3 139.5 150 139.2 150.8 139.4C151 139.5 151.8 139.7 151.4 139.6C151 139.5 151.7 139.8 151.9 139.8C152.1 139.8 152.4 140.2 151.9 139.7C152 139.8 152.1 139.8 152.2 139.9L152.8 140.4C152.9 140.5 153 140.6 153.1 140.8C153.2 141 153.4 141.2 153.5 141.4C153.8 141.8 153.4 141.2 153.6 141.5C153.8 141.8 153.7 141.8 153.8 142C154.3 143.3 154.6 144.7 154.6 146.1C154.7 148 154.6 149.8 154.2 151.7C153.4 155.6 151.9 159.3 149.8 162.7C144.6 171.7 137.3 179.4 129.6 186.2C121.5 193.6 112.3 199.8 102.5 204.7C98.3998 206.8 94.0998 208.3 89.5998 209.4L87.9998 209.7L87.4998 209.8C87.6998 209.8 86.9998 209.9 86.7998 209.9C85.7998 210 84.8998 210.1 83.8998 210.1C83.4998 210.1 82.9998 210.1 82.5998 210.1C83.0998 210.1 82.6998 210.1 82.4998 210.1L81.6998 210C81.2998 210 80.8998 209.9 80.3998 209.9L79.7998 209.8C79.3998 209.7 79.8998 209.8 79.9998 209.8L79.5998 209.7C79.1998 209.6 78.7998 209.5 78.3998 209.4L77.7998 209.2C77.1998 209 77.9998 209.3 77.5998 209.1C77.1998 208.9 76.8998 208.8 76.5998 208.6L76.0998 208.3L75.7998 208.2C75.3998 207.9 76.0998 208.4 75.7998 208.2C75.0998 207.7 74.4998 207.2 73.8998 206.7C73.4998 206.3 73.8998 206.7 73.6998 206.5L73.2998 206C72.9998 205.7 72.7998 205.3 72.4998 205C70.7998 202.4 69.5998 199.6 68.6998 196.7C67.4998 193 66.5998 189.1 65.9998 185.2C64.4998 173.4 65.0998 161.5 67.8998 150C68.0998 149.3 68.1998 148.7 68.3998 148C68.6998 146.9 66.8998 146.2 66.0998 146.1C65.2998 146.1 64.0998 146.4 63.7998 147.6Z" fill="#000005"/>
<path d="M87.2997 122.9C79.0997 118.9 73.3997 111.3 71.7997 102.4C71.4997 100.6 71.0997 98.8002 70.6997 97.0002C67.9997 85.8002 32.9997 71.3002 19.3997 98.2002C5.79971 125.1 28.2997 150.2 60.4997 156.7C92.6997 163.2 101.1 138.1 95.8997 129.7C93.9997 126.8 90.7997 124.6 87.2997 122.9Z" fill="white"/>
<path d="M89.4001 121.7C84.5001 119.4 80.4001 115.6 77.7001 111C76.3001 108.7 75.3001 106.2 74.6001 103.6C73.9001 100.9 73.7001 98.0999 72.8001 95.4999C71.9001 93.2999 70.5001 91.2999 68.6001 89.7999C66.3001 87.7999 63.6001 86.0999 60.8001 84.8999C54.1001 81.7999 46.6001 80.8999 39.3001 82.0999C30.7001 83.5999 23.1001 88.7999 18.5001 96.2999C13.6001 104.3 11.7001 114 14.0001 123.2C16.3001 132.1 22.4001 139.7 29.5001 145.2C38.0001 151.6 47.8001 155.9 58.2001 157.9C67.5001 159.8 77.5001 159.6 86.1001 155C91.9001 152 96.4001 146.9 98.6001 140.7C99.4001 138.3 99.7001 135.8 99.5001 133.3C99.3001 130.8 98.2001 128.4 96.4001 126.6C94.4001 124.5 92.1001 122.9 89.4001 121.7C88.4001 121.2 87.2001 121.7 86.3001 122.2C86.0001 122.4 84.3001 123.6 85.2001 124C88.8001 125.8 92.9001 128.2 94.3001 132.2C94.9001 134.1 95.1002 136.1 94.8001 138.1C94.1002 143.2 91.5001 147.9 87.5001 151.3C86.9001 151.8 86.3001 152.2 85.7001 152.6L85.4001 152.8L85.0001 153C84.6001 153.2 84.2001 153.5 83.7001 153.7C84.1001 153.5 83.1001 154 82.9001 154C82.5001 154.2 82.1001 154.3 81.7001 154.5C81.5001 154.6 81.3001 154.6 80.9001 154.8C80.5001 155 79.9001 155.1 79.3001 155.2C75.3001 156.1 71.1001 156.3 67.1001 155.8C56.8001 154.6 46.9001 151.1 38.1001 145.5C30.6001 140.7 24.0001 134.2 20.4001 126C16.9001 118.1 16.8001 109.1 19.9001 101.1C21.4001 96.8999 23.8001 93.0999 26.8001 89.9999C28.0001 88.7999 29.4001 87.6999 30.9001 86.7999C32.2001 86.0999 33.5001 85.4999 34.9001 84.9999C40.9001 83.0999 48.1001 83.7999 54.3001 86.0999C59.1001 87.7999 64.7001 90.7999 67.3001 95.3999C67.9001 96.4999 68.3001 97.7999 68.5001 98.9999C69.0001 101.8 69.7001 104.6 70.5001 107.3C72.2001 112.1 75.1001 116.3 78.9001 119.6C80.8001 121.3 82.9001 122.6 85.2001 123.7C86.2001 124.2 87.5001 123.6 88.3001 123.2C88.6002 123.4 90.3001 122.2 89.4001 121.7Z" fill="#E987D0"/>
<path d="M72.9997 128.1C72.9997 128.1 72.1997 124.6 69.8997 123.9C67.5997 123.2 61.3997 121 63.4997 118.1C65.5997 115.2 75.6997 117 78.9997 119.6C82.2997 122.2 80.9997 129.5 80.9997 129.5C78.1997 130.2 75.2997 129.7 72.9997 128.1Z" fill="white"/>
<path d="M74.3005 129.4C73.8005 127.7 73.1005 126 72.0005 124.6C71.4005 123.6 70.5005 122.7 69.4005 122.1C68.7005 121.8 68.0005 121.5 67.2005 121.3C66.4005 121 65.6005 120.7 64.8005 120.3C64.4005 120.1 64.1005 119.9 63.7005 119.6C63.6005 119.5 63.4005 119.4 63.3005 119.3C63.5005 119.4 63.2005 119.3 63.2005 119.2C63.2005 119.1 63.4005 119.5 63.5005 119.6C63.8005 120.1 64.1005 120.7 64.3005 121.3C64.3005 121.3 64.3005 121.1 64.3005 121.2C64.3005 121.3 64.4005 120.9 64.4005 120.8C64.5005 120.5 64.7005 120.2 64.9005 120C65.4005 119.6 66.0005 119.2 66.6005 119.1C68.3005 118.8 70.1005 118.8 71.8005 119.1C73.7005 119.4 75.5005 119.8 77.3005 120.6C78.0005 120.9 78.7005 121.2 79.3005 121.7C79.4005 121.8 79.5005 121.8 79.6005 121.9C79.7005 121.9 79.7005 122 79.6005 121.9L79.4005 121.6C79.4005 121.5 79.1005 121 79.2005 121.3C79.3005 121.6 79.2005 121.2 79.1005 121.2C79.0005 121.2 79.2005 121.5 79.1005 121.3C79.0005 121.1 79.2005 121.6 79.2005 121.6C79.6005 123.1 79.7005 124.7 79.5005 126.2C79.5005 126.7 79.4005 127.2 79.3005 127.7C79.3005 127.9 79.5005 127.7 79.3005 127.7C79.1005 127.7 78.8005 127.8 78.6005 127.8C76.3005 128.2 73.8005 127.7 71.9005 126.3C71.1005 125.7 71.5005 127.2 71.6005 127.5C72.0005 128.6 72.6005 129.6 73.5005 130.3C75.9005 132.1 79.0005 132.7 81.8005 131.9L81.9005 131.7C82.4005 129.2 82.2005 126.5 81.6005 124C80.9005 121.5 79.5005 119.3 77.6005 117.7C76.3005 116.7 74.8005 116 73.2005 115.6C71.4005 115.1 69.6005 114.7 67.8005 114.6C66.2005 114.4 64.6005 114.6 63.1005 115.1C58.8005 116.9 63.0005 122.5 65.4005 124C67.0005 124.9 68.6005 125.7 70.4005 126.2C70.8005 126.3 71.1005 126.5 71.4005 126.7L71.3005 126.6C71.4005 126.6 71.5005 126.9 71.3005 126.6C71.1005 126.3 70.8005 125.8 71.1005 126.4C70.9005 126 71.0005 126.3 71.1005 126.5C71.0005 126.2 71.1005 126.6 71.1005 126.5C71.1005 126.6 71.2005 126.8 71.2005 126.9C71.5005 128 72.1005 129.1 73.0005 129.9C74.2005 130.5 74.5005 130.2 74.3005 129.4Z" fill="#000005"/>
<path d="M67.2998 138.6C67.2998 138.6 59.9998 142.1 66.1998 147.9C72.3998 153.7 79.3998 144.8 76.9998 141.1C74.5998 137.4 69.4998 136.9 67.2998 138.6Z" fill="white"/>
<path d="M65.2003 137.4C63.6003 138.1 62.4003 139.4 61.7003 141C61.3003 142.5 61.5003 144.1 62.4003 145.3C63.8003 147.4 65.8003 149.1 68.2003 150C70.1003 151 72.4003 151.2 74.5003 150.6C75.9003 150.1 77.1003 149.2 78.1003 148.1C79.0003 147.1 79.6003 145.8 79.8004 144.5C80.0004 143.1 79.5003 141.6 78.4003 140.6C76.3003 138.4 73.5003 137 70.5003 136.5C68.6003 136.1 66.7003 136.5 65.2003 137.4C64.5003 137.9 66.1003 138.8 66.4003 139C67.0003 139.3 67.6003 139.6 68.2003 139.7C68.5003 139.8 69.1003 140 69.4003 139.8C69.9003 139.5 70.4003 139.2 71.0003 139.1C71.0003 139.1 71.3003 139 71.2003 139H71.3004L71.8004 138.9C72.0004 138.9 72.2004 138.9 72.3004 138.9H72.5003C72.3003 138.9 72.8003 138.9 72.5003 138.9C72.7003 138.9 72.8003 138.9 73.0003 139C73.1003 139 73.2004 139 73.3004 139.1C73.3004 139.1 72.8003 139 73.2003 139.1L73.5003 139.2C73.7003 139.3 73.7004 139.4 73.3004 139.1C73.4004 139.1 73.5003 139.2 73.5003 139.2C73.9003 139.3 73.0004 139 73.3004 139.1C73.8004 139.3 72.8003 138.8 73.4003 139.1C73.6003 139.2 73.5003 139.3 73.2003 139C73.3003 139.1 73.3003 139.1 73.4003 139.1C73.5003 139.1 73.6003 139.2 73.6003 139.3C73.6003 139.3 73.2003 139 73.5003 139.2L73.7003 139.4C73.7003 139.4 74.0004 139.8 73.8004 139.5C74.1004 139.8 74.3003 140.1 74.6003 140.4L74.7003 140.6C74.5003 140.4 74.6003 140.5 74.7003 140.6C74.8003 140.7 74.8003 140.8 74.9003 141C75.0003 141.4 75.1003 141.9 75.1003 142.4C75.0003 143.6 74.5004 144.7 73.8004 145.6C73.1004 146.6 72.1003 147.5 71.0003 148C70.7003 148.1 70.5003 148.2 70.2003 148.3L69.8004 148.4L69.6003 148.5C69.8003 148.4 69.5003 148.5 69.5003 148.5C69.2003 148.5 68.9003 148.5 68.6003 148.6C69.0003 148.6 68.6003 148.6 68.4003 148.6C68.3003 148.6 68.2003 148.6 68.2003 148.6C68.7003 148.6 68.4004 148.6 68.3004 148.6L68.5003 148.7C68.4003 148.7 68.3004 148.6 68.3004 148.6C69.0004 148.8 68.7003 148.8 68.6003 148.7C69.3003 149 69.0004 148.9 68.8004 148.8L68.6003 148.7C69.1003 148.9 68.9003 148.9 68.7003 148.8C68.5003 148.7 68.4003 148.6 68.6003 148.7C68.8003 148.8 68.5003 148.6 68.5003 148.6C67.8003 148.1 67.3004 147.4 66.8004 146.7C66.1004 145.7 66.0004 144.5 66.3004 143.4C66.9004 141.9 68.0003 140.6 69.5003 140C70.3003 139.6 68.5004 138.6 68.3004 138.4C67.7004 138.1 67.1003 137.8 66.5003 137.7C66.0003 137.4 65.6003 137.3 65.2003 137.4Z" fill="#E987D0"/>
<path d="M45.2002 132.9C45.2002 132.9 37.9002 136.4 44.1002 142.2C50.3002 148 57.3002 139.1 54.8002 135.4C52.3002 131.7 47.4002 131.2 45.2002 132.9Z" fill="#E987D0"/>
<path d="M43.5004 131.1C41.8004 131.9 40.5004 133.3 39.7004 135C39.2004 136.7 39.5004 138.5 40.5004 140C41.9004 142.3 43.9004 144.1 46.3004 145.2C49.5004 146.6 53.3004 145.7 55.5004 142.9C56.4004 141.8 57.1004 140.5 57.3004 139C57.5004 137.2 56.9004 135.4 55.6004 134.1C53.9004 132.1 51.5004 130.7 48.8004 130.2C47.1004 129.8 45.2004 130.1 43.5004 131.1C42.6004 131.7 43.2004 132.9 43.8004 133.5C44.2004 134 44.8004 134.4 45.4004 134.6C45.8004 134.7 46.4004 135 46.8004 134.7C47.3004 134.4 47.8004 134.1 48.4004 134C48.2004 134 48.7004 133.9 48.4004 134H48.6004H49.1004C49.3004 134 49.5004 134 49.6004 134H49.8004C49.9004 134 50.2004 134 49.9004 134C49.6004 134 50.2004 134 50.2004 134C50.4004 134 50.6004 134.1 50.8004 134.1L51.0004 134.2C51.2004 134.3 51.0004 134.3 50.8004 134.2C50.9004 134.3 51.2004 134.3 51.4004 134.4L51.7004 134.5C51.9004 134.6 51.9004 134.7 51.5004 134.4C51.7004 134.5 51.8004 134.6 52.0004 134.7C52.1004 134.8 52.2004 134.8 52.2004 134.8C52.2004 134.8 51.7004 134.4 52.0004 134.7C52.3004 135 52.4004 135 52.5004 135.1C52.5004 135.1 52.0004 134.6 52.3004 135L52.5004 135.2C52.6004 135.3 52.6004 135.4 52.7004 135.4C52.4004 135.1 52.5004 135.1 52.6004 135.3C52.7004 135.5 52.8004 135.6 52.9004 135.7C53.0004 135.8 52.8004 135.5 52.8004 135.4C52.8004 135.5 52.9004 135.6 52.9004 135.6C53.1004 136 52.9004 135.3 52.9004 135.5C52.9004 135.7 52.9004 135.7 53.0004 135.8C53.1004 135.9 53.0004 136 53.0004 136.2C53.0004 136.5 53.0004 135.9 53.0004 136.1C53.0004 136.3 53.0004 136.2 53.0004 136.3C53.0004 136.8 52.8004 137.4 52.6004 137.9C52.6004 138 52.5004 138 52.5004 138.1C52.4004 138.4 52.6004 137.9 52.5004 138.1C52.4004 138.3 52.4004 138.4 52.3004 138.5C52.1004 138.8 52.0004 139.1 51.8004 139.3C51.4004 139.8 51.0004 140.3 50.6004 140.7L50.2004 141L50.0004 141.1C49.7004 141.3 49.4004 141.5 49.1004 141.6C48.8004 141.7 48.6004 141.8 48.3004 141.9L47.9004 142C48.3004 141.9 47.8004 142 47.6004 142C47.3004 142 47.0004 142 46.7004 142C46.4004 142 46.8004 142 46.8004 142H46.6004L46.0004 141.9C45.7004 141.8 46.1004 141.9 46.2004 142C46.3004 142.1 46.0004 141.9 46.0004 141.9C46.0004 141.9 45.7004 141.8 45.5004 141.7C46.0004 141.8 45.9004 141.9 45.7004 141.8L45.4004 141.6C45.3004 141.5 45.2004 141.5 45.2004 141.5C44.9004 141.3 45.7004 141.9 45.3004 141.6L44.8004 141.2C44.4004 140.9 45.1004 141.5 44.8004 141.2L44.5004 140.9C44.3004 140.7 44.2004 140.6 44.0004 140.4C43.8004 140.2 44.3004 140.8 44.1004 140.5L43.9004 140.2L43.7004 139.9C43.7004 139.8 43.5004 139.6 43.7004 139.8C43.9004 140 43.6004 139.6 43.6004 139.5L43.5004 139.3C43.4004 139 43.6004 139.2 43.5004 139.4C43.5004 139.3 43.4004 139 43.4004 138.9C43.4004 138.8 43.4004 138.6 43.4004 138.5C43.4004 138.4 43.4004 138.2 43.4004 138.6C43.4004 138.5 43.4004 138.5 43.4004 138.4C43.4004 138.1 43.5004 137.9 43.5004 137.6L43.7004 137.2C43.7004 137 43.6004 137.4 43.7004 137.3C43.8004 137.2 43.8004 137.2 43.8004 137.1C43.9004 136.8 44.1004 136.6 44.3004 136.4C44.6004 136 45.0004 135.6 45.4004 135.3L45.5004 135.2C45.7004 135 45.2004 135.4 45.4004 135.3L45.7004 135.1L46.1004 134.8C46.3004 134.7 46.4004 134.6 46.5004 134.6C48.7004 133.8 45.1004 130.3 43.5004 131.1Z" fill="#E987D0"/>
<path d="M30.7002 116.4C30.7002 116.4 23.4002 119.9 29.6002 125.7C35.8002 131.5 42.8002 122.6 40.3002 118.9C37.8002 115.2 33.0002 114.8 30.7002 116.4Z" fill="white"/>
<path d="M29.4001 114.3C27.6001 115.2 26.2001 116.6 25.4001 118.5C23.7001 122.9 27.5001 127.6 31.4001 129.3C34.8001 130.9 38.6001 129.4 40.9001 126.7C42.0001 125.4 42.7001 123.9 43.0001 122.3C43.3001 120.3 42.7001 118.3 41.3001 116.9C39.7001 115 37.5001 113.7 35.0001 113.3C33.1001 112.8 31.1001 113.2 29.4001 114.3C28.5001 115 28.3001 116.4 29.1001 117.4C29.7001 118.3 31.0001 119.3 32.1001 118.5C32.3001 118.3 32.6001 118.2 32.8001 118.1C32.3001 118.2 33.2001 117.9 32.8001 118.1L33.3001 118C33.6001 117.9 33.9001 117.9 34.3001 117.8C34.7001 117.7 33.9001 117.8 34.1001 117.8C34.2001 117.8 34.3001 117.8 34.4001 117.8H35.0001C35.4001 117.9 35.7001 117.9 36.1001 118C36.1001 118 35.6001 117.9 35.9001 118L36.1001 118.1C36.3001 118.2 36.5001 118.2 36.7001 118.3C36.9001 118.4 37.1001 118.5 37.2001 118.5C37.2001 118.5 36.7001 118.2 37.0001 118.4L37.2001 118.5C37.4001 118.6 37.5001 118.7 37.7001 118.8L37.9001 119L38.1001 119.1L37.9001 118.9C38.0001 119 38.2001 119.2 38.3001 119.3C38.4001 119.4 38.6001 119.6 38.7001 119.7C39.0001 120 38.6001 119.6 38.6001 119.5C38.7001 119.6 38.7001 119.7 38.8001 119.7C39.0001 120 39.0001 120.3 38.8001 119.5C38.8001 119.6 38.9001 119.7 38.9001 119.8C39.1001 120.3 38.8001 119.3 38.9001 119.6C38.9001 119.7 38.9001 119.8 38.9001 119.9C39.0001 120.4 38.9001 119.3 38.9001 119.8C38.9001 120.1 38.8001 120.3 38.8001 120.6C38.7001 121 39.0001 120.1 38.8001 120.5C38.8001 120.6 38.7001 120.8 38.7001 120.9C38.6001 121.2 38.5001 121.4 38.3001 121.7L38.2001 121.9C38.1001 122.1 38.4001 121.5 38.3001 121.7C38.2001 121.9 38.1001 122 38.0001 122.2C37.6001 122.7 37.2001 123.2 36.7001 123.7C36.5001 123.9 37.1001 123.4 36.9001 123.6C36.7001 123.8 36.7001 123.7 36.7001 123.8L36.3001 124.1C36.0001 124.3 35.7001 124.5 35.4001 124.6C35.3001 124.7 35.1001 124.7 35.0001 124.8C34.9001 124.9 35.5001 124.6 35.2001 124.7L35.0001 124.8C34.7001 124.9 34.3001 125 34.0001 125C33.4001 124.9 33.8001 125 34.0001 125C33.8001 125 33.7001 125 33.5001 125H33.0001H32.8001C32.4001 124.9 33.3001 125.1 32.9001 125C32.5001 124.9 32.3001 124.8 32.0001 124.7C31.7001 124.6 32.1001 124.8 32.2001 124.8C32.1001 124.7 32.0001 124.7 31.9001 124.6C31.7001 124.5 31.5001 124.4 31.4001 124.3L31.2001 124.1C30.8001 123.8 31.3001 124.2 31.3001 124.2C31.1001 124 30.9001 123.8 30.7001 123.7C30.5001 123.5 30.4001 123.4 30.2001 123.2C30.1001 123.1 30.0001 123 30.0001 123C29.7001 122.6 30.0001 122.9 30.1001 123.1C30.1001 122.9 29.8001 122.7 29.7001 122.6C29.6001 122.5 29.3001 121.9 29.6001 122.4C29.9001 122.9 29.5001 122.2 29.5001 122.1C29.5001 122 29.5001 121.9 29.4001 121.9C29.3001 121.5 29.5001 122.4 29.4001 122.1C29.3001 121.8 29.4001 121.8 29.3001 121.7C29.3001 121.6 29.3001 121.5 29.3001 121.4C29.3001 121.4 29.3001 122 29.3001 121.7C29.3001 121.6 29.3001 121.4 29.3001 121.3C29.2001 121.7 29.3001 120.8 29.3001 121.3C29.4001 121 29.5001 120.8 29.6001 120.5C29.7001 120.2 29.5001 120.7 29.5001 120.7C29.6001 120.6 29.6001 120.6 29.6001 120.5C29.7001 120.4 29.8001 120.3 29.8001 120.2C30.0001 120 30.1001 119.8 30.3001 119.6L30.6001 119.4C30.1001 119.9 30.4001 119.6 30.6001 119.4C31.0001 119 31.5001 118.7 32.0001 118.5C32.5001 118.2 32.8001 117.7 32.8001 117.2C32.9001 116.6 32.7001 115.9 32.4001 115.4C31.8001 114.3 30.6001 113.8 29.4001 114.3Z" fill="#E987D0"/>
<path d="M36.2998 96.5C36.2998 96.5 28.9998 100 35.1998 105.8C41.3998 111.6 48.3998 102.7 45.9998 99C43.5998 95.3 38.4998 94.8 36.2998 96.5Z" fill="#000005"/>
<path d="M34.9997 94.3C33.4997 95 32.2997 96.3 31.5997 97.8C30.9997 99.6 31.7997 101.4 32.6997 103C33.9997 105.3 35.6997 107.8 38.0997 109C40.8997 110.4 44.0997 109.3 45.9997 106.9C46.8997 105.9 47.3997 104.6 47.6997 103.2C47.7997 102.6 47.6997 101.9 47.4997 101.3C46.9997 99.8 46.1997 98.4 45.1997 97.2C43.9997 95.4 41.9997 94 39.7997 93.5C38.1997 93.1 36.3997 93.4 34.9997 94.3C34.6997 94.5 35.8997 96.3 35.9997 96.6C36.0997 96.9 37.2997 98.8 37.5997 98.6C39.8997 97 43.2997 97.6 45.3997 99.2C45.6997 99.4 45.8997 99.6 46.1997 99.9C46.2997 100 46.3997 100.1 46.1997 99.9C46.3997 100.1 46.1997 99.9 46.1997 99.8L46.2997 99.9L45.2997 98.2C45.3997 98.3 44.9997 97.5 45.0997 97.8C45.0997 97.9 45.0997 97.9 45.0997 98C45.0997 98 45.0997 98.2 45.0997 98.3C45.0997 98.6 45.0997 98.8 45.0997 99.1C44.9997 100.3 44.4997 101.4 43.7997 102.3C42.2997 104.4 39.7997 105.9 37.1997 105.3C36.4997 105.1 35.7997 104.9 35.1997 104.5C34.7997 104.3 34.4997 104 34.1997 103.8C33.9997 103.6 33.8997 103.5 33.6997 103.3L33.4997 103C33.4997 103 33.1997 102.7 33.3997 102.8C33.0997 102.4 33.5997 103 33.3997 102.8C33.1997 102.6 33.8997 103.6 33.7997 103.4C33.9997 103.7 34.0997 103.9 34.1997 104.2C34.2997 104.5 34.1997 104 34.1997 104.3C34.1997 104.6 34.0997 103.9 34.0997 104.1C34.0997 103.9 33.9997 103.8 33.9997 103.6C33.8997 103.1 33.9997 102.5 34.1997 102C34.7997 100.5 35.9997 99.2 37.5997 98.5C37.8997 98.4 36.6997 96.4 36.5997 96.2C36.2997 95.7 35.9997 95.2 35.5997 94.7C35.4997 94.7 35.1997 94.2 34.9997 94.3Z" fill="#000005"/>
<path d="M216.5 99.0002C214.2 98.4002 211.6 97.4002 210.3 93.9002C208.9 90.3002 208.3 87.0002 206.4 81.6002C206 80.4002 205.5 79.1002 205 77.7002L203.6 81.2002C199.9 90.5002 192.3 97.7002 182.8 101L181.9 100.7C182.5 117.2 170.8 122.4 170.8 122.4C170.8 122.4 171.5 134.8 171.3 134.5L171.5 134.7C172.9 136.7 183.2 150.3 193 145.3C193 145.3 192.3 143.1 191.6 140.3C190.9 137.5 191.5 135.9 199.9 132.5C216.5 125.9 213.4 110.3 213.4 110.3C215.5 110.3 217.7 109.8 219.6 108.9C223 107.6 226.4 101.6 216.5 99.0002Z" fill="white"/>
<path d="M216.5 96.9001C215.2 96.7001 214.1 96.0001 213.3 95.0001C212.2 93.6001 211.8 91.7001 211.4 90.0001C210.2 85.8001 208.9 81.6001 207.4 77.5001C206.8 75.8001 203.8 74.3001 202.9 76.6001C201.2 80.9001 199.5 85.0001 196.5 88.6001C192.6 93.3001 187.6 96.9001 181.8 98.8001H182.9L182 98.5001C181.1 98.2001 180.1 98.7001 179.8 99.7001C179.8 99.8001 179.7 100 179.7 100.2C179.9 106 178.5 111.7 174.7 116.2C174.4 116.6 174.1 116.9 173.7 117.3C173.3 117.7 173.3 117.7 172.9 118.1C172.4 118.6 171.8 119 171.2 119.4C170.8 119.7 170.3 120 169.9 120.2C169.6 120.4 169.1 120.6 169.8 120.2C169.1 120.4 168.6 121.1 168.7 121.8L169 127.6C169.1 129 169.1 130.3 169.2 131.6C169.2 132.1 169.2 132.6 169.2 133.1C169.2 133.3 169.2 133.4 169.2 133.6C169.3 134.1 168.8 134.2 169.5 132.9L172.1 132.5C170.5 131.7 168.3 133.3 169.5 135C174.9 142.7 184.9 151.9 194.9 147.1C195.5 146.7 195.7 145.9 195.5 145.2C194.9 143.4 194.4 141.6 194 139.8C194 139.7 194 139.4 194 139.9V139.5C194 139.4 194 139.3 194 139.2C194 138.8 193.9 139.5 194 139.3C194 139.2 194.2 138.6 194.1 138.8C194 139 194.2 138.7 194.2 138.7L194.5 138.3C194.5 138.3 194.9 137.9 194.6 138.2C194.7 138.1 194.8 138 194.9 137.9C195.2 137.7 195.5 137.4 195.9 137.2C196.9 136.6 197.9 136.1 198.9 135.6C201.4 134.6 203.8 133.5 206.1 132.2C212.1 128.5 215.9 122 216.2 114.9C216.3 113.3 216.2 111.7 215.9 110.2L214.3 112.4C216.6 112.4 219 111.9 221.1 110.9C222.8 110.2 224.2 108.9 225 107.3C225.9 105.5 225.8 103.3 224.7 101.6C223 98.8001 219.7 97.6001 216.7 96.8001C215.8 96.5001 214.8 97.0001 214.5 98.0001C214.5 98.1001 214.4 98.3001 214.4 98.4001C214.6 99.7001 215.5 100.7 216.8 101C217.9 101.3 218.9 101.7 219.8 102.2C220 102.3 220.2 102.4 220.3 102.6C220.7 102.9 219.9 102.2 220.4 102.7C220.4 102.7 220.8 103.2 220.6 102.9C220.4 102.6 220.7 103.1 220.7 103.2C220.7 103.3 220.8 103.5 220.8 103.4C220.8 103.5 220.8 103.7 220.8 103.8C220.8 104.3 220.9 103.5 220.8 104C220.7 104.3 220.7 104.6 220.6 104.8C220.4 105.3 220.8 104.5 220.5 105C220.4 105.1 220.4 105.2 220.3 105.4C220.1 105.6 219.9 105.9 219.7 106.1C219.5 106.3 219.9 105.9 219.6 106.2C219.5 106.3 219.3 106.4 219.2 106.5C219 106.7 218.7 106.8 218.5 106.9C219.1 106.6 218 107.1 218.1 107.1L217.1 107.5C215.8 108 214.3 108.3 212.9 108.3C211.6 108.2 211.1 109.5 211.3 110.5C211.4 110.9 211.3 110.1 211.3 110.2C211.3 110.5 211.4 110.8 211.4 111C211.5 111.9 211.5 112.7 211.5 113.6C211.4 116.3 210.8 118.9 209.6 121.3C207.8 124.6 205.1 127.4 201.8 129.2C199.5 130.5 197 131.3 194.6 132.4C192.9 133.1 191.4 134.1 190.2 135.5C189.3 136.7 189 138.2 189.4 139.7C189.8 141.7 190.3 143.6 191 145.4L191.6 143.5C187.4 145.6 183.1 143.2 179.9 140.6C179.1 140 178.4 139.3 177.7 138.6C177 137.9 176.3 137.2 175.7 136.5C175.2 135.9 174.7 135.3 174.2 134.7L173.7 134C173.2 133.3 174.1 134.5 173.6 133.9L171 136.4C171.7 136.8 173.1 136.8 173.6 136C173.9 135.2 174 134.2 173.9 133.3C173.9 131.9 173.8 130.5 173.7 129.1C173.6 127 173.5 124.9 173.4 122.8L172.2 124.4C180.9 120.4 184.7 110.1 184.4 101.1L182.1 102.9C182.7 103.1 183.3 103.2 183.9 103.2C184.8 103 185.6 102.7 186.5 102.3C188.2 101.6 189.9 100.8 191.4 99.8001C194.4 98.0001 197.1 95.7001 199.4 93.1001C203.2 88.9001 205.4 84.0001 207.5 78.8001L203 77.9001C204.8 82.5001 206 87.3001 207.5 92.0001C208.1 94.3001 209.2 96.4001 210.7 98.2001C212.4 99.8001 214.5 100.8 216.7 101.4C217.6 101.7 218.6 101.1 218.9 100.2C218.9 100.1 219 99.9001 219 99.8001C218.7 98.2001 217.7 97.1001 216.5 96.9001Z" fill="#000005"/>
<path d="M180.1 101C180.1 101 186.7 136.5 155.2 147C141.7 151.5 131.1 141 134.7 126.7C134.2 121.3 144.1 101.5 145 97.5001C151.4 69.5001 164.8 67.6001 179 66.6001C193.9 65.6001 203.7 70.9001 206.5 76.8001C206.9 77.7001 206.8 79.4001 206.4 81.5001C206 80.3001 205.5 79.0001 205 77.6001L203.6 81.1001C199.9 90.4001 192.3 97.6001 182.8 100.9" fill="white"/>
<path d="M177.7 100.6C178.9 108.1 178.4 115.7 176.1 123C174.2 129.4 170.4 135 165.4 139.4C162.3 141.9 158.9 143.9 155.2 145.3C153.1 146.2 150.9 146.7 148.7 146.9C147.9 147 147.1 146.9 146.3 146.8C145.5 146.7 144.8 146.5 144.1 146.2C141 144.8 138.6 142.1 137.5 138.8C136.8 136.8 136.4 134.7 136.4 132.6C136.4 130.6 137 128.5 137.1 126.7C137.2 123.8 138.4 120.9 139.4 118.3C140.7 114.7 142.3 111.1 143.8 107.6C145 104.9 146.2 102.2 147.2 99.3003C147.8 97.6003 148.1 95.7003 148.6 94.0003C149.3 91.5003 150.1 89.1003 151.1 86.8003C153.8 80.4003 157.9 74.3003 164.4 71.3003C169.7 68.7003 175.8 68.2003 181.7 67.9003C189.2 67.5003 199.1 68.7003 203.8 75.5003C205 77.2003 204.7 79.0003 204.3 81.0003L209.1 82.1003C208.7 80.8003 208.2 79.5003 207.7 78.2003C207.3 77.1003 203.5 75.7003 202.9 77.2003C201.1 81.6003 199.4 85.8003 196.3 89.6003C192.3 94.4003 187.1 98.1003 181.2 100.1C180.1 100.5 181.2 101.4 181.7 101.7C182.7 102.3 183.9 102.5 185.1 102.3C191.2 100.2 196.7 96.4003 200.9 91.4003C204.1 87.5003 206 83.2003 207.8 78.6003L203 77.5003C203.5 78.8003 204 80.1003 204.4 81.4003C204.7 82.3003 206.1 82.7003 206.8 82.9003C207.3 83.0003 209 83.3003 209.2 82.5003C209.6 80.3003 209.8 78.3003 208.6 76.3003C207.7 74.9003 206.5 73.6003 205.2 72.5003C201.5 69.7003 197.3 67.7003 192.8 66.8003C187.4 65.6003 181.8 65.3003 176.3 65.8003C173.1 66.0003 170 66.4003 166.9 67.1003C160.4 68.5003 154.7 72.3003 150.8 77.7003C148.2 81.5003 146.2 85.7003 144.9 90.1003C143.8 93.7003 143.1 97.3003 141.7 100.8C138.8 107.8 135.3 114.8 133.3 122.1C132.9 123.3 132.7 124.6 132.7 125.9C132.6 126.9 132.4 128 132.2 129C132 130.2 132 131.4 132 132.6C132 136.8 133.7 140.9 136.5 143.9C139.8 147.2 144.1 149.1 148.8 149.5C153.6 149.9 158.2 148.5 162.5 146.5C169.5 143.2 175.2 137.8 178.8 130.9C183.2 122.3 184.5 111.8 183 102.3L182.9 101.7C182.2 100.1 177.4 99.2003 177.7 100.6Z" fill="#000005"/>
<path d="M203.4 96.2C204.1 97.1 203.9 98.3 203.1 99C203 99.1 202.9 99.1 202.8 99.2C200.8 100.3 199.5 97.9 200.9 96.4C201.5 95.6 202.5 95.5 203.3 96C203.2 96.1 203.3 96.2 203.4 96.2Z" fill="#000005"/>
<path d="M204.8 94.2002C207.5 93.7002 209.9 92.0002 211.2 89.6002C212.7 86.9002 212.8 83.6002 211.5 80.7002C210.2 77.2002 207.8 74.3002 204.7 72.3002C201.9 70.8002 198.7 70.2002 195.5 70.7002C194.5 70.8002 195.5 72.5002 195.8 72.9002C196.4 73.6002 197.4 74.7002 198.5 74.6002C200.7 74.2002 203.1 74.5002 205.1 75.5002C206.7 76.4002 207.9 78.5002 208.4 80.5002C209.4 84.9002 206.6 89.3002 202.2 90.3002C202.1 90.3002 201.9 90.4002 201.8 90.4002C200.8 90.6002 201.8 92.2002 202.1 92.6002C202.6 93.2002 203.7 94.4002 204.8 94.2002Z" fill="#000005"/>
<path d="M220.5 88.2C221.2 83.5 219.4 78.8 215.7 75.8C212.1 72.9 207.4 71.9 203 71.5C202.6 71.6 202.2 71.7 201.9 71.9C201.3 72.2 200.8 72.5 200.2 72.8C199.8 73 199.4 73.3 199 73.7C198.9 73.8 198.6 74 198.9 74C203.4 74.5 208 75.5 211.6 78.4C215.2 81.4 216.9 86 216.2 90.6C216.2 90.7 217.1 90.4 217 90.4C217.5 90.2 218.1 89.9 218.6 89.6C219 89.5 220.4 88.9 220.5 88.2Z" fill="#000005"/>
<path d="M185.3 108C185.3 108 184.1 97.6002 176.9 101.7C169.7 105.8 176.5 116.7 182.9 118.5" fill="white"/>
<path d="M187.7 107.4C187.3 104 185.5 99.9998 181.7 99.6998C178.2 99.3998 173.7 101.2 172 104.5C170.6 107.2 171.5 110.4 173 112.8C174.7 116 177.5 118.4 180.9 119.5C182.1 119.8 183.3 119.6 184.3 119C184.8 118.8 186 117.8 184.9 117.5C182.4 116.6 180.2 114.9 178.7 112.7C177.2 110.7 175.9 108 176.3 105.5C176.4 104.3 177 103.3 177.9 102.5C177.9 102.5 178.3 102.2 178.5 102.1C178.2 102.3 178.6 102 178.7 102L179.2 101.8C178.8 102 179.1 101.8 179.3 101.8C179.7 101.7 178.7 102 179.2 101.8C178.6 101.9 179.7 101.6 179.2 101.8C178.8 101.9 178.9 101.7 179.2 101.8C178.5 101.5 179.8 102 179.2 101.8C179.4 101.9 179.6 101.9 179.8 102C180.2 102.2 179.6 101.9 179.9 102.1L180.1 102.2C180.3 102.3 180.5 102.5 180.7 102.7C181.3 103.3 181.8 104 182.1 104.8C182.6 106 182.9 107.2 183.1 108.5C183.1 109.7 187.9 108.8 187.7 107.4Z" fill="#000005"/>
<path d="M199.001 115C198.601 115.1 199.701 115 199.301 115H199.101C199.001 115 199.901 115.1 199.601 115H199.501C199.201 115 200.201 115.1 200.001 115.1L199.701 115C199.701 115 200.401 115.2 200.101 115.1L200.001 115L199.901 114.9C199.601 114.8 200.201 115.1 200.201 115.1C200.001 115 199.801 114.9 199.701 114.8L200.101 115.1C199.801 114.9 199.601 114.6 199.401 114.4L199.601 114.7C199.301 114.2 199.101 113.7 199.001 113.2L199.101 113.5C199.001 112.7 199.101 112 199.301 111.2C199.401 110.9 198.901 110.4 198.701 110.3C198.201 110 197.601 109.8 197.001 109.7C196.401 109.6 195.801 109.7 195.201 109.9L194.801 110.1C194.601 110.2 194.401 110.4 194.401 110.7C193.801 112.3 194.101 114.1 195.301 115.4C196.801 117.1 199.401 117.6 201.601 117.4C202.101 117.4 202.501 117.1 202.801 116.8C203.001 116.5 203.001 116 202.701 115.8C201.401 115.1 200.201 114.8 199.001 115Z" fill="#000005"/>
<path d="M157.4 96.5001C163.7 96.8001 170 96.8001 175.7 93.9001C181.4 91.0001 186.5 86.9001 191.5 83.0001C192.1 82.6001 190.1 82.0001 189.9 82.0001C189.3 81.8001 187.4 81.2001 186.8 81.7001C182.1 85.4001 177.2 89.3001 171.8 92.2001C169.2 93.6001 166.3 94.6001 163.4 94.9001C160.3 95.2001 157.2 95.2001 154.1 94.9001C153.2 94.9001 153.2 95.3001 153.9 95.7001C155 96.2001 156.2 96.5001 157.4 96.5001Z" fill="#000005"/>
<path d="M161.4 113.3C157.3 120.4 152.5 127.1 147.1 133.3C146.5 134 146.7 134.8 147.7 134.8C148.9 134.9 150.1 134.4 151 133.5C156.6 127.1 161.5 120.1 165.8 112.7C166.4 111.7 165.1 111.5 164.4 111.5C163.2 111.8 162.1 112.4 161.4 113.3Z" fill="#000005"/>
<path d="M317.6 162.2C320.8 163.1 324.2 163.4 327.5 163.2C330.6 163.1 333.8 163 336.5 161.5C341 158.9 342.8 153.5 342.9 148.6C342.9 147.9 341.4 147.2 340.9 147C340.3 146.7 339.1 146.2 338.4 146.7C337 147.6 335.5 148.3 333.9 148.9C333.5 149 333.2 149.1 332.8 149.2C332.4 149.2 331.9 149.3 331.5 149.3C331.1 149.5 332.3 149.4 332 149.6C331.9 149.7 331.5 148.9 331.5 148.9C331 148 329.5 147.4 328.5 147.2C327.9 147.1 326.7 147 327.2 148C328.5 150.4 331.8 151.8 334.4 151.9C337.3 152 340.1 150.4 342.5 149L338.1 147C338 151.3 336.4 156.2 332.6 158.7C330.4 160.2 327.8 160.5 325.2 160.5C322.6 160.5 319.5 160.8 316.9 160C316.4 159.9 314.8 159.4 314.9 160.3C315 161.2 317.1 162 317.6 162.2Z" fill="white"/>
<path d="M136.2 103.1C138.4 101.8 185.9 69.0003 202.7 61.9003C211.5 58.2003 176.4 51.6003 148.6 76.5003C134.6 89.2003 136.2 103.1 136.2 103.1Z" fill="#E987D0"/>
<path d="M135.8 104L135.7 103.2C135.7 103.1 134.2 88.9001 148.3 76.2001C169.8 56.9001 196.5 56.1001 203.1 59.1001C204.1 59.6001 204.6 60.1001 204.6 60.7001C204.6 61.3001 204 61.9001 202.9 62.4001C188.9 68.3001 152.7 92.6001 140.8 100.6C138.3 102.3 136.8 103.3 136.4 103.5L135.8 104ZM194.2 58.8001C183.1 58.8001 164.7 62.9001 149 77.0001C143.6 81.7001 139.6 87.8001 137.7 94.7001C137 97.2001 136.7 99.7002 136.7 102.3L140.3 99.9002C153.5 91.0002 188.4 67.5001 202.6 61.6001C203.5 61.3001 203.7 60.9001 203.7 60.8001C203.7 60.7001 203.5 60.4001 202.8 60.1001C201 59.3001 198 58.8001 194.2 58.8001Z" fill="#E987D0"/>
<path d="M138.4 107C152.1 91.2 169.6 79.2 189.3 72.2C193.3 70.8 197.3 69.6 201.4 68.6C202.5 68.3 201.9 67.2 201.4 66.6C200.5 65.8 199.3 65.4 198.1 65.5C173.1 71.5 150.6 85.2 133.9 104.8C133 105.9 137.2 108.4 138.4 107Z" fill="#000005"/>
</svg>
