<svg transform="scale(1)" version="1.1" id="piiTZHJMTU" xmlns="http://www.w3.org/2000/svg" xmlns:xlink="http://www.w3.org/1999/xlink" x="0px" y="0px" viewBox="0 0 500 500" xml:space="preserve" class="pbimage_pbimage__wrapper__image__0LEis false"><title>Website Design 1</title><style type="text/css"> .st0{fill:#FFFFFF;} .st1{fill:#59BE4C;} .st2{fill:#000005;}
 .st2{fill:#000005;}
 .st1{fill:#59BE4C;}
 .st0{fill:#FFFFFF;}</style><g id="screen"><path class="st0" d="M234.2,79.8c0,0,247.6-2.8,250.4,5.7s-47.1,171.3-56.5,177s-225.9-4.5-230.6-15S226.6,81.7,234.2,79.8z" fill="#FFFFFF"></path><path class="st1" d="M233.6,80.6h4.3l11.8-0.1l18.1-0.1c7.6,0,15.2-0.1,22.8-0.1c8.8,0,17.6-0.1,26.4-0.1c9.4,0,18.9,0,28.3,0
		c9.7,0,19.4,0.1,29.1,0.2c9.4,0.1,18.8,0.2,28.2,0.3c8.7,0.2,17.4,0.3,26.2,0.6c7.5,0.2,15,0.5,22.5,0.8c3.2,0.2,6.4,0.3,9.6,0.5
		l4.3,0.3l2,0.2c0.3,0,0.4,0,0,0h0.5l1,0.1c2.2,0.2,4.4,0.4,6.5,0.7c0.9,0.1,1.7,0.2,2.6,0.4l1.1,0.2l0.3,0.1l0.3,0.1
		c0.6,0.1,1.1,0.3,1.7,0.4l0.3,0.1c0.4,0.1-0.4-0.2,0,0l0.5,0.2c0.1,0,0.1,0.1,0.2,0.1c0.2,0.1-0.3-0.2-0.1,0
		c0.1,0.1,0.2,0.1,0.2,0.2c-0.1-0.2,0-0.1,0,0.2s0,0.4,0,0.6c0.2,3.4-0.9,7.1-1.6,10.4c-1.4,6.4-3,12.7-4.7,19
		c-2.2,8.4-4.6,16.7-7,25c-2.7,9.4-5.5,18.7-8.4,28c-3,9.6-6,19.2-9.1,28.7c-2.9,8.8-5.8,17.5-8.9,26.3c-2.5,7.2-5.1,14.3-8,21.4
		c-1.7,4.7-3.8,9.2-6.1,13.7c-0.6,1.1-1.3,2.2-2.2,3.1c0.3-0.3,0,0-0.2,0.1c0.2-0.1,0.4-0.2-0.1,0c0.4-0.2,0.3-0.1-0.1,0l-0.3,0.1
		c-0.2,0.1,0.7-0.1,0.1,0s-1.2,0.2-1.9,0.3c-0.4,0-0.6,0,0,0l-0.6,0.1l-1.3,0.1c-2.1,0.2-4.2,0.3-6.4,0.3c-1.3,0-2.6,0.1-4,0.1h-1
		h-0.6h-2.2c-3.3,0-6.6,0-9.9,0c-7.9-0.1-15.7-0.2-23.6-0.4c-9.2-0.2-18.3-0.6-27.5-0.9c-9.8-0.4-19.7-0.9-29.5-1.4
		c-9.8-0.5-19.7-1.1-29.5-1.8c-9.3-0.6-18.7-1.3-27.8-2.1c-8.2-0.7-16.4-1.5-24.6-2.4c-6.6-0.7-13.1-1.5-19.6-2.6
		c-1.3-0.2-2.6-0.4-3.9-0.7l-1.8-0.3c-0.4-0.1,0.1,0,0,0l-0.4-0.1l-0.8-0.2c-1.8-0.4-3.6-0.8-5.4-1.4l-1-0.4
		c0.5,0.2-0.4-0.1-0.6-0.2c-0.4-0.2-0.9-0.4-1.3-0.7c0.4,0.3-0.1-0.1-0.2-0.2c-0.1-0.1-0.2-0.2-0.3-0.4c0.1,0.2-0.1-0.2-0.1-0.4
		c-0.1-0.2-0.1-0.5-0.1-0.8c-0.6-4,0.1-8.3,0.6-12.2c0.8-7.1,1.9-14.1,3.1-21.1c1.5-8.9,3.2-17.8,5-26.6c1.9-9.8,4-19.5,6.1-29.2
		c2.1-9.5,4.3-18.9,6.6-28.3c2-8.2,4.1-16.4,6.4-24.5c1.6-5.8,3.3-11.6,5.4-17.2c0.6-1.6,1.2-3.2,2-4.7c0.3-0.5,0.5-1,0.9-1.4
		c0.1-0.1,0.1-0.2,0.2-0.2c0.2-0.3,0,0,0,0c0.1-0.1,0.1-0.1,0.2-0.1c-0.1,0-0.4,0.2-0.6,0.3c0.7-0.2,1.6-0.6,0.8-1.2
		s-2.6-0.3-3.4-0.1c-2.9,0.8-3.9,4.9-4.9,7.3c-2.1,5.7-3.8,11.5-5.4,17.3c-2.3,8.2-4.4,16.4-6.4,24.6c-2.3,9.5-4.5,19-6.6,28.6
		c-2.2,9.8-4.3,19.6-6.2,29.5c-1.8,9-3.5,18-5,27c-1.2,7-2.3,14-3.1,21.1c-0.4,3.9-1.2,8.2-0.5,12.1c0.4,2.4,2.9,3.1,4.9,3.7
		c4.3,1.3,8.7,2.2,13.1,2.8c6.5,1.1,13.1,1.9,19.6,2.6c8.3,0.9,16.6,1.7,25,2.4c9.6,0.8,19.1,1.5,28.7,2.2c10,0.7,19.9,1.3,29.8,1.8
		s19.9,1,29.8,1.4c9.2,0.4,18.4,0.7,27.6,0.9c8,0.2,15.9,0.4,23.9,0.4c6.2,0,12.5,0,18.7-0.2c3.8,0,7.5-0.3,11.2-0.9
		c1.2-0.1,2.4-0.5,3.5-1.2c1-0.8,1.7-1.9,2.3-3c2.3-4.3,4.4-8.7,6.1-13.3c2.8-7,5.4-14.2,8-21.3c3.1-8.8,6.1-17.7,9-26.5
		c3.1-9.5,6.2-19.1,9.2-28.7c2.9-9.5,5.8-19,8.6-28.5c2.4-8.4,4.8-16.8,7.1-25.2c1.7-6.4,3.4-12.9,4.8-19.3c0.7-3.3,1.8-7,1.7-10.5
		c-0.1-2-2.4-2.4-4-2.8c-3.8-0.8-7.6-1.3-11.4-1.6c-5.9-0.6-11.9-0.9-17.8-1.2c-7.5-0.4-15.1-0.6-22.6-0.8
		c-8.7-0.3-17.4-0.4-26.1-0.6c-9.5-0.2-19-0.3-28.5-0.4c-9.8-0.1-19.6-0.2-29.4-0.2c-9.5,0-19.1,0-28.6,0c-8.9,0-17.8,0-26.7,0.1
		c-7.7,0-15.4,0-23.1,0.1l-18.2,0.1l-11.9,0.1h-4c-0.7,0-2.7,0-3,0.8S233.1,80.6,233.6,80.6z" fill="#59BE4C"></path><path class="st1" d="M267.8,107.2c-9.3,0-28.4,3.4-35.4,29.5c-3.5,13.1,1.4,23.4,13.3,28.4c14.2,5.9,32.6,1.9,38.5-8.3
		c6.8-11.7,8.6-24.6,4.9-34.3c-2.7-7.1-8.3-12.3-16.1-14.9C271.3,107.3,269.6,107.2,267.8,107.2z" fill="#59BE4C"></path><path class="st1" d="M268.8,105.3c-9.1-0.1-17.9,3-24.9,8.7c-4.9,4.2-8.7,9.6-11.1,15.6c-2.8,6.6-4.7,14.1-3.1,21.2
		c3.4,14.5,19.7,19.8,33,18.9c6.8-0.5,13.9-2.7,19.2-7.2c2.7-2.4,4.8-5.3,6.2-8.5c2-4,3.5-8.3,4.4-12.7c1.5-7.5,1.2-15.8-2.4-22.7
		c-1.6-3.1-3.9-5.8-6.7-8c-1.5-1.2-3.1-2.2-4.8-3c-1.5-0.9-3.2-1.5-4.9-1.9C272.1,105.5,270.4,105.3,268.8,105.3
		c-1.3,0-2.5,0.7-3.1,1.8c-0.4,0.7-0.2,1.5,0.5,1.9c0.2,0.1,0.5,0.2,0.7,0.2c1.6-0.1,3.2,0,4.8,0.3c1.4,0.4,2.8,1,4,1.7
		c2.9,1.5,5.4,3.5,7.5,6c4.3,5.3,5.9,12.3,5.5,19.1c-0.3,3.9-1.1,7.7-2.3,11.4c-1.1,3.6-2.8,7.1-5,10.2c-3.2,4.2-8.5,6.5-13.9,7.5
		c-11.6,2.1-27.1-1.2-32.3-13.1c-2.5-5.9-1.6-12.4,0.2-18.3c1.7-5.8,4.7-11.1,8.8-15.6c0.6-0.7,1.7-1.6,2.5-2.3
		c0.5-0.4,0.9-0.8,1.4-1.1l0.3-0.2c0.4-0.2-0.3,0.2,0.1-0.1s0.5-0.3,0.7-0.5c1-0.6,1.9-1.2,2.9-1.7l0.7-0.4c0.3-0.1,0,0-0.1,0
		l0.4-0.2l1.5-0.6c1-0.4,1.9-0.7,2.9-1l0.7-0.2c0.1,0,0.2-0.1,0.3-0.1c0.5-0.1,0.9-0.2,1.4-0.3c1.7-0.3,3.3-0.5,5-0.6h0.6
		c0.1,0-0.4,0,0.1,0h1c1.3,0,2.5-0.7,3.1-1.8c0.4-0.6,0.2-1.5-0.4-1.9C269.2,105.4,269,105.3,268.8,105.3z" fill="#59BE4C"></path><path class="st1" d="M428,109.3c-8.8-0.1-17.3,2.9-24.1,8.5c-4.9,4.3-8.7,9.8-11,15.9c-2.6,6.7-4.4,14.2-2.5,21.3
		c3.8,14.5,20.5,20.2,34.1,19.1c6.8-0.6,13.7-2.7,18.8-7.2c2.6-2.5,4.6-5.4,6-8.7c1.9-4,3.3-8.3,4.1-12.7c1.4-7.6,0.8-15.9-3-22.7
		c-1.8-3.2-4.2-6-7.1-8.2c-1.6-1.2-3.2-2.2-5-3.1c-1.5-0.8-3.2-1.5-4.9-1.8C431.7,109.4,429.9,109.3,428,109.3c-1.1,0-1.9,1-1.9,2.1
		c0,0.1,0,0.2,0,0.2c0.4,1.3,1.6,2.1,2.9,2c1.4,0,2.9,0.1,4.3,0.3c0,0,0.3,0,0,0c-0.4-0.1,0.4,0.2,0.5,0.2l1.2,0.5
		c0.8,0.3,1.6,0.7,2.4,1.1c2.7,1.5,5.1,3.5,7,5.9c4.2,5.3,5.3,12.4,4.7,19c-0.4,3.9-1.2,7.7-2.6,11.4c-1.2,3.4-2.7,7-5,9.8
		c-3.5,4.3-9.1,6.7-14.5,7.6c-11.2,2-26.8-1.1-31.3-13c-2.2-5.9-1.1-12.4,0.9-18.2c1.8-5.7,4.9-11,9-15.3c1.6-1.7,3.5-3.2,5.5-4.4
		c1.7-1.1,3.6-2,5.6-2.8c1.8-0.7,3.7-1.2,5.6-1.6c-0.5,0.1,0.1,0,0.3,0l0.7-0.1l1.3-0.2c0.8-0.1,1.6-0.2,2.4-0.2s1.4-0.1,2.1-0.1
		c1.1,0,2-1,1.9-2.1c0-0.1,0-0.2,0-0.2C430.6,110,429.3,109.2,428,109.3z" fill="#59BE4C"></path><path class="st1" d="M220.3,198.4c2.4,0.7,4.9,1.1,7.4,1.2c4.9,0.6,9.8,1.1,14.7,1.5c16.1,1.5,32.3,2.6,48.5,3.8
		c22.3,1.5,44.7,3,67,4.2c18.5,1.1,37,2.1,55.6,2.9c5.1,0.2,10.1,0.5,15.2,0.5c1.5,0,3,0.1,4.5,0c0.8-0.1,1.2-0.1,1.5-0.8
		c0.3-0.7,0.5-1.4,0.7-2.1c0.5-1.9,1-3.8,1.3-5.7c0.4-1.9,0.6-3.9,0.7-5.8c-0.1-0.1-0.2-0.2-0.3-0.2c-2.1-0.6-4.2-1-6.4-1.2
		c-3.8-0.5-7.7-0.9-11.5-1.2c-11.8-1.1-23.6-1.9-35.4-2.7c-15.8-1-31.6-2-47.5-2.8c-17.7-1-35.3-1.9-53-2.8c-17-0.8-34-1.6-51-2.4
		l-5.9-0.3c-0.5,0-2.3-0.2-2.5,0.4c-1.2,2.4-2.2,4.9-3,7.4c-0.6,1.8-1.3,3.9-1,5.8c0.2,0.9,5.1,0.5,5,0.1c-0.4-1.9,0.4-4,1-5.8
		c0.8-2.5,1.8-5,3-7.4l-2.5,0.4c16.7,0.7,33.3,1.5,50,2.3c17.3,0.8,34.7,1.7,52,2.7c16,0.9,31.9,1.8,47.9,2.8
		c12.4,0.8,24.8,1.6,37.2,2.7c2.3,0.2,4.5,0.4,6.8,0.6l1.6,0.1l0.7,0.1h-0.1l0.5,0.1l2.6,0.3c1.4,0.2,2.9,0.3,4.3,0.6l0.8,0.1l0,0
		l0.4,0.1l1.2,0.3h-0.1l0.2,0.1c0,0,0.4,0.1,0.4,0.1l-0.3-0.2c-0.1,2.7-0.5,5.4-1.1,8.1c-0.3,2.1-0.9,4.1-1.9,6l1.2-0.4
		c-0.6,0,0.6,0,0.1,0h-2c-1.9,0-3.7-0.1-5.6-0.1c-5.9-0.2-11.8-0.5-17.7-0.8c-17.9-0.9-35.7-1.9-53.5-2.9
		c-20.4-1.2-40.8-2.5-61.2-3.9c-14.9-1-29.7-2.1-44.6-3.4c-2.6-0.2-5.2-0.5-7.8-0.7l-1.7-0.2l-0.7-0.1h-0.4h-0.2l-2.9-0.3
		c-1.6-0.2-3.1-0.4-4.7-0.6l-0.9-0.1c-0.2,0-1.2-0.2-0.5-0.1c-0.4-0.1-0.8-0.1-1.3-0.2c-0.2,0-0.8-0.2-0.1,0l-0.4-0.1
		c-1.1-0.3-2.3-0.4-3.4-0.3C220.9,197.9,219.3,198.1,220.3,198.4z" fill="#59BE4C"></path><path class="st1" d="M211.4,230.5c2.4,0.6,4.8,1.1,7.2,1.2c4.9,0.6,9.8,1.1,14.7,1.5c16.1,1.5,32.2,2.6,48.4,3.7
		c22.3,1.6,44.7,3,67,4.2c18.3,1.1,36.7,2.1,55,2.9c5.2,0.2,10.4,0.4,15.7,0.5c1.1,0,2.2,0,3.3,0s1.7-0.2,2.1-1.2
		c0.3-0.7,0.6-1.4,0.8-2.1c0.5-1.9,1-3.8,1.3-5.7c0.4-1.9,0.6-3.9,0.7-5.8c0-0.3-0.5-0.6-0.7-0.7c-2.1-0.7-4.3-1.1-6.5-1.3
		c-3.8-0.5-7.7-0.9-11.6-1.2c-11.7-1.1-23.5-1.9-35.2-2.7c-15.7-1-31.5-2-47.2-2.8c-17.6-1-35.1-1.9-52.7-2.7c-17-0.8-34-1.6-51-2.4
		l-5.9-0.3c-0.5,0-2.1-0.1-2.4,0.5c-1.2,2.4-2.2,4.9-3,7.4c-0.6,1.8-1.4,4.1-1.1,6c0.3,1.5,5.2,1.3,5,0.4c-0.3-1.8,0.4-3.9,0.9-5.6
		c0.8-2.5,1.8-5,2.9-7.3l-2.4,0.5c16.7,0.7,33.5,1.5,50.2,2.3c17.4,0.8,34.8,1.7,52.2,2.7c16.1,0.9,32.2,1.8,48.2,2.8
		c12.4,0.8,24.7,1.6,37.1,2.7c4.2,0.4,8.4,0.7,12.5,1.2c0.4,0,0.6,0.1,0,0l0.6,0.1l1.2,0.1l2,0.3c0.5,0.1,1.1,0.2,1.6,0.3l0.7,0.1
		c0.8,0.1-0.4-0.1,0.1,0c0.3,0.1,1.3,0.4,0.4,0.1l-0.7-0.7c-0.1,2.7-0.5,5.3-1.1,7.9c-0.3,2-0.9,4-1.8,5.9l1.8-0.5c-1,0.1-2,0.1-3,0
		h-1.2h-0.8c-1,0-2,0-3-0.1c-5.9-0.2-11.8-0.5-17.8-0.8c-18-0.9-36.1-1.8-54.1-2.9c-20.4-1.2-40.8-2.5-61.2-3.9
		c-15-1-29.9-2.1-44.9-3.5c-4.7-0.4-9.5-0.9-14.2-1.4l-1.2-0.1h0.2h-0.3l-0.7-0.1c-0.7-0.1-1.4-0.2-2.1-0.3c-1-0.1-2-0.4-3.1-0.5
		c0.8,0.1,0.1,0-0.3-0.1c-0.9-0.3-2.6-0.5-3.4,0.1S210.9,230.3,211.4,230.5z" fill="#59BE4C"></path><path class="st2" d="M246.9,88.6c-2-0.3-3.9,1-4.3,3.1c-1,3.7,4.4,4.2,5.5,2.1S249.1,89.3,246.9,88.6z" fill="#000005"></path><path class="st2" d="M245.5,95.5c-0.6,0-1.2-0.1-1.7-0.3c-1.5-0.5-2.2-2.2-1.7-3.6c0.4-2.3,2.6-3.8,4.9-3.4l0,0
		c0.9,0.3,1.7,1,2,1.9c0.4,1.3,0.2,2.8-0.5,4C247.8,95,246.7,95.5,245.5,95.5z M246.3,89.1c-1.6,0-3,1.1-3.3,2.7
		c-0.4,0.9,0.1,2,1,2.4c0,0,0.1,0,0.1,0c1.3,0.5,3,0.2,3.5-0.7c0.6-0.9,0.8-2.1,0.5-3.2c-0.2-0.6-0.8-1.1-1.4-1.3L246.3,89.1z" fill="#000005"></path><path class="st2" d="M259.6,88.9c-2-0.3-3.9,1.1-4.3,3.1c-1,3.7,4.3,4.2,5.5,2.1S261.8,89.7,259.6,88.9z" fill="#000005"></path><path class="st2" d="M258.3,95.8c-0.6,0-1.2-0.1-1.7-0.3c-1.5-0.5-2.2-2.2-1.7-3.6c0.4-2.3,2.6-3.8,4.9-3.4h0.1
		c0.9,0.3,1.7,1,2,1.9c0.4,1.3,0.2,2.8-0.5,4C260.6,95.3,259.5,95.9,258.3,95.8z M259.1,89.4c-1.6,0-3,1.1-3.3,2.7
		c-0.4,1,0.1,2,1,2.4c0,0,0.1,0,0.1,0c1.3,0.5,3,0.2,3.5-0.7c0.6-0.9,0.8-2.1,0.5-3.2c-0.2-0.6-0.8-1.1-1.4-1.3
		C259.4,89.4,259.2,89.4,259.1,89.4z" fill="#000005"></path><path class="st2" d="M273.1,89c-2-0.3-3.9,1-4.3,3c-1,3.7,4.4,4.2,5.5,2.1S275.3,89.7,273.1,89z" fill="#000005"></path><path class="st2" d="M271.8,95.9c-0.6,0-1.2-0.1-1.7-0.3c-1.5-0.5-2.2-2.2-1.7-3.6c0.4-2.3,2.6-3.8,4.9-3.4h0.1
		c0.9,0.3,1.7,1,2,1.9c0.4,1.3,0.2,2.8-0.5,4C274,95.4,272.9,95.9,271.8,95.9z M272.5,89.4c-1.6,0-3,1.1-3.3,2.7
		c-0.4,0.9,0.1,2,1,2.4c0,0,0.1,0,0.1,0c1.3,0.5,3,0.2,3.5-0.7c0.6-0.9,0.8-2.1,0.5-3.2c-0.2-0.6-0.7-1.1-1.4-1.3
		C272.9,89.4,272.7,89.4,272.5,89.4z" fill="#000005"></path><path class="st1" d="M313.2,153.3c0,0,11.9,11.6,16.3,3.6s5.8-16.9,13-11.9s6.4-6.8,12.5-12.1s2,5.3,13-2.4c3.2-2.2,6,2.6,6.3,6.5
		s-0.3,26.2-23.5,32.9S312.9,159.4,313.2,153.3z" fill="#59BE4C"></path><path class="st1" d="M311,154.4c3.1,3,7.2,6,11.5,6.6c3.5,0.5,6.9-1,8.9-3.8c2.3-3.5,3.3-7.7,5.6-11.1c0.3-0.4,0.7-0.8,1-1.2
		c0.2-0.2-0.3,0,0.1-0.1c-0.2,0-0.3,0.1-0.5,0.2c-0.1,0-0.2,0-0.2,0c0,0,0.6,0.1,0.5,0.1c1.7,0.4,2.9,1.9,4.6,2.3
		c3.2,0.9,6.5-0.9,8.1-3.7s2.4-5.9,4.3-8.5c0.5-0.7,1-1.3,1.6-1.8c0.2-0.2,0.4-0.3,0.5-0.4s0.9-0.5,0.4-0.3c0.4-0.1-0.2,0.1-0.2,0.1
		c0.4-0.1-0.3,0.1-0.3,0.1c-0.2,0-0.5,0-0.7,0c-0.2,0,0.2,0.2-0.1,0c0.1,0.1,0.2,0.2,0.3,0.3c1,1.2,2.6,1.9,4.2,1.8
		c1.7-0.2,3.3-0.7,4.9-1.5c0.9-0.5,1.8-1,2.7-1.6c0.2-0.1,0.5-0.3,0.7-0.4c0.7-0.6,0.2-0.1,0-0.1c-1.3,0.1-0.5,0.2-0.1,0.5
		c1.6,1.1,2.4,3.4,2.7,5.2c0.1,0.4,0.1,0.7,0.1,1.1c0,0.2,0-0.3,0,0.1s0,0.6,0,0.8c0,1.7-0.1,3.4-0.4,5.1
		c-0.7,5.2-2.7,10.1-5.7,14.4c-4.2,5.7-10.4,9.6-17.4,10.9c-7.5,1.7-15.4,0.5-22.1-3.4c-4.2-2.5-8.7-6.3-10.4-11.1
		c-0.2-0.6-0.4-1.3-0.4-2c0-1.8-4.7-0.5-4.8,1c0.1,1.9,0.7,3.7,1.7,5.2c1.5,2.4,3.4,4.5,5.5,6.2c5.8,4.7,13.1,7.3,20.5,7.4
		c9.2,0.2,18.2-2.8,25.5-8.3c5-4,8.8-9.5,10.7-15.6c1.2-3.8,1.8-7.7,1.8-11.7c-0.1-3-1.3-7.2-4.5-8.2c-2.5-0.8-4.9,0.7-6.9,2
		c-0.6,0.4-1.3,0.8-2,1.1l-0.3,0.1c-0.1,0-0.2,0.1-0.4,0.1c0.6-0.1-0.2,0.1,0.4,0c-0.2,0-0.5-0.1-0.2,0c-0.1,0-0.5-0.2-0.2-0.1
		c-0.3-0.2-0.6-0.4-0.8-0.6c-0.4-0.5-0.9-0.9-1.5-1.2c-2.7-1.1-6,1.3-7.8,3.1c-2.5,2.6-3.7,5.9-5.2,9.1c-0.3,0.6-0.6,1.3-1,1.9
		c-0.2,0.3-0.4,0.6-0.6,0.8c-0.1,0.1-0.1,0.1-0.2,0.2c0.4-0.1,0.8-0.3,1.1-0.4s0.1,0,0,0c0.1,0.1-0.4-0.1-0.4-0.1
		c-0.8-0.3-1.6-0.8-2.3-1.3c-3.5-2.1-7.9-1.2-10.5,1.9c-2.7,3.2-3.9,7.5-5.9,11.2c-0.3,0.7-0.7,1.3-1.3,1.8
		c-0.3,0.3,0.3-0.4-0.2,0.1c0.1-0.1,0.4-0.1,0,0c0.1,0,0.4-0.1,0.5-0.2c-0.5,0.2,0.3,0-0.2,0c-0.2,0-0.4,0-0.6,0
		c-0.2,0-0.5-0.1-0.7-0.1c-0.8-0.2-1.5-0.4-2.2-0.8c-2.3-1.1-4.5-2.6-6.4-4.3c-0.4-0.3-0.7-0.6-1-0.9
		C314.2,151.1,309.8,153.2,311,154.4z" fill="#59BE4C"></path></g><g id="character"><path class="st2" d="M153.2,63.5c0,0-11.5-11.5-0.8-14S163.8,63.5,153.2,63.5z"></path><path class="st2" d="M155.2,62.5c-0.4-0.4-0.8-0.8-1.2-1.3s-0.8-0.9-1.1-1.4l-0.3-0.4c0.3,0.4,0,0-0.1-0.1c-0.2-0.3-0.4-0.6-0.6-1
		c-0.4-0.6-0.7-1.3-1-1.9c-0.1-0.3-0.3-0.6-0.4-0.9c-0.1-0.2-0.1-0.3-0.1-0.5c0.2,0.5,0-0.1,0-0.2c-0.1-0.3-0.1-0.7-0.1-1
		c0-0.1,0-0.3,0-0.4c0-0.5-0.1,0.3,0-0.2c0.1-0.3,0.2-0.6,0.3-0.8s-0.3,0.4-0.1,0.1l0.1-0.2c0-0.1,0.3-0.4,0.3-0.4s-0.4,0.3-0.1,0.1
		l0.2-0.2c0.1-0.1,0.6-0.4,0.3-0.2s0.3-0.2,0.4-0.2l0.3-0.1c0.2-0.1,0.4-0.3,0,0c0.4-0.2,0.9-0.3,1.3-0.4l0.4-0.1
		c0.3-0.1-0.5,0-0.2,0s0.5-0.1,0.7-0.1h0.3c0.3,0-0.2,0.1-0.3,0c0.1,0.1,0.4,0,0.5,0l0.5,0.1c0.3,0-0.5-0.2-0.3,0l0.3,0.1
		c0.2,0.1,0.3,0.1,0.5,0.2c0,0-0.5-0.3-0.2-0.1l0.2,0.1l0.4,0.2l0.2,0.1c0.3,0.2-0.1-0.1-0.1-0.1s0.6,0.6,0.7,0.6l0.3,0.3
		c0.3,0.4-0.2-0.3,0.1,0.1c0.3,0.5,0.6,1.1,0.8,1.7c0.1,0.2-0.1-0.4,0,0.1c0,0.2,0.1,0.3,0.1,0.5c0.1,0.3,0.1,0.7,0.1,1
		c0,0.3,0,0.6,0,0.9c0,0.1,0,0.2,0,0.3c0,0.2,0.1-0.3,0-0.1s-0.1,0.4-0.1,0.5c-0.1,0.4-0.2,0.7-0.3,1c-0.1,0.2-0.1,0.3-0.2,0.5
		l-0.1,0.2c-0.1,0.3,0.2-0.2,0-0.1s-0.4,0.6-0.6,0.9s-0.2,0.3-0.4,0.4s0.4-0.3,0.1-0.1c-0.1,0.1-0.1,0.1-0.2,0.2L156,61l-0.2,0.2
		c-0.3,0.2,0.4-0.2,0.1-0.1l-0.5,0.3c-0.1,0-0.8,0.3-0.3,0.2s-0.3,0.1-0.4,0.1s-0.9,0.2-0.4,0.1s-0.3,0-0.4,0H153
		c-1,0-2.4,0.7-2.4,1.9s1.6,1.5,2.6,1.5c4,0,7.9-2.1,9.4-6c1.2-3.1,0.6-6.5-1.5-9c-3-3.3-8.4-3.2-12.2-1.4c-1.8,0.8-3.1,2.3-3.5,4.3
		c-0.2,1.7,0.1,3.5,0.9,5c1.2,2.4,2.8,4.6,4.7,6.5c1,0.8,2.3,0.9,3.4,0.4C155.4,64.4,156.1,63.4,155.2,62.5z"></path><path class="st1" d="M144.8,109.8c0,0-26.4,8.8-17.6-18.5s63.3-47.5,86.1-43.1s-2.6,35.2-23.7,50.1s-41.3,12.3-41.3,12.3"></path><path class="st1" d="M143,108.4c-0.9,0.3-1.9,0.5-2.8,0.7l-0.7,0.1c0.5-0.1-0.3,0-0.4,0.1c-0.5,0.1-1.1,0.2-1.6,0.2s-1,0.1-1.6,0.1
		h-0.9h-0.4c0.6,0,0,0-0.1,0c-0.6,0-1.1-0.1-1.7-0.2s0.3,0.1-0.3-0.1l-1-0.3c-0.5-0.1,0.6,0.2,0.1,0l-0.4-0.2
		c-0.1,0-0.2-0.1-0.3-0.1c-0.5-0.2,0.5,0.3,0.1,0c-0.2-0.2-0.5-0.3-0.7-0.4c0.6,0.4-0.2-0.2-0.4-0.3s0.4,0.4,0,0l-0.3-0.3
		c-0.1-0.1-0.6-0.8-0.4-0.5c-0.4-0.6-0.7-1.1-0.9-1.8c-0.5-1.5-0.7-3.1-0.6-4.7c0.3-8.4,4.6-16.3,10.3-22.3
		c6.4-6.8,14.3-12,22.5-16.3c8.6-4.5,17.8-7.9,27.2-10.3c7.6-1.9,15.9-3.4,23.4-2.7c0.7,0.1,1.5,0.2,2.2,0.3h0.2l0.8,0.2
		c0.5,0.1,1,0.3,1.5,0.4c-0.5-0.2,0.3,0.1,0.3,0.1l0.6,0.3c-0.5-0.2,0.1,0.1,0.2,0.1l0.6,0.3c-0.4-0.3,0.4,0.3,0.5,0.4
		c0.5,0.4-0.3-0.3,0.2,0.2c0.2,0.2,0.3,0.4,0.5,0.6c0.7,1,1.1,2.2,1.2,3.4c0.1,1.6-0.1,3.3-0.6,4.9c-1.4,4.2-3.4,8-6.1,11.5
		c-3.1,4.3-6.6,8.4-10.4,12.1c-8.5,8.5-18.3,16.3-29.6,20.8c-5,2-10.2,3.3-15.5,4c-1.9,0.2-3.7,0.4-5.6,0.4c-0.7,0-1.5,0-2.2,0
		c-0.5,0,0.3,0,0,0h-0.4h-0.9c-0.4,0-0.8,0-1.3-0.1c-0.8-0.1-1.9,0.2-1.5,1.2s2,1.6,3,1.7c6.6,0.9,13.8-0.3,20.1-2
		c12.6-3.3,23.6-10.5,33.2-19.2c8.6-7.8,36.3-35.8,13.4-43.4c-3.8-1.1-7.8-1.6-11.8-1.4c-4.3,0.1-8.5,0.6-12.8,1.4
		c-9.9,1.9-19.5,5-28.6,9.2c-9.1,4.2-18,9.3-25.4,16.1c-6.7,6.1-11.9,13.4-13.6,22.4c-0.7,3.6-1,7.7,0.8,11.1
		c1.7,2.8,4.4,4.8,7.6,5.6c4.4,1.3,9.4,0.7,13.7-0.5l0.8-0.2c1.1-0.4,0.4-1.4-0.2-1.9C145.4,108.6,144.2,108.2,143,108.4L143,108.4z
		"></path><path class="st2" d="M135.3,210.4c0,0-16.4,14.4-21,51.8S149.1,392,149.1,392l28.2-4.6l-3.3-69.5l33.4,72.1l32.1-5.9l-55.1-172.4
		L135.3,210.4z"></path><path class="st2" d="M133.5,209c-1.8,1.7-3.4,3.6-4.9,5.6c-3.8,5.4-7,11.2-9.3,17.3c-3.8,9.7-6.3,19.9-7.4,30.3
		c-0.6,6.2-0.4,12.4,0.5,18.6c1.9,15.7,6.1,31.1,10.7,46.2c4.4,14.6,9.5,28.9,14.9,43.2c1.9,5,3.8,9.9,5.8,14.9
		c0.9,2.4,1.9,4.8,2.9,7.1c0.1,0.1,0.1,0.2,0.1,0.3c0.6,1.1,1.9,1.7,3.1,1.5l24.7-4l3.5-0.6c0.9,0,1.6-0.8,1.6-1.7l-1.1-23.5
		l-1.8-37.4l-0.4-8.6l-4.8,0.2l11.3,24.3l18,38.8l4.1,9c0.6,1.1,1.9,1.7,3.1,1.5l28.2-5.2l4-0.7c1.1-0.2,1.9-1,1.5-2.2l-1.5-4.6
		l-4-12.5l-5.9-18.6l-7.2-22.6l-7.9-24.8l-8-25l-7.4-23.3l-6.3-19.8l-4.5-14.2c-0.7-2.2-1.3-4.5-2.1-6.7c0-0.1-0.1-0.2-0.1-0.3
		c-0.5-0.9-1.5-1.5-2.5-1.5l-16.6-0.4l-26.5-0.7l-6.1-0.2c-1,0-2.4,0.5-2.2,1.7s1.6,2,2.7,2l16.6,0.4l26.5,0.7l6.1,0.2l-2.5-1.5
		l1.5,4.6l4,12.5l6,18.6l7.2,22.6l7.9,24.8l8,25l7.4,23.3l6.3,19.8l4.4,14.1c0.7,2.2,1.3,4.6,2.1,6.7l0.1,0.3l1.5-2.2l-28.2,5.2
		l-4,0.7l3.1,1.5l-11.3-24.4l-18-38.8l-4.1-9c-0.8-1.7-4.9-2.4-4.8,0.2l1.1,23.5l1.8,37.4l0.4,8.6l1.6-1.7l-24.7,4l-3.5,0.6l3.1,1.5
		c-2.5-5.9-4.8-11.8-7.1-17.8c-5.2-13.6-10.2-27.3-14.6-41.1c-4.8-15-9.1-30.3-11.6-45.9c-1.2-6.5-1.7-13-1.6-19.6
		c0.2-4,0.7-8,1.4-11.9c0.9-5.2,2.2-10.3,3.8-15.3c2.2-7.1,5.3-13.8,9.2-20.1c1.2-1.9,2.6-3.7,4-5.5c0.5-0.6,0.9-1.1,1.4-1.6
		c0.2-0.2,0.4-0.4,0.5-0.6c0.3-0.3-0.4,0.4,0.1-0.1l0.3-0.3C139.3,210,135.2,207.5,133.5,209z"></path><path class="st0" d="M224.6,447.1l54.8-0.2c0,0,7.8-8.4-10.1-9.5c-6.3-0.4-14.2-7.5-14.2-7.5l-11.8-47.8l-40.9,4.1L224.6,447.1z"></path><path class="st2" d="M224.4,448.9l12.4,0l24.5-0.1l17-0.1c0.6,0,1.2,0,1.8-0.1c0.9-0.2,1.7-0.9,2.1-1.8c1.3-1.7,1.6-4.1,0.6-6.1
		c-2.2-4-8.4-4.7-12.4-5c-2.6-0.2-5.2-1.1-7.4-2.4c-1.9-1.1-3.7-2.4-5.3-3.8c-0.3-0.2-0.6-0.5-0.8-0.7l0.6,0.8l-4-16.1l-6.3-25.7
		l-1.5-5.9c-0.3-1.2-1.9-1.6-2.9-1.5l-35.9,3.6l-5,0.5c-0.9,0.1-2.4,0.8-1.9,2l7.5,20.6l11.9,32.7l2.7,7.5c0.8,2.1,5.7,1.9,4.9-0.5
		l-7.5-20.6l-11.9-32.7l-2.7-7.5l-1.9,2l35.9-3.6l5-0.5l-3-1.5l8.1,32.9c1.2,4.8,2.2,9.7,3.6,14.4c0.5,1.8,2.8,3,4.2,4
		c2.1,1.5,4.3,2.8,6.6,3.8c1.2,0.5,2.5,1,3.8,1.2c1.6,0.3,3.3,0.4,4.9,0.6c1.3,0.2,2.5,0.4,3.7,0.8c0.3,0.1,0.7,0.2,1,0.4l0.5,0.3
		l0.3,0.2c-0.2-0.1-0.2-0.1,0,0s0.8,0.8,0.5,0.4c0.1,0.2,0.6,0.9,0.4,0.5c0.1,0.2,0.2,0.4,0.2,0.7c0,0.1,0,0.5,0,0
		c0,0.1,0,0.3,0,0.4c0,0.2-0.1,0.4-0.1,0.7c-0.1,0.6,0.1-0.1-0.1,0.3c-0.2,0.4-0.3,0.8-0.5,1.1l-0.3,0.5c-0.1,0.1-0.3,0.4,0.1-0.2
		c-0.1,0-0.1,0.1-0.1,0.2c-0.1,0.1-0.2,0.2-0.3,0.3l2.2-0.7l-18.5,0.1l-29.4,0.1h-6.8c-1,0-2.5,0.2-2.6,1.5S223.5,448.9,224.4,448.9
		z"></path><path class="st0" d="M156.3,438.9c0,0-3.8,13.4-2.5,13.4s37.9,0.2,36.9-1.7s-7.7-8.1-7.7-8.1s-0.6-54.7-0.9-56.6s-39-0.3-39,3.1
		S156.3,438.9,156.3,438.9z"></path><path class="st2" d="M154.1,437.6c-0.5,1.8-1,3.7-1.5,5.5c-0.6,2.3-1.4,5-1.3,7.4c0.1,2.2,3.1,3.2,5,3.2c1.7,0,3.4,0,5.2,0
		c5.7,0,11.5-0.1,17.2-0.2c2.7-0.1,5.4-0.2,8-0.4c1.8,0,3.5-0.2,5.2-0.6c0.4-0.1,1-0.2,1-0.8c0-0.3-0.4-0.8-0.6-1
		c-0.5-0.7-1-1.3-1.6-1.9c-2-2.2-4.2-4.2-6.4-6.2l0.8,1c-0.1-9.6-0.2-19.2-0.3-28.8c-0.1-6.5-0.2-13-0.3-19.5c0-2.1-0.1-4.2-0.1-6.3
		c0-1.3,0.1-2.2-1-3.2c-1.8-1.6-4.1-1.9-6.4-2c-2.7-0.2-5.5-0.1-8.2-0.1c-6.8,0.1-13.5,0.6-20.2,1.5c-2.2,0.2-4.3,0.7-6.4,1.4
		c-0.9,0.2-1.5,1.1-1.3,2.1c0,0.1,0,0.2,0.1,0.2c0.8,4.9,2.3,9.6,3.5,14.4c3,11.3,6.2,22.6,9.4,33.8l0.2,0.7c0.3,0.9,1.6,1.6,2.4,2
		c0.2,0.1,2.2,0.9,2,0.1c-1.4-5-2.8-10-4.2-14.9c-2.4-8.5-4.7-17.1-6.9-25.7c-0.7-2.7-1.4-5.4-1.9-8.1c-0.1-0.3-0.1-0.6-0.1-0.9
		c0-0.2,0-0.1,0-0.1c0-0.1,0.1-0.2,0.2-0.3c0.7-0.5,1.5-0.8,2.3-1c3.5-0.8,7-1.3,10.6-1.6c4.4-0.4,8.9-0.6,13.3-0.8
		c3.4-0.2,6.7-0.1,10.1,0.2l0.7,0.1c-0.5-0.1,0.2,0.1,0.3,0.1s0,0-0.2-0.1c-0.5-0.3-1.1-0.6-1.6-1c0.2,0.1-1.1-0.9-1-1
		c0,0,0,0.1,0,0.1c-0.2,0.3,0.1,1.4,0.1,1.8c0.2,7,0.3,14,0.4,21c0.1,8.5,0.2,17,0.3,25.5c0,2.4,0.1,4.8,0.1,7.2
		c0,0.7-0.1,1,0.4,1.5c1.1,1.3,2.2,2.1,3.4,3.2c0.9,0.9,1.8,1.7,2.6,2.6c0.3,0.4,0.7,0.7,1,1.1c0.1,0.1,0.3,0.6,0.5,0.7
		c-0.2-0.1-0.1-0.3-0.1-0.3s0.2,0,0,0c-0.1,0-0.1,0-0.2,0.1c-0.4,0.1-0.8,0.2-1.2,0.3c-3.2,0.4-6.5,0.7-9.7,0.7
		c-7.9,0.3-15.7,0.3-23.6,0.3h-1.2c-0.7,0-0.8-0.2,0.3,0.2l1.7,0.9c2.5,1.8,1,1.5,1.1,0.8c0-0.2,0-0.4,0-0.6c0-0.5,0.1-1.1,0.2-1.6
		c0.3-1.5,0.6-3,1-4.5c0.5-2,1-4,1.6-6C158.8,438.9,154.3,436.9,154.1,437.6z"></path><path class="st0" d="M174.8,318.9c1.8-17.2,4.2-34.2,7.3-51.2c0.1-0.9-1.1-2.1-1.6-2.7c-0.2-0.2-1.5-1.6-1.7-0.9
		c-3.1,17-5.5,34-7.3,51.2c-0.1,0.9,1,2.1,1.6,2.7C173.2,318.1,174.7,319.6,174.8,318.9z"></path><path class="st0" d="M120.7,236.2c0,0,40.4,12.9,73.9,4.9l-2.3-33l-61.6-4.4L120.7,236.2z"></path><path class="st2" d="M120.3,237.4c5.4,1.7,10.8,3,16.3,4.1c11.9,2.5,24.1,3.8,36.3,3.7c7.8,0,15.5-0.9,23.1-2.7
		c0.5-0.1,1-0.3,1-0.9l-2-28.9l-0.3-4.1c-0.1-1.2-2.4-1.8-3.2-1.9l-20.9-1.5l-33.1-2.4l-7.6-0.6c-0.5,0-1.3,0-1.5,0.6l-8.7,28.6
		l-1.2,4c-0.5,1.6,4.2,3.2,4.7,1.6l8.7-28.6l1.2-4l-1.5,0.6l20.9,1.5l33.1,2.4l7.6,0.6l-3.2-1.9l2,28.9l0.3,4.1l1-0.9
		c-12.8,3.1-26.1,3.1-39.2,1.8c-9.5-1-19-2.7-28.2-5.1c-0.6-0.2,0.5,0.1-0.1,0l-0.5-0.1l-1.1-0.3l-1.7-0.5c-0.5-0.1-0.9-0.3-1.4-0.4
		c-0.7-0.2-2.4-0.6-2.8,0.4S119.7,237.2,120.3,237.4z"></path><path class="st0" d="M290.9,129.4c0,0,3.3-4.8,7.3-3.3s14.9,19.3,12.4,20s-9.9-1.1-11.8-2.9s-2.7-7.1-2.7-7.1l-1,4.2l-20.8-10.9
		c0,0,2.4-6.9,1.6-12.2c-0.7-4.6,3.8-9.4,6.5-1.1c0.7,2.2,1,4.6,1,6.9v3.5C283.3,126.5,290.3,120.4,290.9,129.4z"></path><path class="st2" d="M293.1,129.7c0.6-1,1.5-1.8,2.5-2.3c0.1-0.1,0.6-0.2,0.3-0.2c0.2,0,0.9,0.2,0.4,0c0.4,0.2,0.8,0.5,1.1,0.8
		c2.5,2.4,4.6,5.1,6.3,8.1c1.8,2.6,3.3,5.5,4.4,8.5c0.1,0.4,0.2,0.8,0.2,1.2c0,0.3,0,0,0,0c0,0.1,0,0.1,0,0.2
		c-0.3,0.2,0.6-0.7,0.4-0.5c1.4-0.5,1.8-0.7,1.2-0.6c0.3,0,0.3,0,0.1,0c-0.8,0-1.7-0.1-2.5-0.2c-1.1-0.2-2.1-0.4-3.2-0.8
		c-2-0.6-3.6-1.3-4.5-3.2c-0.7-1.6-1.2-3.3-1.4-5.1c-0.3-1.7-4.5-0.9-4.9,0.5l-1,4.2l4.5-1.1l-18.2-9.5l-2.6-1.4l0.4,0.9
		c0.8-2.5,1.4-5.1,1.6-7.7c0.1-1.8,0.1-3.7-0.1-5.6c0-1.1,0.2-2.1,0.8-3c0,0,0.4-0.5,0.2-0.3c0.3-0.4,0.2-0.2-0.2,0
		c0.5-0.2-1.6,0.3-1.5,0.1c0,0,0.5,0.4,0.5,0.4c1.4,1.4,2,3.7,2.3,5.6c0.4,2.7,0.5,5.4,0.4,8.2c0,0.7,1.3,0.9,1.7,0.9
		c0.9,0.1,1.9-0.2,2.6-0.7c0.3-0.2,0.6-0.4,0.9-0.7c0.5-0.3-0.2,0.1,0.1-0.1l0.5-0.3c0.1-0.1,0.3-0.1,0.4-0.2c-0.6,0.3,0.1,0,0.2,0
		c-0.7,0.3,0.4,0.1-0.4,0c0.5,0-0.4-0.2,0,0c-0.6-0.2,0.3,0.3-0.1,0c0.2,0.2,0.2,0.1,0.4,0.3c0.9,1,1,2.5,1.1,3.8
		c0.1,1.7,5.1,1,4.9-0.9s-0.4-3.6-1.8-4.8c-1.3-1-3-1.3-4.6-0.9c-2,0.4-3.9,1.3-5.5,2.6l4.4,0.1c0.1-2.3,0.1-4.5-0.1-6.8
		c-0.4-2.9-1.4-7.6-4.6-8.8c-2.7-0.9-5.6,0.3-6.9,2.8c-1.3,2.5-0.4,5.3-0.6,8.1c-0.2,2.7-0.8,5.5-1.7,8.1c-0.1,0.4,0.1,0.8,0.4,0.9
		l18.2,9.5l2.6,1.4c1.1,0.6,4.1,0.4,4.4-1.1l1-4.2l-4.9,0.5c0.3,1.8,0.8,3.6,1.5,5.3c1.1,2.4,2.9,3.4,5.3,4.2c2.6,1,5.4,1.5,8.2,1.5
		c1.6,0,4.7-0.3,4.7-2.5c-0.1-1.3-0.5-2.6-1.2-3.8c-0.9-1.9-1.9-3.8-3-5.6c-2.1-3.4-4.5-7.2-7.6-9.8c-4-3.3-10.2-0.6-12.9,3.2
		c-0.6,0.9,0.4,1.5,1.2,1.6C290.9,130.8,292.5,130.6,293.1,129.7z"></path><path class="st2" d="M291.3,132.5c0.5-0.6,1.1-1.2,1.7-1.8c0.1-0.1,0.2-0.2,0.4-0.3c0.1-0.1,0.2-0.2,0.2-0.4c0.1-0.2,0.1-0.4,0-0.6
		c-0.1-0.3-0.2-0.5-0.3-0.8c-0.1-0.3-0.3-0.6-0.5-0.9l-0.4-0.6c-0.2-0.3-0.5-0.6-0.8-0.8c-0.2-0.2-0.6-0.5-0.9-0.3
		c-0.1,0.1-0.2,0.2-0.3,0.3l-0.5,0.5c-0.3,0.3-0.7,0.7-1,1.1l-0.2,0.2c-0.1,0.1-0.2,0.2-0.2,0.4c0,0.2,0,0.4,0,0.6
		c0.1,0.3,0.1,0.5,0.3,0.8c0.1,0.3,0.3,0.6,0.5,0.9l0.4,0.6c0.2,0.3,0.5,0.6,0.8,0.8l0.4,0.2C290.9,132.6,291.1,132.6,291.3,132.5
		L291.3,132.5z"></path><path class="st2" d="M308.5,147.2c0,0-59-31.6-60.4-31.4s-3.9,4.2-3.4,5.7s63.5,29.8,64.4,30c0.4,0.1,2.2,0.5,4.3,1.1
		c0.6,0.1,1.2-0.3,1.4-0.9c0.1-0.5-0.1-1-0.5-1.2L308.5,147.2z"></path><path class="st2" d="M309.2,146c-8.5-4.6-17.1-9.1-25.7-13.6c-6.6-3.5-13.2-7-19.8-10.4c-4.6-2.4-9.1-4.8-13.8-6.9
		c-1.5-0.7-3.1-1.4-4.6-0.3c-1.7,1.3-2.8,3.3-3,5.4c0,1,0.6,2,1.5,2.5c1.3,0.9,2.7,1.7,4.1,2.3c2.4,1.2,4.8,2.4,7.2,3.5
		c13,6.2,26.2,12.2,39.3,18.1c4.4,2,8.7,3.9,13.1,5.8c1.5,0.6,3.1,1.1,4.6,1.4c1.3,0.3,2.9,1,4.1,0.1c0.9-0.7,1.1-2.1,0.4-3.1
		c-0.9-1.4-2.7-2.1-4.1-2.9L309.2,146c-0.7-0.4-2.3-1-2.9-0.1s0.9,2.1,1.5,2.4l3.3,1.9l1.9,1.1c0.1,0.1,0.4,0.3,0.5,0.3
		s-0.9-1-1-1.1c0,0.1,0,0.2-0.1,0.3c-0.1,0.2,0,0.2,0.4,0.1c-0.7-0.3-1.4-0.5-2.1-0.5l-1.6-0.4c-0.2,0-0.4-0.1-0.6-0.1
		c-0.1-0.3,0.8,0.3,0.5,0.1s-0.7-0.3-1-0.4c-3.9-1.7-7.8-3.4-11.7-5.2c-12.6-5.7-25.2-11.4-37.8-17.3l-3.9-1.8l-1-0.5l-0.4-0.2
		l-1.7-0.8c-1.6-0.8-3.3-1.6-4.9-2.5l-0.7-0.4c-0.5-0.3-0.4-0.3,0,0c-0.5-0.4,1,0.9,0.7,1c0-0.3,0-0.5,0.1-0.8
		c0.1-0.5,0.3-1,0.6-1.4c0.5-0.7,1-1.4,1.6-2.1c0.1-0.1,0.3-0.2,0.3-0.2s-0.6,0-0.6,0s-0.7,0-0.7-0.2c0,0,1.1,0.4,1.1,0.5l0.9,0.4
		l0.5,0.2l0.1,0.1l2.8,1.4c2.4,1.2,4.8,2.4,7.2,3.7c6.2,3.2,12.4,6.4,18.5,9.7c9.3,4.9,18.6,9.8,27.9,14.8l0.5,0.2
		c0.7,0.4,2.3,1,2.8,0.1S309.8,146.3,309.2,146z"></path><path class="st0" d="M291.2,146.6c0,0-1.1,5,1.4,5.8s8.1-2.8,13.9-3.9s5.9,5.1,1.5,9.2s-13,9.4-19.6,12.3s-11.6,1.1-11.6,1.1
		c-1.7,0.9-19.8,24.5-19.8,24.5s-23.4,32.8-56.8,3.8c0,0-16.4-53-10.1-54.9s39.8,35.4,39.8,35.4c-1.1-5.5,39.4-44.6,39.4-44.6"></path><path class="st2" d="M288.9,146.8c-0.5,2.1-0.6,5.2,1.2,6.8c2.8,2.4,7.5-0.2,10.3-1.3c2-0.9,4.1-1.5,6.2-1.9c0.5-0.1,1,0,1.5,0.2
		c0.2,0.2,0.4,0.4,0.5,0.7c1,2.8-2.2,5.5-4.2,7.1c-3.5,2.7-7.1,5.1-11,7.1c-3.7,2-7.6,4.3-12,4.3c-0.6,0-1.2,0-1.9-0.1
		c-0.3,0-0.5-0.1-0.8-0.1c-0.1,0-0.2,0-0.3-0.1c-0.3-0.1,0.4,0.1,0.1,0c-1.2-0.4-2.5-0.2-3.4,0.6c-1.1,1-2.2,2.1-3.1,3.4
		c-5.8,6.9-11.3,14.1-16.8,21.3c-0.9,1.2-1.9,2.4-3,3.5c-0.1,0.1-0.3,0.3-0.4,0.4c0.5-0.5,0,0-0.1,0.1c-0.4,0.3-0.7,0.7-1.1,1
		c-0.7,0.7-1.5,1.3-2.2,2s-1.8,1.4-2.7,2c-0.5,0.4,0.2-0.1-0.3,0.2l-0.7,0.5c-0.5,0.3-1.1,0.7-1.6,1c-1.1,0.6-2.3,1.2-3.5,1.8
		c-0.1,0-0.5,0.2,0,0c-0.1,0.1-0.3,0.1-0.4,0.2l-0.9,0.3c-0.6,0.2-1.3,0.5-2,0.6c-2.7,0.8-5.5,1.2-8.3,1.1c-7.2-0.1-14.2-3-20.1-7.1
		c-2-1.4-3.9-2.9-5.8-4.5l0.5,0.9c-1.7-5.4-3.2-10.8-4.7-16.1c-2.5-9.3-5-18.6-6.4-28.1c-0.3-1.8-0.4-3.6-0.5-5.4c0-0.4,0-0.7,0-1.1
		s0-0.1,0-0.1v-0.6c0-0.5,0.2-1,0.3-1.6c-0.1,0.3-0.2,0.2,0.1-0.1s-0.4,0.5,0,0c-0.3,0.4-0.6,0.6-1.1,0.7c0.4-0.1-0.6,0.1-0.3,0.1
		s-0.1,0-0.2,0c0.2,0.1,0.4,0.1,0.6,0.1c-0.7-0.1,0.1,0.1,0.4,0.2c0.6,0.3,1.2,0.6,1.7,0.9c0.3,0.2,0.1,0.1,0.1,0.1l0.5,0.3
		c0.4,0.2,0.8,0.5,1.1,0.8c0.8,0.6,1.6,1.2,2.4,1.8c1.8,1.4,3.5,2.9,5.1,4.4c3.8,3.4,7.5,7,11.1,10.7c3.3,3.3,6.5,6.7,9.7,10.1
		c1.7,1.9,3.4,3.8,5.2,5.6c0.1,0.1,0.2,0.2,0.2,0.3c1.3,1.4,4.6-0.5,4.2-2.3c-0.1-0.5-0.2,0.4,0,0s0.2-0.8,0-0.2
		c0.2-0.5,0.4-1,0.7-1.5c0.1-0.2,0.5-0.9,0.4-0.6s0.1-0.2,0.2-0.3s0.2-0.4,0.4-0.6c0.5-0.8,1.1-1.5,1.6-2.2
		c2.9-3.8,6.1-7.4,9.4-10.9c7-7.6,13.7-14.4,21-21.6c1.6-1.6,3.2-3.2,4.9-4.8c0.7-0.7,1.4-1.9,0.5-2.8s-2.5-0.4-3.3,0.4
		c-4.8,4.6-9.5,9.4-14.2,14.1c-7.4,7.6-15,15.2-21.5,23.5c-1.3,1.6-2.5,3.3-3.6,5.1c-0.6,1.1-1.4,2.5-1.1,3.8l4.2-2.3
		c-3.3-3.7-6.8-7.4-10.2-10.9c-6.1-6.5-12.6-12.8-19.3-18.6c-3.2-2.7-11.6-10.2-15.1-3.9c-1.1,2.1-0.9,4.9-0.7,7.2
		c0.4,3.7,0.9,7.3,1.7,10.9c1.7,8.5,3.9,16.9,6.3,25.2c0.8,3,1.7,6,2.6,9c0.2,0.8,0.5,1.6,0.7,2.4c0.1,0.2,0.1,0.3,0.2,0.5
		c0.3,1.1,1.4,1.7,2.2,2.4c9.5,7.7,21.4,12.7,33.8,10.2c7.9-1.8,15.2-5.9,20.9-11.7c2.4-2.5,4.6-5.1,6.6-7.9c5-6.5,9.9-13,15.3-19.2
		c0.4-0.4,0.8-0.8,1.1-1.2c0.2-0.2-0.4,0.5,0,0s0,0-0.2,0.1l-2.3,0.2c4.3,1.6,9.5,0.6,13.5-1.1c5.9-2.6,11.5-5.8,16.6-9.6
		c2.3-1.5,4.3-3.3,6-5.5c1.3-1.9,2.5-4.3,2-6.6c-1.2-6.3-9.8-2.9-13.5-1.5c-1.5,0.6-2.9,1.2-4.4,1.6c-0.5,0.2-1,0.3-1.5,0.3
		c0.4,0-0.3-0.1,0.1,0c-0.3-0.1-0.1,0.1-0.3-0.2c-0.8-0.8-0.5-2.9-0.2-4s-0.9-1.9-2-1.8C290.2,144.7,289.2,145.6,288.9,146.8
		L288.9,146.8z"></path><path class="st1" d="M315.4,152.5c0,0-0.3,8.8,11.8,9.1s10.6-13,9.1-13s-3.8,6.5-7.4,4.1S315.7,146.6,315.4,152.5z"></path><path class="st1" d="M312.9,152.7c0,3.2,1.6,6.2,4.3,8c2.9,2.1,6.7,2.6,10.2,2.6c3.4,0.1,6.6-1.2,9.1-3.4c1.6-1.7,2.7-3.8,3-6.1
		c0.3-1.7,0.3-3.4-0.2-5c-1-2.8-4.5-1.8-6.1,0c-0.8,1-1.6,1.9-2.5,2.8c0.3-0.3-0.2,0.1-0.3,0.2c0.4-0.3-0.3-0.1,0.3-0.1
		c-0.1,0-0.5,0.1,0.1,0s0.1,0,0.1,0c0.3-0.1,0,0,0.1,0c-0.2-0.2-0.5-0.3-0.8-0.5c-2.8-1.8-6-2.9-9.3-3.4
		C317.5,147.5,313.2,148.7,312.9,152.7c-0.2,2.4,4.7,1.7,4.9-0.3c0-0.3,0-0.5,0.1-0.8c0.1-0.4,0-0.2,0-0.1c0-0.1,0.1-0.2,0.1-0.3
		c0.2-0.4,0,0.2,0,0c0-0.1,0.1-0.3,0.1-0.1c0,0.1-0.1,0.1-0.1,0.1s-0.2,0.1,0,0l0.1-0.1c-0.7,0.2,0,0,0.2,0c-0.7,0.1,0,0,0.2,0
		c0.4,0,0,0,0,0h0.5c0.3,0,0.6,0.1,0.9,0.1l0.4,0.1c-0.3-0.1,0,0,0.1,0c0.3,0.1,0.6,0.1,0.9,0.2c0.7,0.2,1.3,0.4,2,0.7
		c1,0.4,2,0.9,2.9,1.4c1.2,0.8,2.6,1.3,4,1.3c1.6-0.1,3.2-0.9,4.4-2c0.8-0.8,1.5-1.6,2.2-2.5c0.1-0.2,0.3-0.3,0.4-0.5
		c0.4-0.4-0.2,0.1,0.1-0.1c-0.9,0.5-1.9,0.6-2.9,0.2c0.1,0-0.4-0.4-0.1-0.1s0.1,0.4,0-0.1c0,0.1,0.1,0.2,0.1,0.3
		c0.1,0.3,0.1,0.6,0.2,0.9s0.1,0.6,0.1,0.9c0,0.1,0,0.3,0-0.1c0,0.1,0,0.2,0,0.3c0,0.2,0,0.5,0,0.7c0,0.9-0.2,1.7-0.4,2.5
		c0,0.1-0.2,0.6-0.1,0.3c-0.1,0.2-0.2,0.4-0.2,0.6c-0.2,0.5-0.4,0.9-0.7,1.3c0,0.1-0.2,0.3,0,0l-0.2,0.3c-0.1,0.2-0.3,0.4-0.5,0.5
		s-0.6,0.5-0.2,0.2c-0.2,0.2-0.5,0.3-0.7,0.5s-0.5,0.3,0,0l-0.4,0.2c-0.2,0.1-0.5,0.2-0.8,0.3c0.5-0.2-0.2,0.1-0.4,0.1l-0.4,0.1
		c-0.5,0.1,0.1,0-0.1,0c-2.7,0.4-5.4-0.1-7.8-1.2c-0.9-0.5-1.8-1.2-2.4-2c-0.3-0.4-0.5-0.8-0.8-1.2c-0.2-0.4,0,0.1-0.2-0.3l-0.2-0.5
		c-0.2-0.6-0.4-1.2-0.5-1.9c0-0.2,0-0.4,0-0.6c0.1,0.6,0,0.4,0,0.2C317.9,149.9,313,150.6,312.9,152.7z"></path><path class="st2" d="M112.6,211.8c0,0,30.2-85.1,62.6-81.1s28.4,91,28.4,91S146.2,238.9,112.6,211.8z"></path><path class="st2" d="M114.4,213.3c1-2.8,2.1-5.7,3.3-8.5c2.7-6.8,5.7-13.5,8.9-20.1c3.9-8.2,8.3-16.2,13.2-23.9
		c4.7-7.2,9.9-14.3,16.4-20c5-4.4,11.1-8.1,17.9-8h0.5c0.1,0,0.2,0,0.3,0c0.4,0,0.8,0.1,1.2,0.2c0.7,0.1,1.4,0.3,2.1,0.5
		c0.4,0.1,0.7,0.2,1,0.3c-0.4-0.1,0.5,0.2,0.8,0.3c0.7,0.3,1.4,0.7,2,1.1c0.2,0.1,1,0.7,0.6,0.4l0.9,0.7c0.6,0.5,1.2,1,1.8,1.6
		l0.4,0.4l0.2,0.3l-0.1-0.1l0.8,0.9c0.5,0.6,1.1,1.3,1.5,2c0.2,0.3,0.4,0.6,0.6,0.9s0.2,0.4,0.4,0.6c0.3,0.5-0.1-0.2,0.1,0.2
		c0.5,0.8,0.9,1.5,1.3,2.3c0.9,1.6,1.6,3.3,2.4,5c0.1,0.2,0.2,0.5,0.3,0.7s0-0.1,0-0.1s0.1,0.2,0.1,0.3c0.2,0.5,0.4,1,0.5,1.4
		c0.4,0.9,0.7,1.9,1,2.9c0.6,1.9,1.2,3.9,1.7,5.9c2,8.2,3.4,16.5,4.1,24.9c0.7,7.4,1.1,14.8,1.2,22.2c0,2.6,0,5.2,0,7.8
		c0,0.9,0,1.8-0.1,2.6c0,0.2,0,0.3,0,0.5c0,0.5,0-0.6,0,0c0,0.2,0,0.5,0,0.7s0,0.4,0,0.6l0.8-1.2c-0.3,0.1,0.6-0.2,0,0l-1.2,0.3
		c-1.5,0.4-2.9,0.7-4.4,1.1c-5,1.1-10.1,2-15.2,2.6c-14.6,1.8-29.8,1.9-44.1-1.9c-8.8-2.1-17.1-6.1-24.2-11.7
		c-0.8-0.7-2-0.8-2.6,0.3c-0.4,1.2,0,2.5,1,3.3c13.1,10.5,29.8,14.8,46.3,15.6c13,0.6,26-0.6,38.7-3.4c2.6-0.6,5.3-1.2,7.9-2
		c0.4-0.3,0.7-0.7,0.8-1.2c0.1-3,0.2-6.1,0.2-9.1c0-7-0.2-14-0.8-21c-0.6-8.8-1.8-17.5-3.5-26.1c-1.7-8-4-16.2-8-23.4
		c-3.4-6.1-8.2-11.8-15.1-14c-6.6-2.2-13.7-0.2-19.4,3.4c-7.1,4.6-12.8,11.1-17.7,17.9c-5.5,7.7-10.5,15.9-14.8,24.4
		c-3.8,7.3-7.3,14.8-10.5,22.4c-1.7,4.1-3.4,8.2-4.9,12.4l-0.2,0.6c-0.4,1.2,0,2.5,1,3.3C112.6,214.3,114,214.5,114.4,213.3z"></path><path class="st0" d="M66.2,147.8c0,0-8.8,32,3.1,55.9c14.2,28.3,85.3-25.1,87.6-53.7c3.1-38.5-65.1,24.6-65.1,24.6l-1-36
		L66.2,147.8z"></path><path class="st2" d="M63.8,147.6c-2.3,9.1-3.4,18.4-3.1,27.8c0.1,8.1,1.5,16.1,4.2,23.7c1.8,4.6,3.9,8.9,8.2,11.6
		c7.4,4.5,17.1,2.7,24.7,0c10.6-3.7,20.2-9.8,29.1-16.6c9.1-6.9,17.1-15,23.9-24.2c4.9-6.8,9.4-14.9,8.8-23.6
		c-0.2-3.1-1-6.2-3.5-8.2s-5.8-2.4-8.9-2.1c-7.8,0.9-15.1,5.3-21.6,9.5c-7.7,5-15.2,10.5-22.2,16.4c-4.4,3.6-8.7,7.3-12.9,11.1
		l-0.6,0.6l4.5,1.3l-0.9-31.5l-0.1-4.4c-0.1-2-2.8-2.1-4.1-1.6l-21.5,8.1l-3.1,1.1c-0.7,0.3-1,1-0.7,1.7c0.1,0.2,0.3,0.4,0.5,0.6
		c1,0.7,2.4,0.9,3.5,0.4l21.5-8l3.1-1.2l-4.1-1.6l0.9,31.5l0.1,4.5c0.1,2,3.3,2.4,4.6,1.3c2.8-2.6,5.7-5.1,8.6-7.6
		c6.4-5.4,12.9-10.6,19.7-15.5c3.6-2.6,7-4.8,10.9-7.1c1.8-1,3.5-2,5.3-2.9c0.8-0.4,1.7-0.8,2.6-1.2l1.2-0.5l0.6-0.2
		c0.5-0.2-0.3,0.1,0.3-0.1c1.5-0.5,3-0.9,4.5-1.2c0.4-0.1-0.5,0.1,0,0l0.5-0.1c0.3,0,0.7-0.1,1-0.1h0.4c0.6,0-0.4-0.1-0.1,0
		s0.6,0.1,0.9,0.1c0.8,0.1-0.5-0.2,0.3,0c0.2,0.1,1,0.3,0.6,0.2s0.3,0.2,0.5,0.2s0.5,0.4,0-0.1c0.1,0.1,0.2,0.1,0.3,0.2l0.6,0.5
		c0,0-0.2-0.3,0,0c0.1,0.1,0.2,0.2,0.3,0.4s0.3,0.4,0.4,0.6c0.3,0.4-0.1-0.2,0.1,0.1s0.1,0.3,0.2,0.5c0.5,1.3,0.8,2.7,0.8,4.1
		c0.1,1.9,0,3.7-0.4,5.6c-0.8,3.9-2.3,7.6-4.4,11c-5.2,9-12.5,16.7-20.2,23.5c-8.1,7.4-17.3,13.6-27.1,18.5
		c-4.1,2.1-8.4,3.6-12.9,4.7l-1.6,0.3l-0.5,0.1c0.2,0-0.5,0.1-0.7,0.1c-1,0.1-1.9,0.2-2.9,0.2c-0.4,0-0.9,0-1.3,0c0.5,0,0.1,0-0.1,0
		l-0.8-0.1c-0.4,0-0.8-0.1-1.3-0.1l-0.6-0.1c-0.4-0.1,0.1,0,0.2,0l-0.4-0.1c-0.4-0.1-0.8-0.2-1.2-0.3l-0.6-0.2
		c-0.6-0.2,0.2,0.1-0.2-0.1s-0.7-0.3-1-0.5l-0.5-0.3l-0.3-0.1c-0.4-0.3,0.3,0.2,0,0c-0.7-0.5-1.3-1-1.9-1.5c-0.4-0.4,0,0-0.2-0.2
		l-0.4-0.5c-0.3-0.3-0.5-0.7-0.8-1c-1.7-2.6-2.9-5.4-3.8-8.3c-1.2-3.7-2.1-7.6-2.7-11.5c-1.5-11.8-0.9-23.7,1.9-35.2
		c0.2-0.7,0.3-1.3,0.5-2c0.3-1.1-1.5-1.8-2.3-1.9C65.3,146.1,64.1,146.4,63.8,147.6z"></path><path class="st0" d="M87.3,122.9c-8.2-4-13.9-11.6-15.5-20.5c-0.3-1.8-0.7-3.6-1.1-5.4C68,85.8,33,71.3,19.4,98.2s8.9,52,41.1,58.5
		s40.6-18.6,35.4-27C94,126.8,90.8,124.6,87.3,122.9z"></path><path class="st1" d="M89.4,121.7c-4.9-2.3-9-6.1-11.7-10.7c-1.4-2.3-2.4-4.8-3.1-7.4c-0.7-2.7-0.9-5.5-1.8-8.1
		c-0.9-2.2-2.3-4.2-4.2-5.7c-2.3-2-5-3.7-7.8-4.9c-6.7-3.1-14.2-4-21.5-2.8c-8.6,1.5-16.2,6.7-20.8,14.2c-4.9,8-6.8,17.7-4.5,26.9
		c2.3,8.9,8.4,16.5,15.5,22c8.5,6.4,18.3,10.7,28.7,12.7c9.3,1.9,19.3,1.7,27.9-2.9c5.8-3,10.3-8.1,12.5-14.3
		c0.8-2.4,1.1-4.9,0.9-7.4c-0.2-2.5-1.3-4.9-3.1-6.7C94.4,124.5,92.1,122.9,89.4,121.7c-1-0.5-2.2,0-3.1,0.5c-0.3,0.2-2,1.4-1.1,1.8
		c3.6,1.8,7.7,4.2,9.1,8.2c0.6,1.9,0.8,3.9,0.5,5.9c-0.7,5.1-3.3,9.8-7.3,13.2c-0.6,0.5-1.2,0.9-1.8,1.3l-0.3,0.2l-0.4,0.2
		c-0.4,0.2-0.8,0.5-1.3,0.7c0.4-0.2-0.6,0.3-0.8,0.3c-0.4,0.2-0.8,0.3-1.2,0.5c-0.2,0.1-0.4,0.1-0.8,0.3s-1,0.3-1.6,0.4
		c-4,0.9-8.2,1.1-12.2,0.6c-10.3-1.2-20.2-4.7-29-10.3c-7.5-4.8-14.1-11.3-17.7-19.5c-3.5-7.9-3.6-16.9-0.5-24.9
		c1.5-4.2,3.9-8,6.9-11.1c1.2-1.2,2.6-2.3,4.1-3.2c1.3-0.7,2.6-1.3,4-1.8c6-1.9,13.2-1.2,19.4,1.1c4.8,1.7,10.4,4.7,13,9.3
		c0.6,1.1,1,2.4,1.2,3.6c0.5,2.8,1.2,5.6,2,8.3c1.7,4.8,4.6,9,8.4,12.3c1.9,1.7,4,3,6.3,4.1c1,0.5,2.3-0.1,3.1-0.5
		C88.6,123.4,90.3,122.2,89.4,121.7z"></path><path class="st0" d="M73,128.1c0,0-0.8-3.5-3.1-4.2s-8.5-2.9-6.4-5.8s12.2-1.1,15.5,1.5s2,9.9,2,9.9
		C78.2,130.2,75.3,129.7,73,128.1z"></path><path class="st2" d="M74.3,129.4c-0.5-1.7-1.2-3.4-2.3-4.8c-0.6-1-1.5-1.9-2.6-2.5c-0.7-0.3-1.4-0.6-2.2-0.8
		c-0.8-0.3-1.6-0.6-2.4-1c-0.4-0.2-0.7-0.4-1.1-0.7c-0.1-0.1-0.3-0.2-0.4-0.3c0.2,0.1-0.1,0-0.1-0.1s0.2,0.3,0.3,0.4
		c0.3,0.5,0.6,1.1,0.8,1.7c0,0,0-0.2,0-0.1s0.1-0.3,0.1-0.4c0.1-0.3,0.3-0.6,0.5-0.8c0.5-0.4,1.1-0.8,1.7-0.9c1.7-0.3,3.5-0.3,5.2,0
		c1.9,0.3,3.7,0.7,5.5,1.5c0.7,0.3,1.4,0.6,2,1.1c0.1,0.1,0.2,0.1,0.3,0.2c0.1,0,0.1,0.1,0,0l-0.2-0.3c0-0.1-0.3-0.6-0.2-0.3
		s0-0.1-0.1-0.1s0.1,0.3,0,0.1s0.1,0.3,0.1,0.3c0.4,1.5,0.5,3.1,0.3,4.6c0,0.5-0.1,1-0.2,1.5c0,0.2,0.2,0,0,0s-0.5,0.1-0.7,0.1
		c-2.3,0.4-4.8-0.1-6.7-1.5c-0.8-0.6-0.4,0.9-0.3,1.2c0.4,1.1,1,2.1,1.9,2.8c2.4,1.8,5.5,2.4,8.3,1.6l0.1-0.2
		c0.5-2.5,0.3-5.2-0.3-7.7c-0.7-2.5-2.1-4.7-4-6.3c-1.3-1-2.8-1.7-4.4-2.1c-1.8-0.5-3.6-0.9-5.4-1c-1.6-0.2-3.2,0-4.7,0.5
		c-4.3,1.8-0.1,7.4,2.3,8.9c1.6,0.9,3.2,1.7,5,2.2c0.4,0.1,0.7,0.3,1,0.5c0,0-0.1-0.1-0.1-0.1c0.1,0,0.2,0.3,0,0s-0.5-0.8-0.2-0.2
		c-0.2-0.4-0.1-0.1,0,0.1c0,0.1-0.1-0.3,0,0c0,0.1,0.1,0.3,0.1,0.4c0.3,1.1,0.9,2.2,1.8,3C74.2,130.5,74.5,130.2,74.3,129.4z"></path><path class="st0" d="M67.3,138.6c0,0-7.3,3.5-1.1,9.3s13.2-3.1,10.8-6.8S69.5,136.9,67.3,138.6z"></path><path class="st1" d="M65.2,137.4c-1.6,0.7-2.8,2-3.5,3.6c-0.4,1.5-0.2,3.1,0.7,4.3c1.4,2.1,3.4,3.8,5.8,4.7c1.9,1,4.2,1.2,6.3,0.6
		c1.4-0.5,2.6-1.4,3.6-2.5c0.9-1,1.5-2.3,1.7-3.6c0.2-1.4-0.3-2.9-1.4-3.9c-2.1-2.2-4.9-3.6-7.9-4.1
		C68.6,136.1,66.7,136.5,65.2,137.4c-0.7,0.5,0.9,1.4,1.2,1.6c0.6,0.3,1.2,0.6,1.8,0.7c0.3,0.1,0.9,0.3,1.2,0.1
		c0.5-0.3,1-0.6,1.6-0.7c0,0,0.3-0.1,0.2-0.1h0.1l0.5-0.1c0.2,0,0.4,0,0.5,0h0.2c0.3,0-0.2,0,0,0s0.3,0,0.5,0.1c0.1,0,0.2,0,0.3,0.1
		c0,0-0.5-0.1-0.1,0l0.3,0.1c0.2,0.1,0.2,0.2-0.2-0.1c0.1,0,0.2,0.1,0.2,0.1c0.4,0.1-0.5-0.2-0.2-0.1c0.5,0.2-0.5-0.3,0.1,0
		c0.2,0.1,0.1,0.2-0.2-0.1c0.1,0.1,0.1,0.1,0.2,0.1c0.1,0,0.2,0.1,0.2,0.2c0,0-0.4-0.3-0.1-0.1l0.2,0.2c0,0,0.3,0.4,0.1,0.1
		c0.3,0.3,0.5,0.6,0.8,0.9l0.1,0.2c-0.2-0.2-0.1-0.1,0,0s0.1,0.2,0.2,0.4c0.1,0.4,0.2,0.9,0.2,1.4c-0.1,1.2-0.6,2.3-1.3,3.2
		c-0.7,1-1.7,1.9-2.8,2.4c-0.3,0.1-0.5,0.2-0.8,0.3l-0.4,0.1l-0.2,0.1c0.2-0.1-0.1,0-0.1,0c-0.3,0-0.6,0-0.9,0.1c0.4,0,0,0-0.2,0
		c-0.1,0-0.2,0-0.2,0c0.5,0,0.2,0,0.1,0l0.2,0.1c-0.1,0-0.2-0.1-0.2-0.1c0.7,0.2,0.4,0.2,0.3,0.1c0.7,0.3,0.4,0.2,0.2,0.1l-0.2-0.1
		c0.5,0.2,0.3,0.2,0.1,0.1s-0.3-0.2-0.1-0.1s-0.1-0.1-0.1-0.1c-0.7-0.5-1.2-1.2-1.7-1.9c-0.7-1-0.8-2.2-0.5-3.3
		c0.6-1.5,1.7-2.8,3.2-3.4c0.8-0.4-1-1.4-1.2-1.6c-0.6-0.3-1.2-0.6-1.8-0.7C66,137.4,65.6,137.3,65.2,137.4z"></path><path class="st1" d="M45.2,132.9c0,0-7.3,3.5-1.1,9.3s13.2-3.1,10.7-6.8S47.4,131.2,45.2,132.9z"></path><path class="st1" d="M43.5,131.1c-1.7,0.8-3,2.2-3.8,3.9c-0.5,1.7-0.2,3.5,0.8,5c1.4,2.3,3.4,4.1,5.8,5.2c3.2,1.4,7,0.5,9.2-2.3
		c0.9-1.1,1.6-2.4,1.8-3.9c0.2-1.8-0.4-3.6-1.7-4.9c-1.7-2-4.1-3.4-6.8-3.9C47.1,129.8,45.2,130.1,43.5,131.1
		c-0.9,0.6-0.3,1.8,0.3,2.4c0.4,0.5,1,0.9,1.6,1.1c0.4,0.1,1,0.4,1.4,0.1c0.5-0.3,1-0.6,1.6-0.7c0.3-0.1-0.2,0,0,0h0.2h0.5
		c0.2,0,0.4,0,0.5,0h0.2c0.1,0,0.4,0,0.1,0s0.3,0,0.3,0c0.2,0,0.4,0.1,0.6,0.1l0.2,0.1c0.2,0.1,0,0.1-0.2,0c0.1,0.1,0.4,0.1,0.6,0.2
		l0.3,0.1c0.2,0.1,0.2,0.2-0.2-0.1c0.2,0.1,0.3,0.2,0.5,0.3c0.1,0.1,0.2,0.1,0.2,0.1c0,0-0.5-0.4-0.2-0.1s0.4,0.3,0.5,0.4
		c0,0-0.5-0.5-0.2-0.1l0.2,0.2c0.1,0.1,0.1,0.2,0.2,0.2c-0.3-0.3-0.2-0.3-0.1-0.1s0.2,0.3,0.3,0.4s-0.1-0.2-0.1-0.3
		c0,0.1,0.1,0.2,0.1,0.2c0.2,0.4,0-0.3,0-0.1s0,0.2,0.1,0.3s0,0.2,0,0.4c0,0.3,0-0.3,0-0.1s0,0.1,0,0.2c0,0.5-0.2,1.1-0.4,1.6
		c0,0.1-0.1,0.1-0.1,0.2c-0.1,0.3,0.1-0.2,0,0s-0.1,0.3-0.2,0.4c-0.2,0.3-0.3,0.6-0.5,0.8c-0.4,0.5-0.8,1-1.2,1.4l-0.4,0.3
		c0,0-0.2,0.2,0,0l-0.2,0.1c-0.3,0.2-0.6,0.4-0.9,0.5c-0.3,0.1-0.5,0.2-0.8,0.3l-0.4,0.1c0.4-0.1-0.1,0-0.3,0c-0.3,0-0.6,0-0.9,0
		s0.1,0,0.1,0h-0.2l-0.6-0.1c-0.3-0.1,0.1,0,0.2,0.1s-0.2-0.1-0.2-0.1s-0.3-0.1-0.5-0.2c0.5,0.1,0.4,0.2,0.2,0.1l-0.3-0.2
		c-0.1-0.1-0.2-0.1-0.2-0.1c-0.3-0.2,0.5,0.4,0.1,0.1l-0.5-0.4c-0.4-0.3,0.3,0.3,0,0l-0.3-0.3c-0.2-0.2-0.3-0.3-0.5-0.5
		s0.3,0.4,0.1,0.1l-0.2-0.3l-0.2-0.3c0-0.1-0.2-0.3,0-0.1s-0.1-0.2-0.1-0.3l-0.1-0.2c-0.1-0.3,0.1-0.1,0,0.1c0-0.1-0.1-0.4-0.1-0.5
		s0-0.3,0-0.4s0-0.3,0,0.1c0-0.1,0-0.1,0-0.2c0-0.3,0.1-0.5,0.1-0.8l0.2-0.4c0-0.2-0.1,0.2,0,0.1s0.1-0.1,0.1-0.2
		c0.1-0.3,0.3-0.5,0.5-0.7c0.3-0.4,0.7-0.8,1.1-1.1l0.1-0.1c0.2-0.2-0.3,0.2-0.1,0.1l0.3-0.2l0.4-0.3c0.2-0.1,0.3-0.2,0.4-0.2
		C48.7,133.8,45.1,130.3,43.5,131.1z"></path><path class="st0" d="M30.7,116.4c0,0-7.3,3.5-1.1,9.3s13.2-3.1,10.7-6.8S33,114.8,30.7,116.4z"></path><path class="st1" d="M29.4,114.3c-1.8,0.9-3.2,2.3-4,4.2c-1.7,4.4,2.1,9.1,6,10.8c3.4,1.6,7.2,0.1,9.5-2.6c1.1-1.3,1.8-2.8,2.1-4.4
		c0.3-2-0.3-4-1.7-5.4c-1.6-1.9-3.8-3.2-6.3-3.6C33.1,112.8,31.1,113.2,29.4,114.3c-0.9,0.7-1.1,2.1-0.3,3.1c0.6,0.9,1.9,1.9,3,1.1
		c0.2-0.2,0.5-0.3,0.7-0.4c0.4-0.2-0.5,0.1,0,0l0.5-0.1c0.3-0.1,0.6-0.1,1-0.2s-0.4,0-0.2,0c0.1,0,0.2,0,0.3,0H35
		c0.4,0.1,0.7,0.1,1.1,0.2c0,0-0.5-0.1-0.2,0l0.2,0.1c0.2,0.1,0.4,0.1,0.6,0.2c0.2,0.1,0.4,0.2,0.5,0.2c0,0-0.5-0.3-0.2-0.1l0.2,0.1
		c0.2,0.1,0.3,0.2,0.5,0.3l0.2,0.2l0.2,0.1l-0.2-0.2c0.1,0.1,0.3,0.3,0.4,0.4s0.3,0.3,0.4,0.4c0.3,0.3-0.1-0.1-0.1-0.2
		c0.1,0.1,0.1,0.2,0.2,0.2c0.2,0.3,0.2,0.6,0-0.2c0,0.1,0.1,0.2,0.1,0.3c0.2,0.5-0.1-0.5,0-0.2c0,0.1,0,0.2,0,0.3
		c0.1,0.5,0-0.6,0-0.1c0,0.3-0.1,0.5-0.1,0.8c-0.1,0.4,0.2-0.5,0-0.1c0,0.1-0.1,0.3-0.1,0.4c-0.1,0.3-0.2,0.5-0.4,0.8l-0.1,0.2
		c-0.1,0.2,0.2-0.4,0.1-0.2s-0.2,0.3-0.3,0.5c-0.4,0.5-0.8,1-1.3,1.5c-0.2,0.2,0.4-0.3,0.2-0.1s-0.2,0.1-0.2,0.2l-0.4,0.3
		c-0.3,0.2-0.6,0.4-0.9,0.5c-0.1,0.1-0.3,0.1-0.4,0.2s0.5-0.2,0.2-0.1l-0.2,0.1c-0.3,0.1-0.7,0.2-1,0.2c-0.2,0-0.6-0.1,0,0
		c-0.2,0-0.3,0-0.5,0H33h-0.2c-0.4-0.1,0.5,0.1,0.1,0s-0.6-0.2-0.9-0.3s0.1,0.1,0.2,0.1c-0.1-0.1-0.2-0.1-0.3-0.2
		c-0.2-0.1-0.4-0.2-0.5-0.3l-0.2-0.2c-0.4-0.3,0.1,0.1,0.1,0.1c-0.2-0.2-0.4-0.4-0.6-0.5c-0.2-0.2-0.3-0.3-0.5-0.5
		c-0.1-0.1-0.2-0.2-0.2-0.2c-0.3-0.4,0-0.1,0.1,0.1c0-0.2-0.3-0.4-0.4-0.5s-0.4-0.7-0.1-0.2s-0.1-0.2-0.1-0.3s0-0.2-0.1-0.2
		c-0.1-0.4,0.1,0.5,0,0.2s0-0.3-0.1-0.4c0-0.1,0-0.2,0-0.3c0,0,0,0.6,0,0.3c0-0.1,0-0.3,0-0.4c0-0.5-0.1,0.4,0,0
		c0.1-0.3,0.2-0.5,0.3-0.8c0.1-0.3-0.1,0.2-0.1,0.2c0.1-0.1,0.1-0.1,0.1-0.2c0.1-0.1,0.2-0.2,0.2-0.3c0.2-0.2,0.3-0.4,0.5-0.6
		l0.3-0.2c-0.5,0.5-0.2,0.2,0,0c0.4-0.4,0.9-0.7,1.4-0.9c0.5-0.3,0.8-0.8,0.8-1.3c0.1-0.6-0.1-1.3-0.4-1.8
		C31.8,114.3,30.6,113.8,29.4,114.3z"></path><path class="st2" d="M36.3,96.5c0,0-7.3,3.5-1.1,9.3s13.2-3.1,10.8-6.8S38.5,94.8,36.3,96.5z"></path><path class="st2" d="M35,94.3c-1.5,0.7-2.7,2-3.4,3.5c-0.6,1.8,0.2,3.6,1.1,5.2c1.3,2.3,3,4.8,5.4,6c2.8,1.4,6,0.3,7.9-2.1
		c0.9-1,1.4-2.3,1.7-3.7c0.1-0.6,0-1.3-0.2-1.9c-0.5-1.5-1.3-2.9-2.3-4.1C44,95.4,42,94,39.8,93.5C38.2,93.1,36.4,93.4,35,94.3
		c-0.3,0.2,0.9,2,1,2.3s1.3,2.2,1.6,2c2.3-1.6,5.7-1,7.8,0.6c0.3,0.2,0.5,0.4,0.8,0.7c0.2,0.2,0.1,0.1,0,0c0.2,0.2,0,0,0-0.1
		l0.1,0.1l-1-1.7c0.1,0.1-0.3-0.7-0.2-0.4c0,0.1,0,0.1,0,0.2c0-0.2,0,0,0,0s0,0.2,0,0.3c0,0.3,0,0.5,0,0.8c-0.1,1.2-0.6,2.3-1.3,3.2
		c-1.5,2.1-4,3.6-6.6,3c-0.7-0.2-1.4-0.4-2-0.8c-0.4-0.2-0.7-0.5-1-0.7c-0.2-0.2-0.3-0.3-0.5-0.5l-0.2-0.3c0,0-0.3-0.3-0.1-0.2
		c-0.3-0.4,0.2,0.2,0,0s0.5,0.8,0.4,0.6c0.2,0.3,0.3,0.5,0.4,0.8s0-0.2,0,0.1s-0.1-0.4-0.1-0.2c0-0.2-0.1-0.3-0.1-0.5
		c-0.1-0.5,0-1.1,0.2-1.6c0.6-1.5,1.8-2.8,3.4-3.5c0.3-0.1-0.9-2.1-1-2.3c-0.3-0.5-0.6-1-1-1.5C35.5,94.7,35.2,94.2,35,94.3z"></path><path class="st0" d="M216.5,99c-2.3-0.6-4.9-1.6-6.2-5.1c-1.4-3.6-2-6.9-3.9-12.3c-0.4-1.2-0.9-2.5-1.4-3.9l-1.4,3.5
		c-3.7,9.3-11.3,16.5-20.8,19.8l-0.9-0.3c0.6,16.5-11.1,21.7-11.1,21.7s0.7,12.4,0.5,12.1l0.2,0.2c1.4,2,11.7,15.6,21.5,10.6
		c0,0-0.7-2.2-1.4-5s-0.1-4.4,8.3-7.8c16.6-6.6,13.5-22.2,13.5-22.2c2.1,0,4.3-0.5,6.2-1.4C223,107.6,226.4,101.6,216.5,99z"></path><path class="st2" d="M216.5,96.9c-1.3-0.2-2.4-0.9-3.2-1.9c-1.1-1.4-1.5-3.3-1.9-5c-1.2-4.2-2.5-8.4-4-12.5
		c-0.6-1.7-3.6-3.2-4.5-0.9c-1.7,4.3-3.4,8.4-6.4,12c-3.9,4.7-8.9,8.3-14.7,10.2h1.1l-0.9-0.3c-0.9-0.3-1.9,0.2-2.2,1.2
		c0,0.1-0.1,0.3-0.1,0.5c0.2,5.8-1.2,11.5-5,16c-0.3,0.4-0.6,0.7-1,1.1s-0.4,0.4-0.8,0.8c-0.5,0.5-1.1,0.9-1.7,1.3
		c-0.4,0.3-0.9,0.6-1.3,0.8c-0.3,0.2-0.8,0.4-0.1,0c-0.7,0.2-1.2,0.9-1.1,1.6l0.3,5.8c0.1,1.4,0.1,2.7,0.2,4c0,0.5,0,1,0,1.5
		c0,0.2,0,0.3,0,0.5c0.1,0.5-0.4,0.6,0.3-0.7l2.6-0.4l0,0c-1.6-0.8-3.8,0.8-2.6,2.5c5.4,7.7,15.4,16.9,25.4,12.1
		c0.6-0.4,0.8-1.2,0.6-1.9c-0.6-1.8-1.1-3.6-1.5-5.4c0-0.1,0-0.4,0,0.1v-0.4c0-0.1,0-0.2,0-0.3c0-0.4-0.1,0.3,0,0.1
		c0-0.1,0.2-0.7,0.1-0.5s0.1-0.1,0.1-0.1l0.3-0.4c0,0,0.4-0.4,0.1-0.1c0.1-0.1,0.2-0.2,0.3-0.3c0.3-0.2,0.6-0.5,1-0.7
		c1-0.6,2-1.1,3-1.6c2.5-1,4.9-2.1,7.2-3.4c6-3.7,9.8-10.2,10.1-17.3c0.1-1.6,0-3.2-0.3-4.7l-1.6,2.2c2.3,0,4.7-0.5,6.8-1.5
		c1.7-0.7,3.1-2,3.9-3.6c0.9-1.8,0.8-4-0.3-5.7c-1.7-2.8-5-4-8-4.8c-0.9-0.3-1.9,0.2-2.2,1.2c0,0.1-0.1,0.3-0.1,0.4
		c0.2,1.3,1.1,2.3,2.4,2.6c1.1,0.3,2.1,0.7,3,1.2c0.2,0.1,0.4,0.2,0.5,0.4c0.4,0.3-0.4-0.4,0.1,0.1c0,0,0.4,0.5,0.2,0.2
		s0.1,0.2,0.1,0.3s0.1,0.3,0.1,0.2c0,0.1,0,0.3,0,0.4c0,0.5,0.1-0.3,0,0.2c-0.1,0.3-0.1,0.6-0.2,0.8c-0.2,0.5,0.2-0.3-0.1,0.2
		c-0.1,0.1-0.1,0.2-0.2,0.4c-0.2,0.2-0.4,0.5-0.6,0.7c-0.2,0.2,0.2-0.2-0.1,0.1c-0.1,0.1-0.3,0.2-0.4,0.3c-0.2,0.2-0.5,0.3-0.7,0.4
		c0.6-0.3-0.5,0.2-0.4,0.2l-1,0.4c-1.3,0.5-2.8,0.8-4.2,0.8c-1.3-0.1-1.8,1.2-1.6,2.2c0.1,0.4,0-0.4,0-0.3c0,0.3,0.1,0.6,0.1,0.8
		c0.1,0.9,0.1,1.7,0.1,2.6c-0.1,2.7-0.7,5.3-1.9,7.7c-1.8,3.3-4.5,6.1-7.8,7.9c-2.3,1.3-4.8,2.1-7.2,3.2c-1.7,0.7-3.2,1.7-4.4,3.1
		c-0.9,1.2-1.2,2.7-0.8,4.2c0.4,2,0.9,3.9,1.6,5.7l0.6-1.9c-4.2,2.1-8.5-0.3-11.7-2.9c-0.8-0.6-1.5-1.3-2.2-2
		c-0.7-0.7-1.4-1.4-2-2.1c-0.5-0.6-1-1.2-1.5-1.8l-0.5-0.7c-0.5-0.7,0.4,0.5-0.1-0.1l-2.6,2.5l0,0c0.7,0.4,2.1,0.4,2.6-0.4
		c0.3-0.8,0.4-1.8,0.3-2.7c0-1.4-0.1-2.8-0.2-4.2c-0.1-2.1-0.2-4.2-0.3-6.3l-1.2,1.6c8.7-4,12.5-14.3,12.2-23.3l-2.3,1.8
		c0.6,0.2,1.2,0.3,1.8,0.3c0.9-0.2,1.7-0.5,2.6-0.9c1.7-0.7,3.4-1.5,4.9-2.5c3-1.8,5.7-4.1,8-6.7c3.8-4.2,6-9.1,8.1-14.3l-4.5-0.9
		c1.8,4.6,3,9.4,4.5,14.1c0.6,2.3,1.7,4.4,3.2,6.2c1.7,1.6,3.8,2.6,6,3.2c0.9,0.3,1.9-0.3,2.2-1.2c0-0.1,0.1-0.3,0.1-0.4
		C218.7,98.2,217.7,97.1,216.5,96.9z"></path><path class="st0" d="M180.1,101c0,0,6.6,35.5-24.9,46c-13.5,4.5-24.1-6-20.5-20.3c-0.5-5.4,9.4-25.2,10.3-29.2
		c6.4-28,19.8-29.9,34-30.9c14.9-1,24.7,4.3,27.5,10.2c0.4,0.9,0.3,2.6-0.1,4.7c-0.4-1.2-0.9-2.5-1.4-3.9l-1.4,3.5
		c-3.7,9.3-11.3,16.5-20.8,19.8"></path><path class="st2" d="M177.7,100.6c1.2,7.5,0.7,15.1-1.6,22.4c-1.9,6.4-5.7,12-10.7,16.4c-3.1,2.5-6.5,4.5-10.2,5.9
		c-2.1,0.9-4.3,1.4-6.5,1.6c-0.8,0.1-1.6,0-2.4-0.1c-0.8-0.1-1.5-0.3-2.2-0.6c-3.1-1.4-5.5-4.1-6.6-7.4c-0.7-2-1.1-4.1-1.1-6.2
		c0-2,0.6-4.1,0.7-5.9c0.1-2.9,1.3-5.8,2.3-8.4c1.3-3.6,2.9-7.2,4.4-10.7c1.2-2.7,2.4-5.4,3.4-8.3c0.6-1.7,0.9-3.6,1.4-5.3
		c0.7-2.5,1.5-4.9,2.5-7.2c2.7-6.4,6.8-12.5,13.3-15.5c5.3-2.6,11.4-3.1,17.3-3.4c7.5-0.4,17.4,0.8,22.1,7.6
		c1.2,1.7,0.9,3.5,0.5,5.5l4.8,1.1c-0.4-1.3-0.9-2.6-1.4-3.9c-0.4-1.1-4.2-2.5-4.8-1c-1.8,4.4-3.5,8.6-6.6,12.4
		c-4,4.8-9.2,8.5-15.1,10.5c-1.1,0.4,0,1.3,0.5,1.6c1,0.6,2.2,0.8,3.4,0.6c6.1-2.1,11.6-5.9,15.8-10.9c3.2-3.9,5.1-8.2,6.9-12.8
		l-4.8-1.1c0.5,1.3,1,2.6,1.4,3.9c0.3,0.9,1.7,1.3,2.4,1.5c0.5,0.1,2.2,0.4,2.4-0.4c0.4-2.2,0.6-4.2-0.6-6.2
		c-0.9-1.4-2.1-2.7-3.4-3.8c-3.7-2.8-7.9-4.8-12.4-5.7c-5.4-1.2-11-1.5-16.5-1c-3.2,0.2-6.3,0.6-9.4,1.3
		c-6.5,1.4-12.2,5.2-16.1,10.6c-2.6,3.8-4.6,8-5.9,12.4c-1.1,3.6-1.8,7.2-3.2,10.7c-2.9,7-6.4,14-8.4,21.3c-0.4,1.2-0.6,2.5-0.6,3.8
		c-0.1,1-0.3,2.1-0.5,3.1c-0.2,1.2-0.2,2.4-0.2,3.6c0,4.2,1.7,8.3,4.5,11.3c3.3,3.3,7.6,5.2,12.3,5.6c4.8,0.4,9.4-1,13.7-3
		c7-3.3,12.7-8.7,16.3-15.6c4.4-8.6,5.7-19.1,4.2-28.6l-0.1-0.6C182.2,100.1,177.4,99.2,177.7,100.6L177.7,100.6z"></path><path class="st2" d="M203.4,96.2c0.7,0.9,0.5,2.1-0.3,2.8c-0.1,0.1-0.2,0.1-0.3,0.2c-2,1.1-3.3-1.3-1.9-2.8
		c0.6-0.8,1.6-0.9,2.4-0.4C203.2,96.1,203.3,96.2,203.4,96.2z"></path><path class="st2" d="M204.8,94.2c2.7-0.5,5.1-2.2,6.4-4.6c1.5-2.7,1.6-6,0.3-8.9c-1.3-3.5-3.7-6.4-6.8-8.4c-2.8-1.5-6-2.1-9.2-1.6
		c-1,0.1,0,1.8,0.3,2.2c0.6,0.7,1.6,1.8,2.7,1.7c2.2-0.4,4.6-0.1,6.6,0.9c1.6,0.9,2.8,3,3.3,5c1,4.4-1.8,8.8-6.2,9.8
		c-0.1,0-0.3,0.1-0.4,0.1c-1,0.2,0,1.8,0.3,2.2C202.6,93.2,203.7,94.4,204.8,94.2z"></path><path class="st2" d="M220.5,88.2c0.7-4.7-1.1-9.4-4.8-12.4c-3.6-2.9-8.3-3.9-12.7-4.3c-0.4,0.1-0.8,0.2-1.1,0.4
		c-0.6,0.3-1.1,0.6-1.7,0.9c-0.4,0.2-0.8,0.5-1.2,0.9c-0.1,0.1-0.4,0.3-0.1,0.3c4.5,0.5,9.1,1.5,12.7,4.4c3.6,3,5.3,7.6,4.6,12.2
		c0,0.1,0.9-0.2,0.8-0.2c0.5-0.2,1.1-0.5,1.6-0.8C219,89.5,220.4,88.9,220.5,88.2L220.5,88.2z"></path><path class="st0" d="M185.3,108c0,0-1.2-10.4-8.4-6.3s-0.4,15,6,16.8"></path><path class="st2" d="M187.7,107.4c-0.4-3.4-2.2-7.4-6-7.7c-3.5-0.3-8,1.5-9.7,4.8c-1.4,2.7-0.5,5.9,1,8.3c1.7,3.2,4.5,5.6,7.9,6.7
		c1.2,0.3,2.4,0.1,3.4-0.5c0.5-0.2,1.7-1.2,0.6-1.5c-2.5-0.9-4.7-2.6-6.2-4.8c-1.5-2-2.8-4.7-2.4-7.2c0.1-1.2,0.7-2.2,1.6-3
		c0,0,0.4-0.3,0.6-0.4c-0.3,0.2,0.1-0.1,0.2-0.1l0.5-0.2c-0.4,0.2-0.1,0,0.1,0c0.4-0.1-0.6,0.2-0.1,0s-0.6,0.1,0,0
		c-0.4,0.1-0.3-0.1,0,0c-0.7-0.3,0.6,0.2,0,0c0.2,0.1,0.4,0.1,0.6,0.2c0.4,0.2-0.2-0.1,0.1,0.1l0.2,0.1c0.2,0.1,0.4,0.3,0.6,0.5
		c0.6,0.6,1.1,1.3,1.4,2.1c0.5,1.2,0.8,2.4,1,3.7C183.1,109.7,187.9,108.8,187.7,107.4L187.7,107.4z"></path><path class="st2" d="M199,115c-0.4,0.1,0.7,0,0.3,0h-0.2c-0.1,0,0.8,0.1,0.5,0h-0.1c-0.3,0,0.7,0.1,0.5,0.1l-0.3-0.1
		c0,0,0.7,0.2,0.4,0.1l-0.1-0.1l-0.1-0.1c-0.3-0.1,0.3,0.2,0.3,0.2c-0.2-0.1-0.4-0.2-0.5-0.3l0.4,0.3c-0.3-0.2-0.5-0.5-0.7-0.7
		l0.2,0.3c-0.3-0.5-0.5-1-0.6-1.5l0.1,0.3c-0.1-0.8,0-1.5,0.2-2.3c0.1-0.3-0.4-0.8-0.6-0.9c-0.5-0.3-1.1-0.5-1.7-0.6
		c-0.6-0.1-1.2,0-1.8,0.2l-0.4,0.2c-0.2,0.1-0.4,0.3-0.4,0.6c-0.6,1.6-0.3,3.4,0.9,4.7c1.5,1.7,4.1,2.2,6.3,2c0.5,0,0.9-0.3,1.2-0.6
		c0.2-0.3,0.2-0.8-0.1-1C201.4,115.1,200.2,114.8,199,115z"></path><path class="st2" d="M157.4,96.5c6.3,0.3,12.6,0.3,18.3-2.6s10.8-7,15.8-10.9c0.6-0.4-1.4-1-1.6-1c-0.6-0.2-2.5-0.8-3.1-0.3
		c-4.7,3.7-9.6,7.6-15,10.5c-2.6,1.4-5.5,2.4-8.4,2.7c-3.1,0.3-6.2,0.3-9.3,0c-0.9,0-0.9,0.4-0.2,0.8
		C155,96.2,156.2,96.5,157.4,96.5L157.4,96.5z"></path><path class="st2" d="M161.4,113.3c-4.1,7.1-8.9,13.8-14.3,20c-0.6,0.7-0.4,1.5,0.6,1.5c1.2,0.1,2.4-0.4,3.3-1.3
		c5.6-6.4,10.5-13.4,14.8-20.8c0.6-1-0.7-1.2-1.4-1.2C163.2,111.8,162.1,112.4,161.4,113.3L161.4,113.3z"></path><path class="st0" d="M317.6,162.2c3.2,0.9,6.6,1.2,9.9,1c3.1-0.1,6.3-0.2,9-1.7c4.5-2.6,6.3-8,6.4-12.9c0-0.7-1.5-1.4-2-1.6
		c-0.6-0.3-1.8-0.8-2.5-0.3c-1.4,0.9-2.9,1.6-4.5,2.2c-0.4,0.1-0.7,0.2-1.1,0.3c-0.4,0-0.9,0.1-1.3,0.1c-0.4,0.2,0.8,0.1,0.5,0.3
		c-0.1,0.1-0.5-0.7-0.5-0.7c-0.5-0.9-2-1.5-3-1.7c-0.6-0.1-1.8-0.2-1.3,0.8c1.3,2.4,4.6,3.8,7.2,3.9c2.9,0.1,5.7-1.5,8.1-2.9l-4.4-2
		c-0.1,4.3-1.7,9.2-5.5,11.7c-2.2,1.5-4.8,1.8-7.4,1.8s-5.7,0.3-8.3-0.5c-0.5-0.1-2.1-0.6-2,0.3S317.1,162,317.6,162.2L317.6,162.2z
		"></path><path class="st1" d="M136.2,103.1c2.2-1.3,49.7-34.1,66.5-41.2c8.8-3.7-26.3-10.3-54.1,14.6C134.6,89.2,136.2,103.1,136.2,103.1z"></path><path class="st1" d="M135.8,104l-0.1-0.8c0-0.1-1.5-14.3,12.6-27c21.5-19.3,48.2-20.1,54.8-17.1c1,0.5,1.5,1,1.5,1.6
		s-0.6,1.2-1.7,1.7c-14,5.9-50.2,30.2-62.1,38.2c-2.5,1.7-4,2.7-4.4,2.9L135.8,104z M194.2,58.8c-11.1,0-29.5,4.1-45.2,18.2
		c-5.4,4.7-9.4,10.8-11.3,17.7c-0.7,2.5-1,5-1,7.6l3.6-2.4c13.2-8.9,48.1-32.4,62.3-38.3c0.9-0.3,1.1-0.7,1.1-0.8s-0.2-0.4-0.9-0.7
		C201,59.3,198,58.8,194.2,58.8L194.2,58.8z"></path><path class="st2" d="M138.4,107c13.7-15.8,31.2-27.8,50.9-34.8c4-1.4,8-2.6,12.1-3.6c1.1-0.3,0.5-1.4,0-2c-0.9-0.8-2.1-1.2-3.3-1.1
		c-25,6-47.5,19.7-64.2,39.3C133,105.9,137.2,108.4,138.4,107L138.4,107z"></path></g></svg>